<?xml version="1.0" encoding="UTF-8" standalone="no"?>
<!-- Created with Inkscape (http://www.inkscape.org/) -->

<svg
   xmlns:dc="http://purl.org/dc/elements/1.1/"
   xmlns:cc="http://creativecommons.org/ns#"
   xmlns:rdf="http://www.w3.org/1999/02/22-rdf-syntax-ns#"
   xmlns:svg="http://www.w3.org/2000/svg"
   xmlns="http://www.w3.org/2000/svg"
   xmlns:sodipodi="http://sodipodi.sourceforge.net/DTD/sodipodi-0.dtd"
   xmlns:inkscape="http://www.inkscape.org/namespaces/inkscape"
   width="1000"
   height="1000"
   viewBox="0 0 999.99998 1000"
   version="1.1"
   id="svg3809"
   inkscape:version="0.92.4 (5da689c313, 2019-01-14)"
   sodipodi:docname="king-crown.svg">
  <title
     id="title5196">king-crown</title>
  <defs
     id="defs3803" />
  <sodipodi:namedview
     id="base"
     pagecolor="#ffffff"
     bordercolor="#666666"
     borderopacity="1.0"
     inkscape:pageopacity="0.0"
     inkscape:pageshadow="2"
     inkscape:zoom="0.49497475"
     inkscape:cx="390.77573"
     inkscape:cy="902.46201"
     inkscape:document-units="px"
     inkscape:current-layer="layer1"
     showgrid="false"
     units="px"
     fit-margin-top="0"
     fit-margin-left="0"
     fit-margin-right="0"
     fit-margin-bottom="0"
     inkscape:window-width="1800"
     inkscape:window-height="1057"
     inkscape:window-x="112"
     inkscape:window-y="-8"
     inkscape:window-maximized="1" />
  <metadata
     id="metadata3806">
    <rdf:RDF>
      <cc:Work
         rdf:about="">
        <dc:format>image/svg+xml</dc:format>
        <dc:type
           rdf:resource="http://purl.org/dc/dcmitype/StillImage" />
        <dc:title>king-crown</dc:title>
        <cc:license
           rdf:resource="" />
      </cc:Work>
    </rdf:RDF>
  </metadata>
  <g
     inkscape:label="Layer 1"
     inkscape:groupmode="layer"
     id="layer1"
     transform="translate(37.243338,1025.6581)">
    <path
       inkscape:connector-curvature="0"
       id="ruby-lf"
       class="st3"
       d="m 856.32635,-830.95361 c -20.07774,-2.46717 -27.93408,-9.86549 -36.6639,-15.62007 -0.87433,-1.6437 -3.49162,-2.46715 -3.49162,-4.11086 -0.87436,-12.33173 -1.74535,-23.8415 -2.61975,-34.52895 9.60241,-20.55281 20.07785,-37.81756 43.64774,-45.2165 23.56939,-7.39922 42.77455,-2.46711 61.9793,9.0433 1.74531,3.28835 3.49171,5.75491 4.36475,9.04331 7.85664,36.17344 -6.9838,60.837 -45.39339,71.52428 -7.85672,2.46717 -15.71301,7.39922 -21.82377,9.86549 z"
       style="fill:#bf4d28;fill-opacity:1;stroke:#000000;stroke-width:74.59324646;stroke-linecap:round;stroke-linejoin:round;stroke-miterlimit:4;stroke-dasharray:none;stroke-opacity:1;paint-order:markers stroke fill" />
    <path
       inkscape:connector-curvature="0"
       id="ruby-mf"
       class="st3"
       d="m 411.37152,-944.31469 c -12.09556,25.82071 -19.35317,56.19772 -49.99528,73.6645 -33.0619,-3.03759 -59.67229,-13.66972 -67.73592,-50.1222 8.87013,-12.91023 6.45082,-30.37701 9.67652,-44.04685 8.87019,-13.66967 20.15924,-18.9857 35.48055,-23.54229 14.51479,2.27899 31.44893,5.31607 48.38276,9.11317 8.87008,2.27899 12.09581,9.87261 24.19137,34.93367 z"
       style="fill:#bf4d28;fill-opacity:1;stroke:#000000;stroke-width:74.59324646;stroke-linecap:round;stroke-linejoin:round;stroke-miterlimit:4;stroke-dasharray:none;stroke-opacity:1;paint-order:markers stroke fill" />
    <path
       inkscape:connector-curvature="0"
       id="crown"
       class="st0"
       d="m 895.47854,-193.96255 c -25.14518,-8.01507 -50.29031,-10.56537 -73.11436,-20.76642 -13.92658,-6.19351 -32.49532,-0.72844 -47.19569,-8.7438 -22.82408,2.18593 -42.55345,-10.92975 -64.60376,-10.56541 -39.84549,0.36492 -80.07781,1.09333 -119.92328,1.45728 -3.09486,0 -6.18952,-0.36492 -8.8975,0.72841 -61.12223,20.76656 -128.82085,14.93728 -188.7824,39.7114 -22.82409,0 -43.71395,5.82915 -63.83004,17.85194 -27.46643,-5.46495 -51.45091,7.65076 -75.04872,18.58049 -19.7294,9.10814 -39.84549,17.12338 -60.73533,23.68121 -25.14517,8.01512 -49.51658,17.85179 -68.47222,37.161114 -6.96328,6.922066 -16.24767,12.387016 -24.75842,17.851801 -3.481603,2.185932 -8.123761,3.278989 -12.765955,4.73623 -3.481711,-2.914622 -8.123905,-4.73623 -9.671262,-8.015223 -5.415935,-12.751338 -13.152822,-25.867042 -13.539691,-39.347072 -1.547346,-46.63347 -18.568757,-89.62386 -28.240005,-134.43573 -3.094846,-13.84438 -11.218606,-25.50268 -20.116106,-36.43243 -5.415938,-6.92216 -9.2843805,-14.20873 -4.255316,-26.23136 13.926562,-8.01521 31.721574,-16.75901 50.290335,-16.75901 37.137513,0 71.56707,-14.57295 107.93081,-17.48761 17.4083,-10.20102 37.13752,-6.92219 56.48,-6.92219 3.4816,4.0077 6.96332,8.01516 10.83174,12.38708 7.73704,-3.27891 15.8608,-6.92211 24.37157,-10.56532 5.02907,-20.76659 18.95562,-38.25416 14.70017,-60.47799 7.73702,-30.96761 10.44499,-63.39252 22.82416,-92.9027 11.21862,-27.32447 13.15281,-56.1061 20.88985,-84.15908 10.44485,-38.61837 10.83174,-79.05856 25.53203,-117.31254 7.73689,-20.40219 7.73689,-43.71893 11.6055,-65.57842 3.09468,-16.39468 6.96326,-32.42486 10.83173,-48.81957 20.88981,11.29408 33.65591,27.68875 44.1008,47.72655 11.60547,23.31688 17.0214,50.64117 39.07171,68.85742 6.96327,27.32428 23.59783,51.00546 32.49529,77.23687 10.05814,29.51023 25.9189,56.10593 47.19568,79.78707 8.12374,9.10809 10.83172,19.67346 15.47388,29.51035 4.6422,9.83665 13.15301,15.30159 27.85316,10.92966 4.64218,-11.29404 13.92658,-21.85945 24.75844,-30.96762 2.3211,-1.82148 3.86847,-4.0075 6.18952,-5.82923 12.37924,-10.56541 10.05815,-29.14585 24.7583,-38.98275 11.99232,-8.01509 19.72942,-20.40202 29.01376,-31.33185 29.01376,-32.78914 51.45096,-71.04334 85.10694,-100.55354 21.66344,-18.94499 42.55328,-38.25415 56.47981,-63.0283 2.70801,-4.37192 8.12393,-7.65071 11.60552,-10.92974 6.96325,1.45735 6.57636,5.82926 6.57636,9.47247 0.38753,30.60325 0.77351,61.57088 1.54753,92.17421 0,6.92216 1.16091,14.20849 3.86843,20.40222 3.4817,8.01505 4.25531,16.39455 3.86851,24.77397 -1.5474,21.13094 3.09474,41.53299 10.05804,61.57084 5.41594,16.03037 10.44502,32.06055 10.05814,49.18394 -0.38749,14.93729 10.05795,25.86707 14.31346,38.98271 4.64215,16.03018 -0.77347,32.78931 8.1237,49.18378 7.73708,14.2087 0.3876,32.78922 8.12393,48.81953 2.70779,5.82918 1.93425,13.48006 2.3211,20.40226 1.16095,16.75889 -0.77343,33.88216 7.73687,49.54811 2.708,42.99021 15.47405,85.25195 11.60547,128.60657 -1.16091,0.36491 -2.32102,1.82161 -4.64219,5.82915 z"
       style="fill:#e6ac27;fill-opacity:1;stroke:#000000;stroke-width:93.24156952;stroke-linecap:round;stroke-linejoin:round;stroke-miterlimit:4;stroke-dasharray:none;stroke-opacity:1;paint-order:markers stroke fill" />
  </g>
</svg>
