<?xml version="1.0" standalone="no"?>
<!DOCTYPE svg PUBLIC "-//W3C//DTD SVG 20010904//EN"
 "http://www.w3.org/TR/2001/REC-SVG-20010904/DTD/svg10.dtd">
<svg version="1.0" xmlns="http://www.w3.org/2000/svg"
 width="700.000000pt" height="700.000000pt" viewBox="0 0 700.000000 700.000000"
 preserveAspectRatio="xMidYMid meet">
<metadata>
Created by potrace 1.11, written by Peter Selinger 2001-2013
</metadata>
<g transform="translate(0.000000,700.000000) scale(0.100000,-0.100000)"
fill="#000000" stroke="none">
<path d="M3055 6980 c-131 -39 -324 -128 -423 -195 -102 -70 -203 -348 -196
-542 7 -174 55 -285 184 -423 118 -125 146 -200 136 -359 -8 -143 -23 -237
-61 -399 -26 -109 -41 -162 -123 -432 -66 -218 -76 -256 -118 -418 -19 -75
-42 -160 -50 -188 -8 -28 -16 -61 -19 -72 -2 -12 -20 -70 -40 -129 -119 -352
-285 -516 -575 -568 -79 -14 -290 -14 -435 1 -250 26 -266 16 -345 -206 -22
-63 -48 -128 -58 -144 -18 -31 -84 -70 -137 -82 -47 -10 -286 -13 -341 -4 -27
5 -112 18 -189 30 -77 12 -152 23 -166 26 -37 6 -74 -27 -88 -78 -18 -64 -8
-218 24 -378 3 -14 7 -36 10 -50 40 -203 136 -532 312 -1060 47 -140 86 -264
89 -274 2 -11 12 -47 23 -80 11 -34 47 -149 81 -256 167 -528 184 -573 246
-640 34 -37 85 -58 144 -59 39 0 150 32 340 99 166 59 190 67 208 71 4 1 18 6
32 11 21 8 245 70 301 83 8 2 44 10 80 19 82 20 332 72 384 81 22 3 51 8 65
10 14 2 81 13 150 24 155 25 252 38 410 56 30 3 66 8 80 10 14 2 54 7 90 10
36 3 76 8 90 10 14 2 61 7 105 11 44 3 94 8 110 9 17 2 65 6 108 10 44 4 86 8
95 10 10 1 71 6 137 10 66 4 128 9 138 11 31 5 405 18 547 17 138 0 430 -12
440 -18 3 -1 40 -6 83 -10 43 -3 88 -8 100 -10 21 -4 130 -22 172 -30 50 -8
170 -39 275 -69 162 -48 204 -57 266 -57 59 -1 111 15 131 41 48 60 60 131 68
402 2 80 6 168 9 195 3 26 8 80 11 118 3 39 8 84 10 100 3 17 7 53 10 80 3 28
8 64 10 80 2 17 7 50 10 75 2 25 12 99 20 165 9 66 18 140 21 165 3 25 7 61 9
80 3 19 7 58 10 85 4 28 8 61 10 75 2 14 9 63 15 110 6 47 12 99 15 115 2 17
7 53 11 80 3 28 7 57 9 65 2 8 8 51 15 95 14 100 15 108 35 230 9 54 18 117
20 140 3 22 10 63 15 90 5 28 12 67 15 88 12 86 17 115 25 167 5 30 12 73 15
95 3 22 8 51 11 65 2 14 6 36 9 50 2 14 11 68 19 120 9 52 18 113 22 135 3 22
7 51 9 65 2 14 7 59 11 100 3 41 8 86 9 100 2 14 6 56 10 93 3 37 8 76 10 86
2 10 6 42 10 72 13 109 46 257 75 343 48 144 88 200 190 269 184 124 270 206
314 297 28 58 31 74 30 155 -1 185 -97 358 -269 485 -51 38 -168 97 -208 106
-182 39 -275 39 -401 -4 -160 -54 -324 -222 -352 -362 -25 -125 7 -276 102
-475 40 -83 38 -131 -10 -221 -67 -128 -238 -326 -542 -628 -158 -158 -230
-218 -342 -291 -321 -207 -580 -165 -810 128 -62 80 -311 482 -409 662 -63
116 -143 283 -143 299 0 6 -4 16 -9 22 -15 16 -69 186 -88 274 -10 50 -17 128
-17 190 1 185 43 293 175 450 264 314 272 445 48 785 -159 241 -270 312 -499
320 -80 2 -119 -1 -165 -15z"/>
</g>
</svg>
