<?xml version="1.0" encoding="utf-8"?>
<!DOCTYPE svg PUBLIC "-//W3C//DTD SVG 1.1//EN" "http://www.w3.org/Graphics/SVG/1.1/DTD/svg11.dtd">
<svg version="1.1" id="AppKingOfTheScreenMatrix" xmlns="http://www.w3.org/2000/svg" width="1000" height="2000" viewBox="0 0 1000 2000">
<path d="M411.1,1025.1c16.1-21.2-1.5-106.5-1.5-106.5c10.7,35.9,278.1-177.5,283.6-141.8c4.8,31.7,34.6,59.3,48.2,87.5
	C760,903,792,934.9,810.6,974c33.3,70.2,59.4,145.4,75,221c17.3,83.8,51,167,58,252.7c3.3,41.2,14,84.6,22,125.1
	c9.3,46.8,9.2,93.6,16,140.2c3.5,23.5,37.6,107.2,3.3,120c-23.3,8.7-45.7-10.6-67.2-11.4c-21.1-0.7-50.8-6.2-70.9-13.4l-132.6-20.3
	c-48.2-7.6-98.8-5.1-146.7-13.5L334,1754.7c-42-2.3-81.4,15.3-124.5,8.9c-17.6-2.6-27-29-37.2-39.6c-16.1-16.6-36.1-28.2-39.4-51.3
	c-5.3-37.2,19-89.8,30.3-125c14.6-45.6,20.2-95.2,36.3-139.9l43.4-212.5c14.8-20.7,65.6-61.2,65.4-86.6c-0.1-14.8,18-49.2-9-54
	C299.3,1054.7,393.6,1048.1,411.1,1025.1z"/>
<path d="M210,663c200.9-19.8,303.8-89,247.6,55C414.2,829.9,205.7,778.1,210,663C208.5,646.4,209.3,682,210,663z"/>
<path d="M243.1,661.5C247,763.7,61.9,809.7,23.3,710.3C-26.6,582.5,64.7,643.9,243.1,661.5C243.8,678.3,244.5,646.7,243.1,661.5z"/>
</svg>
