<?xml version="1.0" encoding="utf-8"?>
<!DOCTYPE svg PUBLIC "-//W3C//DTD SVG 1.1//EN" "http://www.w3.org/Graphics/SVG/1.1/DTD/svg11.dtd">
<svg version="1.1" id="Frau-Nein" xmlns="http://www.w3.org/2000/svg" xmlns:xlink="http://www.w3.org/1999/xlink" x="0px" y="0px"
	 width="1000px" height="1000px" viewBox="0 0 1000 1000" style="enable-background:new 0 0 1000 1000;" xml:space="preserve">
<style type="text/css">
<![CDATA[
	.st0{fill-rule:evenodd;clip-rule:evenodd;}
	.st1{fill-rule:evenodd;clip-rule:evenodd;fill:#FFFFFF;}
]]>
</style>
<path class="st0" d="M26.3,918.1c2.2-4.1,2.9-7.5,4.8-8.6c48.8-30.8,84.8-77.5,119.7-125.2c37.1-50.6,74.5-101.1,109.3-153.7
	c20.1-30.2,42.7-59.5,50.9-98.2c3.4-16,0.6-23.5-11.9-31.7c-16.7-11-35.2-19.4-46.3-39.4c-10.3-18.6-8.4-44.2,5.6-58.8
	c13.2-13.7,14.9-20.5,1.9-36.6c-20.9-25.9-43.1-50.5-66.2-73.9c-14.5-14.7-32-25.5-47.2-39.4c-14.7-13.4-21.8-30.1-12.3-52
	c1.6-3.6,0.3-11.3-2.2-14.4c-18.4-22.5-36.5-45.5-56.6-66c-10.6-10.8-25.1-16.5-37.4-25.2c-4.5-3.2-9.6-7.8-11.1-13
	c-0.7-2.6,5.6-8.6,9.5-11.9c5.2-4.5,11.1-8,16.4-11.7C47.8,30.4,51.2,26.3,76.8,30c5.7,0.8,11.2,4.1,16.8,4.4
	c8.7,0.4,18.3,1.7,25.9-1.8c15.1-6.9,22.7-5.2,29.3,11.7c5,12.9,9.7,26,14.5,39c5.1,13.8,13.4,23.5,26.8,26.6
	c52.8,12.1,83.7,57.7,118.1,98.4c36.5,43.2,72.8,86.8,111.8,126.9c13.1,13.4,34.2,17,52,24.1c4.1,1.6,9.7-0.2,14.3-1.7
	c38.1-12.2,72.8-31.2,101.2-63.4c30.4-34.5,62.1-67.6,91.4-103.2c13.4-16.3,22.8-37.1,33.3-56.3c17-31.3,27.5-36.1,57.8-24.4
	c12.9,5,32.2-8.9,41.2-29.7c7.2-16.7,14.3-33.5,21.8-50.2c2.8-6.3,5.6-13.1,10-17.7c5.4-5.7,12.8-13.2,18.7-12.6
	c5.3,0.6,9.7,11.2,14.5,17.4c-0.6,1.6-1.2,3.2-1.7,4.9c5.7-1.6,11.4-3,17.1-4.7c9-2.8,17.8-6.3,26.9-8.5c8.3-2,14.8,1.9,14.8,12.1
	c0.1,10.5,5,14,12.7,15.9c3.4,0.9,6.7,2.6,10,4.3c10.7,5.7,12.3,16.7,2.8,24.6c-6,5-8.2,8.9-5,17.2c4.2,11.1-1.4,17.7-10.5,19.8
	c-10,2.3-20.2,3.1-30.4,4.4c-31.2,3.9-52.2,26.4-71.2,51.4c-4.4,5.8-6,15.8-6.1,23.9c-0.1,14.8-4.1,24.1-16.8,30.6
	c-41.5,21-75.9,54.3-109.8,87.5c-24.3,23.7-32.7,58.3-41.3,91.6c-4.7,18.3-5.6,37.8-10.1,56.2c-8.8,35.5,1.7,67,15.1,97.3
	c25.1,56.7,68.9,92.8,114.8,124.9c57,40,115.4,77.3,172.9,116.3c8.6,5.9,16.4,14,23.2,22.5c2.9,3.6,3.2,10.9,2.7,16.3
	c-0.1,1.4-7.5,2.6-11.5,2.9c-20.4,1-40.9,1.6-61.3,2.6c-1.8,0.1-3.5,2.2-7.6,4.8c7.3,4.6,12.5,9.6,18.5,11.4
	c19.6,6.1,39.5,11.1,59.3,16.3c9.1,2.4,17.2,7.7,16.4,18.4c-0.6,7.6-5.5,16.8-11.1,21.5c-9.3,7.9-20.6,7.7-31.7,1.9
	c-16.9-8.9-34.1-17.1-51-26c-9.2-4.8-16.3-3.4-23.8,5.2c-16.9,19.2-28.4,15.2-34.2-10.9c-1.1-4.8-1.6-9.9-1.8-14.9
	c-0.7-15.9-6-20.4-18.3-15.4c-16,6.6-23.1,1.9-31.9-13.8c-19.8-35-39.1-71.5-70.2-95c-24.6-18.6-51.8-33.1-78.1-48.5
	c-40.8-23.9-83.5-42.4-128.3-54.6c-15-4.1-28.9-3.8-42.2,6c-36.1,26.7-73.6,51.2-108,80.4c-23.6,20-43.7,45.7-64.1,70.1
	c-31.3,37.7-56,80.5-73.4,128.6c-3.1,8.6-8.3,10.3-16,9.1c-7.5-1.3-15.6-2.2-22.8-0.2c-4.2,1.1-9.3,7.7-10.3,12.8
	c-5.9,31.2-15.3,35.5-41.3,22.3c-8.4-4.3-20.6-1.7-30.4,1.1c-18.5,5.2-36.7,12.2-54.6,19.8c-9.3,4-17.4,11.7-26.6,16.2
	c-4.3,2.1-12.6,3.2-14.6,0.5c-4.3-5.7-19-6.1-10.5-20.9c1.5-2.6-0.7-8.9-2.4-12.8c-4.8-10.8-2.3-17.6,8.4-19.1
	c11.9-1.7,24.3-1.1,35.8-4.4c12.1-3.5,23.5-10.2,35-16c1.8-0.9,2.6-4.5,3.9-6.9c-2.5-1.4-5.2-4.1-7.6-3.9c-13.7,1-27.4,2.9-41.2,4.2
	C33.8,918.9,30.9,918.4,26.3,918.1z"/>
<path class="st1" d="M968.1,814.7c-19.1,1.4-34.4,2.2-49.7,3.6c-26.1,2.3-52.4,3.7-78.3,7.8c-11.9,1.9-18.1-3.5-24.7-12.3
	c-14.7-19.6-29-39.6-44.6-58.2c-24.9-29.7-57.3-47.2-88.1-67.1c-40.9-26.4-84.8-43.7-129.6-59c-6-2-12.4-3.1-17.7-6.6
	c-23.8-15.3-46.1-10.8-67.9,5.1c-37.6,27.5-76.5,53-112.2,83.4c-22,18.7-40.7,43.3-57.8,68.1c-23.7,34.3-45.3,70.6-66.3,107.1
	c-12.4,21.5-11,20.2-33.5,17.5c-33.4-3.9-67.2-4.3-100.8-6.1c-4.8-0.3-9.6,0-18.3,0c10-11.8,18.3-20.4,25.4-30
	c47-63.7,94.4-127.2,140.5-191.8c24.3-34,46.9-69.5,69-105.3c8.2-13.4,13.5-29.4,18.7-44.8c3-9,5.9-12.3,15.1-11.4
	c30.6,2.8,61.2,4.2,90.2-11.1c2.8-1.4,7.6-1.4,10,0.4c34.9,26.3,72,17.4,109.8,11.6c25.3-3.9,41.7-21.2,54.9-41.3
	c18.1-27.4,9.4-72.1-16.2-93.3c-14.9-12.3-31.3-22.3-48.7-34.4c13-11.4,26.2-22.9,39.2-34.6c53.2-48.1,99.8-102.9,134.7-169.7
	c15.6-29.8,26.8-32.5,53.6-15.3c15.4,9.9,31.6,18.3,41.4,36.8c12,22.6,9.5,36.3-12,44.5c-36.3,13.9-67.8,36.7-93.3,67.9
	c-16.6,20.2-31.4,44.4-40.9,69.7c-12.5,33.4-21.4,69.2-27.3,105c-5.4,33,0.3,66.4,16.4,95.8c11.5,20.9,22.4,43.1,37.2,60.7
	c18.2,21.7,38.6,42,60.8,58.1c52.4,38,106.5,72.9,159.6,109.6C933.4,786.4,949.1,799.9,968.1,814.7z"/>
<path class="st1" d="M461.5,378c-18.5,12.9-35.9,10.6-52,4.8c-34.8-12.3-69.9-13.1-105.5-9.2c-2.6,0.3-5.7,0.1-7.8,1.5
	c-11,7.2-16.5-0.2-23.1-8.9c-20.5-27.1-40.5-54.8-63.1-79.5c-13.4-14.7-30.7-25.5-47.3-35.8c-19.1-11.9-24.2-20.6-14.9-43.4
	c9.6-23.6,21.6-46.2,34.2-67.9c3.1-5.4,12.8-8.5,19.4-8.4c22,0.1,36.5,17.8,50.9,32.9c23.2,24.2,45.2,49.9,66.4,76.3
	c30.5,37.9,58.8,78.4,96.6,107.7C429,358.6,444.2,366.9,461.5,378z"/>
<g>
	<path class="st1" d="M517,510.7c-26.2-2.2-45.3-5.2-61.9-19.1c-20.7-17.2-25.3-38.1-13.6-64.5c23-52.1,67.7-70.4,111.5-57.6
		c21.5,6.3,41.3,24.8,46.7,53.2c5.7,30-2.6,57.5-26.1,71.4C555,505.2,532,506.7,517,510.7z"/>
	<path class="st1" d="M432.1,491.1c-29.6,15.6-59.4,14.5-89.6,9.5c-22.3-3.7-42.9-12.3-61.8-26.1c-27.4-20-32.2-53.2-1.1-74.2
		c33.5-22.6,68.8-19.8,104.6-11.8c13,2.9,25.7,8.1,38.5,12.2c10.4,3.3,14,9,7.5,20.8C417.6,444.1,423.8,466.9,432.1,491.1z"/>
</g>
<g>
	<path class="st1" d="M865.2,54.7c18.8-18.4,33.3-34.9,57.9-32.9c-8.4,14.6-15.5,26.9-22.7,39.2c1.1,1.8,2.1,3.5,3.2,5.3
		c13.7-18.5,28.4-30.6,50.5-10.6c-15.8,9.6-30,18.3-44.3,27c0.8,1.7,1.5,3.4,2.3,5c5.1-2.1,10.2-5.6,15.4-5.8
		c4.8-0.2,9.8,3.2,14.6,5c-3.6,2.8-6.8,7.1-10.8,8.3c-17.4,5.2-36,6.9-52.2,14.9c-15.1,7.4-28.6,20-41.1,32.6
		c-9.1,9.2-14.9,9.7-23.1,0c-6.4-7.5-14-13.6-20.1-19.4c10.7-18,21.3-34.4,30.4-51.8c7.9-15,13.6-31.5,21.4-46.7
		c2.5-4.9,8.4-7.7,12.7-11.5c1.1,5.9,2.3,11.7,3.2,17.6C863.5,37.3,864.1,43.9,865.2,54.7z"/>
	<path class="st1" d="M97.6,76.6c-9.2-16.6-33.9-5.6-34.4-31.4c11.4-8.3,23.1-1.3,34.2,3.3c10.6,4.4,20.4,11.1,30.5,16.9
		c1.7-4,2.3-4.9,2.4-5.8c0.3-5.6,0.4-11.2,0.6-16.9c4.1,3.7,10.3,6.5,12,11.3c7.9,22.4,14.5,45.4,30.8,62.6
		c1.7,1.8,1.2,8.6-0.4,11.5c-7.1,12.7-15.2,24.7-22.6,37.3c-4.9,8.3-9.2,10-17.2,3.6c-14.1-11.3-26.1-23.8-37.3-39.5
		C83,110.7,62.9,98.1,44.9,82.1C58.7,68,78.8,82.6,97.6,76.6z"/>
	<path class="st1" d="M12,957.9c17.3-2.8,31.7-4.9,46-7.4c18-3.1,31.5-13.9,43-29.9c4.1-5.7,13.4-8.4,20.5-8.9
		c11.4-0.8,23,0.6,34.3,2.8c4.6,0.9,10.9,5.5,12.3,10c3,10,4.1,22-6.3,27.7c-4.5,2.4-12.8,1.9-16.6-1.4c-7.5-6.4-14.2-6.5-22.3-3.7
		c-23.8,8.2-47.6,15.9-71.4,24c-3.4,1.1-6.6,3-9.8,4.8c-5.7,3.3-11.4,6.7-17.1,10.1C20.9,977.8,17.2,969.6,12,957.9z"/>
	<path class="st1" d="M867,882.4c-9.9-13.1-7.9-27.5-6.9-41.1c0.5-6.6,23.8-10.5,28.9-4c20.8,26.4,49.3,30.5,77.3,36.4
		c3.5,0.7,7.1,1.3,10.3,2.9c3.5,1.8,6.5,4.6,9.7,7c-3.9,4.1-7.3,10.6-11.8,11.7c-5,1.2-11.2-1.8-16.4-4.4
		c-17.4-8.5-34.3-18.3-51.9-26.3c-14-6.3-24.8,1.6-33.8,13.5C871.2,879.6,869.5,880.4,867,882.4z"/>
</g>
<path class="st0" d="M426.3,524.6c17.7,3.4,37.1,10.1,50.3,29.6c3.1,4.7,5.2,15,2.8,18.6c-3.4,5.2-11.1,8.6-17.3,9.4
	c-13.5,1.6-27.2,2.2-40.7,1.1c-12-1-24.4-3.2-35.7-7.7c-9.7-3.9-12.6-17.7-5.6-24.8C392.3,538.4,404.8,524.7,426.3,524.6z
	 M466.7,568.2c-16-24.9-50.8-30.7-70.4-16.2c-2.9,2.1-4.4,6.7-6.6,10.1c2.8,2,5.5,5.7,8.3,5.8C420.9,568.4,443.8,568.2,466.7,568.2z
	"/>
<path class="st0" d="M535,462c0,16.8-6.6,23.8-22.3,23.9c-12,0.1-23.1-10.4-22.9-21.5c0.3-18.4,10.2-30.6,24.7-30.5
	C528.5,434,535.1,443,535,462z"/>
<path class="st0" d="M389.2,455.7c-0.5,17.8-5.2,24.6-16.9,24.5c-13.5-0.1-22.7-11.2-22.5-27.2c0.2-11.4,12-24.4,21.8-23.9
	C382.7,429.6,389.7,440.2,389.2,455.7z"/>
<path class="st1" d="M466.7,568.2c-22.9,0-45.8,0.2-68.6-0.3c-2.8-0.1-5.6-3.8-8.3-5.8c2.2-3.4,3.7-8,6.6-10.1
	C415.9,537.5,450.7,543.3,466.7,568.2z"/>
<path class="st1" d="M378.4,460.7c0,4.6-3.3,8.3-7.3,8.3h-1.3c-4.1,0-7.3-3.7-7.3-8.3l0,0c0-4.6,3.3-8.3,7.3-8.3h1.3
	C375.1,452.4,378.4,456.2,378.4,460.7L378.4,460.7z"/>
<path class="st1" d="M521.4,464c0,5-3.6,9.1-8,9.1H512c-4.4,0-8-4.1-8-9.1l0,0c0-5,3.6-9.1,8-9.1h1.5C517.8,455,521.4,459,521.4,464
	L521.4,464z"/>
<g>
	<path class="st0" d="M532.6,892.4c1.8-8.3,3.4-16.6,5.4-24.9c1.9-7.8,4.1-15.5,6.1-23.3c1.4,0.2,2.8,0.4,4.2,0.5
		c0,3.4,0.4,6.9-0.1,10.2c-2.7,20.2-5.6,40.4-8.6,60.6c-0.3,1.7-2.5,3-3.8,4.6c-1.6-1.6-3.8-2.9-4.8-4.9
		c-7.8-14.6-15.3-29.4-22.9-44.1c-0.3-0.6-1.1-1-2.2-1.9c-0.8,1.4-1.7,2.5-2,3.7c-2.8,15.6-5.6,31.3-8,47c-0.6,4.2,0.6,8.6-0.2,12.8
		c-0.5,2.6-2.5,6.4-4.7,7c-4,1.2-8.6,0.6-12.9,0.7c0.6-3.7,0.3-7.9,1.8-11.2c11.2-24.4,14.4-50.8,20.7-76.5c0.1-0.5,0.1-1.1,0.4-1.5
		c1.7-2.5,3.4-5,5.2-7.5c1.7,2.6,4,5,5.1,7.8c3.4,8.9,6,18.2,9.7,27c2.2,5.2,6,9.7,9,14.4C530.9,892.9,531.8,892.6,532.6,892.4z"/>
	<path class="st0" d="M516.9,772.4c9.8,0,17.3,0,24.8,0c0.1,0.7,0.2,1.4,0.3,2.1c-1.4,0.7-2.7,1.7-4.1,1.9c-3.2,0.4-6.6,0.4-9.8,0.7
		c-10.1,1-13.1,4.1-16.4,13.5c-3.3,9.6-6.2,19.5-13.5,27.1c-0.8-0.2-1.7-0.4-2.5-0.6c0.3-2.9,0.1-5.9,0.9-8.6
		c5.9-18.5,12-36.9,17.8-55.3c1.3-4,1.6-8.4,2.4-13.1c15.1-1.5,30.2-3.2,45.5-4.3c1.8-0.1,5.3,3.2,5.5,5.1
		c0.4,4.3,2.9,10.4-5.8,12.1c-0.6-3.6-1.2-6.9-2-10.8c-11.1-1.8-21.7,1.6-32.2,5c-1.9,0.6-3.4,3.6-4.3,5.9
		C521.5,758.8,519.6,764.6,516.9,772.4z"/>
	<path class="st0" d="M582.9,768.3c5.3,1.4,11.1,2.1,16.2,4.4c6.6,3,7.1,8.2,1.7,13.1c-2.5,2.3-5.8,4-9,5.2
		c-7.3,2.7-9.7,6.3-6.7,13.6c2.6,6.5,6.8,12.3,9.9,18.6c1.3,2.6,1.6,5.7,2.3,8.5c-2.6-1.7-6.1-2.8-7.5-5.2c-4.5-8.1-8-16.8-12.4-25
		c-1.4-2.6-4.6-6.2-6.9-6.1c-5.2,0.3-11.6,0.2-13.6,7.2c-0.8,2.9-0.5,6.4-2.1,8.7c-1.5,2.2-4.7,3.3-7.1,4.9
		c-0.8-2.4-2.9-5.1-2.3-7.1c2.7-10,5.7-19.9,9.4-29.5c1-2.8,4.1-5.7,6.9-6.6C568.3,770.9,575.3,769.9,582.9,768.3z M583.3,772.6
		c-0.4,0.5-0.8,1.1-1.1,1.6c-4,0.5-8,1-12,1.3c-6.6,0.5-9.6,4.6-11.2,10.4c-1.4,4.9,0.5,6.7,5.3,5.8c6.2-1.1,12.3-2.4,18.5-3.3
		c5.7-0.9,11.2-2.8,9.8-9.5C592,776.3,586.5,774.7,583.3,772.6z"/>
	<path class="st0" d="M671.7,872.8c5.2-2.6,10.8-5.4,16.4-8.3c6.1-3.1,11.9-1.5,14.1,4.3c4.2,11.2,7,22.9,10,34.5
		c0.4,1.6-2,3.9-3.1,5.9c-1.4-2-3.6-3.9-4.2-6.1c-2.3-9-3.8-18.2-6.3-27.1c-1.6-5.9-5.8-7.4-11-3.7c-5.5,4-11,8-16.2,12.4
		c-1.6,1.4-3,4.4-2.8,6.5c0.6,6.7,2.2,13.3,2.8,20c0.2,2.4-0.1,6.1-1.6,7.1c-2.4,1.6-6.1,2.2-8.9,1.5c-1.6-0.4-3.6-4.2-3.4-6.3
		c1.4-14.3,3.3-28.5,5.2-42.7c0.2-1.4,1.9-2.6,2.9-3.8C667.5,868.7,669.2,870.4,671.7,872.8z"/>
	<path class="st0" d="M594.9,916.6c-9.2,3.7-24.1,0.8-29.5-5.3c-6.3-7.1-5.5-15.3-2.6-23.5c4.9-13.4,14.3-21.6,28.6-24.1
		c6.4-1.1,11.9,0.3,14.2,6.8c2.3,6.4-0.4,11.8-6.4,14.5c-8.2,3.7-16.8,6.8-25.4,9.7c-7.2,2.4-9.1,7.5-3.1,12.2
		c4.4,3.4,10.3,4.8,15.6,7C588.7,914.8,591.2,915.4,594.9,916.6z M571.2,883.7c0.7,1.3,1.4,2.6,2.1,3.9c5.7-2.1,11.6-3.7,17-6.4
		c2.2-1.1,3.2-4.4,4.7-6.7c-3.1-0.9-7.1-3.5-9.1-2.4C580.6,875.1,576.1,879.7,571.2,883.7z"/>
	<path class="st0" d="M650.9,812.3c-12.3,0-23.6,0.4-34.8-0.1c-11.7-0.5-15.3-8.5-8.3-18c7.2-9.9,17.6-14.9,29.3-17.2
		c1.9-0.4,5.8,1.6,6.2,3.1C646.1,790.2,648.2,800.5,650.9,812.3z M623.9,806.3c0,0.1,0,0.3,0,0.4c3.7-0.4,7.5-0.5,11.1-1.4
		c1.4-0.4,3.4-2.3,3.6-3.7c1.3-12.5-4.2-16.8-15.7-12.7c-1.4,0.5-3.2,0.7-4.1,1.7c-2.9,3.3-7.4,6.8-7.6,10.5
		c-0.4,5.9,5.7,4.7,9.8,5.1C621.9,806.4,622.9,806.3,623.9,806.3z"/>
	<path class="st0" d="M669.8,774.1c0.3,2.4,0.9,4.9,0.9,7.3c0,6.3-0.8,12.6-0.2,18.8c0.3,2.7,2.6,6.3,5,7.5
		c8.7,4.2,23.1-4.1,24-13.9c0.6-5.7-0.3-11.6,0.1-17.4c0.1-2,1.9-3.8,3-5.7c1,2,2.9,3.9,3,5.9c0.2,7,0,14.1-0.6,21.1
		c-0.7,8.5-5.1,14.1-14,15.3c-4,0.5-8,1.3-12,1.2c-11-0.2-15.2-3.5-16.2-14.6c-0.6-6.9,0.6-14,1.4-21c0.2-1.7,2-3.2,3-4.8
		C668,773.9,668.9,774,669.8,774.1z"/>
	<path class="st0" d="M620.8,910.9c2.2-13.1,3.8-23.6,5.8-34c0.3-1.4,2.3-2.6,3.6-3.8c1,1.5,2.8,3.1,2.8,4.6
		c0,12.2-0.4,24.5-0.4,36.7c0,4.1-2.2,5.5-5.1,3.5C624.3,915.9,622.1,912.4,620.8,910.9z"/>
	<path class="st0" d="M634.3,863.2c-4.3-3-7.7-5.4-11.1-7.8c2.5-1.5,4.9-4.3,7.4-4.3c4.5,0,10.4-0.3,11.2,6
		C642,858.4,637.8,860.4,634.3,863.2z"/>
</g>
</svg>
