<?xml version="1.0" encoding="utf-8"?>
<!DOCTYPE svg PUBLIC "-//W3C//DTD SVG 1.1//EN" "http://www.w3.org/Graphics/SVG/1.1/DTD/svg11.dtd">
<svg version="1.1" id="TheHamburger" xmlns="http://www.w3.org/2000/svg" xmlns:xlink="http://www.w3.org/1999/xlink" x="0px" y="0px"
	 width="1000px" height="1000px" viewBox="0 0 1000 1000" style="enable-background:new 0 0 1000 1000;" xml:space="preserve">
<style type="text/css">
<![CDATA[
	.st0{fill-rule:evenodd;clip-rule:evenodd;}
	.st1{fill-rule:evenodd;clip-rule:evenodd;fill:#FFFFFF;}
]]>
</style>
<g>
	<path class="st0" d="M476.6,661c29.4-21.3,109.6-28.3,109.9,25.9c0.1,21.4,1.2,42.7,4,63.5c3.7,27.4,42.4,20.9,61.9,20
		c95.8-4,191.5-0.7,287.5-7.1c10.4-0.7,25.6-3.1,35.6-1.2c4.1,0.8,8.5,1.8,12.6,2.2c4.7,0.4,2.7,5.3,6.6,7.7
		c3.1,15.7-4.1,41.2,1.9,58c3.2,9,2,42.8-0.5,52.5c0,9.7-5.3,11.3-12.2,16.2c-8.3,5.9-14.8-1.4-17.9,10.8c-2.5,9.8-8,20.1-8.6,30.3
		c-0.8,12.6-1.8,24.4-0.1,37.1c1.5,10.9,5.7,23.2-8.7,23.2c-23.5,0-2.2-39.9-8.8-51.7c-1.8-3.2-2-28-1.4-32.2
		c-4.6-5.4-24-0.4-30.9,1.1c-11.8,2.6-15.6,44-15.6,54.6c0.1,11.3,4.3,20.9-12.4,20.1c-9.1-0.4-4.2-22.4-4-28.3
		c0.4-12.1,0.7-24.2,0.7-36.4c0-10.1-18-4.9-26.4-4.9c-22.1-0.1-20.7,34.3-22.5,51.9c-0.6,5.6-13.1,21.9-13.4,8.9
		c-0.2-10.9,0.3-21.2-0.9-32c-0.7-6,0.3-26.8-6.7-29.3c-8.2-3-16.6-0.2-24.6-1.9c-15.9-3.4-6.1,47.6-15,55.9
		c-14.5,7.9-11.4-43.8-14.5-51.1c-4.2-9.9-16.3-6.1-26.8-6.1c-4.8,1.9-1.1,20.9-3.8,25.4c-3.6,6.2,1.9,50.7-15.5,41.4
		c-5.8-16.8,0.5-40.4-1-58.2c-1.4-16.3-8.5-8.1-23.1-11.7c-9.3-2.3-8.4,11.4-8.4,17.2c0,13.1-2.9,25.7-2.5,38.7
		c0.4,13.4-19.2,12.8-11.9-5.8c4.3-10.8-3.5-23.9-0.7-35.7c3.8-15.9-3.4-15.5-17.3-15.9c-25.8-0.7-51.4-2.6-77.3-2.6
		c-46.4,0-93.8-4.8-140.8-5.3c-95.1-1.1-189.7,6.9-284.6,7.7c-38.2,0.3-55.1-44.5-90-56.1c-16-5.3-40.2-31.9-46.9-46.6
		c-6.4-14.2,6.3-44,19-52.4c14.3-9.5,44.9-21.1,62.3-17.5c24.7,5,50.3-2.2,74.3,0.7c24,2.9,46.2,1.8,68.9,12
		c6.2,2.8,15.5,13.9,21.9,14.4c12.6,1,24.9,3.7,37.4,4.7c15.5,1.2,30.3-2,45.7-2.1c17.7-0.1,15.2-4,23.9-15.8
		c12.4-16.8,7.8-41.8,13.8-60.7c6.6-20.9,10-43.1,36.1-46.4C432.2,644.3,450.4,659.7,476.6,661C477.2,660.5,475.2,660.9,476.6,661z"
		/>
	<path class="st1" d="M178.7,846.3c-16.6,0-67.7-7.3-68.6-31.9c-0.6-15.5,0.3-23.4,9.7-37.4c7.5-11.1,27.8-22.5,41-24
		c34.2-3.9,82.8,16.7,93.4,51.9C266.4,845.4,203.8,844.8,178.7,846.3C178.3,846.3,182.4,846,178.7,846.3z"/>
	<path class="st1" d="M567,766.9c-4.8,6.3-36,1.7-45.2,1.5c-10.3-0.2-42.7,6.6-50.4-2.6c-7.5-9-0.6-30.9-6.9-39.9
		c-9.2-12.9,2.8-37.3,12.4-46.5c14.4-13.7,69.5-36.5,81.4-8.5c5.8,13.7,8.5,22.6,8.8,38.2C567.4,727.3,564.8,749.2,567,766.9
		C566.3,767.8,566.5,763.1,567,766.9z"/>
	<path class="st1" d="M28,765.7c3.6-0.7,7.5-4.7,11.3-6.1c7.8-2.7,18.2-3.1,25.5-6.3c17,1.3,32.2-0.6,49.2,3.4
		c7.3,7.8-9.9,24.9-14.2,33.1c-4.6,8.7-8.8,29.4,2,36.1c17.7,10.9-10.3,16.1-20.1,16.4c-15.2,0.4-25-2.5-38.7-6.8
		c-15.7-4.9-24.6-20.1-30.8-33.5C5.9,788.9,25.7,775.8,28,765.7C30.9,765.1,27.6,767.2,28,765.7z"/>
	<path class="st1" d="M379.2,769.6c-4.3-4.9-1.1-27-1-32.7c0-11.2-2.7-34.3,5.4-43.4c5.3-5.9,4.7-18.1,12-21.8
		c4.2-2.2,9.3-3.9,13.2-6.5c14.2-9.5,25.7-0.3,39.7,1.2c13.6,1.4-4.7,61.7,0.4,75.3c2.4,6.3,2.1,14,3.4,20.5c1.6,8.2-13,5.4-19,5.7
		C419.8,768.4,390.5,776.6,379.2,769.6C378.4,768.7,380.5,770.4,379.2,769.6z"/>
	<path class="st0" d="M175.7,775.5c-1.5,9.2,1.5,13.2-10.9,13.2c-6.7,0-16.8-0.2-18.6-8.3C142.3,763.4,169.2,769.2,175.7,775.5
		C175.3,778,174.5,774.3,175.7,775.5z"/>
	<path class="st0" d="M504.2,724.5c3.5-1.7,3.9-13.4,2-16.1c-2.2-3.3-11-0.9-14.6-4.4c1.6-2.5,14.4-8,14.4-6.5
		c-0.1-5-4.3-19.4,2-21.1c20-5.6,5,18.3,17.3,21.3c22.5,5.5-9.5,9.4-7.8,14.6c1.4,4.2,1,11.5,6.8,11.6c2.3,0,15.9-3.7,15.8,1.1
		c-0.3,13.3-22.5,0.6-21,20.7c0.5,6.6-8,7.8-11.7,4c-0.1-6.4,3.2-16.2-6.6-15.9C480.2,734.5,486.1,719.5,504.2,724.5
		C505.9,723.7,503.6,724.4,504.2,724.5z"/>
	<path class="st0" d="M74.9,765.3c14.8,8.1,6.7,23.2-8.7,20.9c-6.3-1-14.2-7.7-8.6-14.5C63.3,764.4,67.8,768.3,74.9,765.3
		C78,767,73.2,766,74.9,765.3z"/>
	<path class="st0" d="M424.6,728c1.4,2.9,30.6,4.4,14.6,11.4c-4.3,1.9-8.4,0.1-12.7,2.5c-1.3,4.3,4.2,16.6,0.2,18.4
		c-14.7,6.4-6.9-20.8-24.7-15.7c-10.3-1.4-4.7-10,4-9.3c5.8,0.4,2.9-9.5,3-12c0.1-5.5,1.2-9.9-5.1-11.8c-2.1-0.6-14.6-5.9-7.1-9.3
		c3.5-1.5,9.6,3.3,12.2-0.3c0.5-4.7-2.7-18.8,2.7-20.5c13.7-4.1,5.2,20.4,14.8,21.4c10.4,1.1-2.5,10.2-2.4,13.6
		C424,716.6,425.7,727.2,424.6,728C425.1,729.1,425.9,727,424.6,728z"/>
</g>
<g>
	<path class="st0" d="M985.2,665.1c-6.8-12.4-11.1-34.1-10-48.7c1.1-14.8-1-26.5-16.3-24.6c-14,1.8-26.3-3.9-27,15.4
		c-0.5,13.2-1.5,26.1-1.5,39.4c0,2.4-6.6,28.4-11.9,13.2c-3.5-10-4.1-20.9-4.2-31.2c0-6.6,3.7-30.5-2.5-35.1
		c-5.4-3.9-30.8-1.8-37.9-1c-4.1,0.5-5.8,15.3-5.5,18.5c1.2,17,2.7,46.2-9.5,56c-9.1,7.2-7.9-47.1-8.3-49.7c-1.8-10.8,4.3-27-10-27
		c-15.8,0-27-6.4-30.1,11.1c-2.7,15.2,2.1,31.7,1.7,47c-0.1,5.5-2.3,16.8-8.4,15.3c-12.2-2.2-5.8-11.7-7.1-22.5
		c-1.5-12.8,1.8-51.7-12.9-53.4c-8.6-1-23.9-5.9-31.8-3.5c-9.5-1-6.1,21.4-7.1,29.7c-0.5,3.9,3.9,49.9-11.2,40.3
		c-6.3-4-4.4-30.3-4.3-37.6c0.1-5.8,2.5-27.7-2.2-32.6c-6.4-6.7-28.3-2.7-34.7,1c-6.2,3.7-6.2,21.2-5.7,27.1
		c0.8,8.3-0.3,16.7,0.7,25c7,11.1-15.1,12.1-12.5-3c1.4-8.1,0.2-18.5-0.9-26.7c-1.5-12-8.3-14-13.6-23.7
		c-8.6-15.9-53.6-8.5-67.7-8.5c-20.8,0-41.6,1-62.3-0.5c-27.7-2-60.2,6-87.3-1.5c-21.9-6.1-50.1,2.2-73-0.3
		c-23.7-2.5-50.1-4.8-73.9-1.1c-45.7,7.1-95.3-2.7-140.8,7.9c-5.6,1.3-30.6,5.4-35.5,1.9c-6.9,4.1-25.2,3.6-30.9-2
		c-7.2-7.1-17.4-7.5-21.2-18.6c-3.6-10.5-12.9-22.5-17.8-32.7C43.6,514.9,25.4,514.2,18,499c-10.4-21.4,1.1-47.7,19.2-61.5
		c15-11.4,39.3-24.6,59.2-22c10.2,1.3,21.7,1.7,32,0.8c15.6-1.4,30.3-9.5,46.2-8.4c13.7,9.5,39,1.5,54.1,13.8
		c18.7,15.2,48.2,25.9,72.9,21.1c8.9-1.7,21,1.2,29.9,2.2c9.2,1,19-2,28-0.8c1.6-5.6-2.4-22.6-3.2-28.7c-1.1-7.7-2.1-19.9,0-27.5
		c4.6-16.8,7.2-26.6,17.2-40.5c10.4-14.5,46.6-20.5,62.8-15.7c22.1,6.5,40.9,22.1,61.6,11.1c21.9-11.6,48.3-3.3,68,6.7
		c25,12.7,16.9,42,6.8,62.7c-4.4,9-11.9,18.2-15.1,27.7c-3.9,11.7-6.1,9.2,8.7,10.2c26.6,1.7,56.2-0.9,82.9-2
		c99.4-4,200.3-13,299.8-8c20.3,1,47.9,1.1,48.4,29c0.2,11.4,3.3,23.3,2.3,34.7c-0.5,6.8-4.1,23-1.7,29.3c3.3,8.5-2.9,18-2,26.7
		c0.9,8.4-1.1,29.4-3.9,36.9C989.2,605,1002,672.6,985.2,665.1C984.8,664.4,986.1,665.5,985.2,665.1z"/>
	<path class="st1" d="M127.3,447.9c6.4-4.2,8.7-14.4,15.2-18.5c11.8-7.3,33.4-12.6,46.8-9.5c10.5,2.4,20.6,3.1,30.9,7.1
		c10.5,4.1,10.1,9,17.3,14.7c9.8,7.7,6.2,23.1,6.4,33.5c0.7,31.8-55.2,34.1-76.3,34.7c-14.9,0.4-24.5-8.6-34-18.9
		C121.6,478.1,127.1,462.9,127.3,447.9C127.8,447.6,127.2,451.2,127.3,447.9z"/>
	<path class="st1" d="M539.2,447.3c-7.9,7.4-36.8,0.1-47.6,0.7c-20.2,1.1-31.8-10.9-36.7-29.8c-8.4-32.8,12.6-47.8,38.1-61
		c25.6-13.3,60.2-11.6,74.6,14.8C581.5,397.5,542,424.2,539.2,447.3C538,448.4,539.8,442.5,539.2,447.3z"/>
	<path class="st1" d="M28.2,482.9c4.5-5.3,1.4-15.9,5.4-22.1c4.6-7.1,9.3-12.3,15.8-17.7c11.1-9.2,23.9-12.9,38.2-15.2
		c8.3-1.4,32-4.7,37.6,4.4c-2.4,6-8,13.5-11.3,19.1c-3.5,5.9-1.4,13.3-3.3,19.2c-3.1,9.7,9.1,31.6,18.8,35
		c3.5,7-29.8,13.2-34.5,13.1C67.9,518.2,34.9,513.7,28.2,482.9C29.4,481.4,28.4,483.8,28.2,482.9z"/>
	<path class="st1" d="M446.5,447.3c-13.1-2.8-40.8-5.2-54.2-2.7c-17.7,3.3-18.7-6.2-21.6-20.8c-6.2-30.8,1.4-56.9,25.9-75.7
		c10.2-7.8,27.2-6.6,38.7-3.7c8.1,2,16.6,4.1,24.8,5.9c13.5,3-2.8,11.7-5.7,16.2c-9.8,14.8-19,25.6-15.2,44.2
		C440.2,415.7,449.3,445.4,446.5,447.3C444.3,446.8,448.7,445.8,446.5,447.3z"/>
	<path class="st0" d="M170.2,491.5c-17.6,1.9-18-22.8,1.3-23.2C190.9,467.8,188.7,490.3,170.2,491.5
		C165.7,491.9,171.6,491.4,170.2,491.5z"/>
	<path class="st0" d="M515,370.8c7.7,2.6-0.1,8.8,3.9,12.4c6.4,0.8,11.1-1.9,17.2,2.6c10.1,13.1-21.5,4-21.7,12
		c-0.4,17.1,8.3,10.4,21.9,13.3c7,1.5,1.6,9-2,9.1c-11.4,0.3-20.9-2.4-26.2,8.8c-3.9,8.1-10-4-10.7-6.9c-1-3.9-12.9-2.6-15.7-4.1
		c-10.6-5.9,3-9.2,8.3-8.3c10.4,1.8,8-4,9.2-11.1c1.2-6.9-4.8-3.6-8.3-4.5c-0.4-0.1-21.9-4.8-9.4-9.3c5.2-1.9,12.1,0,17.6-0.4
		C506.4,383.8,501.5,369.5,515,370.8C517.9,371.8,512.6,370.6,515,370.8z"/>
	<path class="st0" d="M82.9,500.5c-1,14-38.3-7.2-17.3-17c3.1-1.4,15.5-3.7,19.2-2.7C94.9,483.5,92,498.7,82.9,500.5
		C82.8,502.8,85.1,500,82.9,500.5z"/>
	<path class="st0" d="M402.9,371.7c1.8-7-1.4-10.6,6.7-12.2c7.7-1.5,5.4,5.6,5.3,10.2c-0.2,5.2,22.7,17.2,2.7,16.8
		c-8.5-0.1-6,19.7-4,19.6c5.3-0.3,9,2.8,11.8,6.5c0,7.9-14.1-0.1-12.2,8c3.1,13.4-9.3,16.5-18.6,10.3c0-2,2.8-12.5,2.5-14.4
		c-3.4-5.2-13.9,3-14.3-5.3c-0.3-6.4,11-5.4,14.3-5.9c3.8-4.2,3.1-14.7,3.4-19.5c0.2-3.3-8-4-9.5-7
		C387.9,372.9,400.6,373.9,402.9,371.7C403.6,369.1,401.9,372.7,402.9,371.7z"/>
</g>
<g>
	<path class="st0" d="M799.2,342.9c-2.6-18.4,7.7-88.6-29.5-69c-6.2,14.5-0.9,31.4-4.7,46.2c-2.1,8,3.8,23.4-6.2,21
		c-13.2,10.1-6.9-10.6-8.8-20.4c-1.9-9.7,1.1-20.8-0.2-30.7c-2.2-16.5,2-18-15.9-18c-16,0-15.4-2.2-22,11.2
		c-8.2,16.6,5.4,35.4-0.6,52.1c-1.9,5.4,4.2,18.8-4.2,15.2c-3.8-1.7-2.8,4-7.2,3.4c-3.5-2.8-3.2-17.2-2.1-20.8
		c2.7-8.8,0.8-63.7-10.7-60.9c-25.4,6.1-54.9-4.5-80.7,0.8c-19.8,4.1-44.1-5.2-63.1,0.8c-10.3,3.2-22.8,0.5-33.3,1.9
		c-12.4,1.7-33.4,4.8-45.2,1.9c-20.3-5-49.1,7.2-70.2,8.1c-13.7,0.6-27.1,2.6-40.6,3.9c-11.1,1.1-27.1-1.8-37.1,3.5
		c-9.5,5.1-28.9,5.1-40,6.1c-11.8,1.1-23.8,4.5-35.6,6.5c-15,2.5-37.6,11.1-52.4,8.5c-7.1-1.3-22.4,4.6-29.2,6.5
		c-12,3.4-24.2,4.2-36.5,6c-12.2,1.8-22.9,6.1-33.8-2c-5.5-4-18.8-18.1-18.5-26.3c1.1-26.4-34.5-20.4-41.3-42.8
		c-3.9-12.8-4.9-26.8-0.4-39.8c1.6-4.5,4-7.4,6.2-11.4c2.8-5,4.8-12.8,7.2-16.6c1.8-2.9,12.2-6.5,18.1-8.2
		c11.1-3.2,19.9-7.4,31.4-8.8c8.7-1.1,17.8,0.6,26.3,2.3c7.5-2,16-4.1,24.1-7c22.2-7.8,39-25,64.7-23.4c14.5,0.9,28.5,3.2,42.8,3.8
		c12.4,0.5,32.3-1.1,44.1,3.3c17.8,6.6,42.5,5.8,61.4,7.9c23.3,2.5,48.4,5.8,71.8,5.7c15.9-0.1,16.3,2.8,15.8-14.9
		c-0.4-11.6-0.5-23.2-0.6-34.8c-0.2-20.8-3.2-52.1,6.8-71c9.9-18.6,11.5-34,34.8-40.9c17.6-5.2,48.8,2.7,63.1,14
		c4.7,3.7,15.4,17.9,21.9,16.5c13.6-3,24.2,0,37.5-0.4c21-0.8,36.2,18.3,43,35.1c8.9,22.1-7.4,57.7-10.3,79.9
		c-1.9,14.6,23,8.3,34.3,8.3c13.2,0,34.1-3.5,46.7-0.5c15.9,3.9,47.2,0.1,62.7-2.7c25.9-4.5,55-1.8,81.1-2.3
		c22.6-0.4,50.4-4.6,71.6,4.9c24.5,11,4,31.8,12.5,49.4c4.5,9.3,10.2,39,5.5,48.3c-9.4,18.5-6.8,43.4-10,64.2
		c-2.4,15.7,5.6,33.8-9.4,41.3c-8.7-0.8-7.5-62.4-5.3-71.9c0.8-3.6,1.9-21.6-3.8-22.8c-9.5-2-20.6-1.5-25.9,5.2
		c-4.3,5.4-2.6,23.3-2.6,29.8c0,5.6,6.9,31.8,3.6,34.6c-32,11.2-5.7-67.3-29.4-66c-22.3,1.2-8.6,14-15.9,29.2
		c-5.7,12,10.3,35.4,2.2,45.8c-0.4,0.5-11.7,3-13.3,2c-3.3-7.6-2.5-22.8-2.7-31.2c-0.3-12.5-2.4-24.9-2.7-37.4
		c-0.2-10.3-10.7-3.2-17.5-5c-19.5-5-12.2,38.3-8.2,47.9C816,326.5,812.5,362.2,799.2,342.9C797.8,333.1,799.7,343.6,799.2,342.9z"
		/>
	<path class="st1" d="M258.6,239.3c-16.2-1.1-32.5,10.1-50.2,8.6c-13.2-1.1-28.1-5.2-39.2-12.4c-18.2-11.7-14.8-21.7-18.7-39.4
		c-3.3-15.4,13.6-16,14.1-26.5c8.5-12,27.5-17,41.4-13.6c11,2.7,35,4.8,41.6,15.4c7.6,12.1,37.3,13.8,36.1,35
		c-0.4,7.5,3.6,13-3.5,19.7C274.1,231.8,263.2,233,258.6,239.3C255.2,239.1,260.3,237,258.6,239.3z"/>
	<path class="st1" d="M535.8,158.9c-13.2-16.2-0.8-60.6,6.6-76.9c5.3-11.6,8.4-25.9,21-31.1c8-1.5,11-6.7,19.4-7.1
		c10.4-0.5,20.2,0.6,30.5,2c35.3,5.1,15.3,69.3,10.5,91.1c-1.9,8.5,1.4,18.9-8.8,19.6c-6.3,0.4-13.2-0.9-19.4-0.2
		C576.5,158.4,555.1,158.9,535.8,158.9C534.8,157.6,536.5,158.9,535.8,158.9z"/>
	<path class="st1" d="M459.1,162.7c2.8-14-3.7-34.4-3-49.3c0.6-13.5,8.6-36.2,4.6-48.8c-6.9-21.4,10.4-39.7,29-45.3
		c17.9-5.4,31.2-3.7,46.7,6.3c28,18.2-3,19.8-8.2,39.6c-4.5,17.2-10.1,34.2-11.1,52.3c-0.3,4.9,3.1,46.4-0.9,44.5
		C505.1,156.8,465.8,171.6,459.1,162.7C459.5,160.9,460.4,164.4,459.1,162.7z"/>
	<path class="st1" d="M158.4,244.7c-11.3,5.2-21.9,14.9-33.7,19.5c-21.3,8.3-34.5,3.3-56.1,3.8C41,268.8,32.9,232,44.4,212.5
		c12.5-21.1,34.9-29.8,59.8-31.3c5.6-0.3,19.1,0,24.2,2.2c11,4.7,7.2,10.7,8.1,21.3c0.9,9.6,3.7,15.8,9.6,23.7
		C148.5,231.5,159.6,241.3,158.4,244.7C156.8,245.5,158.9,243.2,158.4,244.7z"/>
	<path class="st0" d="M204.7,212.3c19.8-1.3,25.1,22.6,3.7,24.9C182.6,239.9,179.5,212.3,204.7,212.3
		C208.1,212,202.5,212.3,204.7,212.3z"/>
	<path class="st0" d="M585.2,64.5c0.2,2.9,0.2,14.8-1.1,17.9c1.1,1.8,17,6.5,9.7,12.6c-3.5,2.9-11,0.4-12.1,6
		c-0.6,3-2.1,13.8,3.5,13.9c6.3,0.1,12.6,2.2,18.8,2.9c5.9,2.5-1.4,8.6-4.8,8.6c-2.4,0-16.6-2.5-16.6,3.8c0,4.7-2,10.6-7.8,11.3
		c-6.3,0.8-6.4-5.9-5.5-10.6c1.6-7.9-3.6-4.7-8.3-6.1c-16-4.8,9-12.5,9.1-16.4c0.3-9.8,1.3-10.2-6.3-14.3
		c-4.5-2.4-12.3-3.2-9.1-10.6c10.1-7.1,15.6,4.3,17.2-10.5C572.6,67.2,578.2,51.8,585.2,64.5C585.4,67,582.9,60.3,585.2,64.5z"/>
	<path class="st0" d="M482.3,117.3c-16.2-17.4,5.3-3.2,3.4-19.6c-0.8-6.5,2-13.7,1.9-20.4c-0.1-6.4-10.3-5.2-12.8-10.3
		c-3.8-7.4,5.9-7.7,10.9-5.7c6.1,2.4,4.5-9.4,4.5-12.7c0-5.3,9.3-7.3,12-3.1c5,7.6-5.7,17.4,3.5,21.6c5.7,2.6,5.1,8.4-1.2,8.8
		c-6,0.4-4.3,10.6-4.6,14.6c-0.7,8.1-5,16.6,5.8,16.3c7.9-0.2,6.5,2,5.5,7.5c-0.9,5.6-13.9-0.5-15.1,5.2c-1.4,6.3,0,13.3-0.5,19.8
		c-0.3,3.6-9.7,3.2-11.9,1.2C479.1,136.6,482.3,122.3,482.3,117.3C481.7,116.6,482.3,121.5,482.3,117.3z"/>
	<path class="st0" d="M105.9,260.8c-14.9,2.9-46.2-14.3-19.7-21.1C103.7,235.3,129,247.2,105.9,260.8
		C103.1,261.4,107.5,259.9,105.9,260.8z"/>
</g>
</svg>
