<?xml version="1.0" encoding="utf-8"?>
<!DOCTYPE svg PUBLIC "-//W3C//DTD SVG 1.1//EN" "http://www.w3.org/Graphics/SVG/1.1/DTD/svg11.dtd">
<svg version="1.1" id="TheHamburger" xmlns="http://www.w3.org/2000/svg" width="1000" height="1000" viewBox="0 0 1000 1000">
<style type="text/css">
<![CDATA[
	.st0{fill:#FFFFFF;}
]]>
</style>
<g>
	<path d="M523.2,661c26.2-1.3,44.4-16.7,71.7-12.9c26.1,3.3,29.5,25.5,36.1,46.4c6,18.9,1.4,43.9,13.8,60.7
		c8.7,11.8,6.2,15.7,23.9,15.8c15.4,0.1,30.2,3.3,45.7,2.1c12.5-1,24.8-3.7,37.4-4.7c6.4-0.5,15.7-11.6,21.9-14.4
		c22.7-10.2,44.9-9.1,68.9-12c24-2.9,49.6,4.3,74.3-0.7c17.4-3.6,48,8,62.3,17.5c12.7,8.4,25.4,38.2,19,52.4
		c-6.7,14.7-30.9,41.3-46.9,46.6c-34.9,11.6-51.8,56.4-90,56.1c-94.9-0.8-189.5-8.8-284.6-7.7c-47,0.5-94.4,5.3-140.8,5.3
		c-25.9,0-51.5,1.9-77.3,2.6c-13.9,0.4-21.1,0-17.3,15.9c2.8,11.8-5,24.9-0.7,35.7c7.3,18.6-12.3,19.2-11.9,5.8
		c0.4-13-2.5-25.6-2.5-38.7c0-5.8,0.9-19.5-8.4-17.2c-14.6,3.6-21.7-4.6-23.1,11.7c-1.5,17.8,4.8,41.4-1,58.2
		c-17.4,9.3-11.9-35.2-15.5-41.4c-2.7-4.5,1-23.5-3.8-25.4c-10.5,0-22.6-3.8-26.8,6.1c-3.1,7.3,0,59-14.5,51.1
		c-8.9-8.3,0.9-59.3-15-55.9c-8,1.7-16.4-1.1-24.6,1.9c-7,2.5-6,23.3-6.7,29.3c-1.2,10.8-0.7,21.1-0.9,32c-0.3,13-12.8-3.3-13.4-8.9
		c-1.8-17.6-0.4-52-22.5-51.9c-8.4,0-26.4-5.2-26.4,4.9c0,12.2,0.3,24.3,0.7,36.4c0.2,5.9,5.1,27.9-4,28.3
		c-16.7,0.8-12.5-8.8-12.4-20.1c0-10.6-3.8-52-15.6-54.6c-6.9-1.5-26.3-6.5-30.9-1.1c0.6,4.2,0.4,29-1.4,32.2
		c-6.6,11.8,14.7,51.7-8.8,51.7c-14.4,0-10.2-12.3-8.7-23.2c1.7-12.7,0.7-24.5-0.1-37.1c-0.6-10.2-6.1-20.5-8.6-30.3
		c-3.1-12.2-9.6-4.9-17.9-10.8c-6.9-4.9-12.2-6.5-12.2-16.2c-2.5-9.7-3.7-43.5-0.5-52.5c6-16.8-1.2-42.3,1.9-58
		c3.9-2.4,1.9-7.3,6.6-7.7c4.1-0.4,8.5-1.4,12.6-2.2c10-1.9,25.2,0.5,35.6,1.2c96,6.4,191.7,3.1,287.5,7.1
		c19.5,0.9,58.2,7.4,61.9-20c2.8-20.8,3.9-42.1,4-63.5C413.6,632.7,493.8,639.7,523.2,661C524.6,660.9,522.6,660.5,523.2,661z"/>
	<path class="st0" d="M821.1,846.4c-25.1-1.5-87.7-0.9-75.5-41.4c10.6-35.2,59.2-55.8,93.4-51.9c13.2,1.5,33.5,12.9,41,24
		c9.4,14,10.3,21.9,9.7,37.4C888.8,839.1,837.7,846.4,821.1,846.4C817.4,846.1,821.5,846.4,821.1,846.4z"/>
	<path class="st0" d="M432.8,767c2.2-17.7-0.4-39.6-0.1-57.8c0.3-15.6,3-24.5,8.8-38.2c11.9-28,67-5.2,81.4,8.5
		c9.6,9.2,21.6,33.6,12.4,46.5c-6.3,9,0.6,30.9-6.9,39.9c-7.7,9.2-40.1,2.4-50.4,2.6C468.8,768.7,437.6,773.3,432.8,767
		C433.3,763.2,433.5,767.9,432.8,767z"/>
	<path class="st0" d="M971.8,765.8c2.3,10.1,22.1,23.2,15.8,36.3c-6.2,13.4-15.1,28.6-30.8,33.5c-13.7,4.3-23.5,7.2-38.7,6.8
		c-9.8-0.3-37.8-5.5-20.1-16.4c10.8-6.7,6.6-27.4,2-36.1c-4.3-8.2-21.5-25.3-14.2-33.1c17-4,32.2-2.1,49.2-3.4
		c7.3,3.2,17.7,3.6,25.5,6.3C964.3,761.1,968.2,765.1,971.8,765.8C972.2,767.3,968.9,765.2,971.8,765.8z"/>
	<path class="st0" d="M620.6,769.7c-11.3,7-40.6-1.2-54.1-1.7c-6-0.3-20.6,2.5-19-5.7c1.3-6.5,1-14.2,3.4-20.5
		c5.1-13.6-13.2-73.9,0.4-75.3c14-1.5,25.5-10.7,39.7-1.2c3.9,2.6,9,4.3,13.2,6.5c7.3,3.7,6.7,15.9,12,21.8
		c8.1,9.1,5.4,32.2,5.4,43.4C621.7,742.6,624.9,764.8,620.6,769.7C619.3,770.5,621.4,768.8,620.6,769.7z"/>
	<path d="M814.1,768.6c6.5-6.3,33.4-12.1,29.5,4.9c-1.8,8.1-11.9,8.3-18.6,8.3C812.6,781.8,815.6,777.8,814.1,768.6
		C815.3,767.4,814.5,771.1,814.1,768.6z"/>
	<path d="M495.6,724.5c18.1-5,24,10,3.4,9.3c-9.8-0.3-6.5,9.5-6.6,15.9c-3.7,3.8-12.2,2.6-11.7-4c1.5-20.1-20.7-7.4-21-20.7
		c-0.1-4.8,13.5-1.1,15.8-1.1c5.8-0.1,5.4-7.4,6.8-11.6c1.7-5.2-30.3-9.1-7.8-14.6c12.3-3-2.7-26.9,17.3-21.3
		c6.3,1.7,2.1,16.1,2,21.1c0-1.5,12.8,4,14.4,6.5c-3.6,3.5-12.4,1.1-14.6,4.4C491.7,711.1,492.1,722.8,495.6,724.5
		C496.2,724.4,493.9,723.7,495.6,724.5z"/>
	<path d="M920.9,762.4c7.1,3,11.6-0.9,17.3,6.4c5.6,6.8-2.3,13.5-8.6,14.5C914.2,785.6,906.1,770.5,920.9,762.4
		C922.6,763.1,917.8,764.1,920.9,762.4z"/>
	<path d="M575.2,728c-1.1-0.8,0.6-11.4,0.5-11.6c0.1-3.4-12.8-12.5-2.4-13.6c9.6-1,1.1-25.5,14.8-21.4c5.4,1.7,2.2,15.8,2.7,20.5
		c2.6,3.6,8.7-1.2,12.2,0.3c7.5,3.4-5,8.7-7.1,9.3c-6.3,1.9-5.2,6.3-5.1,11.8c0.1,2.5-2.8,12.4,3,12c8.7-0.7,14.3,7.9,4,9.3
		c-17.8-5.1-10,22.1-24.7,15.7c-4-1.8,1.5-14.1,0.2-18.4c-4.3-2.4-8.4-0.6-12.7-2.5C544.6,732.4,573.8,730.9,575.2,728
		C573.9,727,574.7,729.1,575.2,728z"/>
</g>
<g>
	<path d="M14.6,665.1c-16.8,7.5-4-60.1-6.9-68.3c-2.8-7.5-4.8-28.5-3.9-36.9c0.9-8.7-5.3-18.2-2-26.7c2.4-6.3-1.2-22.5-1.7-29.3
		c-1-11.4,2.1-23.3,2.3-34.7c0.5-27.9,28.1-28,48.4-29c99.5-5,200.4,4,299.8,8c26.7,1.1,56.3,3.7,82.9,2c14.8-1,12.6,1.5,8.7-10.2
		c-3.2-9.5-10.7-18.7-15.1-27.7c-10.1-20.7-18.2-50,6.8-62.7c19.7-10,46.1-18.3,68-6.7c20.7,11,39.5-4.6,61.6-11.1
		c16.2-4.8,52.4,1.2,62.8,15.7c10,13.9,12.6,23.7,17.2,40.5c2.1,7.6,1.1,19.8,0,27.5c-0.8,6.1-4.8,23.1-3.2,28.7
		c9-1.2,18.8,1.8,28,0.8c8.9-1,21-3.9,29.9-2.2c24.7,4.8,54.2-5.9,72.9-21.1c15.1-12.3,40.4-4.3,54.1-13.8c15.9-1.1,30.6,7,46.2,8.4
		c10.3,0.9,21.8,0.5,32-0.8c19.9-2.6,44.2,10.6,59.2,22c18.1,13.8,29.6,40.1,19.2,61.5c-7.4,15.2-25.6,15.9-32.1,29.4
		c-4.9,10.2-14.2,22.2-17.8,32.7c-3.8,11.1-14,11.5-21.2,18.6c-5.7,5.6-24,6.1-30.9,2c-4.9,3.5-29.9-0.6-35.5-1.9
		c-45.5-10.6-95.1-0.8-140.8-7.9c-23.8-3.7-50.2-1.4-73.9,1.1c-22.9,2.5-51.1-5.8-73,0.3c-27.1,7.5-59.6-0.5-87.3,1.5
		c-20.7,1.5-41.5,0.5-62.3,0.5c-14.1,0-59.1-7.4-67.7,8.5c-5.3,9.7-12.1,11.7-13.6,23.7c-1.1,8.2-2.3,18.6-0.9,26.7
		c2.6,15.1-19.5,14.1-12.5,3c1-8.3-0.1-16.7,0.7-25c0.5-5.9,0.5-23.4-5.7-27.1c-6.4-3.7-28.3-7.7-34.7-1c-4.7,4.9-2.3,26.8-2.2,32.6
		c0.1,7.3,2,33.6-4.3,37.6c-15.1,9.6-10.7-36.4-11.2-40.3c-1-8.3,2.4-30.7-7.1-29.7c-7.9-2.4-23.2,2.5-31.8,3.5
		c-14.7,1.7-11.4,40.6-12.9,53.4c-1.3,10.8,5.1,20.3-7.1,22.5c-6.1,1.5-8.3-9.8-8.4-15.3c-0.4-15.3,4.4-31.8,1.7-47
		c-3.1-17.5-14.3-11.1-30.1-11.1c-14.3,0-8.2,16.2-10,27c-0.4,2.6,0.8,56.9-8.3,49.7c-12.2-9.8-10.7-39-9.5-56
		c0.3-3.2-1.4-18-5.5-18.5c-7.1-0.8-32.5-2.9-37.9,1c-6.2,4.6-2.5,28.5-2.5,35.1c-0.1,10.3-0.7,21.2-4.2,31.2
		C76,675,69.4,649,69.4,646.6c0-13.3-1-26.2-1.5-39.4c-0.7-19.3-13-13.6-27-15.4c-15.3-1.9-17.4,9.8-16.3,24.6
		C25.7,631,21.4,652.7,14.6,665.1C13.7,665.5,15,664.4,14.6,665.1z"/>
	<path class="st0" d="M872.5,447.9c0.2,15,5.7,30.2-6.3,43.1c-9.5,10.3-19.1,19.3-34,18.9c-21.1-0.6-77-2.9-76.3-34.7
		c0.2-10.4-3.4-25.8,6.4-33.5c7.2-5.7,6.8-10.6,17.3-14.7c10.3-4,20.4-4.7,30.9-7.1c13.4-3.1,35,2.2,46.8,9.5
		C863.8,433.5,866.1,443.7,872.5,447.9C872.6,451.2,872,447.6,872.5,447.9z"/>
	<path class="st0" d="M460.6,447.3c-2.8-23.1-42.3-49.8-28.4-75.3c14.4-26.4,49-28.1,74.6-14.8c25.5,13.2,46.5,28.2,38.1,61
		c-4.9,18.9-16.5,30.9-36.7,29.8C497.4,447.4,468.5,454.7,460.6,447.3C460,442.5,461.8,448.4,460.6,447.3z"/>
	<path class="st0" d="M971.6,482.9c-6.7,30.8-39.7,35.3-66.7,35.8c-4.7,0.1-38-6.1-34.5-13.1c9.7-3.4,21.9-25.3,18.8-35
		c-1.9-5.9,0.2-13.3-3.3-19.2c-3.3-5.6-8.9-13.1-11.3-19.1c5.6-9.1,29.3-5.8,37.6-4.4c14.3,2.3,27.1,6,38.2,15.2
		c6.5,5.4,11.2,10.6,15.8,17.7C970.2,467,967.1,477.6,971.6,482.9C971.4,483.8,970.4,481.4,971.6,482.9z"/>
	<path class="st0" d="M553.3,447.3c-2.8-1.9,6.3-31.6,7.3-36.6c3.8-18.6-5.4-29.4-15.2-44.2c-2.9-4.5-19.2-13.2-5.7-16.2
		c8.2-1.8,16.7-3.9,24.8-5.9c11.5-2.9,28.5-4.1,38.7,3.7c24.5,18.8,32.1,44.9,25.9,75.7c-2.9,14.6-3.9,24.1-21.6,20.8
		C594.1,442.1,566.4,444.5,553.3,447.3C551.1,445.8,555.5,446.8,553.3,447.3z"/>
	<path d="M786.6,470.5c-18.5-1.2-20.7-23.7-1.3-23.2C804.6,447.7,804.2,472.4,786.6,470.5C785.2,470.4,791.1,470.9,786.6,470.5z"/>
	<path d="M484.8,370.8c13.5-1.3,8.6,13,15.9,13.6c5.5,0.4,12.4-1.5,17.6,0.4c12.5,4.5-9,9.2-9.4,9.3c-3.5,0.9-9.5-2.4-8.3,4.5
		c1.2,7.1-1.2,12.9,9.2,11.1c5.3-0.9,18.9,2.4,8.3,8.3c-2.8,1.5-14.7,0.2-15.7,4.1c-0.7,2.9-6.8,15-10.7,6.9
		c-5.3-11.2-14.8-8.5-26.2-8.8c-3.6-0.1-9-7.6-2-9.1c13.6-2.9,22.3,3.8,21.9-13.3c-0.2-8-31.8,1.1-21.7-12
		c6.1-4.5,10.8-1.8,17.2-2.6C484.9,379.6,477.1,373.4,484.8,370.8C487.2,370.6,481.9,371.8,484.8,370.8z"/>
	<path d="M905.9,471.5c-9.1-1.8-12-17-1.9-19.7c3.7-1,16.1,1.3,19.2,2.7C944.2,464.3,906.9,485.5,905.9,471.5
		C903.7,471,906,473.8,905.9,471.5z"/>
	<path d="M596.9,371.7c2.3,2.2,15,1.2,11.9,7.1c-1.5,3-9.7,3.7-9.5,7c0.3,4.8-0.4,15.3,3.4,19.5c3.3,0.5,14.6-0.5,14.3,5.9
		c-0.4,8.3-10.9,0.1-14.3,5.3c-0.3,1.9,2.5,12.4,2.5,14.4c-9.3,6.2-21.7,3.1-18.6-10.3c1.9-8.1-12.2-0.1-12.2-8
		c2.8-3.7,6.5-6.8,11.8-6.5c2,0.1,4.5-19.7-4-19.6c-20,0.4,2.9-11.6,2.7-16.8c-0.1-4.6-2.4-11.7,5.3-10.2
		C598.3,361.1,595.1,364.7,596.9,371.7C597.9,372.7,596.2,369.1,596.9,371.7z"/>
</g>
<g>
	<path d="M200.6,342.9c-13.3,19.3-16.8-16.4-13.6-24.9c4-9.6,11.3-52.9-8.2-47.9c-6.8,1.8-17.3-5.3-17.5,5
		c-0.3,12.5-2.4,24.9-2.7,37.4c-0.2,8.4,0.6,23.6-2.7,31.2c-1.6,1-12.9-1.5-13.3-2c-8.1-10.4,7.9-33.8,2.2-45.8
		c-7.3-15.2,6.4-28-15.9-29.2c-23.7-1.3,2.6,77.2-29.4,66c-3.3-2.8,3.6-29,3.6-34.6c0-6.5,1.7-24.4-2.6-29.8
		c-5.3-6.7-16.4-7.2-25.9-5.2c-5.7,1.2-4.6,19.2-3.8,22.8c2.2,9.5,3.4,71.1-5.3,71.9c-15-7.5-7-25.6-9.4-41.3
		c-3.2-20.8-0.6-45.7-10-64.2c-4.7-9.3,1-39,5.5-48.3c8.5-17.6-12-38.4,12.5-49.4c21.2-9.5,49-5.3,71.6-4.9
		c26.1,0.5,55.2-2.2,81.1,2.3c15.5,2.8,46.8,6.6,62.7,2.7c12.6-3,33.5,0.5,46.7,0.5c11.3,0,36.2,6.3,34.3-8.3
		c-2.9-22.2-19.2-57.8-10.3-79.9c6.8-16.8,22-35.9,43-35.1c13.3,0.4,23.9-2.6,37.5,0.4c6.5,1.4,17.2-12.8,21.9-16.5
		c14.3-11.3,45.5-19.2,63.1-14c23.3,6.9,24.9,22.3,34.8,40.9c10,18.9,7,50.2,6.8,71c-0.1,11.6-0.2,23.2-0.6,34.8
		c-0.5,17.7-0.1,14.8,15.8,14.9c23.4,0.1,48.5-3.2,71.8-5.7c18.9-2.1,43.6-1.3,61.4-7.9c11.8-4.4,31.7-2.8,44.1-3.3
		c14.3-0.6,28.3-2.9,42.8-3.8c25.7-1.6,42.5,15.6,64.7,23.4c8.1,2.9,16.6,5,24.1,7c8.5-1.7,17.6-3.4,26.3-2.3
		c11.5,1.4,20.3,5.6,31.4,8.8c5.9,1.7,16.3,5.3,18.1,8.2c2.4,3.8,4.4,11.6,7.2,16.6c2.2,4,4.6,6.9,6.2,11.4c4.5,13,3.5,27-0.4,39.8
		c-6.8,22.4-42.4,16.4-41.3,42.8c0.3,8.2-13,22.3-18.5,26.3c-10.9,8.1-21.6,3.8-33.8,2c-12.3-1.8-24.5-2.6-36.5-6
		c-6.8-1.9-22.1-7.8-29.2-6.5c-14.8,2.6-37.4-6-52.4-8.5c-11.8-2-23.8-5.4-35.6-6.5c-11.1-1-30.5-1-40-6.1c-10-5.3-26-2.4-37.1-3.5
		c-13.5-1.3-26.9-3.3-40.6-3.9c-21.1-0.9-49.9-13.1-70.2-8.1c-11.8,2.9-32.8-0.2-45.2-1.9c-10.5-1.4-23,1.3-33.3-1.9
		c-19-6-43.3,3.3-63.1-0.8c-25.8-5.3-55.3,5.3-80.7-0.8c-11.5-2.8-13.4,52.1-10.7,60.9c1.1,3.6,1.4,18-2.1,20.8
		c-4.4,0.6-3.4-5.1-7.2-3.4c-8.4,3.6-2.3-9.8-4.2-15.2c-6-16.7,7.6-35.5-0.6-52.1c-6.6-13.4-6-11.2-22-11.2
		c-17.9,0-13.7,1.5-15.9,18c-1.3,9.9,1.7,21-0.2,30.7c-1.9,9.8,4.4,30.5-8.8,20.4c-10,2.4-4.1-13-6.2-21
		c-3.8-14.8,1.5-31.7-4.7-46.2C192.9,254.3,203.2,324.5,200.6,342.9C200.1,343.6,202,333.1,200.6,342.9z"/>
	<path class="st0" d="M741.2,239.3c-4.6-6.3-15.5-7.5-21.6-13.2c-7.1-6.7-3.1-12.2-3.5-19.7c-1.2-21.2,28.5-22.9,36.1-35
		c6.6-10.6,30.6-12.7,41.6-15.4c13.9-3.4,32.9,1.6,41.4,13.6c0.5,10.5,17.4,11.1,14.1,26.5c-3.9,17.7-0.5,27.7-18.7,39.4
		c-11.1,7.2-26,11.3-39.2,12.4C773.7,249.4,757.4,238.2,741.2,239.3C739.5,237,744.6,239.1,741.2,239.3z"/>
	<path class="st0" d="M464,158.9c-19.3,0-40.7-0.5-59.8-2.6c-6.2-0.7-13.1,0.6-19.4,0.2c-10.2-0.7-6.9-11.1-8.8-19.6
		c-4.8-21.8-24.8-86,10.5-91.1c10.3-1.4,20.1-2.5,30.5-2c8.4,0.4,11.4,5.6,19.4,7.1c12.6,5.2,15.7,19.5,21,31.1
		C464.8,98.3,477.2,142.7,464,158.9C463.3,158.9,465,157.6,464,158.9z"/>
	<path class="st0" d="M540.7,162.7c-6.7,8.9-46-5.9-57.1-0.7c-4,1.9-0.6-39.6-0.9-44.5c-1-18.1-6.6-35.1-11.1-52.3
		c-5.2-19.8-36.2-21.4-8.2-39.6c15.5-10,28.8-11.7,46.7-6.3c18.6,5.6,35.9,23.9,29,45.3c-4,12.6,4,35.3,4.6,48.8
		C544.4,128.3,537.9,148.7,540.7,162.7C539.4,164.4,540.3,160.9,540.7,162.7z"/>
	<path class="st0" d="M841.4,244.7c-1.2-3.4,9.9-13.2,12.3-16.3c5.9-7.9,8.7-14.1,9.6-23.7c0.9-10.6-2.9-16.6,8.1-21.3
		c5.1-2.2,18.6-2.5,24.2-2.2c24.9,1.5,47.3,10.2,59.8,31.3c11.5,19.5,3.4,56.3-24.2,55.5c-21.6-0.5-34.8,4.5-56.1-3.8
		C863.3,259.6,852.7,249.9,841.4,244.7C840.9,243.2,843,245.5,841.4,244.7z"/>
	<path d="M761.1,188.3c25.2,0,22.1,27.6-3.7,24.9C736,210.9,741.3,187,761.1,188.3C763.3,188.3,757.7,188,761.1,188.3z"/>
	<path d="M414.6,64.5c7-12.7,12.6,2.7,13.3,8.5c1.6,14.8,7.1,3.4,17.2,10.5c3.2,7.4-4.6,8.2-9.1,10.6c-7.6,4.1-6.6,4.5-6.3,14.3
		c0.1,3.9,25.1,11.6,9.1,16.4c-4.7,1.4-9.9-1.8-8.3,6.1c0.9,4.7,0.8,11.4-5.5,10.6c-5.8-0.7-7.8-6.6-7.8-11.3
		c0-6.3-14.2-3.8-16.6-3.8c-3.4,0-10.7-6.1-4.8-8.6c6.2-0.7,12.5-2.8,18.8-2.9c5.6-0.1,4.1-10.9,3.5-13.9c-1.1-5.6-8.6-3.1-12.1-6
		c-7.3-6.1,8.6-10.8,9.7-12.6C414.4,79.3,414.4,67.4,414.6,64.5C416.9,60.3,414.4,67,414.6,64.5z"/>
	<path d="M517.5,117.3c0,5,3.2,19.3-1.4,23.2c-2.2,2-11.6,2.4-11.9-1.2c-0.5-6.5,0.9-13.5-0.5-19.8c-1.2-5.7-14.2,0.4-15.1-5.2
		c-1-5.5-2.4-7.7,5.5-7.5c10.8,0.3,6.5-8.2,5.8-16.3c-0.3-4,1.4-14.2-4.6-14.6c-6.3-0.4-6.9-6.2-1.2-8.8c9.2-4.2-1.5-14,3.5-21.6
		c2.7-4.2,12-2.2,12,3.1c0,3.3-1.6,15.1,4.5,12.7c5-2,14.7-1.7,10.9,5.7c-2.5,5.1-12.7,3.9-12.8,10.3c-0.1,6.7,2.7,13.9,1.9,20.4
		C512.2,114.1,533.7,99.9,517.5,117.3C517.5,121.5,518.1,116.6,517.5,117.3z"/>
	<path d="M877.9,233.8c-23.1-13.6,2.2-25.5,19.7-21.1C924.1,219.5,892.8,236.7,877.9,233.8C876.3,232.9,880.7,234.4,877.9,233.8z"/>
</g>
</svg>
