<?xml version="1.0" encoding="utf-8"?>
<!DOCTYPE svg PUBLIC "-//W3C//DTD SVG 1.1//EN" "http://www.w3.org/Graphics/SVG/1.1/DTD/svg11.dtd">
<svg version="1.1"
	 id="KingCrown" xmlns:svg="http://www.w3.org/2000/svg" 
	 xmlns="http://www.w3.org/2000/svg" xmlns:xlink="http://www.w3.org/1999/xlink" x="0px" y="0px" width="1000px" height="1000px"
	 viewBox="0 0 1000 1000" style="enable-background:new 0 0 1000 1000;" xml:space="preserve">
<style type="text/css">
<![CDATA[
	.st0{opacity:0.2;fill:#BF4D28;}
	.st1{opacity:0.2;}
	.st2{fill:#E6AC27;stroke:#000000;stroke-width:25;stroke-miterlimit:10;}
	.st3{fill:#BF4D28;stroke:#000000;stroke-width:25;stroke-miterlimit:10;}
	.st4{opacity:0.25;fill:#E6AC27;}
]]>
</style>
<path class="st0" d="M457.5,926.7C298.5,777.2,94.8,652.1,40.8,387.6
	C141.6,154.4,282.4-13.8,566.7,14.4c72.8,95.3,205.6,119.3,297.3,175.3c78.3,97.1,90.1,191.8,86.7,314.1
	C899.5,603.9,837.1,719.9,769.2,834C731.5,893.1,668.5,898.4,457.5,926.7L457.5,926.7z"/>
<path class="st2" d="M932.7,831.7c-155.1-49.5-348.6-61.8-502.5,1.8
	c-72.3,0-157.7,41.2-224.3,69c-80.5,33.6-88.8,80.7-108.2-30.9C92,839,37.7,735.3,48.8,708.9c37.8-21.8,196.1-62,225.5-28.8
	c50.5-21.4,65.6-164.9,76.4-219.9c17-86.7,34.1-174,54.3-259.9c60.4,32.7,143.8,332.6,206.2,314c15.3-37.2,58.9-76.7,84.7-107.1
	c51-57.6,97.3-121.9,153.2-174.5c10.9,2.3,26.2,247.1,41.4,277.8c18.6,37.5,25.1,95,27.5,137.2C921.4,696.9,958,788,932.7,831.7z"/>
<circle class="st3" cx="398.5" cy="140.7" r="81"/>
<circle class="st3" cx="866.6" cy="177.3" r="81"/>
<circle class="st4" cx="423.4" cy="155.7" r="37.2"/>
<path class="st1" d="M865,656.7c-2.2,7.7-4.5,15.3-10.2,23.6c-11.5,16.6-23.1,33.2-31.7,45.6c-59.5,32.4-113.1,16.7-164.5-6.7
	c-30.9-30.7-61.8-61.4-76.4-102.4c8.6-12.4,19.8-10.8,31.6-5.7c30.6,9,59,25.7,89.7,34.7c27.1,9.6,56.5,11.6,86.5,17.1
	C812.3,666.2,837.9,647.1,865,656.7z"/>
<circle class="st4" cx="891.9" cy="192.9" r="37.2"/>
</svg>
