<?xml version="1.0" encoding="utf-8"?>
<!DOCTYPE svg PUBLIC "-//W3C//DTD SVG 1.1//EN" "http://www.w3.org/Graphics/SVG/1.1/DTD/svg11.dtd">
<svg version="1.1" id="BergamotIsLookingAtYou" xmlns="http://www.w3.org/2000/svg" xmlns:xlink="http://www.w3.org/1999/xlink" x="0px" y="0px"
	 width="1000px" height="1341px" viewBox="0 0 1000 1341" style="enable-background:new 0 0 1000 1341;" xml:space="preserve">
<style type="text/css">
<![CDATA[
	.st0{fill-rule:evenodd;clip-rule:evenodd;fill:#58595B;}
	.st1{fill-rule:evenodd;clip-rule:evenodd;fill:#BCBEC0;}
	.st2{fill-rule:evenodd;clip-rule:evenodd;}
	.st3{fill-rule:evenodd;clip-rule:evenodd;fill:#FFFFFF;}
	.st4{fill-rule:evenodd;clip-rule:evenodd;fill:#D1D3D4;}
]]>
</style>
<g>
	<path class="st2" d="M717.1,0.3C744,19,778,93.9,786.5,127.1c12.8,50.3,47.9,101.3,61.7,150.5c14.2,50.7,30.1,112.4,55.3,160.4
		c17.2,33,5.9,97.6,28.5,126.8c7.6,9.8,17.3,68.6,13.4,78.8c11.6,11.1,5.1,44.9,11.9,57.9c4,25.7,7.2,59.7,15.8,83.9
		C989.4,831.2,985.1,887,999,935c5.9,20.5-17,16.9-24.6,27.8c-25.3-7.1-43.6,18.4-65.8,24.4c-8.7,2.4-26.2,22.9-32,29.5
		c-9.6,10.9-39,14.1-49.6,18.7c-32.8,14.2-63.3,41.8-104.2,26.2c-22.1-8.4-33.1-19.6-56.3-22.6c-29.9-3.9-46-3.8-70.4-19.8
		c-6.6-17.9,1.5-39.4-21.6-36.3c-15.8,2.1-33.3,0.9-48.5,5.9c-2.3,0.7-23.7,3.2-27.4,6.2c-3.4,2.9-25.6,23.9-28.3,24.5
		c-66.7,15.3-91.8,82.8-166.7,35c-2.7,1.3-32.3,6.7-34,6.6c-35.3-2.3-61.4,6.2-88.9-26.1c16.7-78.8-148.2-10.3-173.3-51.5
		c-19.5-32.1,6.4-75.5-4-104c-9.2-25.3,6.5-72.5,6.6-99.1C10.4,705,39.6,618.7,53,544.3c5.9-33.5,17.6-76.4,16.6-109.6
		C69,411.4,84.4,388,85.4,365.1c0.8-18.9,4.8-51.4,11-68.2c15.3-42,30.9-91.8,39.6-135.9c4.6-23.3,11.9-92.2,34.2-106
		c16.5,4.5,23.5,34.2,38.4,42.5c27.8,15.4,54.3,41.5,85.6,49.9c46.5,12.4,108.5,36.6,157.2,15.5c45.7-20,96.4-26.9,132.9-62.7
		c12.9-12.6,51.1-31,56.3-46.9C669.2,43.6,689.9,4.4,717.1,0.3C723.7,4.9,709.1,1.5,717.1,0.3z M404.6,919.3
		c-12.6,16-191.8-6.4-188.6,39.6c-61.5,40.8,11.7,102.7,68.4,76.2c-0.1,0.8-25.9-38.5-13.4-38.1c28.9,22.8,35.8,54.3,77.9,63.2
		c24.5,5.2,32.6-11.8,49.9-22c11.6-7,26.1-50.1,28.4-50.4c10.4-0.7,5.7,25.5,7.2,30.3C516.3,1009.9,467.7,906.9,404.6,919.3
		C402.2,922.3,409.8,918.2,404.6,919.3z M874.5,1001.5c2.6-9.1,5-35.7-6.1-42.5c-14.6-8.9-28-19.3-43-27.7
		c-4.2-2.4-34.8-12.2-38.8-16.5c-22,5.9-50.7,7.3-73.2,6.5c-33.3-1.2-52.3,24-82,27.9c-16.8,29-24.4,26.5-27.3,62.1
		c8.1,14.8,58.8,15.5,69.7,4.5c-2.7-5.3-15.9-22.7-13.1-27.4c5.3-9,28.1,32.8,32.1,37.1c19.7,21.3,30.9,25.2,60.2,25.2
		c25.2,0,57.2-13.2,66.2-38.5c-0.5-1.3,6-33.4,5.5-33.2c2,7,22,11.5,8.6,25.9C851,1006.8,859.6,1004.7,874.5,1001.5
		C877.7,990.7,871.3,1002.2,874.5,1001.5z"/>
	<path class="st4" d="M246.3,921.2c20.2,5,50-6.2,69.8-9.5c19-3.2,68.6,1.9,83.4-7.4c17.3-10.9,70.1,22.3,81.5,34.8
		c21.8,23.7,23,32.5,57.7,27.7c15.9-2.2,59.8-2.3,67.7-19.8c21.9-6.2,40.7-30.1,63.6-38c38.8-13.5,109.5-17.1,145.5,1.4
		c18,9.2,69,58.1,94,39.8c39.4,18.5,67.1-29.7,60.2-62C953,809,951.1,728.8,933.7,649.5c-20.5-93.8-25.8-215.8-78.1-300.1
		c-23.9-38.4-21.5-85.2-44.6-124.5c-24.6-41.8-47.5-84.6-68.6-128.1c-14.9-30.7-36.3-77.4-65.3-38.8c-12.9,17.1-94,85.5-112.7,80.3
		c-27.7-7.7-74.1,39.2-108.2,36.5c-14.7-1.2-42,5.6-56.7,7.4c-9.9,1.2-22.3-4.3-30.8-3.4c-20.5,2-44.3-10.8-64.5-14.4
		c-37.5-6.8-86.3-33.6-117.2-61.5c-20.8,36.2-31.1,93.9-53.6,124.1c1.7,9.6-7.1,80.7-11.2,85.3c-16.4,18.7-11.6,55.6-18.7,77.7
		C75.8,476.9,58.4,572.4,47.3,665c-9.8,81.2-26.6,153.5-32,233.4c-1.1,16.3-3.8,49.3,8.9,62.8c26.6,28.2,57.5,16,92.9,15.8
		C173.3,976.5,196.4,945,246.3,921.2C252.2,922.7,237.6,925.4,246.3,921.2z"/>
	<path class="st1" d="M404.6,919.3c-12.6,16-191.8-6.4-188.6,39.6c-61.5,40.8,11.7,102.7,68.4,76.2c-0.1,0.8-25.9-38.5-13.4-38.1
		c28.9,22.8,35.8,54.3,77.9,63.2c24.5,5.2,32.6-11.8,49.9-22c11.6-7,26.1-50.1,28.4-50.4c10.4-0.7,5.7,25.5,7.2,30.3
		C516.3,1009.9,467.7,906.9,404.6,919.3C402.2,922.3,409.8,918.2,404.6,919.3z"/>
	<path class="st1" d="M874.5,1001.5c2.6-9.1,5-35.7-6.1-42.5c-14.6-8.9-28-19.3-43-27.7c-4.2-2.4-34.8-12.2-38.8-16.5
		c-22,5.9-50.7,7.3-73.2,6.5c-33.3-1.2-52.3,24-82,27.9c-16.8,29-24.4,26.5-27.3,62.1c8.1,14.8,58.8,15.5,69.7,4.5
		c-2.7-5.3-15.9-22.7-13.1-27.4c5.3-9,28.1,32.8,32.1,37.1c19.7,21.3,30.9,25.2,60.2,25.2c25.2,0,57.2-13.2,66.2-38.5
		c-0.5-1.3,6-33.4,5.5-33.2c2,7,22,11.5,8.6,25.9C851,1006.8,859.6,1004.7,874.5,1001.5C877.7,990.7,871.3,1002.2,874.5,1001.5z"/>
</g>
<g>
	<path class="st2" d="M722.4,1107.1c0.1,8.8,14,33.8-12.6,24.7C688.4,1124.5,700.6,1100.1,722.4,1107.1
		C722.5,1114.3,710.5,1103.3,722.4,1107.1z"/>
	<path class="st2" d="M916.6,1053.4c0.7-10.3,14.1-36,25.3-15.6C951.9,1056.2,927.1,1067.8,916.6,1053.4
		C916.9,1049,919.1,1056.9,916.6,1053.4z"/>
	<path class="st2" d="M334,1165.2C291.4,1113.8,398.1,1167.4,334,1165.2C329.9,1160.2,348.6,1165.7,334,1165.2z"/>
	<path class="st2" d="M858.7,1101.8c-17.5-28.2,18.4-18.5,18.1-5.1C876.3,1122.7,853.2,1107.8,858.7,1101.8
		C857.4,1099.8,855.6,1105.2,858.7,1101.8z"/>
	<path class="st2" d="M390.2,1285c5.2,20.6-11.8,20.8-25.6,17.6C346.5,1298.3,375,1274.8,390.2,1285
		C391.9,1291.5,388.1,1283.5,390.2,1285z"/>
	<path class="st2" d="M740.9,1203.6c-4.2-17.6-0.5-24.6,17.4-21.9C776.6,1184.5,761,1214.8,740.9,1203.6
		C740.5,1202.3,747.5,1207.3,740.9,1203.6z"/>
	<path class="st2" d="M535.1,1240.8C508.9,1213.3,598.1,1224.2,535.1,1240.8C533.1,1238.7,540.7,1239.4,535.1,1240.8z"/>
	<path class="st2" d="M405.1,1142.8c-2.3-12.6,9-24.2,22.3-18.1C442.6,1131.7,417.9,1161.2,405.1,1142.8
		C404.5,1139.7,407.8,1146.7,405.1,1142.8z"/>
	<path class="st2" d="M505.6,1192.7c-8.2,10.1-25.5,11.1-30.6-2.2C484.4,1170.5,501.8,1172.9,505.6,1192.7
		C498.9,1201,504.5,1186.7,505.6,1192.7z"/>
	<path class="st2" d="M263,1148.3C258.8,1193.4,207.6,1131.6,263,1148.3C261.8,1161.9,260,1147.4,263,1148.3z"/>
	<path class="st2" d="M499.7,1091.3C450.6,1120.6,487.5,1057.1,499.7,1091.3C496.6,1093.2,496.4,1082.1,499.7,1091.3z"/>
	<path class="st2" d="M397.2,1215.5C445.5,1179.2,421.1,1244.7,397.2,1215.5C403.7,1210.5,399.9,1218.9,397.2,1215.5z"/>
	<path class="st2" d="M811.6,1272.6c-17.1-7.7-17.5-24.1,7-23C846.8,1250.8,813.7,1268.1,811.6,1272.6
		C807.6,1270.8,814,1267.4,811.6,1272.6z"/>
	<path class="st2" d="M595,1055.9C644.5,1088.7,546.9,1081.4,595,1055.9C601.5,1060.2,591.4,1057.8,595,1055.9z"/>
	<path class="st2" d="M550.8,1131.4C515.8,1113.2,587,1091.5,550.8,1131.4C544.6,1128.2,554.7,1127.1,550.8,1131.4z"/>
	<path class="st2" d="M153.6,1121.4c7.8-7.8,18-9.8,26.7-1.3C180.6,1144,152.4,1145,153.6,1121.4
		C156.3,1118.7,153.2,1128.6,153.6,1121.4z"/>
	<path class="st2" d="M292.6,1101.2c11.8-4.3,20.9,12.7,18.2,20.8C294.9,1138.8,277.1,1113.2,292.6,1101.2
		C295.8,1100,286.9,1105.6,292.6,1101.2z"/>
	<path class="st2" d="M542.3,1027.5c26.5-3.8,11,19.3-3.1,24.7C526.3,1043.6,532.4,1036.4,542.3,1027.5
		C548.8,1026.5,540.4,1029.2,542.3,1027.5z"/>
	<path class="st2" d="M807.3,1124.9C779.9,1152.3,774.4,1074.6,807.3,1124.9C805,1127.2,803.9,1119.9,807.3,1124.9z"/>
	<path class="st2" d="M640,1268.5c19.8,29.3-49.7,12-15.2-11.2C630.8,1262.3,631.5,1266.9,640,1268.5
		C641.8,1271.1,632.5,1267.1,640,1268.5z"/>
	<path class="st2" d="M894.4,1179.6c-14.9-10.8-2.5-10.8,0.7-22.8C917.3,1156.7,918.3,1182.3,894.4,1179.6
		C892.5,1178.2,900.8,1180.3,894.4,1179.6z"/>
	<path class="st2" d="M349.7,1234.8C332.7,1259.7,298.7,1215.8,349.7,1234.8C344.3,1242.7,344.5,1232.9,349.7,1234.8z"/>
	<path class="st2" d="M641.5,1108.7c0,8.2-16.5,32-21.4,14.9C618.1,1116.5,623.7,1091,641.5,1108.7
		C641.5,1111.6,637.7,1104.9,641.5,1108.7z"/>
	<path class="st2" d="M439.8,1064.6c7.6,8.6,14.6,29.6-6,24.6C417,1085.1,422.8,1066.5,439.8,1064.6
		C442.6,1067.8,430.4,1065.7,439.8,1064.6z"/>
	<path class="st2" d="M723,1293.9c-2.3-14.2-0.7-17.4,14.1-19.6C748.8,1272.5,745.2,1305.2,723,1293.9
		C722.3,1289.5,725.6,1295.2,723,1293.9z"/>
	<path class="st2" d="M662,1189c12.5-10.2,26.2-7.8,26.2,9.3C678.7,1206.3,658.3,1207.2,662,1189
		C663.7,1187.7,660.4,1196.9,662,1189z"/>
	<path class="st2" d="M824.6,1190.9c-5.3-4.1-34.4-12.3-6.8-23.4C827.4,1172,843.8,1179,824.6,1190.9
		C821.8,1188.8,830.3,1187.3,824.6,1190.9z"/>
	<path class="st2" d="M577.7,1340.7c-9.8-5-14-27.9,0.9-29.1C583.1,1322.4,603,1331.4,577.7,1340.7
		C575.5,1339.5,585.7,1337.8,577.7,1340.7z"/>
	<path class="st2" d="M607.7,1174.5C556.6,1202.1,602.8,1144.1,607.7,1174.5C603.4,1176.8,607.3,1171.7,607.7,1174.5z"/>
	<path class="st2" d="M961.6,1108.1c11.6,5,2.3,12.2,2.6,18.3C943,1133.7,935.8,1104.8,961.6,1108.1
		C966.4,1110.2,956,1107.4,961.6,1108.1z"/>
	<path class="st2" d="M277,1226.2C243.5,1209.5,291.3,1202.4,277,1226.2C275.8,1225.6,281.5,1218.7,277,1226.2z"/>
	<path class="st2" d="M460.6,1284.8c-19.9,6.4-33.3-30,5.4-8.7C464.2,1279,462.4,1281.9,460.6,1284.8
		C457.8,1285.7,462.5,1281.8,460.6,1284.8z"/>
</g>
<g>
	<path class="st2" d="M649.6,330.8c-6,19.8-65.8-1.7-83-3c-31.3-2.3-45.7,2.3-71.2,16.8c-19.8-38.2,28-47.2,46.2-74.1
		c22.3-32.9,57.8-57.2,79.9-92.3c6.9,0,44.6,67.2,52.3,78.9C684.9,274,690.3,336,649.6,330.8C648.8,333.5,653.5,331.3,649.6,330.8z"
		/>
	<path class="st2" d="M372.4,340.7c0.5,21.4-34.1,2.8-44.5,4.3c-17.4,2.6-37.7,2.5-56,4.9c-23.9,3-61.9,10.2-74.8-19.3
		c-13.7-31.5-8.8-50.1,24.4-68.2c7.5-4.1,33-35.3,16.3-43.8c-5.6-2.9-8.4-18.9,1.2-12.8c17.6,11.2,28.1,24.8,40.6,42.6
		C313.6,266.6,339.5,316.1,372.4,340.7C372.5,342.9,368.8,338,372.4,340.7z"/>
	<path class="st3" d="M615,208.8c-12-0.9-56.6,71.8-64.5,81.3c-24.2,29.2,67.7,40.3,83.7,35.6c50.5-14.8,29.6-50.3,16.4-81.4
		C645.1,231.3,614.6,218.6,615,208.8C613.6,208.7,615,208.2,615,208.8z"/>
	<path class="st2" d="M585.4,300.4c-14-6.8-7.1-21-0.4-30.3C616.7,270.1,599.6,290.8,585.4,300.4
		C577.6,296.6,588.1,298.5,585.4,300.4z"/>
	<path class="st3" d="M247.1,252.5c-14.1,21.5-71.3,57-31.2,81.3c11.9,7.2,103.3,15.8,104.4-8.8
		C317.5,304.6,264.7,244.4,247.1,252.5C244,257.2,249,251.6,247.1,252.5z"/>
	<path class="st2" d="M281.3,306C232.9,350.6,260.6,263.6,281.3,306C278.3,308.8,279.2,301.6,281.3,306z"/>
</g>
<g>
	<path class="st2" d="M275.4,672.8c-3.4,5.9-49.2,21.5-52.6,19c-14.8-33.5,225.4-72.1,228.8-76.9c-6.1-12.8-30.5-75.5-23.6-87.3
		c-18.4-18.3-80,6.1-82.4-40.8c-2.4-48.5,56.9-40.7,87-49.1c35.8-9.9,94.2,53.8,52.2,80.9c-22.3,14.3-31.2-0.1-37.9,27.5
		c-3.6,15.2,5.8,41,10.5,55.4c4.8,14.7,1.9,49.6,25.5,42.1c19.9-6.4,42.4-15.8,61.4-26.4c26.4-14.7,98.8-18.4,127.9-7.9
		c19.9,7.2,47.2,7.5,68.3,13.1c14.1-8.6,46.6,16.5,61.6,15.4c7.5,7.7-17.4,14.2-19.6,14.5c-11.6-14.2-25.4-20.4-44.2-21.5
		c-21-1.2-40.3-10.4-62.1-10.6c-55.7-0.6-98.4-3-151.6,19.9c-21.1,9.1-38.1,26.7-60.7,9.5c-17-12.9-18.5-26.7-47-20.1
		C372.3,640,320.1,668.1,275.4,672.8C273.1,676.8,281.1,672.2,275.4,672.8z"/>
	<path class="st2" d="M265,522.1c20.5-3.2,21.4,22.7,1.7,25.7c-18.3,2.8-15.7-14.9-7.7-24.8C265,522.1,263.4,522.1,265,522.1z"/>
	<path class="st2" d="M530.3,550.4c0.3-12.2,15.2-7.9,23.2-7.6c17,17.7-12.3,29.1-24.7,10.6C528.9,549.1,532.1,553,530.3,550.4z"/>
	<path class="st2" d="M662.4,554.2c-15.2,0-11.3-0.4-11.3-15.8c14.8-16,33.4-0.9,14.8,16.6C662.4,555,665.3,553.4,662.4,554.2z"/>
	<path class="st2" d="M584.8,485.8c0-13.5,13.3-23.5,24.6-8.5c4.4,13.4-16.4,25.6-24.9,11.9C584.5,485.2,584.5,487.1,584.8,485.8z"
		/>
	<path class="st2" d="M334.6,598c-16.3-6-7.8-20.8,7.9-21.3c21.1-0.7,7.5,20.1-5.2,23.4C333.5,598.7,336.2,598.9,334.6,598z"/>
	<path class="st2" d="M237.2,625.2c-15.8,5.9-25.2-13.9-6.2-21.8c12.6-5.2,20.8,9.6,13.2,19.2C237.2,625.2,242.8,625.4,237.2,625.2z
		"/>
	<path class="st0" d="M454.1,514.9c21.7,6.1,48.7-19.7,27.1-38.5c-18.6-16.2-40.2-21.1-63.9-18.6c-89.4,9.2,14.8,87.9,34.4,56.6
		C453.5,514.9,452.9,516.7,454.1,514.9z"/>
</g>
</svg>
