<?xml version="1.0" encoding="utf-8"?>
<!-- Generator: Adobe Illustrator 16.0.0, SVG Export Plug-In . SVG Version: 6.00 Build 0)  -->
<!DOCTYPE svg PUBLIC "-//W3C//DTD SVG 1.1//EN" "http://www.w3.org/Graphics/SVG/1.1/DTD/svg11.dtd">
<svg version="1.1" id="Layer_1" xmlns="http://www.w3.org/2000/svg" xmlns:xlink="http://www.w3.org/1999/xlink" x="0px" y="0px"
	 width="100px" height="180px" viewBox="0 0 100 180" style="enable-background:new 0 0 100 180;" xml:space="preserve">
<style type="text/css">
<![CDATA[
	.st0{fill-rule:evenodd;clip-rule:evenodd;}
	.st1{fill-rule:evenodd;clip-rule:evenodd;fill:#FFFFFF;}
]]>
</style>
<g>
	<path class="st0" d="M99.2,78.9c-1.6-0.3-2.9-1.2-4.2-2c-1.3-0.8-2.6-1.4-3.9-2.1c-0.9-0.4-1.7-0.5-2.6-0.2
		c-0.3-0.2-0.3-0.6-0.7-0.7c-0.9,0-1.1,1.3-2.2,0.9c-0.4,0.7-0.7,1.3-1.1,2c-0.6,0.1-1-0.6-1.7-0.4c-1.7,0.5-2.3,2.2-3.8,2.9
		c-0.4,1.7-1.1,3.1-0.7,4.8c0.4,1.1,1.7,1,2.5,1.7c-1,0.4-1.9,0.8-2.8,1.1c-1.1,0.4-2.1,1-2.7,2.1c-0.4,0.6-1.1,0.9-1.4,1.7
		c-0.2,0.6-0.7,1.1-1.1,1.7c-0.4,0.6-0.8,1.3-1.1,1.9c-0.1,0.1-0.2,0.3-0.3,0.4c-1.3,1.6-1.5,3.4-1.7,5.4c0,0.4,0,0.8-0.1,1.2
		c-0.1,0.3-0.3,0.6-0.7,0.7c-0.5-0.9-1-1.9-1.2-2.9c-0.2-1-0.6-1.9-1-2.8c-0.4-1-1.8-5.7-1.9-6.6c-0.3-1.7-0.7-3.4-1.4-5
		c-0.3-0.7-0.5-1.4-0.6-2.2c-0.3-3.2-0.8-6.3-0.6-9.5c0.1-0.9,0.1-1.8-0.4-2.5c0.2-0.5,0.3-0.8,0.4-1.1c-1.3-1.3-1.1-3.1-1.6-4.6
		c-0.2-0.2-0.4,0-0.6,0c-0.4-0.6-0.7-1.3-1.4-1.7c-1.2-0.4-2.1,0.2-3,0.8c-0.4,0.3-0.8,0.5-1.3,0.7c-1.6,0.8-3.3,1.6-4.7,2.4
		c-0.4,0.7-0.4,1.3-0.4,1.9c0,1.7,0.1,3.3,0.1,5c0,0.7,0,1.3,0.3,2c-0.3,0.5-0.2,1.1,0,1.6c0.1,0.2-0.2,0.4-0.1,0.7
		c0.8,1.4,0.9,3,1.3,4.5c0.4,1.8,0.5,3.6,1.3,5.3c0.2,0.4,0.2,0.8,0.2,1.2c0,0.4,0,0.8,0.3,1.2c0.8,0.9,0.9,2,1.1,3
		c0.2,1.2,0.6,2.4,1.1,3.6c0.3,0.8,0.6,1.7,1,2.5c0.4,0.7,0.7,1.5,1,2.3c0.3,1,0.9,1.9,1.5,2.8c1.2,1.8,2.4,3.6,3.6,5.3
		c0.4,1.4,1.4,2.4,2.3,3.5c0.8,1,1.5,2,2.2,3c0.2,0.3,0.3,0.8,0.5,1.1c0.6,0.5,1.3,1,1.9,1.6c1.2,1.2,2.2,2.4,3.6,3.4
		c1,0.7,1.7,1.8,2.5,2.7c1.1,1.2,2.1,2.5,3.5,3.5c0.1,0.1,0.3,0.2,0.4,0.3c1,1.6,2.4,2.7,3.6,4.2c1.6,2.1,3.2,4.2,4.7,6.3
		c0.4,0.6,0.9,0.9,1.3,1.5c1.2,1.6,2.3,3.3,3.3,5c1.2,2.2,2.6,4.3,3.9,6.4c0.1,0.2,0.1,0.4,0.2,0.8c-1.3-0.2-2.4-0.8-3.6-1.2
		c-0.8-0.3-1.6-0.6-2.3-0.9c-1.7-0.7-3.3-1.4-4.8-2.6c-3.2-2.4-6.4-4.7-9.9-6.7c-2-1.2-4-2.2-6.3-2.8c-1-0.3-1.9-1-2.9-1.3
		c-0.3-0.1-0.6-0.1-1,0.2c-0.2,1.7-0.9,3.4-0.6,5.3c0.1,1.1,0.3,2.1,0.3,3.2c0,1.1,0.1,2.1,0.5,3.2c0.3,1,0,2.2,0.5,3.2
		c0,1.6,0.7,3.1,0.6,4.7c0,0.3,0,0.7,0.1,1c0.5,1.1,0.3,2.4,1,3.6c0.3,0.1,0.7,0.3,1.1,0.5c0.9,1.6,1,3.6,1.6,5.4
		c-0.3,0.8-0.9,0.9-1.7,1c-1.3,1.5-2.2,3.4-3.1,5.3c-0.5,1.1-0.9,2.3-1.3,3.5c-0.3,0.7-0.6,1.3-0.9,1.9c-0.4,0.3-0.7,0.3-1.1,0.1
		c-0.4-0.4-0.4-0.9-0.3-1.4c0.4-1.3,0.3-2.6,0.4-4c0.1-1.4,0.3-2.8,0.6-4.2c0.5-2.7,1-5.4,2.4-7.8c-0.1-0.5-0.1-1-0.3-1.5
		c-0.6-1.5-1.2-2.9-1.3-4.5c-0.1-0.7-0.4-1.4-0.6-2.1c-0.3-1-0.8-2-0.8-3.1c0-0.2-0.1-0.5-0.2-0.7c-1.3-2.7-1.9-5.7-2.6-8.5
		c-0.5-1.9-1.2-3.8-1.2-5.7c-0.3-0.4-0.6-0.4-0.9-0.5c-1.7-0.2-3.4,0.2-5.1,0.5c-0.4,0.1-0.7,0.4-1.1,0.7c-0.2,0.9-0.2,1.9-0.5,2.9
		c-0.2,0.9-0.1,1.8-0.2,2.7c0,1,0,2,0,3c0.1,0.8,0.3,1.6,0.4,2.4c0.1,0.8-0.1,1.7,0.3,2.5c0.1,0.3,0.2,0.6,0.2,1
		c0.3,3.2,1,6.4,2.1,9.5c0.5,0.4,1,0.7,1.5,1.2c0.7,0.7,1.5,1.4,1.4,2.5c0,0.2,0,0.4,0.1,0.5c1,1,0.8,2.5,1.2,3.5
		c-0.1,0.7-0.3,1-0.7,1.2c-1.7,1-3.3,2.3-5.4,2.6c-2.1,1.7-4.3,3.5-6.4,5.3c-0.8,0.1-0.9-0.6-1.3-1c1.2-2.4,1.9-5.1,3.8-7.1
		c1-1.1,1.6-2.5,2-3.9c0.4-1.5,1.3-2.9,1.6-4.8c-1.2-2.8-1.5-6.1-3-9.5c-0.2-0.6,0-1.7-0.2-2.8c-0.2-1.8-1.1-3.3-1.4-5
		c-0.9-1.5-1-3.2-1.5-4.7c-0.4-0.4-0.8-0.3-1.1,0c-1.2,1-2.8,1.4-3.9,2.7c-2.3,1.4-4,3.5-5.7,5.5c-0.8,1-1.7,2-2.2,3.3
		c-0.4,0.8-1.2,1.4-1.8,2.1c-0.4,1.8-1.5,3.4-2.2,5.2c-1.4-0.5-1.3-2.3-2.6-2.8c-0.4-1.3-0.8-2.5-1-3.7c-0.3-1.2-0.4-2.4-0.7-3.6
		c-0.1-0.7-0.3-1.3-0.5-1.9c-0.5-1.8-1.1-3.7-1.1-5.6c0-0.6-0.4-1.3-0.4-1.9c0-0.7,0-1.3-0.5-1.9c-0.3-1.9-0.7-3.8-0.6-5.6
		c-0.3-0.5-0.6-0.9-0.9-1.4c0.1-0.4,0.1-0.8,0.2-1.4c-0.2-0.6-0.4-1.4-0.7-2.2c0.6-2.1,0.4-4.4,0.4-6.6c-0.5-1.6,0.1-3.1,0.2-4.7
		c0-0.4,0.3-0.8,0.3-1.2c-0.1-1.6,0.7-3.1,0.7-4.7c1.2-3.1,1.4-6.5,2.1-9.7c0.1-0.3,0.2-0.6,0.3-0.9c-0.2-0.3-0.4-0.7-0.6-0.8
		c-2-0.8-3.6-2.3-5.5-3.1c-0.8-0.1-0.9,0.7-1.5,0.8c-1.5-1.9-2.4-4.2-4-6c-0.3-1.5-1.8-2.4-2.2-3.8L9.4,85c0.2,0,0.4-0.1,0.5,0
		c0.9,1,2,1.7,2.7,2.9c0.6,1.1,1.3,2.1,1.9,3.2c0.4,0.7,0.8,1.2,1.5,1.4c0.6-0.4,0.4-1.1,0.7-1.6c0.3-0.5,0.6-1,0.7-1.6
		c0.1-0.6,0.7-1,0.4-1.7c-2.6-1.3-4.4-3.6-6.6-5.6c-2.1-2-3.9-4.3-5.2-6.9C5.9,74.1,6.1,73,6.5,72c0.2-0.4,0.3-0.8,0.4-1.2
		c0.1-0.3,0-0.7-0.3-0.9c-0.2-0.1-0.5-0.1-0.7-0.1c-0.4,0.5-0.8,0.9-1.1,1.4c-0.7-0.9-1-1.8-0.5-2.8c0.3-0.6,0.2-1.1,0.1-1.7
		c0-0.3-0.3-0.6-0.7-0.8c-0.4,0.3-0.8,0.7-1.2,1.1c-1.6,1.4-1.7,3.1-0.9,5c0,0.1,0.1,0.2,0.1,0.2c0.9,1.1,1,2.6,1.7,3.8
		c1.6,1.3,1.6,1.3,2.8,3.7c0.2,0.4,0.5,0.7,0.7,1c-0.5,0.7,0.5,0.7,0.6,1.1c0.1,0.4,0.4,0.7,0.7,1s0.6,0.6,0.8,1
		c0.1,0.2,0,0.5,0,0.7l0,0c-0.2-0.1-0.5-0.2-0.6-0.4c-0.9-0.9-1.6-1.9-2.6-2.5c-0.1-0.4-0.3-0.6-0.3-0.9c0-1.5-0.7-2.6-1.8-3.4
		c-1.3-0.9-1.9-2.2-2.4-3.7c-0.3-1-0.6-1.9-1-2.8c-0.5-1.2-0.3-2.4,0.3-3.3c0.9-1.2,2-2.2,3.5-2.6c0.3-0.1,0.6,0,0.9,0
		c0.7,1.2,0,2.6,0.6,3.4c0.6,0.5,0.8,0.1,1.1,0.1c0.8-0.1,0.9-0.1,1.6,0.8C8,70.5,7.6,71.8,6.9,73c0.5,1,0.5,2.1,0.6,3.2
		c1.4,1.3,2,3.1,3.4,4.3c1.3,1.2,2.6,2.3,3.9,3.5c1.4,1.2,3.1,1.9,4.6,3c-0.3,1.3-0.3,2.6-1.1,3.7c1.6,1.9,3.3,3.4,6.1,2.8
		c1.5-1.3,2.1-3,2.4-4.9c0.1-0.9,0.4-1.6,0.8-2.4c1-2.2,2.2-4.3,3-6.5c0.1-0.4,0.4-0.8,0.3-1.2c0-0.5,0.2-1,0.5-1.4
		c0.2-0.2,0.4-0.6,0.4-0.9c0.1-0.9,0.4-1.8,0.8-2.6c0.4-0.9,0.4-1.8,0.2-2.7c-0.4-1.4-0.9-2.8-1.4-4.4c0.1-0.2,0.2-0.5,0.3-0.9
		c-0.3-0.5-0.7-0.9-1.2-1.2c-0.7-0.4-1.4-0.9-2.1-1.3c-1.6-0.8-2.6-2.1-3.4-3.6c-1.1-2-2-4.1-2.6-6.4c-0.3-0.9-0.7-1.8-1.2-2.7
		c-0.7-1.2-1.2-2.6-1.5-3.9c-0.3-1.4-1-2.7-1.1-4.2c0-0.2,0-0.6-0.2-0.7c-0.7-0.9-0.8-2-1.2-2.9c-0.8-1.8-1.4-3.7-1.8-5.6
		c-0.1-0.4-0.3-0.8-1-0.9c-1.1,0.1-2,1.7-3.6,0.8c-0.4-0.7-0.3-1.7,0-2.5c0.5-1.5,1.2-2.9,1.9-4.4c0.5-1,1.3-1.7,2.3-2.2
		c3.1-1.6,6.3-2.9,9.5-4.2c2-0.8,4-1.5,6-2.4c0.6-0.3,1.2-0.6,1.7-1c1.5-1.4,3.5-2.2,5-3.6c1.9-0.7,3.8-1.7,5.8-2.1
		c2.3-0.5,2.6-0.7,4.5-2c0.8,0,1.7-0.1,2.6-0.1c0.4-0.3,0.9-0.6,1.4-0.9c0.3,0,0.7-0.1,1.2-0.1c1.4-0.3,2.7-0.5,3.9-1.4
		c1-0.8,2.2-1,3.5-1c0.5,0,1-0.4,1.4-0.3c1.2,0.5,2.5,0,3.6,0.7c0.4,0.2,0.9,0.4,1.3,0.7c0.8,0.5,1.5,1.1,2.2,1.6
		c0.6,0.5,1.4,0.7,2,1.3c0.2,0.2,0.4,0.2,0.7,0.4c0.1-0.1,0.3-0.1,0.4-0.2c0.9-1.4,2.1-2.6,2.7-4.1c0.6-1.6,1.7-2.9,2.3-4.4
		c0.1-0.3,0.3-0.6,0.7-0.6c0.1,0,0.3,0,0.4,0.1c0.9,1.2,4.1,6.4,4.7,7.6c0,0.5-0.4,0.7-0.7,0.9c-1.5,1.3-3.1,2.5-4.9,3.4
		c-0.6,0.3-1,0.8-1.6,1.3c0.4,1,1.4,1.5,1.7,2.5c0.4,0.9,0.9,1.8,1.6,2.2c0.4,1,0.1,1.9,0.6,2.6c0.4,0.6,0.8,1.3,1.2,2
		c-0.4,1.6,0.2,3.2,0.5,4.8c0.2,1,0.9,2,0.5,3.1c0,0.1,0,0.2,0,0.2c0.4,0.8,0.8,1.7,0.7,2.6c-0.1,1,0.3,1.8,0.6,2.6
		c0.1,0.4,0.1,0.8,0.1,1.2c0.1,0.7-0.1,1.5,0.4,2.2c0.2,0.3,0.1,0.8,0.1,1.2c0,0.3-0.1,0.7,0.1,1c0.3,0.6,0.6,1.2,0.1,1.9
		c-0.1,0.1,0.1,0.5,0.1,0.7c0.2,0.8,0.2,1.5-0.1,2.1c0.3,1.3,0.8,2.4,0.9,3.7c0.1,1.1,0.5,2.2,0.7,3.4c0.1,0.5,0.2,1,0.5,1.4
		c0.3,0.5-0.2,1,0,1.4c0.5,1,0.1,2.1,0.7,3.1c0.5,0.8,0.7,1.9,1,2.8c0.1,0.2,0.1,0.3,0.2,0.4c1.1,1,1.4,2.4,2,3.7
		c0.6,1.2,1.4,2.2,2,3.5c0.4,1,1.1,1.8,1.8,2.6c1.3,1.4,2.5,2.9,4.1,4C98.1,77.1,98.8,78,99.2,78.9L99.2,78.9z"/>
	<path class="st0" d="M99.2,79c0.3,0,0.6-0.1,0.8,0.2C99.6,79.5,99.4,79.4,99.2,79L99.2,79z"/>
	<path class="st0" d="M9.5,85C9.2,85,9,84.8,9,84.5l0,0C9.3,84.5,9.5,84.7,9.5,85L9.5,85z"/>
	<path class="st1" d="M22.9,135.7c0-1.9,0-3.7,0-5.4c0-0.3,0-0.5,0-0.8c0-0.7-0.7-1.3-0.4-1.9c0.4-0.7-0.1-1.3-0.1-1.9
		c0-0.7,0.1-1.4-0.1-2c-0.4-1.5-0.4-3-0.5-4.5c-0.1-1.2-0.2-2.3,0.4-3.4c0.1-0.2,0.1-0.5,0.1-0.7c0.1-2.5,0.5-4.9,1.4-7.3
		c0.1-0.3-0.1-0.6-0.2-1c0.5-0.9,0.8-1.9,0.8-3c0-0.9,0.2-1.8,0.3-2.7c0.1-0.9,0.6-1.5,1-2.2c0.4-0.6,0.6-1.4,0.7-2.1
		c0.4-2,1.1-3.8,1.6-5.7c0.4-1.4,0.8-2.7,1.5-3.9c1.2-1.9,2.1-3.9,2.8-6c0.2-0.5,0.4-0.9,0.6-1.4c1.2-1.8,1.6-3.8,2-5.9
		c0.2-0.4,0.5-0.9,1-1.2c0.2,0,0.3-0.1,0.5-0.1c0.8,0,1.7,0,2.5,0c0.8,0,1.7,0.1,2.5-0.2c1.8-0.6,3.6-0.3,5.4-0.2
		c0.2,0,0.4,0.2,0.7,0.3c0.5,0.7,0.2,1.5,0.3,2.2c0.1,0.7,0,1.3,0.1,2c0.2,1.5,0.3,3,0.9,4.3c0.1,0.2,0.1,0.3,0.2,0.5
		c0.1,0.2,0.3,0.5,0.3,0.7c-0.1,1.8,0.9,3.4,1,5.1c0.1,1.1,0.3,2.1,0.9,2.9c0.7,2.7-0.8,5-0.9,7.5c-0.9,0.9-0.6,2.4-1.5,3.3
		c-0.9,0-1-1.1-1.8-1.3c-0.4,0.1-0.6,0.4-0.7,0.7c-0.5,1.4-1,2.8-1.4,4.3c-0.6,2.7-1.6,5.3-2.9,7.7c-0.5,0.9-0.9,1.8-1.3,2.8
		c-0.9,0.3-1.4,1.1-2.3,1.6c-0.8,0-1.8,0.1-2.7,0.1c-0.5,0.3-0.4,0.7-0.3,1c0.1,0.3,0.3,0.6,0.5,0.8c0,0.2-0.1,0.4-0.1,0.5
		c-0.3,0.5-0.7,0.9-1,1.4c-0.3,0.5-0.3,0.5-0.3,2c0.6,0.7,1.5,1,2.2,1.3c1.4-1,3.5-3,4.5-4.4c0.7-1,1.5-2.1,2.5-2.7
		c1-0.7,1.6-1.6,2.4-2.5c2.2-2.6,3.7-5.7,5.3-8.7c-0.4-0.8-0.7-1.4-1-2.1c0-0.9,0.7-1.7,1-2.5c0.4-1,1-1.9,1.1-3
		c0-0.2,0.3-0.4,0.5-0.8c0.5,2,1.7,3.3,1.9,5.1c0,0.2,0.1,0.3,0.2,0.5c1.4,2.3,2.5,4.9,4.3,7c0.1,0.1,0.2,0.3,0.3,0.4
		c1.4,3.1,3.8,5.4,5.4,8.3c0.4,0.8,1,1.5,1.8,2c0.5,0.3,0.8,0.8,1.2,1.2c1,1.1,1.9,2.2,3.1,3.2c1.4,1.1,2.7,2.2,3.5,3.8
		c1.5,0.9,2.1,2.7,3.7,3.6c0.5,0.3,0.8,1,1.3,1.5c1.7,2,3.4,4,4.9,6.2c0.9,1.3,2,2.5,2.9,3.7c1.8,2.2,3.5,4.5,4.8,7c0,0,0,0.1,0,0.2
		c-0.7,0.1-1.3-0.3-1.7-0.7c-1.4-1.1-2.8-2-4.3-2.8c-0.5-0.3-1-0.6-1.4-1c-0.9-0.8-1.9-1.3-2.8-2c-0.5-0.3-1.2-0.5-1.6-1.1
		c-0.3-0.4-1.1-0.3-1.4-0.9c-0.9-0.5-1.9-1-2.8-1.6c-1.2-0.7-2.4-1.5-3.6-2.3c-1.1-0.7-2.5-0.9-3.6-1.7c-2.3-0.6-4.4-1.8-6.8-2.3
		c-1-0.2-1.8-0.9-2.9-0.6c-0.9,0.2-1.8-0.3-2.7-0.3c-0.3,0-0.7-0.1-1,0c-1.5,0.7-3.1,0.4-4.6,0.4c-1.6,0-3.1,0.2-4.4,1.3
		c-2.9,1.3-5.3,3.4-7.9,5.1c-0.9,0.6-1.8,1.2-2.4,2.2c-0.1,0.2-0.3,0.4-0.5,0.5c-1.5,0.9-2.3,2.5-3.4,3.9c-1.4,1.8-2.6,3.9-4,5.7
		c-0.3,0.4-0.2,1-0.7,1.3c-0.7,0.1-0.9-0.4-1-0.9c-0.3-0.9-0.4-1.8-0.6-2.7c-0.7-3.2-1.3-6.5-2.3-9.6c-0.1-0.2-0.2-0.5-0.1-0.7
		C24.1,138.3,23.5,136.9,22.9,135.7z"/>
	<path class="st1" d="M90.5,73.2c-1.1,0.6-1.9-0.2-2.6-0.7C87,72.4,86.4,73,85.5,73c-0.5,0.5-1.1,0.9-1.7,1.4
		c-0.5-0.2-0.9-0.4-1.4-0.6c0.1-0.3,0.1-0.5,0.2-0.8c-0.2-0.7-0.9-1.1-0.9-1.9c-0.1-0.8-0.9-1.2-1.3-1.8c0-0.3,0.2-0.6,0.1-0.7
		c-0.9-0.8-0.7-2-1.1-3c-0.4-1-0.8-2-0.7-3.1c-0.5-1.7-0.4-3.4-0.8-5.1c-0.3-1-0.2-2.1-0.3-3.2c-0.7,2.3-1.1,4.5-0.4,6.9
		c0.5,1.8,0.8,3.7,1.1,5.5c0.2,1.1,0.7,2,0.6,3.1c0.8,0.9,1.5,1.7,1.5,2.9c0,0.5,0.4,1.1,0.7,1.6c0.2,0.5,0.3,0.9,0.2,1.5
		c-0.8,0.8-1.9,1.1-2.6,2.1c-0.6,1-1.4,1.8-2.3,2.8c-0.4-1.6-1.3-2.9-1.9-4.4c-0.5-1.4-1.1-2.8-1.5-4.2c-0.3-1.1-0.6-2.2-0.8-3.4
		c-0.2-1.1-0.8-2.2-0.6-3.4c-0.7-2.6-0.5-5.4-1.3-8.1c-0.3-1-0.2-2.2-0.2-3.2c0-1.3,0-2.7,0-4c0-0.3,0.1-0.7,0-1
		c-0.5-1.1-0.3-2.3-0.4-3.5c0-0.6-0.1-1.2-0.1-1.8c-0.7,0.9-0.7,0.9-0.6,1.4c0.1,0.5,0.2,1,0.1,1.5c-0.6,1.5-0.4,3-0.4,4.4
		c0,1.3-0.1,2.5,0,3.8c0.1,2-0.1,4,0.5,5.9c0.3,0.9,0.4,1.8,0.1,2.8c-0.3,1-0.1,2.1,0.2,3.2c0.3,1.2,0.6,2.4,0.9,3.6
		c0.3,1,0.3,2,0.4,3.1c0.5,0.6,1.1,1.3,1.8,2.1c0,0.8,0.2,1.8,0.7,2.5c0.5,0.7,0.2,1.5,0.7,2.1c0.4,0.5,0.7,1.1,0.9,1.8
		c0.1,0.4-0.1,0.8,0.1,1.2c0.1,0.3,0.6,0.4,0.9,0.8c0.4,0.6,0.9,1.2,1.3,1.7c0,0.8-0.8,0.8-1.2,1.3c-0.3,0.4-0.8,0.7-1.2,0.9
		c-0.5,0.3-1,0.7-1.3,1.1c-1.6,2.3-3.4,4.5-4.4,7.1c0,0.1-0.3,0.1-0.4,0.2c-0.1,0-0.2-0.1-0.2-0.1c-0.7-2.2-1.5-4.4-2.2-6.6
		c-0.3-0.9-0.5-1.7-0.7-2.6c-0.1-0.3-0.3-0.6-0.2-0.9c0.2-1.3-0.3-2.5-0.7-3.7c-0.3-1.1-0.4-2.1-0.5-3.2c-0.1-1.2-0.3-2.3-0.4-3.5
		c-0.1-1.2,0-2.3,0-3.5c0-0.3-0.2-0.6-0.2-1c0-0.2-0.2-0.3-0.1-0.5c0.3-0.7,0.3-1.5,0.4-2.2c0.1-0.7-0.6-1.2-0.2-1.9
		c0.1-0.3-0.1-0.8-0.1-1.2c0.1-0.4,0.4-0.8,0.2-1.2c-0.3-0.7-0.1-1.4,0-2.2c0.1-0.8-0.1-1.6-0.1-2.4c0-0.4-0.3-0.8-0.2-1.2
		c0.2-2.3-0.2-4.7-0.5-7c-0.3-1.9-0.3-3.8-0.5-5.7c-0.2-2.7-0.9-5.4-1.7-8c-0.6-2-1.7-3.8-3.3-5.2c-0.8-0.7-1.4-1.6-2.1-2.4
		c-0.7-0.8-1.4-1.4-2.4-1.6c-0.4-0.1-0.7-0.3-1.1-0.5c-1.4-1-3-1.4-4.6-1.7c-1.4-0.2-2.8-0.2-4.1-0.8c-0.3-0.1-0.6-0.1-1-0.1
		c-0.7,0-1.3,0.1-1.9-0.4c-0.8,0.3-1.5-0.2-2.4,0.1c-0.9,0.3-1.9,0.4-2.9,0c-0.9-0.3-1.8-0.3-2.7,0.1c-0.6,0.3-1.3,0.2-2-0.1
		c-0.2,0.1-0.5,0.3-0.9,0.5c-1.4-0.5-2.8,0.5-4.2,0.2c-0.6,0.3-1.1,0.6-1.6,0.7c-2.9,0.9-5.6,2.3-8.3,3.8c-0.9,0.5-1.9,0.8-3,1.1
		c0.3-0.9,0.5-1.7,0.8-2.5c0.4-1.1,1-2.1,1.9-2.9c0.3-0.2,0.5-0.5,0.8-0.6c2.6-0.9,5.1-2.4,7.8-3.2c0.3-0.1,0.6-0.2,0.9-0.3
		c2.3-1.2,4.7-2.1,7-3.1c0.8-0.4,1.6-0.6,2.3-1.4c0.3-0.5,1.2-0.6,1.8-0.8c0.6-0.2,1-0.6,1.2-1.3c1.3,0,2.5-0.5,3.7-0.9
		c1.5-0.6,3-0.8,4.4-1.6c1.2-0.6,2.7-0.8,4-1.1c1.9-0.4,3.6-1,5.3-1.9C55,9.3,56,9.2,57,9c1-0.2,2,0.1,3-0.2
		c0.7,0.3,1.4,0.3,2.2,0.3c0.3,0,0.6,0.2,0.9,0.3c0.9,0.2,1.7,0.6,2.6,0.8c1.3,0.3,2.3,1.2,3.4,1.9c0.1,0.1,0.1,0.3,0.1,0.5
		c-0.1,0.5-0.5,0.8-0.9,1.2c-0.8,0.8-1.6,1.7-2.5,2.4c-1,0.8-1.8,1.7-2.7,2.6c-0.2,0.2-0.2,0.4-0.3,0.6c0.1,0.9,1.1,1,1.4,1.7
		c0.5,0.1,0.8-0.2,1.1-0.5c2.2-1.7,4.4-3.4,6.7-5.1c0.2-0.1,0.4-0.2,0.6-0.3c0.4,0,0.7,0.2,0.9,0.4c1.3,1.3,2.3,2.8,3,4.5
		c1.4,3.2,2.3,6.5,3.2,9.9c0.2,0.8,0.1,1.7,0.1,2.5c0,3,0.8,5.9,2,9.1c-0.2,1.9,0.5,4,0.6,6.3c0.1,1.5,0.6,3.1,0.9,4.6
		c0.3,2,0.9,4,1.2,6.1c0.2,1.6,0.8,3.1,1.5,4.5c0.8,1.6,1.3,3.2,2.2,4.7c0.9,1.5,1.5,3.1,2.5,4.6C90.8,72.6,90.8,73,90.5,73.2z"/>
	<path class="st1" d="M60.6,53.6c0.5,0.7,0.8,1.2,1.1,1.5c0,1.4,0,2.7,0,3.9c-0.3,0.6-0.7,0.9-1.2,1.3c-0.5,0-1.2,0.1-1.9,0.1
		c-0.2,0.1-0.4,0.2-0.6,0.4c-1.7,1.3-3.6,2.4-5.7,3c-0.6,0.2-1.3,0.4-1.8,0.7c-1.7,1-3.6,1.6-5.6,2.2c-0.3-0.1-0.8-0.4-1.1-0.3
		c-1.1,0.5-2.1,0.1-3.1-0.1c-1.6-0.3-3.2-0.7-4.8-1.1c-0.5-0.1-0.8-0.7-1.3-0.7c-1.9,0-2.9-1.3-4.2-2.4c-0.6-0.5-1.4-0.9-2-1.5
		c-1.1-1.1-1.9-2.3-2.6-3.6c-0.8-1.6-1.7-3.2-2.4-4.9c-0.9-2.1-1.7-4.3-2.5-6.5c-0.7-1.9-1.2-3.9-1.6-6c-0.1-0.4-0.1-0.8-0.3-1.2
		c-0.6-1-0.8-2.2-1-3.3c-0.2-1.5-0.7-2.9-1-4.4c1.9-0.9,3.8-1.8,5.8-2.7c0.1-0.1,0.3-0.2,0.4-0.2c1.1,0.3,2-0.6,3-0.7
		c1.8-0.2,3.6-0.4,5.4-0.6c0.4,0,0.8-0.1,1.2-0.2c0.2,0,0.3-0.1,0.5-0.1c2.7,0.7,5.5,0,8.2,0.5c1.6,0.3,3.3,0.4,4.7,1.5
		c0.4,0.3,0.9,0.4,1.4,0.5c1.7,0.3,3,1.4,4.4,2.3c0.7,0.4,1.3,1.1,1.7,1.8c0.8,1.2,1.8,2.1,2.7,3.1c0.4,0.4,0.4,1.1,1.1,1.3
		c0.6,0.2,0.3,0.9,0.6,1.3c0.3,0.5,0.7,1,0.9,1.5c0.5,1.5,1,3,0.9,4.6c0,1.1-0.1,2.1,0.4,3.2c0.2,0.5,0.1,1.2,0.5,1.6
		C60.1,51,61.3,52.3,60.6,53.6z"/>
	<path class="st1" d="M9.4,85c0-0.4-0.1-0.5-0.5-0.5c0-0.2,0.1-0.5,0-0.7c-0.2-0.4-0.5-0.7-0.8-1s-0.6-0.6-0.7-1
		c-0.1-0.4-1.1-0.4-0.6-1.1c-0.2-0.3-0.5-0.7-0.7-1c-1.2-2.4-1.2-2.4-2.8-3.7c-0.7-1.2-0.8-2.7-1.7-3.8c-0.1-0.1-0.1-0.1-0.1-0.2
		c-0.8-1.9-0.7-3.6,0.9-5c0.4-0.4,0.8-0.8,1.2-1.1c0.5,0.2,0.7,0.4,0.7,0.8c0.1,0.6,0.1,1.1-0.1,1.7c-0.5,1-0.2,1.9,0.5,2.8
		c0.4-0.4,0.7-0.9,1.1-1.4c0.2,0,0.5,0,0.7,0.1c0.3,0.2,0.4,0.5,0.3,0.9c-0.1,0.4-0.3,0.8-0.4,1.2c-0.4,1-0.5,2.1-0.5,3.2
		c1.3,2.6,3.1,4.9,5.2,6.9c2.1,2,4,4.2,6.6,5.6c0.3,0.7-0.4,1.1-0.4,1.7c-0.1,0.6-0.4,1.1-0.7,1.6c-0.3,0.5-0.1,1.2-0.7,1.6
		c-0.7-0.2-1.2-0.8-1.5-1.4c-0.6-1.1-1.3-2.1-1.9-3.2c-0.7-1.2-1.8-1.9-2.7-2.9C9.8,85,9.6,85,9.4,85z"/>
	<path class="st1" d="M47.2,102.2c0.2,0,0.4,0,0.5,0.1c0.9,1.1,1.7,2.2,2.3,3.6c-1.7,3.4-4,6.3-5.9,9.7c-1.4,0.6-2.9,1.4-3.4,3.3
		c-1.3,1.2-2.9,2-4,3.3c-1.1-0.2-1.1-0.2-1.3-1.2c0.5-0.9,1.6-1.5,1.9-2.6c-0.1-0.3-0.6-0.5-0.2-1c0.1,0,0.1-0.1,0.2-0.1
		c0.8,0.1,1.5,0.6,2.4,0.1c0.9-0.7,1.9-1.2,2.3-2.5c0.3-0.8,0.8-1.7,1.3-2.4c0.5-0.6,0.7-1.3,0.9-2c0.7-2.3,1.5-4.5,2.1-6.8
		C46.5,103.1,46.7,102.5,47.2,102.2z"/>
	<path class="st1" d="M52.3,164c0.4,0,0.8-0.1,1.2-0.1c0.4,0,0.8,0.1,1.1,0.1c0.9,1.3,1.1,2.7,1.7,3.9c-0.2,0.9-0.7,1.3-1.3,1.5
		c-2,0.7-3.7,1.8-5.4,3.1c-0.4,0.3-0.9,0.4-1.3,0.6c-0.4-0.2-0.4-0.5-0.3-0.7c0.3-0.5,0.5-1.1,0.9-1.5c1.2-1,1.6-2.5,2.1-3.9
		C51.3,165.9,51.4,164.8,52.3,164z"/>
	<path class="st1" d="M65.7,165.2c0.6-0.3,1.2-0.2,1.9-0.1c0.2,0.7,0.5,1.5,0.7,2.1c-0.2,1-0.7,1.6-1.2,2.1
		c-1.2,1.3-1.8,2.9-2.3,4.6c-0.1,0.4-0.3,0.7-0.7,1c-0.4-0.2-0.7-0.4-0.7-0.9c0-0.3-0.1-0.7,0-1c0.9-2.3,1.3-4.8,2-7.2
		C65.4,165.6,65.6,165.4,65.7,165.2z"/>
	<path class="st0" d="M38.6,74.8c1.8-0.9,2.9,0.3,4.1,0.9c0.4,1.2,0.1,2.1-0.6,2.9c-0.8,1-1.7,1.2-2.8,0.6c-1.1-0.6-1.7-1.8-1.3-2.9
		C38.1,75.8,38.3,75.4,38.6,74.8z"/>
	<path class="st0" d="M44.8,58c-0.1,0.2-0.2,0.4-0.4,0.6c-0.4,0.4-0.8,0.8-1.1,1.1c-1.8,0.6-3.2-0.1-4.5-1c-0.7-1-1.4-2-1.6-3.2
		c0.3-0.3,0.6-0.2,0.9,0c0.8,0.4,1.5,1,2.3,1.4c0.7,0.4,1.5,0.6,2.3,0.9C43.3,58,44.1,57.6,44.8,58z"/>
	<path class="st0" d="M31.5,33.8c0.7-0.3,1.4-0.2,2.1,0.1c0.7,0.4,1,1.1,1.2,1.8c-0.2,1.1-0.7,2-1.7,2.8c-0.5-0.1-1-0.2-1.5-0.4
		c-1-0.4-1.5-1.5-1.1-2.5C30.7,35,30.9,34.3,31.5,33.8z"/>
	<path class="st0" d="M45.9,41c-0.1-0.7-0.2-1.4,0.1-2c0.5-0.8,1.4-0.9,2-1.3c2.1,1,2.2,1.2,1.3,3.3C48.2,41.8,47.2,41.9,45.9,41z"
		/>
	<path class="st0" d="M53.7,165.8c0,0.5-0.3,0.7-0.8,0.6c-0.3,0-0.4-0.2-0.5-0.5c0-0.3,0.2-0.4,0.4-0.5
		C53.2,165.3,53.5,165.5,53.7,165.8z"/>
	<path class="st0" d="M66.3,167.5c-0.1-0.1-0.4-0.1-0.5-0.3c-0.2-0.2,0.2-0.6,0.4-0.6c0.3,0,0.4,0.1,0.4,0.4
		C66.8,167.2,66.6,167.5,66.3,167.5z"/>
</g>
</svg>
