<?xml version="1.0" encoding="utf-8"?>
<!-- Generator: Adobe Illustrator 16.0.0, SVG Export Plug-In . SVG Version: 6.00 Build 0)  -->
<!DOCTYPE svg PUBLIC "-//W3C//DTD SVG 1.1//EN" "http://www.w3.org/Graphics/SVG/1.1/DTD/svg11.dtd">
<svg version="1.1" id="ThisCatIsHereAgain" xmlns="http://www.w3.org/2000/svg" xmlns:xlink="http://www.w3.org/1999/xlink" x="0px"
	 y="0px" width="1000px" height="1000px" viewBox="-400 -399.8 1000 1000" style="enable-background:new -400 -399.8 1000 1000;"
	 xml:space="preserve">
<style type="text/css">
<![CDATA[
	.st0{fill:#939598;}
	.st1{fill:#FFFFFF;}
	.st2{fill:#D1D3D4;}
]]>
</style>
<path d="M200.5-290.9c28-2,45.5-28.5,71-30c14-1,43.5-19,56-27c27-16.5,43.5-29,37.5,16.5c-12.5,22,16,71,3.5,90.1
	c-15.5,23.5,18,105.1,19.5,133.6c1.5,28,12.5,61,10.5,88.1c7,12.5,19,71,16.5,84.5c-6.5,34,32,102.6,45,136.1
	c27,69.5,64.5,139.6,99.1,205.6c20.5,39,38.5,105.6,39.5,148.6c0.5,34.5,9,45-25.5,45c-58,0-116.6,0-174.6,0
	c-208.1,0-416.3,0-623.9,0c-50,0-100.1,0-149.6,0c-46.5,0-16.5-24.5-3-47c7-59,27-111.1,28.5-171.6c1.5-55.5,12-109.6,13.5-165.1
	c1-32,9-63,10.5-95.6c1-22.5,2.5-57,13.5-76.5c24.5-46,14.5-128.1,19-178.1c4.5-51.5,24-112.6,41-160.6c13.5-38,23-131.6,69.5-98.6
	c15,10.5,26.5,42,39,56c18.5,8,29.5,32,44,46C-25.2-222.8,124.9-215.8,200.5-290.9C208-291.4,197-287.3,200.5-290.9z"/>
<path class="st2" d="M-317.4,240c0,89.6-21,179.6-23.5,270.2c-1,40.5-19,88.6,45.5,74c28.5-6.5,61-3,90.1-3.5c14.5,0,68.5,10,79.1,3
	c28.5-19,81.6,8,112.6-5c25-10.5,59,8,83.1-6c33.5-2,67-1.5,100.1-1.5c104.6,1,209.6-1,314.7-0.5c43,0,107.6,19,84.6-51
	c-4.5-14.5-6-37-7-52c-1-26-23.5-44.5-28.5-68c-7.5-37-39-71.5-55.5-104.6c-18-36-40-70.5-52-109.6c-12.5-41.5-29-81-33.5-124.6
	c-3.5-39-7.5-94.1-20.5-130.1c-13-36-16-82.5-17-120.6c-6-21-3-48.5-12-68c-9-19,9.5-57.5-2-74.5c3,4.5-169.1,76.5-185.1,89
	c-54,24.5-90.6,34-147.1,29.5c-30-2-94.1-10.5-107.1-44c-4.5-11-38.5-44.5-50.5-52.5c-23-15.5-33.5-55-59-67
	c-21,11.5-37.5,134.1-39,157.1c-3,51.5-21.5,100.6-25,152.1c-3,50-14.5,103.1-27,151.1C-299.9,125.9-300.4,199.4-317.4,240
	C-317.4,244-315.9,235.9-317.4,240z"/>
<g>
	<path d="M245,152.4c6.5-9,20.5-21,27.5-6C284.5,171.4,249,186.4,245,152.4C246.5,149.9,246,158.9,245,152.4z"/>
	<path d="M-61.7,219.4c-7,10.5-17.5,33-30,10C-100.2,212.9-69.7,192.4-61.7,219.4C-65.2,224.9-64.2,211.4-61.7,219.4z"/>
	<path d="M230,216.4C200.5,280,190.5,165.9,230,216.4C227.5,221.9,227,212.4,230,216.4z"/>
	<path d="M-151.8,160.9c6-12.5,33.5-5.5,29.5,9C-129.3,196.9-146.3,174.9-151.8,160.9C-148.8,154.4-150.3,163.9-151.8,160.9z"/>
	<path d="M289,204.4C343.6,230.9,228,233,289,204.4C292.5,205.9,284,206.4,289,204.4z"/>
	<path d="M-156.3,250c-12.5-7-17.5-36,3-30C-138.8,224.4-142.3,246-156.3,250C-158.3,249-150.8,248.5-156.3,250z"/>
</g>
<g>
	<path d="M154.4-11.2c-37-19.5-89.1-43.5-87.6-94.1c0.5-27.5,102.6-52,117.1-75.5c41.5-67.5,63.5,10.5,64,48
		C249-68.7,220-9.2,154.4-11.2C147.4-15.2,162.9-11.2,154.4-11.2z"/>
	<path d="M-16.2-66.2c-26,39.5-64,97.1-111.6,63.5c-33.5-23.5-25-53-25-88.1c0-20.5-18-92.6-8-106.6c24,0,73.3,43.4,92.1,54
		C-44.3-129.4,11.5-111.3-16.2-66.2C-23.2-54.8-14.8-68.3-16.2-66.2z"/>
	<path class="st1" d="M233.5-154.3c-22-31.5-55,5-82.1,19.5c-30,16-73.5,51.5-41.5,83c28,15.5,76.6,50.5,97.1,1
		c5-12.5,19-26.5,25.5-39.5C244-112.2,236.5-131.3,233.5-154.3C229.5-159.8,234-150.8,233.5-154.3z"/>
	<path d="M171.3-63.4c-6.3,6.6-40.1-10.5-24.3-27.4c17.4-18.6,35.7,9.6,33.6,19C179.8-68.7,172.1-64.3,171.3-63.4z"/>
	<path class="st1" d="M-109-3.8c52,9,56.8-35,81.3-68.5c2.5-29-66.5-68.7-93.6-85c-3.9-2.4-22.5-14-18-3.5c7,16.5-1.5,41,0,59
		c2.5,27,9,71.8,26,94.6C-111.3-4.6-111-5.3-109-3.8z"/>
	<path d="M-59.8-73c-2.6,9.3-22,35-36.5,12.8C-109.8-81-82.2-91.9-68-85.5C-59.9-81.9-58.7-76.6-59.8-73z"/>
</g>
<g>
	<path d="M1.3,86.9c67.5-3,128.1-25.5,152.6,61.5c3,48.5-25,55-62.5,55c-38.5,0-43.5,4-38.5,45.5c9,79,33.5,48.5,93.1,46
		c49-2,165.1-31,200.1,17.5c-28.5,15.5-74-7-106.1-7.5c-48.5-0.5-95.6,3.5-141.1,16c-48.5,13-69-45-119.6-18.5
		C-52.2,319-102.2,320-129.3,345c-10.5,9.5-25,18-31.5,2c-3.5-8.5,45.5-23,51-23c38-30,87.6-40.5,134.1-43.5c18.5-9,10-46.5,9.5-62
		c-0.5-36-26.5-24-50-35.5C-70.7,155.4-39.2,104.4,1.3,86.9C7.3,86.4-4.2,89.4,1.3,86.9z"/>
	<path class="st0" d="M-31.2,143.4c10,39.5,54.5,30,85.1,35.5c31.5,6,73.6,23.5,73.6-31.5C126.9,66.4-14.2,76.9-31.2,143.4
		C-30.7,144.9-29.2,136.4-31.2,143.4z"/>
</g>
</svg>
