<?xml version="1.0" encoding="utf-8"?>
<!DOCTYPE svg PUBLIC "-//W3C//DTD SVG 1.1//EN" "http://www.w3.org/Graphics/SVG/1.1/DTD/svg11.dtd">
<svg version="1.1" id="appking-headoff-scheme" xmlns="http://www.w3.org/2000/svg" xmlns:xlink="http://www.w3.org/1999/xlink" x="0px" y="0px"
	 width="1000px" height="1000px" viewBox="0 0 1000 1000" style="enable-background:new 0 0 1000 1000;" xml:space="preserve">
<style type="text/css">
<![CDATA[
	.st0{fill:#E6AC27;}
	.st1{fill:#80BCA3;}
	.st2{fill:none;stroke:#000000;stroke-width:4;stroke-miterlimit:10;}
	.st3{fill:#BF4D28;}
	.st4{fill:#F6F7BD;}
	.st5{fill:#FFFFFF;}
	.st6{fill:#655643;}
]]>
</style>
<rect class="st5" width="1000" height="1000"/>
<path d="M102.3,324.8c-0.7-3,1.9-7,3.7-9.3c3-3.8,2.6-11.3,1.8-15.6c-0.7-3.7-1.7-9-1-12.7c4.1-3.3,4.9,9.7,5,10.7
	c0.6,8.7,6,18.9,4.6,27.7c-1.1,7.1,0.7,20.3,5,26.6c3,4.4,14.2-11,17-13.7c5.3-5.3,10.7-11.6,15.1-17.7c3.1-4.4,13.8-12.9,13.8-18.3
	c0-3.1,3.8-10.4-1.9-11.4c-4.9-0.9-9.6-2.4-14.5-3.3c-6.7-1.2-13.3-5.3-18.7-9.2c-6.9-5-8.7-14.7-14.1-20.7
	c-11.5-12.7-8.7-34.7-8.1-49.6c0.8-19.3,20.9-31,20.6-50.2c-0.1-8.3-1.9-16.7-3.5-24.9c-1.6-8-1.4-18.3-11.9-19.3
	c-2.8-0.3-6.7-4.2-7.8-6.4c-5.3-1.9,3.4-9.5,5-11c6.7-6.5,14.9-2.2,21.1,2.9c0.1,1.3-2.5,7.7-1.9,7.6c2.1,0,3.7,7.1,5.3,8.4
	c9.2,7.7,18.8,14.2,32.1,10.4c7-2,9.9-6.8,13.9-12c5.6-7.5,12-14.5,18.4-21.4c7-7.5,5.4-8.4,3.4-17.9c-2.1-9.8,18-5.2,21.5-4.7
	c6.4,5.1-4.2,18.5-6.6,22.7c-2.4,4.3-1.2,9.6-1.6,14.1c-0.4,4.8,3.3,10.5,2.9,14.6c-0.5,3.9,9.4,15.3,12.7,17.2c3.9,2.2,7.1,6,11,8
	c4.3,2.2,10.3,2.8,14,6c1.6,1.4,3.5,1.5,5.2,3.1c2.3,2-0.7,2.9-0.5,5.1c0.2,2-5.8,4.4-7,5.2c-7,4.8-13.2,14.3-16.1,21.9
	c-2.8,7.3-3.8,13.7-1.4,21.6c2.3,7.6,8.7,15.4,9.8,22.9c1,6.7,7.3,12.5,10.2,18.5c3.9,8.2,10.7,14.9,14.6,23.2
	c7,14.8,12.5,30.7,15.8,46.7c3.7,17.7,10.8,35.3,12.2,53.4c0.7,8.7,3,17.9,4.6,26.4c2,9.9,1.9,19.8,3.4,29.6
	c0.7,5,7.9,22.6,0.7,25.3c-4.9,1.8-9.6-2.2-14.2-2.4c-4.5-0.1-10.7-1.3-15-2.8c-11.1-4-12.5,6.3-13,14.2c-0.5,9,19.2,14.3,8.3,22.3
	c-7.6,5.6-20.3,2.7-29.4,3.1c-7.1,0.3-24.3,3.1-29.4-3.4c-2.9-3.7,4.7-14.1,9.2-15.2c8.5-2.1,17.1-7.3,26.5-4.1
	c8.2,2.8,9.1-19.7-0.3-21.2c-10.2-1.6-20.9-1.1-31-2.9c-9.4-1.6-16.3-4.8-19.8,5.6c-1.3,3.9-1.9,8-2.4,12.1
	c-0.7,5.7,2,10.1,2.1,15.4c0,2.8,3.4,4.9,2.7,7.9c-1.3,4.9-5.8,5.7-10.8,5.2c-9.6-1-19.1-1.4-28.7-2c-4.7-0.3-21.4-1.2-19.3-8.2
	c3.5-11.4,15.9-13.7,26.6-13.7c8.4,0,15.3,2.6,18.5-5.9c1.8-4.7-1.4-9.8-2.2-14.2c-1.3-7-10.6-5.9-16-6.2
	c-8.9-0.5-17.2,3.2-26.3,1.9c-3.7-0.5-5.7-6.1-7.9-8.4c-3.4-3.5-7.6-6-8.3-10.8c-1.1-7.9,4-19,6.4-26.4c3.1-9.6,4.3-20.1,7.7-29.5
	c2.1-5.7,7.5-22.9-4-15.2c-5.8,3.8-14.6,7.9-19.1,13.2c-9.1,10.4-8.2-12.5-9.1-16.3c-1.1-4.3-0.9-9-2.2-13.4
	C108.9,330.7,104.7,327.3,102.3,324.8C102.2,324.4,103,325.6,102.3,324.8z"/>
<path class="st1" d="M268.4,280.4c13.9,11,14.5,36.3,17.9,51.9c4.2,18.8,8,37.7,12.6,56.3c2.3,9.3,1.6,19.1,2.3,28.6
	c0.5,7,4.3,22.6-1.1,28.1c-5.7,5.7-22.4-1.8-29.1-2c-10.4-0.3-23.6-1.6-33.7-4c-22.2-5.1-43.7-7-66.4-4.8
	c-7.7,0.8-23.9,6.4-27.6-3.3c-1.6-4.3-2.4-9.7-2.2-14.4c0.3-4.6-1-10,0.3-14.5c1.9-6.9,1.2-19.1,5.6-24.9c1.9-2.6,2-9.5,2.9-12.6
	c1-3.5,3.4-8.7,3.4-12.1c0.1-8,5.8-17.1,7.7-25c1.4-5.6,4.4-18.8,10.5-20.8c6.6-2.2,17.9,0.9,25.2,0.9c9.4-0.1,18.7-3.8,26.9-7.7
	c7.1-3.4,14.8-4.9,21.5-9.1c3.2-2,6.6-3.7,9.8-5.7c1.7-1.1,3.4-2,5.2-3C263.6,280.3,264.8,280.9,268.4,280.4
	C269.8,281.5,267.8,280.5,268.4,280.4z"/>
<path class="st4" d="M192.6,287.9c-8.5-1.7-17.7,2.4-26.4,0.1c-8-2-15.2-4.9-23-7.4c-15.2-4.8-21.4-27.5-27.7-39
	c-6.4-11.6-0.4-33,4.9-44c2.6-5.4,7.1-17.8,14.3-19.1c3.8-0.7,6.7-4.4,10.4-5c5.3-0.8,10.1-0.4,15.5-0.2c34.6,1.2,68,20.9,79.4,52
	c5.7,15.4,7.9,34.5-6.7,46.5C221.8,281,206.8,284.6,192.6,287.9C191.1,287.6,193,287.8,192.6,287.9z"/>
<path class="st0" d="M209.6,89.4c4.8,0.7,3.6,22.2,5,26.5c2.2,6.9,2.6,15.2,6.2,21.7c4.3,7.7,16,8.2,22.7,12.8
	c1.1,0.8,19.5,9.6,13.7,10.2c-10.3,1-10.3,12.9-17.9,16.5c-1.4,3-10.7,19.2-13.5,18.6c-11.9-13-33-21.7-51-23.9
	c-10.7-1.3-21.4-2.5-32.1-3.9c-7.1-0.9-4.4-1.2-7.1-6.3c-1.5-3-1.8-8.1-2.6-11.4c-1-4,0.4-8.9-1.6-12.8c-0.9-1.8-2.5-8.3-2.3-10.1
	c0.3-2.7-1.4-5.4-1.6-8.1c2.3-3.7,7.5,1.9,10.1,2.2c3.1,0.4,6.4,4.9,9.5,5.8c3.4,1,7.6,3.8,10.9,4.1c2.2,0.2,4,1.9,6,2.6
	c3.4,1.2,3.5,0.1,6.7,0.2c3.7-2.6,5.1-6.6,8.1-9.8c3.8-4,8.2-13.9,13.1-16.3C198.3,104.8,202.1,90.8,209.6,89.4
	C210.4,89.5,208.6,89.5,209.6,89.4z"/>
<path class="st3" d="M252.6,250.6c2.7,0,6.1,8.8,7.5,10.8c3.2,4.5,2.7,7.1,0.3,11.8c-3.8,7.6-16.1,14.4-23.9,18
	c-8.3,3.8-17.1,6.3-25.5,9.6c-5.1,2-10.8,3.4-16.3,3.5c-2.8,0-5.7,0.1-8.5,0.4c-2.9,0.4-5-2-7.7-2.1c-5.4-0.2-6.2-3.7-3.4-7.6
	c4.4-6.1,11.3-1.2,16.9-3.6c5-2.2,11.6,0,16.4-3.5c2.8-2.1,8.7-3.2,12.1-4.4c7.1-2.5,14.2-7.3,18.9-13c2.2-2.7,5-5.3,6.6-8.3
	C247.8,258.6,249.6,253,252.6,250.6C252.9,250.6,251.6,251.4,252.6,250.6z"/>
<path class="st6" d="M274.6,482c-3.1,4.4-18.4,4.3-23.7,3.9c-2.9-0.2-30.9,2-28.5-3.3c4.1-9,16.2-11.4,25.5-11.4
	C252.5,471.2,277.2,474.4,274.6,482C274.3,482.4,275,480.8,274.6,482z"/>
<path class="st6" d="M153.5,480.6c-3.2-7.1,12.2-11.8,17.4-10.6c3.9,1,9-0.8,13.1,0.1c2.1,0.5,4.4-0.4,6.4,0.5
	c2.6,1.1,1.7,3,3.3,4.7c9.9,10.3-3.7,10-12.8,8.6C173.7,482.8,159.4,485.9,153.5,480.6C153.4,480.3,154.2,481.2,153.5,480.6z"/>
<path class="st3" d="M109.9,107.9c-0.4-6.5,13.9-17.2,16.5-8.1C129.9,112.2,118.9,114.6,109.9,107.9
	C109.9,107.4,110.6,108.4,109.9,107.9z"/>
<path class="st3" d="M222.6,79.5c-3.5,2.3-3.6,5.3-8.3,6.2c-3.7,0.7-6.5-4.8-5.3-7.8C211.8,70.7,228.5,69.3,222.6,79.5
	C221.8,79.9,222.8,79.2,222.6,79.5z"/>
<path d="M262.9,297c6.5,5.4,5.8,7.4,4.3,14.4c-0.9,4.3-5.2,10.8-7.5,14.7c-2.3,4.1-4.8,9.5-5.8,14c-1.1,5.4,0.1,9.9-5,13.5
	c-8.5,5.9-20.2,9.1-25.1,18.8c-0.5,0.9,0.9,15.1-2.6,10.6c-5.8-7.3-4.9,3.6-6.4,5.2c-2.8,3-7.3-5.5-8.7-7.6
	c-5.2-7.3,5.8-8.6,10.1-11.3c3.9-2.4,6.4-7.5,10.5-9.4c2.8-1.3,8.6-6.6,10.5-9.1c4.3-5.3,6.1-6.1,7.1-13.3
	c0.8-6.2,1.8-13.2,4.1-19.2C251.6,310.7,248.5,292.2,262.9,297C263.5,297.5,262.4,296.9,262.9,297z"/>
<path d="M161.3,185.8c2.1-2.6,1.5,4.8,2.4,5.1c3.1-0.7,6.9-3.8,10.2-3.3c3.5,0.6,3.5,7.9,7.3,4.9c2.9-2.3,8-2.4,7.8,2.5
	c-0.2,4.2,3.6,9.7,3.6,14.4c4.3,6.1,14.7-7.5,17.6-3.8c-1.1,2.1-4.6,2.7-6.2,4.5c-2.4,2.7-3.8,7.6-6.7,9.7
	c-4.1,2.9-8.7-14.6-8.5-17.1c0.1-1.8-2-7.1-4.8-5.8c-6.7,2.9-6.4-3.7-9.8-4.6c-3.4-0.9-7,0.1-10,1.6
	C159.3,196.3,160.6,187.8,161.3,185.8C161.5,185.6,161,186.6,161.3,185.8z"/>
<path d="M167.2,216.3c-0.6-7.7,16.2-4.8,13.2,2.9C178.1,225.3,167,222.5,167.2,216.3C167.2,215.5,167.2,217.4,167.2,216.3z"/>
<path d="M184.5,252.6c1.9,2.4-3.3,10-4.9,11.9c-3.9,4.7-8.9,3.8-13.4-0.4c-3-2.8,7.5-2.7,8.5-3.1
	C177.8,259.5,181.5,252.5,184.5,252.6C185,253.2,183.1,252.5,184.5,252.6z"/>
<path d="M137.1,211.1c3.4,0.1,4.3-0.7,7.4,1.6c4.1,3.1,1.1,7.6-3.3,8C133.4,221.3,131.6,215.4,137.1,211.1
	C137.5,211.1,136.8,211.4,137.1,211.1z"/>
<path d="M711.3,335.5c-0.8-3.1,2-7.4,3.9-9.8c3.2-4,2.8-11.9,1.9-16.4c-0.7-3.9-1.8-9.4-1-13.4c4.3-3.5,5.2,10.3,5.3,11.3
	c0.7,9.2,6.4,20,4.9,29.2c-1.2,7.5,0.8,21.5,5.2,28c3.1,4.6,15-11.6,17.9-14.5c5.5-5.5,11.3-12.3,15.9-18.6
	c3.3-4.6,14.6-13.6,14.6-19.3c0-3.3,4-11-2-12c-5.1-0.9-10.1-2.5-15.3-3.5c-7.1-1.3-14.1-5.6-19.8-9.7c-7.3-5.3-9.1-15.5-14.9-21.8
	c-12.2-13.4-9.1-36.6-8.5-52.3c0.8-20.4,22-32.7,21.8-53c-0.1-8.8-2-17.6-3.7-26.3c-1.6-8.4-1.5-19.4-12.6-20.4
	c-2.9-0.3-7.1-4.4-8.3-6.7c-5.6-2,3.6-10,5.3-11.6c7.1-6.9,15.8-2.3,22.3,3.1c0.1,1.3-2.7,8.1-2,8.1c2.2,0,3.9,7.5,5.6,8.9
	c9.7,8.2,19.9,15,33.9,11c7.4-2.1,10.5-7.1,14.7-12.7c5.9-7.9,12.6-15.3,19.4-22.5c7.3-7.9,5.7-8.9,3.5-18.9
	c-2.2-10.3,19-5.5,22.7-5c6.7,5.4-4.5,19.6-6.9,23.9c-2.5,4.5-1.2,10.2-1.6,14.9c-0.4,5,3.5,11.1,3,15.4
	c-0.5,4.2,9.9,16.2,13.4,18.1c4.2,2.3,7.5,6.3,11.6,8.5c4.5,2.3,10.8,2.9,14.7,6.3c1.7,1.5,3.7,1.6,5.5,3.3c2.4,2.1-0.8,3-0.6,5.4
	c0.2,2.1-6.1,4.7-7.4,5.5c-7.4,5-13.9,15.1-17,23.1c-3,7.7-4,14.4-1.5,22.8c2.4,8,9.2,16.3,10.4,24.2c1.1,7.1,7.7,13.2,10.7,19.5
	c4.1,8.6,11.3,15.7,15.4,24.4c7.4,15.6,13.2,32.4,16.7,49.2c3.9,18.7,11.4,37.2,12.9,56.3c0.7,9.2,3.1,18.8,4.9,27.9
	c2.1,10.4,2,20.8,3.6,31.2c0.8,5.2,8.4,23.9,0.7,26.7c-5.2,1.9-10.2-2.4-15-2.5c-4.7-0.2-11.3-1.4-15.8-3
	c-11.8-4.2-13.2,6.7-13.7,15c-0.6,9.4,20.2,15.1,8.8,23.5c-8.1,5.9-21.4,2.9-31,3.3c-7.5,0.3-25.6,3.3-31-3.6
	c-3.1-3.9,4.9-14.8,9.8-16c9-2.2,18.1-7.8,28-4.3c8.6,3,9.6-20.8-0.3-22.4c-10.7-1.7-22-1.1-32.7-3c-9.9-1.7-17.2-5.1-20.9,5.9
	c-1.4,4.1-2,8.5-2.5,12.7c-0.7,6,2.1,10.6,2.2,16.2c0,2.9,3.6,5.1,2.8,8.3c-1.4,5.2-6.1,6-11.4,5.5c-10.1-1-20.2-1.4-30.3-2.1
	c-5-0.3-22.6-1.3-20.3-8.6c3.7-12.1,16.8-14.4,28.1-14.4c8.9,0,16.2,2.7,19.6-6.2c1.9-4.9-1.5-10.4-2.3-15
	c-1.4-7.4-11.2-6.2-16.9-6.5c-9.4-0.5-18.1,3.4-27.7,2c-3.9-0.6-6-6.5-8.3-8.8c-3.6-3.7-8-6.3-8.8-11.4c-1.2-8.3,4.2-20,6.7-27.8
	c3.3-10.2,4.5-21.2,8.1-31.2c2.2-6.1,8-24.1-4.3-16.1c-6.1,4-15.4,8.4-20.2,13.9c-9.6,11-8.6-13.1-9.6-17.2
	c-1.1-4.6-0.9-9.5-2.3-14.1C718.2,341.7,713.7,338.1,711.3,335.5C711.2,335,712,336.3,711.3,335.5z"/>
<path class="st1" d="M684.6,310.9c14.7,11.6,15.3,38.3,18.9,54.7c4.4,19.8,8.4,39.8,13.3,59.4c2.4,9.8,1.7,20.2,2.5,30.2
	c0.6,7.4,4.5,23.8-1.2,29.6c-6,6.1-23.6-1.9-30.6-2.1c-11-0.3-24.9-1.7-35.5-4.2c-23.4-5.4-46.1-7.4-70-5.1
	c-8.2,0.8-25.2,6.7-29.1-3.5c-1.7-4.5-2.6-10.2-2.3-15.1c0.3-4.9-1-10.6,0.3-15.3c2-7.3,1.3-20.1,5.9-26.3c2-2.7,2.1-10,3-13.3
	c1-3.7,3.5-9.2,3.6-12.8c0.2-8.4,6.1-18.1,8.2-26.4c1.4-5.9,4.6-19.8,11-22c7-2.4,18.9,1,26.5,1c9.9-0.1,19.7-4,28.3-8.2
	c7.4-3.6,15.7-5.1,22.7-9.6c3.3-2.1,7-3.9,10.4-6c1.8-1.1,3.6-2.1,5.5-3.2C679.5,310.8,680.7,311.4,684.6,310.9
	C686,312,683.9,311,684.6,310.9z"/>
<path class="st4" d="M599.9,295.6c-9-1.8-18.7,2.5-27.9,0.2c-8.4-2.1-16-5.2-24.3-7.8c-16-5.1-22.5-29-29.2-41.2
	c-6.7-12.2-0.5-34.8,5.2-46.4c2.8-5.7,7.5-18.8,15-20.2c4-0.7,7.1-4.7,11-5.2c5.6-0.8,10.7-0.4,16.3-0.2c36.5,1.3,71.7,22,83.7,54.8
	c6,16.3,8.4,36.4-7.1,49C630.8,288.4,614.9,292.1,599.9,295.6C598.4,295.3,600.5,295.5,599.9,295.6z"/>
<path class="st0" d="M616.7,74.3c5,0.8,3.8,23.4,5.3,28c2.3,7.2,2.7,16.1,6.5,22.9c4.6,8.1,16.9,8.6,24,13.5
	c1.2,0.8,20.6,10.1,14.4,10.7c-10.8,1-10.9,13.6-18.9,17.4c-1.4,3.2-11.3,20.3-14.3,19.6c-12.6-13.8-34.8-22.9-53.8-25.2
	c-11.3-1.3-22.6-2.7-33.8-4.1c-7.5-1-4.7-1.2-7.5-6.7c-1.6-3.1-1.8-8.6-2.7-12c-1.1-4.2,0.4-9.4-1.7-13.5c-1-1.8-2.7-8.7-2.5-10.7
	c0.3-2.8-1.5-5.7-1.7-8.5c2.4-3.9,7.9,2,10.6,2.4c3.3,0.4,6.7,5.1,10,6.1c3.6,1.1,8,4,11.5,4.3c2.4,0.2,4.2,2,6.3,2.8
	c3.5,1.2,3.7,0.1,7,0.2c3.9-2.7,5.4-7,8.5-10.3c4-4.2,8.7-14.6,13.8-17.1C604.7,90.6,608.8,75.9,616.7,74.3
	C617.5,74.4,615.6,74.5,616.7,74.3z"/>
<path class="st3" d="M665.5,266.6c2.8,0,6.4,9.3,7.9,11.4c3.4,4.7,2.8,7.5,0.3,12.4c-4,8-17,15.2-25.3,19c-8.7,4-18,6.7-27,10.1
	c-5.4,2.1-11.4,3.6-17.1,3.7c-3,0-6,0.1-9,0.5c-3.1,0.4-5.3-2.2-8.2-2.2c-5.7-0.2-6.5-3.9-3.5-8.1c4.6-6.5,11.9-1.3,17.8-3.8
	c5.3-2.3,12.2,0,17.3-3.7c3-2.2,9.2-3.4,12.8-4.7c7.5-2.7,15-7.8,20-13.7c2.4-2.8,5.3-5.6,7-8.8
	C660.4,275.1,662.3,269.2,665.5,266.6C665.7,266.6,664.4,267.5,665.5,266.6z"/>
<path class="st6" d="M509.2,426.7c-3.2,4.6-19.4,4.5-25,4.1c-3.1-0.2-32.6,2.2-30.1-3.5c4.3-9.5,17-12.1,26.9-12.1
	C485.9,415.3,511.9,418.6,509.2,426.7C508.9,427.1,509.6,425.4,509.2,426.7z"/>
<path class="st6" d="M459.7,454.9c-3.4-7.5,12.9-12.5,18.3-11.1c4.2,1,9.4-0.9,13.9,0.1c2.2,0.5,4.7-0.4,6.8,0.5
	c2.8,1.2,1.8,3.2,3.5,5c10.4,10.9-3.9,10.5-13.5,9.1C481,457.3,465.9,460.5,459.7,454.9C459.6,454.7,460.4,455.6,459.7,454.9z"/>
<path class="st3" d="M532.1,92.4c-0.4-6.9,14.7-18.2,17.4-8.6C553.2,97,541.6,99.6,532.1,92.4C532.1,91.9,532.8,92.9,532.1,92.4z"/>
<path class="st3" d="M582.6,87.6c-3.7,2.4-3.8,5.6-8.8,6.5c-3.9,0.7-6.8-5.1-5.6-8.2C571.2,78.3,588.8,76.8,582.6,87.6
	C581.8,88.1,582.8,87.3,582.6,87.6z"/>
<path d="M497.6,264.4c6.8,5.7,6.1,7.8,4.6,15.2c-1,4.5-5.4,11.4-7.9,15.5c-2.5,4.3-5.1,10-6.1,14.8c-1.2,5.7,0.1,10.5-5.3,14.3
	c-8.9,6.2-21.3,9.6-26.5,19.8c-0.5,1,0.9,15.9-2.8,11.2c-6.1-7.7-5.2,3.8-6.7,5.5c-3,3.2-7.7-5.8-9.2-8c-5.4-7.8,6.1-9.1,10.7-11.9
	c4.1-2.6,6.7-7.9,11-9.9c3-1.4,9-7,11.1-9.6c4.5-5.6,6.4-6.4,7.5-14.1c0.9-6.6,1.9-13.9,4.3-20.2
	C485.6,278.8,482.4,259.4,497.6,264.4C498.2,264.9,497.1,264.2,497.6,264.4z"/>
<path d="M454.6,137.7c2.2-2.7,1.6,5.1,2.6,5.4c3.3-0.7,7.3-4.1,10.7-3.5c3.7,0.6,3.7,8.3,7.7,5.1c3.1-2.4,8.5-2.6,8.2,2.7
	c-0.2,4.4,3.8,10.2,3.8,15.2c4.5,6.5,15.5-7.9,18.5-4c-1.1,2.2-4.9,2.9-6.5,4.8c-2.5,2.9-4,8-7.1,10.2c-4.3,3.1-9.1-15.4-9-18
	c0.1-1.9-2.1-7.4-5.1-6.2c-7.1,3.1-6.7-3.9-10.3-4.8c-3.6-1-7.4,0.1-10.5,1.6C452.5,148.7,453.9,139.8,454.6,137.7
	C454.8,137.4,454.3,138.5,454.6,137.7z"/>
<path d="M478.1,192.6c-0.6-8.2,17.1-5,13.9,3.1C489.6,202,477.8,199.1,478.1,192.6C478,191.7,478,193.7,478.1,192.6z"/>
<path d="M487.1,206.7c2,2.5-3.5,10.6-5.2,12.6c-4.2,5-9.4,4-14.1-0.4c-3.2-3,7.9-2.8,8.9-3.3C480,213.9,483.9,206.5,487.1,206.7
	C487.6,207.3,485.6,206.6,487.1,206.7z"/>
<path d="M453,186.1c3.6,0.1,4.5-0.8,7.8,1.7c4.3,3.3,1.2,8.1-3.5,8.4C449.1,196.8,447.3,190.6,453,186.1
	C453.5,186.1,452.7,186.4,453,186.1z"/>
<path d="M256,805.2c1.5,2.2,3.2,4.3,4.3,6.7c3.3,6.9,5.8,14.2,7.3,21.6c1.7,8.2,5,16.4,5.7,24.8c0.3,4,1.4,8.3,2.2,12.3
	c0.9,4.6,0.9,9.2,1.6,13.7c0.3,2.3,3.7,10.5,0.3,11.8c-2.3,0.9-4.5-1-6.6-1.1c-2.1-0.1-5-0.6-6.9-1.3c-5.2-1.9-5.8,2.9-6,6.6
	c-0.2,4.2,8.9,6.6,3.9,10.4c-3.5,2.6-9.4,1.3-13.6,1.4c-3.3,0.1-11.3,1.5-13.7-1.6c-1.4-1.7,2.2-6.5,4.3-7.1c3.9-1,7.9-3.4,12.3-1.9
	c3.8,1.3,4.2-9.1-0.1-9.8c-4.7-0.7-9.7-0.5-14.4-1.3c-4.3-0.8-7.6-2.2-9.2,2.6c-0.6,1.8-0.9,3.7-1.1,5.6c-0.3,2.6,0.9,4.7,1,7.1
	c0,1.3,1.6,2.3,1.2,3.7c-0.6,2.3-2.7,2.6-5,2.4c-4.4-0.4-8.9-0.6-13.3-0.9c-2.2-0.1-9.9-0.6-8.9-3.8c1.6-5.3,7.4-6.3,12.3-6.3
	c3.9,0,7.1,1.2,8.6-2.7c0.8-2.2-0.6-4.6-1-6.6c-0.6-3.2-4.9-2.7-7.4-2.9c-4.1-0.2-8,1.5-12.2,0.9c-1.7-0.3-2.6-2.8-3.6-3.9
	c-1.6-1.6-3.5-2.8-3.9-5c-0.5-3.6,1.9-8.8,3-12.2c1.4-4.5,2-9.3,3.6-13.7c1-2.7,3.5-10.6-1.9-7.1c-2.7,1.8-6.8,3.7-8.9,6.1
	c-4.2,4.8-3.8-5.8-4.2-7.6c-0.5-2-0.4-4.2-1-6.2c-0.4-1.5-2.4-3.1-3.5-4.2c-0.1-0.2,0.3,0.4,0,0c-0.3-1.4,0.9-3.3,1.7-4.3
	c1.4-1.8,1.2-5.2,0.8-7.2c-0.3-1.7-0.8-4.2-0.5-5.9c1.9-1.5,2.3,4.5,2.3,5c0.3,4,2.8,8.8,2.2,12.9c-0.5,3.3,0.3,9.4,2.3,12.3
	c1.4,2,6.6-5.1,7.9-6.4c2.4-2.4,5-5.4,7-8.2c1.2-1.7,5-4.9,6.1-7.3l6.1,1.4c1.3,0,2.3,1.2,3.6,1c1.3-0.2,2.6-0.2,3.9-0.2
	c2.5,0,5.2-0.7,7.5-1.6c3.9-1.5,8-2.7,11.9-4.5c3.6-1.7,9.3-4.8,11.1-8.4c1.1-2.2,1.4-3.4-0.1-5.5c-0.2-0.3-0.6-1.1-1-1.9"/>
<path d="M247.9,797.8C247.4,798.2,248,797.8,247.9,797.8c-1.4,1.1-2.2,3.7-3.1,5.3c-0.7,1.4-2,2.6-3.1,3.9c-2.2,2.6-5.5,4.9-8.8,6
	c-1.6,0.5-4.1,1.8-5.6,2c-5.1,0.8-17,2.7-20.6-1c-1.2-1.2-4.4-1.1-6.7-1.5c-3.1-0.6-6.2-2.5-8.7-4.3c-3.2-2.3-4-6.8-6.5-9.6
	c-5.4-5.9-4-16.1-3.7-23c0.4-9,9.7-14.4,9.6-23.3c0-3.9-0.9-7.8-1.6-11.6c-0.7-3.7-0.7-8.5-5.5-9c-1.3-0.1-3.1-1.9-3.6-2.9
	c-2.5-0.9,1.6-4.4,2.3-5.1c3.1-3,6.9-1,9.8,1.4c0.1,0.6-1.2,3.6-0.9,3.5c1,0,1.7,3.3,2.4,3.9c4.3,3.6,8.7,6.6,14.9,4.8
	c3.2-0.9,4.6-3.1,6.4-5.6c2.6-3.5,5.6-6.7,8.5-9.9c3.2-3.5,2.5-3.9,1.6-8.3c-1-4.5,8.3-2.4,10-2.2c3,2.4-2,8.6-3.1,10.5
	c-1.1,2-0.5,4.5-0.7,6.6c-0.2,2.2,1.5,4.9,1.3,6.8c-0.2,1.8,4.4,7.1,5.9,8c1.8,1,3.3,2.8,5.1,3.7c2,1,4.8,1.3,6.5,2.8
	c0.8,0.7,1.6,0.7,2.4,1.4c1.1,0.9-0.3,1.3-0.2,2.4c0.1,0.9-2.7,2-3.2,2.4c-3.3,2.2-6.1,6.6-7.5,10.1c-1.3,3.4-1.8,6.3-0.7,10
	c1,3.5,4,7.2,4.6,10.6L247.9,797.8z"/>
<path d="M70.1,834.6c-0.3-1.4,0.9-3.4,1.8-4.5c1.5-1.8,1.3-5.4,0.9-7.5c-0.3-1.8-0.8-4.3-0.5-6.1c2-1.6,2.3,4.7,2.4,5.1
	c0.3,4.2,2.9,9.1,2.2,13.3c-0.5,3.4,0.3,9.7,2.4,12.7c1.4,2.1,6.8-5.3,8.1-6.6c2.5-2.5,5.1-5.6,7.2-8.5c1.5-2.1,6.6-6.2,6.6-8.8
	c0-1.5,1.8-5-0.9-5.5c-2.3-0.4-4.6-1.2-6.9-1.6c-3.2-0.6-6.4-2.6-9-4.4c-3.3-2.4-4.1-7-6.8-9.9c-5.5-6.1-4.1-16.6-3.9-23.7
	c0.4-9.2,10-14.9,9.9-24.1c0-4-0.9-8-1.7-11.9c-0.7-3.8-0.7-8.8-5.7-9.3c-1.3-0.1-3.2-2-3.8-3c-2.5-0.9,1.6-4.5,2.4-5.3
	c3.2-3.1,7.2-1,10.1,1.4c0.1,0.6-1.2,3.7-0.9,3.7c1,0,1.8,3.4,2.5,4c4.4,3.7,9,6.8,15.4,5c3.3-1,4.8-3.2,6.7-5.7
	c2.7-3.6,5.7-6.9,8.8-10.2c3.3-3.6,2.6-4,1.6-8.6c-1-4.7,8.6-2.5,10.3-2.3c3.1,2.4-2,8.9-3.2,10.9c-1.2,2.1-0.6,4.6-0.7,6.8
	c-0.2,2.3,1.6,5,1.4,7c-0.2,1.9,4.5,7.3,6.1,8.2c1.9,1,3.4,2.9,5.3,3.9c2.1,1.1,4.9,1.3,6.7,2.9c0.8,0.7,1.7,0.7,2.5,1.5
	c1.1,1-0.3,1.4-0.3,2.5c0.1,0.9-2.8,2.1-3.3,2.5c-3.4,2.3-6.3,6.8-7.7,10.5c-1.4,3.5-1.8,6.5-0.7,10.4c1.1,3.6,4.2,7.4,4.7,11
	c0.5,3.2,3.5,6,4.9,8.8c1.9,3.9,5.1,7.1,7,11.1c3.4,7.1,6,14.7,7.6,22.3c1.8,8.5,5.2,16.9,5.9,25.5c0.3,4.2,1.4,8.6,2.2,12.6
	c0.9,4.7,0.9,9.5,1.6,14.2c0.4,2.4,3.8,10.8,0.3,12.1c-2.4,0.9-4.6-1.1-6.8-1.2c-2.1-0.1-5.1-0.6-7.2-1.4c-5.3-1.9-6,3-6.2,6.8
	c-0.3,4.3,9.2,6.9,4,10.7c-3.7,2.7-9.7,1.3-14.1,1.5c-3.4,0.2-11.6,1.5-14.1-1.6c-1.4-1.8,2.2-6.7,4.4-7.3c4.1-1,8.2-3.5,12.7-2
	c3.9,1.3,4.3-9.4-0.1-10.2c-4.9-0.8-10-0.5-14.8-1.4c-4.5-0.8-7.8-2.3-9.5,2.7c-0.6,1.9-0.9,3.8-1.2,5.8c-0.3,2.7,1,4.8,1,7.4
	c0,1.3,1.6,2.3,1.3,3.8c-0.6,2.4-2.8,2.7-5.2,2.5c-4.6-0.5-9.2-0.7-13.7-1c-2.3-0.2-10.3-0.6-9.2-3.9c1.7-5.5,7.6-6.6,12.7-6.6
	c4,0,7.3,1.2,8.9-2.8c0.8-2.2-0.7-4.7-1.1-6.8c-0.6-3.3-5.1-2.8-7.7-3c-4.2-0.2-8.2,1.5-12.6,0.9c-1.8-0.3-2.7-2.9-3.8-4
	c-1.6-1.7-3.6-2.9-4-5.2c-0.5-3.8,1.9-9.1,3.1-12.6c1.5-4.6,2-9.6,3.7-14.1c1-2.8,3.6-11-1.9-7.3c-2.8,1.8-7,3.8-9.2,6.3
	c-4.3,5-3.9-6-4.4-7.8c-0.5-2.1-0.4-4.3-1-6.4C73.3,837.4,71.2,835.8,70.1,834.6C70.1,834.4,70.5,835,70.1,834.6z"/>
<path class="st5" d="M138,803.3c0.9,0,2.1,3.1,2.6,3.8c1.1,1.6,0.9,2.5,0.1,4.1c-1.3,2.7-5.7,5.1-8.4,6.3c-2.9,1.3-6,2.2-9,3.4
	c-1.8,0.7-3.8,1.2-5.7,1.2c-1,0-2,0-3,0.2c-1,0.1-1.8-0.7-2.7-0.8c-1.9-0.1-2.2-1.3-1.2-2.7c1.5-2.2,4-0.4,5.9-1.3
	c1.8-0.8,4.1,0,5.8-1.2c1-0.7,3.1-1.1,4.3-1.6c2.5-0.9,5-2.6,6.7-4.6c0.8-0.9,1.8-1.9,2.3-2.9C136.3,806.1,136.9,804.2,138,803.3
	C138.1,803.3,137.6,803.6,138,803.3z"/>
<path d="M365.6,809.6c7.1,2.8,5.8,14.2,7.3,21.6c1.7,8.2,5,16.4,5.7,24.8c0.3,4,1.4,8.3,2.2,12.3c0.9,4.6,0.9,9.2,1.6,13.7
	c0.3,2.3,3.7,10.5,0.3,11.8c-2.3,0.9-4.5-1-6.6-1.1c-2.1-0.1-5-0.6-6.9-1.3c-5.2-1.9-5.8,2.9-6,6.6c-0.2,4.2,8.9,6.6,3.9,10.4
	c-3.5,2.6-9.4,1.3-13.6,1.4c-3.3,0.1-11.3,1.4-13.7-1.6c-1.4-1.7,2.2-6.5,4.3-7.1c3.9-1,7.9-3.4,12.3-1.9c3.8,1.3,4.2-9.2-0.1-9.8
	c-4.7-0.7-9.7-0.5-14.4-1.3c-4.3-0.8-7.6-2.2-9.2,2.6c-0.6,1.8-0.9,3.7-1.1,5.6c-0.3,2.6,0.9,4.7,1,7.1c0,1.3,1.6,2.3,1.2,3.7
	c-0.6,2.3-2.7,2.6-5,2.4c-4.4-0.4-8.9-0.6-13.3-0.9c-2.2-0.1-9.9-0.6-8.9-3.8c1.6-5.3,7.4-6.3,12.3-6.3c3.9,0,7.1,1.2,8.6-2.7
	c0.8-2.2-0.6-4.6-1-6.6c-0.6-3.2-4.9-2.7-7.4-2.9c-4.1-0.2-8,1.5-12.2,0.9c-1.7-0.3-2.6-2.8-3.6-3.9c-1.6-1.6-3.5-2.8-3.9-5
	c-0.5-3.6,1.9-8.8,3-12.2c1.4-4.5,2-9.3,3.6-13.7c1-2.7,3.5-10.6-1.9-7.1c-2.7,1.8-6.8,3.7-8.9,6.1c-4.2,4.8-3.8-5.8-4.2-7.6
	c-0.5-2-0.4-4.2-1-6.2c-0.4-1.5-2.4-3.1-3.5-4.2c-0.1-0.2,0.3,0.4,0,0c-0.3-1.4,0.9-3.3,1.7-4.3c1.4-1.8,1.2-5.2,0.8-7.2
	c-0.3-1.7-0.8-4.2-0.5-5.9c1.9-1.5,2.3,4.5,2.3,5c0.3,4,2.8,8.8,2.2,12.9c-0.5,3.3,0.3,9.4,2.3,12.3c1.4,2,6.6-5.1,7.9-6.4
	c2.4-2.4,5-5.4,7-8.2c1.2-1.7,5-4.9,6.1-7.3l6.1,1.4c1.3,0,2.3,1.2,3.6,1c1.3-0.2,2.6-0.2,3.9-0.2c2.5,0,5.2-0.7,7.5-1.6
	c3.9-1.5,8-2.7,11.9-4.5c3.6-1.7,8.2-5.7,11.1-8.4C361.2,810.8,364.2,809.1,365.6,809.6z"/>
<path d="M346.9,772.1C346.4,772.4,347,772.1,346.9,772.1c-1.4,1.1-2.2,3.7-3.1,5.3c-0.7,1.4-2,2.6-3.1,3.9c-2.2,2.6-5.5,4.9-8.8,6
	c-1.6,0.5-4.1,1.8-5.6,2c-5.1,0.8-17,2.7-20.6-1c-1.2-1.2-4.4-1.1-6.7-1.5c-3.1-0.6-6.2-2.5-8.7-4.3c-3.2-2.3-4-6.8-6.5-9.6
	c-5.4-5.9-4-16.1-3.7-23c0.4-9,9.7-14.4,9.6-23.3c0-3.9-0.9-7.8-1.6-11.6c-0.7-3.7-0.7-8.5-5.5-9c-1.3-0.1-3.1-1.9-3.6-2.9
	c-2.5-0.9,1.6-4.4,2.3-5.1c3.1-3,6.9-1,9.8,1.4c0.1,0.6-1.2,3.6-0.9,3.5c1,0,1.7,3.3,2.4,3.9c4.3,3.6,8.7,6.6,14.9,4.8
	c3.2-0.9,4.6-3.1,6.4-5.6c2.6-3.5,5.6-6.7,8.5-9.9c3.2-3.5,2.5-3.9,1.6-8.3c-1-4.5,8.3-2.4,10-2.2c3,2.4-2,8.6-3.1,10.5
	c-1.1,2-0.5,4.5-0.7,6.6c-0.2,2.2,1.5,4.9,1.3,6.8c-0.2,1.8,4.4,7.1,5.9,8c1.8,1,3.3,2.8,5.1,3.7c2,1,4.8,1.3,6.5,2.8
	c0.8,0.7,1.6,0.7,2.4,1.4c1.1,0.9-0.3,1.3-0.2,2.4c0.1,0.9-2.7,2-3.2,2.4c-3.3,2.2-6.1,6.6-7.5,10.1c-1.3,3.4-1.8,6.3-0.7,10
	c1,3.5,4,7.2,4.6,10.6L346.9,772.1z"/>
<path d="M884.4,693c16.3,6.4,13.4,32.8,16.9,49.8c3.9,18.9,11.5,37.6,13.1,56.9c0.7,9.3,3.2,19.1,5,28.2c2.1,10.5,2.1,21.1,3.6,31.6
	c0.8,5.3,8.5,24.1,0.7,27c-5.2,2-10.3-2.4-15.1-2.6c-4.8-0.2-11.4-1.4-16-3c-11.9-4.3-13.4,6.8-13.9,15.2
	c-0.6,9.5,20.4,15.3,8.9,23.8c-8.2,6-21.6,2.9-31.4,3.3c-7.6,0.3-25.9,3.3-31.4-3.6c-3.1-4,5-15,9.9-16.2c9.1-2.3,18.3-7.8,28.3-4.4
	c8.7,3,9.7-21-0.3-22.6c-10.9-1.7-22.3-1.1-33-3c-10-1.8-17.4-5.1-21.2,6c-1.4,4.2-2,8.6-2.6,12.9c-0.7,6.1,2.1,10.8,2.2,16.4
	c0,3,3.7,5.2,2.8,8.4c-1.4,5.3-6.2,6-11.5,5.5c-10.2-1-20.4-1.5-30.6-2.2c-5-0.3-22.8-1.3-20.6-8.7c3.7-12.2,17-14.6,28.4-14.6
	c9,0,16.4,2.8,19.8-6.3c1.9-5-1.5-10.5-2.4-15.2c-1.4-7.5-11.3-6.3-17.1-6.6c-9.5-0.5-18.3,3.5-28,2c-4-0.6-6.1-6.5-8.4-8.9
	c-3.6-3.7-8.1-6.4-8.9-11.6c-1.2-8.4,4.3-20.2,6.8-28.2c3.3-10.3,4.6-21.4,8.2-31.5c2.2-6.1,8-24.4-4.3-16.2
	c-6.2,4.1-15.6,8.5-20.4,14c-9.7,11.1-8.7-13.3-9.8-17.4c-1.1-4.6-0.9-9.6-2.3-14.3c-1-3.4-5.5-7.1-8-9.7c-0.1-0.5,0.7,0.8,0,0
	c-0.8-3.2,2-7.5,4-10c3.2-4.1,2.8-12.1,1.9-16.6c-0.7-3.9-1.8-9.5-1-13.5c4.4-3.6,5.2,10.4,5.3,11.4c0.7,9.3,6.4,20.2,5,29.6
	c-1.2,7.6,0.8,21.7,5.3,28.3c3.2,4.7,15.2-11.7,18.1-14.7c5.6-5.6,11.4-12.4,16.1-18.9c2.8-4,11.6-11.2,14.1-16.8l14,3.2
	c2.9,0.1,5.2,2.7,8.3,2.3c3-0.4,6.1-0.4,9.1-0.5c5.9-0.1,11.9-1.6,17.3-3.7c9-3.5,18.4-6.2,27.3-10.2c8.4-3.8,18.8-13.1,25.5-19.2
	C874.5,695.6,881.3,691.8,884.4,693z"/>
<path d="M657.1,845C656,845.9,657.4,845,657.1,845c-3.2,2.6-5.1,8.6-7.1,12.2c-1.7,3.3-4.7,6.1-7.1,8.9c-5,6-12.6,11.2-20.2,13.9
	c-3.6,1.3-9.5,4.2-12.9,4.7c-11.7,1.8-39.1,6.3-47.3-2.3c-2.7-2.9-10.2-2.6-15.4-3.5c-7.2-1.3-14.2-5.7-20-9.8
	c-7.4-5.3-9.2-15.7-15-22.1c-12.3-13.5-9.2-37-8.6-52.9c0.8-20.6,22.3-33.1,22-53.6c-0.1-8.9-2-17.8-3.8-26.6
	c-1.7-8.5-1.5-19.6-12.7-20.6c-3-0.3-7.1-4.4-8.4-6.8c-5.7-2,3.6-10.1,5.3-11.7c7.1-6.9,15.9-2.3,22.5,3.1c0.1,1.4-2.7,8.2-2,8.2
	c2.2,0,3.9,7.6,5.6,9c9.8,8.3,20.1,15.2,34.3,11.1c7.5-2.2,10.6-7.2,14.8-12.8c6-8,12.8-15.5,19.6-22.8c7.4-8,5.8-9,3.6-19.1
	c-2.3-10.4,19.2-5.6,23-5c6.8,5.4-4.5,19.8-7,24.2c-2.6,4.6-1.3,10.3-1.7,15.1c-0.4,5.1,3.6,11.2,3,15.6c-0.5,4.2,10,16.4,13.5,18.3
	c4.2,2.3,7.5,6.4,11.8,8.6c4.6,2.4,10.9,3,14.9,6.4c1.7,1.5,3.7,1.6,5.6,3.3c2.4,2.2-0.8,3-0.6,5.5c0.2,2.1-6.2,4.7-7.4,5.5
	c-7.5,5.1-14.1,15.2-17.2,23.3c-3,7.8-4.1,14.6-1.5,23.1c2.4,8.1,9.3,16.4,10.5,24.5L657.1,845z"/>
<path class="st1" d="M877.5,708.7c14,11.1,14.6,36.7,18.1,52.4c4.2,19,8.1,38.2,12.7,57c2.3,9.4,1.6,19.3,2.3,28.9
	c0.5,7.1,4.4,22.8-1.2,28.4c-5.7,5.8-22.6-1.8-29.4-2c-10.5-0.3-23.9-1.7-34.1-4c-22.4-5.1-44.1-7.1-67.1-4.8
	c-7.8,0.8-24.2,6.5-27.9-3.4c-1.6-4.4-2.5-9.8-2.2-14.5c0.3-4.7-1-10.1,0.3-14.7c1.9-7,1.2-19.3,5.6-25.2c1.9-2.6,2-9.6,2.9-12.7
	c1-3.5,3.4-8.8,3.4-12.3c0.1-8.1,5.9-17.3,7.8-25.3c1.4-5.7,4.4-19,10.6-21.1c6.7-2.3,18.1,1,25.4,0.9c9.5-0.1,18.9-3.8,27.2-7.8
	c7.1-3.5,15-4.9,21.8-9.2c3.2-2,6.7-3.8,9.9-5.8c1.7-1.1,3.4-2.1,5.3-3C872.7,708.6,873.9,709.2,877.5,708.7
	C878.9,709.8,876.9,708.8,877.5,708.7z"/>
<path class="st6" d="M888.2,915.8c-3.2,4.6-19.4,4.5-25,4.1c-3.1-0.2-32.6,2.2-30.1-3.5c4.3-9.5,17-12,26.9-12.1
	C864.8,904.5,890.9,907.8,888.2,915.8C887.9,916.3,888.6,914.6,888.2,915.8z"/>
<path class="st6" d="M756.8,914.3c-3.4-7.5,12.9-12.5,18.3-11.1c4.2,1,9.4-0.9,13.9,0.1c2.2,0.5,4.7-0.4,6.8,0.5
	c2.8,1.2,1.8,3.2,3.5,5c10.4,10.9-3.9,10.5-13.5,9.1C778.1,916.7,763,920,756.8,914.3C756.7,914.1,757.5,915,756.8,914.3z"/>
<path d="M868.6,739c6.8,5.7,6.1,7.8,4.6,15.2c-1,4.5-5.4,11.4-7.9,15.5c-2.5,4.3-5.1,10-6.1,14.8c-1.2,5.7,0.1,10.5-5.3,14.3
	c-8.9,6.2-21.3,9.6-26.5,19.8c-0.5,1,0.9,15.9-2.8,11.2c-6.1-7.7-5.2,3.8-6.7,5.5c-3,3.2-7.7-5.8-9.2-8c-5.4-7.8,6.1-9.1,10.7-11.9
	c4.1-2.6,6.7-7.9,11-9.9c3-1.4,9-7,11.1-9.6c4.5-5.6,6.4-6.4,7.5-14.1c0.9-6.6,1.9-13.9,4.3-20.2C856.6,753.5,853.4,734,868.6,739
	C869.3,739.6,868.1,738.9,868.6,739z"/>
<path class="st4" d="M594.1,879.6c-9-1.8-18.7,2.5-27.9,0.2c-8.4-2.1-16-5.2-24.3-7.8c-16-5.1-22.5-29-29.2-41.2
	c-6.7-12.2-0.5-34.8,5.2-46.4c2.8-5.7,7.5-18.8,15-20.2c4-0.7,7.1-4.7,11-5.2c5.6-0.8,10.7-0.4,16.3-0.2c36.5,1.3,71.7,22,83.7,54.8
	c6,16.3,8.4,36.4-7.1,49C625,872.4,609.2,876.2,594.1,879.6C592.6,879.4,594.7,879.5,594.1,879.6z"/>
<path d="M570.8,807.8c-0.6-8.2,17.1-5,13.9,3.1C582.3,817.2,570.6,814.3,570.8,807.8C570.7,806.9,570.8,808.9,570.8,807.8z"/>
<path d="M605.2,844.7c2,2.5-3.5,10.6-5.2,12.6c-4.2,5-9.4,4-14.1-0.4c-3.2-3,7.9-2.8,8.9-3.3C598.1,851.9,602.1,844.5,605.2,844.7
	C605.7,845.3,603.8,844.6,605.2,844.7z"/>
<path d="M545.8,801.3c3.6,0.1,4.5-0.8,7.8,1.7c4.3,3.3,1.2,8.1-3.5,8.4C541.9,812.1,540,805.8,545.8,801.3
	C546.2,801.3,545.4,801.6,545.8,801.3z"/>
<path d="M576.4,779.7c2.2-2.7,1.6,5.1,2.6,5.4c3.3-0.7,7.3-4.1,10.7-3.5c3.7,0.6,3.7,8.3,7.7,5.1c3.1-2.4,8.5-2.6,8.2,2.7
	c-0.2,4.4,3.8,10.2,3.8,15.2c4.5,6.5,15.5-7.9,18.5-4c-1.1,2.2-4.9,2.9-6.5,4.8c-2.5,2.9-4,8-7.1,10.2c-4.3,3.1-9.1-15.4-9-18
	c0.1-1.9-2.1-7.4-5.1-6.2c-7.1,3.1-6.7-3.9-10.3-4.8c-3.6-1-7.4,0.1-10.5,1.6C574.3,790.7,575.7,781.8,576.4,779.7
	C576.6,779.4,576.1,780.5,576.4,779.7z"/>
<path class="st0" d="M607.4,676.1c4.5,0.7,3.4,21.1,4.7,25.2c2,6.5,2.4,14.5,5.9,20.6c4.1,7.3,15.2,7.8,21.6,12.1
	c1,0.7,18.5,9.1,13,9.6c-9.7,0.9-9.8,12.2-17,15.7c-1.3,2.9-10.2,18.2-12.8,17.7c-11.3-12.4-31.3-20.7-48.4-22.7
	c-10.2-1.2-20.3-2.4-30.5-3.7c-6.8-0.9-4.2-1.1-6.7-6c-1.4-2.8-1.7-7.7-2.5-10.8c-1-3.8,0.3-8.5-1.5-12.1c-0.9-1.7-2.4-7.9-2.2-9.6
	c0.3-2.5-1.4-5.2-1.6-7.7c2.2-3.5,7.1,1.8,9.6,2.1c3,0.4,6,4.6,9,5.5c3.2,1,7.2,3.6,10.3,3.9c2.1,0.2,3.8,1.8,5.7,2.5
	c3.2,1.1,3.4,0.1,6.3,0.2c3.5-2.5,4.9-6.3,7.7-9.3c3.6-3.8,7.8-13.2,12.4-15.4C596.6,690.8,600.2,677.5,607.4,676.1
	C608.1,676.2,606.4,676.3,607.4,676.1z"/>
<path class="st3" d="M504.6,686.6c-0.4-6.9,14.7-18.2,17.4-8.6C525.6,691.2,514,693.8,504.6,686.6
	C504.6,686.1,505.3,687.1,504.6,686.6z"/>
<path class="st3" d="M623.9,656.4c-3.7,2.4-3.8,5.6-8.8,6.5c-3.9,0.7-6.8-5.1-5.6-8.2C612.5,647.1,630.1,645.7,623.9,656.4
	C623.1,656.9,624.1,656.1,623.9,656.4z"/>
<path class="st3" d="M861.1,670.9c2.8,0,6.4,9.3,7.9,11.4c3.4,4.7,2.8,7.5,0.3,12.4c-4,8-17,15.2-25.3,19c-8.7,4-18,6.7-27,10.1
	c-5.4,2.1-11.4,3.6-17.1,3.7c-3,0-6,0.1-9,0.5c-3.1,0.4-5.3-2.2-8.2-2.2c-5.7-0.2-6.5-3.9-3.5-8.1c4.6-6.5,11.9-1.3,17.8-3.8
	c5.3-2.3,12.2,0,17.3-3.7c3-2.2,9.2-3.4,12.8-4.7c7.5-2.6,15-7.8,20-13.7c2.4-2.8,5.3-5.6,7-8.8C856,679.4,857.9,673.5,861.1,670.9
	C861.4,670.9,860,671.8,861.1,670.9z"/>
<rect x="34.8" y="36.2" class="st2" width="355.1" height="505.8"/>
</svg>
