<?xml version="1.0" encoding="utf-8"?>
<!DOCTYPE svg PUBLIC "-//W3C//DTD SVG 1.1//EN" "http://www.w3.org/Graphics/SVG/1.1/DTD/svg11.dtd">
<svg version="1.1" id="crown-legend-formula--before" xmlns="http://www.w3.org/2000/svg" xmlns:xlink="http://www.w3.org/1999/xlink" x="0px" y="0px"
	 width="400px" height="360px" viewBox="0 0 400 360" style="enable-background:new 0 0 400 360;" xml:space="preserve">
<style type="text/css">
<![CDATA[
	.st0{fill:#FAFAFA;}
]]>
</style>
<g>
	<path class="st0" d="M388.6,190.9c5.1-2.5,4.9-7.4,6.6-11.4c1.3-2.9-2.2-4.4-3.2-6.8c-0.7-1.7-2-3.3-2.8-5.1
		c-4.2-8.1-10.8-14.8-15-23c-0.6-1.1-1.8-2-2.9-2.8c-3.6-2.6-6-6.1-8.5-9.3c-1.6-2.1-3-4.3-5-6.1c-7.8-6.7-13.1-15.3-22-21.4
		c1.9-9.4,10.6-14.8,16.6-21.7c-1.1-0.6-1.9-1.4-2.8-1.4c-5,0.2-9.8-1.8-15-0.9c-2.6,0.5-5.1,0-7.3-2.4c0.5-4.7,5.7-8,7.3-12.8
		c-7.3-1.6-12.6,2.8-18.4,4.2c-2.7-1.3-3.7-2.9-3.8-5.3c-0.2-3.6,1.4-7,2.3-10.3c0.6-1.8,1.3-3.5-0.1-5.2c-0.5,0-0.7-0.2-0.9-0.1
		c-11.9,6.3-23.5,13.2-34.7,20.5c-3.2,2.1-6.5,4.3-7.7,8.2c5,3.2,11.7,4.4,15.8,8.8c4,4.3,9.4,7.8,11.8,12.9
		c-1.6,6.6-6.1,11.5-11.5,15.9c-2.8,2.4-5.5,4.8-8.2,7.2c-1,0.9-2.1,1.7-2.4,3.1c-1.6,8-5.2,15.6-4.5,23.9c0.1,1.4,0,3-0.4,4.3
		c-1.7,6.8-1.1,13.8-1.9,20.6c-0.6,4.7-0.3,9.4-1,13.9c-0.8,5.1-1.8,9.8,0.3,14.8c0.5,1-0.1,2-0.5,3c-1.6,5-1.7,9.9,2,14.9
		c6.2,1.4,12.7,3.3,19.2,4.1c6.5,0.7,13.3,0.2,19.9,0.2c6.4,0,12.9,0.6,19.4-0.2c1.2-3.1,3.2-6.1,1.8-9.6
		c-2.6-6.4-3.7-13.2-5.6-19.8c-1.8-6.2-3.3-12.6-8.9-17.3c0.3-3,1.7-4.4,4.2-4c3.7,2.5,5.1,5.5,6,8.5c2.1,7,5.1,13.7,6.5,20.9
		c1.4,7.2,6,14,5.7,21.7c0,0.7,1.1,1.4,1.2,2.3c0.5,2.4,1.3,4.9,1.9,7.2c0.6,2.1-0.7,4.1,0.7,6.2c1.3,2,1.7,4.6,3.2,7.9
		c6-4.2,12-7.1,16.5-12.1c-1-6.2,1.9-12.3,1.7-18.6c-0.2-4.3-2.5-8.1-1.7-12.4c0.5-2.4-0.4-4.6-1.7-6.6c-3.6-5.8-4.7-12.1-5.8-18.2
		c1.1-1.6,2.6-2.3,4.3-2.5c0.5,0.5,1.2,1,1.3,1.5c0.3,5.5,2.4,10.5,4.8,15.6c2,4.3,3.1,8.6,3,13.3c-0.1,3.3,1,6.5,2.1,9.7
		c0.3,0.9,0.4,2.7,3.1,2.6c2.8-2.6,6.7-5,8.8-7.9c2.8-7.9,0.5-15-2.8-21.4c-2.8-5.1-5.1-10.2-7.6-15.4c-1.3-2.6-2.8-5.3-2.1-8.4
		c0.1-0.4,0.4-0.7,0.6-1.1c0.9-0.5,1.8-0.4,3.2-0.2c1.1,6.1,5.9,11,7.2,17.2c0.3,1.2,0.7,2.7,2.9,3.3
		C385.8,188.2,387.1,189.8,388.6,190.9z"/>
	<path class="st0" d="M263.9,177.3c-1.6-7.9,2-14.5,1.1-21.7c-11.8,4.8-20.2,13.7-32.1,17c-0.8,3.4,3,4.4,3.2,6.7
		c8.9,1.4,16.1-1.5,23.1-4.8C260.6,175.3,261.8,176.1,263.9,177.3z"/>
	<path class="st0" d="M261.9,178c-6.7,2.7-12.8,5.2-18.9,7.8c1.1,3.3,3.8,5.5,6.1,8.8c4.1-3.3,9.1-4.3,13.3-7
		C261.2,184.6,262.3,181.6,261.9,178z"/>
	<path class="st0" d="M260.4,202.9c0-3.3,0-5.5,0-7.8c-3-0.5-4.9,0.3-5.9,2.9C256.4,199.5,258,200.9,260.4,202.9z"/>
</g>
<g>
	<path class="st0" d="M57.1,202.7c-2.8,0.9-4.2-0.1-5.5-1.4c-2-2.1-3.3-4.4-4.2-6.9c-3.5-8.7-11-14.3-20.2-19
		c-4.2,4.4-6.9,9.3-9.7,14.1c-3.5,6.1-7.9,11.8-10.3,18.2c-2.3,6.4,0.2,11,7.6,13.5c5,1.6,10.2,3.3,15.3,4.6
		c11.2,2.9,22.5,5.1,34.3,5.2c1.9,0,3.8,0,5.7,0.6c4.6,1.4,9.6-0.3,14.1,1.4c7.8-1,15.5-2.2,23.5-2.2c0.7,0,1.5,0,2.2-0.1
		c7-1.2,13.9-2.1,20.8-3.6c3.5-0.7,7.8-0.8,9.8-5.2c-3.9-6.1-4-13.5-6.2-20.5c-1.5-4.9-2.7-10-6.4-14.2c-5,1-6.9,4.4-9.4,7.2
		c-5.6,6.3-12.7,11-18.5,13.6c-7.2,1-5.6-5.1-10.4-4.3c-0.1-2-1.2-3.8,1.3-5.7c3.7,0.9,7.4-0.9,11.5-1.4c2.8-0.4,6.7-0.1,9.1-2.8
		c5-5.7,10.3-11.3,12-18.6c0.6-2.1,0.5-3.6-0.1-5.6c-1.6-5.2-4.1-10-5-15.3c-0.2-1.2-0.8-2.7-3.1-3.5c-2,0.2-4.1,1.2-6,2.4
		c-6.3,4.1-13.6,6.4-21.3,8c-4,0.8-8,1.1-12-0.2c-2.5-0.7-5.1-1.5-7.6-1.4c-4.3,0.1-8-1.2-11.6-2.6c-3.6-1.4-7.1-3.1-10.6-4.6
		c-4.4,3.4-8.4,6.8-10.4,11.6c3.4,5.6,6.6,11.3,10.4,16.8c3.1,4.5,7,8.6,13.9,9.6c1.6,0.3,3.3,0.8,3.6,1.5
		C64.3,197.7,57.6,198.9,57.1,202.7z"/>
	<path class="st0" d="M104,86.9c-3.1,0-6.8,0.7-9.8-0.2c-6.9-1.8-13.3,1.2-20,0.5c-3.2,2.1-7.1,0.4-10.6,1.4
		c-16.7,4.8-29.3,13.1-33.7,28.1c-0.9,3.1-2.1,6.3-1.5,9.3c1.7,9,8.4,15.7,17.4,20.3c8,4,16.3,7.8,26.1,9c9.3,1.2,17.9,1.4,26.5-2.2
		c3.4-1.4,6.7-2.9,9.8-4.7c8.3-5,16.3-10.1,16.1-19.9c3.4-7.6,0.9-15.1-1.9-22.2c-2.3-5.4-5.7-11-11.5-14.8
		C108.8,90,106.7,88.4,104,86.9z"/>
	<path class="st0" d="M38.7,41.5c-0.3,17.9-1.3,34.7,1.8,51.3c1.5,0.4,2-0.4,2.8-0.7c6.7-3.3,13.4-6.9,21.3-8.1
		c6.6-0.9,13.3-1.4,19.9-1.8c4.6-0.3,9.3,0.3,13.8-0.4c4.7-0.5,8.3,0.5,12,2.5c3.9,2.1,7.3,4.5,10.6,7.7c5.3-7.2,6.4-15.5,9.4-23.1
		c4.6-11.3,8.6-22.9,11.4-34.7c0.2-0.9,0.3-2-1.5-3.4c-11.7,8.5-21.7,18.5-33.1,27c-3.6-1.2-5.3-3.3-6.1-5.9
		c-0.6-2.4-2.1-4.4-3.3-6.6c-3.2-5.6-5.2-11.4-7.2-17.3c-0.7-2.2-0.6-5.1-4.1-6.6c-7.2,11.3-10.6,23.8-17.8,35.3
		C55.6,56.3,48.3,48.6,38.7,41.5z"/>
	<path class="st0" d="M156.3,18.8c-1.9-1.8-4.3-3.7-7.6-2.8c-3,0.9-2.9,3.3-2.1,5.2c1.3,1.6,3.2,2,4.8,2.8
		C153.8,22.9,156.8,22.2,156.3,18.8z"/>
	<path class="st0" d="M93.5,5.1c-4.4-0.1-7,0.7-10.5,3.2c-1,0.7-1.3,1.6,0,2.4c5.2-0.7,6.6-1.1,10.7-3.5C93.7,6.7,93.6,6.1,93.5,5.1
		z"/>
	<path class="st0" d="M35.8,31.3c0.8-1.4,2.6-2.3,2.2-4.3c-2.6-0.5-5.1-0.4-8.3-0.1c0.5,1.6-2.7,2.3-0.9,4.4
		C31.1,31.3,33.4,31.3,35.8,31.3z"/>
</g>
<path d="M32.6,38.4c-2.6-2.7-5.9-1.5-7.8-2.2c-2.5-1.4-2.8-3-3.8-4.2c0.8-3.3,4.5-5.4,4.7-9c4.5-0.5,8.8-1.2,13.2-1.2
	c3.7-0.1,6.1,2.1,6.8,5.1c0.2,1.2,0,2.4,0,3.7c-1.5,1.3-2.9,2.5-4.3,3.8c3.9,6.9,7.1,8.5,25,12.6c3.2-1.2,4.3-3.7,5.4-6.1
	c3.2-7,6.1-14,9.3-21.1c0.6-1.3,1.6-2.4,2.3-3.7c-3.1-1.3-5.7-3-7-5.7c0.8-4.4,3.4-7.9,8.1-10.3C96.9-0.4,97.8-0.1,101,6.6
	c-0.6,4.8-5.7,5.9-10,8c3.7,6,4.5,12.5,8.4,18.2c1.7,2.6,3.9,5,5.8,7.5c2.4,3.3,6.6,3.6,10.6,4.6c8.6-6.1,15.1-13.8,24.4-19.5
	c0-2.9,0.2-5.7,0-8.5c-0.3-3.7,2.6-6.7,6.8-5.7c3.1,0.7,6.1,0.6,9.2,1.1c5.8,0.9,8.2,7.4,4.5,11.3c-3.3,3.4-7.7,5.2-12.2,6.8
	c-3,2.7-2.9,6.2-3.4,9.1c-1.4,9.7-6.4,18.6-8.3,28.1c-1.2,5.8-3.5,11.4-4.1,17.4c-0.6,6-1.4,12.1-3.9,18c-0.3,0.7-0.5,1.7-0.1,2.4
	c2.3,4.1,0.7,8.7,2.3,12.8c1.1,3,1.3,6.3-0.4,9.4c-1.4,2.6,0.4,5.6-1.8,8.1c-1.1,1.3-1.2,3.1-2.4,4.3c-5.1,5.3-4.6,11.1-2.1,17
	c3.6,8.2,6.2,16.6,8.7,25c0.7,2.5,1.7,5,3,7.3c2.9,5.2,4.4,10.9,5.5,16.4c0.9,4.7,2.8,9.1,4.2,13.7c1.8,6.2-0.7,10.1-8.2,11.5
	c-8.1,1.4-16.2,2.6-24.7,4.1c-4.5,5.2-5.6,11.1-4.2,18c7.2-1.2,13.4-4.1,20.2-6.2c1.3-0.2,1.7,1.8,3.8,1c0.7,3.1-0.3,6.1,2.4,7.9
	c-2.4,3.9-6.3,3.6-9.6,4.2c-2.6,0.5-5.3,0.1-8,0.1c-4,0-8.2-0.5-11.5,1.3c-3.9-0.7-3.2-3.6-4.7-4.5c1.1-7.9-0.8-14.5-4.8-20.7
	c-10.1,1.4-19.8,1.5-29.9,0c-0.7,0.4-1.9,1-2,2c-0.5,4.4,0.3,14.3,4.1,19.4c-1.8,1.6-1,4-2,6.5c-8,2.2-16.7-0.8-24,2.4
	c-4.6-2.7-6.2-6.2-7.2-10c-0.5-1.5,0.6-2.7,2.6-3.5c3.5,1.2,7.6,1.1,11.4,2.5c3.6,1.4,7.4,2.4,11.1,3.4c2.2-1.6,0-2.7-0.5-3.8
	c-1.7-4.1-1.7-8.4-3.7-12.6c-2.5-5.3-7.1-7.9-12.6-8.6c-4.3-0.5-8.2-1.9-12.3-2.8c-6.1-1.4-12.3-2.8-18.3-4.8
	c-13-4.3-15.9-12.6-11-22c3.5-6.7,8.8-12.8,12-19.5c2.9-6.2,8.3-11,11.9-16.7c3.2-4.9,5.3-10,6.7-15.3c1.1-4-0.7-8.5-3.7-11.9
	c-3.8-4.3-5.6-9-6.7-14.1c-0.4-1.5-0.6-3.3-0.1-4.8c1.8-5.5,4-10.9,6.1-16.4c1.3-3.5,3-7,4.8-10.4c1.7-3.3,0.9-7.1,0.4-10.7
	c-0.3-1.5-0.3-3-0.2-4.5c0.3-4,0.8-8-0.6-11.9c-0.6-1.9-0.4-4-0.5-6C32.5,54.1,32.6,46.3,32.6,38.4z M57.1,202.7
	c-2.8,0.9-4.2-0.1-5.5-1.4c-2-2.1-3.3-4.4-4.2-6.9c-3.5-8.7-11-14.3-20.2-19c-4.2,4.4-6.9,9.3-9.7,14.1c-3.5,6.1-7.9,11.8-10.3,18.2
	c-2.3,6.4,0.2,11,7.6,13.5c5,1.6,10.2,3.3,15.3,4.6c11.2,2.9,22.5,5.1,34.3,5.2c1.9,0,3.8,0,5.7,0.6c4.6,1.4,9.6-0.3,14.1,1.4
	c7.8-1,15.5-2.2,23.5-2.2c0.7,0,1.5,0,2.2-0.1c7-1.2,13.9-2.1,20.8-3.6c3.5-0.7,7.8-0.8,9.8-5.2c-3.9-6.1-4-13.5-6.2-20.5
	c-1.5-4.9-2.7-10-6.4-14.2c-5,1-6.9,4.4-9.4,7.2c-5.6,6.3-12.7,11-18.5,13.6c-7.2,1-5.6-5.1-10.4-4.3c-0.1-2-1.2-3.8,1.3-5.7
	c3.7,0.9,7.4-0.9,11.5-1.4c2.8-0.4,6.7-0.1,9.1-2.8c5-5.7,10.3-11.3,12-18.6c0.6-2.1,0.5-3.6-0.1-5.6c-1.6-5.2-4.1-10-5-15.3
	c-0.2-1.2-0.8-2.7-3.1-3.5c-2,0.2-4.1,1.2-6,2.4c-6.3,4.1-13.6,6.4-21.3,8c-4,0.8-8,1.1-12-0.2c-2.5-0.7-5.1-1.5-7.6-1.4
	c-4.3,0.1-8-1.2-11.6-2.6c-3.6-1.4-7.1-3.1-10.6-4.6c-4.4,3.4-8.4,6.8-10.4,11.6c3.4,5.6,6.6,11.3,10.4,16.8c3.1,4.5,7,8.6,13.9,9.6
	c1.6,0.3,3.3,0.8,3.6,1.5C64.3,197.7,57.6,198.9,57.1,202.7z M104,86.9c-3.1,0-6.8,0.7-9.8-0.2c-6.9-1.8-13.3,1.2-20,0.5
	c-3.2,2.1-7.1,0.4-10.6,1.4c-16.7,4.8-29.3,13.1-33.7,28.1c-0.9,3.1-2.1,6.3-1.5,9.3c1.7,9,8.4,15.7,17.4,20.3c8,4,16.3,7.8,26.1,9
	c9.3,1.2,17.9,1.4,26.5-2.2c3.4-1.4,6.7-2.9,9.8-4.7c8.3-5,16.3-10.1,16.1-19.9c3.4-7.6,0.9-15.1-1.9-22.2
	c-2.3-5.4-5.7-11-11.5-14.8C108.8,90,106.7,88.4,104,86.9z M38.7,41.5c-0.3,17.9-1.3,34.7,1.8,51.3c1.5,0.4,2-0.4,2.8-0.7
	c6.7-3.3,13.4-6.9,21.3-8.1c6.6-0.9,13.3-1.4,19.9-1.8c4.6-0.3,9.3,0.3,13.8-0.4c4.7-0.5,8.3,0.5,12,2.5c3.9,2.1,7.3,4.5,10.6,7.7
	c5.3-7.2,6.4-15.5,9.4-23.1c4.6-11.3,8.6-22.9,11.4-34.7c0.2-0.9,0.3-2-1.5-3.4c-11.7,8.5-21.7,18.5-33.1,27
	c-3.6-1.2-5.3-3.3-6.1-5.9c-0.6-2.4-2.1-4.4-3.3-6.6c-3.2-5.6-5.2-11.4-7.2-17.3c-0.7-2.2-0.6-5.1-4.1-6.6
	c-7.2,11.3-10.6,23.8-17.8,35.3C55.6,56.3,48.3,48.6,38.7,41.5z M156.3,18.8c-1.9-1.8-4.3-3.7-7.6-2.8c-3,0.9-2.9,3.3-2.1,5.2
	c1.3,1.6,3.2,2,4.8,2.8C153.8,22.9,156.8,22.2,156.3,18.8z M93.5,5.1c-4.4-0.1-7,0.7-10.5,3.2c-1,0.7-1.3,1.6,0,2.4
	c5.2-0.7,6.6-1.1,10.7-3.5C93.7,6.7,93.6,6.1,93.5,5.1z M35.8,31.3c0.8-1.4,2.6-2.3,2.2-4.3c-2.6-0.5-5.1-0.4-8.3-0.1
	c0.5,1.6-2.7,2.3-0.9,4.4C31.1,31.3,33.4,31.3,35.8,31.3z"/>
<path d="M342.3,101.6c7.2,8,14.9,15.8,21.7,24.1c5.5,6.7,12.4,12.4,17.1,19.5c5.5,8.4,11.2,16.8,16.2,25.5c4.1,7,3.5,14-1.7,20.7
	c-3.9,5.1-6.2,10.6-6.3,16.8c-0.1,5.4-1.8,10.3-8.1,13.8c-4.6,2.5-8.2,6.5-12.5,10.1c0.6,3.4-2.3,6.5-1.5,10.3
	c-7.1,5.8-15.5,9.8-23.2,14.6c-6.1-1.9-5.4-6.8-6.1-10.5c-0.9-4.6-2.5-9.3-1.6-14.4c-3.4-0.9-6.5-0.5-10.1-0.5
	c-0.6,3.2,0.1,6.2,0.3,9.2c0.5,9.1,7.3,15,13.3,21.5c0.1,0.1,0.1,0.4,0.2,0.5c-0.8,1.8-3.4,1.4-4.3,2.6c-3.7-1.2-3.6-5.3-7.7-6.2
	c-1.3,1.9,1.9,4.6-1.5,6.1c-1.7,0.7-3.2,0.4-4.9-1.4c0-3.4,0-7.4,0-11.9c-6.1,0.7-11.7,1.7-17,0.8c-1.7-2-0.6-3.2,0.8-4.3
	c2.5-0.9,5.2-0.4,7.9-0.5c2.8-0.1,5.2-0.5,7.9-1.9c0-4.1,0-8.2,0-13.2c-0.2-0.1-0.9-0.9-1.7-1.1c-2.7-0.3-5.4-0.5-8-0.4
	c-2.6,0.2-4.9-2.6-7.5-0.3c-0.5,0.4-2,0.3-2.8-0.2c-2.8-1.4-5.7-0.5-8.9-0.8c0,6.4,0,12.4,0,18.7c5.8,3.5,13.1,5.1,18.8,10.9
	c0.3,0.9,0.6,2.9-2.4,4.6c-1.9-0.5-3.8-1-5.3-3.1c-2.7-3.7-7.3-5-12.3-5.9c0.2,4,2.8,7.2,2.1,10.8c-1.7,1-3.1,0.7-4.5,0.6
	c-3.8-3.9-2.3-8.7-2.9-13.7c-6.4,0.4-11.1,3.5-16.1,6.2c-2.8-0.2-4.5-1.2-4.1-4.3c4.8-1.9,9.7-4.1,14.9-5.7c4.8-1.5,6.2-4.2,5.8-8.2
	c-0.4-3.2-0.1-6.3-0.1-9.2c-5-3.4-10.8-4.4-16.4-5.4c-5.6-1-7.4-3.3-7.5-8.3c0-2.5,0-5.1,0-7.4c-9.4-7.5-21.2-12.9-25.3-24.2
	c-6.6-3.3-10.7-7.8-14-15c0.6-1.5,2-2.5,3.7-2.8c9.9-1.9,17.8-7.1,26.1-11.8c7-4.1,11.6-9.8,14.8-15.8c2.1-3.9,2.8-8.7,3.9-13.1
	c1.7-5.9,4-11.5,10.9-14.8c4.1-2,6.4-5.6,9.1-8.9c1.2-1.5,0.5-3.3,0.6-5c-6.3-8.6-14.6-15.1-26.1-16.9c-2.5-2.1-2.2-4.2-1.7-6.6
	c5.2-3.1,8.6-8,14.2-11.2c8.6-5,16.1-11.2,25.8-14.9c3.2-1.3,6-3.6,8.6-5.7c1.8-1.4,3.6-2.2,6.1-1.6c5.2,5.4,3.8,12.1,4.2,18.9
	c6.9,0,13-3.6,20.2-2.2c1.2,3.7-2,5.7-4,8.3c0.3,2.7-0.6,5.7,0.5,9c7.9,0.3,15.9,0.4,23.8,4.4C354.5,87.1,346.8,93,342.3,101.6z
	 M388.6,190.9c5.1-2.5,4.9-7.4,6.6-11.4c1.3-2.9-2.2-4.4-3.2-6.8c-0.7-1.7-2-3.3-2.8-5.1c-4.2-8.1-10.8-14.8-15-23
	c-0.6-1.1-1.8-2-2.9-2.8c-3.6-2.6-6-6.1-8.5-9.3c-1.6-2.1-3-4.3-5-6.1c-7.8-6.7-13.1-15.3-22-21.4c1.9-9.4,10.6-14.8,16.6-21.7
	c-1.1-0.6-1.9-1.4-2.8-1.4c-5,0.2-9.8-1.8-15-0.9c-2.6,0.5-5.1,0-7.3-2.4c0.5-4.7,5.7-8,7.3-12.8c-7.3-1.6-12.6,2.8-18.4,4.2
	c-2.7-1.3-3.7-2.9-3.8-5.3c-0.2-3.6,1.4-7,2.3-10.3c0.6-1.8,1.3-3.5-0.1-5.2c-0.5,0-0.7-0.2-0.9-0.1c-11.9,6.3-23.5,13.2-34.7,20.5
	c-3.2,2.1-6.5,4.3-7.7,8.2c5,3.2,11.7,4.4,15.8,8.8c4,4.3,9.4,7.8,11.8,12.9c-1.6,6.6-6.1,11.5-11.5,15.9c-2.8,2.4-5.5,4.8-8.2,7.2
	c-1,0.9-2.1,1.7-2.4,3.1c-1.6,8-5.2,15.6-4.5,23.9c0.1,1.4,0,3-0.4,4.3c-1.7,6.8-1.1,13.8-1.9,20.6c-0.6,4.7-0.3,9.4-1,13.9
	c-0.8,5.1-1.8,9.8,0.3,14.8c0.5,1-0.1,2-0.5,3c-1.6,5-1.7,9.9,2,14.9c6.2,1.4,12.7,3.3,19.2,4.1c6.5,0.7,13.3,0.2,19.9,0.2
	c6.4,0,12.9,0.6,19.4-0.2c1.2-3.1,3.2-6.1,1.8-9.6c-2.6-6.4-3.7-13.2-5.6-19.8c-1.8-6.2-3.3-12.6-8.9-17.3c0.3-3,1.7-4.4,4.2-4
	c3.7,2.5,5.1,5.5,6,8.5c2.1,7,5.1,13.7,6.5,20.9c1.4,7.2,6,14,5.7,21.7c0,0.7,1.1,1.4,1.2,2.3c0.5,2.4,1.3,4.9,1.9,7.2
	c0.6,2.1-0.7,4.1,0.7,6.2c1.3,2,1.7,4.6,3.2,7.9c6-4.2,12-7.1,16.5-12.1c-1-6.2,1.9-12.3,1.7-18.6c-0.2-4.3-2.5-8.1-1.7-12.4
	c0.5-2.4-0.4-4.6-1.7-6.6c-3.6-5.8-4.7-12.1-5.8-18.2c1.1-1.6,2.6-2.3,4.3-2.5c0.5,0.5,1.2,1,1.3,1.5c0.3,5.5,2.4,10.5,4.8,15.6
	c2,4.3,3.1,8.6,3,13.3c-0.1,3.3,1,6.5,2.1,9.7c0.3,0.9,0.4,2.7,3.1,2.6c2.8-2.6,6.7-5,8.8-7.9c2.8-7.9,0.5-15-2.8-21.4
	c-2.8-5.1-5.1-10.2-7.6-15.4c-1.3-2.6-2.8-5.3-2.1-8.4c0.1-0.4,0.4-0.7,0.6-1.1c0.9-0.5,1.8-0.4,3.2-0.2c1.1,6.1,5.9,11,7.2,17.2
	c0.3,1.2,0.7,2.7,2.9,3.3C385.8,188.2,387.1,189.8,388.6,190.9z M263.9,177.3c-1.6-7.9,2-14.5,1.1-21.7c-11.8,4.8-20.2,13.7-32.1,17
	c-0.8,3.4,3,4.4,3.2,6.7c8.9,1.4,16.1-1.5,23.1-4.8C260.6,175.3,261.8,176.1,263.9,177.3z M261.9,178c-6.7,2.7-12.8,5.2-18.9,7.8
	c1.1,3.3,3.8,5.5,6.1,8.8c4.1-3.3,9.1-4.3,13.3-7C261.2,184.6,262.3,181.6,261.9,178z M260.4,202.9c0-3.3,0-5.5,0-7.8
	c-3-0.5-4.9,0.3-5.9,2.9C256.4,199.5,258,200.9,260.4,202.9z"/>
<path d="M46.5,339.1c1.9-1,3.4-0.6,4.6-0.6c4.7,1.8,6,6.2,9.6,8.7c3.4,2.4,7.1,3.4,11,3.8c11.2,1.2,21.7-1.3,31.5-5.5
	c6-2.6,10.9-7,15.5-11.4c0.8-0.8,1.4-1.7,1.7-2.2c3.4,0.4,4.2,2,5.3,3.2c0.6,1.3-0.4,2.3-1.1,2.9c-4.6,4.3-9,8.5-13.9,12.4
	c-3,2.4-6.4,5.1-9.9,6.2c-4.3,1.4-8.9,3-13.8,3.3c-8.2,0.6-16.1-0.6-23.6-3c-5.8-1.8-10.6-5.1-13.9-9.7c-0.9-1.3-1.9-2.4-2.9-3.6
	C46.5,342.3,46.5,340.7,46.5,339.1z"/>
<path d="M278.9,356c-2.8,0.3-3.9-0.7-4.9-2.3c2.3-5.3,6.1-9.8,12.1-12.6c1.7-0.8,3.5-1.6,4.8-2.9c5.6-5.2,12.5-7.1,20.6-6.3
	c0.7,0.1,1.5,0.1,2.2,0c10.5-0.8,18.5,3,25.6,9.3c1.9,1.7,4.6,3.1,6.6,5.1c0.7,2.3,1,4.4-2.5,6.1c-3.2-2.7-7.5-4.3-11-7.2
	c-6.7-5.6-14.7-6.6-24.1-4.6C296.4,343.2,288,350.1,278.9,356z"/>
<path d="M75.7,321.1c-5.7,6.4-10.9,7.7-16.8,3.3c-1.6-2.4-3.1-5.1-1.9-8.1c3.5-4.3,8.1-6.6,14.4-5.8c1.8,0.5,2.9,2,4.2,3.4
	C75.7,316.2,75.7,318.8,75.7,321.1z"/>
<path d="M104.5,326.8c-3.4,0.7-6.1-1.3-9-1.5c-2.8-2.4-3.9-5.3-3-9.1c4.1-1.6,7.6-5.2,13.4-4.3c1.7,0.8,2.9,2.1,3.8,3.4
	C110.7,320.1,109.5,324.1,104.5,326.8z"/>
<path d="M297,303c1,0.6,2,1.1,3.3,1.1c1.2,0,2.4,0.1,3.5,0.2c2.6,1.8,2.4,4.6,3.9,6.7c-2.8,6.8-9.1,7.8-16.3,7
	C287.2,311.6,287.7,310.2,297,303z"/>
<path d="M331.9,304.1c4,1.7,4.4,4.8,5.5,7.5c-2.3,5.1-7.2,6.9-12.8,7.7c-3.5-0.9-4.4-3.6-6-6C323.3,306.4,325.1,305.1,331.9,304.1z"
	/>
<path d="M81.7,109.6c-3,2.5-6.2,1.4-8.8,1.5c-2.7-1.4-3-3.5-4.1-5.3c1.6-2.3,3.1-4.4,5.2-6.2C82,101.7,82.3,102.1,81.7,109.6z"/>
<path d="M99,108.8c3.8,0.5,8-1.7,10.6,2.4c-0.8,3.3-3.9,5.2-6.5,7.5c-1.8,1.5-3.9,1.4-6,0.6c-2.4-1-2.3-3.1-1.7-4.7
	C96.4,112.5,97.8,110.7,99,108.8z"/>
<path d="M310.6,79.9c0.1,5.5-0.9,6.5-7.2,6.9c-1.4-1.3-2.8-2.6-2.8-4.6c0.6-2,2.4-3,4-4C307.2,77.7,308.8,79.1,310.6,79.9z"/>
<path d="M295.6,77.8c-3.8,0.5-4.9-1.6-6.7-3.2c0.6-2,1.5-3.8,3.2-5.2c2.8-0.7,5.3-0.8,7,1.9C299.4,74.3,297.6,76.3,295.6,77.8z"/>
</svg>
