<?xml version="1.0" encoding="utf-8"?>
<!DOCTYPE svg PUBLIC "-//W3C//DTD SVG 1.1//EN" "http://www.w3.org/Graphics/SVG/1.1/DTD/svg11.dtd">
<svg version="1.1" id="crown-legend-formula--after" xmlns="http://www.w3.org/2000/svg" xmlns:xlink="http://www.w3.org/1999/xlink" x="0px" y="0px"
	 width="400px" height="360px" viewBox="0 0 400 360" style="enable-background:new 0 0 400 360;" xml:space="preserve">
<style type="text/css">
<![CDATA[
	.st0{fill:#FAFAFA;}
]]>
</style>
<g>
	<path class="st0" d="M346.9,235.3c3.4-2.3,5.9-4,7.5-5.2c1.5-7.4-0.1-13.3-3.6-19.1c-1.7-2.8-2.4-6.1-3.6-9.1
		c3.8-1.5,5.1-1.3,5.7,1c1.8,6.8,6.2,12.9,7.5,20.1c6.7-3,13.6-5.1,15.3-10.4c-0.7-5.9-3.6-10.1-7.1-14.2c-2.7-3.1-4.7-6.4-6.7-9.8
		c-0.7-1.2-1.4-3.1,1.7-4.4c5.6,5.9,8.4,13.4,14.5,18.8c1.6,0.2,2.7,0,3.6-0.6c4.2-2.9,7.3-6.6,10.1-10.4c3-4.1,2.4-5.5-2.3-8.4
		c-2-1.2-4.1-2.2-6.2-3.4c-11.1-6.2-21.7-12.7-31.3-20.4c-4.1-3.3-5.9-7.4-7-11.7c-1.3-5,0.5-10.2,2.5-14.9
		c4.4-10.6,12.5-19.5,23.2-26.8c1.6-1.1,3-2.5,4.4-3.7c-8.3-3.5-14-3.9-23.9-2.4c-5,0.8-10.4,1.8-15.3-1.7c5.2-6.3,8.4-13.2,16-19.2
		c-9.6,0.3-17.9-1-26.1,1.3c-2.2,0.6-4.4,0.1-6-2c-0.4-2.2-0.1-4.4,0.9-6.8c1.8-4.4,3.6-8.9,1.6-13.4c-2.4-1.1-4,0.3-5.6,0.8
		c-18.1,5.8-33.2,15.6-49.4,23.9c-2.1,1.1-4.8,2.4-4.7,5.1c7.8,4.2,17.7,5.3,24.1,11.3c5.3,0.8,7.8,5.4,12.3,6.5
		c4.1,1.1,5.7,3,7.1,5.9c-3.6,8.5-11.3,16-12.1,25.3c-2.2,1.1-4,2.1-5.8,3c-1,3.9-1,8.2-3.1,11.6c-4.6,7.8-5,16.2-7.2,24.4
		c-1.8,6.5-5.3,13.2-3.8,20.1c-2.1,2.6-1,5.6-1.7,8.4c-1.2,4.2,0.4,8.4-1.4,12.7c-1.5,3.5,0.3,7.4,2.2,10.9c1.5,0.6,2.9,1.2,3.4,1.4
		c13.9-1.5,26.5-4.5,39.6-5.4c0.3-4.4,0-8.3-1.3-12.2c-1.2-3.5-1.3-7.5-1.5-11.2c-0.2-3.9-5.5-6.9-3.1-11c3.4-0.5,5.4,0.4,5.9,2.8
		c1.1,5.4,4.5,10.5,3.5,16.2c-0.2,0.9-0.1,1.8,0.1,2.7c2,7.3,4.4,14.4,4.9,22c0.1,1.5,1.3,2.4,2.5,3
		C334.2,237.7,340.6,235.7,346.9,235.3z"/>
	<path class="st0" d="M225.6,126c4.7-1.2,9-2.9,13.4-3.3c4.7-0.5,8.8-2.4,13.4-3c4.5-0.5,9.1-2.5,13.5-2.4c4.8,0.2,8-4.4,12.8-2.5
		c0.8,2,0.2,3.4-1.7,4.4c-2.1,1-4.3,1.6-7,1.9c-5.6,0.5-11.4,1.1-16,4.7c11.1,2.1,21.6,4.2,32.9,6.3c3.4-5.2,6.5-10.2,9.8-15.2
		c0.7-1.1,0.8-2.1,0.9-3.2c0.3-2-0.7-3.5-2.7-4.6c-10.8-5.7-21.7-11.2-33.3-15.8c-1.6-0.6-3.9-1-4.7-0.4c-3.1,2.4-7.4,2.6-10.6,5
		c-9.5,7.2-15.1,16.2-20.8,25.3C225.2,124,225.6,125,225.6,126z"/>
	<path class="st0" d="M273.6,171.8c-4.1,2-6.6,1.5-9,1.9c-2.7,0.5-5,2-7.9,0.5c-4.2,1.9-9.4-0.4-13.6,1.9c-3.7,1.9-7.6,2.5-11.4,0.2
		c-4.5,4.8-4,11.5,1,17.2c5-0.4,9.5-2.4,13.8-3.9c4.3-1.5,8.7-2.5,13.3-3.9c0.8,1.4,3.1,1.7,1.7,3.8c-4.1,1.4-10,0.8-11.8,5.4
		c-3.5,0.7-7.3-0.4-9.2,2.8c0.8,1.8,1.6,3.6,2.4,5.5c7.7,1.7,14.4-1.5,22.2-2C269.4,191.9,268.8,182.2,273.6,171.8z"/>
	<path class="st0" d="M263.7,218.7c1.3-4,2.1-8.3,1.9-12.6c-5.7-1.2-9.2,1.6-12.7,3c-2.3,4.5,4.3,6.2,3.3,9.9
		C258.9,219.3,261.1,219.5,263.7,218.7z"/>
	<path class="st0" d="M225.2,137.2c-0.7-1.2-1-1.7-1.4-2.3c-0.3-0.5-0.6-1.2-1.1-1.9c-1.9,0.5-3.2-0.6-4.7-0.9
		c-5.7-1.1-7.4,0.1-7.5,5.5c2.1,1.3,4.1,2.5,6.7,4.2c1.2-1.7,3.5-1.5,4.8-2.5C223.1,138.6,224,138,225.2,137.2z"/>
</g>
<g>
	<path class="st0" d="M103.1,143.7c-7.1,3.4-13.7,7.7-22.2,8.3c-8.4,0.5-16.9,0.8-25.2-0.1c-8.1-0.9-15-5-22.7-8.1
		c-3.1,5.7-4.1,11.6-5.9,17.2c-0.3,1.1-0.4,2.4,0.1,3.4c1.6,3,3,6.2,5.2,8.8c5.8,6.9,12,13.6,20,19.3c2.1-0.2,4.2,0.5,6.4-0.5
		c5.2-2.2,8.8,0,12.7,3.4c-5.5,2.2-3.2,7.7-8,10c-16.8-5.9-27.7-18.1-42.6-26.4c-1.5,9.3-5.8,17.4-8.7,25.8
		c-1.5,4.3-2.4,8.5-3.7,12.7c-0.7,2.5-1,5.3,1.6,8.3c3.2-0.4,5.9,1.8,9.8,1.8c6-0.1,12.3-0.8,18.2,1.1c0.9,0.3,2.4,0.2,3.3-0.3
		c2.6-1.4,5.4-0.8,8.2-0.8c6.1-0.1,12.3-0.5,18.5,0.1c6.3,0.5,12.4-0.4,18.8-0.2c5.5,0.2,11.1,0.4,16.4-1.3c6.6-2,13.9-2.1,19.9-4.6
		c2.9-2.9,3.3-5.9,3.3-9.1c0-6.1-2-11.8-4.1-17.4c-2.9-7.5-6.7-14.8-8.2-22.5c-2.9-0.4-4,1.2-4.9,2.5c-4.4,5.3-7.3,11.3-12.8,16.1
		c-0.9,0.8-1.6,2.2-2,3.5c-1.5,5.6-3.2,6.3-11.4,5.3c-0.3-3.8,0-7.8-2.1-11.2c0.7-1.5,1.7-2.4,3-2.7c7.6-2.2,13.2-6,16.2-12.2
		c1.1-2.3,2.6-4.3,4.1-6.4c2.7-3.5,4.7-7.8,3.5-12C106.4,151.6,105.8,147.6,103.1,143.7z"/>
	<path class="st0" d="M67.4,146.6c13.9,0.8,25.4-2.3,34.1-10.4c4.8-4.4,9.2-9.3,9.7-15.6c0.7-7.7-2.5-13.7-9.5-19.4
		C92.6,93.7,82.9,88.2,70,86.6c-7.2-0.9-14.6-1-21.7-0.1c-6.8,0.8-11.5,4.9-14.8,9.7c-3.6,5-5.1,10.4-7,16
		c-3.9,11.7,2.7,19.9,12.3,26.8C46.9,144.5,56.7,147.9,67.4,146.6z"/>
	<path class="st0" d="M60,28.2c-6.8,10.1-7.4,20.9-9.9,31.7c-5.7,4.8-11.4,10.3-18.9,14.2c-1.7,0.9-3.2,2.5-2.9,3.9
		c1,4.1-0.7,8.3,1.3,12.3c0.2,0.5,1.2,0.6,2.2,1.2c2.7-5.2,8.3-7.8,13.6-10.7c6.3,0,12.8-0.4,19.2,0.1c11.3,0.9,22.1,3,30.8,9.5
		c3.4,2.5,7.2,4.5,11.1,6.8c4-10.8,5.9-21.4,7.6-31.9c1.8-10.5,6.7-20.7,6.8-32.2c-7.9,3.9-14.7,7.9-19.4,13.3
		c-2.9,3.3-6.5,6-9.2,9.4c-1.9,2.5-4.9,4.4-9.5,2.8c-0.9-0.8-2.2-1.8-2.1-3.3c0.1-2.5-1.4-4.4-3.3-5.9c-4.6-3.6-7.2-8.3-10.6-12.6
		C65,33.9,62.5,31.3,60,28.2z"/>
	<path class="st0" d="M63.2,5.7c-6.7-0.1-9.6,1.5-12.3,6.8c0.8,1.2,1.6,2.3,2.4,3.4c3.4,0,6.6,0,9.6,0C66.6,12.4,66.7,9.1,63.2,5.7z
		"/>
	<path class="st0" d="M126.5,25c5.9,1.8,10,0.7,11.4-2.9c1.4-3.5-0.6-5.4-7.8-7C126,17.6,125.6,21,126.5,25z"/>
</g>
<path d="M119.7,26.8c-0.7-7.1,0.1-12.5,8.1-15.9c1.8,0,4.2,0,6.8,0c4.2,1.6,7.4,4.4,10.1,7.5c0,1.5,0,3.2,0,4.6
	c-1.1,1.4-2.3,2.6-3.3,3.9c-1.7,2.2-3.8,3.6-7.2,3.9c-3.7,0.3-5.1,2.3-6.5,5.1c-4.1,8.3-4.1,17.2-8,25.5c-1,2.2,1.5,3.7,0.7,6.3
	c-2.7,8.9-3.9,18.1-1.2,27.2c1.2,4.1-0.6,8.4,2,12.4c0.2,0.4,0.2,1,0,1.4c-2.9,4.7-2.9,9.8-3.7,14.8c-0.8,5.1-4.9,9.3-8,13.2
	c1.3,6.9,4.9,12.9,5.2,19.6c0.1,2.9,2.1,5.8,3.2,8.7c3.1,8.3,5.3,16.9,9.3,25.1c3.6,7.3,5.7,15.2,5.9,23.1c0.1,3.6-2.9,6.7-1.6,10.4
	c-6.1,3.8-12.6,5.8-20.1,6.1c-5.7,0.2-11.3,1.5-16.8,3.9c1.3,6.4-4.2,11.9-3.6,18.5c5.3,1.3,8.3-2.1,12.2-3.4
	c4.1-1.4,8.8-1.1,12.1-3.8c2,1.1,4,1.9,4.2,4c0.2,2-0.3,4,1.1,5.9c1.1,1.5,0.8,3.4,0.2,5.2c-4.3,1.8-9,2.4-13.7,2
	c-4.3-0.3-8.3,0.3-11.9,2.5c-1.7-1.5-4.2-0.7-6-1.8c-3.9-2.3-5.3-5.7-4-9.9c0.5-1.4,1.1-2.7,0.5-3.9c-2.5-5.2-1-11-4.4-16.4
	c-4,2-8.2,0.2-12.3,0.1c-4.1-0.1-8.4,0-12.5,0c-3.3,3-4.1,6.7-3.9,9.9c0.2,3.3-3,5.9-1.3,9.6c1.3,2.8-1.8,6.5,0.1,9.5
	c-1.5,2.3-3.8,2.1-5.5,1.7c-4.4-0.9-8.5-1.2-13.1-0.1c-3.6,0.8-7.7,0.2-11.4,0.2c-5.4-3.5-1.1-6.6-0.2-9.9c2.5-0.8,4.7-1.6,7.2-2.5
	c4.6,1.6,9.5,2,14.5,1.5c2.5-3.2-0.1-6-0.6-9c-0.5-2.9-0.1-5.8-0.1-9.1c-4.1-1.6-8.6-2-13.1-2.1c-5.8,0-11.6-0.1-17.4-1.1
	c-4.6-0.8-8.2-2.3-11.8-5.3c3.3-4.3,1.7-9.3,3.2-14c1.4-4.7,3.3-9.3,5.2-13.7c4.8-11.3,7-23,12-34.2c-1.1-6.7,4.3-12.2,5.9-18.4
	c1.3-5.1,1.3-9.4-2.6-13.8c-4.3-4.9-4.6-11.1-3.7-17.6c0.8-5.5,1.4-11,5.1-15.6c-1.1-8.6-3.9-17.1-2.9-25.9
	c3.9-2.5,7.3-5.6,11.7-7.4c6.7-3,9-8.2,11.8-13.1c2.1-3.5,3-7.4,3.5-11.4c0.7-5.5,4.4-10.3,6.3-15.6c0.2-0.5,0.1-0.9,0.3-1.7
	c-2.1-2.9-6.3-4.4-9.6-6.8c-0.4-2.7-3-4.9-2.1-7.9c3.2-5.2,10.2-6.2,15.9-9c2.1-0.1,3.8,1.7,6.1,1.2c1.9,1.4,2.3,3.5,4.5,4.4
	c0,3.3,0,6.2,0,9c-1.3,2.7-4.4,4.1-6.3,6.2c0.3,9.3,11,20.1,28.3,28.6C100.4,41,108.3,32.5,119.7,26.8z M103.1,143.7
	c-7.1,3.4-13.7,7.7-22.2,8.3c-8.4,0.5-16.9,0.8-25.2-0.1c-8.1-0.9-15-5-22.7-8.1c-3.1,5.7-4.1,11.6-5.9,17.2
	c-0.3,1.1-0.4,2.4,0.1,3.4c1.6,3,3,6.2,5.2,8.8c5.8,6.9,12,13.6,20,19.3c2.1-0.2,4.2,0.5,6.4-0.5c5.2-2.2,8.8,0,12.7,3.4
	c-5.5,2.2-3.2,7.7-8,10c-16.8-5.9-27.7-18.1-42.6-26.4c-1.5,9.3-5.8,17.4-8.7,25.8c-1.5,4.3-2.4,8.5-3.7,12.7
	c-0.7,2.5-1,5.3,1.6,8.3c3.2-0.4,5.9,1.8,9.8,1.8c6-0.1,12.3-0.8,18.2,1.1c0.9,0.3,2.4,0.2,3.3-0.3c2.6-1.4,5.4-0.8,8.2-0.8
	c6.1-0.1,12.3-0.5,18.5,0.1c6.3,0.5,12.4-0.4,18.8-0.2c5.5,0.2,11.1,0.4,16.4-1.3c6.6-2,13.9-2.1,19.9-4.6c2.9-2.9,3.3-5.9,3.3-9.1
	c0-6.1-2-11.8-4.1-17.4c-2.9-7.5-6.7-14.8-8.2-22.5c-2.9-0.4-4,1.2-4.9,2.5c-4.4,5.3-7.3,11.3-12.8,16.1c-0.9,0.8-1.6,2.2-2,3.5
	c-1.5,5.6-3.2,6.3-11.4,5.3c-0.3-3.8,0-7.8-2.1-11.2c0.7-1.5,1.7-2.4,3-2.7c7.6-2.2,13.2-6,16.2-12.2c1.1-2.3,2.6-4.3,4.1-6.4
	c2.7-3.5,4.7-7.8,3.5-12C106.4,151.6,105.8,147.6,103.1,143.7z M67.4,146.6c13.9,0.8,25.4-2.3,34.1-10.4c4.8-4.4,9.2-9.3,9.7-15.6
	c0.7-7.7-2.5-13.7-9.5-19.4C92.6,93.7,82.9,88.2,70,86.6c-7.2-0.9-14.6-1-21.7-0.1c-6.8,0.8-11.5,4.9-14.8,9.7c-3.6,5-5.1,10.4-7,16
	c-3.9,11.7,2.7,19.9,12.3,26.8C46.9,144.5,56.7,147.9,67.4,146.6z M60,28.2c-6.8,10.1-7.4,20.9-9.9,31.7
	c-5.7,4.8-11.4,10.3-18.9,14.2c-1.7,0.9-3.2,2.5-2.9,3.9c1,4.1-0.7,8.3,1.3,12.3c0.2,0.5,1.2,0.6,2.2,1.2c2.7-5.2,8.3-7.8,13.6-10.7
	c6.3,0,12.8-0.4,19.2,0.1c11.3,0.9,22.1,3,30.8,9.5c3.4,2.5,7.2,4.5,11.1,6.8c4-10.8,5.9-21.4,7.6-31.9c1.8-10.5,6.7-20.7,6.8-32.2
	c-7.9,3.9-14.7,7.9-19.4,13.3c-2.9,3.3-6.5,6-9.2,9.4c-1.9,2.5-4.9,4.4-9.5,2.8c-0.9-0.8-2.2-1.8-2.1-3.3c0.1-2.5-1.4-4.4-3.3-5.9
	c-4.6-3.6-7.2-8.3-10.6-12.6C65,33.9,62.5,31.3,60,28.2z M63.2,5.7c-6.7-0.1-9.6,1.5-12.3,6.8c0.8,1.2,1.6,2.3,2.4,3.4
	c3.4,0,6.6,0,9.6,0C66.6,12.4,66.7,9.1,63.2,5.7z M126.5,25c5.9,1.8,10,0.7,11.4-2.9c1.4-3.5-0.6-5.4-7.8-7
	C126,17.6,125.6,21,126.5,25z"/>
<path d="M322.9,242c-6-3.3-1.9-8.6-5.9-12.1c-2.9,2.5-4.1,5.5-7.4,7.3c0,2.7,0,5.2,0,7.9c1.6,2.3,3.9,3.4,7.7,3.9
	c6.4,0.9,12.5,2.7,18.5,4.2c1.2,2.5,0.1,3.8-2.2,5c-5.8-1.8-11.8-4.3-18.5-3.8c-1.8,4.1,3.1,5.2,4.3,7.6c0.8,2.8-2.1,3.9-4,5.4
	c-6.7-3.6-4.8-10.5-9.2-15.4c-3-0.6-6-0.8-9.4,0.5c-2.9,1.1-6,0.7-7.6-2.5c3.2-4.5,11.1-0.9,14.5-5c0.2-0.6,0.6-1.3,0.6-1.9
	c0.1-0.9,0.3-2.2-0.3-2.6c-2.3-1.7-0.1-3.7-0.9-5.5c-0.8-2.2-3.2-3.4-4.7-3c-3.1,0.7-6.1,0.4-9.1,0.9c-2.1,0.4-4,1.5-6.1,2.4
	c-0.7,4.9-3,9.4-2.5,14.4c0.3,2.4,1.4,3.9,4.3,5c6,2.2,11.9,4.6,17.1,8.1c-1.1,2.5-4,2.6-6.6,3.7c-4.7-2.7-8.2-8.1-15.9-6.5
	c0.9,4.9,0.9,4.9-1.7,10.2c-1.6,0.4-3.3,0.5-4.8-0.2c-2.5-4.1,3.4-8.1-0.2-12.7c-8.1,0.2-16.6,1.5-25,4.5c-0.4-4.9,0.1-5.4,3.9-6.2
	c7.9-1.4,15.8-2.9,23.7-4.4c0.4-5.7-0.6-11.2,2.7-16.4c-4.5-1-8.4-1.3-12-2.8c-1.5-1.9-0.1-4.3-1.1-6.6c-3.1-2-6.9,0.1-10.7-1.1
	c-4-1.8-5.9-5.5-7.1-9.1c-1-2.8-2.6-4.6-5.4-6.3c-3.9-2.2-5-5.8-7.2-9.3c-1.3-1.3-4,0.1-6.2-1.4c-7.7-7.2-7.1-15.7-4.3-24.4
	c1.5-1.9,3.8-1.8,6-1.6c10.1,0.5,19.9-2.1,29.9-1.5c2.9,0.2,5.9-1,8.8-1.7c2.3-0.5,3.9-1.8,4.5-3.6c3.3-8.8,7.2-17.5,9-26.7
	c0.1-0.6-0.1-1.4-0.1-2c-12.9-3.4-27.1-3.9-39.2-10.4c-4.1,1-8.5,2.1-12.7,4.3c0.3,2.8,2.9,5.4,0.7,9.3c-4,4.2-9.9,7.4-18.5,6.6
	c-3.5-2.7-7.6-5.2-9.2-9.5c0.4-2.4,2.7-4.6,1.7-7.4c4.3-2,7.3-5.4,12.5-4.4c5.6-9,11-17.6,19-25c2.3-2.1,4.7-3.6,7.2-5.4
	c4.6-3.2,7.9-7.4,12.7-10.3c13.3-8.3,27-16.2,41.4-23c6.2-3,12.3-6.4,19.6-8.3c2.6-0.6,4.9-0.5,7.4-0.6c1.9-0.1,3,1,4.5,1.8
	c0,6.5,0.9,12.9,2.1,19.7c7.9,0,15.4,0,22.9,0c2.5,0,5.2-0.5,6.8,2.5c-0.5,2.4-2.8,4.5-5.3,6.5c-5.1,4.2-7.3,7.2-8.9,11.7
	c1.9,1.3,4.2,0.8,6.3,0.6c9.8-0.8,19.3,2.2,28.8,1.5c2.2,4.4,2.2,5.7-1.9,8c-5.6,3.1-10.1,7.1-14.7,10.9c-4.5,3.8-8.3,8.1-11.5,12.8
	c-5.3,8.3-3.9,16.4-1,24.8c0.3,0.8,1.1,1.5,1.9,2.2c7.2,5.8,13.5,12.7,22.6,16.7c7.1,3.2,12.3,8.3,20.1,11.3
	c0.7,1.5,1.5,3.3,2.3,5.2c-2.9,3.2-3,7.5-7.2,10.3c-3.9,2.5-7.4,5.4-10.8,8c-0.2,2.2-0.2,3.7-0.6,5.3c-1.4,5.7-4.9,10.1-11.9,12.6
	c-4,1.5-8.1,2.8-8.7,7.3c-0.2,1.5-2.6,3.1-4.4,3.8c-5.5,2.4-10.8,4.9-17.6,5.2C333.7,241.2,328.3,242.4,322.9,242z M346.9,235.3
	c3.4-2.3,5.9-4,7.5-5.2c1.5-7.4-0.1-13.3-3.6-19.1c-1.7-2.8-2.4-6.1-3.6-9.1c3.8-1.5,5.1-1.3,5.7,1c1.8,6.8,6.2,12.9,7.5,20.1
	c6.7-3,13.6-5.1,15.3-10.4c-0.7-5.9-3.6-10.1-7.1-14.2c-2.7-3.1-4.7-6.4-6.7-9.8c-0.7-1.2-1.4-3.1,1.7-4.4
	c5.6,5.9,8.4,13.4,14.5,18.8c1.6,0.2,2.7,0,3.6-0.6c4.2-2.9,7.3-6.6,10.1-10.4c3-4.1,2.4-5.5-2.3-8.4c-2-1.2-4.1-2.2-6.2-3.4
	c-11.1-6.2-21.7-12.7-31.3-20.4c-4.1-3.3-5.9-7.4-7-11.7c-1.3-5,0.5-10.2,2.5-14.9c4.4-10.6,12.5-19.5,23.2-26.8
	c1.6-1.1,3-2.5,4.4-3.7c-8.3-3.5-14-3.9-23.9-2.4c-5,0.8-10.4,1.8-15.3-1.7c5.2-6.3,8.4-13.2,16-19.2c-9.6,0.3-17.9-1-26.1,1.3
	c-2.2,0.6-4.4,0.1-6-2c-0.4-2.2-0.1-4.4,0.9-6.8c1.8-4.4,3.6-8.9,1.6-13.4c-2.4-1.1-4,0.3-5.6,0.8c-18.1,5.8-33.2,15.6-49.4,23.9
	c-2.1,1.1-4.8,2.4-4.7,5.1c7.8,4.2,17.7,5.3,24.1,11.3c5.3,0.8,7.8,5.4,12.3,6.5c4.1,1.1,5.7,3,7.1,5.9c-3.6,8.5-11.3,16-12.1,25.3
	c-2.2,1.1-4,2.1-5.8,3c-1,3.9-1,8.2-3.1,11.6c-4.6,7.8-5,16.2-7.2,24.4c-1.8,6.5-5.3,13.2-3.8,20.1c-2.1,2.6-1,5.6-1.7,8.4
	c-1.2,4.2,0.4,8.4-1.4,12.7c-1.5,3.5,0.3,7.4,2.2,10.9c1.5,0.6,2.9,1.2,3.4,1.4c13.9-1.5,26.5-4.5,39.6-5.4c0.3-4.4,0-8.3-1.3-12.2
	c-1.2-3.5-1.3-7.5-1.5-11.2c-0.2-3.9-5.5-6.9-3.1-11c3.4-0.5,5.4,0.4,5.9,2.8c1.1,5.4,4.5,10.5,3.5,16.2c-0.2,0.9-0.1,1.8,0.1,2.7
	c2,7.3,4.4,14.4,4.9,22c0.1,1.5,1.3,2.4,2.5,3C334.2,237.7,340.6,235.7,346.9,235.3z M225.6,126c4.7-1.2,9-2.9,13.4-3.3
	c4.7-0.5,8.8-2.4,13.4-3c4.5-0.5,9.1-2.5,13.5-2.4c4.8,0.2,8-4.4,12.8-2.5c0.8,2,0.2,3.4-1.7,4.4c-2.1,1-4.3,1.6-7,1.9
	c-5.6,0.5-11.4,1.1-16,4.7c11.1,2.1,21.6,4.2,32.9,6.3c3.4-5.2,6.5-10.2,9.8-15.2c0.7-1.1,0.8-2.1,0.9-3.2c0.3-2-0.7-3.5-2.7-4.6
	c-10.8-5.7-21.7-11.2-33.3-15.8c-1.6-0.6-3.9-1-4.7-0.4c-3.1,2.4-7.4,2.6-10.6,5c-9.5,7.2-15.1,16.2-20.8,25.3
	C225.2,124,225.6,125,225.6,126z M273.6,171.8c-4.1,2-6.6,1.5-9,1.9c-2.7,0.5-5,2-7.9,0.5c-4.2,1.9-9.4-0.4-13.6,1.9
	c-3.7,1.9-7.6,2.5-11.4,0.2c-4.5,4.8-4,11.5,1,17.2c5-0.4,9.5-2.4,13.8-3.9c4.3-1.5,8.7-2.5,13.3-3.9c0.8,1.4,3.1,1.7,1.7,3.8
	c-4.1,1.4-10,0.8-11.8,5.4c-3.5,0.7-7.3-0.4-9.2,2.8c0.8,1.8,1.6,3.6,2.4,5.5c7.7,1.7,14.4-1.5,22.2-2
	C269.4,191.9,268.8,182.2,273.6,171.8z M263.7,218.7c1.3-4,2.1-8.3,1.9-12.6c-5.7-1.2-9.2,1.6-12.7,3c-2.3,4.5,4.3,6.2,3.3,9.9
	C258.9,219.3,261.1,219.5,263.7,218.7z M225.2,137.2c-0.7-1.2-1-1.7-1.4-2.3c-0.3-0.5-0.6-1.2-1.1-1.9c-1.9,0.5-3.2-0.6-4.7-0.9
	c-5.7-1.1-7.4,0.1-7.5,5.5c2.1,1.3,4.1,2.5,6.7,4.2c1.2-1.7,3.5-1.5,4.8-2.5C223.1,138.6,224,138,225.2,137.2z"/>
<path d="M281.1,335c2.6,2.2,6,3.7,9,6.1c5,4,12.2,5.7,19.5,6c3.1,0.1,6.1-0.1,9.2,0.1c9.9,0.5,16.9-3.3,22.4-9.3
	c3.3-3.5,6.9-6.8,9.3-10.5c4-1.4,4.1,1.5,5.7,3c-6.3,7-10.9,15.2-21,19.7c-10.5,4.6-21.7,6.1-33.5,4.8c-7.7-0.8-14.8-3-20.4-7.8
	c-3.1-2.6-4.4-5.5-3.9-9.1C277.7,336.5,278.9,335.6,281.1,335z"/>
<path d="M34.4,343.6c1.8-2.5,4.1-1.9,6.2-1.8c1.9,0.3,1.5,2.1,2.6,2.4c5.1,1.7,9,5,13.9,6.8c2.8,1,5.7,1.5,8.9,1.5
	c3-0.2,6.2-0.5,8.7,1c12.3-5.2,24.4-10.5,30.4-21c3-0.6,4.6,0.3,6.1,2.5c-7.1,11-17.6,19.4-32.6,23.7c-9.1,2.6-18.6,1.3-26.7-2.4
	C45.2,353.2,38.1,349.7,34.4,343.6z"/>
<path d="M41.2,324.9c4.9-9,9.3-10.6,18.8-7.3c1.6,2.3,0.3,4.6,0.7,6.8C51.5,331.1,45.9,331.3,41.2,324.9z"/>
<path d="M80.9,321.2c3.8-4.2,8.3-5.5,14-4.8c2,0.9,3.4,2.3,4.6,3.7c-0.7,4.1-3.7,6.9-7.5,9.2c-3.9,1.5-6.7-1.3-10.1-1.2
	C80.1,325.8,81.2,323.5,80.9,321.2z"/>
<path d="M336.1,322.4c-2.2,1.6-4,3-5.6,4.3c-9.6,0.3-9.7,0.2-8.9-7.3c5.7-3.4,7.6-4,13.4-4.4C337.3,317.2,336.2,319.6,336.1,322.4z"
	/>
<path d="M295.2,315.2c2.8,2.1,6,3.9,6.5,7.4c-1,1.6-2.8,2.9-5.2,4.2c-2.5,0-5.1,0-7.9,0C284,319.9,284.2,319.6,295.2,315.2z"/>
<path d="M87.7,106.1c3.5,0.7,6.5,1.4,8.2,4.4c-0.4,3.4-3.1,5.7-7.5,6.4c-4.1,0.6-5.8-1.7-6.8-4.8C82.5,110,83.9,107.7,87.7,106.1z"
	/>
<path d="M306.4,98.4c-5.2-3.9-5-7.3,0.3-11.7c3.8,1.2,7.9,1.9,8.9,5.7c-0.6,1.3-1.2,2.5-1.8,3.8C311.4,96.9,308.8,97.6,306.4,98.4z"
	/>
<path d="M288,90.2c0-3.3,0-6.1,0-9.2c1-1.5,3-2.8,5.2-3.8c1.6,0.5,3.2,1,4.5,1.5c1.5,2.5,0.6,4.8,0.7,7.1
	C296,88.2,293.8,91,288,90.2z"/>
<path d="M59.7,97.2c3.8,0.5,8-1.7,10.6,2.4c-0.8,3.3-3.9,5.2-6.5,7.5c-1.8,1.5-3.9,1.4-6,0.6c-2.4-1-2.3-3.1-1.7-4.7
	C57,100.9,58.5,99.1,59.7,97.2z"/>
</svg>
