<?xml version="1.0" encoding="utf-8"?>
<!DOCTYPE svg PUBLIC "-//W3C//DTD SVG 1.1//EN" "http://www.w3.org/Graphics/SVG/1.1/DTD/svg11.dtd">
<svg version="1.1" id="crown-logo-features" xmlns="http://www.w3.org/2000/svg" width="340" height="460" viewBox="0 0 340 460">
<g style="fill:#EAEAEA;">
	<path d="M58.4,54.8c2.5-0.3,5-0.9,7.4-1c19.4-1,38.9-2.1,58.3-2.8c10.9-0.4,21.9,0,32.8-0.5c17.6-0.7,35.2-2,52.7-2.6
		c12.4-0.4,24.7-0.2,37.1-0.3c17.7-0.2,35.5-0.5,53.2-0.7c1.5,0,3,0.9,4.6,1.3c-1.5,0.8-3,2.2-4.5,2.3c-29.3,0.5-58.6,0.5-87.8,1.2
		c-14.6,0.3-29.1,1.8-43.7,2.5c-7.9,0.4-15.8,0.2-23.8,0.4c-15.1,0.3-30.3,0.7-45.4,1.1c-12.7,0.3-25.4,0.8-38.1,1.1
		c-1,0-1.9-0.3-2.9-0.5C58.4,55.7,58.4,55.3,58.4,54.8z"/>
	<path d="M12.1,51.9c-2.4-4.5-2-9.6-2.1-14.5c0-0.5,2-1.5,3.1-1.5c3.1,0.2,4.4-1.5,5.1-4.3c1.7-6.3,3.4-12.5,5.2-18.7
		c0.2-0.6,0.5-1.1,1.3-2.9c2,3.8,3.7,6.7,5.1,9.8c1.7,3.9,3.3,7.8,4.8,11.9c1.5,4.2,3.8,7.2,8.5,7.4c1.6,0.1,3.2,0.5,4.8,0.9
		c1.9,0.4,2.6,1.3,2,3.7c-0.9,3.2-1.3,6.6-1.9,9.9c-0.1,0.7-0.6,1.4-0.9,2.1c-0.6-0.6-1.6-1.2-1.6-1.9c-0.2-1.9,0.2-3.9,0.2-5.9
		c0-5.1-1.7-6.6-6.5-7c-6.7-0.6-13.3-1.5-19.9-2.5c-5-0.7-5.7-0.3-6,5.1c-0.1,1.8,0.3,3.7,0.4,5.5c0.1,1.1,0,2.1,0,3.2
		C13,51.8,12.5,51.9,12.1,51.9z M27,17c-0.5,0.1-0.9,0.1-1.4,0.2c-2.3,5.4-3.8,11.1-4.1,17.1c0,0.8,1.1,2.1,1.8,2.3
		c3,0.5,6,0.7,9,0.7c0.7,0,2.1-1.9,1.9-2.5C31.9,28.8,29.4,22.9,27,17z"/>
	<path d="M252.8,25.2c0.7,0.1,2.2-0.2,3.2,0.4c1.7,1.2,3.8,2.6,4.4,4.4c0.9,2.4-0.9,4.7-3.2,5.2
		c-4.6,1.1-9.3,1.9-14.1,2.4c-2.3,0.3-3.1-1.8-3.1-4c0.1-4.3,0-8.6,0.4-12.9c0.1-1.2,1.4-2.4,2.3-3.5c0.4-0.5,1.3-0.7,2-0.6
		c2.6,0.2,5.5-0.1,7.5,1.2C253.3,18.6,252.7,22.2,252.8,25.2z M253.5,27.3c-0.2,0.3-0.3,0.5-0.5,0.8c-2,0.1-4,0.2-5.9,0.4
		c-1.6,0.1-3.6-0.1-3.4,2.5c0.1,2.4,1.7,3.3,3.9,3.2c1.8-0.1,3.8,0,5.5-0.7c1.7-0.6,3.1-2,4.6-3.1C256.2,29.4,254.9,28.4,253.5,27.3
		z M248.6,19.1c-3.9,0.1-5.5,1.7-5.2,4.6c0.1,0.7,1.6,2,1.7,1.9c1.9-1.4,3.6-3,5.4-4.6C249.6,20.2,248.9,19.4,248.6,19.1z"/>
	<path d="M71.7,117.9c0.2-2.2,0.5-5.2,0.8-8.2c0.6,0,1.1,0.1,1.7,0.1c-0.2,3.1-0.3,6.2-0.5,9.4c3-0.3,5.7-0.8,8.3-0.8
		c3,0,5.9,0.7,6.8,4.4c0.7,3-0.9,5.7-4.6,7.3c-1.3,0.6-2.9,0.8-4.4,1c-3.6,0.4-4,1-3.3,4.6c0.2,0.9-0.3,2-0.5,3.1
		c-0.6-0.8-1.7-1.5-1.8-2.4c-0.3-4-2.2-5.7-6-6c-2.3-0.1-4.6-0.9-6.6-2.1c-1.3-0.8-2.6-2.8-2.6-4.2c0.1-1.4,1.6-3.4,2.9-3.9
		C64.9,119.1,68.2,118.7,71.7,117.9z M75.3,129c1.7,0.1,3.1,0.3,4.4,0.2c1.4-0.1,2.8-0.3,4-0.9c2.9-1.4,4-5.5,1.8-6.2
		c-2.8-0.9-6.4-1-9.2,0C73.1,123.1,74.4,126.3,75.3,129z M72,129.2c0.4-0.4,0.7-0.8,1.1-1.2c-0.7-2.2-0.8-5.7-2.1-6.3
		c-2.1-1-5.1-0.3-7.6,0.1c-0.8,0.1-1.9,1.7-1.9,2.7c0,0.9,1.1,2.3,1.9,2.6C66.2,128,69.1,128.5,72,129.2z"/>
	<path d="M78.2,31.6c0,7.2-3.4,9.6-7.2,11.5c-6.5,3.3-11.6,0.6-12.3-6.9c-0.5-5.6,0.9-10.8,5.4-14.4
		c3.5-2.9,7.4-2.7,10,1.2C76.2,26,77.4,29.8,78.2,31.6z M75.7,31.4c-0.6-1.3-1.3-4-2.7-6.1c-2.1-3.1-5.5-3-7.5,0.2
		c-1.4,2.3-2.3,5-3,7.7c-1.9,7.8-0.2,9.6,7,7.8C72.9,40.1,75.7,36.3,75.7,31.4z"/>
	<path d="M264.7,40.1c0.8-2.3,1.4-4.2,2.1-6.2c1.8-5,3.6-10.1,5.5-15.1c0.3-0.9,1.3-1.5,2-2.3c0.7,0.9,1.8,1.6,2.1,2.6
		c1.6,4.7,3,9.6,4.6,14.3c0.7,1.9,2,3.6,2.9,5.4c0.3,0.6-0.2,1.5-0.3,2.3c-0.7-0.3-1.7-0.3-2-0.8c-0.9-1.5-1.4-3.5-2.4-4.9
		c-1-1.3-2.7-3.1-3.7-2.9c-2,0.4-4.1,1.8-5.6,3.3c-0.9,0.9-0.7,3.1-1.3,4.5c-0.4,0.8-1.4,1.3-2.1,2C266,41.7,265.3,40.9,264.7,40.1z
		 M271.6,30.2c2.1-0.5,4.1-0.8,4.1-1.1c0.1-1.9-0.4-3.8-0.7-5.7c-0.4,0-0.8,0-1.2,0C273.2,25.3,272.6,27.2,271.6,30.2z"/>
	<path d="M202.6,163.8c1.5,0.4,2.8,0.5,3.9,1.2c1.3,0.8,3.4,2.2,3.3,3.1c-0.3,1.7-1.5,3.5-2.9,4.5
		c-1.3,0.9-3.3,0.8-5.1,1.1c-2.2,0.4-4.5,0.9-6.7,1.1c-0.9,0.1-2.1-0.3-2.7-1c-1.6-1.9-1.6-11.4-0.2-13.6c1.6-2.4,7.2-4.6,9.6-3.5
		C205.1,158.2,203.5,160.9,202.6,163.8z M207.2,168.5c-4.2-2.9-7.8-1.3-11.3-0.1c-0.7,0.2-1.1,1.2-1.6,1.8c0.7,0.5,1.4,1.4,2.2,1.4
		c2.6-0.1,5.3-0.3,7.9-0.7C205.3,170.7,206,169.5,207.2,168.5z M193.3,164.9c0.4,0.4,0.7,0.7,1.1,1.1c2-1.2,4.1-2.3,5.9-3.7
		c0.4-0.3-0.2-1.9-0.3-2.9c-1.7,0.5-3.7,0.7-5.1,1.7C194,161.8,193.8,163.6,193.3,164.9z"/>
	<path d="M190.7,42.4c-0.3-1.9-0.6-3.8-0.9-5.8c-0.2-1.9-0.6-3.7-3.1-3.5c-2.5,0.2-3.1,1.7-3,4c0.1,1.6,0.2,3.2,0,4.7
		c-0.1,0.6-1,1.1-1.5,1.6c-0.4-0.6-0.9-1.3-1.3-1.9c-0.1-0.2,0-0.5,0-0.7c0.7-7.8,1.3-15.6,2.1-23.5c0.1-0.6,0.6-1.1,0.9-1.6
		c0.3,0.1,0.6,0.1,1,0.2c-0.1,2.1-0.3,4.2-0.4,6.2c-0.1,1.5-0.4,3-0.1,4.4c0.2,1,1.3,2.6,1.7,2.5c1.1-0.3,2.8-1.1,3-2.1
		c0.7-2.6,0.5-5.4,1-8c0.3-1.7,1.2-3.3,2.2-4.6c0,9.3,0,18.6,0,27.9C191.8,42.3,191.3,42.3,190.7,42.4z"/>
	<path d="M161.7,31.1c4.6-1.1,6.1-5.1,8.7-7.7c0.9-0.9,2-1.7,3-2.6c0.3,1.3,0.6,2.7,0.8,4c0.5,3.7,1,7.5,1.3,11.3
		c0.1,1-0.4,2-0.6,3.1c-0.7-0.8-1.7-1.6-1.9-2.5c-0.6-2.5-0.9-5-1.4-7.9c-6.4,1.6-7.4,8-10.7,12.1c-2.6-2.5-2.2-15.3,0.9-18.7
		C161.7,25.2,161.7,27.9,161.7,31.1z"/>
	<path d="M139.2,88.4c1.3,0.3,2.9,0.1,4,0.8c1.2,0.8,2.6,2.3,2.8,3.6c0.1,1.1-1.2,3.4-2.2,3.6c-4,0.8-8,1.1-12.1,1.2
		c-0.6,0-1.6-1.7-1.7-2.7c-0.5-2.9-0.8-5.9-0.8-8.8c0-1,1.1-2.7,1.8-2.9c2.4-0.5,5-0.8,7.2-0.2c0.9,0.2,1.3,3,1.9,4.6
		C139.8,88,139.5,88.2,139.2,88.4z M137.6,91.2c0,0,0-0.1,0-0.1c-0.8,0-1.7-0.3-2.4,0.1c-1.1,0.6-2.1,1.5-3.1,2.3
		c1,0.7,1.9,1.9,2.9,2.1c1.9,0.3,3.9,0.2,5.8-0.2c0.9-0.2,1.7-1.4,2.5-2.1c-0.9-0.6-1.7-1.5-2.6-1.8
		C139.8,91.1,138.7,91.3,137.6,91.2z M137.1,85.9c-5.2-0.8-5.8-0.3-4.8,3.6C133.8,88.5,135.1,87.5,137.1,85.9z"/>
	<path d="M109.5,169c1.2,0.4,1.7,0.6,2.1,0.7c3.2,0.8,6.2,2.2,6.4,6.3c0.2,4.1-2.8,5.6-5.8,7c-3.8,1.8-8.1,1.8-11.4-0.5
		c1.8-0.3,2.8-0.5,3.9-0.6c2.3-0.3,4.6-0.2,6.8-0.8c2.2-0.6,4.6-2.2,3.6-4.8c-0.6-1.7-3-3-4.9-3.7c-1.6-0.6-3.6-0.1-5.4-0.1
		c-0.2-0.3-0.4-0.6-0.5-0.9c1.5-1.8,3-3.5,5.3-6.2c-3.7,0-6.4,0-9.2,0c0-0.4-0.1-0.9-0.1-1.3c0.8-0.3,1.5-0.7,2.3-0.8
		c2.9-0.3,5.8-0.5,8.7-0.6c0.9,0,1.8,0.6,2.8,1c-0.4,0.9-0.6,2-1.2,2.8C112.1,167.2,111,167.9,109.5,169z"/>
	<path d="M89.7,197.6c1.1-1.7,1.9-4.4,3.3-4.9c2.6-0.8,5.1,0.5,6.7,3.3c0.6,1,2.1,1.5,3,2.3c1.4,1.3,2.6,2.6,3.9,4
		c-1.3,1.3-2.6,2.7-4.1,3.8c-0.8,0.6-2,0.4-3,0.6C91,207.8,90.4,207.3,89.7,197.6z M104.1,202.3c-2.8-2.8-5.8-1.5-8.7-1.1
		c-0.6,0.1-1.2,1-1.7,1.5c0.6,0.6,1.1,1.7,1.9,1.8C98.5,205.2,101.4,205,104.1,202.3z"/>
	<path d="M143,238.5c0.4,1.1,1,2.2,1.3,3.3c0.6,2.8,1.2,5.7,1.6,8.5c0.1,0.9-0.3,1.9-0.5,2.8c-0.7-0.6-1.8-1-2.1-1.7
		c-0.8-1.7-1.2-3.6-1.8-5.5c-2.1,1.2-4.1,3.2-6.1,3.2c-1.8-0.1-3.5-2.4-5.4-3.9c-1.3,3.1-2.8,6.7-4.3,10.3c-0.5-0.2-1-0.3-1.5-0.5
		c0.3-1.4,0.4-2.8,0.8-4.1c1.2-3.3,2.4-6.6,3.8-9.9c0.3-0.8,1-1.5,1.5-2.2c0.7,0.7,1.5,1.3,2.2,2c0.4,0.4,0.4,1.2,0.7,1.7
		c0.8,1.3,1.6,2.5,2.4,3.8c1.4-1,3-1.8,4.1-3.1c1-1.2,1.6-2.9,2.3-4.4C142.3,238.6,142.7,238.5,143,238.5z"/>
	<path d="M101.8,25c-1.6-0.3-3.1-0.9-4.7-0.9c-3.6,0-6.5,2.9-6.6,6.6c-0.4,10.7,1.4,12.4,11.3,10.7
		c1.4-0.2,2.9-0.5,4.3-0.7c0.2,0.3,0.3,0.6,0.5,0.8c-0.6,0.6-1.2,1.8-1.9,1.8c-4.2,0.4-8.3,0.8-12.5,0.9c-2.6,0-4.1-1.9-4.9-4.5
		c-2.7-8.7,3.7-18.7,11.4-17.7c1.3,0.2,2.5,1.3,3.8,2C102.3,24.2,102.1,24.6,101.8,25z"/>
	<path d="M232,99.6c1.6-2.8,3.3-5.7,4.9-8.5c-4.5-3.3-4.3-7,0.8-9.7c1.5-0.8,3.3-1.3,4.9-1.7c4.1-0.9,5.8,0.6,5.9,4.9
		c0.1,3.8,0.3,7.7,0.5,11.5c-0.3,0.1-0.6,0.2-1,0.4c-0.5-0.9-1-1.7-1.5-2.6c-0.6-1.3-1.3-3.7-1.8-3.7c-1.8,0.2-4,0.7-5.3,2
		c-2.4,2.4-4.2,5.4-6.2,8.1C232.8,100,232.4,99.8,232,99.6z M240.8,88.7c0.1-0.2,0.1-0.4,0.2-0.5c0.6,0,1.2,0.2,1.7,0
		c1.2-0.5,3-0.9,3.2-1.7c0.2-1.1-0.6-2.9-1.5-3.6c-1-0.7-3-1-4-0.4c-1.6,1-2.7,2.8-4.1,4.3C237.9,87.4,239.4,88.1,240.8,88.7z"/>
	<path d="M84.5,87.2c-2.4,0.3-4.7,0.8-7.1,0.9c-0.9,0-1.9-0.6-2.9-1c0.8-0.6,1.5-1.6,2.4-1.8c1.7-0.4,3.5-0.4,5.2-0.3
		c1.7,0.1,3.9,0.1,5,1.2c0.7,0.7-0.3,3.3-0.6,5.3c3.9,4.8,4.2,6.3,1.5,10.5c-1.8,2.7-9.2,4.6-11.8,2.9c-0.4-0.2-0.7-1.1-0.6-1.5
		c0.1-0.4,0.9-0.9,1.3-0.9c1.2,0,2.3,0.6,3.4,0.5c1.6-0.1,3.6-0.1,4.5-1.1c1.2-1.2,2.2-3.6,1.8-5.1c-0.3-1.2-2.7-1.9-4.2-2.7
		c-0.9-0.5-1.9-0.9-2.9-1.4c0.8-0.7,1.4-1.6,2.3-2.2c1-0.7,2.1-1.2,3.1-1.8C84.7,88.1,84.6,87.7,84.5,87.2z"/>
	<path d="M142.8,40.2c-4.4,0-6.8-2.4-6.9-6.9c-0.1-4,6.7-10.6,10.8-10.4c2.9,0.1,6.6,4.6,6.6,8.1
		C153.4,35.6,148.3,40.2,142.8,40.2z M139.4,35c0.4,0.5,1.3,2.2,2.5,2.6c2.6,0.8,7.7-1.8,8.5-4.6c0.5-1.8,0.2-4.1-0.6-5.8
		c-0.5-1-2.5-1.9-3.7-1.8C143.4,25.6,139.6,30.8,139.4,35z"/>
	<path d="M203.3,28.5c0.2,5.8,1.7,6.8,8,5.7c1.3-0.2,2.8,0.2,4.2,0.4c-1.3,0.7-2.5,2-3.8,2.1c-2.7,0.3-5.7,0.6-8.2-0.2
		c-5.2-1.6-6.5-7.2-3.3-11.8c1.7-2.4,3.6-4.8,6.7-4.6c1.3,0.1,2.6,1.1,3.8,2c0.3,0.2,0.3,1.5,0,1.9c-0.2,0.3-1.3,0.3-1.8,0.1
		C204.4,22.2,203.1,23.2,203.3,28.5z"/>
	<path d="M205.7,254c-3.3-0.4-5.9-0.7-8.5-0.9c-2.9-0.2-5.3-1-6.3-4.2c-1-3.2,0.2-5.5,2.4-7.4c3.1-2.7,6.7-2.4,10.3-1.8
		c0.5,0.1,1.2,1.1,1.3,1.8c0.5,3.8,0.8,7.7,1.1,11.6C206,253.6,205.6,254.2,205.7,254z M200.9,246.3c-0.4-1.9,0.6-4.9-2.7-4.7
		c-2.7,0.2-4.6,1.9-4.8,4.9c-0.2,2.8,1.4,4.2,4.1,4.2C200.4,250.7,201.2,249.1,200.9,246.3z"/>
	<path d="M64,172.6c0-3.1-0.2-6.2,0.1-9.2c0.1-0.9,1.5-2,2.5-2.3c2.2-0.7,4.6-0.8,6.9-1.3c3.3-0.7,4.2,0.1,4,3.8
		c-0.1,2.5-0.4,4.9-0.2,7.4c0.1,1.8,0.9,3.5,1.2,5.2c0.2,0.9,0.3,1.9,0,2.6c-0.2,0.4-1.5,0.9-1.7,0.7c-0.6-0.6-1.3-1.5-1.3-2.3
		c-0.3-3.5-0.4-7.1-0.6-10.7c-0.1-1.7,0.4-4.3-2.4-3.7c-2.4,0.5-6.2-0.8-6.5,3.7c-0.2,3.5,0.2,7.1,0.2,10.7c0,0.8-0.5,1.6-0.8,2.4
		c-0.6-0.7-1.5-1.4-1.6-2.3c-0.3-1.6-0.1-3.2-0.1-4.8C63.7,172.6,63.9,172.6,64,172.6z"/>
	<path d="M67.5,195.7c0,1.8,0.2,3.6,0,5.3c-0.8,4.7,2.8,3.2,4.7,3.8c2.1,0.6,3.6,0.1,3.6-2.8c0-2.7,0.2-5.4,0.5-8.1
		c0.1-0.7,0.9-1.4,1.4-2c0.3,0.8,0.9,1.6,0.9,2.4c0,1.4-0.5,2.9-0.7,4.3c-0.5,3.5-0.1,6.2,4.4,5.5c0.7-0.1,2.1,2,2.3,3.2
		c0.3,1.9,0,3.9-0.3,5.8c-0.1,0.6-0.7,1-1.1,1.5c-0.5-0.4-1.3-0.8-1.4-1.3c-0.2-0.9,0-1.9,0.1-2.9c0.4-3.4-0.6-4.1-3.8-3.8
		c-3.9,0.4-7.8,0.3-11.7,0.2c-0.5,0-1.5-1.3-1.5-1.9c0.1-3,0.6-6,0.9-9C66.4,195.7,67,195.7,67.5,195.7z"/>
	<path d="M217,156.5c0.4,0.6,0.8,1.1,0.9,1.6c0.4,1.7-0.6,4.3,2.8,3.7c2.6-0.5,4.8-1,4.1-4.7c-0.2-1.1,0.6-2.3,1-3.5
		c0.6,1.1,1.6,2.3,1.7,3.4c0.3,4.8,0.3,9.7,0.4,14.9c-1.6,0.7-2.6-0.4-2.9-2.6c-0.2-1.7-0.3-3.4-0.5-5c-5-0.3-5.1-0.2-5.4,4.6
		c0,0.7-0.6,1.4-1,2.1c-0.5-0.3-1.5-0.6-1.5-1c-0.4-4.2-0.6-8.5-0.8-12.8C215.8,157.1,216.5,156.8,217,156.5z"/>
	<path d="M42.8,174.9c-4,0-6.5-2.2-6.5-5.6c0-2.9,3.2-5.8,6.3-5.7c2.7,0.1,5.7,3.7,5.6,7
		C48.1,173.6,46.3,174.9,42.8,174.9z"/>
	<path d="M115.3,117c2.1,0.4,5-0.1,5.5,3.5c0.5,3-1.8,6.6-4.9,7.7c-4.9,1.7-4.8,1.7-3.8,7.2c0.3,1.7,0,3.5-0.1,5.3
		c-3.2-0.5-1.7-3.3-2-5c-0.6-3.7-1-7.5-1.3-11.3C108.2,117.9,109.1,116.9,115.3,117z M116.4,119.4c-4.6,0-5.7,0.9-5.6,3.6
		c0.1,1.7,0.1,3.6,2.5,3.6c2.7,0,5.3-2,5-4.5C118.1,121,116.7,120,116.4,119.4z"/>
	<path d="M111.4,23c1.9-0.1,3.8-0.4,5.6-0.3c4.3,0.1,8.6,0.3,12.9,0.7c0.7,0.1,1.3,1,2,1.5c-0.8,0.3-1.5,1-2.2,1
		c-6.8-0.5-8.7,1.8-7.1,9.1c0.2,1.1,1,2.3,0.8,3.1c-0.4,1.1-1.6,2-2.4,3c-0.7-0.9-2.1-1.8-2-2.6c0-2.9,0.6-5.9,0.9-8.8
		c0.4-4.1-0.3-4.8-4.1-4.5c-1.4,0.1-2.8-0.2-4.2-0.3C111.4,24.2,111.4,23.6,111.4,23z"/>
	<path d="M161.6,252.4c-2,0.2-3.9,0.9-5.4,0.5c-1.6-0.4-3.7-1.7-4.2-3.1c-0.5-1.4,0.3-3.8,1.3-5.2
		c2.6-3.7,6.7-3.4,10.5-3.9c0.5-0.1,1.5,1.4,1.6,2.3c0.4,3.5,0.6,7,0.8,10.5c0,0.6-0.2,1.8-0.5,1.9c-0.7,0.2-1.7,0.1-2.2-0.4
		C162.8,254.4,162.3,253.4,161.6,252.4z M156.6,250.4c4.3-0.1,5.7-1.1,5.7-3.4c0-2-0.4-3.7-2.9-3.5c-2.6,0.2-5.6,2.6-5.1,4.5
		C154.7,249.1,156.1,249.9,156.6,250.4z"/>
	<path d="M36.1,84.4c3.2,0,5.1,1.9,5.2,5.1c0.1,3.4-2.2,5.9-5.4,5.9c-2.9,0-6.3-2.8-6.4-5.3
		C29.5,87.2,32.5,84.5,36.1,84.4z"/>
	<path d="M184,254.1c-2.3,0.5-2.5-2-3.1-3.8c-1.5-4.3-1.5-4.4-6-2.6c0,1,0.2,2.1-0.1,3.2c-0.1,0.5-1,1.1-1.5,1.1
		c-0.5,0-1.3-0.7-1.4-1.2c-0.4-3.8-0.7-7.6-0.9-11.3c0-0.5,0.5-1,1.3-2.4c0.7,2,0.9,3.4,1.6,4.5c0.6,0.9,1.8,2.4,2.4,2.2
		c1.4-0.4,3.1-1.2,3.9-2.5c0.9-1.4,0.8-3.4,1.2-5.1c0.3,0.1,0.7,0.1,1,0.2C182.8,242.3,183.4,248,184,254.1z"/>
	<path d="M218.6,20.1c5.1-0.8,10.2-1.6,15.2-2.3c0.4-0.1,1.3,0.6,1.3,0.8c-0.1,0.6-0.4,1.4-0.8,1.7
		c-1.3,0.7-3.6,0.9-3.8,1.8c-0.7,2.4-0.5,5.1-0.6,7.6c0,0.7,0.6,1.5,0.4,2.1c-0.2,1.2-0.8,2.4-1.2,3.6c-1-0.9-2.5-1.6-2.8-2.6
		c-0.6-2.2-0.7-4.6-0.5-6.9c0.1-3-0.8-4.3-3.8-4.1c-1.2,0.1-2.4-0.5-3.7-0.7C218.5,20.7,218.6,20.4,218.6,20.1z"/>
	<path d="M123.3,128.6c0.6-1.2,1.2-2.4,1.8-3.7c1.1-2.2,2.1-4.4,3.3-6.4c0.4-0.7,1.3-1.2,1.9-1.8
		c0.5,0.6,1.1,1.2,1.4,1.9c0.6,1.3,1,2.6,1.5,3.9c0.4,0.1,0.7,0.2,1.1,0.3c1-1.8,1.9-3.6,3-5.4c0.5-0.7,1.3-1.2,1.9-1.8
		c0.6,0.7,1.4,1.3,1.7,2.1c0.8,2.4,1.6,4.9,2.2,7.3c0.2,0.6-0.3,1.4-0.4,2.2c-0.8-0.3-1.9-0.4-2.2-1c-0.8-1.5-1.1-3.1-1.7-4.9
		c-1.6,1.6-2.7,3.8-4.3,4.2c-1.3,0.3-3.2-1.4-5.4-2.5c-1.1,1.6-2.8,4-4.4,6.4C124.1,129.2,123.7,128.9,123.3,128.6z"/>
	<path d="M168.3,204.4c-3.9-0.3-7.3-0.2-10.6-0.9c-1.7-0.3-3.9-1.6-4.4-3c-0.4-1.2,0.8-3.8,2-4.8
		c1.9-1.5,4.3-2.5,6.6-3.1c4.5-1,5.2-0.1,5.2,4.5c0,1.3,0.3,2.7,0.5,4C167.8,202.4,168.1,203.6,168.3,204.4z M158.2,201.6
		c2.8-1,6.1,0.2,5.7-4c-0.1-1-1.3-2.6-2.1-2.7c-2.8-0.4-6.5,2.2-6,4C156,200,157.5,200.8,158.2,201.6z"/>
	<path d="M272.3,169.7c-7.2,1.4-12.1-2-12.2-8.2c-0.1-4.4,2.4-7.9,6.6-8.6c1.2-0.2,3.3,0.3,3.6,1
		c0.4,1.2,0.1,3.3-0.7,4.2c-1.8,1.8-4.1,3.1-6.3,4.7C263.6,168.6,270.1,166,272.3,169.7z M263.1,158.1c0.4,0.5,0.8,0.9,1.2,1.4
		c1.2-1.1,2.4-2.2,3.6-3.3c-0.3-0.4-0.7-0.8-1-1.2C265.7,156,264.4,157,263.1,158.1z"/>
	<path d="M81.2,252.8c-0.7,0.4-1.5,1.1-2.2,1c-3.5-0.3-6.9-0.6-10.4-1.2c-0.8-0.1-1.8-1.2-2.2-2.1
		c-3.4-6.1,0.1-13,6.9-13.5c0.8-0.1,1.7,0.1,2.3,0.5c0.5,0.4,0.7,1.4,1,2.1c-0.7,0.2-1.4,0.8-2,0.6c-2.8-0.6-5.1,1.1-5.9,4.4
		c-0.6,2.9,0.8,5.6,3.5,6.2c2.8,0.6,5.7,0.7,8.6,1C81,252.1,81.1,252.5,81.2,252.8z"/>
	<path d="M223.6,245.3c-0.9-1.3-2.2-2.5-2.5-3.9c-0.7-3.1-0.9-6.3-1-9.5c0-1.1,0.8-2.4,1.5-3.2c1-1.1,2.4-1.9,3.7-2.7
		c0.9-0.5,1.9-0.7,2.9-1c0,1,0.2,2.1-0.1,3c-0.7,2.3-1.9,4.5-2.3,6.9c-0.4,2.3-0.1,4.8-0.2,7.2c-0.1,1-0.5,2-0.8,2.9
		C224.3,245.2,223.9,245.3,223.6,245.3z"/>
	<path d="M123.7,176c-0.1-3.5-0.3-6.9-0.3-10.2c0-0.6,0.9-1.1,1.4-1.7c0.3,0.8,0.9,1.5,1,2.3c0.1,1.9,0,3.9,0,5.9
		c0.4,0.2,0.9,0.4,1.3,0.6c2.4-2.3,4.8-4.7,7.3-7c1-0.9,2.1-1.7,3.2-2.5c0.4,1.4,0.8,2.8,1.2,4.3c0.4,1.7,0.8,3.3,1,5
		c0.1,0.9-0.1,1.9-0.2,2.8c-0.9-0.6-2.3-1-2.7-1.9c-0.6-1.5-0.6-3.3-0.9-5.2C131.4,170.2,129.6,175.8,123.7,176z"/>
	<path d="M170.1,171.1c3.1-2.9,6.2-5.9,9.8-9.2c0.5,1.7,0.9,3,1.3,4.3c0.6,2.1,1.2,4.2,1.6,6.4c0.2,1-0.1,2.1-0.2,3.1
		c-0.8-0.6-2.1-1.1-2.4-1.9c-0.8-2-1.2-4.2-1.9-6.9c-2.2,2-4,3.8-6,5.3c-1.4,1-3,1.6-4.5,2.3c-0.3-1.6-1-3.2-0.9-4.8
		c0.1-2.7-0.8-5.8,2.2-9c0,3.9,0,6.9,0,9.8C169.4,170.7,169.7,170.9,170.1,171.1z"/>
	<path d="M51.9,247.1c-0.1,2.9-3.2,5.1-6.7,4.9c-3-0.2-5-2-4.8-4.6c0.2-3.2,2.8-5.6,5.9-5.5
		C49.5,241.9,52.1,244.3,51.9,247.1z"/>
	<path d="M196.4,88.6c0.7-0.6,1-0.7,1.3-1c4.1-4.5,4-4.4,6.3,1.3c0.8,2,2.1,3.7,3.4,5.9c-4.5,0.9-4.8-3.3-6.3-5.1
		c-2.7,1.1-5,2-7.4,3c-0.2-0.4-0.4-0.7-0.7-1.1c-0.3,1.1-0.5,2.3-1.1,3.4c-0.3,0.6-1.1,0.9-1.6,1.4c-0.2-0.7-0.7-1.6-0.5-2.2
		c0.5-2.5,1.2-5,2-7.4c0.3-0.9,0.8-1.7,1.2-2.5c0.7,0.7,1.5,1.2,2.1,2C195.6,86.9,195.9,87.7,196.4,88.6z"/>
	<path d="M225.4,82.5c-0.2,2-0.4,3.1-0.5,4.3c-0.1,2.4,0,4.7,0,7.1c0,0.7,0,1.6-0.3,1.9c-0.4,0.3-1.3,0.2-1.8,0
		c-2.3-0.8-4.7-1.6-7-2.6c-1.5-0.7-2.9-2-4.3-3c1.1-1.5,1.9-3.8,3.3-4.5C217.9,84.3,221.3,83.6,225.4,82.5z M218.8,91.9
		c1.2-1.2,2.1-2.1,3.1-3c-0.9-0.8-2-2.6-2.6-2.4c-1.7,0.4-3.2,1.7-4.8,2.6C215.7,90,217,90.7,218.8,91.9z"/>
	<path d="M161.9,115.4c0.4,4.7,0.8,8.8,1.2,12.4c-3.4-0.5-6.3-0.8-9.1-1.5c-1.7-0.4-3.2-1.5-4.8-2.3
		c1.1-1.7,1.8-4.1,3.3-5C155.2,117.4,158.3,116.7,161.9,115.4z M155.3,124.9c1.6-1.1,3-2.1,4.5-3.1c-0.9-0.8-2.1-2.5-2.6-2.3
		c-1.8,0.7-3.3,2.1-4.9,3.3C153.1,123.3,153.9,123.9,155.3,124.9z"/>
	<path d="M125.4,205.3c-4.4,3-9.4,2.7-11.2-0.6c-2.4-4.3-0.9-10.4,3.1-12.4c2.3-1.2,4.6-1.3,6,1.5
		c1.3,2.6,0,4.4-2.2,5.7c-1.6,0.9-3.3,1.8-5.2,2.8C118.3,206.6,122.5,203.6,125.4,205.3z M115.8,198.2c0.3,0.4,0.6,0.7,1,1.1
		c1.4-1.3,2.9-2.6,4.3-3.9c-0.5-0.5-1.2-1.5-1.6-1.4C117.2,194.4,115.6,195.5,115.8,198.2z"/>
	<path d="M171.8,95.2c3.6,0.6,7.1,1.2,11.2,1.9c-3.3,2-10.9,1.4-12.9-0.7c-1.8-1.9-1.7-6,0.3-8.9c1.8-2.6,6-4,8.1-2.7
		c2.2,1.4,2,4.4-0.5,5.9c-1.9,1.1-4,1.9-6,2.9C171.9,94.2,171.8,94.7,171.8,95.2z M171.8,89c0.3,0.6,0.6,1.2,0.8,1.7
		c1.7-0.9,3.4-1.7,5-2.6c-0.3-0.6-0.6-1.3-0.9-1.9C175.1,87.2,173.4,88.1,171.8,89z"/>
	<path d="M112.5,252.9c-3.6,0.1-5.9-2.1-6-5.6c-0.1-3.3,3.5-6,8.2-6.1c3.2,0,5.1,1.9,5.1,5.1
		C119.8,250,116.8,252.8,112.5,252.9z M113,251.2c1.7-2,2.9-3.4,4.2-4.9c-1.1-1-2.1-2.6-3.3-2.8c-2.8-0.5-3.8,2-4.1,4.3
		C109.7,248.6,111.4,249.6,113,251.2z"/>
	<path d="M94.8,244.7c-1.9,3.7-3.5,7-5.2,10.3c-0.4-0.1-0.8-0.3-1.1-0.4c0.3-1.2,0.6-2.5,0.9-3.7c1-3.3,2.1-6.6,3.3-9.9
		c0.3-0.8,1.5-2,1.6-1.9c1.1,0.7,2.4,1.4,3,2.5c1.5,2.9,2.5,5.9,3.9,8.9c0.4,0.9,1.6,1.5,2,2.4c0.3,0.8,0,1.9,0,2.8
		c-0.9-0.2-2.2-0.1-2.5-0.6C98.8,251.8,96.9,248.4,94.8,244.7z"/>
	<path d="M96.4,86c0.2,1.3,0.3,2.6,0.6,5c2.1-1.1,4.3-1.5,5.2-3c1-1.6,0.8-4,1.1-6.1c0.3,0,0.6,0,0.9,0
		c0.2,0.7,0.4,1.4,0.5,2.1c0.5,4.5,1,8.9,1.4,13.4c0.1,0.7-0.4,1.4-0.7,2.1c-0.6-0.4-1.6-0.7-1.8-1.3c-0.6-1.7-1-3.5-1.5-5.5
		c-2.4,0-5.1-0.9-5.3,3.2c0,0.3-0.8,0.9-1.3,0.9c-0.5,0-1.3-0.6-1.3-0.9c0.1-3.3,0.3-6.7,0.5-10C95.4,86,95.9,86,96.4,86z"/>
	<path d="M123.1,85.8c0.1,1.1,0.2,2.2,0.2,3.3c0,1.3-0.2,2.7-0.1,4c0.1,1.9,0.3,3.8,0.5,5.7c-3.7-0.4-7.4-0.7-11.1-1.4
		c-0.5-0.1-1.2-3.2-0.7-4.1c1.2-1.9,3.1-3.5,4.9-4.8C118.5,87.4,120.5,86.9,123.1,85.8z M120.8,92.1c-0.4-0.4-1.8-2.1-2.1-1.9
		c-1.7,1-3.1,2.5-4.5,3.8c1,0.8,2,2.1,3,2.2C118.9,96.3,121,96.1,120.8,92.1z"/>
	<path d="M90.1,177c-3.6,0-6.3-2.2-6.4-5.2c-0.1-4.5,3.1-8,7.3-8c2.8,0,4.9,2.6,5,6.3C96.2,174.2,93.8,177,90.1,177z
		 M95.6,170.9c-2.2-2-3.3-3.7-4.7-4.2c-1.8-0.6-5.2,2.8-4.4,4.4c0.7,1.5,2.5,3.1,3.9,3.2C91.7,174.4,93.2,172.6,95.6,170.9z"/>
	<path d="M161.7,83.6c0.5,4.3,1,7.9,1.3,11.6c0,0.4-1.6,1.5-2.4,1.4c-1.8-0.1-3.7-0.5-5.5-1.2c-1.6-0.6-4.3-1.4-4.4-2.4
		c-0.2-1.7,0.9-4.2,2.2-5.1C155.4,86.1,158.6,85,161.7,83.6z M159.5,89.2c-0.1-0.1-1.3-1.7-1.5-1.6c-1.8,1.1-3.4,2.5-5,3.8
		c1.1,0.6,2.1,1.6,3.3,1.7C158,93.5,159.8,93.1,159.5,89.2z"/>
	<path d="M65.1,94c0.7-2.9,1.4-5.7,2.1-8.6c0.4,0,0.7,0,1.1,0.1c0.1,1.1,0.4,2.3,0.2,3.4c-0.9,5.5-1.8,11.1-2.8,16.6
		c-0.1,0.6-1,1.1-1.5,1.7c-0.4-0.6-1.3-1.4-1.2-1.8c2.2-6.3-1.6-10.7-4.3-15.5c-0.5-0.8-0.6-1.9-0.9-2.8c0.4-0.2,0.8-0.5,1.2-0.7
		c1.7,2.6,3.3,5.3,5,7.9C64.3,94.2,64.7,94.1,65.1,94z"/>
	<path d="M233.7,158.2c0.6-0.9,1.1-1.8,1.7-2.7c0.5,0.9,0.8,2,1.4,2.8c0.6,0.9,1.5,1.7,2.2,2.4c0.1,0.1,0.4,0.1,0.7,0.2
		c2.5,0.8,5.1,1.7,5.1,5.1c0,2.3-4.4,5-7,4.1c-1.3-0.5-2.9-2.2-3.1-3.6c-0.5-2.6-0.1-5.3-0.1-8C234.3,158.4,234,158.3,233.7,158.2z
		 M242.6,165.8c-1.7-1-2.7-1.7-3.8-2c-0.4-0.1-1.1,0.8-1.6,1.3c0.8,0.9,1.6,1.9,2.6,2.5C240.1,167.8,241.1,166.8,242.6,165.8z"/>
	<path d="M145,163.4c5-2.4,10.9-0.7,15.9-3c0.3,0.5,0.5,0.9,0.8,1.4c-0.9,0.7-1.8,2-2.7,2c-5.1,0.3-5.6,0.8-4.7,6.2
		c0.2,1.4,0.8,2.8,1,4.3c0.1,0.6-0.6,1.4-0.9,2.1c-0.6-0.5-1.4-0.9-1.6-1.5c-0.5-1.9-1-3.8-1.1-5.8c-0.2-3.3-1.5-4.8-4.7-3.9
		c-0.5,0.1-1.1-0.1-1.7-0.2C145.2,164.4,145.1,163.9,145,163.4z"/>
	<path d="M105.1,123c-0.1,3.4-3.1,6.5-6.4,6.4c-2.5-0.1-3.8-1.8-3.9-4.3c-0.2-3.1,3.5-7.3,6.2-7.3
		C103.6,117.6,105.2,119.7,105.1,123z M103.5,123.6c0.3-0.8,0.5-1.5,0.8-2.3c-1.1-0.4-2.7-1.5-3.1-1.1c-1.5,1.3-2.6,3.2-3.8,4.8
		c0.7,0.6,1.8,1.8,2.1,1.6C100.9,125.8,102.2,124.6,103.5,123.6z"/>
	<path d="M129.4,194c1-0.3,2.1-0.6,3.1-0.8c3.7-0.4,7.4-0.9,11.1-1.1c0.7-0.1,1.5,0.6,2.3,0.9c-0.6,0.6-1.1,1.6-1.7,1.7
		c-4.9,1-5.4,1.8-3.7,6.9c0.3,0.9,0.7,1.7,1,2.6c-0.2,0.3-0.4,0.5-0.7,0.8c-0.7-0.5-1.6-0.9-2.1-1.6c-0.5-0.6-0.6-1.6-0.7-2.4
		c-0.4-4.1-2.1-6.3-6.4-5.2c-0.6,0.2-1.4-0.4-2.2-0.6C129.4,194.7,129.4,194.4,129.4,194z"/>
	<path d="M249.1,152.7c0.3,1.2,0.5,2.2,0.7,3.3c0.6,3.8,1.3,7.6,1.8,11.5c0.1,0.8-0.4,1.7-0.6,2.5
		c-0.7-0.3-1.9-0.5-2-0.8c-0.5-5.3-0.8-10.6-1.1-15.9C248,153.2,248.4,153,249.1,152.7z"/>
	<path d="M223.3,249.1c1.5,2,2.9,3.1,2.9,4.1c0,0.9-1.6,2.7-2.4,2.6c-1.1-0.1-2.4-1.5-2.8-2.6
		C220.8,252.5,222.1,251.2,223.3,249.1z"/>
	<path d="M295.4,22.6c-1.7,1.3-2.6,2.4-3.7,2.8c-0.4,0.1-1.9-1.4-1.8-1.9c0.3-1.2,1.2-2.3,1.9-3.5
		C292.7,20.8,293.7,21.4,295.4,22.6z"/>
	<path d="M296.1,34.7c-1.8,1.1-2.8,2.1-4,2.3c-0.5,0.1-1.9-1.8-1.7-2.4c0.4-1,1.5-2.1,2.5-2.3
		C293.6,32.2,294.5,33.5,296.1,34.7z"/>
	<path d="M142,377.1c-2.8,1.2-5.4,2.1-7.8,3.4c-1,0.5-2.3,2-2.2,2.8c0.2,1.3,1.1,3.2,2.2,3.7c8.4,4,16.8,7.8,25.3,11.5
		c8.2,3.6,16.5,6.9,24.7,10.4c1.4,0.6,2.5,2.1,3.7,3.2c-0.1,0.4-0.1,0.9-0.1,1.3c-1.5,0.1-3.2,0.7-4.4,0.1
		c-13.1-5.9-26-12.1-39.1-18.1c-6.5-3-13.1-5.7-19.8-8.2c-1.6-0.6-3.7-0.2-5.3,0.5c-21,8.7-42,17.6-63,26.4
		c-3.1,1.3-6.3,2.7-9.5,3.7c-1.3,0.4-2.9,0.1-4.4,0.1c-0.1-0.5-0.2-1-0.3-1.6c23.2-9.9,46.3-19.8,70.2-30c-1.5-0.4-2.6-0.6-3.5-1
		c-1-0.5-2.6-1.2-2.8-2c-1.5-7.1-7.7-5.7-11.8-8.1c-0.3,0.3-0.6,0.5-0.9,0.8c1.5,2.5,3.2,4.8,4.6,7.4c0.5,1,0.5,2.3,0.8,3.4
		c-1.1-0.4-2.6-0.5-3.3-1.4c-1.8-2.3-3.3-5-5.5-8.5c-1.6,3.2-2.8,5.7-4,8.2c-0.4,0.8-0.7,1.8-1.4,2.1c-0.5,0.3-1.8-0.2-2.1-0.7
		c-0.3-0.7-0.3-2,0-2.7c1.9-3.4,4-6.6,6.3-10.3c-1.1-0.5-1.9-1.1-2.8-1.4c-11.1-3.7-22.3-7.2-33.4-10.9c-0.8-0.3-1.4-1.2-2.1-1.8
		c1-0.4,2-1.4,2.8-1.2c2.5,0.5,5,1.3,7.4,2.1c12,3.9,24.1,7.7,36.1,11.6c1.2,0.4,2.4,0.9,3.6,1.4c2.8,1.4,5.5,2.1,8.6,0.3
		c2.7-1.5,6-1.7,8.7,0.4c1.4,1.1,2.8,3,3.2,4.7c0.6,3.1,1.7,3.3,4,2c2.9-1.7,5.6-3.4,5.8-7.5c0.1-2.4,1.8-3.1,3.7-1.6
		c2.2,1.7,3.7,1,5.2-1.2c2.2-3.1,3.5-2.9,6.1-0.3c0.7,0.7,2.3,0.8,3.3,0.4c6.6-2.5,13.1-5.2,19.6-7.9c7.6-3.1,15.2-6.2,22.8-9.3
		c0.8-0.3,1.6-0.8,2.3-0.7c1.1,0.1,2.2,0.7,3.3,1.1c-0.8,0.7-1.4,1.7-2.3,2.1c-14.8,6.1-29.5,12.1-44.4,17.9
		c-3.4,1.3-4.5,3.1-3.3,6.6c0.2,0.7,0.4,1.4,0.4,2.2c0,1.2-0.3,2.3-0.4,3.5c-0.9-0.8-2.1-1.5-2.7-2.6
		C143.4,381.5,142.8,379.4,142,377.1z M118.4,379.7c-1.8-4.4-4.3-5-8.1-2.7C112.9,377.9,115.2,378.7,118.4,379.7z"/>
	<path d="M301.9,260.9c-2.3,0.8-3.3,1.1-4.7,1.6c3.6,3.1,6.7,6.4,10.4,8.9c7.3,4.9,12.3,11.8,15.7,19.8
		c2.7,6.3,4.7,13.1,6.1,19.9c1.7,8-0.8,15.6-4.1,22.7c-3.7,7.7-7.1,15.8-13.4,21.7c-6.8,6.4-13.7,12.9-20.7,19
		c-2.4,2-5.4,3.3-8.3,4.5c-0.9,0.3-2.8-0.4-3.3-1.3c-0.9-1.5-1.5-3.8,0.9-4.6c13.5-4.2,23.1-14.2,31.9-24.8
		c6.5-7.7,12-16.7,12.7-27.4c0.9-12.9-1.4-25.2-10.3-35.1c-5-5.6-10-11.2-15.1-16.8c-1.4-1.5-2.9-3.3-5.4-1.6
		c-0.5,0.3-2.1-0.3-2.6-1c-4.1-4.7-8.1-9.5-11.9-14.4c-0.7-0.9-0.2-2.8-0.2-4.3c1.1,0.4,2.3,0.7,3.3,1.3c4.7,2.7,9.4,5.4,14,8.1
		C298.3,257.9,299.6,259.1,301.9,260.9z"/>
	<path d="M219.7,336.4c-17.3,0.9-34.7,1.7-52,2.5c-26.3,1.2-52.6,2.4-79,3.6c-9.9,0.4-19.8,0.6-29.7,0.8
		c-0.8,0-1.8,0.1-2.4-0.2c-0.8-0.5-1.3-1.4-2-2.1c0.8-0.5,1.6-1.3,2.5-1.3c8.2-0.5,16.5-0.9,24.7-1.2c11.6-0.4,23.3-0.7,34.9-1.1
		c19.3-0.7,38.7-1.3,58-2.1c15.5-0.6,31-1.8,46.5-2.1c19.7-0.4,39.4,0,59.1,0c3.8,0,7.7-0.3,11.5-0.2c1,0,1.9,1.2,2.9,1.8
		c-1,0.5-2.1,1.5-3.1,1.5c-22.2-0.9-44.5-1-66.7,0.3c-1.7,0.1-3.5,0-5.2,0C219.7,336.6,219.7,336.5,219.7,336.4z"/>
	<path d="M41.4,327c-3.1,0.7-5.9,1-8.5,1.9c-0.8,0.3-1.7,1.9-1.6,2.8c0.3,2.7,1.3,5.3,1.4,7.9c0.1,1.3-1,2.7-1.6,4.1
		c-1-0.8-2.4-1.3-2.9-2.3c-0.7-1.7-1.1-3.8-1.2-5.7c-0.6-6.9-1-13.8-1.4-20.7c0-0.7-0.1-1.6,0.3-2.2c0.5-0.9,1.4-1.5,2.1-2.2
		c0.6,0.9,1.6,1.9,1.6,2.8c0,2.3-0.4,4.6-0.7,6.9c-0.3,2.8,0.5,4.1,3.5,3.5c11-2.4,8.6-0.3,8.9-11c0-1.6-1.8-4.7,1.2-4.7
		c3.2,0,1.5,3.2,1.5,5c0.3,7.7,0.5,15.4,4.5,22.3c0.4,0.7,0.6,1.6,0.6,2.5c0,1.5-0.3,3-0.4,4.4c-1.5-1.1-3.8-1.8-4.5-3.3
		c-1.2-2.8-1.5-6.1-2.2-9.3C41.9,329,41.7,328.1,41.4,327z"/>
	<path d="M201.2,423.3c-0.2,7.4-2.8,14.5-0.9,22.1c0.7,2.9-1.9,5.1-5.5,4.5c0.4-3,0.8-6.1,1.1-9.2
		c1-9.2,1.9-18.3,3-27.5c0.1-0.8,1-1.4,1.5-2.1c0.7,0.6,1.7,1.1,2,2c2.5,6.2,4.8,12.5,7.4,18.6c1.2,2.9,3,5.4,4.4,8.2
		c0.9,1.6,1.8,3.8-0.6,4.5c-0.8,0.2-2.7-1.8-3.4-3.2c-2.9-6-5.5-12.1-8.1-18.2C201.8,423.2,201.5,423.2,201.2,423.3z"/>
	<path d="M83,318.7c-2.5-1.6-4.4-2.9-6.4-4.2c-1.1-0.7-2.2-1.4-3-2.4c-0.5-0.6-0.4-1.7-0.5-2.6c0.8,0,1.9-0.3,2.5,0.1
		c6.6,4.6,13.1,9.3,19.7,13.9c1.9,1.3,1.4,2.7,0.4,4.4c-2.8,4.8-7.1,4.7-11.4,4c-2.1-0.4-4.2-1.4-6.1-2.6c-3-1.9-2.9-6.1,0.1-8.1
		C79.6,320.4,81,319.8,83,318.7z M90.6,327.1c-1.4-2.4-2.4-5-5.7-5.2c-2.6-0.1-4.8,0.6-6,3.1C81.1,329,87.2,329.8,90.6,327.1z"/>
	<path d="M234.5,312c3.8-2.4,7.2-4.7,10.7-6.8c0.9-0.6,2-1,3.1-1.3c0.1,0,0.9,1.2,0.8,1.4c-0.8,0.9-1.6,1.8-2.6,2.5
		c-1.4,1-3,1.8-5.4,3.3c3.7,3,7,5.5,10.1,8.2c1,0.8,2.3,2.7,2,3.3c-1.2,2.4-2.6,0.7-3.9-0.3c-3.2-2.4-6.4-4.9-9.7-7
		c-1-0.7-3-0.7-4-0.1c-0.7,0.4-0.6,2.4-0.7,3.7c-0.1,1.3,0.1,2.8-0.3,4c-0.1,0.5-2.2,0.9-2.4,0.6c-0.8-1.1-1.4-2.4-1.5-3.7
		c-0.3-3.3-0.4-6.6-0.2-9.9c0.1-1.2,1.1-2.4,1.7-3.6c0.7,1,1.5,2,2.1,3.1C234.3,309.8,234.3,310.5,234.5,312z"/>
	<path d="M57.8,326.9c0.1,3.1,1.5,4.2,3.8,4.2c2.7,0.1,5.4,0,8,0.2c0.8,0.1,1.5,0.8,2.2,1.2c-0.8,0.5-1.5,1.5-2.3,1.6
		c-2.8,0.2-5.6,0.2-8.4,0c-3.9-0.2-5.9-2.1-6.9-6.1c-1.1-4.3,0.8-9.7,4.2-12.1c3.1-2.2,5.9-2.1,9,0.5c1.1,0.9,2,2.1,2.7,3.3
		c2.6,4.7,2.2,5.4-2.8,5.8C64.2,325.9,61,326.5,57.8,326.9z M66.8,321.2c-3.4-5-6.9-4.3-9,1.3C61.1,322,63.9,321.6,66.8,321.2z"/>
	<path d="M285.4,404.8c2.5-1.2,5.3-2.1,7.6-3.7c1.8-1.3,0.8-3-0.8-3.7c-4.9-2.1-10-4-15-5.9c-1.4-0.5-3-0.6-4.4-1.2
		c-0.6-0.2-0.8-1.3-1.2-1.9c0.7-0.3,1.5-1.1,2-0.9c6.8,3.4,15,3,21.2,8.2c3.4,2.9,3.6,5.8-0.1,8.1c-2.8,1.8-5.8,3.1-8.9,4
		c-1.3,0.4-3.8-0.4-4.5-1.5c-0.6-1,0-3.6,0.9-4.8c1.3-1.8,3.2-3.3,5.2-4.2c2.2-1,3.8,0.1,3.5,3.3
		C288.4,400.7,285.5,399.9,285.4,404.8z"/>
	<path d="M274.5,309.9c-3.3,4.1-5.8,7.4-8.5,10.6c-0.8,1-2.2,1.5-3.3,2.2c-0.6-1.1-1.4-2.1-1.7-3.3
		c-0.8-3.2-1.5-6.4-2-9.7c-0.2-1.2,0.3-2.4,0.5-3.7c0.9,1,2.1,1.8,2.6,2.9c1,2.4,1.7,4.9,2.8,8.6c3.3-4.4,5.9-7.8,8.6-11.1
		c0.7-0.9,1.9-1.5,2.8-2.2c0.5,1.1,1.4,2.2,1.5,3.4c0.4,4.3,0.6,8.7,0.8,13c0,0.6-1,1.7-1.3,1.6c-0.9-0.2-2.2-0.8-2.4-1.5
		c-0.4-1.5-0.3-3.1-0.4-4.7C274.5,314.4,274.5,312.7,274.5,309.9z"/>
	<path d="M218.6,430.2c2.6,3.3,5.7,2,8.4,2.3c0.9,0.1,1.7,0.8,2.5,1.3c-0.6,0.8-1.1,1.9-1.9,2.3
		c-3.9,1.8-10.5-0.5-13.1-4.4c-2.5-3.7-2.1-8.9,1.1-13c2.4-3.1,5.3-3.4,7.8-0.8c2.5,2.7,2.5,6.4-0.1,8.8
		C221.9,427.8,220.4,428.8,218.6,430.2z M216.3,425.8c0.5,0.3,0.9,0.5,1.4,0.8c1.2-1.2,2.6-2.3,3.5-3.7c0.4-0.6-0.4-2-0.6-3
		c-0.9,0.3-2.2,0.3-2.5,0.8C217.2,422.3,216.9,424.1,216.3,425.8z"/>
	<path d="M192.9,325.8c-4.6-0.4-9.3-0.6-13.8-1.3c-3.4-0.5-4.5-3.5-2.5-6.6c2.4-3.7,6.1-5.2,10.1-5.9
		c1-0.2,2.2,0,3.1-0.5c2.3-1.2,3,0.2,3.5,2.1c0.8,3.3,1.7,6.6,2.2,10c0.2,1.1-1,2.4-1.5,3.6C193.5,326.7,193.2,326.2,192.9,325.8z
		 M189,321.2c0.6-4.4,0.1-5.8-2.2-6.2c-3.1-0.5-7,2.5-7.6,6.2C182.4,321.2,185.7,321.2,189,321.2z"/>
	<path d="M239.6,422.5c0.9-2.3,1.8-4.2,2.5-6.2c1.2-3.2,2.9-6.1,6.2-6.9c1.4-0.4,3.6,0.1,4.6,1.1
		c0.7,0.7,0.5,3.3-0.2,4.4c-1.7,2.6-4,4.7-6.1,7.2c2.2,2.5,4.7,0.8,7.1,0.6c1.7-0.1,3.7-2.1,4.7,0.6c0.1,0.4-2.7,2.3-4.3,2.9
		C248.5,428.3,243.9,425.6,239.6,422.5z M250.2,412.9c-0.3-0.3-0.6-0.6-0.9-0.8c-1.3,1.5-2.7,2.9-4,4.4c0.3,0.3,0.7,0.7,1,1
		C247.7,415.9,248.9,414.4,250.2,412.9z"/>
	<path d="M110,330c-2.5-0.2-5.5-0.6-6.6-4.1c-1.1-3.5-0.2-6.4,2.6-8.8c2.5-2.2,4.8-5.1,8.5-3c3,1.6,5.3,4,5.3,7.9
		C120,326.9,116.3,330,110,330z M110.2,327c3.9,0.1,7.1-2.3,7.2-4.8c0.1-2.2-2.2-5.4-3.9-5.4c-1.9,0-5.7,4.7-5.3,7
		C108.4,325.2,109.7,326.3,110.2,327z"/>
	<path d="M265,413.2c0.4,0.7,0.8,1.2,0.9,1.7c0.1,0.9,0,1.7-0.1,2.6c-0.9-0.1-2.3,0.1-2.5-0.4c-1.7-4-3.3-8-4.7-12.1
		c-0.1-0.3,0.8-1.5,1.2-1.4c0.6,0,1.5,0.6,1.8,1.1c0.7,1.3,1,2.7,1.5,4c5.6-1.6,6-2.5,4.4-7.7c-0.3-0.9,0.3-2.2,0.4-3.2
		c0.9,0.6,2,1,2.5,1.9c2.1,3.7,4.1,7.4,6,11.2c0.4,0.8,0,1.9-0.1,2.9c-1.1-0.1-2.1-0.1-3.2-0.2c-0.1,0-0.2-0.4-0.4-0.6
		C269.6,408.6,269.5,408.6,265,413.2z"/>
	<path d="M317.4,392.2c-0.9,0.3-2.1,1.1-2.7,0.8c-2.5-1.7-4.7-0.7-7,0.2c-0.9,0.3-1.8,0.5-2.7,0.8
		c-3,0.8-5.8,0.3-7.2-2.8c-1.4-3,0.8-5.1,2.5-7c0.8-0.9,1.7-1.7,2.7-2.3c4.6-3.2,5.5-2.9,8.3,2.1c1.1,2,2.7,3.7,4.2,5.3
		c0.6,0.7,1.6,1,2.5,1.4C317.8,391.2,317.6,391.7,317.4,392.2z M310.3,389.1c-1.8-2.4-2.8-5-4.1-5.1c-1.4-0.1-3.4,1.7-4.6,3.2
		c-1.6,2-0.6,3.9,1.9,3.7C305.5,390.7,307.3,389.9,310.3,389.1z"/>
	<path d="M210,319.1c-0.1-4.8-0.1-4.7-4.7-5c-1.5-0.1-3-1-4.5-1.6c1.6-0.5,3.2-1.4,4.8-1.6c4.5-0.6,9-1,13.5-1.3
		c1.2-0.1,2.4,0.6,3.6,0.9c-1.1,1.1-2,2.4-3.2,3.1c-1.4,0.7-4.2,0.3-4.4,1c-0.5,1.9,0.1,4,0.2,6.1c0.1,1.2,0.1,2.5,0.2,3.7
		c-1.2-0.1-2.6,0.2-3.6-0.3c-0.9-0.5-1.4-1.8-1.9-2.9C209.8,320.6,210,319.8,210,319.1z"/>
	<path d="M176.2,380.2c0.1,0.5,0.3,1.2,0.1,1.7c-0.2,0.9-0.7,1.7-1.1,2.6c-0.7-0.7-2-1.5-2-2.2c0-3.7,0.4-7.3,0.8-10.9
		c0.1-0.5,1-1,1.6-1.5c0.4,0.7,1,1.3,1,2.1c0.1,1.2-0.1,2.4-0.1,3.6c4.4,1.2,5.2,0.6,6.2-4.1c0.2-0.8,1-1.6,1.5-2.3
		c0.4,0.9,1,1.7,1.1,2.7c0.5,4.5,1,9,1.4,13.6c0.1,0.7-0.2,1.5-0.3,2.3c-0.8-0.3-2-0.2-2.4-0.8c-0.7-1.1-1-2.4-1.4-3.7
		C181.1,378.1,181,378.1,176.2,380.2z"/>
	<path d="M172.2,313.1c-1.7,0.9-2.5,1.6-3.5,1.8c-5.5,0.9-6.5,2.4-4.9,8.1c0.5,1.7,1.9,3.7-0.9,4.4
		c-2.6,0.6-3.5-1.2-3.7-3.6c0-0.6-0.2-1.2-0.2-1.8c-0.4-5.8-0.4-5.7-5.9-6.2c-0.7-0.1-1.4-0.8-2.1-1.3c0.6-0.6,1.2-1.6,1.9-1.6
		c5.5-0.6,11.1-1,16.7-1.3C170.2,311.5,170.8,312.3,172.2,313.1z"/>
	<path d="M140.4,324.6c1.4,0,2.8-0.1,4.2,0.1c0.6,0.1,1.2,0.9,1.7,1.4c-0.5,0.5-1.1,1.6-1.6,1.6c-4.5,0-9.1,0-13.6-0.5
		c-2.7-0.3-3.3-2.8-3-5.4c0.5-4.2,4.7-8.7,8.7-8.9c1.1-0.1,2.3,0.8,3.3,1.5c0.3,0.2,0.2,1.4-0.1,2c-0.1,0.3-1.2,0.6-1.5,0.4
		c-2.2-1.6-4.3-0.8-5.5,1.2c-0.7,1.2-0.7,3.8,0.1,4.7c1.2,1.3,3.3,1.5,5.1,2.1c0.6,0.2,1.4,0,2.1,0
		C140.4,324.7,140.4,324.6,140.4,324.6z"/>
	<path d="M73.1,388.5c-3.4-0.9-6.6-1.4-9.5-2.7c-4-1.7-4.7-5.8-1.9-9.3c3-3.8,7.7-5.9,10.7-4.4c1,0.5,1.6,1.8,2.3,2.7
		c-1.1,0.2-2.3,0.7-3.3,0.4c-3.2-0.9-6.6,0.8-7.2,3.9c-0.5,2.6,1.4,4.7,4.9,5.3c1.3,0.2,2.6,0.1,3.8,0.4c0.9,0.3,1.7,1.1,2.6,1.6
		C74.6,387.2,73.8,387.9,73.1,388.5z"/>
	<path d="M204.5,385.7c0.3-0.4-0.1,0.4-0.4,0.4c-0.7-0.1-1.8-0.5-1.9-1c-1.1-3.9-3.9-4-7.1-4.3c-1.6-0.1-3.2-1.9-4.7-3
		c1.2-1.6,2.1-3.7,3.7-4.8c1.9-1.2,4.3-1.6,6.6-2.2c0.5-0.1,1.8,0.6,1.8,1C203.2,376.2,203.8,380.5,204.5,385.7z M193.9,377.7
		c2.3,0.2,4.1,0.4,6.4,0.7C198,374.3,196.6,374.2,193.9,377.7z"/>
	<path d="M242.3,411c-0.6,0.6-1.2,1.3-1.9,1.8c-1.6,1.1-3.2,2.1-4.8,3c-2.9,1.5-3.4,3.7-1.9,6.6c0.8,1.5,1.6,3,2.1,4.7
		c0.3,1.1-0.1,2.3-0.1,3.5c-1-0.5-2.6-0.7-2.9-1.5c-1.5-3.6-2.7-7.3-3.8-11c-0.2-0.8,0.6-2.3,1.3-2.9c2.7-2.1,5.6-4,8.6-5.6
		c0.8-0.5,2.2,0.1,3.3,0.2C242.2,410.2,242.3,410.6,242.3,411z"/>
	<path d="M168.8,383.5c-1.6-0.1-2.6,0-3.5-0.3c-2.2-0.7-4.4-1.6-6.7-2.2c-2.1-0.6-5.1-0.4-5-3.3c0.1-1.8,2.1-3.8,3.7-5
		c1.4-1.1,3.5-1.6,5.2-1.6c4.1-0.1,4.4,0.6,4,4.9c-0.1,1.2,0.1,2.4,0.4,3.6C167.2,380.7,167.9,381.7,168.8,383.5z M156.4,376
		c0.2,0.8,0.3,1.6,0.5,2.3c2.1-0.3,4.1-0.5,6.2-0.8c-0.3-1.1-0.8-3.1-1-3C160.1,374.8,158.2,375.4,156.4,376z"/>
	<path d="M42.3,376.9c2.7,0,4.5,2,4.5,4.9c0,3.1-2,5.1-5.1,5.2c-3.3,0.1-5.3-1.6-5.4-4.3
		C36.2,378.9,38.3,376.9,42.3,376.9z"/>
	<path d="M292.5,308.6c-1.5,1.1-2.5,2.1-3.6,2.4c-0.5,0.1-2-1.8-1.8-2.2c0.5-1.2,1.5-2.2,2.5-2.8
		C289.9,305.8,291.1,307.3,292.5,308.6z"/>
	<path d="M288.4,322.3c-0.7-1.9-1.5-2.9-1.3-3.6c0.3-0.9,1.3-1.6,2.2-2.1c0.3-0.1,1.7,1.4,1.5,1.8
		C290.5,319.5,289.7,320.4,288.4,322.3z"/>
</g>
</svg>
