<?xml version="1.0" encoding="utf-8"?>
<!-- Generator: Adobe Illustrator 16.0.0, SVG Export Plug-In . SVG Version: 6.00 Build 0)  -->
<!DOCTYPE svg PUBLIC "-//W3C//DTD SVG 1.1//EN" "http://www.w3.org/Graphics/SVG/1.1/DTD/svg11.dtd">
<svg version="1.1" id="Layer_1" xmlns="http://www.w3.org/2000/svg" xmlns:xlink="http://www.w3.org/1999/xlink" x="0px" y="0px"
	 width="1000px" height="700px" viewBox="0 0 1000 700" style="enable-background:new 0 0 1000 700;" xml:space="preserve">
<path d="M279.1,411.3c-19.2-8.2-36.8-16.1-54.9-23.4c-9.9-3.9-14.7-11.5-17.8-20.9c-1.2-3.4-0.7-6.8,1-10.1
	c3.6-7.2,8.7-12.8,15.2-17.5c8.7-6.5,17.5-12.7,25.8-19.7c13.3-11.3,24.3-24.6,31.5-40.7c0.5-1,0.3-2.4,0.5-3.8
	c-2.6-3.6-6.3-2.6-9.6-3.1c-2.9-0.5-6-0.7-9.1-1.2c-3.3-0.7-5.1-3.6-4.1-6.8c1-3.3,2.6-6.3,4.1-9.4c3.3-6.2,6.8-12,9.9-18.3
	c3.3-6.7,2.9-12.7-2.6-19c-8.6-9.9-14-21.7-16.8-34.7c-2.2-9.9-1-13.3,8.4-17.3c7.2-2.9,14.9-4.6,22.2-6.7c4.6-1.2,9.2-1.9,13.9-3.1
	c38.7-9.9,78.2-14.7,117.9-17.3c14.2-1,28.6-1.9,42.8-1.4c11.5,0.3,22.4,4.8,29.6,14c11.6,15.1,23.3,30.1,30.5,48.1
	c3.8,9.8,8.2,19,7.9,29.8c0,2.6,1.2,5,1.7,7c-3.4,7.2-6.5,13.9-9.8,20.4c-2.1,4.1-2.6,8.2-0.2,12.3c3.4,5.8,3.6,11.3-1.2,16.6
	c-3.3,3.6-2.4,8.2-1,12.3c1.4,4.1,3.1,8,4.6,12.1c1.7,4.6,2.4,9.2,0,13.9c-2.2,4.3-5.1,7.5-10.3,9.2c-5.3,1.5-8,7-6.8,12.3
	c1,4.6,3.1,9.1,5,13.3c2.1,4.6,6.2,6.3,10.6,5.5c15.4-3.1,30.5-7.2,43.6-15.7c4.8-3.1,7.5-9.2,11.1-14c3.6-4.8,6.8-9.9,10.6-14.5
	c0.7-0.9,3.6-1.2,4.4-0.5c1,0.9,1.5,3.3,1,4.4c-1.5,4.4-3.8,8.6-5.6,12.8c1.9,2.6,3.9,1.4,5.8,0.9c2.6-0.7,4.8-1.9,7.4-2.4
	c2.2-0.3,4.3,0.7,5.1,3.1c0.9,2.4-0.2,4.4-2.1,5.6c-3.2,1.9-7,3.3-11.3,5.1c1.7,2.4,3.4,4.6,4.8,7c1,1.9-1.2,5-3.1,4.4
	c-2.1-0.5-4.1-1.2-6.2-1.9c-9.8-3.4-19.2-3.9-28.6,1.9c-11.3,7.2-23.8,12.5-33.4,21.4c-1,4.6,0.7,8,2.6,11.5
	c5.3,9.2,3.3,18.5-0.2,27.5c-1.4,3.4-3.9,5.5-7.4,6.8c-20.9,9.1-42.6,14-65.4,14.7c-16.9,0.5-33.7-1.2-50.3-4.1
	c-11-1.9-20.5,0.7-29.4,7c-12.8,9.1-25.2,18.1-34.1,31.5c-7,10.4-11,21.6-11.8,33.9c-0.3,5.1-0.5,10.4-1.4,15.6
	c-0.5,3.8-2.7,6.3-7.5,6.2c-2.4-12.5-5.6-25-6.5-37.8c-0.5-7,3.6-14,9.6-19c13-10.9,23.8-24,33-38.2c0.9-1.4,1.4-3.1,2.4-5.3
	c-4.8-1.2-8.9-2.4-13-3.3c-11.8-2.4-23.8-4.4-35.6-7c-5.5-1.2-10.1-0.7-14.4,3.4c-9.6,9.4-20,18.1-28.7,28.1
	c-7.2,8.2-11.1,18.5-12.1,29.6c-0.9,9.1-1.2,18.1-2.1,27.2c-0.5,5.6-2.9,9.2-5.8,8.9c-5-0.7-5-5.3-6.5-8.7c-0.5-1.2-0.5-2.6-0.5-3.8
	c0.2-7-1.4-13.9-3.9-20.4c-2.4-6.2-1.5-12,2.4-17.3c2.7-3.8,5.5-7.9,8.9-11.3c12-12,21-26.3,31.5-39.5
	C276.9,416,277.8,413.9,279.1,411.3z M258.9,322c-11.8,9.1-23.1,17.6-34.1,26.7c-3.2,2.6-5.6,6.7-7.5,10.4c-2.4,5.1-1.9,10.3,2.9,14
	c3.6,2.9,7.5,6,11.8,7.9c13.3,6.2,26.9,12.1,40.2,18c3.1,1.4,6.5,2.2,9.9,3.1c5.5,1.5,10.8,2.9,16.3,4.4c7.5,2.2,14.9,4.8,22.4,6.7
	c19,4.4,37.8,9.1,57,12.7c24.6,4.6,49.1,9.4,74.6,8.7c17.6-0.3,34.2-3.6,50.6-9.4c2.9-1,5.6-2.4,8.4-3.4c6.7-2.6,9.4-7.7,8.4-14.4
	c-1-5.8-2.4-12-5-17.3c-6.7-13.7-14.4-26.7-18.5-41.4c-0.9-2.9-2.9-5.3-4.3-8c-3.1-5.6-7.7-8.7-14.2-10.1
	c-9.4-1.9-18.7-3.3-28.2-3.6c-7.4-0.2-14.9,0-21.9-1.7c-8-2.1-15.4-1-22.9,1.2c-5,1.5-9.8,3.4-14.9,5c-2.4,0.7-5,0.9-8,1.2
	c-1.7-3.4-3.3-6.3-4.8-9.4c-1.5-3.3-1.5-7.5-5.1-9.8c-8,7.5-2.4,20.4-12.3,27c-8.2-11.6-5.5-25.8-8.9-38.8
	c-14.2,2.6-24.8,9.2-33.5,19.3c-1.7,1.9-2.7,4.4-4.6,6.2c-1.2,1.2-3.4,1.2-5.8,2.1c-1-12.7-0.3-24.3,1-35.9c0.3-3.1,0.7-6,1-9.1
	c0.3-3.9-1.9-6.5-5.1-8.2c-1.5-0.9-3.1-1.4-4.8-1.9c-5.1-1.4-7.5,0-10.9,4.4c-7,9.2-10.4,19.5-11.1,31.1c-0.3,6.8,0.5,13,4.3,18.5
	c5.6,8.7,12,16.9,19.8,24c5.1,4.6,10.3,7.9,17.5,6.7c2.1-0.3,4.3-0.2,5.8,2.7c-0.9,2.1-2.1,4.6-3.4,7.9c5.5,1.4,9.9,2.2,14.4,3.6
	c0.9,0.3,2.1,1.9,2.1,2.9c0,1-1.2,2.6-2.1,2.7c-3.3,0.9-6.7,1.2-10.6,1.9c0.2,2.6,0.5,5.1,0.5,7.5c-0.2,3.4-3.9,5.6-6.3,3.3
	c-3.1-2.9-6-6.2-8.2-9.8c-7.4-11.8-15.9-22.6-26-32.2c-6.8-6.5-12.8-14-19.3-21C263.1,326.1,261,324.1,258.9,322z M512.9,212.5
	c0-2.9,0.2-3.8,0-4.4c-5.6-20-17.1-36.8-29.8-52.9c-4.1-5.3-9.8-8.4-16.3-9.9c-6.3-1.5-12.7-2.4-19.3-1.9c-6.5,0.5-13,1.2-19.5,0.9
	c-36.1-1-71.5,6-106.9,11.3c-15.4,2.4-30.3,7-45.3,11c-4.1,1-7.9,3.4-11.6,5.6c-3.6,2.2-5,5.6-4.3,10.1c2.6,18.3,12.8,31.5,27,42.9
	c5.8-4.3,11.1-7.9,16.3-11.8c23.4-18.3,49.8-31.1,77.9-40.4c2.4-0.7,4.8-0.9,9.4-1.5c-2.4,2.7-3.3,4.3-4.4,5
	c-3.9,1.9-7.9,3.6-11.8,5.1c-28.9,10.3-55.1,24.8-77.9,45.5c-7,6.3-14.4,12.3-21.4,18.8c-5.1,4.8-8.2,10.8-6.5,18.5
	c8,3.1,15.9,2.4,23.6,3.1c8,0.9,16.3,1.5,22.9,2.2c4.4-2.7,4.4-7.7,9.8-9.1c-1.7,5.8-3.4,10.6-4.4,15.6c-1.2,5.5-2.4,11.1-2.7,16.6
	c-0.3,5-3.4,9.8-0.5,15.9c12.3-6.8,23.6-14.7,34.7-20.7c4.3-8.2,0-17.5,6.7-24c3.1,4.6,2.7,9.2,2.4,14c-0.7,9.4-0.9,19-0.9,28.6
	c0,1.9,0.2,4.4,4.3,4.3c3.4-7.5,7.4-15.1,10.6-23.1c6.7-15.7,16.1-29.6,27.5-42.1c5.6-6,11.5-11.8,16.3-18.5
	c7-9.6,16.3-16.8,25.5-23.8c8-6,16.9-10.3,26.7-13c1.7-0.5,3.4-0.9,5.1-0.5c1,0.2,2.4,1.2,2.7,2.2c0.3,1,0,2.4-0.3,3.6
	c-0.9,2.2-5.5,1.4-4.5,5.5c6,1.9,12.1,3.8,18.3,5.6C498.5,208.4,505.2,210.3,512.9,212.5z M509.1,256.3c1.7-4.8,4.3-8.7,3.9-14.4
	c-2.9,0.5-5,0.9-7,1.2c-3.3,0.7-5-1.2-5.8-3.9c-0.9-2.4,1.2-5,4.3-5.3c4.1-0.5,8.4-1,12-1.4c3.3-5.6,1.5-9.2-2.6-12
	c-1-0.7-2.2-1.4-3.4-1.7c-11.5-3.8-22.8-8.4-34.6-11c-10.8-2.4-21.4-0.3-31.1,5.6c-8.4,5.3-15.9,11.8-22.9,19
	c-10.3,10.6-18.1,23.1-26.7,34.9c-6.8,9.4-11,19.7-12.8,30.8c-1.5,8.9,0,17.8,6,26.2c6-1.4,12-2.6,17.8-4.1
	c8.4-2.4,16.9-3.9,25.7-3.1c11.6,1.2,23.1,3.3,34.6,5.1c6,1,11.8,3.1,17.8,3.8c7.2,0.9,14.5,1,21.9,0.9c4.6-0.2,7.2-3.3,6.5-7.9
	c-1.5-9.8-5-19-10.3-27.5c-10.1,2.2-16.8,11.5-26.9,11.3c-1.9-3.3-0.2-5,1.5-6c6.7-3.8,13.7-7.5,20.5-11.1c4.5-2.4,9.6-3.9,12.7-9.1
	c-3.1-10.4-10.4-18.1-18.3-26.7C499.2,248.4,502.3,255.3,509.1,256.3z"/>
<path d="M728.1,403c6.2-5.6,8.2-13.3,13.2-20.7c-4.4-0.9-7.7-1.4-11-2.1c-4.3-1-6.7-4.1-6.8-8.4c0-3.8,0.7-7.7,1.4-11.5
	c0.7-4.1,1.9-8.4,2.7-12.8c-2.6-1.4-4.4-2.4-6.2-3.4c-8.9-5.1-9.6-8-5.1-19.5c1.4-3.4,4.4-6.3,6.8-9.4c4.6-5.8,9.8-11.1,13.7-17.3
	c3.8-5.6,7-12,9.6-18.3c3.6-9.2,1.9-15.7-4.6-25.2c4.1-12.3,14.9-29.3,25.2-39.5c2.4,0.3,5.3,0.7,8.4,1c11.6,1.4,23.1-0.9,34.7-2.2
	c5.8-0.7,10.3-4.1,14.7-7.7c8.9-7,18.5-13,29.4-16.3c2.4-0.7,5-0.9,8.2-1.4c0.5,3.9,0.9,7.2,1.2,10.6c0.5,0.3,1.2,1.4,1.9,1.4
	c4.8,0.3,9.6,0.9,11.8,6.2c8.9,4.4,15.6,12.5,27.4,12.5c11.6-0.2,23.1,2.6,34.9,0.7c1.7-0.3,4.4,1,5.3,2.6c0.9,1.5,0.5,4.4-0.7,6
	c-4.3,6-9.2,11.5-13.5,17.5c-2.7,3.8-5.1,7.9-7.2,12.1c-0.9,1.7-0.5,4.1-0.7,6.2c1.4,1,2.4,1.9,3.6,2.2c7,2.1,9.2,6.3,8.2,13.7
	c-1.2,8.7,1.9,11.8,10.6,12.7c5.1,0.5,10.4,0.5,15.6,1.2c6.7,0.9,7.4,1.7,13,9.2c-0.7,8.6-9.4,9.2-14,14c-0.7,5,0.9,8.2,5.5,10.6
	c4.6,2.2,9.1,5,13.5,7.7c1.7,1.2,3.1,3.1,4.4,4.8c1.9,2.6,0.9,6.5-2.2,7.4c-2.9,0.9-5.8,1.2-9.8,1.9c-0.2,2.7-1.2,5.8-0.5,8.6
	c2.1,7.9,3.9,16.1,8.7,22.9c9.6,13.9,13.7,29.8,18,45.7c1.2,4.8,1.2,9.6-1.2,13.9c-2.9,5.3-5.5,10.9-9.4,15.4
	c-6.2,7.2-13.2,13.7-20,20.2c-7.4,7-8.4,11.1-3.8,20.4c0.5,1.2,1.4,2.2,1.7,3.4c3.3,8.6,8.4,14,18.5,12c1.9-0.3,4.1,0.7,5.6,0.9
	c2.7,3.6,2.2,6.7,0.5,9.1c-9.8,13.2-5.5,26.4-0.5,39.5c0.7,1.5,1.7,2.9,2.6,4.4c3.6,7,2.9,9.2-4.6,13c-0.7,0.3-1.7,0-3.1-0.2
	c-3.1-3.1-5-7.5-6.2-12.1c-1.7-6.7-3.1-13.5-4.1-20.4c-0.7-4.3-0.7-8.6-1.2-13c-0.9-9.2-3.6-17.5-11.8-23.3
	c-6.7-4.8-12.3-10.8-18.3-16.4c-9.6,2.1-16.8,8-25.2,11.3c-8,3.1-16.8,4.1-24.5,10.4c3.4,6.5,6.5,13.2,10.3,19.2
	c4.4,7,9.8,13.3,19,14.4c1.2,0.2,2.4,0.9,3.6,1.5c2.6,1.4,3.8,4.4,2.1,6.7c-10.3,13.7-7.5,28.6-4.1,43.6c1,4.3,2.4,8.4-1.9,12.3
	c-7.4-2.4-11.6-7.2-11.3-15.1c0.2-4.3,0.9-8.6,1.2-12.8c0.5-5.6,1.4-11.3,0.9-16.8c-0.2-3.8-1.4-8.2-3.8-10.8
	c-9.8-10.4-18.3-21.9-29.4-31c-5.3-4.4-9.9-5.5-16.4-3.1c-14.2,5.5-28.9,8.4-44.1,9.9c-1.4,0.2-2.6,0.3-3.8,0.5
	c-19.2,5.1-38.7,5-58,3.9c-15.6-0.9-31-2.7-45.9-7.9c-13.9-4.8-24.1-17.5-21.2-34.2c1-5.5,2.2-11,3.8-16.4c2.1-7,4.4-14,6.5-20.7
	c-1.5-2.1-2.2-3.8-3.4-4.8c-6.7-5.5-13.5-10.8-20.5-15.9c-9.2-7-19.7-8.2-30.8-6.3c-2.6,0.5-5.1,1-7.5,1.2c-1.4,0.2-3.1-2.9-2.1-3.9
	c1.9-2.2,4.1-4.3,6.8-7c-1-1.9-2.1-4.1-3.3-6.3c-1-2.1-2.1-3.9,0-5.8c2.1-1.7,3.9-0.5,5.8,0.5c1.5,0.9,3.1,1.5,4.4,2.2
	c3.1-2.7,0.5-10.1,8.4-8.2c0.9,1.9,2.2,4.1,2.7,6.5c2.1,8.7,7.7,14.7,15.1,18.6c9.9,5.3,20.4,9.2,31.7,11.3
	c5.6-5.3,8.4-12.3,12.3-18.3c1.9-2.7,1-6-1-8.4c-2.2-2.6-4.6-5.3-7.2-7.5c-6.2-5.5-12.5-10.8-18.7-16.1c-4.4-3.8-9.2-6.2-15.4-5.1
	c-5.5,0.9-9.9-1.7-14-4.6c0.2-6.7,6.7-3.1,8.7-6.2c-0.2-0.9,0-1.9-0.3-2.4c-1.5-2.6-3.4-5-4.8-7.5c-0.9-1.4,1.2-3.9,2.7-3.4
	c3.3,0.9,6.3,2.1,9.8,3.1c0.7-0.3,1.5-0.7,1.9-1.4c1-1.7,1.4-4.3,4.3-4.1c3.6,0.2,3.8,2.9,3.8,5.6c0.2,2.6,0.2,5.1,0.3,7.9
	c0.3,4.4,2.1,8.4,5.3,11.6C703.5,393,714.1,400.9,728.1,403z M955.2,355.7c-4.6,1.5-8,2.4-11.1,3.9c-14.9,7-29.8,14-44.5,21.2
	c-3.4,1.7-6.7,3.9-10.1,5.8c-4.8,2.6-9.4,3.8-14.9,1.2c-5.1-2.4-10.1-1.2-14.9,1.2c-2.7,1.4-5.3,2.9-8,4.1
	c-5.1,2.2-10.3,4.4-15.6,6.3c-2.6,0.9-5.5,0.7-6.8-1.9c-0.9-1.7-1-4.3-0.3-6c1.5-3.9,4.1-7.7,5.8-11.6c1.2-2.6,1.7-5.5,2.6-8
	c-1.2-0.7-1.5-1-1.9-1c-23.3,0.7-46.4,4.5-69.3,8.2c-9.2,1.5-15.7,6-20.5,14c-8.2,13.7-17.1,27-25.2,40.9
	c-4.8,8.2-8.6,17.1-10.4,26.5c-2.7,13.2-5.6,26.2-8.4,39.4c-2.2,10.8,4.8,22.6,15.4,24.8c24.5,5.5,49.1,10.3,74.4,6.3
	c9.4-1.5,18.8-2.9,28.2-3.9c20.7-2.4,40.9-7,60.4-14.5c9.8-3.8,19.5-7,29.3-10.6c15.1-5.5,29.3-12.2,40.9-24.1
	c12.7-13,25-26.3,33.5-42.6c2.7-5.1,5.3-10.4,4.1-16.1c-2.1-8.9-4.3-17.8-8-26c-4.6-9.8-10.8-18.8-16.4-27.9
	C960.8,362.1,958.1,359.3,955.2,355.7z M880.6,382.4c16.3-7.9,31.8-15.2,47.2-23.1c15.4-7.9,32.7-10.6,49.3-17.8
	c-1.7-1.9-2.4-3.6-3.8-4.3c-4.5-2.6-9.2-4.8-13.9-7c-2.4-1.2-5-1.7-7-3.1c-4.8-2.9-5.3-8.4-1-12c2.9-2.4,6.5-4.1,9.9-6
	c2.6-1.4,5.8-2.1,6.5-5.6c0.5-2.4-2.2-4.8-7.4-5.8c-3.8-0.9-7.7-1-11.5-1.4c-3.9-0.3-7.9-0.3-11.6-1c-4.6-0.9-9.4-1.9-12.1-7.2
	c0.9-2.2,1.9-4.4,2.4-6.8c0.7-2.7,0.7-5.8,1-8.2c-5.5-4.8-12.8,0.2-18-5.6c0.9-2.1,1.4-4.6,2.9-6.5c4.6-6.2,9.6-12.1,14.5-18.3
	c3.9-5,8.7-9.4,10.8-16.4c-2.2-0.7-3.8-1.9-5.3-1.7c-12.1,1.9-24.1-1.7-36.1-1.7c-4.6,0-8.6-1-11.8-4.3c-2.6-2.7-5.6-3.8-9.4-3.4
	c-2.1,0.2-4.1-0.3-6.2-0.7c-1.2-2.7-2.2-5.1-3.4-7.9c-2.2,0.5-4.3,1.2-6.3,1.5c-4.6,0.9-6.3-1-5.8-5.6c0.2-2.4,2.6-4.8,0-7.7
	c-1.4,0.2-3.1,0.2-4.6,0.9c-7.4,2.7-14,6.7-20.2,11.6c-5,4.1-9.9,8.4-14.9,12.5c-2.7,2.4-5.8,3.3-9.6,2.2
	c-8.6-2.1-17.1-1.5-25.2,2.7c-2.7,1.5-5.8,1.7-8.7-0.2c-1.7-1-3.6-1.7-5.3-2.7c-6.3,6-9.8,13.2-13,20.2c-0.7,1.5-1.4,3.3,0.9,4.3
	c7.4-3.4,14.5-7.2,22.2-10.3c5-2.1,10.6-4.8,15.4,1c0.7,0.9,3.4,1,4.8,0.5c6.7-2.4,11.6,0.7,15.7,5.1c10.4-1.7,20.2-3.4,29.9-5.1
	c3.8-0.7,8-2.6,11,1c3.6,4.3,0,8-2.1,11.8c-5.6,10.3-11.5,20.4-17.1,30.6c-1.4,2.6-3.6,5.1-1,8.9c2.1-1.5,4.1-3.1,6.2-4.4
	c4.3-2.7,8.7-5.6,13.2-8c3.3-1.7,7.5,0.7,7.5,4.4c0.2,3.3-0.5,6.8-1.4,10.1c-0.9,3.3-2.4,6.3-3.6,9.6c2.9,2.4,5.3,4.1,7.4,6.2
	c3.1,2.9,3.4,5.8,0.7,9.2c-2.9,3.8-6,7.5-9.4,10.6c-9.9,8.7-17.1,19.5-23.1,31.1c-0.5,1-0.3,2.4-0.5,3.9c7.4,2.7,14.4-4.1,21.6-0.5
	c2.1,3.4,0.3,5.8-1.7,8.2c-4.3,4.8-8.7,9.6-12.8,14.7c-1.4,1.7-1.4,4.4-2.4,7.9c3.4-0.7,5.6-0.9,7.5-1.7c6.7-2.9,13.5-5.8,20-9.2
	c5.3-2.9,10.4-4.1,15.7-0.3C878.7,382.4,880.2,382.4,880.6,382.4z M782,248.6c-1.4-2.6-2.4-4.6-3.9-7.5c-5,2.2-9.6,3.6-13.3,6.3
	c-3.4,2.4-6.2,6-8.9,9.2c-1.7,2.2-1.9,5.3,0,7.2c1.2,1.2,3.8,1.7,5.8,1.7c4.6,0,8.9-2.4,14.7-1.7c-4.6,10.4-14.7,7.4-21.6,11.3
	c-0.9,2.1-2.4,4.4-2.6,7c-0.7,7.4-4.4,13-8.9,18.5c-2.7,3.4-5.5,6.7-8,10.3c-2.9,3.8-6.2,7.4-8.4,11.5c-6.7,12.3-3.4,17.6,10.4,18
	c5.6,0.2,11.3,0.2,16.9,0.5c2.6,0.2,5.1,1,5.3,5.1c-3.8,0-7.5-0.2-11.3,0c-11.5,0.3-21.2,13.2-18.5,24.5c0.3,1.7,2.7,3.8,4.3,4.1
	c3.3,0.5,6.8,0.2,10.3-0.2c5.1-0.7,10.3-1.9,15.4-2.6c12.5-1.7,25-2.9,37.3-4.6c12.1-1.7,23.6-5.6,31.7-15.9
	c7.7-9.9,15.7-19.7,23.1-29.8c1.9-2.6,2.2-6.3,3.4-9.8c-5.5-3.8-8-8.2-7.2-14.5c0.3-2.6,0.9-6.3-3.9-8c-3.4,2.6-7,5.5-10.8,8
	c-2.4,1.7-5.3,4.4-7.9,1.5c-1.4-1.4-1.2-5-0.5-7.2c1.4-4.1,3.4-7.9,5.5-11.8c2.2-4.3,4.8-8.4,6.7-12.7c3.1-6.8,4.1-13.9,1.4-21.6
	c-2.6,0-4.6-0.3-6.7,0c-5.5,1-11,2.2-16.6,3.4c-3.9,0.9-7.9,1.4-10.8-2.2c-3.1-3.8-6.8-2.9-10.6-1.5
	C790.1,246.4,787.2,249.6,782,248.6z"/>
<path d="M892.9,50c-2.6,4.1-3.1,6.2-4.5,7.2c-16.1,11.6-32.3,22.9-48.3,34.9c-17.3,13-33.4,27.4-49.5,41.8
	c-30.1,27-54.8,58.7-80.4,89.7c-16.1,19.3-30.8,39.5-44.5,60.6c-3.4,5.5-6.5,11.1-9.9,16.8c-1,1.9-2.2,3.8-5.8,2.4
	c0.3-1.9,0.2-3.9,1-5.6c7.7-17.5,16.8-34.1,28.1-49.6c20-27.4,42.3-52.5,65.5-77c12-12.5,23.6-25.2,36.3-37.1
	c13.5-12.7,27.7-24.8,42.1-36.6c13.7-11.3,27.7-22.1,41.9-32.7C872.4,59,879.9,53,892.9,50z"/>
<path d="M557.7,422.6c1.9,7.2-1.2,10.8-3.4,14.2c-7.9,12.5-16.3,24.5-24,37.1c-7.9,12.8-15.2,26.2-22.9,39.2
	c-15.9,26.9-27.2,56-39.2,84.7c-4.1,9.9-7.4,20.4-11,30.6c-2.1,6.2-3.6,12.3-8.9,16.9c-2.1,1.7-2.6,5.3-3.9,8
	c-0.3,0.5-1.5,0.9-2.2,0.7c-0.7-0.2-1.4-0.9-2.4-1.9c9.8-25.7,19.7-51.5,29.4-77.3c6-15.7,11.5-31.8,18-47.2
	c5.3-12.7,12-25,18.3-37.3c3.3-6.3,7.9-11.3,13.3-15.7c3.3-2.7,6-6.2,8.4-9.6c8.4-12.1,16.4-24.3,24.6-36.4
	C553.1,426.7,554.8,425.5,557.7,422.6z"/>
<path d="M585.1,441.1c-7.4,15.6-14.9,31-21.9,46.7c-3.9,8.7-6.5,17.8-10.3,26.5c-3.4,7.9-8.2,15.2-11.6,23.1
	c-9.2,21.9-18.1,43.8-27,65.9c-3.6,8.7-6.7,17.8-10.1,26.5c-0.5,1.2-0.9,2.6-1.7,3.4c-0.9,0.7-2.4,1.2-3.3,0.9
	c-0.9-0.3-1.9-2.1-1.7-2.9c3.1-12.1,6.2-24.3,9.6-36.3c7.4-26.4,18-51.3,29.3-76.1c6.3-13.7,13-27.4,19.8-40.9
	c4.1-8,8-16.3,15.2-22.4c3.1-2.7,4.8-7.2,7.2-10.6c1.4-2.1,3.3-3.6,5-5.5C584,440.1,584.6,440.6,585.1,441.1z"/>
<path d="M638.6,469.9c-1.5,3.9-3.1,7.9-4.8,11.8c-6.2,12.8-12.8,25.5-18.8,38.5c-4.4,9.8-8.2,20-12,30.1
	c-8.4,22.8-17.3,45.3-24.3,68.4c-6.7,22.4-11.5,45.3-14.4,68.4c-0.3,3.1-0.9,6-1.7,8.9c-0.3,1.2-1.4,2.1-2.6,3.9
	c-1.4-2.2-2.9-3.9-3.1-5.6c-0.3-2.9-0.2-6,0.3-9.1c2.7-14.9,5.6-29.8,8.6-44.7c1.5-8,3.6-16.1,5.1-24.1c3.3-17.6,9.9-34,15.4-50.8
	c7.7-23.6,18.7-45.7,30.5-67.2c2.1-3.8,3.3-8,5.5-11.8c3.3-5.6,6.8-11,10.6-16.3c0.9-1.2,2.7-1.5,4.1-2.4
	C637.6,468.7,638.1,469.3,638.6,469.9z"/>
<path d="M649.2,248.1c-0.5-3.9-1.4-5.6-0.9-6.8c1.5-3.1,3.6-6,5.6-8.7c27.4-35.2,56.6-69,89.1-99.4c24.3-22.8,49.4-44.8,76-64.9
	c7.5-5.8,15.7-10.8,23.6-16.1c1.4-0.9,3.1-1.2,5.5-2.1c-0.7,2.1-0.5,3.4-1.2,4.1c-4.8,5-9.6,9.9-15.9,13.2
	c-4.1,2.2-7.7,5.5-11.5,8.4c-32.2,25.5-62.8,53-91.7,82.1c-9.2,9.2-17.6,19-26.2,28.7C684.8,206.5,667.9,226.2,649.2,248.1z"/>
<path d="M804.4,58.3c0,0.9,0.2,1.5,0,1.7c-7.9,6.7-15.2,13.9-23.6,19.8c-15.6,11-30.6,22.6-45.5,34.2c-23.6,18.3-45.3,38.7-67.1,59
	c-14.5,13.5-28.2,28.1-40.4,43.8c-2.6,3.4-5.1,7-8.2,9.9c-1.2,1.2-4.3,2.2-5.6,1.5c-2.6-1.2-1.2-3.8,0-5.5c2.4-3.1,4.8-6.2,7.4-9.1
	c9.6-10.6,18.7-21.6,28.7-31.7c18-17.5,36.3-34.7,54.9-51.3c15.6-13.7,31.5-26.9,47.9-39.7c13.2-10.4,27.2-19.8,40.9-29.6
	C797.1,59.7,800.3,57.3,804.4,58.3z"/>
<path d="M473.5,471.1c-5,8.6-9.6,16.3-14.2,24.1c-8.6,14.5-14.9,30.1-20.5,46c-0.5,1.7-1.2,3.3-2.1,4.8
	c-10.4,19.7-16.9,40.6-23.6,61.6c-4.6,14.9-9.9,29.4-15.1,44.1c-0.2,0.7-1.2,1.2-2.4,2.6c-0.9-1.4-2.4-2.6-2.4-3.6
	c0-2.1,0.9-4.3,1.4-6.3c8.4-28.1,16.8-56.3,28.1-83.5c8.4-20.4,17.5-40.6,26.4-60.6c3.8-8.7,8.2-17.1,12.3-25.7
	c0.7-1.5,1.5-3.1,2.6-4.5C466.2,467.1,467.5,467.3,473.5,471.1z"/>
<path d="M904.2,69.6c1,0.7,1.9,1,2.2,1.5c0.3,0.7,0.3,1.9-0.2,2.4c-1,1.4-2.1,3.1-3.4,3.8c-15.2,7.7-27,19.8-40.9,29.6
	c-17.8,12.5-32.7,28.1-47.9,43.3c-8.9,8.9-17.6,17.8-24.6,28.2c-0.5,0.7-1,1.5-1.9,1.7c-1.2,0.3-2.7,0.7-3.6,0.2
	c-0.9-0.5-1.7-2.2-1.5-3.3c0.2-1.5,1.2-3.3,2.2-4.6c9.4-11.8,18.6-23.8,30.3-33.5c4.6-3.9,8.9-8.2,13.3-12.1
	c12-10.6,23.6-21.6,37-30.5c7.2-4.8,13.5-10.8,20.4-15.9c4.8-3.6,9.9-6.8,15.1-10.1C901.8,70,903.2,70,904.2,69.6z"/>
<g>
	<path d="M814.2,597.5c-2.6,8,0.7,14.4,2.6,20.9c1.2,4.1,0.7,4.6-5,6.8c-6.5-16.4-6.2-33.7-8.9-51.2c4.6-3.9,9.8-7,14.9-9.8
		c5.1-2.7,10.1-1.9,14.4,2.1c3.9,3.6,4.4,8.2,3.3,13.2c-1.5,6.3-5.6,10.6-11.5,13.3C820.7,594.4,817.3,596,814.2,597.5z
		 M812.6,588.8c11.3-0.3,16.4-4.3,16.4-12.8c0-4.3-3.4-7.2-7.7-6.2C811.6,572,808.9,578,812.6,588.8z"/>
	<path d="M648.6,570.5c1.9,0.5,5.6,1.2,9.2,2.4c0.9,0.3,1.9,2.4,1.7,2.9c-0.7,1.4-2.2,2.9-3.4,3.1c-2.1,0-4.1-1.2-6.2-1.7
		c-6.3-1.7-11.8,0.2-16.8,4.3c-7.2,6.2-7.9,14.7-0.7,21.2c7.4,6.7,15.7,10.4,26,6.5c2.4-0.9,5-1.9,7.2,0.5c1.4,1.5-1.4,4.4-5.3,6
		c-11.8,4.6-22.1,1-31.3-6.3c-8.9-7-12.5-21.4-1-31.5C634.7,572.2,639.1,570,648.6,570.5z"/>
	<path d="M792.1,613.9c-9.4,2.6-16.6,3.3-23.6,1.7c-7.9-1.7-13-12.1-9.8-19.5c3.9-8.7,11-14.4,20.2-16.6c1.9-0.5,4.3,0,6.3,0.5
		c2.6,0.9,4.3,2.7,4.8,5.5c0.5,2.7-0.3,5.3-2.7,6.7c-2.6,1.5-5.5,2.4-8.2,3.6c-4.6,1.9-10.1,2.2-13.9,6.3c1,5.1,4.1,7.9,8.9,8.4
		c3.9,0.3,7.7,0.3,11.6,0.7C787.2,611.4,788.5,612.4,792.1,613.9z M772.8,588.8c0.3,0.7,0.5,1.4,0.9,2.1c1.9-0.5,3.8-1,5.6-1.9
		c0.5-0.2,0.9-1.5,0.7-2.1c-0.2-0.5-1.4-1-1.9-0.9C776.2,586.7,774.5,587.8,772.8,588.8z"/>
	<path d="M691,601.4c2.2,4.8,6.2,5.1,10.1,5.8c3.3,0.5,6.7,1,10.8,1.5c-7,5.1-15.2,6.2-21.2,2.9c-6-3.3-10.1-8.2-11-15.2
		c-0.7-6.7,2.1-11.8,8.2-14.7c3.9-1.9,8-3.3,12.1-4.3c4.1-0.9,7.4,2.7,7,7c-0.3,4.6-2.7,8.2-6.3,10.8
		C697.5,597.7,694.2,599.6,691,601.4z M686.7,593.2c7-0.2,10.6-2.4,13.5-6.7C693.4,585.2,693.4,585.2,686.7,593.2z"/>
	<path d="M875.3,570.6c-0.7,10.4,3.6,19.7,3.1,29.9c-4.6,0-8.9,0-13,0c-3.9,0-7.7,0.3-11.6-0.2c-8.4-1-11.8-7.5-7.7-14.9
		c2.9-5.5,7.5-9.6,13.5-11.3C864.3,572.9,869.3,572,875.3,570.6z M870.3,592.5c-0.5-3.1-0.7-6.2-1.4-8.9c-0.9-3.4-3.6-4.8-6.8-3.8
		c-3.8,1-7,2.9-8.9,6.7c-1.9,3.6-0.3,7.2,3.3,7.9C860.6,594.9,864.8,595.5,870.3,592.5z"/>
	<path d="M729.8,584.3c-3.9-2.1-9.8,1.7-11-5.8c10.4-2.7,20.7-5.1,31.3-6.2c0.9,0,1.9,0,2.4,0.5c0.9,0.9,1.4,2.1,1.7,3.3
		c0.2,0.5-0.7,1.9-1.4,2.1c-4.1,1-8.4,1.7-12.8,2.6c-3.6,6-2.1,12.1-0.7,18.5c1,4.6,0.3,7.5-1.9,7.5c-3.4-0.2-3.8-2.9-4.3-5.3
		C731.9,595.8,731,590.3,729.8,584.3z"/>
</g>
<g>
	<path d="M112.3,271.5c-0.2,8,0.9,10.3,6.3,11c4.3,0.5,8.6,0.3,12.8,0.5c3.3,0.2,6.5,0.2,11.8,0.3c-5.5,3.9-9.6,4.6-13.9,4.6
		c-5.1,0-10.3-0.2-15.4-0.5c-1.2,0-2.4-1-3.3-1.9c-4.3-3.6-6.7-8-5.6-13.7c1.7-9.2,6.7-16.9,13.9-22.6c5.6-4.4,15.4-2.1,19.5,3.9
		c2.6,3.8,1.2,9.1-3.3,10.8C127.9,266.8,120.5,269,112.3,271.5z M115.2,264.2c6.7,0.2,11.8-1.9,16.8-4.8c1.9-1,1.4-4.1-0.3-5.5
		c-2.2-1.7-4.8-2.2-7.4-1.4C119.5,254.3,115.9,257.2,115.2,264.2z"/>
	<path d="M167.9,263.3c-2.6,5.5-0.7,9.9,0.3,14.5c1.5,6.7,0.3,11.8-2.4,11.1c-4.8-1.4-3.8-6.2-4.3-9.8c-1.5-12-2.7-24-4.1-35.9
		c4.4-4.8,9.9-7.2,15.4-9.8c4.1-1.9,8.2-3.1,12,0.9c4.4,4.6,5.6,9.9,3.1,15.4c-2.7,5.6-6.5,10.1-13.2,11.6
		C172.4,261.8,170,262.6,167.9,263.3z M166,255.5c6,1.9,10.6-0.7,15.1-3.1c3.8-2.1,4.3-7,2.1-11.3c-1.7-3.1-4.6-3.9-8.9-2.4
		c-2.4,0.9-4.6,2.1-6.8,3.4c-2.4,1.4-3.6,3.8-3.1,6.5C164.7,251,165.5,253.4,166,255.5z"/>
	<path d="M33.8,279.9c5.8,12,16.8,10.8,26.4,14.7c-1.9,1.2-3.3,2.9-4.3,2.7c-5.5-1-11.1-1.9-16.3-3.9c-7.9-3.1-12.7-9.4-13-17.8
		c-0.3-7.9,3.8-14.2,10.4-18.3c3.3-2.1,7-3.3,10.8-4.1c6-1.2,10.4,1.7,12,7.2c1.9,6.5-1,12.1-6.5,13.5
		C47.1,275.3,41.1,277.5,33.8,279.9z M32.9,272.1c7.9,0.3,13.9-1.4,19.3-4.8c1.4-0.9,2.2-3.6,2.2-5.3c0-2.4-3.1-4.4-5.6-3.9
		C41.6,259.4,35,261.8,32.9,272.1z"/>
	<path d="M220.6,242.3c4.6,3.3,4.3,8,5.5,12c1.2,4.1,2.4,8.2,3.9,13.2c-1.7,0.9-3.2,2.2-5.1,2.4c-7.7,1-15.4,2.4-23.1,2.6
		c-7.9,0.2-11.3-6.8-7.2-13.5c3.6-5.6,8.6-9.8,14.5-12.5C212.7,244.9,217,243.7,220.6,242.3z M217.9,265.4c-0.2-10.4-1-14-3.9-14.4
		c-5.5-0.7-8.9,2.7-12,6.3c-0.9,1-1.5,2.1-2.1,3.3c-1.7,3.1,0.2,6.8,3.4,6.7C208,266.9,212.6,266.1,217.9,265.4z"/>
	<path d="M35.5,245.4c-8.9,3.6-17.8,7.2-26.3,10.4c-4.6,12.3,2.9,23.4,0.7,35.4c-5.6-6.3-6.2-9.4-8-37.1c0.5-0.7,0.9-1.7,1.5-2.1
		c9.8-3.4,19.3-6.8,29.1-10.1C33.9,241.4,35.6,242.6,35.5,245.4z"/>
	<path d="M92.3,253.1c-2.9,7.4-0.9,13.9,0.9,20.7c0.9,2.9,1.4,6.2-3.4,7.7c-3.6-8.2-3.4-17.3-5.6-26.2c-4.1-0.7-8.2-1.4-12.3-2.1
		c0.3-1.4,0.3-2.6,0.7-2.7c9.6-2.2,19.3-4.4,29.1-6.5c1.2-0.2,2.4,0.3,4.4,0.5C103.9,252,95.4,247.3,92.3,253.1z"/>
</g>
<g>
	<path d="M672.3,114.8c2.4,2.6,5.1,5.1,7.7,7.9c-0.7,2.7-2.4,3.8-4.8,2.9c-4.4-1.7-8.4-4.1-11.3-7.2c0-1.7-0.3-2.7,0-3.3
		c6.2-9.4,5.1-19.5,2.6-29.6c-2.2-9.4-0.2-11.5,9.6-10.1c2.6,0.3,5,1.2,7.5,1.5c3.6,0.7,6.7,0.5,9.4-2.6c3.6-3.9,7.7-2.2,10.6,2.1
		c1.2,1.9,2.2,3.8,3.4,5.5c1,1.4,2.1,2.7,2.9,3.9c-0.7,3.9-3.1,4.4-5.6,2.6c-2.4-1.7-4.4-4.1-6.5-6
		C689.8,88.5,676.8,104.9,672.3,114.8z M674.4,97.7c4.3-4.1,6.7-6.3,8.9-8.9c1.9-2.2,0.7-5.1-2.2-5.8c-2.9-0.7-5.8-1.5-8.7,1.5
		C672.9,87.9,673.4,91.5,674.4,97.7z"/>
	<path d="M613.5,167.7c3.8,3.8,6.7,6.3,9.2,9.1c0.5,0.5,0.2,2.6-0.5,3.4c-0.7,0.7-2.6,1-3.3,0.5c-3.1-2.2-6.2-4.6-9.1-7.2
		c-4.4-3.9-8.9-8-13.2-12.3c-2.2-2.2-3.4-5.1-2.2-8.2c2.9-7.4,7.2-13.7,14.9-16.9c3.8-1.5,7.7-1.7,11,1.2c3.6,3.1,4.4,7.4,3.1,11.8
		c-0.9,2.9-2.4,5.5-3.9,8C617.8,160.3,615.7,163.8,613.5,167.7z M606.6,161.2c5.8-2.7,9.1-7.2,10.4-12.7c0.3-1.4,0-3.9-0.9-4.6
		c-1.5-1-4.3-1.5-5.6-0.9c-4.6,2.4-8,6-9.8,11.8C602.7,156.9,604.6,159,606.6,161.2z"/>
	<path d="M780.5,0c2.6,0.2,5-0.3,6.3,0.7c9.4,6.8,18.6,13.9,27.7,21c2.1,1.5,1.9,3.6-0.5,6.2c-3.8-2.1-7.7-4.3-12.1-6.7
		c-5.3,2.6-10.6,5-15.7,7.4c-0.9,4.8-1.5,8.9-2.1,13c-0.7,0.3-1.4,0.9-2.2,1.2c-0.5-1.2-1.2-2.2-1.4-3.4c-0.2-2.1,0-4.3,0-6.5
		C780.5,22.2,780.5,11.6,780.5,0z M795.9,16.3c-1.9-2.9-3.8-5.5-8.6-5c-0.5,2.4-1,5-1.5,7.5C790.2,20.7,793,18.8,795.9,16.3z"/>
	<path d="M665.3,134.5c-3.6-1-7.4-1.9-11.3-2.9c-1.9,1.9-3.9,3.4-5.6,5.3c-3.8,4.6-5.8,9.6-2.1,15.4c1.2,1.9,0.7,4.4-1.9,5.3
		c-2.7,0.9-3.9-1.4-4.6-3.4c-2.9-8.6-5.6-17.3-8.2-26c-0.9-3.3-2.2-6.7,0.9-10.4c1.2,0.2,2.9,0.3,4.4,0.9c6.2,1.9,12.3,3.8,18.5,5.8
		c2.9,1,5.8,1.9,8.4,3.4c1.5,0.9,2.1,3.3,3.1,4.8C666.7,133.3,666,133.8,665.3,134.5z M640.9,135c1.7-2.1,2.7-3.1,3.8-4.3
		c-1.2-1-2.2-2.2-3.4-2.9c-0.3-0.2-2.4,1.2-2.2,1.9C639,131.2,639.8,132.6,640.9,135z"/>
	<path d="M720.8,37.3c2.2,3.4,3.8,4.6,3.9,6c1.5,10.8,3.9,21.2,8,31.3c0.3,0.7,0.2,1.7,0,2.6c-0.2,0.9-0.9,2.1-1.2,2.1
		c-1.2,0-3.1-0.2-3.4-0.9c-2.1-4.3-3.9-8.6-6.2-13.9c-5.1-1-10.4-2.1-15.9-3.4c-2.7-0.7-6.2-1.4-5.1-6.7c5.6,0.5,11.5,1,18.1,1.7
		C719.7,50.1,720.1,45,720.8,37.3z"/>
	<path d="M753.4,61.1c-2.6-1.7-4.6-2.2-5.1-3.4c-3.4-7-6.7-14-9.4-21.2c-0.7-2.1,0-5.5,1.4-7c5.3-6,11.3-11.5,17.1-16.9
		c2.6,2.1,2.1,4.3,0.9,6c-2.7,3.8-5.6,7.7-8.9,11.1c-3.8,4.1-4.1,8.4-1.9,13c1.9,3.9,4.3,7.5,6,11.3C754,55.4,753.4,57.7,753.4,61.1
		z"/>
</g>
<path d="M499.2,403.5c-8.4,5.5-17.8,7.9-44,10.8c-8.4,0.9-17.1,2.4-25.7-1.5c4.4-3.8,9.1-1.2,13.2-1.7c4.8-0.5,9.6-0.3,14.2-0.9
	c4.8-0.5,9.4-1.4,14-2.2c4.6-0.9,9.2-1.9,14-2.6C489.4,404.8,493.7,401.9,499.2,403.5z"/>
<path d="M477.6,392c-1.9,4.8-5.6,4.6-8.7,5.3c-11.8,2.2-16.4,2.2-23.6-0.3c0.5-0.5,0.9-1.5,1.4-1.5
	C456.7,394.2,466.8,393.2,477.6,392z"/>
<path d="M468.7,377.6c-8.4,4.8-16.4,5.5-31,3.1c0.5-0.7,1-1.7,1.5-1.7c7.5-0.9,15.2-1.5,22.8-2.1
	C463.9,376.8,465.8,377.3,468.7,377.6z"/>
<path d="M338.2,166.1c-9.6,2.1-19.2,3.9-28.4,6.5c-8.9,2.4-17.8,5.6-26.7,8.6c-1.2-3.6,1.2-4.1,2.9-5c11.3-5.6,23.6-7.9,35.8-10.3
	c4.6-0.9,9.2-1.5,13.9-2.2c0.7-0.2,1.5,0.3,2.4,0.7C338,164.9,338.2,165.6,338.2,166.1z"/>
<path d="M339.5,232.7c6.7-10.1,29.3-23.8,45.3-29.1c0.2,0.3,0.7,0.5,0.7,0.9c0,0.3-0.2,0.9-0.5,1.2c-4.4,2.7-8.7,5.5-13.2,8
	C361.1,220,350.3,226.4,339.5,232.7z"/>
<path d="M353.6,204.8c-2.2,2.4-4.3,5.3-7,7.2c-5.6,3.8-11.8,6.8-17.6,10.6c-5.6,3.8-11.1,7.9-16.6,11.6c-2.7-1.7-1.4-3.3-0.2-4.3
	c2.9-2.6,5.8-5.3,9.1-7.2C331.7,216.3,341.4,208.6,353.6,204.8L353.6,204.8z"/>
<path d="M296.2,189.1c12.7-6.8,30.1-11.5,44.3-12.1c-4.4,3.9-9.1,3.9-13.2,5.1c-5,1.4-9.9,3.1-14.9,4.4
	C308.1,187.9,303.8,189.9,296.2,189.1z"/>
<path d="M430.2,155.4c10.6-2.4,27.9-0.7,37.1,3.1c-0.2,0.3-0.2,0.7-0.3,1c-0.3,0.3-0.7,0.5-1,0.5
	C454.5,158.4,443.1,156.9,430.2,155.4z"/>
<path d="M353.7,205c7.2-8.2,17.3-11.6,26.4-16.6c2.4,1.9,1.4,3.3-0.2,4.1c-6,3.3-12,6.5-18,9.6C359.2,203.4,356.3,204,353.7,205
	C353.6,204.8,353.7,205,353.7,205z"/>
<path d="M459,167.3c-7,2.6-14,0.9-21,0.3C444.9,164.3,452,165.8,459,167.3z"/>
<path d="M449.4,235.6c-1-3.6-0.2-6.5,2.9-6.5c9.4,0,18.8,0.5,29.1,0.9c-0.9,1.9-1.2,3.4-2.1,4.6c-0.7,0.9-2.2,1.4-3.4,1.5
	C466.8,237.2,457.9,237,449.4,235.6z"/>
<path d="M738.4,440.9c-5.5,21.6-15.9,41.2-11.5,63.8c-1-1.5-2.7-2.9-2.9-4.6c-0.7-4.6-1.5-9.6-0.7-14c2.6-14.9,5.8-29.6,12.3-43.3
	C735.8,442.3,736.7,442.1,738.4,440.9z"/>
<path d="M970.6,424.9c-1.2-0.9-2.6-1.4-2.9-2.4c-5.3-14.2-10.6-28.2-15.9-42.4c-0.2-0.5,0.7-1.5,1.4-2.9c1.4,1.2,2.7,2.2,3.4,3.4
	C961.9,390.1,969.6,414.8,970.6,424.9z"/>
<path d="M749,464.7c0.5,5.1-1.7,10.1-1.9,15.1c-0.2,5.1,0,10.3,0,15.9c-0.5-0.2-2.4-0.2-2.6-0.5c-2.6-9.4-2.7-18.7,0.9-27.9
	c0.3-0.7,0.9-1.4,1.5-2.1C747.1,464.9,747.8,464.9,749,464.7z"/>
<path d="M766.1,496.7c-6.2-3.6-7-9.1-7-14.5c0-3.6-0.7-7.5,3.4-11c2.7,4.6,0.9,9.1,1.5,13C764.7,488.3,765.4,492.6,766.1,496.7z"/>
<path d="M944.9,395.3c5.8,8,7.5,16.4,9.8,26.2c-5-1.9-5.5-5.5-6.7-8.2C944.1,403.3,944.1,403.3,944.9,395.3z"/>
<path d="M934,416c4.1,1.9,4.1,1.9,5.3,14.4C935,427.4,934.8,426.7,934,416z"/>
<path d="M778.1,278.9c9.9-2.1,19.5-5.6,29.8-7.2c0,1.7,0.3,2.9,0,3.3c-7.4,5.6-15.7,8.7-25,9.9C779.6,285.2,778.6,283.9,778.1,278.9
	z"/>
</svg>
