<?xml version="1.0" encoding="utf-8"?>
<!-- Generator: Adobe Illustrator 16.0.0, SVG Export Plug-In . SVG Version: 6.00 Build 0)  -->
<!DOCTYPE svg PUBLIC "-//W3C//DTD SVG 1.1//EN" "http://www.w3.org/Graphics/SVG/1.1/DTD/svg11.dtd">
<svg version="1.1" id="Layer_1" xmlns="http://www.w3.org/2000/svg" xmlns:xlink="http://www.w3.org/1999/xlink" x="0px" y="0px"
	 width="1000px" height="600px" viewBox="0 0 1000 600" style="enable-background:new 0 0 1000 600;" xml:space="preserve">
<path d="M173.9,107c-1.3,0.7-2.1,1.4-3.1,1.8c-3.5,1.1-6,0.3-6.9-2.7c-1.4-5-2.5-10.2-3.9-15.8c4.1-5.3,9.1-9.7,14.3-14
	c8.4-7,17.1-13.9,25.9-20.4c5.9-4.5,12-8.7,20.2-7.7c1.1,2-0.6,2.4-1.7,3.1c-15,8.1-28.4,18.6-41.9,29.1c-4.2,3.2-7.6,7.4-11.6,11.2
	c-0.4,4.1,0.8,7.6,3.8,11.5c5.6-7.4,12.3-13.2,20-17.4c10.5-5.7,21.4-9.2,33.6-5.9c6,1.7,10.8,4.8,14.8,9.7
	c10.8,13.4,17.6,28.9,23.2,45.1c2,5.7,4.2,11.3,6.3,16.9c4.9,13.4,14.6,23.2,25.2,32.2c0.4,0.4,1.3,0.3,2,0.3c0.4-0.4,1.3-1,1.3-1.4
	c0.6-4.5,1-9.1,1.3-13.2c-18.1-18.1-27.2-40.1-33.6-63.4c-0.4-1.7-1-3.5,2.1-4.6c3.2,4.1,3.1,9.7,5.2,14.3c2.2,4.8,4.1,9.8,6.3,14.7
	c2.1,4.5,4.3,9,6.6,13.3c2.4,4.6,4.2,9.7,8.8,13.6c3.1-2.2,6.2-4.5,9.4-6.7c-6.7-13.9-18.6-24.1-20.6-39.5c0-0.4,0.7-1.1,1.4-2.1
	c3.5,2.4,3.2,6.9,5.3,9.8c2.4,3.5,4.2,7.4,6.2,11.2c1.8,3.4,3.5,7,6.7,9.4c6.2-0.6,9.8-5.6,14.6-6.6c1.1-3.6-0.8-4.9-2-6.6
	c-12.5-17.2-20.7-36.1-25.2-56.9c-1.5-7.3-3.4-14.6-7.4-20.9c-1.7-2.7-3.8-5-5.9-7.4c-2.7-3.2-6.2-4.5-10.4-3.9
	c-5.3,0.7-10.6,0.8-15.8,1.7c-2,0.3-3.6,1.8-5.5,2.7c-0.3,6,1.1,10.9,4.2,15.5c4.6,2.9,9.9-0.7,15.3,2c-1.3,0.8-2.2,2.1-3.2,2.1
	c-10.2,0.4-19.3,3.9-28,9.1c-2,1.3-2.1,1.1-6-0.4c2.2-2,4.2-3.8,6.2-5.5c0.1-0.8,0.4-1.5,0.3-2.1c-1.4-3.6-2.7-7.3-4.5-10.8
	c-4.2-7.8-8.5-15.5-12.9-23.3c-1-1.8-1.8-3.8-2.5-5.7c-1.4-4.6-1-5.7,3.4-8.8c4.1-2.8,8.1-5.7,12.3-8.4c1.4-1,3.1-2,4.6-2.5
	c4.1-1.5,7.3,0.3,7.6,4.6c0.3,2.8-0.1,5.6,0,8.5c0.3,6.6-0.1,13.4,2.9,19.7c7-0.8,13.7-1.8,20.3-2.4c10.1-0.8,18.3,4.6,22.5,14
	c3.8,8.4,6.3,17.2,8.4,26.2c4.5,19.6,12.9,37.4,24.7,53.6c0.8,1.1,1.7,2.2,2.4,3.5c0.4,0.6,0.6,1.3,1,2.7c-1.4,1.1-2.8,2.5-4.5,3.5
	c-1.8,1.1-3.9,1.8-5.7,2.8c-5.9,3.2-6.3,4.8-2.7,12.5c-1.8,1.3-3.8,2.7-5.7,3.9c-2.9,2-4.2,4.6-3.8,8.1c1.1,11.1,0.7,15.7-2.5,27.5
	c-4.2,0.8-8.1,0.1-11.3-3.2c-2.9-3.1-5.9-6.2-9-9.1c-2-2-4.2-3.6-7.1-6.2c0.3,6,0.6,10.8,0.8,15.5c0.4,9.5,0.8,19,1.3,28.7
	c0.7,18.3,2.7,17.4,13.7,26.8c3.2,2.7,7,4.8,10.6,7c3.8,2.2,8,3.8,12.2,2.7c5.2-1.4,9.1,0.8,12.7,3.6c5,3.9,9.8,8.3,14.1,12.7
	c5.2,5.3,10.5,10.4,17.5,13.4c2.1,1,4.1,2.8,5.6,4.6c3.2,3.8,6,7.8,9,11.8c1.1,1.4,2.2,2.7,3.1,4.2c2.2,4.2,1.7,7.1-2.8,9.5
	c-2.7,1.4-3.5,3.1-3.5,5.7c0,0.8-1,1.7-2,3.1c-2.9-1.1-5.7-2.2-8.5-3.4c-2.1,1.5-4.1,2.9-6.6,4.8c-1.7-2.2-3.5-3.9-4.2-6.2
	c-1.7-5.7-3.1-11.6-4.3-17.5c-0.7-3.1-2-5.2-4.9-6.3c-3.6-1.4-7.1-3.1-10.8-4.5c-7.3-2.8-14.4-5.5-22-8.3c-0.3-3.1-0.4-5.9-0.7-8.5
	c-0.4-0.6-0.6-1.4-1.1-1.8c-6.2-4.6-11.8-9.9-19.5-14.1c0.1,2.4-0.1,3.8,0.3,4.9c5.2,15.5,12.3,30.3,21.3,43.8
	c7.4,11.2,15.8,21.7,25.2,31.5c6,6.4,11.9,13,18.3,19.2c7.3,7,13,15.8,19.3,23.9c0.4,0.6-0.1,2-0.3,3.4c-9.8,2.9-20.4,0.8-30.8,4.6
	c-2.4,6.9-5.2,13.7-7.1,20.9c-2.7,9.5-4.9,19.2-6.6,29c-1.4,8.4-1.1,16.9,1.4,25.2c2,6.3,6.4,10.9,11.1,15.3
	c3.4,3.1,7.3,5.6,10.8,8.5c2,1.5,3.8,3.2,5.3,5c0.4,0.6,0.1,2-0.1,2.9c-0.1,0.4-1.1,1-1.8,1c-1.7-0.1-3.5-0.4-5-1.1
	c-8.4-3.8-16.1-8.8-23.5-14.4c-2.5-2-5-4.1-7.7-5.6c-3.2-1.8-4.6-4.2-4.3-7.7c0.6-8.8,1.1-17.6,1.8-26.5c1.1-13.4,1.7-26.9,0.4-40.3
	c-0.1-1.4-0.7-2.7-1.3-4.6c-1.7,0-3.5-0.3-5,0.1c-7.3,2.7-14.4,5.6-21.6,8.4c-2.4,9.1-2,17.6-0.8,25.9c1.3,9.5,3.5,18.8,5.7,28.2
	c0.7,3.1,2.2,5.9,3.5,8.8c2.4,5.5,2.1,10.8-2.4,14.7c-7.3,6.4-12.9,14-18.6,21.7c-2.1,2.8-4.5,6.3-9.1,6.6c-1.3-4.1,1.1-6.4,2.9-8.8
	c4.6-6,7.4-12.7,10.4-19.7c2.7-6.3,3.9-12.9,3.8-19.6c0-2.8-0.6-5.7-1.8-8.1c-5.6-10.6-11.6-21.2-17.5-31.7
	c-0.4-0.8-1.5-1.4-2.5-2.1c-9.4,2.7-14.1,12.7-24.2,15.3c-1.3-1.8-2.5-3.4-3.5-5.2c-15.5-29.6-21.8-61.2-19.6-94.4
	c0.7-11.3,1.5-22.7,2.4-33.9c0.1-2.4,0.1-4.9,0.1-7.7c-4.9-2.2-9.7,0.3-14.7,0.4c-1.4,2.8-2.8,5.5-4.3,8.8c-2.5-1.7-4.8-2.8-6.6-4.3
	c-4.9-4.3-10.6-7-16.2-9.9c-4.8-2.5-8.8-1.5-12.6,1.7c-8.5,7.1-12.3,16.1-11.3,27.5c4.1,2.2,8,4.3,11.6,6.3
	c1.5,6.6,0.3,11.9-2.4,17.1c-11.3,22.1-22.1,44.4-30.8,67.6c-0.6,1.7-1.4,3.2-3.6,2.8c-0.1-0.3-0.6-0.7-0.6-0.8
	c1.8-10.8,3.2-21.7,5.9-32.4c1.8-7,1.5-14,2.1-21.2c0.3-4.2-5.6-10.5-10.6-11.9c-2-0.6-4.2-0.7-6.3-1.3c-1.4-0.3-2.7-1-3.8-1.7
	c-0.6-0.3-0.8-1.1-1.5-1.8c-0.1-3.8,1.5-7.3,3.2-10.8c6.3-13.4,12.6-27,18.8-40.5c1-2.1,1.3-4.6,2-7.1c-6.2-4.1-11.6-7.4-18.9-7
	c-6.4,0.3-12.5-2.1-18.2-5.2c-3.4-1.8-6.2-1.1-8.8,1.1c-6.9,6-10.8,13-7.3,22.5c0.7,1.8,0.6,3.8,1,6.3c-4.3-1.8-4.3-1.8-7.6-5.7
	c-0.6,0.3-1.5,0.3-1.8,0.7c-1,1.4-1.7,3.1-2.8,4.5c-0.6,0.6-2.1,1-2.7,0.6c-0.7-0.4-1.3-1.8-1.1-2.7c0.3-2.1,0.8-4.1,1.4-6.4
	c-2.8-0.4-5.2-0.6-7.4-1.3c-0.7-0.1-1.1-1.7-1.3-2.7c-0.1-0.6,0.4-1.5,0.8-1.8c1.3-0.7,2.5-1,3.9-1.4c15.3-4.2,24-17.5,21.1-32.9
	c-0.8-4.5-2.2-9-3.1-13.4c-1.8-10.8-3.9-21.6-5-32.5c-1.3-12.6-2.2-25.5-2.4-38.1c-0.1-10.2,0.4-20.4,4.6-30.3
	c3.6-8.5,9.1-15.1,17.2-19.3c5.2-2.7,10.5-3.1,16.5-2.1c15.7,2.5,25.8,12.5,34.3,24.5c5.6,8,8,17.2,10.6,26.5
	c0.8,3.1,0.6,6.3-1.3,9.5c-8,2.9-15.7-4.3-24.2-0.8c-3.5,6.2-1.5,11.9,2.2,17.9c8.8,0.6,16-4.1,23.4-7.4c2.1,1.1,1.7,2.4,0.7,3.6
	c-1.1,1.3-2.4,2.4-3.4,3.4c1.4,3.1,7.1,1.3,5.6,5.6c-1.1,3.2-4.3,0.4-6.6,0.6c-1,0-2,0.3-3.1,0.4c-0.3,2.8-0.7,5.3-1.1,9.5
	c-3.1-4.2-5-6.9-7-9.4c-16.4,3.2-12.7,5.9-11.3,16.2c0.7,4.8,2.5,9.5,3.6,13.4c5.9,3.5,11.3,2.4,16.5,2.5c1.8,0,3.9-1.7,5.2-3.1
	c3.6-3.8,7-8,10.5-12c0.8-1,2.1-1.5,3.4-2.4c3.4,6.7-5.2,8.3-4.9,13.9c2.7,0.3,5.3,0.4,7.8,0.7c1.1,2.2,0,3.5-1.5,4.5
	c-1.8,1-3.6,2-5.5,2.8c0.6,2.4,1,4.5,1.5,6.7c-1.3,0.3-2.2,0.7-3.2,0.7c-0.6,0-1.4-0.4-1.8-1c-6-8.3-13.2-6.2-20.4-2.7
	c-1.3,3.8,0.8,5.7,3.2,7.3c4.9,2.9,10.4,4.5,16.1,4.9c3.9,0.3,7.8,0.7,11.5,1.7c6,1.4,6.6,2.7,6.6,9.8c0,0.7,0.4,1.3,0.7,2.2
	c3.8,2.5,8.4,2.9,12.9,3.4c3.2,0.3,6.3,0.6,8.1,3.9c1.4,2.5,3.9,2.8,6.4,2.2c9.8-2,15.1-9,18.3-17.5c4.5-12.3,7.6-25.1,9.8-38.1
	c2.4-14,1-27.6-7.7-39.6c-3.2-1.3-5.2,1.3-7.6,2.5c-3.9,2.2-7.7,5.2-11.8,7c-6.3,2.9-10.8,1.3-14.4-4.6c-3.2-5.3-4.1-11.3-4.8-17.4
	c-0.8-8.4-1.4-16.9-1.5-25.5c-0.1-10.1-2.4-19.7-4.5-29.4C175.8,110.2,174.8,108.8,173.9,107z M262.3,168.8
	c-9.8,1.7-13.3,3.5-21.6,9.7c-5.7,4.2-8.1,9.1-7.4,16.4c0.7,7.7,1,15.7,0,23.4c-1.5,11.9-4.1,23.7-7.8,35.2
	c-2.5,7.7-4.6,15.5-6.9,23.5c-3.8,13.7-7.4,27.3-6.7,41.7c0.1,2.8-0.8,5.6-1,8.4c-0.3,10.6-1.1,21.3-0.6,31.8
	c0.8,15.7,5.3,30.7,10.1,45.5c2.7,8,6.3,15.5,11.5,23.2c7.6-5.5,14.7-10.6,21.6-16c7.1-5.5,15-9.5,23.1-12.7
	c8.3-3.2,16.4-6.7,24.8-9.5c8.4-2.8,16.9-5.3,25.5-7.4c8.4-2.1,17.4-1.3,26.2-4.3c-2.7-7.1-7.6-11.6-12-16.5
	c-5.2-5.3-10.5-10.5-15.4-16.1c-11.6-12.9-22.3-26.6-31.7-41.2c-14.8-23.1-22.7-48.6-27.6-75.2c-0.3-1.4-0.1-2.8-0.1-4.2
	c-0.3-13.4-0.3-26.9-0.7-40.3C265.3,179,265,173.9,262.3,168.8z M145.1,169.5c0-2.4,0.4-3.8,0-5c-2.2-9.8-6.9-18.6-12.6-26.8
	c-3.9-5.5-8.7-10.4-14.7-13.6c-6.6-3.5-13.3-6.9-21.1-5.2c-10.6,2.2-17.9,8.8-21.4,18.6c-3.2,9-3.9,18.6-3.8,28.3
	c0.1,5.6,0.4,11.3,0.8,16.9c0.3,3.8-0.7,7.8,1.8,11.6c7.1,0.7,13.7,0.7,18.6-6.3c1.8-2.7,4.5-5.5,8.1-5.5c3.6,3.8-2,5.7-1.1,8.8
	c0.8,0.4,2,0.8,2.7,1.4c0.7,0.7,1.8,2,1.5,2.4c-0.6,1.1-1.7,2.4-2.7,2.5c-2.2,0.4-4.6,0.3-7.8,0.4c0.7,2.1,1.1,3.4,1.4,4.6
	c0.6,2,0.3,3.8-1.8,4.3c-1,0.3-2.5-0.7-3.4-1.5c-1.1-1.1-2-2.7-2.9-4.1c-3.2,1.3-5.9,2.1-8.4,3.4c-3.2,1.5-4.1,3.2-3.8,6.7
	c0.6,4.6,1,9.1,1.7,13.7c1.5,9.8,3.5,19.5,7.7,28.6c4.2,9.1,10.9,13.4,21,12.7c3.8-0.3,7.6-1.7,11.3-2.5c4.5-1.1,8.8-2.5,13.3-3.4
	c4.6-0.8,6.7,1.3,6.4,5.7c-0.7,8.5-3.4,16.7-7.1,24.4c-6.6,13.7-13.7,27-20.6,40.8c-0.8,1.7-0.7,3.9-1.1,6.6
	c3.8,0.6,6.9,0.7,9.8,1.4c3.4,0.7,7,1.5,10.1,2.9c4.6,2.2,6,5.5,5.3,10.5c-0.3,2.1-1,4.1-1.7,6.2c-2,6.4-3.9,12.9-5.7,19.3
	c-0.4,1.4-0.4,3.1-0.7,5.3c1.4-1,2.2-1.3,2.5-1.8c7.1-14.7,14.3-29.3,21.3-44c1.7-3.5,2.8-7.3,0.4-12c-4.2-1-9-2.1-13.7-3.4
	c-2.2-0.6-3.6-2.2-3.6-4.6s0.1-5,1-7.3c1.5-3.9,3.4-7.8,5.7-11.3c7.1-10.1,14.7-20,22.3-29.7c2.7-3.4,5.3-6.6,6-11.1
	c-0.8-0.8-1.5-1.7-2.5-2.1c-1.7-0.7-3.4-1.3-5-1.3c-6.9-0.1-13-2.9-19.6-4.5c-4.8-1.3-8.4-3.9-10.5-8.3c-2.7-5.3-5.7-10.8-7.3-16.5
	c-3.2-13-6.4-26.1-5.3-39.8c0.3-4.1,1.4-8.5-1-12.2c-3.8-2.7-9.5,0.6-12.9-5c7.6-3.4,14.8-5.3,22.7-2.8
	C131.4,168.2,137.5,168.9,145.1,169.5z M214,84.3c-12.6,0.3-22.5,5.5-31.7,12.6c-4.9,3.9-5.3,5-3.2,10.8c2.7,7.7,4.6,15.5,5.7,23.7
	c1.1,7.7,1.1,15.5,1.5,23.3c0.4,8.5,1,17.1,4.5,24.9c2.5,5.9,6.3,7.3,11.8,3.6c12.5-8.1,24.7-16.5,36.7-25.2
	c4.6-3.2,8.5-7.4,12.6-11.3c2.9-2.9,3.9-6.7,2.5-10.8c-5.2-14.4-11.3-28.3-20.2-40.8C229.1,87.8,221.8,85,214,84.3z M306.4,276
	c10.6,8,25.1,9.2,35.3,17.8c2.5,5.5,0.3,12,4.8,16.9c2.7-2.5,0.7-7.1,5.3-7.7c3.2,2.7-1.3,9.9,6,10.2c2.4-2.5-0.1-6.6,2.8-8.7
	c1.7,0.7,3.1,1.4,5.6,2.7c-2.4-6.4-5.9-10.9-10.6-13.7c-7.3-4.2-12.6-10.2-18.5-15.8c-5-4.9-10.2-9.8-15.5-14.4
	c-2.8-2.5-5.7-5-10.2-5.2C308.5,263.6,306.2,269,306.4,276z M160.3,278.4c3.9,3.8,8.8,4.6,13.3,6c4.6,1.4,7.4,6.6,13.4,5.7
	c1-5.7,1.5-11.1-1-16.2c-6.6-1.4-12.6-2.8-19.9-4.3c-0.8,1.1-2,2.5-2.9,4.1C162.3,275.1,161.5,276.6,160.3,278.4z M119.6,271.1
	c2.2,1.3,4.6,2.7,7.1,3.8c0.7,0.3,2.4-0.1,2.7-0.7c0.6-1.5,1.1-3.4,0.8-4.9c-0.1-1-1.8-2.2-2.9-2.4
	C123.9,266.2,121,266.7,119.6,271.1z"/>
<path d="M638.4,281.2c-1.7,7.1-3.2,12.9-4.2,18.8c-0.8,5.2-0.8,10.6,0.7,15.8c1.3,4.5,2.5,8.8,3.6,13.3c1,4.2-0.3,7-4.3,8.4
	c-5.3,2-10.9,3.2-16.7,2.8c-4.2-0.4-6.4-2.5-6.4-6.9c0-4.2-0.3-8.4-1.4-12.9c-7.1,7.6-7.8,11.6-3.6,19c1,1.8,2.2,3.6,3.4,5.5
	c8,12.2,9.9,25.9,9,39.8c-0.7,8.4-4.6,16.1-13.3,20.4c-9,4.5-17.9,8.3-27.9,9.9c-4.5,0.8-9,2.1-13.3,3.5c-3.9,1.3-6.7,3.8-7.4,8.1
	c0,0.3-0.3,0.7-0.3,1c-3.2,15.8-3.5,23.1,11.9,35.4c5.5,4.3,11.3,6.9,18.2,7.8c6.6,0.8,13.2,2.9,19.6,4.6c1.4,0.3,2.9,0.7,3.8,1.7
	c0.8,0.8,1.5,2.5,1.3,3.6c-0.3,1.1-1.7,2-2.8,2.8c-0.6,0.3-1.4,0.1-2.1,0.1c-7.1,0.1-14.1,0-21.3,0.3c-8.1,0.4-16.2,1.3-24.4,2
	c-1.8,0.1-3.5,0.7-5.3,0.7c-3.6,0.1-6.3-1.7-7.1-5c-1-3.4-1.3-7-1.8-10.5c-2.1-11.9-3.9-23.8-6.2-35.6c-0.8-4.1-1.7-8.4-4.5-11.6
	c-11.8-2.2-38.2-0.7-51.7,2.8c-6,11.2-7.8,22.1-5.3,33.6c1,4.9,1.5,9.7,3.9,14.3c2,3.9,0.7,6.7-2.8,9c-1.5,1-3.2,1.5-4.8,2.2
	c-11.3,4.8-22.8,9.7-34.3,14.4c-4.2,1.7-8.7,3.1-13,4.2c-2.2,0.6-4.3-2.1-3.4-4.1c1.7-3.1,3.4-6.3,5.9-8.7
	c6.6-6.6,14.4-11.3,23-15.1c9.9-4.3,11.6-7.1,8.3-17.1c-3.5-10.8-7.6-21.3-11.6-32.5c-2.4-0.6-4.6-1.3-7-1.4
	c-3.5-0.4-7.1-0.6-10.6-0.6c-12.6,0.1-24.5-3.1-36.3-7.1c-8-2.8-13.4-8.3-16-16.9c-2.4-8-3.2-15.8-1.8-24.1c1-5.6,1.5-11.3,1.5-16.9
	c-0.3-17.6,8.1-31.2,19.6-43.3c4.1-4.3,6.7-8.4,8-14.3c1.4-6.4,4.1-12.9,7-18.9c5.7-11.3,10.6-23.2,18.6-33.3
	c2.2-2.9,2.7-6.3,2-10.1c-1.1-5.6-2.1-11.1-5-16.1c-1.5-2.7-2.7-5.7-3.6-8.8c-1.4-4.2-0.3-6.7,4.1-8.3c2.9-1.1,6.2-1.8,9.2-2.5
	c3.1-0.7,6.3-1.4,9.4-1.5c10.1-0.3,15.7-6.7,18.6-15c3.6-10.4,4.8-21.3,3.8-32.9c-2.4-0.3-4.3-0.4-6.4-0.7
	c-7.7-1.3-13.2-8.7-11.9-16.1c0.6-3.4,2.7-5.7,5.3-7.6c8.3-5.5,20-5,28,1.1c7.1,5.5,7.7,11.8,1.8,19c-0.7,0.8-1.4,1.7-2.4,2.9
	c8.3,11.5,17.5,21.7,31.8,26.3c1.3-1,2.5-1.7,3.5-2.7c7.3-6.6,14.6-13.3,22.3-20.4c-2.7-2.9-5-5.3-7.3-8c-2.4-2.9-2.4-5.5-0.4-8.7
	c6-9.4,19-11.5,28-4.3c0.8,0.7,1.5,1.4,2.2,2.2c8,8.4,8,12.6-1,20.2c-6.7,5.5-10.1,12.7-12.2,20.7c-5.7,21-8.3,42.4-6,64.1
	c1.3,11.8,5,22.8,14,31.4c3.4,3.2,6,7,9.1,10.4c3.9,4.3,6.9,8.8,6.4,15.1c-0.1,1.5,1,3.4,2,4.6c2.4,2.7,4.8,5.2,9.1,5.7
	c7.7-4.1,13.4-10.8,19-17.6c2-2.4,2.2-5.3,2.4-11.5c-10.5-3.4-21.8,2.4-33.1-2.4c-2.2-2.4-4.6-5.3-4.6-9.5c0-4.2,1.7-7.6,4.2-10.6
	c4.9-6.3,12.7-7,18.6-1.7c2.2,2.1,4.1,4.8,6.2,7.4c3.9,0,6-2.1,5.9-5.9c-0.3-10.6-0.6-21.3-1.4-31.8c-1-12.7-1.8-25.5-3.9-38.1
	c-1.5-9.2,0.1-17.5,2.8-26.1c5.7-18.9,12.9-37.5,16.9-57c0.3-1.4,0.8-2.8,1.5-3.9c0.6-0.7,1.7-1.1,2.7-1.3c0.6,0,1.4,0.6,1.7,1.1
	c0.7,1.7,1.1,3.4,1.5,5c3.5,12.2,7.1,24.5,10.8,36.7c0.6,2,1.4,4.2,2.7,5.7c5,5.9,4.1,12.3,2.7,19c-5.2,24.9-9.2,50.1-10.6,75.6
	c-0.1,3.2,0,6.4,0.3,9.5c0.1,1.7,0.6,3.5,1.1,5.2c3.1,8.3,7.4,9.2,14,3.1c1.8-1.7,3.4-3.8,5.3-5.2c6-4.5,12.7-3.6,16.9,1.8
	c4.9,6.4,3.4,12.9-4.1,16.5c-4.8,2.2-9.7,4.2-15.1,4.6C646.9,279.7,642.8,280.5,638.4,281.2z M384.6,380.9c-0.1,1.1-0.6,2.5-0.7,3.8
	c-0.3,1.4-0.4,2.8-0.6,4.2c-0.7,12.6,5.6,22,17.6,25.9c2,0.7,4.1,1.4,6.2,1.7c6,0.6,11.9,0.8,17.9,1.3c9.8,0.8,19.7,1.3,29.6,2.8
	c9.2,1.4,18.3,1.5,27.5,0.7c7.7-0.7,15.5-1.8,23.2-2c24.9-0.4,49.3-3.5,73.5-9.5c8-2,15.4-5.3,22.7-9c6.4-3.4,10.2-9.2,10.5-16.2
	c0.3-7,0.4-14.4-1.8-21c-5.6-17.2-14.7-33.1-26.6-46.8c-2.7-3.1-5.7-6.2-10.6-7c-5.2,9.5-14,15-21.8,21.6
	c-14.4,12.2-31.8,17.1-49.9,18.5c-18.8,1.5-37.4-0.6-55.6-6.3c-6-2-12-3.9-18.2-5.7c-9.8-2.9-18.3-7.4-22.4-18.3
	c-8.5,6.6-12.7,15-16,24c-0.4,1.3,0.7,3.4,1.7,4.6c2.4,2.9,5.9,3.6,9.5,3.8c8.4,0.4,16.9,0.8,25.4,1.4c5.6,0.4,11.2,1.1,16.8,2
	c2,0.3,4.1,1.4,5.9,2.5c3.8,2.4,4.2,6.7,1,9.9c-3.5,3.6-7.8,6.2-12.9,7c-4.5,0.7-9.1,1.3-13.7,1.3c-7.4,0-14.8-0.3-22.3-0.6
	C394.5,375.2,388.9,375.9,384.6,380.9z M492.4,236.8c-11.8-0.3-24.7,1.7-37.5,4.5c-7.7,1.7-13.7,5.3-18.1,11.9
	c-2.1,3.2-4.3,6.4-6.2,9.8c-4.2,7.8-8,15.8-12,23.7c-4.1,7.7-6,15.8-6.4,24.4c-0.6,10.2,1.3,13.7,10.8,18.5c1.5,0.8,3.2,1.5,4.9,2.1
	c13,4.6,26.1,8.8,39.8,10.9c21,3.1,41.6,2.5,61.8-4.9c2.9-1.1,6-2.2,8.7-4.1c6.7-4.6,13.3-9.5,19.5-14.6c5.2-4.3,9.4-9.5,11.2-16.4
	c1.1-4.1,1-7.8-1.5-11.1c-2.8-3.6-5.7-7.1-8.8-10.5c-5-5.5-10.2-10.8-13.2-17.8c-1.4-3.2-2.2-6.7-3.5-9.9
	c-2.1-5.2-5.3-9.2-10.9-10.6C518.3,239.5,506.3,236.7,492.4,236.8z M441.7,239.2c3.2-1.1,5.9-2.2,8.4-3.1c2.7-0.8,5.5-1.7,8.1-2.1
	c4.5-0.7,9.1-0.8,13.7-1.5c16.9-2.7,33.8-2.7,50.4,1.8c5.3,1.4,10.8,2.9,16.2,2.5c0.7-1.1,1.3-1.7,1.3-2.2c0.3-2.5,0.3-4.9,0.3-7.4
	c0-21,2.4-41.6,10.6-61.2c0.3-0.7,0.4-1.4,0.6-2.1c0.3-1.5-2-3.5-3.5-2.9c-1.3,0.4-2.7,1-3.8,1.7c-7.1,4.6-13.6,10.1-19.2,16.7
	c-5.6,6.4-11.5,12.5-17.4,18.6c-0.6,0.6-2.1,0.7-2.8,0.3s-1.4-2-1.1-2.7c0.8-2.2,2.1-4.3,3.2-6.6c-0.7-1.4-1.1-2.8-2-3.8
	c-6-7.4-11.9-14.8-18.1-22.1c-1.1-1.4-2.5-2.5-4.1-3.4c-1.4-0.7-3.1-0.7-5-1.3c-0.8,4.9-2.1,9.1-2.2,13.2
	c-0.1,10.9-3.8,20.9-7.7,30.7c-2.1,5.5-4.6,10.9-9,15.3c-4.1-4.1,2.1-7.6-0.6-11.3c-8.1,0-16,2-23.7,4.5c-1.3,0.4-2.1,1.7-3.5,2.8
	C434.6,222,437.9,230,441.7,239.2z M625.5,264.4c1.4-10.6,2.8-21.4,3.8-32.4c1.8-18.6,3.5-37.3,6-55.9c0.8-6.2,0.8-12-0.4-17.9
	c-3.2-13.7-6.9-27.3-10.5-42.2c-1.4,2-2.4,2.9-2.8,4.2c-1.5,4.6-2.9,9.4-4.5,14.1c-3.4,10.5-6.6,20.9-9.9,31.4
	c-1.4,4.1-1.5,8.1-1.1,12.5c1.3,13.3,2.1,26.8,2.8,40.2c0.7,13.4,1.1,26.9,1.7,40.2c0.1,2.4,0.8,4.6,1.4,7
	C616.7,266.7,620.7,266.2,625.5,264.4z M621.3,273.8c0,0.1,0,0.4,0,0.6c3.9,0.1,7.7,0,11.6,0.3c7.8,0.6,15.5-0.6,23.1-2.2
	c3.1-0.7,6-2.1,8.7-3.6c2.4-1.3,2.8-5.2,1.3-7.6c-1.5-2.5-5-3.2-7.4-1.3c-2.1,1.8-4.2,3.9-5.7,6.2c-2.5,3.5-5.6,4.9-9.9,4.9
	c-11.2,0.1-22.5,0.7-33.8,1c-1.1,0-2.1-0.1-3.2,0c-6.6,0.6-11.6-1.3-14.1-8.1c-1.1-2.9-3.6-5.3-7.4-4.9c-3.6,0.6-5,3.6-6.3,6.4
	c-0.3,0.6-0.4,1.4-0.6,2.1c-0.6,2.5,0.7,4.9,2.9,6.2c4.2,2.2,8.8,2.2,13.4,2C603.1,274.9,612.2,274.4,621.3,273.8z M634.7,332.2
	c-2.2-9.1-4.1-16.9-6.2-24.7c-0.3-1.3-1.4-2.2-2.1-3.4c-8.5,2.5-9.5,3.4-9.8,10.1c-0.3,5.2-0.3,10.5-0.1,15.8
	c0.1,4.5,2.4,6.3,6.9,5.3C626.9,334.9,630.1,333.6,634.7,332.2z M470,130.8c-0.4,0.1-2.9,0.3-5.3,1c-4.5,1.3-6.6,4.3-6.3,8.5
	c0.4,4.5,3.8,8.8,7.6,9c4.9,0.1,9.9,0,14.7-0.8c5.2-0.8,7.3-6.2,4.5-10.6C482.2,132.8,477.7,130.5,470,130.8z M540.5,144.7
	c2,2.4,3.5,4.6,5.5,6.6c6,6,9.1,5.3,16,1.8c3.6-1.8,4.5-6.6,2-10.1c-3.1-4.2-7.3-6.7-12.5-6.7C546.5,136.4,542.6,138.6,540.5,144.7z
	 M617.2,281.2c1.8,4.2,2.1,4.8,3.5,4.8c2.9,0,5.3-0.7,6.6-4.3C623.7,280.2,620.6,279.7,617.2,281.2z"/>
<path d="M842.9,443.4c-2.1-0.4-3.8-1.3-5.3-1.1c-9.9,0.8-19.5,3.1-28.7,7.1c-4.6,2-7.4,5-8.1,10.2c-0.7,5.2-2,10.4-2.9,15.7
	c-0.7,3.8-1.1,7.7-2.2,11.5c-1.8,6.2-6.4,9-12.6,9.7c-3.1,0.3-5.6-1.5-6-4.6c-0.4-3.1-0.3-6.3-0.3-9.5c0.1-5.3,0.7-10.6,0.6-16
	c-0.1-3.1-0.8-6.3-2-9.2c-0.4-1.1-2.8-2.5-4.2-2.4c-7,1-13.9,2.4-20.6,3.6c-4.3,5.7-5.3,11.9-5.5,18.3c0,4.8-1,9.1-3.2,13.3
	c-1.4,2.7-3.5,4.5-6.3,5.5c-5.2,2-9.5-0.6-9.8-6c-0.1-4.6,0.4-9.1,0.7-13.7c0.1-2.1,0.6-4.2,0.3-6.3c-0.4-3.8-2.4-5.6-6.3-5.9
	c-7.4-0.6-14.8-1-22.3-1.4c-5.7-0.3-11.2-1.4-16.1-4.8c-4.1-2.8-6.2-6.3-6.9-11.3c-2.8-18.3,0.6-35.9,4.9-53.5
	c5.2-20.6,9.4-41.6,9.8-62.9c0.3-13.9-0.6-27.6-1.5-41.5c-1.4-19.7-2.9-39.6-4.9-59.4c-1.4-13.3-3.5-26.6-5.7-39.9
	c-1.7-10.5-3.9-20.9-6-31.2c4.9-3.5,5.2-3.5,9-0.8c6.3,4.5,12.3,9.7,19,13.4c11.5,6.3,23.1,12.2,35,17.6c15.3,7,30,4.2,43.3-5
	c11.9-8.3,22.3-18.6,31.4-30c5.7-7.1,11.8-14.1,17.8-21.1c1.3-1.5,3.1-2.5,5.3-4.3c1.1,2.7,2.5,4.5,2.5,6.3c-0.1,10.8,3.1,21,5,31.4
	c6.7,34.9,17.6,68.6,31.7,101.3c6.7,15.5,14.7,30.7,22.3,45.8c3.8,7.6,9.5,13.2,16.9,16.9c8,4.1,15.5,4.2,22.8-1.5
	c10.8-8.5,21.6-17.1,32.6-25.6c7.6-5.9,15.4-11.5,23.1-16.9c2-1.4,4.3-2.7,7-1.5c1.1,0.6,2.1,1.7,3.6,2.9
	c-6.4,7.6-13,14.6-18.6,22.1c-10.8,14-23.8,26.3-32.5,41.9c-5.6,9.8-10.6,20-16.4,29.8c-4.2,7-8.3,14.1-13.9,20
	c-11.1,11.8-13.6,25.2-10.9,40.3c0.7,3.8,1.3,7.7,1.1,11.6c-0.3,7.6-10.1,13.4-17.1,10.8c-2.5-1-4.1-2.9-4.2-5.6
	c-0.3-2.5,0.1-4.9-0.1-7.4c-0.6-6-1.1-12-2-17.9c-0.3-2-1.7-3.8-2.4-5.5c-4.6-0.7-8,1.4-11.6,2.9c-3.2,1.4-5.3,3.8-6,7
	c-0.8,4.5-1.7,9.1-1.8,13.6c-0.3,6.3,0.4,12.7,0.3,19.2c-0.3,7.4-4.5,11.8-11.5,13c-4.8,0.8-7.6-1-8-5.9c-0.6-8.1-0.8-16.2-1.3-24.4
	C843.4,449.3,843.1,446.6,842.9,443.4z M916.2,344.2c-1,4.5,1.1,7.6,2.2,10.8c0.6,1.7,0.8,3.4,1.1,5.2c0.1,1.3-2.1,2.7-3.1,1.8
	c-1.5-1.3-3.4-2.7-4.3-4.3c-6.2-11.6-12.2-23.1-18.1-34.9c-9.7-19.3-19.2-38.8-28.6-58.1c-1.4-2.8-2.2-5.9-3.5-8.8
	c-6.2-15.1-10.9-30.7-15.7-46.2c-5-16.2-9.1-32.8-11.5-49.6c-1-6.6-1.4-13.3-4.6-19.9c-4.3,2.1-6.6,5.7-9.4,8.8
	c-11.6,13.3-23.3,26.6-37.7,37.3c-5.9,4.3-11.9,7.8-18.8,9.4c-11.2,2.5-22.4,3.5-33.1-2.2c-4.6-2.5-9.5-4.9-14.4-6.7
	c-11.1-4.2-20.9-10.2-30-17.9c-2.1-1.8-4.5-3.1-7.6-5.2c0,2.4-0.3,3.8-0.1,5c1,5.6,2.1,11.2,3.4,16.7c2.8,12.7,5.3,25.6,6.2,38.8
	c1.1,16.2,2.2,32.5,4.2,48.6c1.7,13.4,2.9,26.8,2.7,40.2c-0.3,13.2,0.3,26.3-1.5,39.2c-2.5,17.5-6.4,34.9-10.9,52
	c-3.5,13.7-3.6,27.3-1.5,41c0.3,1.7,0.7,3.5,1.4,5c1.5,2.9,3.6,5.3,7.1,5.7c8.4,0.8,16.8,1.8,25.3,2.4c13.6,1,26.5-4.1,39.8-5.3
	c9.4-1,18.9-2.8,28-5c8.3-2.1,16.8-1.7,25.1-3.8c7.3-1.8,14.4-3.5,21.6-5.5c8.1-2.2,16.5-4.1,24.4-7c16-5.7,31.5-12.7,45.7-22.4
	c11.5-7.8,21.6-17.1,27.9-30c4.1-8.3,8.5-16.4,12.7-24.5c6.9-13,16.2-23.9,25.5-35.3c5-6.3,10.2-12.5,16.7-20.2
	c-6.4,2.4-10.2,5.6-14,8.5c-16.2,12.6-32.1,25.8-50.6,34.9C917.5,342.8,917.1,343.4,916.2,344.2z"/>
<path d="M196.3,487.1c-2.8,0.8-4.5,1.5-6,1.7c-13,0.8-26.2,1.5-39.2,2.1c-12,0.6-24,1-36,1.3c-4.9,0.1-9.9,0.3-14.8-0.3
	c-6-0.7-12-0.1-17.9,0.4c-2.1,0.3-4.2,0.4-6.3,0.4c-21.3-1.1-42.3,2-63.4,4.1c-4.2,0.4-8.4,1-12.5-0.8c-0.7-4.3,1.7-6.2,5.2-6.7
	c3.1-0.6,6.3-0.6,9.5-0.8c25.8-2.4,51.5-4.2,77.5-3.6c18.8,0.4,37.5-0.4,56.3-0.6c12.7-0.1,25.5,0.6,38.1-1.3
	C189.6,482.3,192.7,483.2,196.3,487.1z"/>
<g>
	<path d="M433.9,541.4c11.1-5.2,18.5-12.9,27.5-18.5c2.5,2.1,2.8,3.2,1.3,4.5c-2,1.5-4.1,2.8-6,4.2c-3.1,2.2-6.2,4.6-9.5,7
		c2.9,8.4,10.9,11.6,15.3,17.6c-0.4,3.5-2.4,3.5-4.5,2c-3.1-2.4-5.9-5-8.8-7.7c-2.4-2.1-4.6-4.2-7.3-6.6c-5.3,2-8.5,4.9-7.8,10.9
		c0.1,1.4,0.4,2.8,0,4.1c-0.1,0.7-1.4,1.7-2.2,1.7c-0.8,0-1.5-1-2.4-1.7c-0.3-0.1-0.3-0.7-0.3-1c-0.3-9.5-0.6-19-0.7-28.6
		c0-1.8,0.4-3.5,3.4-3.9C432.5,530.5,433,535.1,433.9,541.4z"/>
	<path d="M492.1,561.9c5.3,2.7,8.3,7.1,10.4,12c2.7,6.2,4.6,12.6,6.7,19c0.6,1.7,0.3,3.5-2.7,4.2c-1.7-3.2-3.4-6.6-5-10.1
		c-5.2-1.5-9.9,0.1-14.3,2.2c-2,1-2.8,3.8-4.3,5.6c-0.7,0.8-2,1.3-4.8,2.9c4.1-12.3,7.4-22.7,11.3-32.8
		C489.8,564,491,563.2,492.1,561.9z M488.4,582.1c3.8,0.7,7.4,1.4,10.9-1.5c-1.1-4.3-2-8.3-7-9.8
		C489.8,574.1,488.1,577.4,488.4,582.1z"/>
	<path d="M516.5,545.4c-2.7,3.6-0.7,7.3-1.4,10.6c-0.1,1.1-1.5,1.8-2.4,2.8c-1-1-1.8-1.4-1.8-1.8c-0.4-7-0.7-14.1-1.3-21.2
		c-0.3-5,2.2-8,6.6-9.8c1.7-0.7,3.2-1.4,5-1.8c4.8-1.3,8.7,0.3,10.9,4.2c2.8,4.9,2.7,10.4-1.1,13.6c-1.7,1.5-4.3,2.1-6.6,2.7
		c-1.3,0.4-2.8-0.1-4.2,0C518.9,544.8,517.6,545.2,516.5,545.4z M514.7,536c0.8,1.1,1.5,2.7,2.7,2.9c2.2,0.8,4.6,1.4,7,1.4
		c3.1,0,5-2.5,4.8-5.6c-0.6-4.5-3.1-6.7-6.9-5.6c-2,0.6-3.8,1.5-5.5,2.8C515.8,532.9,515.5,534.4,514.7,536z"/>
	<path d="M488.5,529.1c2.7,0.3,6.2-0.3,8,3.2c1.8,3.6,0.4,7-1.7,9.9c-4.5,6-10.1,9.8-18.1,8.4c-4.2-0.7-6.6-3.2-7.6-7.7
		c-1-4.9,0-7.4,3.8-10.1C477.4,529.5,482.8,529.1,488.5,529.1z M484.4,533.5c-1.7,0.4-4.3,1-7,1.8c-2.4,0.8-3.8,3.5-3.4,5.9
		c0.3,2.4,2.4,4.3,4.9,4.9c5.2,0.8,10.8-2.4,12.6-7.4c0.8-2.1-0.6-4.3-2.8-4.8C487.8,533.7,486.7,533.7,484.4,533.5z"/>
	<path d="M606.6,514.8c0.8,4.8,1.8,9.4,2.7,13.9c4.3,0.4,8.3,0.6,11.9,1.4c4.2,0.8,6.4,3.8,6.7,7.1c0.3,4.2-2.7,8.5-6.9,9.5
		c-4.9,1.3-9.8,0.6-15.4-0.4c-0.3-10.2-2.2-20.2-1.4-30.3C604.2,515.8,605.2,515.5,606.6,514.8z M616.4,533.9
		c-0.7,0.1-1.4,0.1-2.1,0.3c-2.1,0.4-4.5,1.3-4.5,3.6c0,1.8,1.3,3.9,2.5,5.3c0.7,0.8,2.5,1.3,3.8,1.3c3.5,0.1,6.7-2.5,6.9-5.2
		C623.2,536.5,620,534,616.4,533.9z"/>
	<path d="M565.8,537.1c-0.6,10.6-8.1,14.6-16.4,14.1c-1.5-0.1-3.4-1-4.6-2.1c-4.3-3.9-3.9-14.3,0.7-17.8c2.2-1.7,4.6-3.2,7.1-4.3
		c6.6-2.9,11.9,0.1,12.9,7.4C565.7,535.4,565.7,536.5,565.8,537.1z M557.4,530.7c-6.9,0.1-11.3,5.5-10.2,11.2
		c0.4,2.2,1.8,3.8,4.2,3.9c6.7,0.6,11.5-5,9.5-11.5C560.4,532.8,558.4,531.5,557.4,530.7z"/>
	<path d="M550.6,572.1c2.1-1.1,3.6-2.1,5.2-2.5c10.8-3.4,12.2-2.5,13.7,8.5c0.3,2.5,0.7,4.9,1.3,7.3c0.4,2,1.1,3.8,1.7,5.6
		c-2.1,2-3.9,1.7-4.9-0.1c-1.1-2.1-1.8-4.6-2.4-7c-0.6-2.4-0.6-4.9-1.1-7.3c-0.4-1.8-2.1-2.8-4.1-2.8c-2.2,0-4.3,1.5-4.5,3.6
		c-0.1,2.1,0,4.2,0.1,6.3c0,0.7,0.3,1.4,0.3,2.1c0.3,1.8,0.1,3.9-2.2,3.8c-0.8,0-2.4-1.7-2.4-2.8C550.8,581.9,550.8,577,550.6,572.1
		z"/>
	<path d="M536.4,572c-2.9,0.6-5.3,0.8-7.6,1.5c-2.7,0.8-3.8,2.9-3.5,5.7c0.3,2.8,0.8,5.6,1,8.4c0,1.1-1,2.2-1.7,3.9
		c-2.8-6.3-4.1-13.2-3.1-16.5c0.1-0.7,0.4-1.4,0.8-1.8c4.2-4.3,9.5-5.7,15.1-6c1.1,0,3.4,2,3.5,3.4c1,6.2,1.5,12.5,2.1,18.8
		c0,0.6-1.4,1.7-2.1,1.7s-1.8-1.1-2-1.8c-0.6-2.8-0.6-5.6-1-8.4C537.7,577.9,537.1,575.2,536.4,572z"/>
	<path d="M582.5,533.9c-3.9,3.6-3.8,7.7-4.1,11.5c-0.1,1-0.1,2.1-0.6,3.1c-0.1,0.6-1.3,1.3-1.5,1.1c-0.8-0.4-2.2-1.3-2.1-1.8
		c0.3-3.1,0.7-6.3,1.4-9.4c1-4.1,2.2-8.1,3.5-12.6c1.7-1.5,3.9-1.7,5.2,0.4c3.6,6,7,12.2,10.2,18.5c0.4,0.8-0.1,3.1-1,3.5
		c-2,1.3-3.1-0.4-3.9-2.1C587.8,542.3,586.5,537.8,582.5,533.9z"/>
</g>
<g>
	<path d="M53.6,531.9c4.3,2.7,2.9,6.6,3.5,9.7c0.7,3.4-0.8,7.1,2.4,10.2c3.9-1,6.3-4.3,8.8-7c3.2-3.4,5.7-7.1,9.1-10.2
		c1.8-1.7,3.9-0.7,4.5,2.8c-5,3.8-9.8,8.4-13.4,14.3c3.5,8.1,10.5,13.2,17.8,19c-1.5,1.7-2.4,2.7-3.8,4.1
		c-6.7-6.4-12.5-12.2-17.9-17.5c-4.2,1.3-5.3,4.2-5.2,7.6c0.1,2.8,0.8,5.6,0.8,8.4c0,1-1.5,2.5-2.5,2.7c-0.8,0.1-2.5-1.4-2.7-2.4
		c-0.8-7.7-1.5-15.4-2-23.2c-0.3-4.6-0.4-9.2-0.4-13.7C52.5,535.1,53.2,533.9,53.6,531.9z"/>
	<path d="M144.5,552.8c-2.9,0.6-5.6,1-8.3,1.8c-4.2,1.3-8,3.1-7.6,8.7c0,0.8-1.4,1.8-2.5,3.1c-3.1-9.2-3.8-21.7-1.8-31.7
		c1.1,1.3,2.5,2,2.7,2.9c0.7,4.1,1,8.3,1.5,13.2c3.1-0.6,5.5-0.8,7.7-1.4c2.4-0.6,4.6-1.4,6.6-2c4.1-6.6-1.8-13.3,1.3-19.9
		c3.5,4.2,3.5,4.2,4.1,9.2c0.4,3.5,1,7,1.5,10.5c0.6,3.5,1.3,7,2.1,10.4c0.8,3.4,2,6.7,3.1,10.1c-1.3,0.6-2.2,1-3.5,1.5
		C147.7,564.4,148.2,557.8,144.5,552.8z"/>
	<path d="M287,540.9c0.1-7,0.3-13.2,0.4-19.3c3.2-0.6,3.5,1.3,3.6,2.9c0.4,5.6,0.3,11.3,1,16.9c0.8,5.9,2.4,11.8,3.5,17.6
		c0.1,0.6-0.7,1.7-1,1.7c-1,0-2.2-0.1-2.7-0.8c-0.7-1.1-1-2.7-1.4-3.9c-1-2.9-2-5.9-2.9-9.1c-2,0.1-3.4,0-4.6,0.4
		c-3.4,1.1-6.6,2.5-9.4,3.6c-0.7,1.3-1.1,1.8-1.3,2.5c-0.6,2.4,1.8,6.7-2.7,6.6c-3.1,0-2-3.9-2.2-6.3c-0.8-8.4-1.7-16.9-2.2-25.3
		c-0.1-1.1,0.4-2.4,0.8-4.2c3.2,4.3,3.2,4.3,3.6,9.9c0.3,3.5,0,7.1,2.4,10.6C276.9,545.4,281.2,543,287,540.9z"/>
	<path d="M253.8,535.8c0.6,8.3,1.1,15.5,1.7,23.5c-1.3,0-2.7,0.6-3.6,0.1c-4.1-2.1-8.3-0.7-12.5-0.7c-3.2,0-6.3,0.3-9.4-0.1
		c-3.5-0.6-5.2-4.2-3.5-7.4c1.1-2.1,2.5-4.5,4.5-5.7c3.4-2.4,7.1-4.6,10.9-6.2C245.4,537.8,249.1,537.1,253.8,535.8z M231.9,553.4
		c5.2,1.4,9.5,1,14-0.1c1-0.3,2.4-0.6,2.8-1.3c0.7-1.4,1.4-3.2,1.3-4.8c-0.1-1.1-1.4-3.1-2.2-2.9c-3.4,0.1-7,0.4-10.1,1.4
		C234.6,546.5,232.2,548.6,231.9,553.4z"/>
	<path d="M361.3,554.9c-6.3-0.1-11.8-0.3-17.4-0.4c-1.4,0-2.8,0-4.2-0.3c-3.9-0.8-5.9-4.8-3.8-8.1c1.4-2.2,3.6-4.2,5.7-6
		c1.3-1.1,3.2-1.4,4.8-2.4c3.5-2.1,7-4.3,11.1-7c0.4,1.3,1.7,2.8,1.5,4.2c-0.6,6.2,0.6,11.9,2.8,17.6
		C362,552.9,361.6,553.8,361.3,554.9z M341.3,549.3c4.5,1.8,8.7,1.4,13.2-1.1c-0.3-2.4-0.4-4.3-0.7-6.3
		C344.4,541.2,343.1,541.9,341.3,549.3z"/>
	<path d="M98.7,561.8c-6-0.1-10.5-4.2-11.9-9.7c-1.1-4.6,0.8-8.7,5.5-11.3c5.6-3.2,14-1.7,18.1,3.4c0.6,0.7,1,2,0.8,2.9
		c-0.7,5.5-2.9,10.1-7.4,13.2C102.2,561.5,99.8,561.5,98.7,561.8z M99.3,544.1c-3.4-0.1-6.7,2.1-7,4.9c-0.4,3.5,2.2,7.3,5.5,7.7
		c3.5,0.6,7.4-2.9,7.7-6.9C105.7,547.2,102.6,544.4,99.3,544.1z"/>
	<path d="M317.2,535.6c-1.3,4.3,1.3,8.7,1.5,13.2c0.3,3.8,4.8,7,1.5,12.2c-4.2-3.1-4.8-7.4-5.9-11.3c-1.1-4.1-2-8.1-3.1-12.6
		c-3.8-0.1-7.1-0.1-11.3-0.3c0.6-1.4,0.7-2.9,1.5-3.4c2.1-1.3,4.3-2.5,6.7-2.9c6.2-1.4,12.5-2.4,18.8-3.5c0.7-0.1,1.7,0.7,2.9,1.4
		C327.3,533.7,320.7,531.6,317.2,535.6z"/>
	<path d="M211.9,537.9c-1.8,4.5-0.6,8.3,0,12c0.6,3.5,1.5,6.9,2.2,10.2c-2.1,2.5-3.9,1.5-4.8-0.7c-1.1-2.9-1.4-6.2-2.2-9.2
		c-0.8-3.6-0.4-7.8-2.5-11.3c-3.9-0.4-7.7-0.7-11.5-1.1c0.4-1.3,0.4-2.4,0.8-2.5c4.5-2.1,22-4.5,29.7-4.1c-1,1.4-1.4,2.7-2.4,3.1
		C218.5,535.7,215.4,536.7,211.9,537.9z"/>
	<path d="M186.4,555.2c-6.3,3.9-11.6,4.3-16.8,4.6c-6.4,0.4-9.8-4.5-7.7-10.4c2.4-6.6,6.9-11.5,14-13.2c2.7-0.7,3.9,0.6,5,4.5
		c-11.9,1.5-13.4,2.9-13.3,12.7C173,556.6,179.1,553.1,186.4,555.2z"/>
</g>
<g>
	<path d="M684.7,572c-2.7-12.7-2.5-25.6,0.3-34.2c7.8-1.4,16.1-3.2,24.4-4.3c2.4-0.3,3.6,1.8,2.1,4.5c-5.2,0.8-10.5,1.4-15.5,2.5
		c-8,1.8-8.4,2.7-7.7,12.5c2,0.1,3.9,0.4,5.9,0.3c3.2-0.3,6.3-1,9.5-1.3c2.5-0.3,4.9-0.3,7.4-0.1c5.9,0.3,10.8,3.9,11.2,8
		c0.3,3.4-3.9,7.7-9.1,9.1c-5.9,1.4-11.8,2.7-17.6,3.9c-1.4,0.3-2.8,0.7-4.2,0.6C689.2,573,687.1,572.4,684.7,572z M716.9,559.8
		c-2.7-1.4-4.5-2.9-6.3-3.1c-7.4-1-14.6,1-21.8,2.8c-0.8,3.1-1.1,5.7,2.1,8.4c2.5-0.3,5.6-0.4,8.5-1.1c4.8-1.1,9.4-2.4,14.1-3.9
		C714.6,562.7,715.1,561.6,716.9,559.8z"/>
	<path d="M881,540.2c5.9-5,4.9-13.2,10.6-18.3c1.5,2,3.1,3.4,3.8,5c1.5,3.9,2.5,8.1,4.1,12c2.5,6.2,5.3,12.2,8.3,18.6
		c-0.8,0.7-2,1.5-3.5,2.7c-7.4-7.3-7.3-18.3-13.2-26.1c-5,3.9-3.5,11.3-9.1,14.6c-5.3,0.3-6.3-6.4-11.3-7.3
		c-4.6,5.6-1,13.7-5.9,20.5c-1-2.2-2.5-3.8-2.2-5c2-8.7,2.4-17.5,2.4-26.3c0-1,1.4-2.4,2.4-2.9c0.6-0.3,2.1,0.4,2.7,1.1
		c1.1,1.3,1.8,2.9,2.8,4.5C874.8,536.1,877,538.9,881,540.2z"/>
	<path d="M733.5,571.4c-0.6-8.3-1.3-15.7-1.4-23c-0.1-4.6,1.5-6,6.2-7.1c4.1-1,8.3-2,12.5-2.7c2.1-0.3,4.3-0.4,5.2,3.1
		c-1.8,0.7-3.6,1.4-5.5,2c-3.6,1.3-7.6,2.1-10.9,3.8c-2.5,1.3-2.9,3.8-0.6,6.2c3.2,1.4,7.8-1.8,10.8,2.9c-3.4,1.3-6.7,2.4-9.8,3.8
		c-0.7,0.3-1.3,1.8-1.1,2.7c0.1,0.8,1,2.1,1.8,2.2c2.4,0.6,4.9,0.7,7.3,0.7c4.5,0.1,9.1,0.3,13.4,0.3c1.3,2.8-0.6,3.5-2.2,3.9
		C751.1,571.7,743,571.7,733.5,571.4z"/>
	<path d="M853.1,539.1c2.7,5,2.2,10.4,2.1,15.7c-0.1,4.1-2.8,5.9-7.3,5.3c-4.6-0.6-9.1-1-13.7,0.4c-0.7,0.1-1.4,0.3-2.1,0.3
		c-3.6,0-7.6,0.1-9.5-3.4c-2-3.6,0.8-6.7,2.9-9.5C832.8,538.8,842,536.1,853.1,539.1z M845.9,553.2c0.4-0.8,0.8-1.8,1.1-2.8
		c0.3-1,0.3-2.1,0.1-3.1c-0.3-3.4-2.2-5.5-5.5-4.8c-2.9,0.6-6,1.7-8.7,3.2c-2.7,1.7-4.5,4.3-4.5,7.7
		C835.9,555.9,836.7,555.9,845.9,553.2z"/>
	<path d="M775.1,553.2c-1.7,3.9,0.3,7.6,1,11.2c0.6,3.1,1,6.2,1.3,9.4c0,0.7-1.3,1.8-2,2c-0.7,0.1-2.2-0.7-2.4-1.3
		c-2.5-12-5-24.1-5.6-36.4c-0.1-4.5,2.2-7.1,6.2-9c4.5-2.1,8.8-2.2,12.9,0.8c6.6,5.3,6.7,12.7,0,17.8
		C783,550.3,779,551.4,775.1,553.2z M778.4,532.6c-3.4-0.1-5.7,2.2-5.9,5.9c-0.3,5.5,1.1,8.1,4.2,8.4c5,0.4,8.8-2.5,9-6.7
		C785.6,536,782.6,532.8,778.4,532.6z"/>
	<path d="M913,537.1c0.3-8.5,1.1-9.5,9.7-9.9c2.8-0.1,5.6-0.1,8.4,0.1c6,0.7,9.2,6,6.6,11.5c-1.3,2.7-3.4,5.6-5.9,7
		c-3.5,2-7.8,2.9-11.9,3.9c-2.8,0.7-5.5-1.5-6.4-4.2c-0.3-0.7-0.4-1.4-0.4-2.1C912.9,541.3,912.9,539.2,913,537.1z M926,530.1
		c-2.8-0.1-5.5,0.3-7,3.2c-2,3.6-2,8.3,0,9.8c2.9,2.4,5.9,1,9,0.1c1-0.3,2-0.8,2.8-1.4c2.5-1.7,3.8-4.8,3.1-7.1
		c-0.8-2.7-3.1-3.6-5.5-4.2C927.6,530.2,926.9,530.2,926,530.1z"/>
	<path d="M969.7,548.5c-2.2,2.5-4.5,2.5-5.5,0c-1.1-2.9-1.4-6.2-2.1-9.2c-0.6-2.7-1-5.5-1.5-8.1c-3.5-0.8-6.3-1.5-9.4-2.2
		c0.6-1.3,0.7-2.4,1-2.4c8-1.3,16-2.5,23.9-3.5c2.5-0.3,4.1,1,3.4,4.5c-3.8,0.6-7.7,1.3-11.9,1.8
		C964.8,536.3,968.3,542.4,969.7,548.5z"/>
	<path d="M803.1,532.2c6.9-1.5,13-2.9,19-4.3c2.1,1.5,1.7,3.1-0.3,3.9c-4.5,2-9.1,3.5-13.6,5.2c-2.7,7-0.1,13.6-0.3,20.2
		c-4.1,1.3-5.3,1-5.3-1.8C802.5,548,802.8,540.6,803.1,532.2z"/>
</g>
<path d="M128.4,104.6c1.7,0.7,3.2,1,3.8,1.8c2.4,3.4,2,7.3,1.3,11.1c0,0.4-1.1,1.1-1.5,1.1c-0.8-0.1-2.2-0.4-2.5-1.1
	C127.4,113.6,127.3,109.5,128.4,104.6z"/>
<path d="M58.5,106.1c5.2,4.9,5.2,9.1,4.9,13.3c0,0.7-1.3,1.8-2,1.8c-0.8,0.1-2.1-0.6-2.5-1.3C56.4,116.1,57.3,112.2,58.5,106.1z"/>
<path d="M73.1,103.8c3.4,2,3.1,5.3,3.2,8.3c0.1,2.5-2.1,5.2-3.4,4.3c-1.1-1-2.2-2.7-2.4-4.2C70.3,109.4,69.3,105.9,73.1,103.8z"/>
<path d="M143.5,120.3c-0.8,0-1.3,0.1-1.4,0c-3.2-3.5-3.1-7.4-1.5-11.5c0.3-0.7,1.7-1.4,2.5-1.3c0.8,0.1,2,1.3,2.1,2
	C145.4,113.2,145.2,116.9,143.5,120.3z"/>
<path d="M253.1,201c-0.4,1.7-0.6,3.9-1.4,5.6c-0.6,1-2.2,1.7-3.5,1.8c-0.8,0.1-2.2-0.6-2.7-1.3c-2.4-4.9-3.2-10.1-0.1-15
	c0.6-1,2.5-2.2,3.4-2c1.4,0.4,3.2,1.8,3.6,3.1C253.1,195.5,252.9,198,253.1,201z"/>
<path d="M111.9,142.7c0-0.6,0-1.3,0.3-2c1-3.2,3.2-5.2,5.7-5c2.1,0.1,3.1,1.7,3.4,3.4c0.6,3.2-1.4,6.2-4.5,7.3
	C114.4,147.3,111.7,145.5,111.9,142.7z"/>
<path d="M99.1,131.2c0.8,1.1,2.2,2.1,2.2,3.2c-0.1,2-0.7,4.1-1.7,5.7c-1,1.5-3.1,2.1-4.5,0.7c-0.8-0.7-1.3-2.5-1.1-3.6
	c0.3-1.7,1-3.4,2-4.8C96.5,131.8,97.9,131.6,99.1,131.2z"/>
<path d="M201.1,159.1c3.2-0.8,4.3-1.4,5.5-1.5c4.8-0.4,8.7-2.7,12.5-5.3c1.3-0.8,3.1-1,3.4,0.7c0.3,1-0.7,2.9-1.5,3.4
	c-2.4,1.3-5,2.4-7.8,3.1C209.9,160.4,206.6,161.3,201.1,159.1z"/>
<path d="M205.3,140.5c-2.1-5.6-2-11.2-0.8-17.5C208.4,127.3,208.7,131.6,205.3,140.5z"/>
<path d="M213,108.9c0.8-0.8,1.8-2.8,3.4-3.4c2.2-0.7,3.8,1,4.5,3.2c1,2.8,0.6,5.7-1.3,6.6c-0.8,0.4-2.1,0.6-2.9,0.3
	C214.4,114.8,213.2,112.9,213,108.9z"/>
<path d="M194,109.5c3.4,0.4,5,2.9,4.6,5.6c-0.3,1.7-2.2,3.1-3.9,2.5c-2.5-0.7-3.5-2.7-3.1-4.8C191.9,111.5,193.4,110.4,194,109.5z"
	/>
<path d="M508.7,304.1c-11.1,0.3-21.6,4.2-32.6,2.9c-1.7-0.1-3.5-0.3-5.2-1c-1.7-0.7-2.8-2.5-2.1-4.3c1-2.7,2.5-5,3.9-7.4
	c1.8-3.1,3.6-6,5.6-9c5-7.6,8.1-15.7,8.4-24.8c0-0.8,1-1.5,1.7-2.5c2.2,8.1,2.4,15.5-1.1,22.5c-3.5,6.9-8.1,13-12.3,19.5
	c6.6,3.1,15.5,2.4,27.3-2.2c2.2-5.3-2-9.9-2.7-15.3c1.1-0.3,2.4-1,2.7-0.7C508.4,287.8,512,294.7,508.7,304.1z"/>
<path d="M516.2,259.1c3.4,0,6,2,6.6,4.8c0.4,2.2-0.8,4.8-3.4,6c-1.3,0.6-2.7,1-4.1,1.1c-3.2,0.1-6.2-2.4-6.9-5.5
	c-0.6-2.4,1.7-5,4.9-5.9C514.6,259.2,515.5,259.1,516.2,259.1z"/>
<path d="M469.7,263.9c0,3.8-2.8,6.9-6.4,7c-3.6,0.1-6.4-2.1-6.7-5.3c-0.3-3.6,3.5-7.3,7.6-7C466.8,258.7,469.7,261.5,469.7,263.9z"
	/>
<path d="M495.2,321.6c0.3,0.7,1.3,1.8,1.3,2.9c0,2-2.7,4.1-4.3,3.4c-1-0.4-1.8-2-1.8-3.1C490.2,322.7,492.4,321.1,495.2,321.6z"/>
<path d="M470.7,320.9c0.6-1,0.8-2,1.5-2.8c1.1-1.4,2.7-2.4,4.3-1.1c1.5,1.1,2,2.8,0.7,4.5c-1,1.4-2.4,2.5-4.3,1.4
	C472.3,322.4,471.6,321.6,470.7,320.9z"/>
<path d="M512,316c1.3,1.7,2.7,2.5,2.7,3.5c0,2-1.5,3.2-3.4,2.9c-1-0.1-2.8-2-2.7-2.2C509.4,318.9,510.6,317.8,512,316z"/>
<path d="M460.6,325.2c1.1,2,2.2,2.9,2.1,4.1c-0.1,2-1.7,3.2-3.6,2.7c-1-0.3-2.4-2.1-2.2-2.7C457.6,328,459,327,460.6,325.2z"/>
<path d="M500.8,335c2.4-1.4,3.5-2.7,4.9-2.8c0.6-0.1,2.2,2,2.1,2.8c-0.1,1-1.7,2.2-2.8,2.4C504.2,337.5,503.1,336.3,500.8,335z"/>
<path d="M448,317.9c1.8-1.1,2.9-2.4,4.1-2.4c1,0.1,1.8,1.5,2.7,2.4c-1,0.8-1.8,2.4-2.9,2.5C450.8,320.6,449.8,319.2,448,317.9z"/>
<path d="M533.5,314.1c0.8,1.7,1.7,2.7,1.8,3.6c0,0.6-1.3,1.3-2,2c-0.7-1-1.8-1.8-2.1-2.8C530.9,316.5,532.2,315.5,533.5,314.1z"/>
<path d="M480.9,334.2c-2.1,1.5-3.1,2.7-4.1,2.8c-1,0-2.1-1.1-3.2-1.7c0.8-0.8,1.5-2.4,2.5-2.5C477.2,332.3,478.4,333.3,480.9,334.2z
	"/>
<path d="M519.9,329.8c1.3-1,2-2,2.8-2c1.8-0.1,2.2,1.3,1.8,2.7c-0.1,0.7-1.5,2-1.7,1.8C521.8,331.8,521,330.8,519.9,329.8z"/>
<path d="M716.1,373.7c11.5-14,27-21.7,44.5-27.3c0.3-10.6,0.4-20.9,0.7-31.7c-1.7-2.5-5.3-1.4-8.3-2.1c-7.8-1.7-10.4-3.8-13.3-11.6
	c2.5-6,7.3-9,13.3-10.9c8.8-2.8,17.5-2.2,26.3-1c3.1,0.4,6,2,8.7,3.6c3.8,2.2,4.5,6.4,2.2,10.2c-2.5,4.1-5.9,7-10.2,9
	c-3.8,1.7-7.7,3.4-11.9,5.2c-1.5,9.2-1.7,18.3-0.6,27.6c1.3,9.8,5.5,12.7,15.1,11.8c8.5-1,16.9-1.1,25.3,0.8
	c7.1,1.7,14.4,3.5,21.4,5.2c0.3,2.9-1.8,3.2-3.2,3.2c-3.5,0.1-7.1,0.3-10.5-0.6c-10.8-2.7-21.6-3.5-32.6-2.1
	c-8.5,1.1-16.2-1.1-21.3-9.7c-7.3,0.3-13.6,3.8-19.7,6.9c-6.9,3.5-13.2,8.3-19.7,12.5c-1.7,1.1-3.4,2.1-5,3.1
	C716.9,375.1,716.5,374.4,716.1,373.7z"/>
<path d="M779.5,244.4c2.1-1.5,3.6-2.8,5.3-4.1c8.8-6.4,17.8-12.7,26.6-19.2c4.5-3.4,9-6.7,12.5-11.3c2.9-3.9,6.9-4.5,10.8-1.8
	c-1.3,7.4-2.7,14.6-3.6,21.8c-0.6,3.8-0.4,7.7-0.3,11.6c0.4,8-1.3,15.4-4.5,22.7c-0.7,1.5-1.5,3.2-2.8,4.3
	c-6.3,6.2-20.6,7.7-27.6,2.4C787.4,264.3,781.5,255.6,779.5,244.4z M811.2,228.8c1.7,6,6.9,11.2,5.9,17.8c-1,6.2-3.2,12-4.9,18.1
	c5,1.1,5.6,1,7.3-1.3c4.2-5.2,5.6-11.2,5.9-17.8c0.3-8.8,1-17.6,1.4-26.5c0-0.8-0.4-1.8-1-3.6C820.6,220.3,814.8,223.2,811.2,228.8z
	 M803.5,241.7c-3.8,1.7-7.3,2.5-8.3,6.4c-0.3,1.1,0.1,3.1,1,3.6c2.4,1.8,5.2,2,7.8,0.7c2.4-1.3,3.5-3.6,2.9-6
	C806.6,244.8,804.8,243.4,803.5,241.7z"/>
<path d="M726.3,275.3c-2.9,1.5-6,1.5-9-0.3c-2.5-1.7-3.5-4.3-4.1-7.1c-0.4-2.4-1-4.9-1.1-7.3c-0.8-13.4-1.7-26.8-2.2-40.2
	c-0.3-5.6-0.7-11.2,1-16.4c2.4-1.4,3.8-0.6,4.8,1.1c7.3,13.9,20.3,21.1,32.5,29.6c2,1.3,4.6,1.7,7,2.1c3.8,0.7,7.6,1.1,11.8,3.5
	c-1.1,1.3-1.8,2.5-2.8,3.1c-2.5,1.4-5,2.5-7.7,3.6C744.5,252.2,733.6,261.9,726.3,275.3z M715,218.2c-0.1,2.4-0.6,4.8-0.3,7
	c0.8,9.8,1.8,19.6,3.1,29.6c0.6,4.2,1.4,8.3,2.4,12.5c0.1,0.7,1.5,1.1,2.8,1.8c1.4-1.8,2.5-3.5,4.1-5.5c-6.7-11.8-3.1-21.6,6.7-30.3
	c-5.6-5.2-10.8-9.9-16.1-14.6C717.1,218.3,716.2,218.5,715,218.2z M736.5,253.4c4.5-1.8,8.4-4.2,11.6-8.8c-1.8-1.3-3.2-3.1-4.5-3.1
	c-2.4,0-4.9,0.6-6.9,1.7C733.7,244.9,733.9,248.7,736.5,253.4z"/>
<path d="M733.2,336.3c0.3-3.8,3.9-6.6,7-5.6c1.3,0.4,2.8,2.2,3.1,3.6c0.6,3.2-3.1,6.2-6.2,5.2C735.4,339.1,734.2,337.1,733.2,336.3z
	"/>
<path d="M804.6,321.1c0.4-3.9,3.1-6.3,5.9-5.9c2.1,0.3,3.9,2.7,3.5,4.6c-0.4,2.5-3.8,5-6.4,4.2C806.3,323.7,805.3,321.8,804.6,321.1
	z"/>
<path d="M721.1,324.1c0.6-3.8,2.9-5.7,5.9-5.6c1.8,0.1,3.5,2,3.2,3.5c-0.4,2.7-3.2,5.2-5.9,4.8C723.1,326.5,722,324.8,721.1,324.1z"
	/>
<path d="M810.1,336.4c0.6,0.7,2.1,1.8,2.4,3.2c0.4,2.5-1.8,4.6-4.3,4.6c-2.1,0-4.1-1.8-4.1-3.9C804.1,338.1,806.2,336.4,810.1,336.4
	z"/>
<path d="M716.1,341.6c0.1-2.1,2-3.5,4.3-3.2s3.9,2,3.8,4.1c-0.1,2-2.2,3.6-4.3,3.4C717.6,345.5,716,343.7,716.1,341.6z"/>
<path d="M783.8,332.6c-0.1-2.1,1.5-3.8,4.1-3.9c3.1-0.1,5.2,1.7,4.9,4.1c-0.1,2-2.2,3.5-4.6,3.5
	C785.7,336.1,783.9,334.6,783.8,332.6z"/>
</svg>
