<?xml version="1.0" encoding="utf-8"?>
<!DOCTYPE svg PUBLIC "-//W3C//DTD SVG 1.1//EN" "http://www.w3.org/Graphics/SVG/1.1/DTD/svg11.dtd">
<svg version="1.1" id="GetSetProcedure" xmlns="http://www.w3.org/2000/svg" viewBox="0 0 1000 710">
<path d="M124.3,359.4c-0.9,0.5-1.5,1-2.2,1.3c-2.5,0.8-4.3,0.2-4.9-1.9c-1-3.6-1.8-7.3-2.8-11.3
	c2.9-3.8,6.5-6.9,10.2-10c6-5,12.2-9.9,18.5-14.6c4.2-3.2,8.6-6.2,14.4-5.5c0.8,1.4-0.4,1.7-1.2,2.2c-10.7,5.8-20.3,13.3-29.9,20.8
	c-3,2.3-5.4,5.3-8.3,8c-0.3,2.9,0.6,5.4,2.7,8.2c4-5.3,8.8-9.4,14.3-12.4c7.5-4.1,15.3-6.6,24-4.2c4.3,1.2,7.7,3.4,10.6,6.9
	c7.7,9.6,12.6,20.6,16.6,32.2c1.4,4.1,3,8.1,4.5,12.1c3.5,9.6,10.4,16.6,18,23c0.3,0.3,0.9,0.2,1.4,0.2c0.3-0.3,0.9-0.7,0.9-1
	c0.4-3.2,0.7-6.5,0.9-9.4c-12.9-12.9-19.4-28.6-24-45.3c-0.3-1.2-0.7-2.5,1.5-3.3c2.3,2.9,2.2,6.9,3.7,10.2c1.6,3.4,2.9,7,4.5,10.5
	c1.5,3.2,3.1,6.4,4.7,9.5c1.7,3.3,3,6.9,6.3,9.7c2.2-1.6,4.4-3.2,6.7-4.8c-4.8-9.9-13.3-17.2-14.7-28.2c0-0.3,0.5-0.8,1-1.5
	c2.5,1.7,2.3,4.9,3.8,7c1.7,2.5,3,5.3,4.4,8c1.3,2.4,2.5,5,4.8,6.7c4.4-0.4,7-4,10.4-4.7c0.8-2.6-0.6-3.5-1.4-4.7
	c-8.9-12.3-14.8-25.8-18-40.6c-1.1-5.2-2.4-10.4-5.3-14.9c-1.2-1.9-2.7-3.6-4.2-5.3c-1.9-2.3-4.4-3.2-7.4-2.8
	c-3.8,0.5-7.6,0.6-11.3,1.2c-1.4,0.2-2.6,1.3-3.9,1.9c-0.2,4.3,0.8,7.8,3,11.1c3.3,2.1,7.1-0.5,10.9,1.4c-0.9,0.6-1.6,1.5-2.3,1.5
	c-7.3,0.3-13.8,2.8-20,6.5c-1.4,0.9-1.5,0.8-4.3-0.3c1.6-1.4,3-2.7,4.4-3.9c0.1-0.6,0.3-1.1,0.2-1.5c-1-2.6-1.9-5.2-3.2-7.7
	c-3-5.6-6.1-11.1-9.2-16.6c-0.7-1.3-1.3-2.7-1.8-4.1c-1-3.3-0.7-4.1,2.4-6.3c2.9-2,5.8-4.1,8.8-6c1-0.7,2.2-1.4,3.3-1.8
	c2.9-1.1,5.2,0.2,5.4,3.3c0.2,2-0.1,4,0,6.1c0.2,4.7-0.1,9.6,2.1,14.1c5-0.6,9.8-1.3,14.5-1.7c7.2-0.6,13.1,3.3,16.1,10
	c2.7,6,4.5,12.3,6,18.7c3.2,14,9.2,26.7,17.6,38.3c0.6,0.8,1.2,1.6,1.7,2.5c0.3,0.4,0.4,0.9,0.7,1.9c-1,0.8-2,1.8-3.2,2.5
	c-1.3,0.8-2.8,1.3-4.1,2c-4.2,2.3-4.5,3.4-1.9,8.9c-1.3,0.9-2.7,1.9-4.1,2.8c-2.1,1.4-3,3.3-2.7,5.8c0.8,7.9,0.5,11.2-1.8,19.6
	c-3,0.6-5.8,0.1-8.1-2.3c-2.1-2.2-4.2-4.4-6.4-6.5c-1.4-1.4-3-2.6-5.1-4.4c0.2,4.3,0.4,7.7,0.6,11.1c0.3,6.8,0.6,13.6,0.9,20.5
	c0.5,13.1,1.9,12.4,9.8,19.1c2.3,1.9,5,3.4,7.6,5c2.7,1.6,5.7,2.7,8.7,1.9c3.7-1,6.5,0.6,9.1,2.6c3.6,2.8,7,5.9,10.1,9.1
	c3.7,3.8,7.5,7.4,12.5,9.6c1.5,0.7,2.9,2,4,3.3c2.3,2.7,4.3,5.6,6.4,8.4c0.8,1,1.6,1.9,2.2,3c1.6,3,1.2,5.1-2,6.8
	c-1.9,1-2.5,2.2-2.5,4.1c0,0.6-0.7,1.2-1.4,2.2c-2.1-0.8-4.1-1.6-6.1-2.4c-1.5,1.1-2.9,2.1-4.7,3.4c-1.2-1.6-2.5-2.8-3-4.4
	c-1.2-4.1-2.2-8.3-3.1-12.5c-0.5-2.2-1.4-3.7-3.5-4.5c-2.6-1-5.1-2.2-7.7-3.2c-5.2-2-10.3-3.9-15.7-5.9c-0.2-2.2-0.3-4.2-0.5-6.1
	c-0.3-0.4-0.4-1-0.8-1.3c-4.4-3.3-8.4-7.1-13.9-10.1c0.1,1.7-0.1,2.7,0.2,3.5c3.7,11.1,8.8,21.6,15.2,31.3c5.3,8,11.3,15.5,18,22.5
	c4.3,4.6,8.5,9.3,13.1,13.7c5.2,5,9.3,11.3,13.8,17.1c0.3,0.4-0.1,1.4-0.2,2.4c-7,2.1-14.6,0.6-22,3.3c-1.7,4.9-3.7,9.8-5.1,14.9
	c-1.9,6.8-3.5,13.7-4.7,20.7c-1,6-0.8,12.1,1,18c1.4,4.5,4.6,7.8,7.9,10.9c2.4,2.2,5.2,4,7.7,6.1c1.4,1.1,2.7,2.3,3.8,3.6
	c0.3,0.4,0.1,1.4-0.1,2.1c-0.1,0.3-0.8,0.7-1.3,0.7c-1.2-0.1-2.5-0.3-3.6-0.8c-6-2.7-11.5-6.3-16.8-10.3c-1.8-1.4-3.6-2.9-5.5-4
	c-2.3-1.3-3.3-3-3.1-5.5c0.4-6.3,0.8-12.6,1.3-18.9c0.8-9.6,1.2-19.2,0.3-28.8c-0.1-1-0.5-1.9-0.9-3.3c-1.2,0-2.5-0.2-3.6,0.1
	c-5.2,1.9-10.3,4-15.4,6c-1.7,6.5-1.4,12.6-0.6,18.5c0.9,6.8,2.5,13.4,4.1,20.1c0.5,2.2,1.6,4.2,2.5,6.3c1.7,3.9,1.5,7.7-1.7,10.5
	c-5.2,4.6-9.2,10-13.3,15.5c-1.5,2-3.2,4.5-6.5,4.7c-0.9-2.9,0.8-4.6,2.1-6.3c3.3-4.3,5.3-9.1,7.4-14.1c1.9-4.5,2.8-9.2,2.7-14
	c0-2-0.4-4.1-1.3-5.8c-4-7.6-8.3-15.1-12.5-22.6c-0.3-0.6-1.1-1-1.8-1.5c-6.7,1.9-10.1,9.1-17.3,10.9c-0.9-1.3-1.8-2.4-2.5-3.7
	c-11.1-21.1-15.6-43.7-14-67.4c0.5-8.1,1.1-16.2,1.7-24.2c0.1-1.7,0.1-3.5,0.1-5.5c-3.5-1.6-6.9,0.2-10.5,0.3c-1,2-2,3.9-3.1,6.3
	c-1.8-1.2-3.4-2-4.7-3.1c-3.5-3.1-7.6-5-11.6-7.1c-3.4-1.8-6.3-1.1-9,1.2c-6.1,5.1-8.8,11.5-8.1,19.6c2.9,1.6,5.7,3.1,8.3,4.5
	c1.1,4.7,0.2,8.5-1.7,12.2c-8.1,15.8-15.8,31.7-22,48.3c-0.4,1.2-1,2.3-2.6,2c-0.1-0.2-0.4-0.5-0.4-0.6c1.3-7.7,2.3-15.5,4.2-23.1
	c1.3-5,1.1-10,1.5-15.1c0.2-3-4-7.5-7.6-8.5c-1.4-0.4-3-0.5-4.5-0.9c-1-0.2-1.9-0.7-2.7-1.2c-0.4-0.2-0.6-0.8-1.1-1.3
	c-0.1-2.7,1.1-5.2,2.3-7.7c4.5-9.6,9-19.3,13.4-28.9c0.7-1.5,0.9-3.3,1.4-5.1c-4.4-2.9-8.3-5.3-13.5-5c-4.6,0.2-8.9-1.5-13-3.7
	c-2.4-1.3-4.4-0.8-6.3,0.8c-4.9,4.3-7.7,9.3-5.2,16.1c0.5,1.3,0.4,2.7,0.7,4.5c-3.1-1.3-3.1-1.3-5.4-4.1c-0.4,0.2-1.1,0.2-1.3,0.5
	c-0.7,1-1.2,2.2-2,3.2c-0.4,0.4-1.5,0.7-1.9,0.4c-0.5-0.3-0.9-1.3-0.8-1.9c0.2-1.5,0.6-2.9,1-4.6c-2-0.3-3.7-0.4-5.3-0.9
	c-0.5-0.1-0.8-1.2-0.9-1.9c-0.1-0.4,0.3-1.1,0.6-1.3c0.9-0.5,1.8-0.7,2.8-1c10.9-3,17.1-12.5,15.1-23.5c-0.6-3.2-1.6-6.4-2.2-9.6
	c-1.3-7.7-2.8-15.4-3.6-23.2c-0.9-9-1.6-18.2-1.7-27.2c-0.1-7.3,0.3-14.6,3.3-21.6c2.6-6.1,6.5-10.8,12.3-13.8
	c3.7-1.9,7.5-2.2,11.8-1.5c11.2,1.8,18.4,8.9,24.5,17.5c4,5.7,5.7,12.3,7.6,18.9c0.6,2.2,0.4,4.5-0.9,6.8
	c-5.7,2.1-11.2-3.1-17.3-0.6c-2.5,4.4-1.1,8.5,1.6,12.8c6.3,0.4,11.4-2.9,16.7-5.3c1.5,0.8,1.2,1.7,0.5,2.6
	c-0.8,0.9-1.7,1.7-2.4,2.4c1,2.2,5.1,0.9,4,4c-0.8,2.3-3.1,0.3-4.7,0.4c-0.7,0-1.4,0.2-2.2,0.3c-0.2,2-0.5,3.8-0.8,6.8
	c-2.2-3-3.6-4.9-5-6.7c-11.7,2.3-9.1,4.2-8.1,11.6c0.5,3.4,1.8,6.8,2.6,9.6c4.2,2.5,8.1,1.7,11.8,1.8c1.3,0,2.8-1.2,3.7-2.2
	c2.6-2.7,5-5.7,7.5-8.6c0.6-0.7,1.5-1.1,2.4-1.7c2.4,4.8-3.7,5.9-3.5,9.9c1.9,0.2,3.8,0.3,5.6,0.5c0.8,1.6,0,2.5-1.1,3.2
	c-1.3,0.7-2.6,1.4-3.9,2c0.4,1.7,0.7,3.2,1.1,4.8c-0.9,0.2-1.6,0.5-2.3,0.5c-0.4,0-1-0.3-1.3-0.7c-4.3-5.9-9.4-4.4-14.6-1.9
	c-0.9,2.7,0.6,4.1,2.3,5.2c3.5,2.1,7.4,3.2,11.5,3.5c2.8,0.2,5.6,0.5,8.2,1.2c4.3,1,4.7,1.9,4.7,7c0,0.5,0.3,0.9,0.5,1.6
	c2.7,1.8,6,2.1,9.2,2.4c2.3,0.2,4.5,0.4,5.8,2.8c1,1.8,2.8,2,4.6,1.6c7-1.4,10.8-6.4,13.1-12.5c3.2-8.8,5.4-17.9,7-27.2
	c1.7-10,0.7-19.7-5.5-28.3c-2.3-0.9-3.7,0.9-5.4,1.8c-2.8,1.6-5.5,3.7-8.4,5c-4.5,2.1-7.7,0.9-10.3-3.3c-2.3-3.8-2.9-8.1-3.4-12.4
	c-0.6-6-1-12.1-1.1-18.2c-0.1-7.2-1.7-14.1-3.2-21C125.6,361.7,124.9,360.7,124.3,359.4z M187.4,403.5c-7,1.2-9.5,2.5-15.4,6.9
	c-4.1,3-5.8,6.5-5.3,11.7c0.5,5.5,0.7,11.2,0,16.7c-1.1,8.5-2.9,16.9-5.6,25.1c-1.8,5.5-3.3,11.1-4.9,16.8
	c-2.7,9.8-5.3,19.5-4.8,29.8c0.1,2-0.6,4-0.7,6c-0.2,7.6-0.8,15.2-0.4,22.7c0.6,11.2,3.8,21.9,7.2,32.5c1.9,5.7,4.5,11.1,8.2,16.6
	c5.4-3.9,10.5-7.6,15.4-11.4c5.1-3.9,10.7-6.8,16.5-9.1c5.9-2.3,11.7-4.8,17.7-6.8c6-2,12.1-3.8,18.2-5.3c6-1.5,12.4-0.9,18.7-3.1
	c-1.9-5.1-5.4-8.3-8.6-11.8c-3.7-3.8-7.5-7.5-11-11.5c-8.3-9.2-15.9-19-22.6-29.4c-10.6-16.5-16.2-34.7-19.7-53.7
	c-0.2-1-0.1-2-0.1-3c-0.2-9.6-0.2-19.2-0.5-28.8C189.5,410.8,189.3,407.2,187.4,403.5z M103.7,404c0-1.7,0.3-2.7,0-3.6
	c-1.6-7-4.9-13.3-9-19.1c-2.8-3.9-6.2-7.4-10.5-9.7c-4.7-2.5-9.5-4.9-15.1-3.7c-7.6,1.6-12.8,6.3-15.3,13.3
	c-2.3,6.4-2.8,13.3-2.7,20.2c0.1,4,0.3,8.1,0.6,12.1c0.2,2.7-0.5,5.6,1.3,8.3c5.1,0.5,9.8,0.5,13.3-4.5c1.3-1.9,3.2-3.9,5.8-3.9
	c2.6,2.7-1.4,4.1-0.8,6.3c0.6,0.3,1.4,0.6,1.9,1c0.5,0.5,1.3,1.4,1.1,1.7c-0.4,0.8-1.2,1.7-1.9,1.8c-1.6,0.3-3.3,0.2-5.6,0.3
	c0.5,1.5,0.8,2.4,1,3.3c0.4,1.4,0.2,2.7-1.3,3.1c-0.7,0.2-1.8-0.5-2.4-1.1c-0.8-0.8-1.4-1.9-2.1-2.9c-2.3,0.9-4.2,1.5-6,2.4
	c-2.3,1.1-2.9,2.3-2.7,4.8c0.4,3.3,0.7,6.5,1.2,9.8c1.1,7,2.5,13.9,5.5,20.4c3,6.5,7.8,9.6,15,9.1c2.7-0.2,5.4-1.2,8.1-1.8
	c3.2-0.8,6.3-1.8,9.5-2.4c3.3-0.6,4.8,0.9,4.6,4.1c-0.5,6.1-2.4,11.9-5.1,17.4c-4.7,9.8-9.8,19.3-14.7,29.1
	c-0.6,1.2-0.5,2.8-0.8,4.7c2.7,0.4,4.9,0.5,7,1c2.4,0.5,5,1.1,7.2,2.1c3.3,1.6,4.3,3.9,3.8,7.5c-0.2,1.5-0.7,2.9-1.2,4.4
	c-1.4,4.6-2.8,9.2-4.1,13.8c-0.3,1-0.3,2.2-0.5,3.8c1-0.7,1.6-0.9,1.8-1.3c5.1-10.5,10.2-20.9,15.2-31.4c1.2-2.5,2-5.2,0.3-8.6
	c-3-0.7-6.4-1.5-9.8-2.4c-1.6-0.4-2.6-1.6-2.6-3.3c0-1.7,0.1-3.6,0.7-5.2c1.1-2.8,2.4-5.6,4.1-8.1c5.1-7.2,10.5-14.3,15.9-21.2
	c1.9-2.4,3.8-4.7,4.3-7.9c-0.6-0.6-1.1-1.2-1.8-1.5c-1.2-0.5-2.4-0.9-3.6-0.9c-4.9-0.1-9.3-2.1-14-3.2c-3.4-0.9-6-2.8-7.5-5.9
	c-1.9-3.8-4.1-7.7-5.2-11.8c-2.3-9.3-4.6-18.6-3.8-28.4c0.2-2.9,1-6.1-0.7-8.7c-2.7-1.9-6.8,0.4-9.2-3.6c5.4-2.4,10.6-3.8,16.2-2
	C93.9,403.1,98.3,403.6,103.7,404z M152.9,343.2c-9,0.2-16.1,3.9-22.6,9c-3.5,2.8-3.8,3.6-2.3,7.7c1.9,5.5,3.3,11.1,4.1,16.9
	c0.8,5.5,0.8,11.1,1.1,16.6c0.3,6.1,0.7,12.2,3.2,17.8c1.8,4.2,4.5,5.2,8.4,2.6c8.9-5.8,17.6-11.8,26.2-18c3.3-2.3,6.1-5.3,9-8.1
	c2.1-2.1,2.8-4.8,1.8-7.7c-3.7-10.3-8.1-20.2-14.4-29.1C163.7,345.7,158.5,343.7,152.9,343.2z M218.9,480.1
	c7.6,5.7,17.9,6.6,25.2,12.7c1.8,3.9,0.2,8.6,3.4,12.1c1.9-1.8,0.5-5.1,3.8-5.5c2.3,1.9-0.9,7.1,4.3,7.3c1.7-1.8-0.1-4.7,2-6.2
	c1.2,0.5,2.2,1,4,1.9c-1.7-4.6-4.2-7.8-7.6-9.8c-5.2-3-9-7.3-13.2-11.3c-3.6-3.5-7.3-7-11.1-10.3c-2-1.8-4.1-3.6-7.3-3.7
	C220.4,471.2,218.7,475.1,218.9,480.1z M114.6,481.8c2.8,2.7,6.3,3.3,9.5,4.3c3.3,1,5.3,4.7,9.6,4.1c0.7-4.1,1.1-7.9-0.7-11.6
	c-4.7-1-9-2-14.2-3.1c-0.6,0.8-1.4,1.8-2.1,2.9C116,479.4,115.4,480.5,114.6,481.8z M85.5,476.6c1.6,0.9,3.3,1.9,5.1,2.7
	c0.5,0.2,1.7-0.1,1.9-0.5c0.4-1.1,0.8-2.4,0.6-3.5c-0.1-0.7-1.3-1.6-2.1-1.7C88.6,473.1,86.5,473.4,85.5,476.6z"/>
<path d="M455.9,483.8c-1.2,5.1-2.3,9.2-3,13.4c-0.6,3.7-0.6,7.6,0.5,11.3c0.9,3.2,1.8,6.3,2.6,9.5c0.7,3-0.2,5-3.1,6
	c-3.8,1.4-7.8,2.3-11.9,2c-3-0.3-4.6-1.8-4.6-4.9c0-3-0.2-6-1-9.2c-5.1,5.4-5.6,8.3-2.6,13.6c0.7,1.3,1.6,2.6,2.4,3.9
	c5.7,8.7,7.1,18.5,6.4,28.4c-0.5,6-3.3,11.5-9.5,14.6c-6.4,3.2-12.8,5.9-19.9,7.1c-3.2,0.6-6.4,1.5-9.5,2.5
	c-2.8,0.9-4.8,2.7-5.3,5.8c0,0.2-0.2,0.5-0.2,0.7c-2.3,11.3-2.5,16.5,8.5,25.3c3.9,3.1,8.1,4.9,13,5.6c4.7,0.6,9.4,2.1,14,3.3
	c1,0.2,2.1,0.5,2.7,1.2c0.6,0.6,1.1,1.8,0.9,2.6c-0.2,0.8-1.2,1.4-2,2c-0.4,0.2-1,0.1-1.5,0.1c-5.1,0.1-10.1,0-15.2,0.2
	c-5.8,0.3-11.6,0.9-17.4,1.4c-1.3,0.1-2.5,0.5-3.8,0.5c-2.6,0.1-4.5-1.2-5.1-3.6c-0.7-2.4-0.9-5-1.3-7.5c-1.5-8.5-2.8-17-4.4-25.4
	c-0.6-2.9-1.2-6-3.2-8.3c-8.4-1.6-27.3-0.5-36.9,2c-4.3,8-5.6,15.8-3.8,24c0.7,3.5,1.1,6.9,2.8,10.2c1.4,2.8,0.5,4.8-2,6.4
	c-1.1,0.7-2.3,1.1-3.4,1.6c-8.1,3.4-16.3,6.9-24.5,10.3c-3,1.2-6.2,2.2-9.3,3c-1.6,0.4-3.1-1.5-2.4-2.9c1.2-2.2,2.4-4.5,4.2-6.2
	c4.7-4.7,10.3-8.1,16.4-10.8c7.1-3.1,8.3-5.1,5.9-12.2c-2.5-7.7-5.4-15.2-8.3-23.2c-1.7-0.4-3.3-0.9-5-1c-2.5-0.3-5.1-0.4-7.6-0.4
	c-9,0.1-17.5-2.2-25.9-5.1c-5.7-2-9.6-5.9-11.4-12.1c-1.7-5.7-2.3-11.3-1.3-17.2c0.7-4,1.1-8.1,1.1-12.1c-0.2-12.6,5.8-22.3,14-30.9
	c2.9-3.1,4.8-6,5.7-10.2c1-4.6,2.9-9.2,5-13.5c4.1-8.1,7.6-16.6,13.3-23.8c1.6-2.1,1.9-4.5,1.4-7.2c-0.8-4-1.5-7.9-3.6-11.5
	c-1.1-1.9-1.9-4.1-2.6-6.3c-1-3-0.2-4.8,2.9-5.9c2.1-0.8,4.4-1.3,6.6-1.8c2.2-0.5,4.5-1,6.7-1.1c7.2-0.2,11.2-4.8,13.3-10.7
	c2.6-7.4,3.4-15.2,2.7-23.5c-1.7-0.2-3.1-0.3-4.6-0.5c-5.5-0.9-9.4-6.2-8.5-11.5c0.4-2.4,1.9-4.1,3.8-5.4c5.9-3.9,14.3-3.6,20,0.8
	c5.1,3.9,5.5,8.4,1.3,13.6c-0.5,0.6-1,1.2-1.7,2.1c5.9,8.2,12.5,15.5,22.7,18.8c0.9-0.7,1.8-1.2,2.5-1.9c5.2-4.7,10.4-9.5,15.9-14.6
	c-1.9-2.1-3.6-3.8-5.2-5.7c-1.7-2.1-1.7-3.9-0.3-6.2c4.3-6.7,13.6-8.2,20-3.1c0.6,0.5,1.1,1,1.6,1.6c5.7,6,5.7,9-0.7,14.4
	c-4.8,3.9-7.2,9.1-8.7,14.8c-4.1,15-5.9,30.3-4.3,45.8c0.9,8.4,3.6,16.3,10,22.4c2.4,2.3,4.3,5,6.5,7.4c2.8,3.1,4.9,6.3,4.6,10.8
	c-0.1,1.1,0.7,2.4,1.4,3.3c1.7,1.9,3.4,3.7,6.5,4.1c5.5-2.9,9.6-7.7,13.6-12.6c1.4-1.7,1.6-3.8,1.7-8.2c-7.5-2.4-15.6,1.7-23.6-1.7
	c-1.6-1.7-3.3-3.8-3.3-6.8c0-3,1.2-5.4,3-7.6c3.5-4.5,9.1-5,13.3-1.2c1.6,1.5,2.9,3.4,4.4,5.3c2.8,0,4.3-1.5,4.2-4.2
	c-0.2-7.6-0.4-15.2-1-22.7c-0.7-9.1-1.3-18.2-2.8-27.2c-1.1-6.6,0.1-12.5,2-18.6c4.1-13.5,9.2-26.8,12.1-40.7c0.2-1,0.6-2,1.1-2.8
	c0.4-0.5,1.2-0.8,1.9-0.9c0.4,0,1,0.4,1.2,0.8c0.5,1.2,0.8,2.4,1.1,3.6c2.5,8.7,5.1,17.5,7.7,26.2c0.4,1.4,1,3,1.9,4.1
	c3.6,4.2,2.9,8.8,1.9,13.6c-3.7,17.8-6.6,35.8-7.6,54c-0.1,2.3,0,4.6,0.2,6.8c0.1,1.2,0.4,2.5,0.8,3.7c2.2,5.9,5.3,6.6,10,2.2
	c1.3-1.2,2.4-2.7,3.8-3.7c4.3-3.2,9.1-2.6,12.1,1.3c3.5,4.6,2.4,9.2-2.9,11.8c-3.4,1.6-6.9,3-10.8,3.3
	C462,482.7,459.1,483.3,455.9,483.8z M274.7,555c-0.1,0.8-0.4,1.8-0.5,2.7c-0.2,1-0.3,2-0.4,3c-0.5,9,4,15.7,12.6,18.5
	c1.4,0.5,2.9,1,4.4,1.2c4.3,0.4,8.5,0.6,12.8,0.9c7,0.6,14.1,0.9,21.1,2c6.6,1,13.1,1.1,19.6,0.5c5.5-0.5,11.1-1.3,16.6-1.4
	c17.8-0.3,35.2-2.5,52.5-6.8c5.7-1.4,11-3.8,16.2-6.4c4.6-2.4,7.3-6.6,7.5-11.6c0.2-5,0.3-10.3-1.3-15c-4-12.3-10.5-23.6-19-33.4
	c-1.9-2.2-4.1-4.4-7.6-5c-3.7,6.8-10,10.7-15.6,15.4c-10.3,8.7-22.7,12.2-35.6,13.2c-13.4,1.1-26.7-0.4-39.7-4.5
	c-4.3-1.4-8.6-2.8-13-4.1c-7-2.1-13.1-5.3-16-13.1c-6.1,4.7-9.1,10.7-11.4,17.1c-0.3,0.9,0.5,2.4,1.2,3.3c1.7,2.1,4.2,2.6,6.8,2.7
	c6,0.3,12.1,0.6,18.1,1c4,0.3,8,0.8,12,1.4c1.4,0.2,2.9,1,4.2,1.8c2.7,1.7,3,4.8,0.7,7.1c-2.5,2.6-5.6,4.4-9.2,5
	c-3.2,0.5-6.5,0.9-9.8,0.9c-5.3,0-10.6-0.2-15.9-0.4C281.8,550.9,277.8,551.4,274.7,555z M351.7,452.1c-8.4-0.2-17.6,1.2-26.8,3.2
	c-5.5,1.2-9.8,3.8-12.9,8.5c-1.5,2.3-3.1,4.6-4.4,7c-3,5.6-5.7,11.3-8.6,16.9c-2.9,5.5-4.3,11.3-4.6,17.4c-0.4,7.3,0.9,9.8,7.7,13.2
	c1.1,0.6,2.3,1.1,3.5,1.5c9.3,3.3,18.6,6.3,28.4,7.8c15,2.2,29.7,1.8,44.1-3.5c2.1-0.8,4.3-1.6,6.2-2.9c4.8-3.3,9.5-6.8,13.9-10.4
	c3.7-3.1,6.7-6.8,8-11.7c0.8-2.9,0.7-5.6-1.1-7.9c-2-2.6-4.1-5.1-6.3-7.5c-3.6-3.9-7.3-7.7-9.4-12.7c-1-2.3-1.6-4.8-2.5-7.1
	c-1.5-3.7-3.8-6.6-7.8-7.6C370.2,454,361.6,452,351.7,452.1z M315.5,453.8c2.3-0.8,4.2-1.6,6-2.2c1.9-0.6,3.9-1.2,5.8-1.5
	c3.2-0.5,6.5-0.6,9.8-1.1c12.1-1.9,24.1-1.9,36,1.3c3.8,1,7.7,2.1,11.6,1.8c0.5-0.8,0.9-1.2,0.9-1.6c0.2-1.8,0.2-3.5,0.2-5.3
	c0-15,1.7-29.7,7.6-43.7c0.2-0.5,0.3-1,0.4-1.5c0.2-1.1-1.4-2.5-2.5-2.1c-0.9,0.3-1.9,0.7-2.7,1.2c-5.1,3.3-9.7,7.2-13.7,11.9
	c-4,4.6-8.2,8.9-12.4,13.3c-0.4,0.4-1.5,0.5-2,0.2c-0.5-0.3-1-1.4-0.8-1.9c0.6-1.6,1.5-3.1,2.3-4.7c-0.5-1-0.8-2-1.4-2.7
	c-4.3-5.3-8.5-10.6-12.9-15.8c-0.8-1-1.8-1.8-2.9-2.4c-1-0.5-2.2-0.5-3.6-0.9c-0.6,3.5-1.5,6.5-1.6,9.4c-0.1,7.8-2.7,14.9-5.5,21.9
	c-1.5,3.9-3.3,7.8-6.4,10.9c-2.9-2.9,1.5-5.4-0.4-8.1c-5.8,0-11.4,1.4-16.9,3.2c-0.9,0.3-1.5,1.2-2.5,2
	C310.4,441.5,312.8,447.2,315.5,453.8z M446.7,471.8c1-7.6,2-15.3,2.7-23.1c1.3-13.3,2.5-26.6,4.3-39.9c0.6-4.4,0.6-8.6-0.3-12.8
	c-2.3-9.8-4.9-19.5-7.5-30.1c-1,1.4-1.7,2.1-2,3c-1.1,3.3-2.1,6.7-3.2,10.1c-2.4,7.5-4.7,14.9-7.1,22.4c-1,2.9-1.1,5.8-0.8,8.9
	c0.9,9.5,1.5,19.1,2,28.7c0.5,9.6,0.8,19.2,1.2,28.7c0.1,1.7,0.6,3.3,1,5C440.4,473.4,443.3,473.1,446.7,471.8z M443.7,478.5
	c0,0.1,0,0.3,0,0.4c2.8,0.1,5.5,0,8.3,0.2c5.6,0.4,11.1-0.4,16.5-1.6c2.2-0.5,4.3-1.5,6.2-2.6c1.7-0.9,2-3.7,0.9-5.4
	c-1.1-1.8-3.6-2.3-5.3-0.9c-1.5,1.3-3,2.8-4.1,4.4c-1.8,2.5-4,3.5-7.1,3.5c-8,0.1-16.1,0.5-24.1,0.7c-0.8,0-1.5-0.1-2.3,0
	c-4.7,0.4-8.3-0.9-10.1-5.8c-0.8-2.1-2.6-3.8-5.3-3.5c-2.6,0.4-3.6,2.6-4.5,4.6c-0.2,0.4-0.3,1-0.4,1.5c-0.4,1.8,0.5,3.5,2.1,4.4
	c3,1.6,6.3,1.6,9.6,1.4C430.7,479.3,437.2,478.9,443.7,478.5z M453.3,520.2c-1.6-6.5-2.9-12.1-4.4-17.6c-0.2-0.9-1-1.6-1.5-2.4
	c-6.1,1.8-6.8,2.4-7,7.2c-0.2,3.7-0.2,7.5-0.1,11.3c0.1,3.2,1.7,4.5,4.9,3.8C447.7,522.1,450,521.2,453.3,520.2z M335.7,376.4
	c-0.3,0.1-2.1,0.2-3.8,0.7c-3.2,0.9-4.7,3.1-4.5,6.1c0.3,3.2,2.7,6.3,5.4,6.4c3.5,0.1,7.1,0,10.5-0.6c3.7-0.6,5.2-4.4,3.2-7.6
	C344.4,377.8,341.2,376.2,335.7,376.4z M386,386.3c1.4,1.7,2.5,3.3,3.9,4.7c4.3,4.3,6.5,3.8,11.4,1.3c2.6-1.3,3.2-4.7,1.4-7.2
	c-2.2-3-5.2-4.8-8.9-4.8C390.3,380.4,387.5,382,386,386.3z M440.8,483.8c1.3,3,1.5,3.4,2.5,3.4c2.1,0,3.8-0.5,4.7-3.1
	C445.4,483.1,443.2,482.7,440.8,483.8z"/>
<path d="M580,240.4c-11.2-4.8-21.5-9.4-32.1-13.7c-5.8-2.3-8.6-6.7-10.4-12.2c-0.7-2-0.4-4,0.6-5.9
	c2.1-4.2,5.1-7.5,8.9-10.2c5.1-3.8,10.2-7.4,15.1-11.5c7.8-6.6,14.2-14.4,18.4-23.8c0.3-0.6,0.2-1.4,0.3-2.2
	c-1.5-2.1-3.7-1.5-5.6-1.8c-1.7-0.3-3.5-0.4-5.3-0.7c-1.9-0.4-3-2.1-2.4-4c0.6-1.9,1.5-3.7,2.4-5.5c1.9-3.6,4-7,5.8-10.7
	c1.9-3.9,1.7-7.4-1.5-11.1c-5-5.8-8.2-12.7-9.8-20.3c-1.3-5.8-0.6-7.8,4.9-10.1c4.2-1.7,8.7-2.7,13-3.9c2.7-0.7,5.4-1.1,8.1-1.8
	c22.6-5.8,45.7-8.6,68.9-10.1c8.3-0.6,16.7-1.1,25-0.8c6.7,0.2,13.1,2.8,17.3,8.2c6.8,8.8,13.6,17.6,17.8,28.1
	c2.2,5.7,4.8,11.1,4.6,17.4c0,1.5,0.7,2.9,1,4.1c-2,4.2-3.8,8.1-5.7,11.9c-1.2,2.4-1.5,4.8-0.1,7.2c2,3.4,2.1,6.6-0.7,9.7
	c-1.9,2.1-1.4,4.8-0.6,7.2c0.8,2.4,1.8,4.7,2.7,7.1c1,2.7,1.4,5.4,0,8.1c-1.3,2.5-3,4.4-6,5.4c-3.1,0.9-4.7,4.1-4,7.2
	c0.6,2.7,1.8,5.3,2.9,7.8c1.2,2.7,3.6,3.7,6.2,3.2c9-1.8,17.8-4.2,25.5-9.2c2.8-1.8,4.4-5.4,6.5-8.2c2.1-2.8,4-5.8,6.2-8.5
	c0.4-0.5,2.1-0.7,2.6-0.3c0.6,0.5,0.9,1.9,0.6,2.6c-0.9,2.6-2.2,5-3.3,7.5c1.1,1.5,2.3,0.8,3.4,0.5c1.5-0.4,2.8-1.1,4.3-1.4
	c1.3-0.2,2.5,0.4,3,1.8c0.5,1.4-0.1,2.6-1.2,3.3c-1.9,1.1-4.1,1.9-6.6,3c1,1.4,2,2.7,2.8,4.1c0.6,1.1-0.7,2.9-1.8,2.6
	c-1.2-0.3-2.4-0.7-3.6-1.1c-5.7-2-11.2-2.3-16.7,1.1c-6.6,4.2-13.9,7.3-19.5,12.5c-0.6,2.7,0.4,4.7,1.5,6.7
	c3.1,5.4,1.9,10.8-0.1,16.1c-0.8,2-2.3,3.2-4.3,4c-12.2,5.3-24.9,8.2-38.2,8.6c-9.9,0.3-19.7-0.7-29.4-2.4c-6.4-1.1-12,0.4-17.2,4.1
	c-7.5,5.3-14.7,10.6-19.9,18.4c-4.1,6.1-6.4,12.6-6.9,19.8c-0.2,3-0.3,6.1-0.8,9.1c-0.3,2.2-1.6,3.7-4.4,3.6
	c-1.4-7.3-3.3-14.6-3.8-22.1c-0.3-4.1,2.1-8.2,5.6-11.1c7.6-6.4,13.9-14,19.3-22.3c0.5-0.8,0.8-1.8,1.4-3.1
	c-2.8-0.7-5.2-1.4-7.6-1.9c-6.9-1.4-13.9-2.6-20.8-4.1c-3.2-0.7-5.9-0.4-8.4,2c-5.6,5.5-11.7,10.6-16.8,16.4
	c-4.2,4.8-6.5,10.8-7.1,17.3c-0.5,5.3-0.7,10.6-1.2,15.9c-0.3,3.3-1.7,5.4-3.4,5.2c-2.9-0.4-2.9-3.1-3.8-5.1
	c-0.3-0.7-0.3-1.5-0.3-2.2c0.1-4.1-0.8-8.1-2.3-11.9c-1.4-3.6-0.9-7,1.4-10.1c1.6-2.2,3.2-4.6,5.2-6.6c7-7,12.3-15.4,18.4-23.1
	C578.7,243.1,579.2,241.9,580,240.4z M568.2,188.2c-6.9,5.3-13.5,10.3-19.9,15.6c-1.9,1.5-3.3,3.9-4.4,6.1c-1.4,3-1.1,6,1.7,8.2
	c2.1,1.7,4.4,3.5,6.9,4.6c7.8,3.6,15.7,7.1,23.5,10.5c1.8,0.8,3.8,1.3,5.8,1.8c3.2,0.9,6.3,1.7,9.5,2.6c4.4,1.3,8.7,2.8,13.1,3.9
	c11.1,2.6,22.1,5.3,33.3,7.4c14.4,2.7,28.7,5.5,43.6,5.1c10.3-0.2,20-2.1,29.6-5.5c1.7-0.6,3.3-1.4,4.9-2c3.9-1.5,5.5-4.5,4.9-8.4
	c-0.6-3.4-1.4-7-2.9-10.1c-3.9-8-8.4-15.6-10.8-24.2c-0.5-1.7-1.7-3.1-2.5-4.7c-1.8-3.3-4.5-5.1-8.3-5.9c-5.5-1.1-10.9-1.9-16.5-2.1
	c-4.3-0.1-8.7,0-12.8-1c-4.7-1.2-9-0.6-13.4,0.7c-2.9,0.9-5.7,2-8.7,2.9c-1.4,0.4-2.9,0.5-4.7,0.7c-1-2-1.9-3.7-2.8-5.5
	c-0.9-1.9-0.9-4.4-3-5.7c-4.7,4.4-1.4,11.9-7.2,15.8c-4.8-6.8-3.2-15.1-5.2-22.7c-8.3,1.5-14.5,5.4-19.6,11.3
	c-1,1.1-1.6,2.6-2.7,3.6c-0.7,0.7-2,0.7-3.4,1.2c-0.6-7.4-0.2-14.2,0.6-21c0.2-1.8,0.4-3.5,0.6-5.3c0.2-2.3-1.1-3.8-3-4.8
	c-0.9-0.5-1.8-0.8-2.8-1.1c-3-0.8-4.4,0-6.4,2.6c-4.1,5.4-6.1,11.4-6.5,18.2c-0.2,4,0.3,7.6,2.5,10.8c3.3,5.1,7,9.9,11.6,14
	c3,2.7,6,4.6,10.2,3.9c1.2-0.2,2.5-0.1,3.4,1.6c-0.5,1.2-1.2,2.7-2,4.6c3.2,0.8,5.8,1.3,8.4,2.1c0.5,0.2,1.2,1.1,1.2,1.7
	c0,0.6-0.7,1.5-1.2,1.6c-1.9,0.5-3.9,0.7-6.2,1.1c0.1,1.5,0.3,3,0.3,4.4c-0.1,2-2.3,3.3-3.7,1.9c-1.8-1.7-3.5-3.6-4.8-5.7
	c-4.3-6.9-9.3-13.2-15.2-18.8c-4-3.8-7.5-8.2-11.3-12.3C570.6,190.6,569.4,189.4,568.2,188.2z M716.6,124.2c0-1.7,0.1-2.2,0-2.6
	c-3.3-11.7-10-21.5-17.4-30.9c-2.4-3.1-5.7-4.9-9.5-5.8c-3.7-0.9-7.4-1.4-11.3-1.1c-3.8,0.3-7.6,0.7-11.4,0.5
	c-21.1-0.6-41.8,3.5-62.5,6.6c-9,1.4-17.7,4.1-26.5,6.4c-2.4,0.6-4.6,2-6.8,3.3c-2.1,1.3-2.9,3.3-2.5,5.9
	c1.5,10.7,7.5,18.4,15.8,25.1c3.4-2.5,6.5-4.6,9.5-6.9c13.7-10.7,29.1-18.2,45.5-23.6c1.4-0.4,2.8-0.5,5.5-0.9
	c-1.4,1.6-1.9,2.5-2.6,2.9c-2.3,1.1-4.6,2.1-6.9,3c-16.9,6-32.2,14.5-45.5,26.6c-4.1,3.7-8.4,7.2-12.5,11c-3,2.8-4.8,6.3-3.8,10.8
	c4.7,1.8,9.3,1.4,13.8,1.8c4.7,0.5,9.5,0.9,13.4,1.3c2.6-1.6,2.6-4.5,5.7-5.3c-1,3.4-2,6.2-2.6,9.1c-0.7,3.2-1.4,6.5-1.6,9.7
	c-0.2,2.9-2,5.7-0.3,9.3c7.2-4,13.8-8.6,20.3-12.1c2.5-4.8,0-10.2,3.9-14c1.8,2.7,1.6,5.4,1.4,8.2c-0.4,5.5-0.5,11.1-0.5,16.7
	c0,1.1,0.1,2.6,2.5,2.5c2-4.4,4.3-8.8,6.2-13.5c3.9-9.2,9.4-17.3,16.1-24.6c3.3-3.5,6.7-6.9,9.5-10.8c4.1-5.6,9.5-9.8,14.9-13.9
	c4.7-3.5,9.9-6,15.6-7.6c1-0.3,2-0.5,3-0.3c0.6,0.1,1.4,0.7,1.6,1.3c0.2,0.6,0,1.4-0.2,2.1c-0.5,1.3-3.2,0.8-2.6,3.2
	c3.5,1.1,7.1,2.2,10.7,3.3C708.2,121.8,712.1,122.9,716.6,124.2z M714.4,149.8c1-2.8,2.5-5.1,2.3-8.4c-1.7,0.3-2.9,0.5-4.1,0.7
	c-1.9,0.4-2.9-0.7-3.4-2.3c-0.5-1.4,0.7-2.9,2.5-3.1c2.4-0.3,4.9-0.6,7-0.8c1.9-3.3,0.9-5.4-1.5-7c-0.6-0.4-1.3-0.8-2-1
	c-6.7-2.2-13.3-4.9-20.2-6.4c-6.3-1.4-12.5-0.2-18.2,3.3c-4.9,3.1-9.3,6.9-13.4,11.1c-6,6.2-10.6,13.5-15.6,20.4
	c-4,5.5-6.4,11.5-7.5,18c-0.9,5.2,0,10.4,3.5,15.3c3.5-0.8,7-1.5,10.4-2.4c4.9-1.4,9.9-2.3,15-1.8c6.8,0.7,13.5,1.9,20.2,3
	c3.5,0.6,6.9,1.8,10.4,2.2c4.2,0.5,8.5,0.6,12.8,0.5c2.7-0.1,4.2-1.9,3.8-4.6c-0.9-5.7-2.9-11.1-6-16.1c-5.9,1.3-9.8,6.7-15.7,6.6
	c-1.1-1.9-0.1-2.9,0.9-3.5c3.9-2.2,8-4.4,12-6.5c2.6-1.4,5.6-2.3,7.4-5.3c-1.8-6.1-6.1-10.6-10.7-15.6
	C708.6,145.2,710.4,149.2,714.4,149.8z"/>
<path d="M842.4,235.5c3.6-3.3,4.8-7.8,7.7-12.1c-2.6-0.5-4.5-0.8-6.4-1.2c-2.5-0.6-3.9-2.4-4-4.9c0-2.2,0.4-4.5,0.8-6.7
	c0.4-2.4,1.1-4.9,1.6-7.5c-1.5-0.8-2.6-1.4-3.6-2c-5.2-3-5.6-4.7-3-11.4c0.8-2,2.6-3.7,4-5.5c2.7-3.4,5.7-6.5,8-10.1
	c2.2-3.3,4.1-7,5.6-10.7c2.1-5.4,1.1-9.2-2.7-14.7c2.4-7.2,8.7-17.1,14.7-23.1c1.4,0.2,3.1,0.4,4.9,0.6c6.8,0.8,13.5-0.5,20.3-1.3
	c3.4-0.4,6-2.4,8.6-4.5c5.2-4.1,10.8-7.6,17.2-9.5c1.4-0.4,2.9-0.5,4.8-0.8c0.3,2.3,0.5,4.2,0.7,6.2c0.3,0.2,0.7,0.8,1.1,0.8
	c2.8,0.2,5.6,0.5,6.9,3.6c5.2,2.6,9.1,7.3,16,7.3c6.8-0.1,13.5,1.5,20.4,0.4c1-0.2,2.6,0.6,3.1,1.5c0.5,0.9,0.3,2.6-0.4,3.5
	c-2.5,3.5-5.4,6.7-7.9,10.2c-1.6,2.2-3,4.6-4.2,7.1c-0.5,1-0.3,2.4-0.4,3.6c0.8,0.6,1.4,1.1,2.1,1.3c4.1,1.2,5.4,3.7,4.8,8
	c-0.7,5.1,1.1,6.9,6.2,7.4c3,0.3,6.1,0.3,9.1,0.7c3.9,0.5,4.3,1,7.6,5.4c-0.4,5-5.5,5.4-8.2,8.2c-0.4,2.9,0.5,4.8,3.2,6.2
	c2.7,1.3,5.3,2.9,7.9,4.5c1,0.7,1.8,1.8,2.6,2.8c1.1,1.5,0.5,3.8-1.3,4.3c-1.7,0.5-3.4,0.7-5.7,1.1c-0.1,1.6-0.7,3.4-0.3,5
	c1.2,4.6,2.3,9.4,5.1,13.4c5.6,8.1,8,17.4,10.5,26.7c0.7,2.8,0.7,5.6-0.7,8.1c-1.7,3.1-3.2,6.4-5.5,9c-3.6,4.2-7.7,8-11.7,11.8
	c-4.3,4.1-4.9,6.5-2.2,11.9c0.3,0.7,0.8,1.3,1,2c1.9,5,4.9,8.2,10.8,7c1.1-0.2,2.4,0.4,3.3,0.5c1.6,2.1,1.3,3.9,0.3,5.3
	c-5.7,7.7-3.2,15.4-0.3,23.1c0.4,0.9,1,1.7,1.5,2.6c2.1,4.1,1.7,5.4-2.7,7.6c-0.4,0.2-1,0-1.8-0.1c-1.8-1.8-2.9-4.4-3.6-7.1
	c-1-3.9-1.8-7.9-2.4-11.9c-0.4-2.5-0.4-5-0.7-7.6c-0.5-5.4-2.1-10.2-6.9-13.6c-3.9-2.8-7.2-6.3-10.7-9.6c-5.6,1.2-9.8,4.7-14.7,6.6
	c-4.7,1.8-9.8,2.4-14.3,6.1c2,3.8,3.8,7.7,6,11.2c2.6,4.1,5.7,7.8,11.1,8.4c0.7,0.1,1.4,0.5,2.1,0.9c1.5,0.8,2.2,2.6,1.2,3.9
	c-6,8-4.4,16.7-2.4,25.5c0.6,2.5,1.4,4.9-1.1,7.2c-4.3-1.4-6.8-4.2-6.6-8.8c0.1-2.5,0.5-5,0.7-7.5c0.3-3.3,0.8-6.6,0.5-9.8
	c-0.1-2.2-0.8-4.8-2.2-6.3c-5.7-6.1-10.7-12.8-17.2-18.1c-3.1-2.6-5.8-3.2-9.6-1.8c-8.3,3.2-16.9,4.9-25.8,5.8
	c-0.8,0.1-1.5,0.2-2.2,0.3c-11.2,3-22.6,2.9-33.9,2.3c-9.1-0.5-18.1-1.6-26.8-4.6c-8.1-2.8-14.1-10.2-12.4-20
	c0.6-3.2,1.3-6.4,2.2-9.6c1.2-4.1,2.6-8.2,3.8-12.1c-0.9-1.2-1.3-2.2-2-2.8c-3.9-3.2-7.9-6.3-12-9.3c-5.4-4.1-11.5-4.8-18-3.7
	c-1.5,0.3-3,0.6-4.4,0.7c-0.8,0.1-1.8-1.7-1.2-2.3c1.1-1.3,2.4-2.5,4-4.1c-0.6-1.1-1.2-2.4-1.9-3.7c-0.6-1.2-1.2-2.3,0-3.4
	c1.2-1,2.3-0.3,3.4,0.3c0.9,0.5,1.8,0.9,2.6,1.3c1.8-1.6,0.3-5.9,4.9-4.8c0.5,1.1,1.3,2.4,1.6,3.8c1.2,5.1,4.5,8.6,8.8,10.9
	c5.8,3.1,11.9,5.4,18.5,6.6c3.3-3.1,4.9-7.2,7.2-10.7c1.1-1.6,0.6-3.5-0.6-4.9c-1.3-1.5-2.7-3.1-4.2-4.4c-3.6-3.2-7.3-6.3-10.9-9.4
	c-2.6-2.2-5.4-3.6-9-3c-3.2,0.5-5.8-1-8.2-2.7c0.1-3.9,3.9-1.8,5.1-3.6c-0.1-0.5,0-1.1-0.2-1.4c-0.9-1.5-2-2.9-2.8-4.4
	c-0.5-0.8,0.7-2.3,1.6-2c1.9,0.5,3.7,1.2,5.7,1.8c0.4-0.2,0.9-0.4,1.1-0.8c0.6-1,0.8-2.5,2.5-2.4c2.1,0.1,2.2,1.7,2.2,3.3
	c0.1,1.5,0.1,3,0.2,4.6c0.2,2.6,1.2,4.9,3.1,6.8C828,229.7,834.2,234.3,842.4,235.5z M975.1,207.9c-2.7,0.9-4.7,1.4-6.5,2.3
	c-8.7,4.1-17.4,8.2-26,12.4c-2,1-3.9,2.3-5.9,3.4c-2.8,1.5-5.5,2.2-8.7,0.7c-3-1.4-5.9-0.7-8.7,0.7c-1.6,0.8-3.1,1.7-4.7,2.4
	c-3,1.3-6,2.6-9.1,3.7c-1.5,0.5-3.2,0.4-4-1.1c-0.5-1-0.6-2.5-0.2-3.5c0.9-2.3,2.4-4.5,3.4-6.8c0.7-1.5,1-3.2,1.5-4.7
	c-0.7-0.4-0.9-0.6-1.1-0.6c-13.6,0.4-27.1,2.6-40.5,4.8c-5.4,0.9-9.2,3.5-12,8.2c-4.8,8-10,15.8-14.7,23.9c-2.8,4.8-5,10-6.1,15.5
	c-1.6,7.7-3.3,15.3-4.9,23c-1.3,6.3,2.8,13.2,9,14.5c14.3,3.2,28.7,6,43.5,3.7c5.5-0.9,11-1.7,16.5-2.3c12.1-1.4,23.9-4.1,35.3-8.5
	c5.7-2.2,11.4-4.1,17.1-6.2c8.8-3.2,17.1-7.1,23.9-14.1c7.4-7.6,14.6-15.4,19.6-24.9c1.6-3,3.1-6.1,2.4-9.4
	c-1.2-5.2-2.5-10.4-4.7-15.2c-2.7-5.7-6.3-11-9.6-16.3C978.4,211.6,976.8,210,975.1,207.9z M931.5,223.5c9.5-4.6,18.6-8.9,27.6-13.5
	c9-4.6,19.1-6.2,28.8-10.4c-1-1.1-1.4-2.1-2.2-2.5c-2.6-1.5-5.4-2.8-8.1-4.1c-1.4-0.7-2.9-1-4.1-1.8c-2.8-1.7-3.1-4.9-0.6-7
	c1.7-1.4,3.8-2.4,5.8-3.5c1.5-0.8,3.4-1.2,3.8-3.3c0.3-1.4-1.3-2.8-4.3-3.4c-2.2-0.5-4.5-0.6-6.7-0.8c-2.3-0.2-4.6-0.2-6.8-0.6
	c-2.7-0.5-5.5-1.1-7.1-4.2c0.5-1.3,1.1-2.6,1.4-4c0.4-1.6,0.4-3.4,0.6-4.8c-3.2-2.8-7.5,0.1-10.5-3.3c0.5-1.2,0.8-2.7,1.7-3.8
	c2.7-3.6,5.6-7.1,8.5-10.7c2.3-2.9,5.1-5.5,6.3-9.6c-1.3-0.4-2.2-1.1-3.1-1c-7.1,1.1-14.1-1-21.1-1c-2.7,0-5-0.6-6.9-2.5
	c-1.5-1.6-3.3-2.2-5.5-2c-1.2,0.1-2.4-0.2-3.6-0.4c-0.7-1.6-1.3-3-2-4.6c-1.3,0.3-2.5,0.7-3.7,0.9c-2.7,0.5-3.7-0.6-3.4-3.3
	c0.1-1.4,1.5-2.8,0-4.5c-0.8,0.1-1.8,0.1-2.7,0.5c-4.3,1.6-8.2,3.9-11.8,6.8c-2.9,2.4-5.8,4.9-8.7,7.3c-1.6,1.4-3.4,1.9-5.6,1.3
	c-5-1.2-10-0.9-14.7,1.6c-1.6,0.9-3.4,1-5.1-0.1c-1-0.6-2.1-1-3.1-1.6c-3.7,3.5-5.7,7.7-7.6,11.8c-0.4,0.9-0.8,1.9,0.5,2.5
	c4.3-2,8.5-4.2,13-6c2.9-1.2,6.2-2.8,9,0.6c0.4,0.5,2,0.6,2.8,0.3c3.9-1.4,6.8,0.4,9.2,3c6.1-1,11.8-2,17.5-3
	c2.2-0.4,4.7-1.5,6.4,0.6c2.1,2.5,0,4.7-1.2,6.9c-3.3,6-6.7,11.9-10,17.9c-0.8,1.5-2.1,3-0.6,5.2c1.2-0.9,2.4-1.8,3.6-2.6
	c2.5-1.6,5.1-3.3,7.7-4.7c1.9-1,4.4,0.4,4.4,2.6c0.1,1.9-0.3,4-0.8,5.9c-0.5,1.9-1.4,3.7-2.1,5.6c1.7,1.4,3.1,2.4,4.3,3.6
	c1.8,1.7,2,3.4,0.4,5.4c-1.7,2.2-3.5,4.4-5.5,6.2c-5.8,5.1-10,11.4-13.5,18.2c-0.3,0.6-0.2,1.4-0.3,2.3c4.3,1.6,8.4-2.4,12.6-0.3
	c1.2,2,0.2,3.4-1,4.8c-2.5,2.8-5.1,5.6-7.5,8.6c-0.8,1-0.8,2.6-1.4,4.6c2-0.4,3.3-0.5,4.4-1c3.9-1.7,7.9-3.4,11.7-5.4
	c3.1-1.7,6.1-2.4,9.2-0.2C930.4,223.5,931.3,223.5,931.5,223.5z M873.9,145.3c-0.8-1.5-1.4-2.7-2.3-4.4c-2.9,1.3-5.6,2.1-7.8,3.7
	c-2,1.4-3.6,3.5-5.2,5.4c-1,1.3-1.1,3.1,0,4.2c0.7,0.7,2.2,1,3.4,1c2.7,0,5.2-1.4,8.6-1c-2.7,6.1-8.6,4.3-12.6,6.6
	c-0.5,1.2-1.4,2.6-1.5,4.1c-0.4,4.3-2.6,7.6-5.2,10.8c-1.6,2-3.2,3.9-4.7,6c-1.7,2.2-3.6,4.3-4.9,6.7c-3.9,7.2-2,10.3,6.1,10.5
	c3.3,0.1,6.6,0.1,9.9,0.3c1.5,0.1,3,0.6,3.1,3c-2.2,0-4.4-0.1-6.6,0c-6.7,0.2-12.4,7.7-10.8,14.3c0.2,1,1.6,2.2,2.5,2.4
	c1.9,0.3,4,0.1,6-0.1c3-0.4,6-1.1,9-1.5c7.3-1,14.6-1.7,21.8-2.7c7.1-1,13.8-3.3,18.5-9.3c4.5-5.8,9.2-11.5,13.5-17.4
	c1.1-1.5,1.3-3.7,2-5.7c-3.2-2.2-4.7-4.8-4.2-8.5c0.2-1.5,0.5-3.7-2.3-4.7c-2,1.5-4.1,3.2-6.3,4.7c-1.4,1-3.1,2.6-4.6,0.9
	c-0.8-0.8-0.7-2.9-0.3-4.2c0.8-2.4,2-4.6,3.2-6.9c1.3-2.5,2.8-4.9,3.9-7.4c1.8-4,2.4-8.1,0.8-12.6c-1.5,0-2.7-0.2-3.9,0
	c-3.2,0.6-6.4,1.3-9.7,2c-2.3,0.5-4.6,0.8-6.3-1.3c-1.8-2.2-4-1.7-6.2-0.9C878.6,144,876.9,145.9,873.9,145.3z"/>
<path d="M601.9,599.6c-1.5-0.3-2.7-0.9-3.8-0.8c-7.1,0.6-13.9,2.2-20.5,5.1c-3.3,1.4-5.3,3.6-5.8,7.3
	c-0.5,3.7-1.4,7.4-2.1,11.2c-0.5,2.7-0.8,5.5-1.6,8.2c-1.3,4.4-4.6,6.4-9,6.9c-2.2,0.2-4-1.1-4.3-3.3c-0.3-2.2-0.2-4.5-0.2-6.8
	c0.1-3.8,0.5-7.6,0.4-11.4c-0.1-2.2-0.6-4.5-1.4-6.6c-0.3-0.8-2-1.8-3-1.7c-5,0.7-9.9,1.7-14.7,2.6c-3.1,4.1-3.8,8.5-3.9,13.1
	c0,3.4-0.7,6.5-2.3,9.5c-1,1.9-2.5,3.2-4.5,3.9c-3.7,1.4-6.8-0.4-7-4.3c-0.1-3.3,0.3-6.5,0.5-9.8c0.1-1.5,0.4-3,0.2-4.5
	c-0.3-2.7-1.7-4-4.5-4.2c-5.3-0.4-10.6-0.7-15.9-1c-4.1-0.2-8-1-11.5-3.4c-2.9-2-4.4-4.5-4.9-8.1c-2-13.1,0.4-25.6,3.5-38.2
	c3.7-14.7,6.7-29.7,7-44.9c0.2-9.9-0.4-19.7-1.1-29.6c-1-14.1-2.1-28.3-3.5-42.4c-1-9.5-2.5-19-4.1-28.5c-1.2-7.5-2.8-14.9-4.3-22.3
	c3.5-2.5,3.7-2.5,6.4-0.6c4.5,3.2,8.8,6.9,13.6,9.6c8.2,4.5,16.5,8.7,25,12.6c10.9,5,21.4,3,30.9-3.6c8.5-5.9,15.9-13.3,22.4-21.4
	c4.1-5.1,8.4-10.1,12.7-15.1c0.9-1.1,2.2-1.8,3.8-3.1c0.8,1.9,1.8,3.2,1.8,4.5c-0.1,7.7,2.2,15,3.6,22.4c4.8,24.9,12.6,49,22.6,72.3
	c4.8,11.1,10.5,21.9,15.9,32.7c2.7,5.4,6.8,9.4,12.1,12.1c5.7,2.9,11.1,3,16.3-1.1c7.7-6.1,15.4-12.2,23.3-18.3
	c5.4-4.2,11-8.2,16.5-12.1c1.4-1,3.1-1.9,5-1.1c0.8,0.4,1.5,1.2,2.6,2.1c-4.6,5.4-9.3,10.4-13.3,15.8c-7.7,10-17,18.8-23.2,29.9
	c-4,7-7.6,14.3-11.7,21.3c-3,5-5.9,10.1-9.9,14.3c-7.9,8.4-9.7,18-7.8,28.8c0.5,2.7,0.9,5.5,0.8,8.3c-0.2,5.4-7.2,9.6-12.2,7.7
	c-1.8-0.7-2.9-2.1-3-4c-0.2-1.8,0.1-3.5-0.1-5.3c-0.4-4.3-0.8-8.6-1.4-12.8c-0.2-1.4-1.2-2.7-1.7-3.9c-3.3-0.5-5.7,1-8.3,2.1
	c-2.3,1-3.8,2.7-4.3,5c-0.6,3.2-1.2,6.5-1.3,9.7c-0.2,4.5,0.3,9.1,0.2,13.7c-0.2,5.3-3.2,8.4-8.2,9.3c-3.4,0.6-5.4-0.7-5.7-4.2
	c-0.4-5.8-0.6-11.6-0.9-17.4C602.3,603.8,602.1,601.9,601.9,599.6z M654.3,528.8c-0.7,3.2,0.8,5.4,1.6,7.7c0.4,1.2,0.6,2.4,0.8,3.7
	c0.1,0.9-1.5,1.9-2.2,1.3c-1.1-0.9-2.4-1.9-3.1-3.1c-4.4-8.3-8.7-16.5-12.9-24.9c-6.9-13.8-13.7-27.7-20.4-41.5
	c-1-2-1.6-4.2-2.5-6.3c-4.4-10.8-7.8-21.9-11.2-33c-3.6-11.6-6.5-23.4-8.2-35.4c-0.7-4.7-1-9.5-3.3-14.2c-3.1,1.5-4.7,4.1-6.7,6.3
	c-8.3,9.5-16.6,19-26.9,26.6c-4.2,3.1-8.5,5.6-13.4,6.7c-8,1.8-16,2.5-23.6-1.6c-3.3-1.8-6.8-3.5-10.3-4.8
	c-7.9-3-14.9-7.3-21.4-12.8c-1.5-1.3-3.2-2.2-5.4-3.7c0,1.7-0.2,2.7-0.1,3.6c0.7,4,1.5,8,2.4,11.9c2,9.1,3.8,18.3,4.4,27.7
	c0.8,11.6,1.6,23.2,3,34.7c1.2,9.6,2.1,19.1,1.9,28.7c-0.2,9.4,0.2,18.8-1.1,28c-1.8,12.5-4.6,24.9-7.8,37.1
	c-2.5,9.8-2.6,19.5-1.1,29.3c0.2,1.2,0.5,2.5,1,3.6c1.1,2.1,2.6,3.8,5.1,4.1c6,0.6,12,1.3,18.1,1.7c9.7,0.7,18.9-2.9,28.4-3.8
	c6.7-0.7,13.5-2,20-3.6c5.9-1.5,12-1.2,17.9-2.7c5.2-1.3,10.3-2.5,15.4-3.9c5.8-1.6,11.8-2.9,17.4-5c11.4-4.1,22.5-9.1,32.6-16
	c8.2-5.6,15.4-12.2,19.9-21.4c2.9-5.9,6.1-11.7,9.1-17.5c4.9-9.3,11.6-17.1,18.2-25.2c3.6-4.5,7.3-8.9,11.9-14.4
	c-4.6,1.7-7.3,4-10,6.1c-11.6,9-22.9,18.4-36.1,24.9C655.2,527.8,654.9,528.2,654.3,528.8z"/>
<path d="M700,623.1c-0.1-2.1,1-2.9,2.2-3.1c7.2-1,14.5-2.1,21.8-2.8c7.3-0.7,14.6-1,21.4-1.4c2.1-8.1,4.1-15.6,5.9-23.1
	c3.3-13.5,10.4-24.4,20.8-33.6c7.6-6.7,15.3-13.3,23.9-18.6c7.1-4.4,14.6-8.1,22.2-11.5c12.7-5.8,26.3-8.9,40.1-11.2
	c11.6-1.9,23.2-1.6,34.4,2.5c6.5,2.4,12.2,6.3,17,11.2c7.3,7.4,13.5,15.7,16.7,25.9c3.8,12,5.2,24.1,2.3,36.6
	c-1.2,5.1-2.7,10.3-2,15.7c0.6,4.8,1.3,5.7,6,6.2c3,0.3,6.1,0.4,9.1,0.5c13.9,0.4,27.8,0.8,41.7,1.3c1.9,0.1,4.3-0.4,5,2.3
	c0.5,1.7-1.6,2.4-5.4,2.2c-13.4-0.8-26.7-2.1-40.2-1.2c-2.8,0.2-5.6-0.2-8.3-0.3c-18.7-0.8-37.4-1.7-56.1-2.2
	c-8.6-0.2-17.2,0.6-25.8,0.8c-5.6,0.1-11.1,0.2-16.7,0c-13.9-0.6-27.8-0.3-41.7,0.3c-13.6,0.6-27.3,1.6-40.9,1.5
	c-11.6-0.1-23.3,0.2-34.9,0.8c-5,0.2-10,1.2-15.1,1.7C702.2,623.6,701,623.3,700,623.1z M916.3,614.4c5.1-6.1,5.4-13.2,7.5-19.7
	c1.1-3.6,1.3-7.4,1.9-11.2c0.1-0.5,0-1-0.1-1.5c-0.2-3.3-0.3-6.6-0.6-9.8c-1-9.4-3.5-18.4-9.1-26.2c-2.2-3.1-4.7-6-7.1-8.9
	c-6.1-7.1-13.5-12-22.5-14.7c-8.5-2.6-17-2.1-25.6-1.3c-10.9,1-21.3,4.3-31.6,7.6c-10.2,3.2-19.7,7.9-29,13.2
	c-9.9,5.6-18.5,13.1-27,20.7c-5.3,4.8-9.8,10-13.2,16.5c-5,9.6-8,19.6-8.3,30.5c0,1.7,0.5,3.4,0.8,5.3c5.5,0.8,10.7,1.6,16,1.1
	c6-0.6,12.1-0.9,18.2-1.1c15.1-0.5,30.3-0.9,45.5-1.3c5.1-0.2,10.1-0.6,15.2-0.5c15.7,0.4,31.3,1,47,1.4
	C901.5,614.6,908.8,614.4,916.3,614.4z"/>
<path d="M938.7,29.2c-1.5,2.4-1.8,3.6-2.6,4.2c-9.4,6.8-18.9,13.4-28.2,20.4c-10.1,7.6-19.5,16-28.9,24.4
	c-17.6,15.8-32,34.3-47,52.4c-9.4,11.3-18,23.1-26,35.4c-2,3.2-3.8,6.5-5.8,9.8c-0.6,1.1-1.3,2.2-3.4,1.4c0.2-1.1,0.1-2.3,0.6-3.3
	c4.5-10.2,9.8-19.9,16.4-29c11.7-16,24.7-30.7,38.3-45c7-7.3,13.8-14.7,21.2-21.7c7.9-7.4,16.2-14.5,24.6-21.4
	c8-6.6,16.2-12.9,24.5-19.1C926.7,34.5,931.1,31,938.7,29.2z"/>
<path d="M742.8,247c1.1,4.2-0.7,6.3-2,8.3c-4.6,7.3-9.5,14.3-14,21.7c-4.6,7.5-8.9,15.3-13.4,22.9
	c-9.3,15.7-15.9,32.7-22.9,49.5c-2.4,5.8-4.3,11.9-6.4,17.9c-1.2,3.6-2.1,7.2-5.2,9.9c-1.2,1-1.5,3.1-2.3,4.7
	c-0.2,0.3-0.9,0.5-1.3,0.4c-0.4-0.1-0.8-0.5-1.4-1.1c5.7-15,11.5-30.1,17.2-45.2c3.5-9.2,6.7-18.6,10.5-27.6
	c3.1-7.4,7-14.6,10.7-21.8c1.9-3.7,4.6-6.6,7.8-9.2c1.9-1.6,3.5-3.6,4.9-5.6c4.9-7.1,9.6-14.2,14.4-21.3
	C740.1,249.4,741.1,248.7,742.8,247z"/>
<path d="M140.3,630.8c-2,0.6-3.2,1.1-4.3,1.2c-9.3,0.6-18.7,1.1-28,1.5c-8.6,0.4-17.1,0.7-25.7,0.9
	c-3.5,0.1-7.1,0.2-10.6-0.2c-4.3-0.5-8.6-0.1-12.8,0.3c-1.5,0.2-3,0.3-4.5,0.3c-15.2-0.8-30.2,1.4-45.3,2.9c-3,0.3-6,0.7-8.9-0.6
	c-0.5-3.1,1.2-4.4,3.7-4.8c2.2-0.4,4.5-0.4,6.8-0.6c18.4-1.7,36.8-3,55.3-2.6c13.4,0.3,26.8-0.3,40.2-0.4c9.1-0.1,18.2,0.4,27.2-0.9
	C135.5,627.4,137.7,628,140.3,630.8z"/>
<path d="M758.8,257.8c-4.3,9.1-8.7,18.1-12.8,27.3c-2.3,5.1-3.8,10.4-6,15.5c-2,4.6-4.8,8.9-6.8,13.5
	c-5.4,12.8-10.6,25.6-15.8,38.5c-2.1,5.1-3.9,10.4-5.9,15.5c-0.3,0.7-0.5,1.5-1,2c-0.5,0.4-1.4,0.7-1.9,0.5c-0.5-0.2-1.1-1.2-1-1.7
	c1.8-7.1,3.6-14.2,5.6-21.2c4.3-15.4,10.5-30,17.1-44.5c3.7-8,7.6-16,11.6-23.9c2.4-4.7,4.7-9.5,8.9-13.1c1.8-1.6,2.8-4.2,4.2-6.2
	c0.8-1.2,1.9-2.1,2.9-3.2C758.2,257.2,758.5,257.5,758.8,257.8z"/>
<path d="M790.1,274.6c-0.9,2.3-1.8,4.6-2.8,6.9c-3.6,7.5-7.5,14.9-11,22.5c-2.6,5.7-4.8,11.7-7,17.6
	c-4.9,13.3-10.1,26.5-14.2,40c-3.9,13.1-6.7,26.5-8.4,40c-0.2,1.8-0.5,3.5-1,5.2c-0.2,0.7-0.8,1.2-1.5,2.3c-0.8-1.3-1.7-2.3-1.8-3.3
	c-0.2-1.7-0.1-3.5,0.2-5.3c1.6-8.7,3.3-17.4,5-26.1c0.9-4.7,2.1-9.4,3-14.1c1.9-10.3,5.8-19.9,9-29.7c4.5-13.8,10.9-26.7,17.8-39.3
	c1.2-2.2,1.9-4.7,3.2-6.9c1.9-3.3,4-6.4,6.2-9.5c0.5-0.7,1.6-0.9,2.4-1.4C789.5,273.9,789.8,274.3,790.1,274.6z"/>
<path d="M796.3,145c-0.3-2.3-0.8-3.3-0.5-4c0.9-1.8,2.1-3.5,3.3-5.1c16-20.6,33.1-40.3,52.1-58.1
	c14.2-13.3,28.9-26.2,44.4-37.9c4.4-3.4,9.2-6.3,13.8-9.4c0.8-0.5,1.8-0.7,3.2-1.2c-0.4,1.2-0.3,2-0.7,2.4c-2.8,2.9-5.6,5.8-9.3,7.7
	c-2.4,1.3-4.5,3.2-6.7,4.9c-18.8,14.9-36.7,31-53.6,48c-5.4,5.4-10.3,11.1-15.3,16.8C817.1,120.7,807.2,132.2,796.3,145z"/>
<path d="M887,34.1c0,0.5,0.1,0.9,0,1c-4.6,3.9-8.9,8.1-13.8,11.6c-9.1,6.4-17.9,13.2-26.6,20
	c-13.8,10.7-26.5,22.6-39.2,34.5c-8.5,7.9-16.5,16.4-23.6,25.6c-1.5,2-3,4.1-4.8,5.8c-0.7,0.7-2.5,1.3-3.3,0.9
	c-1.5-0.7-0.7-2.2,0-3.2c1.4-1.8,2.8-3.6,4.3-5.3c5.6-6.2,10.9-12.6,16.8-18.5c10.5-10.2,21.2-20.3,32.1-30c9.1-8,18.4-15.7,28-23.2
	c7.7-6.1,15.9-11.6,23.9-17.3C882.7,34.9,884.6,33.5,887,34.1z"/>
<path d="M693.6,275.3c-2.9,5-5.6,9.5-8.3,14.1c-5,8.5-8.7,17.6-12,26.9c-0.3,1-0.7,1.9-1.2,2.8
	c-6.1,11.5-9.9,23.7-13.8,36c-2.7,8.7-5.8,17.2-8.8,25.8c-0.1,0.4-0.7,0.7-1.4,1.5c-0.5-0.8-1.4-1.5-1.4-2.1c0-1.2,0.5-2.5,0.8-3.7
	c4.9-16.4,9.8-32.9,16.4-48.8c4.9-11.9,10.2-23.7,15.4-35.4c2.2-5.1,4.8-10,7.2-15c0.4-0.9,0.9-1.8,1.5-2.6
	C689.3,273,690.1,273.1,693.6,275.3z"/>
<path d="M945.3,40.7c0.6,0.4,1.1,0.6,1.3,0.9c0.2,0.4,0.2,1.1-0.1,1.4c-0.6,0.8-1.2,1.8-2,2.2
	c-8.9,4.5-15.8,11.6-23.9,17.3c-10.4,7.3-19.1,16.4-28,25.3c-5.2,5.2-10.3,10.4-14.4,16.5c-0.3,0.4-0.6,0.9-1.1,1
	c-0.7,0.2-1.6,0.4-2.1,0.1c-0.5-0.3-1-1.3-0.9-1.9c0.1-0.9,0.7-1.9,1.3-2.7c5.5-6.9,10.9-13.9,17.7-19.6c2.7-2.3,5.2-4.8,7.8-7.1
	c7-6.2,13.8-12.6,21.6-17.8c4.2-2.8,7.9-6.3,11.9-9.3c2.8-2.1,5.8-4,8.8-5.9C943.9,40.9,944.7,40.9,945.3,40.7z"/>
<g>
	<path d="M817.2,651.4c-2.4,4.7-0.8,9.3-4.4,12.7c-0.4-1.2-0.8-1.9-0.8-2.6c0.9-6.2,1.8-12.4,2.8-18.6
		c0.1-0.4,0.7-0.7,1.2-1.2c4,2.6,2.9,8.8,7.7,11c4.3-3,5.8-8.4,9-13.4c1.2,1.9,2.1,2.8,2.3,3.9c1.5,5.9,2.9,11.8,4.2,17.7
		c0.4,1.8-0.1,3-2.4,3.3c-3.2-4.3-2.2-10.1-4.9-14.9c-4.3,2-4.4,7.6-8.8,9.9c-0.7-0.6-1.8-1.2-2.5-2.1
		C819.6,655.4,818.7,653.7,817.2,651.4z"/>
	<path d="M766.3,647.3c0,4.1,2.1,6.1,3.6,8.4c1.1,1.7,2.5,3.2,3.4,5c0.8,1.4-0.1,2.3-1.8,2.7c-3.5-2.9-5.2-8.1-10.4-9.1
		c-3.8,2.7,0.6,8.7-4.1,11c-0.5-0.6-1.1-0.9-1.1-1.3c-0.1-8.3,0.2-16.5,1.4-24.8c2.5-0.5,3.6,0.5,3.6,2.7c0,1.5-0.2,2.9-0.3,4.2
		c1.6,1.2,2.6,0.2,3.6-0.5c3.3-2.3,6.6-4.6,10-6.8c0.3-0.2,1.2,0,1.3,0.2c0.2,0.6,0.4,1.6,0.1,2c-0.6,0.8-1.5,1.3-2.3,1.9
		C771,644.3,768.6,645.8,766.3,647.3z"/>
	<path d="M784.8,659.1c-0.1-0.5-0.5-1.1-0.3-1.3c3.1-5.2,6.2-10.4,9.3-15.6c0.5-0.9,1.1-1.7,1.9-2.9
		c1.6,1.8,2.6,2.6,3.1,3.6c1.6,2.8,2.2,6,4.1,8.8c1.6,2.4,2,5.6,2.6,8.5c0.2,0.8-0.5,1.7-0.8,2.6c-0.8-0.4-1.7-0.8-2.5-1.3
		c-0.2-0.1-0.3-0.4-0.4-0.6c-1.1-2.2-1.4-5.5-4.3-5.8c-3.9-0.5-8.2-0.6-11,3.2c-0.3,0.4-0.7,0.6-1.1,0.9
		C785.3,659.2,785,659.1,784.8,659.1z M792,651.4c2.4,0,4.1,1,5.2-1.3c-0.2-1.4,0-3.1-2.5-3.4C793.9,648,793.1,649.4,792,651.4z"/>
	<path d="M848.3,642.7c9.9-3.6,11.8-3.9,14.7-2.7c-0.4,1.9-2.1,1.8-3.4,2.3c-1.9,0.7-3.9,1.2-5.7,1.9
		c-1.6,0.6-2.5,1.7-2.1,3.5c0.4,1.8,1.8,2.4,3.4,2.4c1.8,0,3.5-0.4,5.2-0.4c0.6,0,1.2,0.5,2,0.8c-2.4,3.4-6.8,1.8-9.7,4.4
		c0,2,0.6,3.7,3,4.2c1.9,0.4,3.8,0.7,6.3,1.1c-0.9,1-1.4,1.8-1.9,1.9c-3.9,0.4-8,1.1-11.5-0.9C848.5,655,848.4,649,848.3,642.7z"/>
	<path d="M885,654.1c-3.4-0.1-6,0.8-8.2,2.1c-1.9,1.9,1,5.5-3,6.7c-2.3-5.8-1.4-11.7-1.4-17.8c3.7,1.3,1.5,4.9,3.9,6.7
		c3,0.1,6-1,8.2-2.2c2.5-2.8,0.1-6,2.2-8.7c0.7,0.7,1.4,1.2,1.5,1.7c0.3,1.5,0.6,3,0.5,4.5c-0.2,4.8-0.4,9.6,1.1,14.3
		c0.2,0.5-0.9,1.5-1.6,2c-0.1,0.1-1.4-0.7-1.6-1.2C886.1,659.8,885.7,657.3,885,654.1z"/>
	<path d="M897.4,643.1c4.2,2.2,1.6,5.9,4,8.3c1.6-0.2,3.5-0.5,5.4-0.6c2.5-0.1,5-0.1,7.3,1.4c2.4,1.7,3,4.6,0.8,6.4
		c-1.7,1.4-3.7,2.6-5.8,3.1c-3.4,0.9-6.9,0.9-10.8-0.3C895.5,655.8,896.9,649.9,897.4,643.1z M901.5,657.2c0.1,0.2,0.1,0.6,0.3,0.7
		c3.5,2.4,7.4,2.3,10.2-0.3c0.6-0.6,0.2-2.1-0.7-2.6C907.8,652.9,905.5,653.5,901.5,657.2z"/>
</g>
<g>
	<path d="M892.7,349.2c-1.5,4.7,0.4,8.4,1.5,12.2c0.7,2.4,0.4,2.7-2.9,4c-3.8-9.6-3.6-19.7-5.2-29.9
		c2.7-2.3,5.7-4.1,8.7-5.7c3-1.6,5.9-1.1,8.4,1.2c2.3,2.1,2.6,4.8,1.9,7.7c-0.9,3.7-3.3,6.2-6.7,7.8
		C896.5,347.4,894.5,348.3,892.7,349.2z M891.8,344.1c6.6-0.2,9.6-2.5,9.6-7.5c0-2.5-2-4.2-4.5-3.6
		C891.2,334.3,889.6,337.8,891.8,344.1z"/>
	<path d="M795.9,333.4c1.1,0.3,3.3,0.7,5.4,1.4c0.5,0.2,1.1,1.4,1,1.7c-0.4,0.8-1.3,1.7-2,1.8c-1.2,0-2.4-0.7-3.6-1
		c-3.7-1-6.9,0.1-9.8,2.5c-4.2,3.6-4.6,8.6-0.4,12.4c4.3,3.9,9.2,6.1,15.2,3.8c1.4-0.5,2.9-1.1,4.2,0.3c0.8,0.9-0.8,2.6-3.1,3.5
		c-6.9,2.7-12.9,0.6-18.3-3.7c-5.2-4.1-7.3-12.5-0.6-18.4C787.8,334.4,790.4,333.1,795.9,333.4z"/>
	<path d="M879.8,358.8c-5.5,1.5-9.7,1.9-13.8,1c-4.6-1-7.6-7.1-5.7-11.4c2.3-5.1,6.4-8.4,11.8-9.7
		c1.1-0.3,2.5,0,3.7,0.3c1.5,0.5,2.5,1.6,2.8,3.2c0.3,1.6-0.2,3.1-1.6,3.9c-1.5,0.9-3.2,1.4-4.8,2.1c-2.7,1.1-5.9,1.3-8.1,3.7
		c0.6,3,2.4,4.6,5.2,4.9c2.3,0.2,4.5,0.2,6.8,0.4C876.9,357.3,877.7,357.9,879.8,358.8z M868.5,344.1c0.2,0.4,0.3,0.8,0.5,1.2
		c1.1-0.3,2.2-0.6,3.3-1.1c0.3-0.1,0.5-0.9,0.4-1.2c-0.1-0.3-0.8-0.6-1.1-0.5C870.5,342.9,869.5,343.5,868.5,344.1z"/>
	<path d="M820.7,351.5c1.3,2.8,3.6,3,5.9,3.4c1.9,0.3,3.9,0.6,6.3,0.9c-4.1,3-8.9,3.6-12.4,1.7
		c-3.5-1.9-5.9-4.8-6.4-8.9c-0.4-3.9,1.2-6.9,4.8-8.6c2.3-1.1,4.7-1.9,7.1-2.5c2.4-0.5,4.3,1.6,4.1,4.1c-0.2,2.7-1.6,4.8-3.7,6.3
		C824.5,349.3,822.6,350.4,820.7,351.5z M818.2,346.7c4.1-0.1,6.2-1.4,7.9-3.9C822.1,342,822.1,342,818.2,346.7z"/>
	<path d="M928.4,333.5c-0.4,6.1,2.1,11.5,1.8,17.5c-2.7,0-5.2,0-7.6,0c-2.3,0-4.5,0.2-6.8-0.1c-4.9-0.6-6.9-4.4-4.5-8.7
		c1.7-3.2,4.4-5.6,7.9-6.6C922,334.8,924.9,334.3,928.4,333.5z M925.5,346.3c-0.3-1.8-0.4-3.6-0.8-5.2c-0.5-2-2.1-2.8-4-2.2
		c-2.2,0.6-4.1,1.7-5.2,3.9c-1.1,2.1-0.2,4.2,1.9,4.6C919.8,347.7,922.3,348,925.5,346.3z"/>
	<path d="M843.4,341.5c-2.3-1.2-5.7,1-6.4-3.4c6.1-1.6,12.1-3,18.3-3.6c0.5,0,1.1,0,1.4,0.3c0.5,0.5,0.8,1.2,1,1.9
		c0.1,0.3-0.4,1.1-0.8,1.2c-2.4,0.6-4.9,1-7.5,1.5c-2.1,3.5-1.2,7.1-0.4,10.8c0.6,2.7,0.2,4.4-1.1,4.4c-2-0.1-2.2-1.7-2.5-3.1
		C844.6,348.2,844.1,345,843.4,341.5z"/>
</g>
<g>
	<path d="M309.9,669.6c7.9-3.7,13.2-9.2,19.6-13.2c1.8,1.5,2,2.3,0.9,3.2c-1.4,1.1-2.9,2-4.3,3c-2.2,1.6-4.4,3.3-6.8,5
		c2.1,6,7.8,8.3,10.9,12.6c-0.3,2.5-1.7,2.5-3.2,1.4c-2.2-1.7-4.2-3.6-6.3-5.5c-1.7-1.5-3.3-3-5.2-4.7c-3.8,1.4-6.1,3.5-5.6,7.8
		c0.1,1,0.3,2,0,2.9c-0.1,0.5-1,1.2-1.6,1.2c-0.6,0-1.1-0.7-1.7-1.2c-0.2-0.1-0.2-0.5-0.2-0.7c-0.2-6.8-0.4-13.6-0.5-20.4
		c0-1.3,0.3-2.5,2.4-2.8C308.9,661.8,309.3,665.1,309.9,669.6z"/>
	<path d="M351.5,684.2c3.8,1.9,5.9,5.1,7.4,8.6c1.9,4.4,3.3,9,4.8,13.6c0.4,1.2,0.2,2.5-1.9,3c-1.2-2.3-2.4-4.7-3.6-7.2
		c-3.7-1.1-7.1,0.1-10.2,1.6c-1.4,0.7-2,2.7-3.1,4c-0.5,0.6-1.4,0.9-3.4,2.1c2.9-8.8,5.3-16.2,8.1-23.4
		C349.8,685.7,350.7,685.1,351.5,684.2z M348.8,698.6c2.7,0.5,5.3,1,7.8-1.1c-0.8-3.1-1.4-5.9-5-7
		C349.8,692.9,348.6,695.3,348.8,698.6z"/>
	<path d="M368.9,672.4c-1.9,2.6-0.5,5.2-1,7.6c-0.1,0.8-1.1,1.3-1.7,2c-0.7-0.7-1.3-1-1.3-1.3c-0.3-5-0.5-10.1-0.9-15.1
		c-0.2-3.6,1.6-5.7,4.7-7c1.2-0.5,2.3-1,3.6-1.3c3.4-0.9,6.2,0.2,7.8,3c2,3.5,1.9,7.4-0.8,9.7c-1.2,1.1-3.1,1.5-4.7,1.9
		c-0.9,0.3-2-0.1-3,0C370.6,672,369.7,672.3,368.9,672.4z M367.6,665.7c0.6,0.8,1.1,1.9,1.9,2.1c1.6,0.6,3.3,1,5,1
		c2.2,0,3.6-1.8,3.4-4c-0.4-3.2-2.2-4.8-4.9-4c-1.4,0.4-2.7,1.1-3.9,2C368.4,663.5,368.2,664.6,367.6,665.7z"/>
	<path d="M348.9,660.8c1.9,0.2,4.4-0.2,5.7,2.3c1.3,2.6,0.3,5-1.2,7.1c-3.2,4.3-7.2,7-12.9,6c-3-0.5-4.7-2.3-5.4-5.5
		c-0.7-3.5,0-5.3,2.7-7.2C341,661.1,344.8,660.8,348.9,660.8z M346,663.9c-1.2,0.3-3.1,0.7-5,1.3c-1.7,0.6-2.7,2.5-2.4,4.2
		c0.2,1.7,1.7,3.1,3.5,3.5c3.7,0.6,7.7-1.7,9-5.3c0.6-1.5-0.4-3.1-2-3.4C348.4,664.1,347.6,664.1,346,663.9z"/>
	<path d="M433.2,650.6c0.6,3.4,1.3,6.7,1.9,9.9c3.1,0.3,5.9,0.4,8.5,1c3,0.6,4.6,2.7,4.8,5.1c0.2,3-1.9,6.1-4.9,6.8
		c-3.5,0.9-7,0.4-11-0.3c-0.2-7.3-1.6-14.4-1-21.6C431.5,651.3,432.2,651.1,433.2,650.6z M440.2,664.2c-0.5,0.1-1,0.1-1.5,0.2
		c-1.5,0.3-3.2,0.9-3.2,2.6c0,1.3,0.9,2.8,1.8,3.8c0.5,0.6,1.8,0.9,2.7,0.9c2.5,0.1,4.8-1.8,4.9-3.7
		C445.1,666.1,442.8,664.3,440.2,664.2z"/>
	<path d="M404.1,666.5c-0.4,7.6-5.8,10.4-11.7,10.1c-1.1-0.1-2.4-0.7-3.3-1.5c-3.1-2.8-2.8-10.2,0.5-12.7
		c1.6-1.2,3.3-2.3,5.1-3.1c4.7-2.1,8.5,0.1,9.2,5.3C404,665.3,404,666.1,404.1,666.5z M398.1,661.9c-4.9,0.1-8.1,3.9-7.3,8
		c0.3,1.6,1.3,2.7,3,2.8c4.8,0.4,8.2-3.6,6.8-8.2C400.2,663.4,398.8,662.5,398.1,661.9z"/>
	<path d="M393.2,691.5c1.5-0.8,2.6-1.5,3.7-1.8c7.7-2.4,8.7-1.8,9.8,6.1c0.2,1.8,0.5,3.5,0.9,5.2c0.3,1.4,0.8,2.7,1.2,4
		c-1.5,1.4-2.8,1.2-3.5-0.1c-0.8-1.5-1.3-3.3-1.7-5c-0.4-1.7-0.4-3.5-0.8-5.2c-0.3-1.3-1.5-2-2.9-2c-1.6,0-3.1,1.1-3.2,2.6
		c-0.1,1.5,0,3,0.1,4.5c0,0.5,0.2,1,0.2,1.5c0.2,1.3,0.1,2.8-1.6,2.7c-0.6,0-1.7-1.2-1.7-2C393.4,698.5,393.4,695,393.2,691.5z"/>
	<path d="M383.1,691.4c-2.1,0.4-3.8,0.6-5.4,1.1c-1.9,0.6-2.7,2.1-2.5,4.1c0.2,2,0.6,4,0.7,6c0,0.8-0.7,1.6-1.2,2.8
		c-2-4.5-2.9-9.4-2.2-11.8c0.1-0.5,0.3-1,0.6-1.3c3-3.1,6.8-4.1,10.8-4.3c0.8,0,2.4,1.4,2.5,2.4c0.7,4.4,1.1,8.9,1.5,13.4
		c0,0.4-1,1.2-1.5,1.2c-0.5,0-1.3-0.8-1.4-1.3c-0.4-2-0.4-4-0.7-6C384,695.6,383.6,693.7,383.1,691.4z"/>
	<path d="M416,664.2c-2.8,2.6-2.7,5.5-2.9,8.2c-0.1,0.7-0.1,1.5-0.4,2.2c-0.1,0.4-0.9,0.9-1.1,0.8
		c-0.6-0.3-1.6-0.9-1.5-1.3c0.2-2.2,0.5-4.5,1-6.7c0.7-2.9,1.6-5.8,2.5-9c1.2-1.1,2.8-1.2,3.7,0.3c2.6,4.3,5,8.7,7.3,13.2
		c0.3,0.6-0.1,2.2-0.7,2.5c-1.4,0.9-2.2-0.3-2.8-1.5C419.8,670.2,418.9,667,416,664.2z"/>
</g>
<g>
	<path d="M38.4,662.8c3.1,1.9,2.1,4.7,2.5,6.9c0.5,2.4-0.6,5.1,1.7,7.3c2.8-0.7,4.5-3.1,6.3-5c2.3-2.4,4.1-5.1,6.5-7.3
		c1.3-1.2,2.8-0.5,3.2,2c-3.6,2.7-7,6-9.6,10.2c2.5,5.8,7.5,9.4,12.7,13.6c-1.1,1.2-1.7,1.9-2.7,2.9c-4.8-4.6-8.9-8.7-12.8-12.5
		c-3,0.9-3.8,3-3.7,5.4c0.1,2,0.6,4,0.6,6c0,0.7-1.1,1.8-1.8,1.9c-0.6,0.1-1.8-1-1.9-1.7c-0.6-5.5-1.1-11-1.4-16.6
		c-0.2-3.3-0.3-6.6-0.3-9.8C37.6,665.1,38.1,664.2,38.4,662.8z"/>
	<path d="M103.3,677.7c-2.1,0.4-4,0.7-5.9,1.3c-3,0.9-5.7,2.2-5.4,6.2c0,0.6-1,1.3-1.8,2.2c-2.2-6.6-2.7-15.5-1.3-22.6
		c0.8,0.9,1.8,1.4,1.9,2.1c0.5,2.9,0.7,5.9,1.1,9.4c2.2-0.4,3.9-0.6,5.5-1c1.7-0.4,3.3-1,4.7-1.4c2.9-4.7-1.3-9.5,0.9-14.2
		c2.5,3,2.5,3,2.9,6.6c0.3,2.5,0.7,5,1.1,7.5c0.4,2.5,0.9,5,1.5,7.4c0.6,2.4,1.4,4.8,2.2,7.2c-0.9,0.4-1.6,0.7-2.5,1.1
		C105.6,686,105.9,681.3,103.3,677.7z"/>
	<path d="M205,669.2c0.1-5,0.2-9.4,0.3-13.8c2.3-0.4,2.5,0.9,2.6,2.1c0.3,4,0.2,8.1,0.7,12.1c0.6,4.2,1.7,8.4,2.5,12.6
		c0.1,0.4-0.5,1.2-0.7,1.2c-0.7,0-1.6-0.1-1.9-0.6c-0.5-0.8-0.7-1.9-1-2.8c-0.7-2.1-1.4-4.2-2.1-6.5c-1.4,0.1-2.4,0-3.3,0.3
		c-2.4,0.8-4.7,1.8-6.7,2.6c-0.5,0.9-0.8,1.3-0.9,1.8c-0.4,1.7,1.3,4.8-1.9,4.7c-2.2,0-1.4-2.8-1.6-4.5c-0.6-6-1.2-12.1-1.6-18.1
		c-0.1-0.8,0.3-1.7,0.6-3c2.3,3.1,2.3,3.1,2.6,7.1c0.2,2.5,0,5.1,1.7,7.6C197.8,672.4,200.9,670.7,205,669.2z"/>
	<path d="M181.3,665.6c0.4,5.9,0.8,11.1,1.2,16.8c-0.9,0-1.9,0.4-2.6,0.1C177,681,174,682,171,682
		c-2.3,0-4.5,0.2-6.7-0.1c-2.5-0.4-3.7-3-2.5-5.3c0.8-1.5,1.8-3.2,3.2-4.1c2.4-1.7,5.1-3.3,7.8-4.4C175.3,667,178,666.5,181.3,665.6
		z M165.7,678.1c3.7,1,6.8,0.7,10-0.1c0.7-0.2,1.7-0.4,2-0.9c0.5-1,1-2.3,0.9-3.4c-0.1-0.8-1-2.2-1.6-2.1c-2.4,0.1-5,0.3-7.2,1
		C167.6,673.2,165.9,674.7,165.7,678.1z"/>
	<path d="M258.1,679.2c-4.5-0.1-8.4-0.2-12.4-0.3c-1,0-2,0-3-0.2c-2.8-0.6-4.2-3.4-2.7-5.8c1-1.6,2.6-3,4.1-4.3
		c0.9-0.8,2.3-1,3.4-1.7c2.5-1.5,5-3.1,7.9-5c0.3,0.9,1.2,2,1.1,3c-0.4,4.4,0.4,8.5,2,12.6C258.6,677.8,258.3,678.4,258.1,679.2z
		 M243.8,675.2c3.2,1.3,6.2,1,9.4-0.8c-0.2-1.7-0.3-3.1-0.5-4.5C246,669.4,245.1,669.9,243.8,675.2z"/>
	<path d="M70.6,684.1c-4.3-0.1-7.5-3-8.5-6.9c-0.8-3.3,0.6-6.2,3.9-8.1c4-2.3,10-1.2,12.9,2.4c0.4,0.5,0.7,1.4,0.6,2.1
		c-0.5,3.9-2.1,7.2-5.3,9.4C73.1,683.9,71.4,683.9,70.6,684.1z M71,671.5c-2.4-0.1-4.8,1.5-5,3.5c-0.3,2.5,1.6,5.2,3.9,5.5
		c2.5,0.4,5.3-2.1,5.5-4.9C75.6,673.7,73.4,671.7,71,671.5z"/>
	<path d="M226.6,665.4c-0.9,3.1,0.9,6.2,1.1,9.4c0.2,2.7,3.4,5,1.1,8.7c-3-2.2-3.4-5.3-4.2-8.1c-0.8-2.9-1.4-5.8-2.2-9
		c-2.7-0.1-5.1-0.1-8.1-0.2c0.4-1,0.5-2.1,1.1-2.4c1.5-0.9,3.1-1.8,4.8-2.1c4.4-1,8.9-1.7,13.4-2.5c0.5-0.1,1.2,0.5,2.1,1
		C233.8,664.1,229.1,662.6,226.6,665.4z"/>
	<path d="M151.4,667.1c-1.3,3.2-0.4,5.9,0,8.6c0.4,2.5,1.1,4.9,1.6,7.3c-1.5,1.8-2.8,1.1-3.4-0.5
		c-0.8-2.1-1-4.4-1.6-6.6c-0.6-2.6-0.3-5.6-1.8-8.1c-2.8-0.3-5.5-0.5-8.2-0.8c0.3-0.9,0.3-1.7,0.6-1.8c3.2-1.5,15.7-3.2,21.2-2.9
		c-0.7,1-1,1.9-1.7,2.2C156.1,665.5,153.9,666.2,151.4,667.1z"/>
	<path d="M133.2,679.4c-4.5,2.8-8.3,3.1-12,3.3c-4.6,0.3-7-3.2-5.5-7.4c1.7-4.7,4.9-8.2,10-9.4c1.9-0.5,2.8,0.4,3.6,3.2
		c-8.5,1.1-9.6,2.1-9.5,9.1C123.6,680.4,128,677.9,133.2,679.4z"/>
</g>
<g>
	<path d="M482.5,158.7c-0.1,4.7,0.5,6,3.7,6.4c2.5,0.3,5,0.2,7.5,0.3c1.9,0.1,3.8,0.1,6.9,0.2c-3.2,2.3-5.6,2.7-8.1,2.7
		c-3,0-6-0.1-9-0.3c-0.7,0-1.4-0.6-1.9-1.1c-2.5-2.1-3.9-4.7-3.3-8c1-5.4,3.9-9.9,8.1-13.2c3.3-2.6,9-1.2,11.4,2.3
		c1.5,2.2,0.7,5.3-1.9,6.3C491.6,155.9,487.3,157.2,482.5,158.7z M484.2,154.4c3.9,0.1,6.9-1.1,9.8-2.8c1.1-0.6,0.8-2.4-0.2-3.2
		c-1.3-1-2.8-1.3-4.3-0.8C486.7,148.6,484.6,150.3,484.2,154.4z"/>
	<path d="M515,153.9c-1.5,3.2-0.4,5.8,0.2,8.5c0.9,3.9,0.2,6.9-1.4,6.5c-2.8-0.8-2.2-3.6-2.5-5.7c-0.9-7-1.6-14-2.4-21
		c2.6-2.8,5.8-4.2,9-5.7c2.4-1.1,4.8-1.8,7,0.5c2.6,2.7,3.3,5.8,1.8,9c-1.6,3.3-3.8,5.9-7.7,6.8C517.6,153,516.2,153.5,515,153.9z
		 M513.9,149.3c3.5,1.1,6.2-0.4,8.8-1.8c2.2-1.2,2.5-4.1,1.2-6.6c-1-1.8-2.7-2.3-5.2-1.4c-1.4,0.5-2.7,1.2-4,2
		c-1.4,0.8-2.1,2.2-1.8,3.8C513.1,146.7,513.6,148.1,513.9,149.3z"/>
	<path d="M436.6,163.6c3.4,7,9.8,6.3,15.4,8.6c-1.1,0.7-1.9,1.7-2.5,1.6c-3.2-0.6-6.5-1.1-9.5-2.3
		c-4.6-1.8-7.4-5.5-7.6-10.4c-0.2-4.6,2.2-8.3,6.1-10.7c1.9-1.2,4.1-1.9,6.3-2.4c3.5-0.7,6.1,1,7,4.2c1.1,3.8-0.6,7.1-3.8,7.9
		C444.4,160.9,440.9,162.2,436.6,163.6z M436.1,159c4.6,0.2,8.1-0.8,11.3-2.8c0.8-0.5,1.3-2.1,1.3-3.1c0-1.4-1.8-2.6-3.3-2.3
		C441.2,151.6,437.3,153,436.1,159z"/>
	<path d="M545.8,141.6c2.7,1.9,2.5,4.7,3.2,7c0.7,2.4,1.4,4.8,2.3,7.7c-1,0.5-1.9,1.3-3,1.4c-4.5,0.6-9,1.4-13.5,1.5
		c-4.6,0.1-6.6-4-4.2-7.9c2.1-3.3,5-5.7,8.5-7.3C541.2,143.1,543.7,142.4,545.8,141.6z M544.2,155.1c-0.1-6.1-0.6-8.2-2.3-8.4
		c-3.2-0.4-5.2,1.6-7,3.7c-0.5,0.6-0.9,1.2-1.2,1.9c-1,1.8,0.1,4,2,3.9C538.4,156,541.1,155.5,544.2,155.1z"/>
	<path d="M437.6,143.4c-5.2,2.1-10.4,4.2-15.4,6.1c-2.7,7.2,1.7,13.7,0.4,20.7c-3.3-3.7-3.6-5.5-4.7-21.7
		c0.3-0.4,0.5-1,0.9-1.2c5.7-2,11.3-4,17-5.9C436.7,141.1,437.7,141.8,437.6,143.4z"/>
	<path d="M470.8,147.9c-1.7,4.3-0.5,8.1,0.5,12.1c0.5,1.7,0.8,3.6-2,4.5c-2.1-4.8-2-10.1-3.3-15.3
		c-2.4-0.4-4.8-0.8-7.2-1.2c0.2-0.8,0.2-1.5,0.4-1.6c5.6-1.3,11.3-2.6,17-3.8c0.7-0.1,1.4,0.2,2.6,0.3
		C477.6,147.3,472.6,144.5,470.8,147.9z"/>
</g>
<g>
	<path d="M809.8,67.1c1.4,1.5,3,3,4.5,4.6c-0.4,1.6-1.4,2.2-2.8,1.7c-2.6-1-4.9-2.4-6.6-4.2c0-1-0.2-1.6,0-1.9
		c3.6-5.5,3-11.4,1.5-17.3c-1.3-5.5-0.1-6.7,5.6-5.9c1.5,0.2,2.9,0.7,4.4,0.9c2.1,0.4,3.9,0.3,5.5-1.5c2.1-2.3,4.5-1.3,6.2,1.2
		c0.7,1.1,1.3,2.2,2,3.2c0.6,0.8,1.2,1.6,1.7,2.3c-0.4,2.3-1.8,2.6-3.3,1.5c-1.4-1-2.6-2.4-3.8-3.5C820,51.7,812.4,61.3,809.8,67.1z
		 M811,57.1c2.5-2.4,3.9-3.7,5.2-5.2c1.1-1.3,0.4-3-1.3-3.4c-1.7-0.4-3.4-0.9-5.1,0.9C810.1,51.4,810.4,53.5,811,57.1z"/>
	<path d="M775.4,98c2.2,2.2,3.9,3.7,5.4,5.3c0.3,0.3,0.1,1.5-0.3,2c-0.4,0.4-1.5,0.6-1.9,0.3c-1.8-1.3-3.6-2.7-5.3-4.2
		c-2.6-2.3-5.2-4.7-7.7-7.2c-1.3-1.3-2-3-1.3-4.8c1.7-4.3,4.2-8,8.7-9.9c2.2-0.9,4.5-1,6.4,0.7c2.1,1.8,2.6,4.3,1.8,6.9
		c-0.5,1.7-1.4,3.2-2.3,4.7C777.9,93.7,776.7,95.7,775.4,98z M771.4,94.2c3.4-1.6,5.3-4.2,6.1-7.4c0.2-0.8,0-2.3-0.5-2.7
		c-0.9-0.6-2.5-0.9-3.3-0.5c-2.7,1.4-4.7,3.5-5.7,6.9C769.1,91.7,770.2,92.9,771.4,94.2z"/>
	<path d="M873,0c1.5,0.1,2.9-0.2,3.7,0.4c5.5,4,10.9,8.1,16.2,12.3c1.2,0.9,1.1,2.1-0.3,3.6c-2.2-1.2-4.5-2.5-7.1-3.9
		c-3.1,1.5-6.2,2.9-9.2,4.3c-0.5,2.8-0.9,5.2-1.2,7.6c-0.4,0.2-0.8,0.5-1.3,0.7c-0.3-0.7-0.7-1.3-0.8-2c-0.1-1.2,0-2.5,0-3.8
		C873,13,873,6.8,873,0z M882,9.5c-1.1-1.7-2.2-3.2-5-2.9c-0.3,1.4-0.6,2.9-0.9,4.4C878.7,12.1,880.3,11,882,9.5z"/>
	<path d="M805.7,78.6c-2.1-0.6-4.3-1.1-6.6-1.7c-1.1,1.1-2.3,2-3.3,3.1c-2.2,2.7-3.4,5.6-1.2,9c0.7,1.1,0.4,2.6-1.1,3.1
		c-1.6,0.5-2.3-0.8-2.7-2c-1.7-5-3.3-10.1-4.8-15.2c-0.5-1.9-1.3-3.9,0.5-6.1c0.7,0.1,1.7,0.2,2.6,0.5c3.6,1.1,7.2,2.2,10.8,3.4
		c1.7,0.6,3.4,1.1,4.9,2c0.9,0.5,1.2,1.9,1.8,2.8C806.5,77.9,806.1,78.2,805.7,78.6z M791.4,78.9c1-1.2,1.6-1.8,2.2-2.5
		c-0.7-0.6-1.3-1.3-2-1.7c-0.2-0.1-1.4,0.7-1.3,1.1C790.3,76.7,790.8,77.5,791.4,78.9z"/>
	<path d="M838.1,21.8c1.3,2,2.2,2.7,2.3,3.5c0.9,6.3,2.3,12.4,4.7,18.3c0.2,0.4,0.1,1,0,1.5c-0.1,0.5-0.5,1.2-0.7,1.2
		c-0.7,0-1.8-0.1-2-0.5c-1.2-2.5-2.3-5-3.6-8.1c-3-0.6-6.1-1.2-9.3-2c-1.6-0.4-3.6-0.8-3-3.9c3.3,0.3,6.7,0.6,10.6,1
		C837.5,29.3,837.7,26.3,838.1,21.8z"/>
	<path d="M857.2,35.7c-1.5-1-2.7-1.3-3-2c-2-4.1-3.9-8.2-5.5-12.4c-0.4-1.2,0-3.2,0.8-4.1c3.1-3.5,6.6-6.7,10-9.9
		c1.5,1.2,1.2,2.5,0.5,3.5c-1.6,2.2-3.3,4.5-5.2,6.5c-2.2,2.4-2.4,4.9-1.1,7.6c1.1,2.3,2.5,4.4,3.5,6.6
		C857.5,32.4,857.2,33.7,857.2,35.7z"/>
</g>
<g>
	<path d="M489,691.4c-1.9-9.1-1.8-18.3,0.2-24.4c5.6-1,11.5-2.3,17.4-3.1c1.7-0.2,2.6,1.3,1.5,3.2
		c-3.7,0.6-7.5,1-11.1,1.8c-5.7,1.3-6,1.9-5.5,8.9c1.4,0.1,2.8,0.3,4.2,0.2c2.3-0.2,4.5-0.7,6.8-0.9c1.8-0.2,3.5-0.2,5.3-0.1
		c4.2,0.2,7.7,2.8,8,5.7c0.2,2.4-2.8,5.5-6.5,6.5c-4.2,1-8.4,1.9-12.6,2.8c-1,0.2-2,0.5-3,0.4C492.2,692.1,490.7,691.7,489,691.4z
		 M512,682.7c-1.9-1-3.2-2.1-4.5-2.2c-5.3-0.7-10.4,0.7-15.6,2c-0.6,2.2-0.8,4.1,1.5,6c1.8-0.2,4-0.3,6.1-0.8
		c3.4-0.8,6.7-1.7,10.1-2.8C510.3,684.8,510.7,684,512,682.7z"/>
	<path d="M629.1,668.7c4.2-3.6,3.5-9.4,7.6-13.1c1.1,1.4,2.2,2.4,2.7,3.6c1.1,2.8,1.8,5.8,2.9,8.6
		c1.8,4.4,3.8,8.7,5.9,13.3c-0.6,0.5-1.4,1.1-2.5,1.9c-5.3-5.2-5.2-13.1-9.4-18.6c-3.6,2.8-2.5,8.1-6.5,10.4
		c-3.8,0.2-4.5-4.6-8.1-5.2c-3.3,4-0.7,9.8-4.2,14.6c-0.7-1.6-1.8-2.7-1.6-3.6c1.4-6.2,1.7-12.5,1.7-18.8c0-0.7,1-1.7,1.7-2.1
		c0.4-0.2,1.5,0.3,1.9,0.8c0.8,0.9,1.3,2.1,2,3.2C624.7,665.8,626.3,667.8,629.1,668.7z"/>
	<path d="M523.8,691c-0.4-5.9-0.9-11.2-1-16.4c-0.1-3.3,1.1-4.3,4.4-5.1c2.9-0.7,5.9-1.4,8.9-1.9
		c1.5-0.2,3.1-0.3,3.7,2.2c-1.3,0.5-2.6,1-3.9,1.4c-2.6,0.9-5.4,1.5-7.8,2.7c-1.8,0.9-2.1,2.7-0.4,4.4c2.3,1,5.6-1.3,7.7,2.1
		c-2.4,0.9-4.8,1.7-7,2.7c-0.5,0.2-0.9,1.3-0.8,1.9c0.1,0.6,0.7,1.5,1.3,1.6c1.7,0.4,3.5,0.5,5.2,0.5c3.2,0.1,6.5,0.2,9.6,0.2
		c0.9,2-0.4,2.5-1.6,2.8C536.4,691.2,530.6,691.2,523.8,691z"/>
	<path d="M609.2,667.9c1.9,3.6,1.6,7.4,1.5,11.2c-0.1,2.9-2,4.2-5.2,3.8c-3.3-0.4-6.5-0.7-9.8,0.3
		c-0.5,0.1-1,0.2-1.5,0.2c-2.6,0-5.4,0.1-6.8-2.4c-1.4-2.6,0.6-4.8,2.1-6.8C594.7,667.7,601.3,665.8,609.2,667.9z M604.1,678
		c0.3-0.6,0.6-1.3,0.8-2c0.2-0.7,0.2-1.5,0.1-2.2c-0.2-2.4-1.6-3.9-3.9-3.4c-2.1,0.4-4.3,1.2-6.2,2.3c-1.9,1.2-3.2,3.1-3.2,5.5
		C596.9,679.9,597.5,679.9,604.1,678z"/>
	<path d="M553.5,678c-1.2,2.8,0.2,5.4,0.7,8c0.4,2.2,0.7,4.4,0.9,6.7c0,0.5-0.9,1.3-1.4,1.4c-0.5,0.1-1.6-0.5-1.7-0.9
		c-1.8-8.6-3.6-17.2-4-26c-0.1-3.2,1.6-5.1,4.4-6.4c3.2-1.5,6.3-1.6,9.2,0.6c4.7,3.8,4.8,9.1,0,12.7
		C559.2,675.9,556.3,676.7,553.5,678z M555.9,663.3c-2.4-0.1-4.1,1.6-4.2,4.2c-0.2,3.9,0.8,5.8,3,6c3.6,0.3,6.3-1.8,6.4-4.8
		C561,665.7,558.9,663.4,555.9,663.3z"/>
	<path d="M652,666.5c0.2-6.1,0.8-6.8,6.9-7.1c2-0.1,4-0.1,6,0.1c4.3,0.5,6.6,4.3,4.7,8.2c-0.9,1.9-2.4,4-4.2,5
		c-2.5,1.4-5.6,2.1-8.5,2.8c-2,0.5-3.9-1.1-4.6-3c-0.2-0.5-0.3-1-0.3-1.5C651.9,669.5,651.9,668,652,666.5z M661.3,661.5
		c-2-0.1-3.9,0.2-5,2.3c-1.4,2.6-1.4,5.9,0,7c2.1,1.7,4.2,0.7,6.4,0.1c0.7-0.2,1.4-0.6,2-1c1.8-1.2,2.7-3.4,2.2-5.1
		c-0.6-1.9-2.2-2.6-3.9-3C662.4,661.6,661.9,661.6,661.3,661.5z"/>
	<path d="M692.5,674.6c-1.6,1.8-3.2,1.8-3.9,0c-0.8-2.1-1-4.4-1.5-6.6c-0.4-1.9-0.7-3.9-1.1-5.8
		c-2.5-0.6-4.5-1.1-6.7-1.6c0.4-0.9,0.5-1.7,0.7-1.7c5.7-0.9,11.4-1.8,17.1-2.5c1.8-0.2,2.9,0.7,2.4,3.2c-2.7,0.4-5.5,0.9-8.5,1.3
		C689,665.9,691.5,670.3,692.5,674.6z"/>
	<path d="M573.5,663c4.9-1.1,9.3-2.1,13.6-3.1c1.5,1.1,1.2,2.2-0.2,2.8c-3.2,1.4-6.5,2.5-9.7,3.7
		c-1.9,5-0.1,9.7-0.2,14.4c-2.9,0.9-3.8,0.7-3.8-1.3C573.1,674.3,573.3,669,573.5,663z"/>
</g>
<path d="M91.8,357.7c1.2,0.5,2.3,0.7,2.7,1.3c1.7,2.4,1.4,5.2,0.9,7.9c0,0.3-0.8,0.8-1.1,0.8c-0.6-0.1-1.6-0.3-1.8-0.8
	C91.1,364.1,91,361.2,91.8,357.7z"/>
<path d="M41.9,358.8c3.7,3.5,3.7,6.5,3.5,9.5c0,0.5-0.9,1.3-1.4,1.3c-0.6,0.1-1.5-0.4-1.8-0.9
	C40.4,365.9,41,363.1,41.9,358.8z"/>
<path d="M52.3,357.1c2.4,1.4,2.2,3.8,2.3,5.9c0.1,1.8-1.5,3.7-2.4,3.1c-0.8-0.7-1.6-1.9-1.7-3
	C50.3,361.1,49.6,358.6,52.3,357.1z"/>
<path d="M102.6,368.9c-0.6,0-0.9,0.1-1,0c-2.3-2.5-2.2-5.3-1.1-8.2c0.2-0.5,1.2-1,1.8-0.9c0.6,0.1,1.4,0.9,1.5,1.4
	C103.9,363.8,103.8,366.5,102.6,368.9z"/>
<path d="M180.8,426.5c-0.3,1.2-0.4,2.8-1,4c-0.4,0.7-1.6,1.2-2.5,1.3c-0.6,0.1-1.6-0.4-1.9-0.9
	c-1.7-3.5-2.3-7.2-0.1-10.7c0.4-0.7,1.8-1.6,2.4-1.4c1,0.3,2.3,1.3,2.6,2.2C180.8,422.6,180.7,424.4,180.8,426.5z"/>
<path d="M80,384.9c0-0.4,0-0.9,0.2-1.4c0.7-2.3,2.3-3.7,4.1-3.6c1.5,0.1,2.2,1.2,2.4,2.4c0.4,2.3-1,4.4-3.2,5.2
	C81.8,388.2,79.9,386.9,80,384.9z"/>
<path d="M70.9,376.7c0.6,0.8,1.6,1.5,1.6,2.3c-0.1,1.4-0.5,2.9-1.2,4.1c-0.7,1.1-2.2,1.5-3.2,0.5
	c-0.6-0.5-0.9-1.8-0.8-2.6c0.2-1.2,0.7-2.4,1.4-3.4C69,377.1,70,377,70.9,376.7z"/>
<path d="M143.7,396.6c2.3-0.6,3.1-1,3.9-1.1c3.4-0.3,6.2-1.9,8.9-3.8c0.9-0.6,2.2-0.7,2.4,0.5c0.2,0.7-0.5,2.1-1.1,2.4
	c-1.7,0.9-3.6,1.7-5.6,2.2C150,397.5,147.6,398.2,143.7,396.6z"/>
<path d="M146.7,383.3c-1.5-4-1.4-8-0.6-12.5C148.9,373.9,149.1,377,146.7,383.3z"/>
<path d="M152.2,360.8c0.6-0.6,1.3-2,2.4-2.4c1.6-0.5,2.7,0.7,3.2,2.3c0.7,2,0.4,4.1-0.9,4.7c-0.6,0.3-1.5,0.4-2.1,0.2
	C153.2,365,152.3,363.6,152.2,360.8z"/>
<path d="M138.6,361.2c2.4,0.3,3.6,2.1,3.3,4c-0.2,1.2-1.6,2.2-2.8,1.8c-1.8-0.5-2.5-1.9-2.2-3.4
	C137.1,362.6,138.2,361.8,138.6,361.2z"/>
<path d="M363.3,500.1c-7.9,0.2-15.4,3-23.3,2.1c-1.2-0.1-2.5-0.2-3.7-0.7c-1.2-0.5-2-1.8-1.5-3.1
	c0.7-1.9,1.8-3.6,2.8-5.3c1.3-2.2,2.6-4.3,4-6.4c3.6-5.4,5.8-11.2,6-17.7c0-0.6,0.7-1.1,1.2-1.8c1.6,5.8,1.7,11.1-0.8,16.1
	c-2.5,4.9-5.8,9.3-8.8,13.9c4.7,2.2,11.1,1.7,19.5-1.6c1.6-3.8-1.4-7.1-1.9-10.9c0.8-0.2,1.7-0.7,1.9-0.5
	C363.1,488.5,365.7,493.4,363.3,500.1z"/>
<path d="M368.7,468c2.4,0,4.3,1.4,4.7,3.4c0.3,1.6-0.6,3.4-2.4,4.3c-0.9,0.4-1.9,0.7-2.9,0.8c-2.3,0.1-4.4-1.7-4.9-3.9
	c-0.4-1.7,1.2-3.6,3.5-4.2C367.5,468.1,368.2,468,368.7,468z"/>
<path d="M335.5,471.4c0,2.7-2,4.9-4.6,5c-2.6,0.1-4.6-1.5-4.8-3.8c-0.2-2.6,2.5-5.2,5.4-5
	C333.4,467.7,335.5,469.7,335.5,471.4z"/>
<path d="M353.7,512.6c0.2,0.5,0.9,1.3,0.9,2.1c0,1.4-1.9,2.9-3.1,2.4c-0.7-0.3-1.3-1.4-1.3-2.2
	C350.1,513.4,351.7,512.3,353.7,512.6z"/>
<path d="M336.2,512.1c0.4-0.7,0.6-1.4,1.1-2c0.8-1,1.9-1.7,3.1-0.8c1.1,0.8,1.4,2,0.5,3.2c-0.7,1-1.7,1.8-3.1,1
	C337.3,513.2,336.8,512.6,336.2,512.1z"/>
<path d="M365.7,508.6c0.9,1.2,1.9,1.8,1.9,2.5c0,1.4-1.1,2.3-2.4,2.1c-0.7-0.1-2-1.4-1.9-1.6
	C363.8,510.7,364.7,509.9,365.7,508.6z"/>
<path d="M329,515.2c0.8,1.4,1.6,2.1,1.5,2.9c-0.1,1.4-1.2,2.3-2.6,1.9c-0.7-0.2-1.7-1.5-1.6-1.9
	C326.8,517.2,327.8,516.5,329,515.2z"/>
<path d="M357.7,522.2c1.7-1,2.5-1.9,3.5-2c0.4-0.1,1.6,1.4,1.5,2c-0.1,0.7-1.2,1.6-2,1.7
	C360.1,524,359.3,523.1,357.7,522.2z"/>
<path d="M320,510c1.3-0.8,2.1-1.7,2.9-1.7c0.7,0.1,1.3,1.1,1.9,1.7c-0.7,0.6-1.3,1.7-2.1,1.8
	C322,511.9,321.3,510.9,320,510z"/>
<path d="M381,507.3c0.6,1.2,1.2,1.9,1.3,2.6c0,0.4-0.9,0.9-1.4,1.4c-0.5-0.7-1.3-1.3-1.5-2
	C379.2,509,380.1,508.3,381,507.3z"/>
<path d="M343.5,521.6c-1.5,1.1-2.2,1.9-2.9,2c-0.7,0-1.5-0.8-2.3-1.2c0.6-0.6,1.1-1.7,1.8-1.8
	C340.8,520.3,341.7,521,343.5,521.6z"/>
<path d="M371.3,518.5c0.9-0.7,1.4-1.4,2-1.4c1.3-0.1,1.6,0.9,1.3,1.9c-0.1,0.5-1.1,1.4-1.2,1.3
	C372.7,519.9,372.1,519.2,371.3,518.5z"/>
<path d="M708.6,235.8c-4.9,3.2-10.4,4.6-25.7,6.3c-4.9,0.5-10,1.4-15-0.9c2.6-2.2,5.3-0.7,7.7-1
	c2.8-0.3,5.6-0.2,8.3-0.5c2.8-0.3,5.5-0.8,8.2-1.3c2.7-0.5,5.4-1.1,8.2-1.5C702.9,236.6,705.4,234.9,708.6,235.8z"/>
<path d="M696,229.1c-1.1,2.8-3.3,2.7-5.1,3.1c-6.9,1.3-9.6,1.3-13.8-0.2c0.3-0.3,0.5-0.9,0.8-0.9
	C683.8,230.4,689.7,229.8,696,229.1z"/>
<path d="M690.8,220.7c-4.9,2.8-9.6,3.2-18.1,1.8c0.3-0.4,0.6-1,0.9-1c4.4-0.5,8.9-0.9,13.3-1.2
	C688,220.2,689.1,220.5,690.8,220.7z"/>
<path d="M614.5,97.1c-5.6,1.2-11.2,2.3-16.6,3.8c-5.2,1.4-10.4,3.3-15.6,5c-0.7-2.1,0.7-2.4,1.7-2.9
	c6.6-3.3,13.8-4.6,20.9-6c2.7-0.5,5.4-0.9,8.1-1.3c0.4-0.1,0.9,0.2,1.4,0.4C614.4,96.4,614.5,96.8,614.5,97.1z"/>
<path d="M615.3,136c3.9-5.9,17.1-13.9,26.5-17c0.1,0.2,0.4,0.3,0.4,0.5c0,0.2-0.1,0.5-0.3,0.7c-2.6,1.6-5.1,3.2-7.7,4.7
	C627.9,128.6,621.6,132.3,615.3,136z"/>
<path d="M623.5,119.7c-1.3,1.4-2.5,3.1-4.1,4.2c-3.3,2.2-6.9,4-10.3,6.2c-3.3,2.2-6.5,4.6-9.7,6.8
	c-1.6-1-0.8-1.9-0.1-2.5c1.7-1.5,3.4-3.1,5.3-4.2C610.7,126.4,616.4,121.9,623.5,119.7L623.5,119.7z"/>
<path d="M590,110.5c7.4-4,17.6-6.7,25.9-7.1c-2.6,2.3-5.3,2.3-7.7,3c-2.9,0.8-5.8,1.8-8.7,2.6
	C596.9,109.8,594.4,111,590,110.5z"/>
<path d="M668.3,90.8c6.2-1.4,16.3-0.4,21.7,1.8c-0.1,0.2-0.1,0.4-0.2,0.6c-0.2,0.2-0.4,0.3-0.6,0.3
	C682.5,92.6,675.8,91.7,668.3,90.8z"/>
<path d="M623.6,119.8c4.2-4.8,10.1-6.8,15.4-9.7c1.4,1.1,0.8,1.9-0.1,2.4c-3.5,1.9-7,3.8-10.5,5.6
	C626.8,118.9,625.1,119.2,623.6,119.8C623.5,119.7,623.6,119.8,623.6,119.8z"/>
<path d="M685.1,97.8c-4.1,1.5-8.2,0.5-12.3,0.2C676.9,96,681,96.9,685.1,97.8z"/>
<path d="M679.5,137.7c-0.6-2.1-0.1-3.8,1.7-3.8c5.5,0,11,0.3,17,0.5c-0.5,1.1-0.7,2-1.2,2.7c-0.4,0.5-1.3,0.8-2,0.9
	C689.7,138.6,684.5,138.5,679.5,137.7z"/>
<path d="M848.4,257.7c-3.2,12.6-9.3,24.1-6.7,37.3c-0.6-0.9-1.6-1.7-1.7-2.7c-0.4-2.7-0.9-5.6-0.4-8.2
	c1.5-8.7,3.4-17.3,7.2-25.3C846.9,258.5,847.4,258.4,848.4,257.7z"/>
<path d="M984.1,248.3c-0.7-0.5-1.5-0.8-1.7-1.4c-3.1-8.3-6.2-16.5-9.3-24.8c-0.1-0.3,0.4-0.9,0.8-1.7
	c0.8,0.7,1.6,1.3,2,2C979,228,983.5,242.4,984.1,248.3z"/>
<path d="M854.6,271.6c0.3,3-1,5.9-1.1,8.8c-0.1,3,0,6,0,9.3c-0.3-0.1-1.4-0.1-1.5-0.3c-1.5-5.5-1.6-10.9,0.5-16.3
	c0.2-0.4,0.5-0.8,0.9-1.2C853.5,271.7,853.9,271.7,854.6,271.6z"/>
<path d="M864.6,290.3c-3.6-2.1-4.1-5.3-4.1-8.5c0-2.1-0.4-4.4,2-6.4c1.6,2.7,0.5,5.3,0.9,7.6
	C863.8,285.4,864.2,287.9,864.6,290.3z"/>
<path d="M969.1,231c3.4,4.7,4.4,9.6,5.7,15.3c-2.9-1.1-3.2-3.2-3.9-4.8C968.6,235.7,968.6,235.7,969.1,231z"/>
<path d="M962.7,243.1c2.4,1.1,2.4,1.1,3.1,8.4C963.3,249.8,963.2,249.4,962.7,243.1z"/>
<path d="M871.6,163c5.8-1.2,11.4-3.3,17.4-4.2c0,1,0.2,1.7,0,1.9c-4.3,3.3-9.2,5.1-14.6,5.8
	C872.5,166.7,871.9,165.9,871.6,163z"/>
<path d="M511.4,549.8c8.2-10,19.3-15.5,31.8-19.5c0.2-7.6,0.3-14.9,0.5-22.6c-1.2-1.8-3.8-1-5.9-1.5
	c-5.6-1.2-7.4-2.7-9.5-8.3c1.8-4.3,5.2-6.4,9.5-7.8c6.3-2,12.5-1.6,18.8-0.7c2.2,0.3,4.3,1.4,6.2,2.6c2.7,1.6,3.2,4.6,1.6,7.3
	c-1.8,2.9-4.2,5-7.3,6.4c-2.7,1.2-5.5,2.4-8.5,3.7c-1.1,6.6-1.2,13.1-0.4,19.7c0.9,7,3.9,9.1,10.8,8.4c6.1-0.7,12.1-0.8,18.1,0.6
	c5.1,1.2,10.3,2.5,15.3,3.7c0.2,2.1-1.3,2.3-2.3,2.3c-2.5,0.1-5.1,0.2-7.5-0.4c-7.7-1.9-15.4-2.5-23.3-1.5
	c-6.1,0.8-11.6-0.8-15.2-6.9c-5.2,0.2-9.7,2.7-14.1,4.9c-4.9,2.5-9.4,5.9-14.1,8.9c-1.2,0.8-2.4,1.5-3.6,2.2
	C512,550.8,511.7,550.3,511.4,549.8z"/>
<path d="M556.7,457.5c1.5-1.1,2.6-2,3.8-2.9c6.3-4.6,12.7-9.1,19-13.7c3.2-2.4,6.4-4.8,8.9-8.1c2.1-2.8,4.9-3.2,7.7-1.3
	c-0.9,5.3-1.9,10.4-2.6,15.6c-0.4,2.7-0.3,5.5-0.2,8.3c0.3,5.7-0.9,11-3.2,16.2c-0.5,1.1-1.1,2.3-2,3.1c-4.5,4.4-14.7,5.5-19.7,1.7
	C562.3,471.7,558.1,465.5,556.7,457.5z M579.3,446.4c1.2,4.3,4.9,8,4.2,12.7c-0.7,4.4-2.3,8.6-3.5,12.9c3.6,0.8,4,0.7,5.2-0.9
	c3-3.7,4-8,4.2-12.7c0.2-6.3,0.7-12.6,1-18.9c0-0.6-0.3-1.3-0.7-2.6C586,440.3,581.9,442.4,579.3,446.4z M573.8,455.6
	c-2.7,1.2-5.2,1.8-5.9,4.6c-0.2,0.8,0.1,2.2,0.7,2.6c1.7,1.3,3.7,1.4,5.6,0.5c1.7-0.9,2.5-2.6,2.1-4.3
	C576,457.8,574.7,456.8,573.8,455.6z"/>
<path d="M518.7,479.6c-2.1,1.1-4.3,1.1-6.4-0.2c-1.8-1.2-2.5-3.1-2.9-5.1c-0.3-1.7-0.7-3.5-0.8-5.2
	c-0.6-9.6-1.2-19.1-1.6-28.7c-0.2-4-0.5-8,0.7-11.7c1.7-1,2.7-0.4,3.4,0.8c5.2,9.9,14.5,15.1,23.2,21.1c1.4,0.9,3.3,1.2,5,1.5
	c2.7,0.5,5.4,0.8,8.4,2.5c-0.8,0.9-1.3,1.8-2,2.2c-1.8,1-3.6,1.8-5.5,2.6C531.7,463.1,523.9,470,518.7,479.6z M510.6,438.8
	c-0.1,1.7-0.4,3.4-0.2,5c0.6,7,1.3,14,2.2,21.1c0.4,3,1,5.9,1.7,8.9c0.1,0.5,1.1,0.8,2,1.3c1-1.3,1.8-2.5,2.9-3.9
	c-4.8-8.4-2.2-15.4,4.8-21.6c-4-3.7-7.7-7.1-11.5-10.4C512.1,438.9,511.5,439,510.6,438.8z M526,463.9c3.2-1.3,6-3,8.3-6.3
	c-1.3-0.9-2.3-2.2-3.2-2.2c-1.7,0-3.5,0.4-4.9,1.2C524,457.9,524.1,460.6,526,463.9z"/>
<path d="M523.6,523.1c0.2-2.7,2.8-4.7,5-4c0.9,0.3,2,1.6,2.2,2.6c0.4,2.3-2.2,4.4-4.4,3.7
	C525.2,525.1,524.3,523.7,523.6,523.1z"/>
<path d="M574.6,512.3c0.3-2.8,2.2-4.5,4.2-4.2c1.5,0.2,2.8,1.9,2.5,3.3c-0.3,1.8-2.7,3.6-4.6,3
	C575.8,514.1,575.1,512.8,574.6,512.3z"/>
<path d="M515,514.4c0.4-2.7,2.1-4.1,4.2-4c1.3,0.1,2.5,1.4,2.3,2.5c-0.3,1.9-2.3,3.7-4.2,3.4
	C516.4,516.1,515.6,514.9,515,514.4z"/>
<path d="M578.5,523.2c0.4,0.5,1.5,1.3,1.7,2.3c0.3,1.8-1.3,3.3-3.1,3.3c-1.5,0-2.9-1.3-2.9-2.8
	C574.2,524.4,575.7,523.2,578.5,523.2z"/>
<path d="M511.4,526.9c0.1-1.5,1.4-2.5,3.1-2.3c1.7,0.2,2.8,1.4,2.7,2.9c-0.1,1.4-1.6,2.6-3.1,2.4
	C512.5,529.7,511.3,528.4,511.4,526.9z"/>
<path d="M559.7,520.5c-0.1-1.5,1.1-2.7,2.9-2.8c2.2-0.1,3.7,1.2,3.5,2.9c-0.1,1.4-1.6,2.5-3.3,2.5
	C561.1,523,559.8,521.9,559.7,520.5z"/>
<path d="M798.2,556c-1.3,1.5-2.5,3.1-4,4.4c-8.6,7.2-16.7,14.7-22.7,24.3c-0.4,0.7-1.3,1.2-2.7,1.3
	c0.4-1.1,0.5-2.4,1.2-3.2c3-3.7,5.9-7.6,9.2-11c4.6-4.7,9.6-8.9,14.5-13.3c1.3-1.2,2.6-2.5,4.6-2.2C798.4,556.2,798.2,556,798.2,556
	z"/>
<path d="M818,555.9c-1.4,1.3-2.8,2.8-4.4,3.9c-8.6,6.1-17.2,12.1-23.7,20.7c-1.8-1-0.9-2.2-0.3-3
	c0.8-1.3,1.7-2.5,2.8-3.5c7-6.9,14.8-12.8,23.5-17.4c0.6-0.3,1.4-0.3,2.2-0.5L818,555.9z"/>
<path d="M912.5,560.6c1.3,2.8,2.2,4.1,2.4,5.4c1.6,9.3-0.1,18.4-3.2,27.3c0.4-5.1,0.9-10.2,1-15.3
	C912.9,572.7,912.7,567.5,912.5,560.6z"/>
<path d="M904.5,590.3c-0.7-7.9-0.9-14.2-0.2-20.6c0.8,0.4,1.5,0.5,1.6,0.8C907,574.1,906.5,582,904.5,590.3z"/>
<path d="M895.5,587.8c0.3-3.9,0.6-7.8,0.9-13c0.9,1.5,1.7,2.2,1.7,2.8c0,2.7-0.1,5.5-0.3,8.2c-0.1,0.8-0.7,1.6-1,2.5
	C896.3,588.1,895.9,587.9,895.5,587.8z"/>
<path d="M815.7,545c-0.1,0.2-0.1,0.6-0.3,0.7c-5.4,4-10.9,7.8-17.2,10.3c0,0,0.1,0.1,0.1,0.1c0.1-0.2,0.1-0.6,0.2-0.7
	c5-4.7,10.6-8.4,17.2-10.3L815.7,545z"/>
<path d="M818.1,556c0.8-0.6,1.5-1.2,2.9-2.3c-0.7,2.4-1.8,2.4-3,2.2C818,555.9,818.1,556,818.1,556z"/>
<path d="M815.8,545.2c0.3-0.3,0.5-0.6,0.9-0.9c0.1,0,0.3,0.1,0.5,0.2c-0.5,0.2-1,0.4-1.4,0.5L815.8,545.2z"/>
<path d="M824,541.3c0.2-0.3,0.4-0.7,0.6-1c-0.2,0.3-0.5,0.6-0.7,0.8L824,541.3z"/>
<path d="M823.9,541.2c-0.4,0.2-0.8,0.5-1.2,0.8c0.4-0.2,0.9-0.4,1.3-0.6C824,541.3,823.9,541.2,823.9,541.2z"/>
</svg>
