<?xml version="1.0" encoding="utf-8"?>
<!DOCTYPE svg PUBLIC "-//W3C//DTD SVG 1.1//EN" "http://www.w3.org/Graphics/SVG/1.1/DTD/svg11.dtd">
<svg version="1.1" id="MessageOnTheStone" xmlns="http://www.w3.org/2000/svg" xmlns:xlink="http://www.w3.org/1999/xlink" x="0px" y="0px"
	 width="1000px" height="540px" viewBox="0 0 1000 540" style="enable-background:new 0 0 1000 540;" xml:space="preserve">
<g>
	<path d="M32.7,396.1c1.3,2.7,3.4,3.3,5.1,4.4c5.5,3.7,5.1,9.9-0.8,12.9c-2,1-4.3,1.7-6.5,1.9
		c-4.5,0.6-9.1,0.9-13.6,1.2c-1.4,0.1-2.7,0.1-4.1,0c-5.3-0.4-5.9-1-6.4-6.6c-0.5-5.9-1.1-11.7-1.7-17.6c-0.4-4.4,1.3-6.6,5.8-7.5
		c2.7-0.5,5.4-0.9,8.1-1.5c4.9-1.1,9,0.5,12.8,3.3c2.9,2.1,3.3,3.3,2.2,7C33.4,394.4,33,395.2,32.7,396.1z M20,413.4
		c1.7,0,3.8,0.2,5.7-0.2c3.1-0.6,6.3-1.2,9.1-2.4c3.6-1.5,4-5.4,0.7-7.4c-4.3-2.7-9.3-3.6-14.3-3.4c-2.7,0.1-5.3,1.1-7.9,1.8
		c-1.8,0.5-2.5,1.7-2.6,3.5c-0.5,7.7,0.5,8.7,8.2,8.2C19.1,413.4,19.4,413.4,20,413.4z M10.2,398.3c5.7,0,13.3-1.6,16.9-3.4
		c0.6-0.3,1.2-0.7,1.7-1.1c2-1.5,2-3.6-0.1-5c-4.2-2.9-8.7-3.6-13.7-2.2c-6.7,1.8-7.7,3.4-5.8,10.2C9.4,397.2,9.7,397.6,10.2,398.3z
		"/>
	<path d="M608.5,462.8c-0.2-7.1,0-13.2,0.6-19.2c0.1-1.1,0.7-2.1,1.3-3.1c0.1-0.3,0.7-0.3,1.6-0.5
		c1.8,5.6-0.9,11.8,2,17.1c2.2,1.6,4.5,1,7.2,0.5c0.5-3.4,1-6.8,1.6-10.7c1,0.5,2,0.8,2,1.1c0.2,2,0.1,4.1,0.2,6.1
		c0.2,2.9,1.5,4.1,4.4,4.1c1.1,0,2.3-0.1,3.4-0.3c0.9-0.2,1.7-0.6,2.7-1c0.1-1.6,0.1-3.2,0.2-4.7c0.1-3.6,0.1-7.3,0.4-10.9
		c0.1-1,0.8-2.1,1.4-3c0.3-0.4,1.3-0.6,1.8-0.5c0.5,0.1,1.3,0.8,1.3,1.3c0,1.6-0.3,3.1-0.6,4.7c-0.4,2-1,4-1.2,6
		c-0.2,3.1,0.3,5.9,3.7,7.4c1.6,0.7,2.2,2.2,2.2,4c0,1.6,0.1,3.2-0.1,4.8c-0.1,0.7-0.8,1.8-1.4,2c-0.5,0.2-1.6-0.6-2-1.2
		c-0.7-1.3-1.2-2.9-1.6-4c-5.4-0.1-10.4-0.3-15.4-0.3C619.2,462.3,614.2,462.6,608.5,462.8z"/>
	<path d="M187.4,447.2c2.1,0.8,3.3,1.3,4.6,1.7c3.7,1.1,6.2,3.8,8.4,6.7c1.1,1.4,1,3.2-0.3,4.3
		c-1.5,1.3-3.2,2.7-5.1,3.2c-6.8,1.9-13.7,3.4-20.6,4.9c-1.9,0.4-4.1-1-4.9-3c-0.5-1.3-0.6-2.6-0.9-4c-1-4.9-1.9-9.8-2.9-14.7
		c-0.9-4.4-0.3-5.6,4.1-7c2.2-0.7,4.4-1.1,6.7-1.6c0.4-0.1,0.9-0.1,1.4-0.1c2.9-0.2,5.4,0.6,7.7,2.3
		C187.8,441.8,187.9,444.3,187.4,447.2z M172.4,455.3c0.1,1.5,0.1,2.8,0.3,4.2c0.1,0.7,0.2,1.4,0.4,2c0.6,2.2,1.8,3.3,3.9,2.9
		c6.1-1,12.2-1.9,18-4.1c1-0.4,1.7-1.3,2.4-2c-2.5-6.1-6.8-8-12.8-6.8c-1.8,0.4-3.6,0.5-5.4,0.7
		C176.8,452.5,174.7,453.2,172.4,455.3z M171.5,450.9c4.1,0.3,7.3-1.9,10.6-3.8c0.8-0.5,1.6-1.7,1.7-2.7c0.2-1.5-1-2.5-2.3-3
		c-4.3-1.4-8.4-0.7-12,1.6C168.6,446.2,169.4,448.6,171.5,450.9z"/>
	<path d="M129.5,392.3c2.2,0.7,3.9,1.3,5.6,1.9c1.3,0.5,2.6,1,3.8,1.6c2.5,1.1,4.1,2.9,4.2,5.7c0.1,2.9-1.9,4.7-4.3,5.6
		c-3.4,1.3-7,2.4-10.5,2.8c-5.2,0.5-10.5,0.4-15.7,0.5c-3.2-5.2-4.5-18-2.3-25.4c3-1,6.2-2,9.5-3c2.4-0.8,4.6-0.1,6.6,1
		c2.6,1.5,4.1,3.6,3.2,6.8C129.3,390.4,129.5,391.1,129.5,392.3z M113.4,400.3c0.4,1.9,0.7,3.3,1.1,4.6c0.5,1.4,1.4,2.3,2.9,2.5
		c6,0.6,11.9,0.8,17.5-1.7c1.2-0.6,2.4-1.3,3.5-2.1c1.3-1,1.2-3.1,0-4.2c-2.1-1.9-4.7-2.7-7.5-3
		C124.8,395.6,119.3,397.3,113.4,400.3z M111.9,392.5c0-0.1,0.1,1.1,0.5,2.1c0.2,0.5,0.9,1.1,1.5,1.3c3.2,0.7,10.3-2.8,11.7-5.7
		c0.9-1.9-0.1-4.2-2.3-4.8c-2.8-0.9-5.4-0.1-8,0.8C112.7,387,111.6,388.7,111.9,392.5z"/>
	<path d="M831.6,446.6c2.5,4.8,8.1,5.3,11.3,8.7c0.1,2.2-1.5,2.3-2.8,1.8c-2.7-1.1-5.3-2.6-7.9-3.9
		c-1.2-0.6-2.4-1.1-4.1-1.9c-0.2,1.5-0.6,2.6-0.5,3.5c0.3,2,1,3.9,1.5,5.8c-0.9,2.1-2.4,2.8-4.4,2.7c-3.1-1.9-0.8-5.6-2.6-8
		c-3.8,0.5-3.5,5.8-7.5,6.4c-0.7-3.2,1.3-5.1,2-7.4c0.7-2.2,1.4-4.3,1.9-6c-0.9-3.6-6-3.4-5.6-7.9c3.3,0.4,5.1,4.5,9.1,3
		c0.1-2.1,0.2-4.3,0.3-6.5c0.1-1.1,0.3-2.2,0.6-3.3c0.1-0.3,0.7-0.8,1-0.7c0.6,0.1,1.5,0.4,1.6,0.8c0.4,1.3,0.5,2.6,0.7,4
		c0.3,2.4-0.4,4.9,1,7.7c5.5-2.3,8.2-7.2,11.9-10.8c1.7,0.5,1.3,1.5,0.7,2.1c-2,2.4-4.2,4.8-6.3,7.2
		C832.8,444.6,832.2,445.6,831.6,446.6z"/>
	<path d="M938.2,434.1c1.2,1.1,2.5,1.9,3,3c3.4,7.9,6.6,15.9,9.9,23.8c-2.3,1.4-2.8,1.4-3.5-0.3
		c-2.4-5.4-4.8-10.8-7.3-16.2c-0.5-1-1.1-1.9-1.5-2.7c-2.6-0.4-3.7,1.1-4.7,2.6c-1.8,2.6-3.3,5.4-5.2,8c-1.9,2.8-3.9,2.5-5.5-0.7
		c-1-2-2-4-3.4-6.6c-1.1,1.3-2,2-2.4,2.9c-1.9,3.6-3.7,7.3-4.2,11.4c-0.3,2.6-0.5,2.6-4.1,3.5c-0.1-0.6-0.4-1.3-0.2-1.9
		c2.5-7.1,5.1-14.1,7.7-21.1c0.3-0.8,0.8-1.6,1.3-2.3c0.6-0.9,2.4-0.9,2.9,0.1c0.5,1.2,0.9,2.6,1.4,3.8c1.2,3.1,1.4,3.4,4.6,6.8
		C932.7,445.2,932.4,437.7,938.2,434.1z"/>
	<path d="M401.5,408.8c-0.4-2.5-0.8-4.4-1-6.4c-0.4-3.4-0.7-6.8-1-10.2c-0.1-1.6,0-3.1,0.2-4.7c0.1-1.8,1.3-3,2.9-3.4
		c3.6-0.8,7.1-1.5,10.8-1.8c1.5-0.1,3.2,0.5,4.6,1.2c3.9,2,4.4,4.3,2.1,8.2c-0.3,0.6-0.6,1.2-1.2,2.2c1,0.8,1.9,1.7,3,2.4
		c1.5,1,3.2,1.8,4.7,2.8c1.1,0.7,1.4,2.7,0.6,3.7c-1.2,1.3-2.5,2.8-4,3.6c-2,1-4.3,1.7-6.5,2.1c-3.8,0.6-7.7,0.8-11.6,1.1
		C404.1,409.5,403.2,409.1,401.5,408.8z M405.6,406.5c5.3,0,10.5,0.5,15.2-2c1-0.6,1.7-1.7,2.6-2.6c-2.6-3.9-6.5-3.7-10-4.4
		c-3.1-0.6-6.3-0.6-9.2,1.6C404,401.6,404.5,403.9,405.6,406.5z M404,394.5c5.2,0.8,9.1-1.1,12.6-4.1c1.6-1.3,1.3-3.3-0.6-4.4
		c-3.3-1.9-6.5-1.1-9.8-0.1c-1.9,0.6-3,1.9-2.9,4C403.5,391.4,403.8,392.9,404,394.5z"/>
	<path d="M731.5,434.9c-1,1.3-1.3,2.3-1.9,2.5c-1,0.3-2.2,0.2-3.4,0.2c-4.6-0.2-9,0.9-13.3,2.7c-1.9,3-1.5,6-0.6,9.5
		c3.7,0.4,7.3,0.4,10.8-0.3c4.2-0.7,7.7,0.8,11,2.8c3.5,2.1,3.8,5.5,1.2,8.7c-1.7,2-3.8,3.3-6.3,3.7c-1.8,0.3-3.6,0.4-5.4,0.5
		c-3.6,0.2-7.3,0.3-10.9,0.6c-3.6,0.2-5.2-1.1-5.3-4.5c-0.1-6.3-0.2-12.7-0.2-19c0-2.3,1.1-4,3.4-4.5
		C717,436.3,723.4,434.4,731.5,434.9z M712,461.8c5.5,2,12.2,2.2,16.6,0.4c1.2-0.5,2.4-1.3,3.4-2.2c1.5-1.3,1.5-3.6-0.2-4.7
		c-1.7-1.1-3.6-2.2-5.5-2.5c-2.7-0.4-5.5-0.4-8.2,0C711.6,453.6,710.9,454.7,712,461.8z"/>
	<path d="M261.5,451.5c-6.5,4.9-11.4,9.8-14.7,16.2c-1.1,2.2-2.2,4.5-4.6,6c-3-1.6-3.1-4.3-3.2-7
		c-0.3-4.5-0.4-9.1-0.6-13.6c0-0.5-0.1-0.9-0.1-1.4c-0.1-2.1,1.1-3.4,3.2-4.1c2.5,2.7,0.8,6.7,3,9.8c0.9-0.2,2-0.3,2.9-0.8
		c5.1-3,10.7-5.3,14.5-10.2c0.4-0.5,1.7-0.5,2.4-0.3c0.5,0.1,1,1,1,1.6c0.1,5.7,1,11.3,2.7,16.8c0.4,1.4-0.1,2.8-2.4,2.7
		c-1.7-2-1.6-4.8-2.1-7.4C262.8,457.4,262.3,455,261.5,451.5z"/>
	<path d="M767.9,395.1c2.4,3.9,6,6.8,8.9,10.8c-0.6,0.7-1.2,1.4-2,2.5c-3.9-3.4-5.8-8-9.9-10.9c-4.6,2.4-8,6.1-11.7,9.4
		c-1,0.9-2.1,1.8-3.2,2.4c-0.4,0.2-1.2-0.2-2.3-0.4c3.2-6.2,9.3-9.6,12.9-15.7c-1-1-1.9-2.2-3.1-3.1c-2.6-2.2-5.6-4-7.2-7.1
		c-0.3-0.5-0.4-1.2-0.7-2.3c3.6,0.5,5.3,3,7.5,4.7c2.1,1.7,4.3,3.3,6.6,5.1c1.5-1.1,2.8-1.8,3.9-2.9c2-1.8,3.8-3.9,5.8-5.8
		c2-1.8,4.5-1.8,6.7,0.1c0.4,0.4,0.6,2,0.2,2.3c-1.8,1.7-3.9,3.1-5.8,4.7C772.4,390.8,769.7,392.2,767.9,395.1z"/>
	<path d="M5.9,530.1c-0.2-4.2-0.3-8-0.6-11.8c-0.2-3.4-0.6-6.8-1-10.2c-0.4-3.5,0.1-4.9,3.2-5.8
		c6.1-1.8,12.2-3.7,18.5-4.2c1.3,1.8,0.6,2.7-1.1,3c-2.2,0.4-4.5,0.6-6.8,1.1c-2.4,0.5-4.9,1.2-7.2,2c-1.6,0.5-2.7,1.8-2.6,3.6
		c0,2.2-0.4,4.5,0.7,6.6c1.8,1.5,3.6,0.3,5.3,0.1c4.1-0.7,8.1-1.5,12.2-0.1c2.4,0.8,5.2,1.5,5.8,4.2c0.6,2.9-1.2,5.3-3.6,6.9
		c-2.1,1.4-4.3,2.5-6.6,3.5c-1.2,0.5-2.7,0.5-4,0.6C14.1,529.8,10,530,5.9,530.1z M10.5,526.1c7.8,1.2,11.6,0.9,15.1-1.3
		c1.8-1.1,3.3-2.4,3.3-4.9c-0.4-0.5-0.7-1.2-1.2-1.5c-4.2-2.6-12.8-2.2-16.7,0.7c-1.2,0.9-1.8,2.1-1.5,3.5
		C9.8,523.8,10.1,524.8,10.5,526.1z"/>
	<path d="M915.8,393.7c0.7-3.5-0.7-6.6-1.7-9.8c-0.4-1.4-0.2-2.8,2.4-2.8c1.6,4.5,3.3,9.1,4.9,13.8
		c0.2,0.7-0.3,1.8-0.8,2.5c-1.4,1.7-3.2,2.1-5.5,2.1c-8.7,0-17.4,0.1-25.8,2.4c-2.8,0.7-4-0.2-5.3-2.9c-1.2-2.5-1.7-5.2-1.6-7.9
		c0.1-2.7,0.3-5.4,0.5-8.5c1.1-0.1,2.1-0.2,3.5-0.4c0.1,5-0.6,9.8,1.5,14.6c3,1.5,6,0.4,9.5-0.7c0.4-3,0.8-6,1.3-9.7
		c1.1,0.7,2.1,1,2.2,1.5c0.4,1.8,0.3,3.6,0.5,5.4c0.2,1.5,1,2.5,2.6,2.7C907,396.4,911.9,395.5,915.8,393.7z"/>
	<path d="M337,470.6c-1.8-3.6,0-8-2.1-11.7c-3.2-0.3-5.3,1.6-7.3,3.4c-2.2,2-4.1,4.2-6.2,6.2c-0.3,0.3-1.2,0-1.8-0.3
		c-0.2-0.1-0.3-0.9-0.2-1.2c0.4-0.8,0.9-1.6,1.4-2.3c1.3-1.9,2.6-3.7,3.8-5.6c0.4-0.7,0.5-1.6,0.9-2.7c-2.3-0.9-4.5-1.6-6.5-2.6
		c-2.8-1.4-3.4-3.8-1.4-6.1c1-1.2,2.1-2.5,3.5-3.1c5.4-2.4,11.1-4.1,17.2-3.5c3.4,0.3,4.1,1.5,3.5,5.1c-0.8,4.5-1.7,8.9-2.1,13.4
		c-0.3,3.1,0.4,6.3,0.4,9.5C340,470.6,338.8,471.1,337,470.6z M338,443.6c-6.4-1.1-11.5,0-16.2,3.2c-0.2,0.1-0.3,0.3-0.5,0.4
		c-1.5,1.4-1.3,3.7,0.7,4.3c3.2,1,6.5,1.8,9.9,2.5c1.2,0.3,2.6,0,4.2-0.1C336.8,450.7,337.4,447.6,338,443.6z"/>
	<path d="M87,458.4c2-3.2,3.1-5.1,4.1-6.8c-1-1.9-2.4-1.4-3.7-1.2c-2.7,0.4-5.3,1.5-7.9,0.5c-0.9-2.2,0.1-3.8,1.7-3.9
		c5-0.3,10-0.2,15-0.1c0.2,0,0.4,0.3,0.9,0.7c-0.2,1.7-0.4,3.7-0.6,6c1.1,0.5,2.4,1,3.6,1.5c3.8,1.7,7.3,3.8,9.9,7.2
		c1.3,1.6,1.3,3.6-0.2,4.9c-3.8,3.3-7.3,6.6-12.8,7.4c-4.5,0.7-8.9,2.1-13.5,1.3c-0.7-0.1-1.3-0.3-1.9-0.6c-0.3-0.2-0.8-0.7-0.7-1
		c0.1-0.6,0.4-1.5,0.8-1.6c1-0.4,2.2-0.5,3.3-0.5c3,0,6,0.2,8.9,0.1c4.1-0.1,7.6-1.4,10.3-4.7c1.3-1.6,1.5-3.3,0.4-5.1
		c-2.3-3.6-5.6-5.3-9.8-5.1C92.6,457.5,90.6,457.9,87,458.4z"/>
	<path d="M5,457.2c0.3-0.9,0.5-3.1,1.4-4.8c2.2-3.7,4.5-7.3,7.2-10.7c2.1-2.6,4.8-4,8.4-2.6c2.7,1.1,5.8,1.3,8.4,2.5
		c5.7,2.6,7.7,7.1,6.7,13.3c-1.3,7.7-6.9,13.2-15,14.3c-2.9,0.4-6,0.3-8.8-0.3C7.8,467.8,4.8,463.6,5,457.2z M18.2,467
		c6.2,0.3,10.8-2.4,14.4-6.9c3.6-4.6,2.9-11.1-1.3-14.8c-4.7-4.1-11.9-3.8-15.9,1c-2.3,2.7-4.3,5.8-6.2,8.9c-2,3.3-1.3,6.7,1.6,9
		C13,466,15.5,467.1,18.2,467z"/>
	<path d="M817.7,418.7c-1.4-2.6-1.6-5.5-1.4-8.4c0.4-7.5,0.3-15-1.2-22.4c-0.5-2.6,0.6-4.3,2.9-5.6
		c7.6-4.1,15.9-2.7,21.8,3.8c3.5,3.8,2.9,8.2-1.9,10.7c-2.8,1.4-6,2-9.1,2.7c-1.5,0.3-3.2,0-4.8,0.2c-2.2,0.2-3.5,1.3-3.5,3.4
		c-0.1,3.4,0,6.8,0.1,10.2c0,1.4,0.3,2.7,0.1,4.1C820.4,418.6,819.3,419.1,817.7,418.7z M820,397.3c3.3,0,6.1,0.3,8.7-0.1
		c2.4-0.4,4.9-1.1,7-2.2c2.4-1.2,2.9-4.3,1.5-6.5c-2.9-4.6-10.8-6.9-15.8-4.6c-1.6,0.8-2.4,2-2.2,3.8
		C819.5,390.6,819.7,393.5,820,397.3z"/>
	<path d="M415.7,521.5c0.5-0.4,0.8-0.9,1.2-1c5.2-1.1,7.3-4.7,8.4-9.5c0.7-3.5,1.9-7,3-11c1.1,0.5,2.5,0.7,3.3,1.5
		c1.1,1.1,1.8,2.6,2.5,4c1.6,3,3.2,6,4.9,9.3c2-0.2,3.7-0.5,5.5-0.6c2.1-0.1,3.6,1.1,3.6,3.2c0.1,3.4,0.2,6.8,0,10.2
		c0,0.8-1,1.5-2.4,0.8c-0.5-2.6-1-5.4-1.4-8.1c-10.7-0.9-19.8,0-25.5,2.7c0.2,1.8,0.4,3.8,0.4,5.8c0,0.4-0.9,0.9-1.5,1.1
		c-0.3,0.1-1-0.2-1.1-0.5C415.4,526.9,415.4,524.2,415.7,521.5z M430.3,505.9c-2.3,3.9-3.5,7.2-3.4,11.1c3,0.5,5.3-0.2,7.8-1.3
		C434.5,512.1,433.1,509.2,430.3,505.9z"/>
	<path d="M287.8,524.3c-1.2,4-2,7.5-1.3,11.2c0.1,0.6,0,1.5-0.4,1.9c-0.6,0.6-1.5,1-2.3,1.1c-0.5,0.1-1.1-0.6-1.5-1.1
		c-0.3-0.3-0.4-0.9-0.4-1.3c1.1-8.4-0.1-16.7-0.1-25.1c0-2.7,0.8-4.4,3.2-5.3c5.1-2.1,10.4-3.7,15.8-1.1c1.4,0.7,2.8,1.5,4.1,2.5
		c3.4,2.7,3.5,5.3,0.7,8.7c-2.7,3.2-6.1,5.3-10.3,6.3C292.8,522.8,290.2,523.6,287.8,524.3z M286.4,518.2c6.4,2.3,11.7,2.1,16.3-2.4
		c2.5-2.4,2.5-4.5-0.1-6.9c-4.3-3.9-9.2-4.1-15.9-0.5C286.6,511.4,286.5,514.5,286.4,518.2z"/>
	<path d="M88.4,350c1.4-2.9,0.7-5.3,0.6-7.8c-0.2-2.5-0.1-5,0.1-7.4c0-0.4,1-0.8,1.6-0.9c0.2-0.1,0.9,0.5,0.9,0.8
		c0.3,1.8,0.4,3.6,0.6,5.3c0.3,2.9-0.2,6,2.1,8.7c2.7,0.8,5.5-0.3,8.3,0c2.2-5.4-0.9-10.8,0.3-16.1c2.6,0.5,2.3,2.4,2.4,3.8
		c0.4,5.5,2.5,11.1-0.1,16.8c-4.6,0-8.9,0-13.2,0.1c-4.3,0.1-8.4,2.1-12.7,1.4c-4.3-8.2-6.4-15.5-5.5-20.3c0.8,0.9,1.5,1.5,1.8,2.2
		c1,3,1.8,6.1,2.9,9.1C80.8,351.9,81.5,352.1,88.4,350z"/>
	<path d="M647.9,382c3.1-2.5,6.8-2.1,10-3c1.5-0.4,3.1-0.6,4.7-0.8c1.3-0.2,2.8,0.9,2.4,1.6c-0.3,0.6-1.2,1.3-1.9,1.4
		c-2.5,0.4-5,0.5-7.4,1c-5,1-5.3,1.6-3.6,7.3c3.5,0,7.2,0,10.8,0c4.1,0,7.6,1.5,10.7,3.9c3.2,2.4,3.1,4.5-0.1,7.1
		c-2.4,2-5.4,2.4-8.3,2.8c-4.1,0.6-8.2,0.7-12.3,0.9c-1.9,0.1-3.1-0.8-3.4-2.7c-0.4-2.7-0.7-5.4-0.9-8.1
		C648.3,389.5,648.1,385.7,647.9,382z M654.3,400.3c1.1,0.1,2.5,0.3,3.8,0.2c2.9-0.2,5.9-0.4,8.8-0.8c1.6-0.2,3.3-2.2,2.8-3.3
		c-0.5-1.1-1.4-2.6-2.5-2.9c-5.1-1.5-10.2-1.9-15.1,0.8C652.1,396.6,652.3,398.6,654.3,400.3z"/>
	<path d="M693.7,391.8c-1.5-1.3-2.8-2.2-3.8-3.4c-2.3-2.5-2-5.5,0.6-7.8c0.2-0.2,0.4-0.3,0.5-0.4c5-3,10.2-3.6,15.7-1.9
		c0.6,0.2,1.2,0.6,1.7,1.1c0.3,0.3,0.5,0.7,1,1.4c-2.4,7.5-2.5,15.3-1,23.2c0.3,1.8,0.2,1.9-1.9,4c-2.5-4.4-0.6-9.9-3.4-14.3
		c-4.5,0.8-7.1,3.6-9.7,6.4c-1.2,1.3-2.3,2.9-3.6,4.1c-0.9,0.8-2.1,0.7-3-0.8C689,399.7,691.3,395.8,693.7,391.8z M704.3,389.8
		c0.4-2.9,0.8-5.1,0.8-7.3c0-0.8-1.1-2.2-1.9-2.4c-3.6-1-7.2-0.9-10.2,1.9c-1.7,1.6-1.4,3.9,0.6,5.1
		C696.6,388.8,699.9,389.4,704.3,389.8z"/>
	<path d="M12.3,348.9c-0.3,2.9-0.4,5.2-0.7,7.4c-0.1,0.4-1,0.8-1.6,1c-0.3,0.1-0.8-0.4-1-0.8c-0.3-0.6-0.5-1.3-0.6-1.9
		c-0.4-7.7-0.7-15.4-1.1-23.1c0-0.6,0.3-1.3,0.6-2.2c3.1,1.5,1.9,4.3,2.4,6.5c0.5,2.4,0.9,4.8,1.3,7.4c5.8,0.9,10.6-0.8,15.6-2.5
		c1.4-5.5-2.1-10.7-0.8-16c2,0.1,2.1,1.4,2.3,2.4c0.7,3.6,1.3,7.2,1.7,10.8c0.7,5.6,1,11.3,3.4,16.6c0.2,0.4,0.3,0.9,0.2,1.3
		c-0.2,0.6-0.5,1.4-1,1.6c-0.4,0.2-1.4-0.1-1.7-0.5c-0.6-0.7-0.9-1.6-1.2-2.4c-0.5-1.8-0.8-3.5-1.2-5.3c-0.9-3.8-1.9-4.6-5.8-3.7
		C19.7,346.4,16.3,347.7,12.3,348.9z"/>
	<path d="M354.6,521.8c0.3,2.4,0.5,4,0.7,5.5c0.2,1.6,0.4,3.2,0.4,4.7c0,1.3-0.8,2.2-2,2.2c-1.3,0-1.8-1.1-2.1-2.3
		c-0.1-0.4-0.1-0.9-0.1-1.4c0.3-6.8-0.6-13.6-1.5-20.4c-0.1-0.7-0.2-1.4-0.2-2c-0.2-4.7,1-6.3,5.6-6.9c3.6-0.4,7.3-0.6,10.9-0.8
		c3.6-0.2,6.7,1.2,9.5,3.3c3.1,2.4,3.4,5.1,0.8,8.2c-1.8,2.2-4.1,3.6-6.8,4.4c-2.6,0.8-5.3,1.5-7.9,2.4
		C359.7,519.7,357.4,520.7,354.6,521.8z M355.2,517.8c4.4-1,8.4-1.8,12.3-3c2.1-0.7,4-2,5.8-3.5c1.8-1.5,1.4-3.8-0.4-5.3
		c-0.5-0.4-1.1-0.8-1.7-1.1c-5.1-2.2-10.2-1.8-15.4-0.3c-0.8,0.2-1.8,1.6-1.9,2.5C353.5,510.5,353.2,513.9,355.2,517.8z"/>
	<path d="M813.1,342.3c-6.2,1.5-12,3-17.7,4.2c-1.5,0.3-3.1-0.1-4.9-0.1c-2.3-7.6-1.9-15.3-2.9-22.6
		c4.5-2.4,9.7-3.4,19-3.7c1.4,1.6,0.4,2.7-1.1,2.8c-4.3,0.2-8.6,0.6-12.9,2.5c0.4,2.1,0.8,4,1.2,5.8c3.4,1.1,6.3,0,9.2-0.3
		c1.2-0.1,2.3,0,2.4,2c-3.4,0.8-6.8,1.6-10.1,2.4c-1.1,2.7-0.1,4.7,1,6.8c3.3,0.9,6.4-0.5,9.4-0.9c2-0.3,4-0.9,6-1.3
		C812.3,339.8,812.5,340.2,813.1,342.3z"/>
	<path d="M445.2,285.2c4.3-1.6,7.9-3.1,11.5-4.4c2.5-0.9,4.9-0.7,7.1,0.9c2.2,1.6,4.6,3,6.6,4.8c2.1,1.9,2,3.8,0.2,6
		c-3.2,3.9-7.4,5.8-12.3,6.7c-2.9,0.5-6,0.2-8.6,2.2c-1.2,2.3-0.4,4.8-0.2,7.2c0.2,2.3,0.7,4.5,0.8,6.7c0,0.6-0.9,1.8-1.5,1.9
		c-0.7,0.1-1.5-0.8-2.1-1.3c-0.3-0.3-0.4-0.8-0.4-1.3c-0.4-7.5-0.9-14.9-1.2-22.4C444.8,290.1,445.1,287.9,445.2,285.2z
		 M449.5,297.4c4.8-0.2,9.3-0.8,13.5-2.6c1.6-0.7,3-2,4.1-3.4c0.5-0.7,0.6-2.5,0-3.1c-2.8-3-5.9-6.1-10.5-4.9
		c-7.1,1.9-9.9,3.8-7.9,12C448.7,295.9,449,296.3,449.5,297.4z"/>
	<path d="M501,391.3c0.5,4.3,1,8.3,1.3,12.3c0,0.6-0.9,1.3-1.7,2.3c-2.5-3-1.7-6.5-3.2-9.6c-1.4-0.2-2.9-0.7-4.4-0.6
		c-5.7,0.5-11.3,1.3-16.3,4c-1.2,2.5,1,3.9,1.6,5.8c0.2,0.7,0.1,1.9-0.4,2.5c-0.4,0.6-1.5,0.6-2.6,1c-1.4-3.9-2.5-7.5-3-11.6
		c1-0.4,1.8-1,2.6-1c3.5-0.2,5.4-2.1,6-5.4c0.7-3.3,1.4-6.7,2.2-10c0.3-1,0.9-2,1.6-3.5c1.1,1.1,2.1,1.6,2.6,2.5
		c1.2,2.4,2.2,5,3.4,7.5c1.5,3.3,3.7,5.1,7.6,4C498.9,391.2,499.8,391.3,501,391.3z M486.3,386.2c-2.6,1.5-2.5,3.4-2.7,5.1
		c-0.2,1.9,0.8,2.7,3,2.2c0.8-0.2,1.5-0.8,2.4-1.3c-0.6-1.4-1.1-2.7-1.6-3.8C487,387.6,486.6,386.8,486.3,386.2z"/>
	<path d="M206.8,405.1c1.4-8.8,2.9-16.5,5-23.7c2-1.1,3.1-0.4,4,0.8c1.7,2.1,3.3,4.3,5.1,6.6c4.1-1.5,5.6-4.9,7.1-8.1
		c0.7-1.6,1.2-3.3,1.7-4.8c2.6-0.4,3.2,1.2,3.7,2.6c1.5,3.8,2.8,7.7,4.2,11.5c1.4,3.6,2.8,7.2,4.3,10.7c0.7,1.7,0.7,1.9-2,3.5
		c-4.3-5.9-3.9-13.8-8.2-19.9c-3.6,1.7-5,4.9-6.9,7.6c-0.7,1-1.9,1.6-2.8,2.3c-3.2-2.4-4.4-6.3-8.2-8c-2.4,4.2-3.1,8.6-3.7,13
		c-0.2,1.3-0.1,2.8-0.5,4C209.3,403.9,208.3,404.2,206.8,405.1z"/>
	<path d="M230.6,337.1c-0.1,1.9-0.2,3.7-0.2,5.5c0,2,0.3,4.1,0.3,6.1c0,0.5-0.7,1.3-1.2,1.4c-0.4,0.1-1.5-0.6-1.5-0.9
		c-0.1-4.8-0.3-9.5-0.1-14.3c0.1-1.9,2.3-2.9,4.2-2.1c3,1.2,5.9,2.5,8.8,3.7c2.3,0.9,4.8,1.6,7.1,2.3c4-2,6.3-5.5,8.6-8.8
		c0.6-0.9,1.2-1.9,1.9-2.8c0.7-0.8,2.6-0.5,2.9,0.5c0.2,0.4,0.4,0.8,0.4,1.3c0,7,2.4,13.4,4.3,19.9c0.4,1.4,0.4,1.4-1.3,3.7
		c-2.1-2.7-2.3-5.9-3.3-8.8c-1-3-1.5-6.1-3.1-9.2c-3.4,1.3-5.1,4.1-7.4,6.3c-3,3-3.2,3-7,1.1c-3.5-1.7-7-3.2-10.6-4.7
		C232.8,336.9,231.8,337.1,230.6,337.1z"/>
	<path d="M536.6,462.9c1.1-7.1,3.5-13.9,5-20.6c2.2-0.8,3,0.4,3.8,1.5c1.7,2.1,2.7,4.7,5.2,6c5.8-2.8,6.7-9.2,11-13.4
		c0.9,1.3,1.9,2.3,2.3,3.5c0.8,2.3,1.3,4.8,2,7.2c1.3,4.8,2.5,9.6,4.9,14.1c0.8,1.5,0.2,2.6-2.1,2.9c-4.1-5.1-4.3-11.9-6.6-18
		c-5.8,1-7.5,7.1-12.7,8.6c-1.6-1.9-3.3-4-4.9-5.8c-2,0-2.1,1.3-2.4,2.3c-0.8,3.1-1.5,6.2-2.4,9.2c-0.3,1.1-1.3,2.1-2,3.1
		C537.5,463.3,537,463.1,536.6,462.9z"/>
	<path d="M37.3,305.3c-2-6.4-2.2-12.6-2.3-18.7c0-2.1,1.7-2.4,3.8-1.5c0.8,2.3,1.6,4.9,2.5,7.8c1.6-0.2,3.1-0.5,4.7-0.6
		c3.6-0.2,7.3-0.3,10.9-0.3c1.3,0,2.7,0.6,3.8,1.2c2,1,3.1,2.8,2.9,5c-0.2,2.1-1.8,3.1-3.6,3.6c-1.3,0.4-2.7,0.7-4,0.9
		C50,303.7,43.9,304.5,37.3,305.3z M59.7,298.3c-1.3-2.9-3-3.3-4.8-3.6c-3.4-0.5-6.8,0.1-10,1.1c-2.3,0.7-2.5,1.5-0.9,4.9
		C49.2,300.8,54.5,301.2,59.7,298.3z"/>
	<path d="M180.3,386.5c-1.1,2-1.6,3.9-0.3,5.9c2.4,0.8,4.5-0.6,6.7-0.8c0.9-0.1,1.8-0.3,2.7-0.2
		c0.5,0.1,1.3,0.7,1.4,1.2c0.1,0.4-0.5,1.3-1,1.4c-1.5,0.4-3.2,0.5-4.7,1c-1.7,0.5-3.4,1.2-5.3,1.9c0.2,1.8,0.3,3.3,0.5,4.9
		c0.8,0.3,1.5,0.7,2.1,0.6c3.8-0.8,7.6-1.8,11.3-2.7c0.9-0.2,1.8-0.2,2.7-0.2c0.3,0,0.8,0.5,0.9,0.9c0.1,0.4,0,1-0.2,1.2
		c-0.5,0.4-1.1,0.8-1.7,1c-4.4,1.1-8.9,2.1-13.4,3.1c-0.9,0.2-1.8,0.4-2.7,0.4c-1.7,0-3.9-1.6-4-3.1c-0.4-5.2-0.8-10.4-1-15.6
		c-0.1-1.5,0.9-2.8,2.3-3.1c5.4-1,10.7-1.8,16.1-2.7c0.3,0,0.9,0.6,0.9,0.8c0,0.6-0.2,1.5-0.7,1.7c-0.8,0.4-1.7,0.4-2.6,0.5
		C186.8,385.1,183.3,384.9,180.3,386.5z"/>
	<path d="M336.2,500.3c0.9,1.9,2,3.2,2,4.6c0.3,6.5,2.4,12.4,4.8,18.2c-1.9,1.7-2.6,1.9-3.1,0.6c-1-2.8-1.9-5.6-2.8-8.4
		c-0.5-1.4-1-2.9-1.7-4.5c-4.4,1.6-6.8,5-10,7.6c-2.9,2.4-3.5,7-7.9,8.4c-0.4-1-0.9-1.8-1-2.6c-0.4-7-2.5-13.8-2.2-21.8
		c1.2,1.1,2.2,1.4,2.3,2c0.5,2.4,0.7,4.9,1.1,7.4c0.4,2.4,0.8,4.9,1.4,7.9c4.3-2.6,6.3-6.5,9-9.6C330.8,507.3,333.2,504,336.2,500.3
		z"/>
	<path d="M166.4,505.5c1.9,3.2,2.2,5.7,2.6,8.1c0.4,2.4,1.1,4.8,1.5,6.8c1.8,0.9,2.7,0.2,3.5-0.7
		c4.3-4.7,8.6-9.4,12.9-14.1c1-1.1,2.1-2.2,3.6-3.7c0.9,1.2,1.6,2,2.1,2.9c0.3,0.6,0.5,1.3,0.6,2c0.5,5.9,1.6,11.7,3.9,17.2
		c0.6,1.3,0.2,2.7-2.1,2.7c-3-4.7-3-10.6-5.3-16.2c-4,2.6-7.2,5.6-10.3,8.5c-3,2.8-5.6,5.8-8.8,9.2c-0.8-1.4-1.5-2.3-1.8-3.3
		c-1.3-5.5-2.5-11-3.7-16.6C165.2,507.8,165.7,507.1,166.4,505.5z"/>
	<path d="M22.2,279.4c0.8,5.9,1.5,11.6,2.2,17.2c0.2,1.3,0.4,2.7,0.2,4c-0.1,0.7-1.2,1.2-1.8,1.8
		c-0.5-0.6-1.5-1.2-1.6-1.9c-0.8-5.6-1.5-11.3-2.3-16.9c-0.2-1.3-0.6-2.6-1-4.3c-2,0.2-3.8,0.1-5.5,0.5c-2,0.4-3.9,1.2-5.9,1.7
		c-2.5,0.7-4.4-0.3-5.7-2.4c0.7-2.1,2.5-2.2,3.9-2.3c10.2-1.2,20.5-2.2,30.7-3.2c0.7-0.1,1.4-0.1,2.1-0.1c1.5,0,2.8,0.4,3.2,2
		c0.3,1.1-1.1,2.1-3,2c-2.1-0.1-4.1-0.3-6.2-0.3C28.6,277.1,25.6,277.2,22.2,279.4z"/>
	<path d="M261.9,299.1c0.2,3,0.4,6,0.5,8.9c0,0.9-0.1,1.8-0.4,2.6c-0.2,0.5-1.1,1-1.7,1c-0.5,0-1-0.7-1.5-1.1
		c-0.1-0.1-0.1-0.4-0.1-0.7c-0.6-7.4-1.2-14.9-1.7-22.3c-0.1-1.6,0.1-3.1,0.2-5c6.7-3.7,13.6-3.5,20.6-2c1.6,0.3,3.2,1.7,4.5,2.9
		c2.8,2.7,2.4,6.3-0.6,8.9c-3.1,2.7-6.9,3.3-10.8,3.8C267.9,296.3,264.9,296.6,261.9,299.1z M261.5,294.2c6.1,0.9,11.3-0.4,16.5-2.3
		c0.2-0.1,0.4-0.2,0.6-0.3c3.4-2,3.4-5.6,0-7.5c-2.6-1.6-5.5-1.8-8.5-2c-7.9-0.4-9,1.6-9.2,9C260.8,291.9,261.2,292.7,261.5,294.2z"
		/>
	<path d="M267,379.3c-4,0.8-6.9,1.2-9.7,1.8c-3.4,0.8-3.7,1.7-2.5,6.2c3.9,0.6,7.9-1.8,11.9-0.4c0.3,1.4-0.5,1.9-1.5,2
		c-3.4,0.5-6.8,0.6-9.8,2.6c-1,2.4-0.7,4.5,1,6.7c3.9,0.1,7.9-0.4,11.9-1.3c1.3-0.3,2.7-0.5,4-0.6c0.3,0,0.8,0.5,0.9,0.8
		c0.1,0.4-0.1,0.9-0.4,1.2c-0.3,0.3-0.7,0.6-1.1,0.7c-5.1,1.1-10.3,2.2-15.4,3.2c-2.7,0.5-4.6-0.6-5.2-3.2c-1-4.7-1.8-9.4-2.5-14.1
		c-0.4-2.7,0.5-4.4,2.7-4.9c4.4-1,8.9-1.7,13.4-2.4C265.1,377.6,265.4,378.2,267,379.3z"/>
	<path d="M305.3,461.2c0.1,2.7-1.1,3.9-2.9,3.5c-5.9-1.3-11.8-1.3-17.7-1.3c-3,0-5.4-0.9-6.8-3.7
		c-0.2-0.4-0.4-0.8-0.7-1.2c-5-5.8-2.2-9,1.9-11.9c4.1-2.9,9-4.5,14-5.2c1.7-0.2,3.6,0.3,5.3,0.8c0.7,0.2,1,1.6,2,3.3
		c-2.5-0.3-3.9-0.7-5.4-0.7c-1.4,0-2.7,0.5-4.1,0.6c-3.6,0.4-5.8,2.5-7.2,5.5c-0.6,1.2-1,2.6-1.3,3.9c-0.9,4.4,0.2,5.8,4.8,6
		C293,461.1,298.9,461.1,305.3,461.2z"/>
	<path d="M211.4,344.9c-4.6,0.8-7.8,4-11.6,5.9c-3.8,1.9-5.8,6.3-9.7,8.4c-0.6-0.8-1.3-1.3-1.3-1.8
		c-0.2-7.6-2.8-15.1-2.4-22.7c1.6-0.5,2,0.1,2.2,1.1c0.4,3.4,0.8,6.8,1.3,10.1c0.4,2.4,0.9,4.8,1.5,7.5c3.8-0.8,5.4-3.9,7.9-5.6
		c2.6-1.8,5-4,7.5-5.9c2.5-1.9,5-3.6,8-5.8c0.4,1.5,0.9,2.3,0.8,3.1c-0.5,5.8,0.2,11.3,2.2,16.7c0.5,1.3,0.8,2.7-1.4,3.4
		C212.8,355.2,213.8,349.5,211.4,344.9z"/>
	<path d="M644.8,280.2c-0.1,1.8-0.2,2.6-0.1,3.5c0.1,1.1,0.5,2.2,0.7,3.1c3.6,2.1,7.2-1.8,11.1,0.5
		c-3.1,2.7-7.6,1.7-10.1,5.1c0.1,0.6,0.2,1.5,0.5,2.3c0.3,0.8,0.9,1.5,1.5,2.6c5.2-1.4,10.2-2.7,15.3-4c1.9-0.5,2.2,0,2.1,2.6
		c-6.1,1.6-12.5,2.5-18,5.9c-1.3,0.8-3,0.2-3.3-1.2c-1.6-7.3-3.5-14.5-4-22.4c1.4-0.4,2.6-0.8,3.9-1.1c4.9-0.9,9.9-1.8,14.8-2.6
		c0.5-0.1,1.4,0.5,1.5,1c0.1,0.5-0.2,1.4-0.7,1.7c-0.7,0.5-1.7,0.6-2.5,0.8C653.5,278.7,649.5,279.4,644.8,280.2z"/>
	<path d="M135.4,278c2.4,3.6-0.9,8,1.3,12c2.8,0.1,4.3-2.3,6.2-3.6c2.1-1.4,4.2-2.8,6.2-4.2c2-1.4,4-2.9,6-4.2
		c1.7,0.9,1.6,2,0.6,2.8c-3.3,2.4-6.6,4.8-9.9,7.2c0.3,3.6,2.8,5.5,4.5,7.8c1.8,2.3,4.2,4,6.8,6.4c-1.2,0.6-2.2,1.4-2.5,1.2
		c-1.9-1.1-3.8-2.4-5.5-3.9c-2.1-1.7-4-3.7-6.1-5.5c-1.4-1.2-2.9-1.1-4.5-0.2c-1.5,0.8-2.6,1.9-2.6,3.7c0,2.5,0.2,5,0.1,7.4
		c0,0.5-1.2,1.1-2,1.3c-0.3,0.1-0.9-0.8-1.3-1.4c-0.2-0.4-0.1-0.9-0.2-1.3c0-0.2,0-0.5,0-0.7c0.2-7.3,0.3-14.5,0.5-21.8
		C133.2,279.4,133.3,278,135.4,278z"/>
	<path d="M277.7,331.3c1-0.6,1.7-1.2,2.6-1.4c5.7-1.7,11.4-3.5,17.1-5.1c1.3-0.4,2.1,0.4,1.7,2
		c-4.1,1.2-8.3,2.4-12.4,3.7c-1.5,0.5-3,1.2-4.2,2.1c-1.2,1-1.2,2.4,0.1,3.6c2.9,1,5.6-2.2,9,0c-0.8,0.6-1.4,1.3-2.1,1.5
		c-1.5,0.6-3.1,0.9-4.6,1.5c-4.2,1.6-4.4,2.4-1.9,7.5c1.2-0.2,2.5-0.2,3.8-0.5c3.8-0.9,7.5-1.9,11.3-2.9c1.5-0.4,3.2-1.3,4.1,0.8
		c0.6,1.2-0.5,1.9-3.2,2.5c-3.8,0.8-7.6,1.6-11.4,2.6c-2.4,0.6-4.6,1.7-7.4,2.7C277.3,345,276.2,338.3,277.7,331.3z"/>
	<path d="M333.7,280.3c4,5.5,1.2,11.8,5.9,16c4.4-4.2,6.2-10.1,10.8-14.4c0.8,0.6,2,1,2.4,1.8
		c2.8,5.7,5.4,11.5,8.1,17.2c0.2,0.4,0.6,0.9,0.5,1.2c-0.2,0.8-0.5,1.9-1.1,2.1c-0.6,0.2-1.8-0.4-2.2-0.9c-0.7-1.1-1-2.5-1.6-3.7
		c-1.9-3.8-3.4-7.8-6.4-11.2c-3.3,1.9-4.5,4.9-6.2,7.5c-1.7,2.7-3.3,5.4-5.2,8c-0.4,0.6-1.7,1.1-2.3,0.8c-0.7-0.3-1.3-1.3-1.4-2.1
		c-0.8-6.3-1.6-12.6-2.3-18.9C332.8,283,333.2,282.2,333.7,280.3z"/>
	<path d="M45.5,514.6c3.9,0.8,7.6-0.7,11.4-1c1.5,1.7,0.7,2.6-0.9,3c-2.6,0.7-5.4,1-8,1.7c-1,0.3-2.1,1.2-2.4,2.1
		c-0.3,0.8,0.2,2,0.5,3.3c3.5-0.5,6.7-0.9,9.8-1.3c1.4-0.2,2.7-0.5,4.1-0.6c1.1-0.1,2.5-0.4,2.8,1c0.4,1.5-1,1.9-2.1,2
		c-5.7,0.6-11.3,1.2-16.8,4.2c-0.7-1.5-1.3-2.4-1.5-3.4c-0.8-4.2-1.6-8.5-2.1-12.8c-0.4-3.4,0.7-5.2,4.1-6.1
		c5-1.4,10.2-2.3,15.1-3.4c1.5,1.9,1.1,2.8-0.8,3.1c-3.8,0.8-7.6,1.4-11.4,2.5C44.1,509.8,43.9,510.6,45.5,514.6z"/>
	<path d="M728.1,320.5c0.2,1.3,0.5,2.6,0.4,3.8c-0.4,6.2-0.1,12.3,1.8,18.3c0.3,1,0.3,2.3,0,3.3c-0.2,0.6-1.1,1-2.1,1.8
		c-1.3-4.2-2.3-7.9-3.4-11.6c-5-0.8-9.5,0.1-13.7,1.7c-2,0.8-2.7,2.2-2.4,4.4c0.2,1.3,0.7,2.6,0.9,4c0.2,1.2-0.9,2.7-1.8,2.4
		c-0.7-0.2-1.7-1-1.7-1.6c-0.7-7.3-1.2-14.5-1.7-21.8c-0.1-1.2,0.8-2.4,1.5-4.2c3.1,4.3,0.2,8.8,2.5,12.3c4.5,1.3,9.5,0.8,16.4-1.9
		C726.6,328,724.7,323.8,728.1,320.5z"/>
	<path d="M740,323.3c3.5,0.3,3.9,0.5,4.2,2.4c0.3,2,0.6,4,0.9,6.2c2.2,0.1,3.9,0.1,5.7,0.2c2.9,0.2,5.9,0.3,8.8,0.9
		c1.7,0.4,3.3,1.5,4.7,2.6c1.6,1.2,1.8,3.4,0.4,4.8c-1.3,1.3-2.7,2.6-4.4,3.1c-5.5,1.8-11.3,1.7-17,1.3c-0.9-0.1-2-1.1-2.4-2
		c-0.5-0.9-0.5-2.2-0.5-3.3C740.5,334.1,738.9,328.7,740,323.3z M753.1,334.8c-2.5,0.6-5,0.9-7.2,1.7c-0.7,0.3-1.3,1.8-1.2,2.8
		c0.1,0.9,1,2.2,1.8,2.4c4.7,1.3,9.4,0.7,13.8-1.4c1.3-0.6,1.4-2.7-0.1-3.2C757.9,336.1,755.6,335.5,753.1,334.8z"/>
	<path d="M73.5,524.4c-0.1,1.6-0.2,3.4-0.2,5.2c0,1.8,0.2,3.6,0.1,5.5c-0.2,3.3-1.4,5.4-2.6,4.8
		c-2.2-1.1-1.3-3.3-1.3-4.9c0.1-7.5,0.3-15,0.7-22.5c0.3-4.3,0.9-4.9,5.3-5.6c3.6-0.5,7.3-0.8,10.9-0.5c4.4,0.4,6.2,4.1,4.2,8
		c-2.2,4.3-5.8,6.9-10.6,7.9c-1.8,0.4-3.6,0.6-5.4,1.1C74.3,523.5,74,524,73.5,524.4z M73.9,520.1c3.7,1,6.9,0.1,9.9-1.6
		c2.1-1.1,3.4-2.9,4.1-5.2c0.5-1.5-0.3-3.4-1.9-3.8c-3.9-1.2-7.9-1-11,1.4C72.4,512.9,72.4,516.3,73.9,520.1z"/>
	<path d="M383.5,467.1c-0.6-4.3-0.2-20.2,0.7-24.3c3.9,3.2,0.7,8.1,3.2,11.5c2.7,1.2,5.7,0.2,8.6-0.1
		c2.2-0.2,3-1.4,3.2-3.7c0.1-1.8,0-3.6,0-5.4c0.1-1.3,0.1-2.7,0.5-4c0.1-0.4,1-0.8,1.5-0.9c0.2-0.1,0.8,0.5,0.9,0.9
		c0.2,1.3,0.2,2.7,0.2,4c-0.1,6.8-0.6,13.6,1,20.3c0.3,1.3,0.2,1.4-2,3c-2.2-2.5-1.3-6.1-2.9-9.2c-4-1.6-7.8,0.1-11,0.8
		C384.7,462,388.2,466.2,383.5,467.1z"/>
	<path d="M423.9,440.7c1.8,4.3,3.2,8.3,5.2,12.1c1.9,3.6,4.4,6.9,6.4,10.4c1.1,1.9,0.8,2.3-1.6,4.4
		c-0.8-1.7-1.6-3.3-2.4-4.9c-1.2-2.2-2.9-3.5-5.5-3.3c-1.6,0.1-3.2,0.1-4.8,0.3c-2,0.3-3.3,1.3-4,3.3c-0.8,2.4-1.6,4.7-2.5,7.1
		c-0.2,0.5-1.1,0.9-1.6,0.9c-0.5-0.1-1.2-0.8-1.3-1.3c-0.2-1.1-0.3-2.3,0.1-3.3c3-8.6,6.4-16.9,10.5-25
		C422.6,441.2,422.9,441.2,423.9,440.7z M425.7,455.9c0.2-2.8-0.8-4.6-2.6-6.5c-1.9,1.7-2.7,3.4-2.7,5.5c0,0.4,0.3,0.8,0.7,1.5
		C422.4,456.2,423.9,456,425.7,455.9z"/>
	<path d="M68.3,359.1c-2-3.9-3.7-7.9-7.8-10.2c-4.4,0.7-8.1,2.8-11.8,4.8c-2,2.2,0.8,6.3-3,7.7c-1.7-2.1-0.8-4.1-0.4-6
		c1.6-7.3,3.4-14.6,5.3-21.8c0.3-1.1,1.6-1.9,2.7-3.2c0.8,1.5,1.5,2.4,1.9,3.4c1.4,3.9,3.7,7.1,6.5,10.2c3.3,3.7,5.9,8,8.6,12.2
		C71.2,357.6,70.1,358.5,68.3,359.1z M58,345.5c-1.5-2.5-2.6-4.7-4.8-6.1c-3.1,4.8-3.2,5.2-2.3,9.2C53.4,348.2,55.7,347.7,58,345.5z
		"/>
	<path d="M854.7,434.3c3.4,4.1-0.1,9.3,3.1,13.6c3.2-0.1,6.3-0.4,9.1-1.9c1.7-4.4,0.2-9.6,3.1-13.4
		c1.8,0.2,1.8,1.3,1.6,2c-1.9,7.7-1.3,15.3,0,22.9c0.1,0.4,0.1,0.9-0.1,1.3c-0.2,0.4-0.6,0.9-0.9,0.8c-0.6-0.1-1.5-0.3-1.6-0.7
		c-0.9-2.5,0-5.5-2.3-7.5c-5-0.3-5-0.3-9.7,1.3c-0.1,1.3-0.3,2.8-0.4,4.4c0,1.8,0.1,3.6,0.1,5.4c0,0.8-0.2,0.9-2.9,1.4
		C853.6,454,853.6,444.1,854.7,434.3z"/>
	<path d="M230.2,467.6c-0.2-0.3-0.6-0.8-0.8-1.4c-1.5-4.5-4.9-5.6-9.2-5.1c-1.8,0.2-3.6,0.4-5.4,0.7
		c-3.1,0.4-5,1.9-5.2,5.2c0,0.8-0.6,1.7-1,2.4c-0.2,0.3-0.8,0.3-1.2,0.3c-0.4-0.1-0.9-0.4-1-0.7c-0.2-0.6-0.3-1.4-0.1-2
		c1.1-3.7,2.3-7.4,3.6-11c1.4-3.8,2.9-7.7,4.4-11.4c0.3-0.7,1.3-1.4,2-1.5c0.7-0.1,1.9,0.5,2.2,1.1c2.8,6.6,7.7,11.8,12.1,17.2
		c0.9,1.1,1.8,2.1,2.3,3.4C233.4,466.4,232.6,467.5,230.2,467.6z M216.7,448.7c-2.6,2.2-3,4.7-3.7,6.9c-0.3,0.9,0.1,1.9,0.1,3.3
		c3.1-1.1,6.3-0.3,8.5-3.1c-0.8-1.3-1.5-2.4-2.2-3.5C218.7,451.3,217.9,450.3,216.7,448.7z"/>
	<path d="M140.3,352.7c-0.8-3.2-1.5-6.5-2.4-10.1c-2.9,0-4.7,1.8-6.5,3.3c-2.1,1.7-3.9,3.8-5.8,5.8
		c-1.1,1.1-2.3,2.3-3.5,3.3c-1.5,1.2-3.5,0.5-3.7-1.2c-0.6-5.9-1.1-11.8-1.5-17.7c0-0.3,0.5-0.6,0.8-0.9c1.9,2.8,1.8,2.8,2.3,6.5
		c0.3,2.5,0.7,4.9,1.2,7.9c1.4-0.6,2.5-0.9,3.3-1.5c3.5-2.6,6.4-5.8,9-9.3c1.7-2.3,3.1-5.1,5.8-6.2c1.9,0.7,2,2.2,2.1,3.4
		c0.4,4.8,0.4,9.5,1.9,14.2c0.2,0.7-0.7,1.8-1.1,2.7C141.4,352.9,140.9,352.8,140.3,352.7z"/>
	<path d="M244.1,508.8c-0.8,4-0.5,7.6,0.1,11.2c0.4,2,0.6,4,0.6,6.1c0,0.5-1.1,1-2.2,2.1c-2-7.6-2-14.5-1.4-21.3
		c6.5-4.4,16.7-6.8,25.2-6c1.6,2.1,1.1,4.6,1.2,7.1c0.1,3.9,0,7.7,0.2,11.6c0.1,1.8,0.6,3.5,1,5.3c0.4,2.2-0.2,3.8-1.7,3.8
		c-1.9-0.1-1.9-1.6-2-2.9c-0.1-1.6,0-3.2-0.1-4.8c-0.1-4.3-0.2-8.6-0.4-13c-0.2-3.2-1.2-4.1-4.1-4.2
		C255.4,503.7,249.8,505.4,244.1,508.8z"/>
	<path d="M964.8,470.8c-0.2-2.2-0.5-3.2-0.2-4.2c0.7-2.6,1.6-5.2,2.4-7.8c0.7-2.1,0.5-4-0.8-5.8c-1.5-2-3-4-4.6-5.9
		c-1.4-1.8-3-3.5-4.2-5.3c-0.3-0.5,0.1-1.4,0.3-3c4.5,3.9,6.9,8.8,11.9,11.8c2-4.8,3.8-9.1,5.7-13.5c0.2-0.2,0.4-0.4,0.5-0.4
		c1.7-0.4,3.5-0.7,5-0.9c1.6,1.5,1.3,3,0.5,3.9c-5.5,6.3-7.9,14.2-11.2,21.7C968.8,464.2,968.5,467.5,964.8,470.8z"/>
	<path d="M561.1,288.9c-3.6,0.6-6.2,2-8.3,4.2c-1.9,1.9-3.9,3.8-6,5.6c-1.7,1.5-3.2,3.3-5.8,3.3
		c-2.1-1.1-2.1-3.4-2.5-5.3c-0.5-2.2-0.7-4.5-1-6.7c-0.2-1.9-0.4-3.9-0.6-6.4c1.1,0.5,2,0.6,2.2,1c0.5,1.2,0.8,2.6,1.1,3.9
		c0.5,2.2,0.9,4.4,1.4,6.6c3.3,0.6,5.7-0.5,7.7-2.4c3-2.8,5.8-5.7,8.8-8.6c1.1-1.1,2.2-2.1,3.2-3c2.3,0.3,3.2,1.9,3.4,3.4
		c0.5,5,1.8,9.8,3.2,14.6c0.5,1.5-0.3,2.6-2.5,2.6C562.8,298.1,563.6,293,561.1,288.9z"/>
	<path d="M342.5,403.8c-2.2-0.8-3.4-0.9-3.6-1.3c-0.9-2.3-1.6-4.7-2.1-7.1c-0.5-2.2-0.7-4.4-1-6.3
		c-2.1-1.5-3.5-0.4-4.7,0.6c-3.4,3-6.7,6.2-10.1,9.3c-1.2,1.1-2.4,1.2-3.7,0.2c-0.8-5.6-1.6-11.2-2.4-16.8c-0.1-0.6,0.1-1.3,0.4-1.9
		c0.1-0.3,0.7-0.6,1.1-0.6c0.4,0,1,0.2,1.1,0.5c0.4,1.1,0.6,2.2,0.8,3.3c0.5,3.1,0.9,6.2,1.4,9.8c1.6-0.5,2.7-0.6,3.5-1.2
		c4.1-3,8-6.1,10.3-10.8c0.4-0.9,1.6-1.4,2.6-2.3c0.7,1.1,1.4,1.7,1.6,2.5c0.5,2.2,1,4.5,1.1,6.7C339.2,393,339.8,397.7,342.5,403.8
		z"/>
	<path d="M123,452.7c4.8,0.4,9.1,0.5,13.4,1c2.2,0.3,4.5,0.7,6.6,1.6c3.2,1.4,3.6,5.1,0.7,7.1c-2,1.4-4.4,2.4-6.8,3
		c-3.9,1.1-8,1.9-11.9,2.8c-2.7,0.6-4.2-0.5-4.5-3.4c-0.5-4.9-1-9.9-1.4-14.8c-0.1-0.9-0.3-1.8-0.2-2.7c0.2-0.8,0.8-1.4,1.3-2.1
		c0.6,0.5,1.6,0.9,1.8,1.5C122.4,448.4,122.6,450.3,123,452.7z M125.7,463.7c4.1,0.5,9.5,0.3,11.8-0.5c0.8-0.3,1.8-0.6,2.4-1.2
		c0.8-0.7,1.8-1.7,1.8-2.5c0-0.8-1.2-2-2.1-2.2c-3.1-0.7-6.2-1.3-9.3-1.5c-2.2-0.2-4.8-0.2-6,2.2
		C123.3,459.7,124.4,461.6,125.7,463.7z"/>
	<path d="M425.5,341.3c0.1-2.8,1.9-5,4.6-5.9c3.6-1.2,7.6-2.4,11.3-2.2c4.1,0.2,7.8,2.5,10.5,5.8
		c1.9,2.5,1.4,6.4-0.9,8.8c-5.1,5.3-16,5.7-20.5,2.9C427.1,348.5,425.3,345.6,425.5,341.3z M437.8,349.5c3.3-0.3,7.1-0.6,10.4-3
		c2.1-1.6,2.5-4,1-5.9c-4.9-6.1-14.9-5.4-19.1,1.2c-1.1,1.7-0.9,3.4,0.5,4.9C432.3,348.7,434.6,349.4,437.8,349.5z"/>
	<path d="M656.6,461.6c-2.3-5.9-2.1-11.8-2.1-17.7c0-2,0-4.1,2.1-5.7c3.4,2.9,0.4,6.9,2.1,10.4c1.7,0.9,3.8,0,5.7-0.1
		c3.2-0.2,6.4-0.2,9.5,0.8c2.2,0.7,4.3,1.8,4.5,4.5c0.2,2.5-1.2,4.3-3.1,5.7c-2.1,1.6-4.6,1.8-7.2,1.9
		C664.6,461.5,660.9,461.5,656.6,461.6z M666.4,458.8c1.5-0.2,3.7-0.4,5.9-0.8c1.4-0.3,2.4-1.3,2.4-2.9c-0.1-1.5-1.1-2.5-2.5-2.9
		c-3.8-1.1-7.6-0.9-11.3,0.6c-1.5,0.6-1.8,1.9-1.6,3.4c0.2,1.3,1,2,2.2,2.2C662.9,458.5,664.2,458.6,666.4,458.8z"/>
	<path d="M618.5,406.8c-0.6-4.9-1.1-9.2-1.5-13.4c-0.3-2.9-0.5-5.8-0.7-8.8c1.1-0.5,1.9-1,2.7-1.2
		c4.7-1,9.3-1.9,13.9-2.8c1.3,2,0.8,3-0.9,3.3c-2.7,0.6-5.4,0.8-8.1,1.6c-4.3,1.2-4.6,1.9-3.3,7c2.3,1.1,4.5-0.1,6.7-0.4
		c0.9-0.1,1.9-0.5,2.7-0.3c0.7,0.2,1.3,0.9,1.8,1.6c0.1,0.1-0.6,1.1-1.1,1.3c-0.8,0.3-1.8,0.2-2.7,0.4c-1.4,0.2-2.7,0.4-4,0.8
		c-2.7,0.8-3.6,2.2-3,4.5c0.5,1.9,1.7,2.5,4.4,1.9c3.8-0.8,7.5-1.8,11.2-2.6c1.7,1.6,0.9,2.9-0.5,3.3
		C630.5,404.2,624.9,405.4,618.5,406.8z"/>
	<path d="M439.9,393.4c3.1-0.5,5.8-1,8.5-1.3c1.1-0.1,2.2,0,3.3,0.2c0.2,0,0.4,0.7,0.5,1.1c0,0.2-0.1,0.5-0.2,0.6
		c-0.8,0.3-1.6,0.7-2.5,0.9c-2.4,0.7-4.9,1.2-7.2,2c-1.4,0.5-2.3,1.8-1.6,3.3c0.4,0.9,1.5,1.9,2.4,2c2,0.3,4.1,0.2,6.1,0
		c3.4-0.3,6.8-0.8,10-1.2c1.6,1.6,0.9,2.9-0.6,3.2c-2.2,0.5-4.5,0.3-6.8,0.5c-4.1,0.4-8.1,0.9-12.4,1.3c-0.5-0.8-1.3-1.5-1.4-2.3
		c-0.8-4.5-1.6-8.9-2.2-13.4c-0.3-2.5,0.3-3.9,2.2-4.4c4.8-1.3,9.7-2.4,14.6-3.4c0.8-0.2,1.8,0.2,1.9,1.9c-0.6,0.3-1.3,0.7-2.1,0.8
		c-3.8,0.9-7.6,1.6-11.3,2.6C439,388.4,438.8,389.4,439.9,393.4z"/>
	<path d="M798.7,460.9c-0.9,0.3-1.7,0.5-2.8,0.9c-1.3-4.6-2.4-8.9-3.5-13.1c-2.5-0.8-3.8,0.7-5,2
		c-3.1,3.3-6.1,6.7-9.2,10.1c-1.1,1.2-2.4,2.1-4.2,1.6c-1.5-3.1-4.2-13.7-4.7-18.3c2.5,0.1,2.6,2,3.1,3.6c0.5,1.5,0.8,3.1,1.3,4.6
		c0.5,1.7,1.1,3.3,1.7,5c2.5-1.1,6.9-4.9,9.3-7.9c2.5-3.1,3.9-7.1,7.6-10.1c1,1.8,2.3,3.2,2.7,4.8
		C796.4,449.6,797.5,455.2,798.7,460.9z"/>
	<path d="M511.1,382.4c2.8,5.5,0.7,10.9,4.2,15c5.6-3.4,10.8-6.9,14.8-11.9c0.7-0.9,1.4-1.8,2.2-2.6c1-1,2.9-0.4,3.3,1
		c0.2,0.7,0.4,1.3,0.4,2c0.2,4.8,1.3,9.4,3,13.9c0.2,0.6,0.4,1.4,0.3,2c-0.1,0.5-0.7,1.2-1.2,1.4c-0.5,0.1-1.6-0.2-1.7-0.5
		c-0.7-1.9-1.2-3.9-1.8-5.8c-0.6-1.9-1.1-3.9-1.8-6.2c-1.3,0.5-2.4,0.7-3.3,1.3c-4.1,2.8-8.1,5.8-12.2,8.7c-1.2,0.8-2.7,1.4-4,2
		C510.1,396.6,509.3,389.9,511.1,382.4z"/>
	<path d="M148.5,388.4c3.8-3.9,8.3-4.9,13.3-4.2c4.3,0.7,7.6,5.3,7,9.5c-0.2,1.4-1.3,2.9-2.5,3.8
		c-1.6,1.2-3.6,1.9-5.5,2.7c-2.1,0.9-4.2,1.8-5.9,2.5c-1.3,2.7-0.5,4.9,0,7.1c0.2,1.2-0.1,2.6-0.3,3.9c0,0.3-0.7,0.6-1.1,0.6
		c-0.4,0-1-0.3-1.1-0.6c-0.4-1-0.7-2.1-0.9-3.2C150.5,403.3,149.5,396.1,148.5,388.4z M153.3,398.4c4.8,0.4,9.3-1.2,11.3-3.8
		c0.4-0.5,0.6-1.2,0.6-1.9c0-3.7-2.9-6.2-6.7-6.1c-4.7,0.2-6.8,2.3-6.2,6.7C152.4,395.1,152.9,396.8,153.3,398.4z"/>
	<path d="M230.5,298.5c-0.6-0.1-2.4-0.3-4-1.1c-4.5-2.1-5.4-8.3-1.6-11.3c3.9-3.1,8.4-5.5,13.5-6.1
		c5.1-0.6,7.9,0.6,9.2,3.9c1.7,4.5,0.1,9.4-3.9,11.9C240.9,297.5,235.6,298.7,230.5,298.5z M229.6,295.5c4.5,0.9,8.3-0.2,12-2.2
		c2.1-1.1,3.5-2.9,3.8-5.3c0.4-2.8-1.2-5.1-4-5.2c-2-0.1-4,0.4-6,0.8c-2.5,0.5-4.8,1.7-6,4.1C228.2,290,228.1,292.4,229.6,295.5z"/>
	<path d="M476.2,500.7c1.7,0.1,3.2,0.1,4.5,0.2c0.3,0.8,0.6,1.3,0.5,1.6c-2.3,6.4-4.7,12.7-6.8,19.2
		c-0.9,2.8-1.1,5.7-1.7,8.6c-0.2,0.9-0.4,1.8-0.9,2.5c-0.3,0.4-1.2,0.8-1.7,0.7c-0.5-0.1-1.3-0.8-1.3-1.3c0-1.3,0-2.7,0.4-4
		c0.8-2.6,1.2-5.3,1-8.1c-5.3-4.3-12.1-6.9-16.2-14c3.1,0.2,4.2,2.2,5.8,3.3c1.8,1.3,3.6,2.8,5.5,4c1.7,1.1,3.6,1.8,5.8,2.9
		c0.8-1.3,1.7-2.3,2-3.5C474.2,508.8,475.1,504.8,476.2,500.7z"/>
	<path d="M884.7,441c3.3,2,6.8-1.4,11.8,0.6c-1.7,0.7-2.3,1-2.9,1.2c-2,0.5-4,0.8-6,1.4c-3.5,1-3.7,1.6-2.7,6.3
		c6.2,0.6,12.2-2.9,18.9-1.7c-0.2,0.9-0.2,1.5-0.5,2c-0.2,0.3-0.8,0.4-1.2,0.4c-5.4,0.9-10.8,1.7-16.2,2.6c-3.4,0.6-4.7-0.1-4.9-3.6
		c-0.3-4.1-0.3-8.2-0.3-12.2c0-2.1,1.1-3.3,3.2-3.8c5.3-1.1,10.7-2.2,16.1-3.2c1-0.2,2,0.3,1.9,1.3c-0.1,0.6-1,1.4-1.7,1.7
		c-1.3,0.4-2.7,0.4-4,0.6c-3.4,0.6-6.7,1.3-10,2.1C884.3,437.1,884.1,438,884.7,441z"/>
	<path d="M679.5,297.1c-2.7-5-2.2-9.7-2.5-14.2c-0.1-1,0.6-2,0.9-3c1.6,0,1.9,0.9,1.9,1.8c0.3,3.2,0.4,6.4,0.8,9.5
		c0.1,1,1.1,2,2,2.6c1.7,1.1,4.4-0.2,4.8-2.2c0.6-2.8,1-5.7,1.6-9.5c2.9,4.2,0.6,8.3,2.2,11.6c5.2,1.2,5.2,1.2,10-0.3
		c1.3-1.8,0.8-3.9,0.7-5.9c-0.1-2.9-0.4-5.9-0.4-8.8c0-0.5,1-0.9,2.2-1.9c0.5,6,1,11.2,1.2,16.3c0.1,2.7-1.1,4-3.5,4.1
		C694.3,297.4,687,297.3,679.5,297.1z"/>
	<path d="M639.7,351.2c0-1-0.1-2.1,0.2-3.1c0.8-2.6,1.8-5.1,2.6-7.7c1.1-3.7,2.1-7.4,3.2-11.1c0.4-1.3,0.7-2.6,1.2-3.9
		c0.2-0.5,1-1,1.6-1c0.6,0,1.4,0.4,1.6,0.9c1.2,2.7,2.1,5.5,3.5,8.1c2.4,4.4,5,8.6,7.5,12.9c0.5,0.8,1,1.5,1.5,2.3
		c0.5,1,0.1,2.7-0.9,2.8c-0.7,0.1-1.8-0.4-2.2-0.9c-1.1-1.7-1.9-3.6-2.8-5.4c-1.2-2.5-3.2-3-5.7-2.6c-1.1,0.2-2.2,0.4-3.3,0.7
		c-2.8,0.9-4.9,2.3-4.7,5.7C643.1,350.8,642.3,352,639.7,351.2z M652.5,337.8c-1.2-1.9-2.2-3.5-3.4-5.6c-1.9,2.4-3,4.3-3,6.9
		C648.3,340,650.1,339.9,652.5,337.8z"/>
	<path d="M630.8,301.7c-1-1.9-2-3.9-3.1-5.8c-1.3-2.3-2.6-2.7-5.2-1.9c-0.4,0.1-0.8,0.4-1.3,0.5
		c-4.1,1.5-8.3,2.7-9.2,7.5c-1.9-0.1-2.3-0.7-2.2-1.8c0.1-0.9,0.1-1.8,0.4-2.7c2.2-6.7,4.5-13.3,6.8-20c0.2-0.6,0.8-1,1.5-1.8
		c0.7,0.5,1.6,0.9,2,1.6c4,6.9,8,13.8,11.9,20.7C633.4,299.7,633.3,301.1,630.8,301.7z M623.9,290.1c-0.5-3.3-2.2-5.6-5-7.9
		c-2,3.2-3.4,6-3.5,9.8C618.6,292.4,621.3,292.1,623.9,290.1z"/>
	<path d="M544.9,329.1c-0.2,0.5-0.4,1.5-0.8,1.6c-1.3,0.4-2.7,0.4-4,0.8c-2.4,0.7-4.8,1.4-7.2,2.2
		c-1.3,0.5-2.5,1.2-2.4,2.9c0.1,1.1,1.4,1.6,3.4,1.3c1.6-0.3,3.1-0.8,4.7-1c0.8-0.1,1.7,0.1,3.7,0.3c-1.8,1.1-2.6,1.8-3.5,2.2
		c-2.1,0.9-4.3,1.5-6.3,2.5c-1.4,0.7-1.7,2-1.2,3.5c0.4,1.3,1.5,1.8,2.7,1.6c4.1-0.6,8.1-1.4,12.1-2c0.9-0.2,1.9-0.5,2.7-0.3
		c0.6,0.2,0.9,1.2,1.3,1.8c-0.7,0.5-1,1-1.4,1c-6.2,1.2-12.5,2.3-19.1,3.6c-0.5-1.1-1.2-2-1.3-3c-0.5-4.3-0.8-8.6-1.2-12.9
		c-0.1-1.4,0.3-3,1.7-3.4c5-1.4,9.8-3.7,15.2-3.3C544.4,328.6,544.6,328.8,544.9,329.1z"/>
	<path d="M604.8,400.9c1.3,1.8,1,3.2-0.2,3.3c-5.4,0.7-10.9,1.3-16.3,1.5c-2.2,0.1-4.5-0.9-6.5-1.8
		c-4.4-2.2-6.1-7-4.3-11.5c2.6-6.4,10.1-10.3,16.8-8.5c1.2,0.3,2.8,0.9,1.8,2.9c-1.1,1-2.1,0.2-3.1-0.2c-2-0.9-4-0.6-5.9,0.3
		c-4.5,2-5.8,4.4-4.8,9.2c0.7,3.8,3.6,6.4,7.6,6.6c2.5,0.1,5-0.3,7.5-0.6C599.8,401.7,602.2,401.3,604.8,400.9z"/>
	<path d="M101.7,507.7c6.4-2,12.3-2.4,18.2-2.6c0.3,2.1-0.6,2.5-1.5,2.6c-3.8,0.7-7.6,1.2-11.4,1.9
		c-1.9,0.4-2.6,1.6-2,3.7c3.1,2,7.1-0.6,10.3,1.2c0.1,1.5-0.9,1.7-1.7,1.9c-2.2,0.4-4.5,0.7-6.6,1.3c-1.2,0.3-1.7,1.4-1.4,2.7
		c0.3,1.3,1.2,2,2.4,1.8c2.9-0.4,5.8-1.1,8.8-1.4c2.2-0.2,4.5,0.1,6.7,0.3c0.3,0,0.8,0.7,0.7,1c-0.2,0.6-0.8,1.5-1.1,1.4
		c-5.8-0.8-11.3,1.1-16.8,2.3c-0.8,0.2-1.7,0-2.8-0.1C101.5,519.9,101.4,514.1,101.7,507.7z"/>
	<path d="M716.1,276.2c1,1.1,2,1.7,2,2.2c0,2.2-0.3,4.4-0.5,6.6c2.9,1.8,5.7,0.9,8.4,1.1c2.3,0.1,4.6,0,6.8,0.3
		c2.9,0.4,5,2,6.5,4.5c0.8,1.3,0.4,2.9-1,3.5c-1.5,0.6-3,1.1-4.6,1.3c-1.8,0.3-3.6,0.3-5.5,0.3c-4.7,0.1-9.4,0.2-14.5,0.3
		c0.2-5.2,0.3-10.2,0.7-15.1C714.6,279.9,715.4,278.4,716.1,276.2z M735.3,292c-1.1-1.2-1.4-1.9-1.9-2.1c-4.4-1.7-8.8-1.5-13.3-0.3
		c-0.6,0.2-1.2,1.2-1.4,2c-0.1,0.4,0.5,1.3,1,1.6c1,0.5,2.1,1.1,3.1,1.1C726.8,294.5,730.8,293.9,735.3,292z"/>
	<path d="M302.3,398.7c-0.6-2.8-1.2-5.6-1.8-8.3c-5.4-1.7-6.5-1.5-12.7,1.5c0.2,1.8,0.4,3.8,0.4,5.8
		c0,0.4-0.8,1.2-1.3,1.2c-0.5,0.1-1.4-0.5-1.5-0.9c-0.4-2-0.6-4-0.7-6.1c-0.1-4.3,0-8.6,0.1-12.9c0-0.7,0.6-1.5,1.2-3
		c2.2,3.6,0.3,7,1.6,9.8c4.3,1.5,6.2,1.3,12.5-1.3c2.1-3.6-0.2-8.6,3.4-12.2c0.4,0.4,1.2,0.9,1.2,1.2c-1.9,7.5-1.1,14.9,0.1,22.3
		c0.1,0.7,0.2,1.4,0.1,2c-0.1,0.3-0.5,0.7-0.9,0.9C303.5,398.9,303,398.7,302.3,398.7z"/>
	<path d="M294.3,299.2c-0.9-6.8-1.7-13.1-2.4-19.3c-0.1-0.6,0.2-1.3,0.6-1.9c0.2-0.3,0.7-0.7,1.1-0.7
		c0.4,0,0.9,0.2,1.1,0.5c0.4,0.8,0.7,1.7,0.8,2.5c0.2,2.3,0.6,4.5,2.2,6.5c2.4-0.1,4.8-0.2,7.3-0.2c2.1,0,4,0.5,5.7,1.9
		c1.6,1.4,1.9,1.8,3.2,6C308.7,300.8,301.9,300.5,294.3,299.2z M303.1,289.3c-0.5,0-0.9,0-1.4,0.1c-2.6,0.3-3.9,1.6-3.9,3.7
		c0,2.6,1.5,4.3,4.3,4c2.2-0.2,4.3-1,6.4-1.8c1.3-0.5,1.4-2.3,0.5-3.5C307.5,289.9,305.4,289.3,303.1,289.3z"/>
	<path d="M59.1,387.9c2.2,0.5,4.5,0.8,6.5,1.6c4.4,1.9,5.6,6.8,2.7,10.7c-5.3,7.3-16.1,7.7-21.9,0.9
		c-2.4-2.8-2.7-6.3-0.6-9.4c0.7-1,1.9-2.1,3.1-2.4C52.2,388.7,55.6,388.4,59.1,387.9z M60.5,391c-4.8-0.1-8.2,0.9-10.8,3.8
		c-1.3,1.5-1.3,3.7,0.1,5c4.5,3.9,8.7,4.6,13,1.4c3-2.2,4.5-4.7,3.7-6.7C65.1,391.5,62.4,391.1,60.5,391z"/>
	<path d="M399.2,522.6c-6.5-0.1-10.6-4.6-9.9-10c0.3-1.9,1.1-3.4,2.9-4.3c1.2-0.6,2.6-1,3.7-1.8
		c4.8-3.7,9.5-1.8,14.2,0.2c2.1,0.9,2.9,2.7,2.7,5c-0.3,5.1-4.3,9.4-10,10.6C401.5,522.5,400.1,522.5,399.2,522.6z M398.2,519.4
		c4.8,0.2,8.5-1.8,11.2-5.5c1.1-1.5,0.6-3.9-1.1-4.7c-7.3-3.7-12.1-1.2-14.5,5.7c-0.6,1.8,0.5,3.7,2.4,4.2
		C397,519.3,397.7,519.3,398.2,519.4z"/>
	<path d="M363.7,342.7c-4,0.4-7.8,0.9-10.9,3.5c-1,5.8-1,5.8-3.8,7.5c-0.1-1-0.3-1.9-0.1-2.6c2-7,4-14,6.1-20.9
		c0.2-0.6,0.6-1.2,1-1.8c0.8-1.2,2.7-1.5,3.5-0.4c0.8,1.1,1.5,2.3,2.2,3.5c2.7,4.5,5.4,9,8.1,13.4c0.9,1.5,2.1,2.9,3.5,4.8
		c-0.7,0.7-1.4,1.4-2.3,2.3C367.7,349.3,367.6,344.9,363.7,342.7z M354.7,340.8c5.4-0.4,6.8-0.8,6.9-1.9c0.2-2.5-1.3-4.2-3.1-5.7
		c-0.1-0.1-0.4-0.1-1-0.1C355.8,335.1,354.9,337.5,354.7,340.8z"/>
	<path d="M430.9,284.4c-4.8-0.5-8.5,1.6-12,4.2c-0.7,0.6-1.1,2-1.1,3c-0.1,2,0.2,4.1,0.2,6.1c0,1.6,0.1,3.2-0.1,4.7
		c-0.1,0.6-1.1,1.1-2.2,2.3c-1.7-7.1-0.4-13.6-1.2-20.1c5.6-2.2,10.9-3.4,16.2-4.2c1.5-0.2,2.7,0.8,3,2.2c0.5,2,0.8,4,1.1,6
		c0.6,3.6,0.4,7.3,2,10.6c0.2,0.4,0.2,1,0,1.3c-0.3,0.5-0.8,1.2-1.3,1.3c-0.5,0.1-1.4-0.4-1.6-0.8c-0.5-1.5-0.9-3-1-4.6
		C432.4,292.5,432.1,288.5,430.9,284.4z"/>
	<path d="M795.1,404.9c-1.6-0.2-3.2-0.3-4.7-0.7c-3.3-1-5.4-3.3-5.9-6.7c-0.4-2.7,1.1-5.6,3.7-6.6
		c5.3-2.1,10.7-2,16.1-0.3c4.3,1.3,5.7,6.4,3,10c-1.8,2.4-4.2,4.2-7.4,4.4C798.3,404.9,796.7,404.9,795.1,404.9z M794.8,402
		c3.6,0,6.7-0.1,9.4-2.3c2.4-2,2-5.5-0.9-6.6c-4.3-1.6-8.4-1.5-12,1.8c-2.2,2.1-1.6,5.5,1.2,6.5C793.3,401.8,794.3,401.9,794.8,402z
		"/>
	<path d="M490.4,300c-8-0.2-11.3-4.7-9.3-11.4c1.8-6,6.5-8.9,12.6-7.4c2.2,0.5,4.4,1.4,6.3,2.6
		c3.5,2.1,4.5,6.9,1.8,10.1C498.8,297.6,494.9,300.4,490.4,300z M489,296.6c4.6,0.2,8-0.8,10.3-4c1.3-1.8,1.3-4.1-0.2-5.6
		c-2.6-2.6-5.7-3.5-9.3-2.6c-2.8,0.8-5.7,4.6-5.7,7.7c0,1.1,0.9,2.5,1.8,3.3C486.9,296.3,488.4,296.4,489,296.6z"/>
	<path d="M316.5,327.2c0.7,4.5,1.1,7.6,1.6,10.9c4.5,0.5,8.4-0.3,12.7-1.7c0.1-1.8,0.1-3.5,0.2-5.3
		c0.2-1.7-0.7-3.6,1-4.9c0.5,0.3,1.1,0.4,1.2,0.7c1.3,7.3,2.4,14.7,3.7,22.1c-0.9,0.8-2,0.9-2.6-0.4c-0.7-1.7-1-3.5-1.5-5.2
		c-0.8-2.6-1.7-3.4-4.4-3.2c-3.4,0.3-6.8,0.7-9.5,2.2c-1.8,2.4-0.4,4.8-0.7,6.9c-0.1,0.5-0.7,1.2-1.2,1.3c-0.4,0.1-1.5-0.5-1.5-0.8
		c-0.3-6.6-0.6-13.1-0.8-19.7C314.5,329.7,315.2,329.2,316.5,327.2z"/>
	<path d="M689.9,348.7c-2.9-2-1.8-5.7-4.1-8.3c-2.5-0.2-4.9,0.6-6.4,2c-1.8,3.2,2.2,6.4-2,8.9c-0.5-0.8-1.2-1.5-1.4-2.2
		c-1.1-5.6-1.3-18.5-0.2-22.6c3.6,3.1,0.8,7.5,2.7,10.9c2.4,0.8,4.7-0.1,7.2-1.1c0.8-4-0.6-8.6,2.8-12c0.6,0.7,1.2,1,1.2,1.2
		c-1.3,6.6-0.2,13.1,1.4,19.5c0.2,0.9,0.4,1.8,0.2,2.6C691.3,348.2,690.4,348.4,689.9,348.7z"/>
	<path d="M495.4,464.9c-3-6.7,0.1-13.7-3-19.5c-3.2-1.3-6,0.3-8.9,0.8c-4.6,0.8-5.5,2.2-5.7,6.9
		c-0.2,3.8-0.3,7.7-0.5,11.5c0,0.5-0.7,1.2-1.2,1.3c-1.1,0.3-1.7-0.5-1.7-1.5c-0.1-5.2,0-10.4-0.1-15.6c0-2.2,1.4-3.5,3.1-4
		c5-1.4,10.1-2.6,15.2-3.6c0.8-0.2,2.2,0.8,2.7,1.7c0.7,1.1,1,2.5,1.1,3.9c0.4,5.2,0.7,10.4,0.8,15.6
		C497.2,463,496.3,463.7,495.4,464.9z"/>
	<path d="M558.6,326.5c0.6,2.7,1.1,5.4,1.7,7.9c2.6,1.7,5.1,1,7.3,0.9c2.1-1.5,1.8-3.7,2.3-5.7c0.3-1.3,0.6-2.7,1.1-3.9
		c0.2-0.4,1.1-0.6,1.7-0.7c0.3,0,0.8,0.4,1,0.8c0.3,0.6,0.5,1.3,0.5,1.9c-0.1,6.4-0.3,12.7-0.5,19.1c0,0.2,0,0.5-0.1,0.7
		c-0.6,0.6-1.1,1.3-1.9,1.7c-0.3,0.1-1.3-0.6-1.4-1.2c-0.4-1.3-0.5-2.7-0.8-4c-0.3-1.5-0.7-3-1.1-4.7c-3.3-0.4-6.5-0.7-9.4-1
		C556,331.9,556,328.8,558.6,326.5z"/>
	<path d="M588.9,440.6c1.2,0.3,2.9,0.6,4.7,1.2c5.8,1.7,7.7,7.3,4,12.1c-1.2,1.5-3,2.8-4.8,3.6
		c-1.8,0.8-3.9,1.2-5.9,1.4c-4.5,0.6-8.6-1.8-10.5-6c-0.4-1-0.6-2.2-0.4-3.3C577.2,444.7,583.2,440.4,588.9,440.6z M589.2,443.4
		c-4.1-0.2-7.3,1.7-8.6,4.6c-0.3,0.6-0.6,1.4-0.4,1.9c0.8,2.7,2.2,5,4.9,6c4,1.5,10.3-2.3,11.2-6.5c0.4-1.9-0.3-3.7-2.2-4.5
		C592.2,444.2,590.2,443.7,589.2,443.4z"/>
	<path d="M852.6,392.3c-0.1-3.8,1.9-5.7,5.2-7.1c4-1.8,7.8-2,11.9-0.7c2.4,0.8,3.8,2.4,4.2,4.8c0.8,5.6-0.7,10.4-7.1,12
		c-2.2,0.6-4.4,1.1-6.6,1.4c-3.7,0.4-5.6-0.9-6.6-4.4C852.8,396.4,852.8,394.3,852.6,392.3z M857.1,392.8c0,1.1-0.1,2.3,0,3.4
		c0.3,2.9,1.8,4.3,4.5,3.6c2.4-0.6,4.8-1.5,6.9-2.7c2.3-1.2,3.2-4.4,2.6-7.1c-0.5-2.1-2.2-3.4-5.1-3.6c-1.3-0.1-2.7-0.1-4,0.2
		C858.6,387.2,857.2,389.2,857.1,392.8z"/>
	<path d="M931.3,393.8c0.2-3,1.2-5.9,3.5-7.9c2.5-2.2,5.7-2.8,8.9-3.1c2.7-0.2,8.6,4.5,9.5,7.1
		c1.4,3.9-0.6,8.6-4.6,10.2c-4.1,1.6-8.5,1.8-12.8,1.1C932.6,400.6,931,397.8,931.3,393.8z M938.6,398.9c3.9,0.2,6.9-0.8,9.8-2.1
		c2.2-1.1,3.1-3.4,2.3-5.7c-0.7-2.1-2.1-3.4-4.2-4c-4-1.2-7.9,0.2-10.8,3.8c-1.4,1.7-2,3.5-0.9,5.6
		C935.6,398.3,937.3,398.8,938.6,398.9z"/>
	<path d="M494.1,352.3c-1.1-6-2-11.5-0.9-17.7c6.2-2.5,12.6-4.3,19.8-4.4c0.6,2.9,1.1,5.1,1.4,7.3
		c0.6,4,1.1,8.1,1.6,12.1c0.2,1.3-0.4,2.2-2.3,2.1c-2.9-5.4-0.6-12-3.5-17.8c-4.2-0.5-8.1,1-11.9,2.1c-2,0.6-2.9,2.2-2.7,4.2
		c0.3,3.2,0.7,6.3,1.1,9.5C496.8,351,496.3,351.9,494.1,352.3z"/>
	<path d="M584.9,349.1c0.2-9.9,2.2-17.9,5.7-22.1c4.7,6.7,10.6,12.4,14.6,19.5c0.1,0.2,0.3,0.5,0.2,0.6
		c-0.2,0.6-0.2,1.4-0.7,1.7c-0.4,0.3-1.5,0.3-1.8-0.1c-1-1.2-1.7-2.7-2.6-4c-1.6-2.7-4-3.5-7-2.8c-0.7,0.2-1.3,0.5-2,0.6
		c-2.2,0.6-3.6,1.6-3.4,4.2C588.1,348.3,587.7,348.3,584.9,349.1z M591.1,333.5c-2,2.3-2.5,4-1.1,6.3c1.6-0.5,3.1-1,5.3-1.7
		C593.7,336.4,592.6,335.2,591.1,333.5z"/>
	<path d="M518.1,443.3c2.5,0.9,5.6,1.8,8.5,3.1c2.1,0.9,2.9,2.9,2.4,5.1c-0.3,1.1-0.6,2.3-1.3,3.1
		c-3.8,4.4-8.6,6.7-14.6,6c-2.9-0.4-5.4-1.7-6.4-4.5c-1.1-3-0.4-5.8,2.2-8c0.9-0.7,1.6-1.6,2.4-2.4
		C513,443.9,515.2,443.6,518.1,443.3z M518.6,446.4c-3.8-0.3-6.2,1.5-8,4.5c-1.9,3.1-0.6,6.1,3,6.4c4.7,0.4,9-0.9,12.4-4.5
		c0.9-0.9,0.7-3-0.5-3.6C523.2,448.2,520.9,447.3,518.6,446.4z"/>
	<path d="M592.5,284.6c-1.8,2.7-1.4,5.4-0.8,8.1c0.8,3.3,1.8,6.5,2.5,9.9c0.1,0.6-0.7,1.8-1.2,2
		c-0.7,0.2-1.8-0.2-2.4-0.7c-0.6-0.6-1-1.6-1.1-2.4c-0.6-3.3-1.1-6.7-1.6-10c-0.3-2-0.1-4.1-2-5.7c-2.9-0.3-5.6,1.2-8.5,1.6
		c-0.7,0.1-1.6-0.5-2.4-0.8c0.4-0.7,0.8-1.8,1.3-1.9c7.4-1.5,14.7-2.8,22.1-4.1c1-0.2,2.1,0.3,4.2,0.6c-1.4,1-2,1.8-2.6,1.9
		C597.5,283.2,594.8,283.3,592.5,284.6z"/>
	<path d="M176.2,282.9c3.7,0.3,7,1,8.6,4.7c1.8,4.1-0.6,7-3.1,9.7c-2.9,3.1-6.7,3.9-10.7,3c-3.4-0.7-5.5-3.3-6.4-6.5
		c-0.8-2.8,0-5.3,2.6-7.2C169.9,284.7,172.4,282.2,176.2,282.9z M182.5,289.9c-0.5-0.8-0.9-2.2-1.8-3c-2.3-1.9-5-2-7.6-0.6
		c-2.3,1.3-3.7,3.3-4.4,5.8c-0.9,2.9,0.2,5,3.1,5.6c4,0.9,9.6-2.6,10.6-6.6C182.4,290.8,182.4,290.6,182.5,289.9z"/>
	<path d="M216.1,278.2c-1,2.2-1,2.2-7.9,3.8c-1.7,3.8-1.4,7.8-0.8,11.8c0.2,1.5,0.6,3.1,0.6,4.6c0,1.2-1,1.9-2.7,1.6
		c-2.8-5.6-0.7-12.3-3.5-18c-3.3-0.1-6.4-0.3-9.6-0.4c0.2-0.7,0.2-1.4,0.4-1.4c7.3-1.5,14.7-2.7,22.2-2.5
		C215.2,277.8,215.6,278.1,216.1,278.2z"/>
	<path d="M762.3,463.5c-3.8-4.6-4.6-10.9-8.9-15.7c-0.9,1.5-1.7,2.5-2.2,3.7c-1.4,3.4-2.6,6.8-3.9,10.1
		c-0.2,0.4-1.2,0.8-1.7,0.7c-0.4-0.1-1-1-0.9-1.5c0.4-1.5,1-3,1.6-4.5c1.8-5.1,3.7-10.3,5.5-15.4c0.2-0.6,0.6-1.1,1.1-2
		c2.4,1.2,3,3.6,3.7,5.5c2.1,5.3,4.4,10.5,7.4,15.4C765.1,461.7,764.5,462.8,762.3,463.5z"/>
	<path d="M69,446.7c-4.3,2.3-8.2,0.5-11.3,3.4c-1.1,3.9-0.9,8.1,0.4,12.3c0.4,1.3,0.7,2.6,0.9,3.9
		c0.1,0.3-0.4,0.8-0.8,1c-0.3,0.2-1.1,0.2-1.2,0c-0.9-1.3-2-2.5-2.3-4c-0.8-4-1.3-8-1.9-12.4c-2.2-0.1-4.3-0.2-6.4-0.3
		c-1.1-2.8-1-3.4,0.7-3.6c6.1-0.8,12.2-1.6,18.3-2.2C66.3,444.7,67.2,445.7,69,446.7z"/>
	<path d="M626.7,348.4c-2,1.4-3,0.9-3.6-0.2c-1.7-3.6-2.3-7.4-2.5-11.3c-0.1-2,0.4-4.1-1.5-6.2c-1.5,0.2-3.2,0.3-5,0.6
		c-1.5,0.2-3,0.6-4.4,0.8c-1.3-1.8,0-2.6,0.9-2.8c7.2-1.5,14.4-2.8,21.6-4c0.4-0.1,1.3,0.7,1.4,1.1c0.1,0.5-0.6,1.1-1,1.5
		c-0.3,0.2-0.9,0.1-1.3,0.2c-5.9,0.7-6.7,1.4-6.7,7c0,2.7,0.5,5.4,1,8.1C625.8,344.9,626.3,346.6,626.7,348.4z"/>
	<path d="M529,278.4c0.2,0.8,0.6,1.6,0.5,2.3c-0.7,6.4-0.4,12.7,0.9,19c0.3,1.5,0,2.7-2.3,2.8c-1.8-3.1-1-7-2.6-10.4
		c-3.7-2.6-7.8-0.4-12.1-0.3c-2.1-4.3-1.3-8.4-0.6-12.5c0.5,0,0.9-0.1,1.4-0.1c0.4,2.6,0.9,5.2,1.3,8c3.4,1.2,6.7,0.9,10.1-0.4
		c0.6-2.9,1.2-5.7,1.7-8.5C528,278.3,528.5,278.4,529,278.4z"/>
	<path d="M134.4,507.9c6.7-1.4,12.6-2.7,18.6-3.8c0.9-0.2,2,0.2,1.9,1.3c-0.1,0.7-0.8,1.5-1.5,1.8c-0.5,0.3-1.3,0-2,0.1
		c-4.3,0.2-8.4,1.6-12.3,3c-1.1,3.4-0.1,6.2,0.8,8.9c0.4,1.5,0.9,3,1,4.6c0,0.6-1,1.5-1.7,1.7c-0.7,0.2-1.7-0.2-2.3-0.7
		c-0.5-0.3-0.7-1.1-0.8-1.8C134.9,518.2,134.6,513.3,134.4,507.9z"/>
	<path d="M473.2,337.8c-1.3,2.6-1.2,5.3-0.8,8.1c0.2,1.6,0.6,3.1,0.7,4.7c0,0.7-0.5,1.7-1.1,2.2
		c-0.7,0.6-2.1-0.5-2.3-1.9c-0.3-2.2-0.4-4.5-0.6-6.8c-0.2-2,0.4-4.1-1.1-5.8c-2.6-1.9-6.3,1.1-9-1.9c4.9-1.9,18.7-3.3,23.8-2.4
		C480.5,337.5,476.2,335.2,473.2,337.8z"/>
	<path d="M773.5,345.3c-2-3.5-1.6-7.7-2.3-11.6c-0.6-2.9-0.4-5.8-0.5-8.8c0-0.6,0-1.5,0.4-1.9c0.6-0.6,1.5-1,2.3-1.1
		c0.5,0,1.2,0.6,1.5,1.2c0.3,0.5,0.4,1.3,0.3,1.9c-0.6,4.6-0.1,9,0.9,13.4c0.4,1.7,0.3,3.6,0.2,5.4
		C776.1,345.1,775.2,345.7,773.5,345.3z"/>
	<path d="M69,281.2c0.7,0.5,1.7,0.8,1.9,1.4c1.6,5.5,3.1,11,4.5,16.5c0.2,0.6,0.2,1.6-0.2,1.9c-0.6,0.5-1.5,0.6-2.3,0.7
		c-0.3,0-0.8-0.5-0.9-0.9c-1.6-5.9-3.9-11.7-3.8-18C68.2,282.4,68.5,282,69,281.2z"/>
	<path d="M355.9,414.7c-2.5-3.9-1.4-6.5-0.9-9c0.3-1.4,1.2-3.2,2.3-3.9c1.7-1,3.8-1.1,5.8-1.5c0.3-0.1,0.7,0.5,1.4,1
		C362.3,405.7,358.1,408.8,355.9,414.7z"/>
	<path d="M150.6,443.9c1.1,1.2,1.8,1.6,1.8,2.1c1,6.5,1.8,12.9,2.7,19.4c0,0.4-0.2,0.9-0.5,1.2
		c-0.3,0.3-0.7,0.6-1.1,0.6c-0.4,0-1.1-0.2-1.2-0.4c-0.5-1.3-1-2.6-1.1-3.9c-0.5-5.4-0.9-10.8-1.3-16.2
		C150,446.2,150.2,445.5,150.6,443.9z"/>
	<path d="M992.3,463.3c4.3-2.6,4.3-2.6,7.7-1.3c-2.8,4.2-5.6,8.4-9,13.4c-0.4-1.8-0.9-2.6-0.7-3.3
		C990.8,469.3,991.6,466.5,992.3,463.3z"/>
	<path d="M254,433.6c-1.4,4.8,1.1,9.4-1.3,13.5c-0.8-0.5-1.6-0.8-1.9-1.3c-1-2.3-2-4.6-2.7-7c-0.7-2.2,0-3.4,2.1-4.3
		C251.5,434.1,252.8,433.9,254,433.6z"/>
	<path d="M319.1,280.5c2.5,5.3,1.5,11.4,4.6,16.3c-1.6,1.8-3.4,1.9-4,0.1C318,291.6,317.7,286.1,319.1,280.5z"/>
	<path d="M344.8,277c-4.2-1.3-6-3.7-7.2-6.7c-0.8-2,0.4-3.1,4.4-3.8C342.8,269.6,343.7,272.8,344.8,277z"/>
	<path d="M92,311.8c-1.1-4.2-0.4-6.9,1.4-9.2c1-1.3,2.8-1.3,4.3,0.6C96.5,305.9,95.2,308.6,92,311.8z"/>
	<path d="M959.8,402.7c0.2-0.4,0.3-0.9,0.5-1.2c1.4-1.5,3.2-1.6,5-0.8c0.6,0.3,1.1,1.5,1,2.2c-0.1,1.5-1.3,2.3-2.7,2.5
		c-1.4,0.3-2.7-0.2-3.5-1.4C959.8,403.6,959.8,403.1,959.8,402.7z"/>
	<path d="M489.2,522.3c2.1,0.4,3.6,2.1,3.1,3.6c-0.4,1.4-2.2,2.3-3.8,2c-1.3-0.3-2.1-1.5-1.9-3.1
		C486.8,523.1,487.9,522,489.2,522.3z"/>
</g>
<g>
	<path d="M301.1,199.9c-4.3-0.8-7.6,0.2-11,0.9c-2,0.5-3.1,1.7-3.6,3.7c-0.5,2-1.1,3.9-1.7,5.8c-2.7-0.8-3.2-1.3-2.7-3
		c0.9-2.8,1.9-5.6,2.9-8.4c2.8-8.7,5.5-17.4,8.3-26c0.3-0.8,0.9-1.4,1.6-2.5c0.9,1,1.7,1.5,1.9,2.3c0.7,2.2,1.4,4.4,1.7,6.6
		c0.9,5.9,3,11.4,5.3,16.9c1.5,3.6,3,7.1,6.7,9.2c1.4,0.8,2.4,2.3,1.6,4.1c-0.8,2.1-3.6,4-5.3,3.7c-0.8-0.2-1.7-0.9-2-1.6
		c-0.9-2.1-1.5-4.3-2.2-6.4C302.1,203.4,301.6,201.7,301.1,199.9z M293.9,183.3c-2.5,4.5-4.1,8.7-4.7,13.7c3.7,0.4,6.7,0.2,9.5-1.9
		C298.2,190.9,297.3,187.1,293.9,183.3z"/>
	<path d="M7.9,55.9c1.3,0.4,2.4,0.7,3.7,1.1c-0.6,6.7-2.5,13-2.4,20.5c2.3-1.3,3.7-2,4.8-2.8
		c6.6-4.9,13.1-9.8,19.7-14.7c0.3-0.3,1.4,0,1.7,0.3c0.3,0.4,0.1,1.5-0.2,1.7c-2.9,2.2-5.9,4.3-8.8,6.5c-2.4,1.8-4.6,3.7-6.9,5.6
		c-1.3,1.1-1.7,2.6-1.6,4.3c0.3,4.9,1.7,9.4,4.2,13.5c0.8,1.3,2,2.7,0.1,4.6c-4.6-4-5.1-11-9.9-14.7c-3,0.6-3.7,2.6-4,5
		c-0.3,2.7-0.8,5.4-1.4,8c-0.1,0.6-1.2,1-2.4,1.9c-0.3-6.2-0.7-11.6-0.1-17C5.2,72.6,6.1,65.4,7,58.2C7.1,57.5,7.5,56.9,7.9,55.9z"
		/>
	<path d="M234.4,152.4c-2.1-9.1,0.2-17.7,0-26.5c1.4-0.5,2.6-1.2,3.8-1.3c5-0.6,10-0.9,15-1.4c1.2,1.9,0.2,2.6-1.4,2.8
		c-3.2,0.4-6.4,0.6-9.5,1.1c-4.2,0.7-4.8,1.6-4.9,6c0,1.3,0.2,2.6,0.4,4.4c2.1,0,3.8-0.1,5.6-0.1c5.7-0.2,11.5-0.4,16.9,1.9
		c0.8,0.4,1.7,0.6,2.5,1.1c3.2,1.8,3.6,5,0.7,7.1c-0.7,0.6-1.5,1.1-2.3,1.4C252.8,152.7,244.2,154.3,234.4,152.4z M262.2,144.6
		c-7.6-5.9-15.2-5.5-22.9-3.6c-1.8,0.4-2.3,2-2.5,3.7c-0.2,1.9,0,3.8,1.9,4.7c1.2,0.6,2.5,0.9,3.9,1c5.8,0.5,11.3-1.2,16.6-3.2
		C260.1,146.9,260.8,145.9,262.2,144.6z"/>
	<path d="M222.6,31.6c1-9.7-2-19.3,0.5-29.3c6.5,0.9,11.9-0.7,17.4-2c0.7-0.2,1.4-0.4,2-0.2c0.5,0.1,1.3,0.7,1.3,1.1
		c0,0.5-0.5,1.4-1,1.5c-4.2,0.9-8.5,1.6-12.7,2.4c-1.1,0.2-2.2,0.6-3.3,0.9c-1.9,3.2-2.5,6.3-0.5,10c3.6-0.4,7.2-0.7,10.8-1
		c3.7-0.4,7.3-0.1,10.7,1.6c4.2,2.1,5.2,5.9,2.1,9.5c-1.3,1.5-3.1,2.8-4.9,3.5c-6.5,2.2-13.4,2.5-20.2,3.1
		C224.3,32.5,223.9,32.2,222.6,31.6z M227.2,28.8c6.6,0.3,12.6-0.1,18.4-2.8c1.5-0.7,2.9-1.7,2.8-3.6c-0.1-1.8-1.4-3-3-3.4
		c-2.4-0.7-4.9-1.2-7.4-1.4c-1.6-0.2-3.2,0.2-4.8,0.3C227.2,18.5,223.6,19.8,227.2,28.8z"/>
	<path d="M315.6,68.2c4.1-2.9,8.8-3.6,13.7-3.1c2.4,0.2,3.6,1.6,3.7,4.1c0,0.4,0,0.9-0.1,1.4
		c-0.6,8.9-0.3,17.7,1.3,26.5c0.1,0.6,0.1,0.6-1.5,2.9c-1.6-1.8-1-3.9-1.3-5.8c-0.3-2-0.4-4.1-0.6-6.1c-0.3-2-0.6-4-0.9-6
		c-2.6-1.4-4.7-0.5-6.5,0.8c-5.2,3.8-9.6,8.4-12.5,14.2c-0.9,1.8-1.8,3.7-2.9,5.4c-0.3,0.4-1.1,0.5-2.2,1c0.1-3.3,1.9-5.4,3-7.7
		c1.2-2.4,2.8-4.7,4.1-7.1c1.3-2.4,2.5-4.8,3.6-7c-1.1-2.9-3.8-3-5.7-4.1c-2.8-1.7-3.3-5.4-0.6-7.3c1.6-1.1,3.7-1.5,5.6-2.2
		c-0.8,0.8-1.7,1.5-2.5,2.3c-1.8,2-1.5,4.6,1,5.5c4.9,1.9,9.9,3.2,15.2,1.6c0.8-3.6,0.9-6.8-0.3-9.9c-2.7-1.6-5.1-1-7.6-0.6
		C319.6,67.4,317.6,67.8,315.6,68.2z"/>
	<path d="M67.8,24.4c2.6,0.1,4.5,0.3,6.4,0.4c2,2.1,1,4.5,1.1,6.7c0.1,2,0,4,0.1,5.8c-1.6,0.9-2.5,0.3-2.8-0.9
		c-0.7-2.4-1.1-4.8-1.7-7.6c-1.6-0.2-3.1-0.7-4.6-0.6C60.6,29,55,29.8,49.4,31c-4,0.8-4.1,1.2-4,5.7c0.1,2.5-0.6,3.9-1.8,3.6
		c-1.8-0.4-1.6-1.9-1.8-3.2c-0.1-1.1-0.1-2.3-0.2-3.4c-0.2-4.8-0.3-5,4.4-6.7c2.1-0.8,3.4-2.3,4.2-4.1c1.1-2.5,2-5.1,3-7.6
		c1.1-2.8,2.6-5.2,5.8-7c0.7,1,1.6,1.9,2.2,3C63.5,15.4,65.6,19.7,67.8,24.4z M63.2,25.5c0.1-3.8-0.1-4.7-2.9-10
		c-0.5-0.9-1.4-1.5-2.2-2.2c-3,3.8-5,8.4-5.2,11.1c-0.1,1.3,1.1,2.8,2.5,2.6C58,26.7,60.8,27.1,63.2,25.5z"/>
	<path d="M15.8,18c1.7-4.7,6.4-6.1,7.8-10.6c-2.4-1.4-5-0.9-7.3-0.9c-2.7,0-5.5,0.4-8.2,0.4C5.6,6.9,3.1,6.7,0,6.5
		c1-0.7,1.4-1.2,1.9-1.2C11.2,4,20.5,3.8,29.5,3.8c1.3,1.6,0.4,2.4-0.1,3.4c-1.6,2.7-4.4,4.6-4.9,8c0.7,2.1,2.7,2.3,4.3,3
		c5.9,2.8,8.1,12,4,16.9c-1.8,2.2-4.2,3.5-7.2,3.3c-0.2,0-0.5,0-0.7-0.1c-1.1-0.1-2.3-0.2-3.4-0.4c-4.9-0.9-9.8-1.8-14.6-2.7
		c-0.2-1.3,0.3-2,1.3-1.9c3.4,0.4,6.8,0.9,10.2,1.4c2.5,0.3,5,0.9,7.5,0.9c3.5,0.1,5.5-2,5.7-5.4c0-0.9,0-1.8-0.1-2.7
		c-0.7-4.8-2.7-6.7-7.5-7.5c-1.8-0.3-3.6-0.6-5.3-0.9C17.8,18.9,17,18.4,15.8,18z"/>
	<path d="M8.8,137.1c1.2,0,2.5,0.1,3.8,0c2.5-0.2,5-0.5,7.5-0.6c3.9-0.1,7,2,9.7,4.5c2.2,2,1.8,6-0.7,7.8
		c-1.2,0.9-2.7,1.7-4.2,2.2c-1.7,0.5-3.6,0.9-5.4,0.7c-4.7-0.4-9.5,1.2-14.4-0.4c-2-4.2-0.1-8.5-0.5-12.7c-0.4-4.3-0.3-8.6-0.4-13.1
		c1.6-0.7,3-1.7,4.4-1.9c5.2-0.9,10.4-1.5,15.6-2.1c0.4-0.1,1.1,0.7,1.4,1.2c0.4,0.7-0.6,1.9-1.5,1.7c-3.9-0.7-7.7-0.2-11.5,0.6
		c-2.5,0.6-4,2.1-4.4,4.6C7.7,131.9,7.2,134.4,8.8,137.1z M16.5,149.4c1.8-0.1,4-0.1,6.3-0.4c1.8-0.2,3.7-0.6,4.3-2.7
		c0.6-2.1-0.3-4.1-1.9-5.4c-1.2-0.9-2.7-1.8-4.2-2c-3.6-0.5-7.2,0.2-10.6,1.5c-0.9,0.3-1.7,1.4-2.1,2.4c-0.8,2.1,0.9,5.4,3.1,6
		C12.8,149.1,14.4,149.2,16.5,149.4z"/>
	<path d="M70.8,214.4c-0.1-3.1-0.3-5.1-0.1-7c0.6-9.5,1.2-19.1,1.9-28.6c0-0.3,0.6-0.5,1-0.8c1.3,0,1.4,1,1.4,1.9
		c-0.1,2.7-0.3,5.5-0.5,8.2c-0.1,2,0,3.9,0,5.8c2.1,0.7,3-0.6,4-1.4c5-4,9.9-8.1,14.9-12.1c0.9-0.7,1.9-1.3,3-0.2
		c-0.1,2.3-2.1,2.9-3.5,3.7c-4.5,2.4-6.9,6.6-9.4,10.6c-1,1.5-0.9,3.1,0,4.5c2.1,3.2,4.3,6.5,6.4,9.7c0.6,0.9,1.3,1.8,1.7,2.9
		c0.2,0.4-0.4,1.2-0.8,1.7c-0.2,0.2-1,0.3-1.2,0c-0.8-0.7-1.6-1.6-2.3-2.4c-2-2.5-3.8-5.1-5.8-7.6c-0.9-1-2-1.9-3.1-2.7
		c-2.1-1.4-4.3-0.4-4.4,2.1c-0.1,1.6,0.4,3.1,0.4,4.7C74.5,209.6,74.7,212.2,70.8,214.4z"/>
	<path d="M355,89c3.1,1.5,6,1.3,9.1,0.6c1.6-5.2-1.1-9.9-1.1-14.9c1.5-1.4,2.5-0.8,2.8,0.9c0.5,2.7,0.7,5.4,1.2,8.1
		c0.3,1.5,0.9,3,1.3,4.7c2.3,0.6,4.4,1.1,6.7,1.7c1.1,2.5,0.7,5,0.3,7.4c-0.1,0.5-0.8,1.2-1.4,1.3c-0.5,0.1-1.5-0.2-1.8-0.6
		c-1-1.5-1.7-3.2-2.6-4.8c-9.1-0.1-17.9-0.2-26.8-0.4c-0.4,0-0.8-0.4-1.6-0.8c-1-4.5-2-9.2-0.7-14.2c2.3,0.6,1.7,2.2,1.8,3.4
		c0.1,1.4-0.1,2.8,0.2,4.1c0.2,1.3,0.8,2.6,1.3,4.2c2,0.2,4,0.5,5.8,0.7c0.5-1,1.1-1.6,1.1-2.2c0.1-2.7-0.1-5.5,0-8.2
		c0-1.5,0.4-2.9,0.7-4.3c1.7,0,2,1,2,1.9C353.1,81.6,353.9,85.4,355,89z"/>
	<path d="M110.2,24.9c-1.2,1.2-1.6,2.2-2.2,2.3c-6.7,1.3-13.4,2.5-20.6,3.9c-0.4-0.8-1.3-1.6-1.4-2.6
		c-0.8-5.8-1.9-11.7-0.7-17.8c6-2.3,12.4-3.2,18.6-4.4c0.8-0.2,1.7,0.2,2.5,0.4c-0.2,2.5-1.8,3-3.4,2.8c-2.8-0.3-5.5,0.1-8.1,0.9
		c-4.4,1.3-4.9,2.3-3.5,7.7c4.3,0.5,8.7-1.2,13-0.9c0.2,2.2-0.9,2.2-1.7,2.4c-2.9,0.6-5.8,1.1-8.7,1.8c-2.2,0.5-3.1,1.7-2.9,3.1
		c0.3,1.8,1.8,2.7,4.2,2.4c2.3-0.3,4.5-0.9,6.7-1.3C104.3,25.1,106.7,24.5,110.2,24.9z"/>
	<path d="M447.1,81.9c1.4-0.4,2.5-0.5,3.4-1c3.3-2,6.6-4.1,9.9-6.1c0.8-0.5,1.6-0.8,2.5-1.1c0.3-0.1,0.9,0.3,1.1,0.6
		c0.2,0.3,0.4,1,0.2,1.2c-0.8,1.1-1.8,2-2.6,3.1c-1.3,1.6-2.6,3.2-3.6,4.9c-1.2,2.1-0.7,3.8,1.2,5.4c0.9,0.7,1.9,1.3,2.8,2
		c0.9,0.8,1.1,2.6,0.2,3c-0.7,0.3-1.9,0.4-2.5,0c-2-1.4-3.9-3.1-5.8-4.7c-0.9-0.7-1.7-1.6-2.6-2.2c-2.5-1.9-4.4-1-4.7,2
		c-0.1,1.8,0,3.6-0.1,5.5c-0.1,0.9-0.1,1.9-0.6,2.6c-0.4,0.6-1.5,0.9-2.2,1c-0.4,0-1.2-0.9-1.2-1.4c0.3-7.5,0.7-15,1.1-22.5
		c0.1-0.9,0.5-1.8,1-2.5c0.3-0.4,1.1-0.5,1.7-0.5c0.3,0,0.9,0.6,0.9,0.9c-0.1,2-0.3,4.1-0.3,6.1C446.8,79.3,447,80.4,447.1,81.9z"/>
	<path d="M425,156.9c-2.6-6.4-5.3-12.9-8-19.3c-0.1-0.1-0.4-0.2-1-0.4c-2.1,0.6-3.3,2.6-4.6,4.3
		c-1.3,1.7-1.4,4.3-3.9,5.6c-3.1-2.1-2-6.5-4.9-8.5c-1.7-0.1-1.9,1.3-2.2,2.2c-1.5,5-2.8,10-4.3,15c-0.2,0.7-1.2,1.1-1.8,1.6
		c-0.2-0.8-0.8-1.6-0.6-2.3c0.7-2.6,1.6-5.2,2.4-7.8c1.5-5,3-10,4.7-15c0.2-0.8,1-1.8,1.6-1.8c0.6-0.1,1.6,0.8,1.9,1.5
		c0.6,1.5,0.8,3.1,1.3,4.6c0.4,1.2,1.1,2.4,1.9,3.9c3.1-1.8,3.8-4.7,5.1-7.2c0.8-1.6,1.5-3.3,2.5-4.8c0.6-1,2.5-0.8,2.9,0.2
		c0.6,1.4,1.3,2.9,1.5,4.5c1.1,6.1,2.6,12,6,17.3c0.8,1.3,1.2,2.9,1.5,4.5C427.3,156,426.7,157,425,156.9z"/>
	<path d="M129.9,189.4c5.8-4,12.1-4.1,18.5-3.2c3.7,0.5,6,3.1,7.7,6.2c1.3,2.4,0.5,6-1.5,8.2c-2.7,2.9-6.2,3.7-9.9,4
		c-2.5,0.2-5,0.2-7.5,0.7c-3,0.6-4.8,2.4-4.9,5.7c0,2.5,0,5-0.2,7.5c0,0.5-0.8,1.2-1.3,1.2c-0.4,0-1-0.7-1.3-1.2
		c-0.2-0.3-0.3-0.9-0.3-1.3c0-8.9,0-17.7,0.1-26.6C129.4,190.3,129.6,190.1,129.9,189.4z M133.4,200.7c2,0.1,3.4,0.1,4.7,0.3
		c1.5,0.3,3,1.1,4.6,1.1c2.2,0,4.5-0.2,6.6-0.8c2.5-0.7,4.5-2.3,4.7-5.2c0.2-2.8-1.3-4.8-3.5-6.2c-1.3-0.8-2.9-1.5-4.4-1.6
		c-2.5-0.2-5-0.2-7.4,0.3c-5.7,1.1-6.8,2.7-6.2,8.4C132.6,198.1,133,199.2,133.4,200.7z"/>
	<path d="M314,151.7c0.2,2.9,0.4,5.6,0.5,8.3c0.1,1.1,0.3,2.3-0.1,3.4c-0.2,0.7-1.2,1.5-1.9,1.5c-0.6,0-1.6-1-1.7-1.6
		c-0.4-5-0.7-10-1-15c-0.3-5-0.4-10-0.6-15.1c5.9-4.3,11.6-5.2,18.1-2.1c4.9,2.3,7.2,10.5,1.1,13.9c-3,1.7-6,3.2-9.1,4.7
		C317.9,150.5,316.1,151,314,151.7z M313.7,147.4c5.5,1.4,9.9-1.1,13.7-4.3c3-2.5,2.2-7.2-1.2-9.1c-3.6-2.1-7.4-1.9-11.2-0.7
		c-1.6,0.5-2.7,1.8-2.7,3.5C312.4,140.3,312.1,143.9,313.7,147.4z"/>
	<path d="M508.9,92.4c8.2-4.3,11.5-12.6,17.9-18.5c0.7,1.2,1.4,1.8,1.5,2.6c0.5,6.6,0.9,13.1,2.9,19.5
		c0.5,1.7-0.5,2.5-2.6,2.2c-1.3-4.4-1.2-9.2-3.5-13.9c-1.4,0.8-2.7,1.2-3.7,2c-4.1,3.3-7.7,7-10.7,11.4c-0.9,1.3-1.7,2.7-3.9,2.7
		c-0.3-0.7-0.9-1.5-1-2.3c-0.6-6.8-1.1-13.5-1.6-20.3c0-0.2,0.7-0.5,1.4-1C507.8,81.5,506.3,87,508.9,92.4z"/>
	<path d="M411.7,73c5.7-1.7,10.5-1.8,15.3-1.6c3.2,0.2,5.6,1.6,7.1,4.6c1.5,3,1.1,5.8-1.6,7.9c-3.4,2.7-7.1,5-11.6,5.3
		c-1.8,0.1-3.5,0.6-5.7,1.1c-0.1,1.9-0.4,3.7-0.3,5.4c0.1,2.9,0.4,5.9,0.4,8.8c0,1.9-0.9,3.2-2,3c-1.4-0.4-1.4-1.5-1.5-2.7
		c-0.3-8.6-0.6-17.2-0.8-25.9C410.9,77,411.4,75,411.7,73z M424.5,73.7c-0.5,0-0.9,0-1.4,0c-9.8,0.5-9.6,2.3-9,10.9
		c0.1,1.8,1.4,2.7,3.2,2.8c5.4,0.3,9.7-1.9,13.3-5.7c1.4-1.5,1.4-3.3,0.3-5C429.4,74.4,427,73.9,424.5,73.7z"/>
	<path d="M132,128.7c-0.1,3.7-4.9,5.4-4.5,9.6c1.8,2.3,5,1.6,7.4,3c3.2,1.9,4.1,5.8,1.7,8.6c-0.4,0.5-0.9,1-1.5,1.4
		c-1.4,0.8-2.7,1.8-4.2,2.2c-6.4,1.8-13,2.2-19.6,1.6c0-2,1.2-2,2.3-2c4.1-0.2,8.2-0.1,12.3-0.7c2.4-0.3,4.8-1.4,7-2.4
		c1.5-0.7,2.5-2.3,1.9-4c-0.4-1.1-1.6-2.3-2.8-2.6c-1.9-0.6-4-0.8-6-0.9c-1.8-0.1-3.6,0.3-5.5,0.3c-0.8,0-1.9-0.3-2.3-0.9
		c-0.8-1.2,0.3-2,1.1-2.8c2-1.8,4.1-3.6,6-5.5c0.6-0.6,0.8-1.5,1.3-2.5c-4-1.8-8.3,1.2-12.1-1.1c0.7-0.8,1-1.4,1.3-1.4
		c5-0.3,10-0.5,15-0.7C131.2,127.9,131.5,128.4,132,128.7z"/>
	<path d="M177.1,145.8c-1,4-0.4,7.4-0.4,10.8c0,1.8-0.3,3.5-0.7,5.3c-0.1,0.3-1.1,0.6-1.7,0.7c-0.3,0-0.8-0.5-0.9-0.8
		c-0.2-1.1-0.4-2.2-0.3-3.3c0.8-6.6,0.5-13.1-0.1-19.7c-0.1-0.9-0.1-1.8-0.1-2.7c-0.1-2.2,0.6-4,2.7-5.1c2.5-1.2,4.9-2.5,7.5-3.3
		c4.9-1.6,9.6,1.3,10.9,6.3c1.2,4.7-2,9.7-7,10.6c-1.6,0.3-3.2,0.2-4.8,0.4C180.6,145.1,179.1,145.4,177.1,145.8z M177,142
		c4.1,1.2,7.4,1.1,10.7-0.1c3.1-1.1,4.6-4,3.9-7c-0.7-3.1-3.4-5.3-6.3-5.2c-4.5,0.1-7.8,2.9-8.4,7.3C176.8,138.4,177,140,177,142z"
		/>
	<path d="M323.6,205.1c-0.6-0.8-1.2-1.3-1.3-1.9c-0.3-2.9-0.6-5.9-0.6-8.8c0-2.5,0.5-4.9,0.8-7.3
		c1.3-0.7,2.2-1.5,3.3-1.7c5.1-1.3,10.2-2.5,15.3-3.6c4.1-0.8,6.2,0.9,6,5c-0.3,5.5-0.4,10.9,0.4,16.3c0.1,0.9,0.1,1.8-1.5,2
		c-0.3-0.4-0.8-0.9-0.8-1.5c-0.3-4.5-0.4-9.1-0.6-13.6c-0.2-3.4-1.4-4.6-4.7-4.3c-2.5,0.2-4.9,0.8-7.4,1.3c-6.2,1.3-7.1,1.1-6.5,9.3
		c0.1,1.8,0.8,3.5,0.9,5.3c0.1,0.8-0.2,1.8-0.8,2.4C325.4,204.6,324.4,204.7,323.6,205.1z"/>
	<path d="M147.3,150.2c-2.3-1.6-2.2-3.7-2.3-5.8c-0.2-4.6,0.6-8,2.7-12.5c5.3-1,10.6-2.1,15.8-3.1
		c1,1.3,1.1,2.4-0.4,2.8c-3.1,0.8-6.3,1.3-9.4,2c-0.9,0.2-1.8,0.5-2.6,0.9c-1.2,0.5-1.9,1.5-1.4,2.7c0.3,0.6,1.3,1.2,2.1,1.3
		c1.6,0,3.2-0.5,4.8-0.5c1.3,0,2.6,0.2,5,0.5c-1.4,1.1-1.9,1.9-2.6,2c-2.7,0.5-5.4,0.8-8.1,1.4c-0.6,0.1-1.3,1.3-1.3,2
		c0,0.7,0.8,1.8,1.4,2c1.3,0.4,2.7,0.3,4,0.3c3.2,0.1,6.4,0.1,9.6,0.3c0.4,0,1.2,0.9,1.2,1.3c0,0.5-0.9,1.3-1.3,1.3
		C158.7,148,152.9,149.5,147.3,150.2z"/>
	<path d="M349.5,30.9c-2.6-3.9-1.4-8.7-3.1-13.3c-0.9,0.4-2,0.7-2.7,1.3c-3.4,3-6.7,6.1-10.1,9.1c-1.2,1-2.4,2-3.6,3
		c-2.2-2.9-2.7-4.6-3.3-13.6c-0.1-2.1-0.8-4.4,1.2-6.6c2,2.2,0.9,4.6,1.4,6.6c0.5,2.2,0.9,4.4,1.2,6.2c1.7,1.1,2.6,0.3,3.4-0.5
		c3.8-3.9,7.4-8,11.2-11.9c0.6-0.7,1.2-1.4,2-1.8c0.9-0.5,1.8-0.1,2.3,0.8c0.3,0.6,0.5,1.3,0.6,1.9c0.6,5.4,1.1,10.8,1.6,16.2
		C351.6,29.6,351.3,30.7,349.5,30.9z"/>
	<path d="M37.1,146.7c0.4-4.1,0.8-8.1,1.2-12.2c0.2-2.5,1.6-4.2,3.8-5.2c2.9-1.4,6-2.1,9.3-1.9c3.7,0.3,6.1,2.4,7.1,6.3
		c0.9,3.5-0.5,6.8-3.6,8.8c-2.4,1.5-5,2.1-7.8,2.3c-1.4,0.1-2.7,0-4.1,0.1c-1.5,0.2-2.7,1.1-2.7,2.6c-0.1,2.7,0,5.4,0.3,8.1
		c0.2,2.1,0.4,4.1-1,5.8c-0.3,0.3-0.8,0.7-1.1,0.6c-0.6-0.2-1.4-0.7-1.4-1.1c-0.2-1.8-0.3-3.6-0.3-5.4c0.1-2.9,0.3-5.9,0.5-8.8
		C37.1,146.7,37.1,146.7,37.1,146.7z M40.3,141.9c5.8,1.2,10.1,0.7,13.3-1.3c2.1-1.3,2.9-3.5,2.3-5.9c-0.9-3.1-3.3-4.8-6.7-4.6
		c-4.6,0.3-6.5,1.7-7.9,6.1C40.8,137.9,40.7,139.7,40.3,141.9z"/>
	<path d="M448,129.3c1-0.7,1.4-1.2,1.7-1.2c8.2,0.6,16.4-0.5,24.6-1c0.5,0,0.9-0.1,1.4,0c1.2,0,2.3,0.1,2.7,1.5
		c0.3,1-1.4,1.9-3,1.8c-2-0.2-4.1-0.6-6.1-0.4c-4.4,0.3-5.7,1.4-5.9,5.9c-0.2,3.6,0.3,7.2,0.6,10.8c0.3,2.9,1.5,5.7,0.5,8.6
		c-0.3,0.3-0.4,0.5-0.6,0.5c-3.2,0.9-4.2,0.5-4.3-2.1c-0.2-5.9-0.2-11.8-0.3-17.7c0-1.3-0.2-2.6-0.3-3.9
		C455.8,129.7,451.6,131.9,448,129.3z"/>
	<path d="M275.2,157.4c0.1-6.8,0.2-12.9,0.3-19.3c4.3-2.1,9-2.8,13.6-3.8c0.5-0.1,1.1,0.6,1.7,0.9
		c-0.4,0.7-0.7,1.9-1.3,2c-2.4,0.6-4.9,0.9-7.3,1.5c-1.1,0.3-2.3,0.7-3,1.5c-0.6,0.8-0.9,2-0.9,3.1c0,1.3,1,2.1,2.2,2.2
		c2,0,4.1-0.3,6.1-0.4c1.5-0.1,3.2-0.8,4.5,1c-0.4,0.4-0.8,1.1-1.2,1.2c-2.5,0.5-5,0.8-7.4,1.2c-1.1,0.2-2.2,0.5-3.2,1
		c-0.5,0.2-1,1.2-0.9,1.6c0.2,0.8,0.8,1.8,1.4,2c1,0.3,2.2,0.1,3.4,0c5.2-0.3,10.5-0.7,15.7-1c0.3,0,0.8,0.9,1,1.5
		c0.1,0.2-0.4,0.9-0.7,1c-0.9,0.2-1.8,0.3-2.7,0.4c-3,0.2-5.9,0.2-8.9,0.6C283.8,156,280,156.7,275.2,157.4z"/>
	<path d="M223.4,194c4.2,0.9,7.7-0.5,11.3-0.7c2.9-0.2,5.4,0.5,7.6,2.4c2.1,1.8,2.1,4.1-0.3,5.7
		c-4.2,2.8-8.7,4.7-14.1,4.4c-7.3-0.5-8.2-1.1-9.1-8.1c-0.3-2.5-0.6-5-0.8-7.5c-0.1-0.9,0.1-1.9,0.4-2.7c0.2-0.5,1-1.2,1.5-1.1
		c0.8,0.1,1.9,0.6,2.1,1.2C222.6,189.5,222.9,191.5,223.4,194z M240.1,198.6c-0.2-0.4-0.3-0.6-0.4-0.8c-1.9-2.3-4.5-1.9-6.9-1.6
		c-2.9,0.4-6,0.3-8.3,2.5c-0.9,0.9-0.8,2.1-0.1,3.1c0.5,0.7,1.3,1.3,2.1,1.6c2.2,0.9,4.5,0.9,6.6,0
		C235.8,202.3,238.9,201.7,240.1,198.6z"/>
	<path d="M483,79.1c2,0.4,4,1,6,1.2c4.2,0.5,5.7,3.4,6.5,6.9c0.7,3.2-1.1,5.7-3.5,7.6c-4.4,3.5-9.5,4.1-14.9,3.1
		c-2.9-0.5-5.5-3.9-5.7-6.9c-0.1-3.8,1.1-7.1,3.9-9.8C477.5,79,480.1,79,483,79.1z M485.4,82.6c-4.5-0.6-7.7,2.2-10.3,5.8
		c-1.2,1.7-1.1,3.5,0.5,4.9c1,0.9,2.2,1.7,3.5,2c4.3,0.9,8.1-0.4,11.6-3c1.9-1.4,2.1-3.4,1.7-5.5c-0.4-2-1.8-3.1-3.7-3.5
		C487.7,83.1,486.8,82.9,485.4,82.6z"/>
	<path d="M385.4,69.9c4.7-0.9,8.7-2.5,13.6-2.2c-2.5,5-8.3,1.5-11.3,6.1c-0.5,1.7-0.6,4.3,0.6,7.3
		c3.3-0.1,6.5-0.2,11.2-0.4c-1.6,1.3-2.1,2.1-2.7,2.3c-2.6,0.8-5.3,1-7.6,2.6c-0.9,2.7-0.4,5.1,1.2,7.6c4.6,1,9.2-1.2,13.9-0.9
		c1.1,1.4,0.6,2.3-0.7,2.5c-4.5,0.7-9,1.4-13.5,2c-2.3,0.3-3.6-0.7-3.8-2.8c-0.6-6.8-1.1-13.6-1.5-20.3
		C384.6,72.7,385.1,71.6,385.4,69.9z"/>
	<path d="M21.3,199.3c-3,2.3-5.3,4.4-8,6.1c-2.6,1.6-4.1,4.9-8,5.2c-1.9-6.8,0.3-13.1,0.6-19.3c2.1-0.4,2.1,0.7,2.1,1.6
		c-0.2,2.3-0.6,4.5-0.7,6.8c-0.1,1.8,0,3.5,0,5.7c7.6-3,11.7-9.5,17.1-14.1c0.6,0.6,1.2,0.9,1.2,1.2c-0.4,6.1-1.3,12.2,0.5,18.3
		c0.3,1-0.9,1.3-2,0.9C22.4,208,23.2,203.6,21.3,199.3z"/>
	<path d="M174.9,76.9c1.8-4.4,0.2-8.6,2.1-13.5c1.4,3,0.7,5,0.8,6.9c0.1,2,0,4.1,0.1,6.1c0.1,1.8,0.2,3.6,0.3,5.4
		c0.1,2,0.2,4.1,0.5,6.1c0.2,2,0.7,4,1,5.9c-1.4,1.4-2.3,0.7-2.6-0.5c-0.4-1.5-0.3-3.2-0.6-4.7c-0.4-2.4-0.4-5-1.6-7.3
		c-4.2-0.6-7.7,1.2-10.9,2.4c-1.8,3.3-0.2,6.1,0,9c0.1,1.2-0.3,2.3-1.9,2.2c-1.7-6.1-2.4-20.1-1.4-26.8c1.2-0.1,1.5,0.6,1.6,1.6
		c0.1,3.1,0.2,6.3,0.3,9.6C167.3,80,170.9,78,174.9,76.9z"/>
	<path d="M263.8,18.1c2.1-0.4,3.8-0.7,5.6-1.1c2.1-0.5,4.1-0.2,6,0.6c3.7,1.6,4.9,5.7,2.5,9c-1.8,2.5-4.1,4.2-7.4,4.4
		c-9.1,0.6-10.5,1.8-10.3-8.6c0.1-4.5,0-9,0.1-13.6c0-1.1,0.6-2.2,2.5-1.9C264.3,10.2,262.2,13.9,263.8,18.1z M264.5,27.7
		c1.8,0.1,3.8,0.4,5.8,0.3c1.8-0.1,3.4-1,4.6-2.6c1.5-2,0.6-4.7-1.8-5.3c-2.3-0.6-4.5-0.3-6.6,0.7C263.5,22.2,263.2,23.1,264.5,27.7
		z"/>
	<path d="M61.3,69.9c1.3,4.5-1.9,8.2,0,12.2c4.1-0.1,8.1,0.3,11.7-1.5c1.9-3.6,0.4-7.9,3.4-11.2
		c0.6,0.7,1.4,1.3,1.3,1.7c-1.9,8-1.6,16.2-1.7,24.3c0,0.2-0.3,0.3-0.7,0.8c-2.6-0.9-1.8-3.2-1.9-5c-0.1-2,0.4-4.1-1.1-6.1
		c-0.8-0.1-1.7-0.4-2.5-0.3c-2.9,0.4-5.8,0.9-7.9,1.2c-3.6,2.5-0.8,7.2-4.9,9.6c-0.2-8.2,2-15.4,2.7-22.8
		C59.8,71.9,60.5,71.2,61.3,69.9z"/>
	<path d="M360.9,204.2c-4-6.8-2.7-13.7-2.1-20.7c5.7-2.3,11.2-3,16.9-2.3c2.5,0.3,4.1,1.9,4.6,4.4
		c0.3,1.3,0.6,2.7,0.6,4c0.1,4.1,0.2,8.2,0.1,12.2c0,0.5-1.1,1-2.4,2.1c-0.1-3-0.1-4.9-0.2-6.9c-0.1-2.9-0.4-5.9-0.5-8.8
		c-0.2-2.7-1.9-4-4.3-4.5c-3-0.7-6-0.4-8.6,1.2c-3.5,2.1-4.1,5.8-4,9.5c0,2.2,0.6,4.5,0.7,6.7C361.6,202.2,361.1,203.2,360.9,204.2z
		"/>
	<path d="M82.2,151.6c-1.6-3.4-2.9-6-4.3-9c-2.3,0.4-4.2,0.7-6.2,1c-3.5,0.6-5.9,2.1-5.7,6.2c0.1,1.9-0.9,3.5-3.7,3.5
		c0.1-1.3-0.1-2.7,0.3-3.8c1.3-3.6,2.8-7.2,4.3-10.7c1.9-4.3,4-8.5,6.1-12.7c0.6,0.2,1.2,0.2,1.3,0.5c2.9,6.6,5.8,13.3,8.7,19.9
		c0.4,1,0.8,2.1,0.8,3.2C83.8,150.1,83,150.6,82.2,151.6z M76.1,139.1c-0.5-2.3-0.8-4.4-3.5-5.7c-1.3,2.2-3.2,3.9-2.8,7
		C72.2,141.1,74.1,140.5,76.1,139.1z"/>
	<path d="M141,76.8c1,1.4,2.1,2.6,2.9,4c2.7,5.2,5.3,10.6,7.9,15.8c0.6,1.1,0.8,2.1-1,3c-1-1.7-2-3.4-2.9-5.1
		c-1.2-2.3-3.1-3.4-5.6-2.8c-4.2,1-8.5,1.6-12.6,3.3c-0.6,1.6-1,3.1-1.8,4.5c-0.4,0.6-1.3,1.2-2,1.3c-0.9,0.1-1.3-1.5-0.7-2.8
		c0.4-0.8,0.7-1.7,1.2-2.4c4.2-6,8.4-11.9,12.6-17.8C139.2,77.4,139.8,77.3,141,76.8z M133.6,90.4c3.9-0.4,7.1-0.7,9.9-2.7
		c-0.4-2.5-1.2-4.5-3.5-6C137.1,83.8,134.9,86.3,133.6,90.4z"/>
	<path d="M150.8,29.4c-1.2-5.2-1-19.3,0.5-22.6c0.2-0.4,1.1-0.6,2.1-1.1c1.6,3.9-1.3,7.7,0.4,11.4
		c1.7,1.6,3.8,0.8,5.8,0.9c2.7,0.2,5.4,0.3,8.1,0.7c1.1,0.2,2.2,0.7,3.1,1.3c1.4,0.9,2.5,2.1,2.4,3.9c-0.2,2-1.7,3.1-3.5,3.8
		c-0.8,0.3-1.8,0.5-2.7,0.5C161.6,28.6,156.2,29,150.8,29.4z M161.9,19.8c-2,0.3-4.2,0.7-6.5,1c-0.2,0-0.4,0.1-0.6,0.2
		c-1.2,0.5-1.8,1.3-1.7,2.6c0.1,1.3,0.8,2.3,2,2.3c3.4,0,6.8-0.1,10.2-0.3c2.5-0.2,3.9-1.1,3.7-2.1c-0.4-1.8-1.9-2.4-3.4-2.9
		C164.5,20.3,163.3,20.1,161.9,19.8z"/>
	<path d="M216.4,71c1,1.3,1.9,2,2.2,2.9c2.3,6.2,4.6,12.3,8.5,17.7c0.2,0.3,0.2,0.9,0.2,1.3c0,0.2-0.2,0.5-0.3,0.5
		c-0.4,0.2-1,0.4-1.2,0.2c-1.1-1.4-2.2-2.8-3.2-4.3c-2.1-3.2-2.5-3.4-6.1-2.8c-2.9,0.5-5.8,1.1-8.7,1.7c-2,2.4-1,7.2-6.7,8.3
		c3.8-8,7.9-14.5,11.4-21.3C213.5,73.8,214.9,72.7,216.4,71z M215.3,75.6c-2.5,2.4-3.8,5-4.2,8.2c3.8,0.4,3.8,0.4,7.6-1.1
		C218.5,79.9,217.8,77.5,215.3,75.6z"/>
	<path d="M362.4,154.1c3.2-7.6,7.5-14.7,12.2-22.1c1.1,0.8,2,1.1,2.4,1.8c2.9,5.1,5.8,10.3,8.6,15.5
		c0.3,0.5,0.3,1.3,0.2,1.9c0,0.4-0.5,0.8-0.8,1c-0.4,0.1-1,0.1-1.2-0.2c-0.5-0.7-1-1.5-1.3-2.3c-1.4-3.8-2.5-4.5-7.4-4
		c-1.1,0.1-2.2,0.5-3.3,0.7c-2.7,0.5-4.5,1.9-5.3,4.6c-0.4,1.3-0.9,2.6-1.7,3.6C364.1,155.6,363.1,155.3,362.4,154.1z M375.8,138.3
		c-1.9,0.1-3.6,2.6-3.1,4c0.1,0.3,0.6,0.8,0.9,0.7c1.1-0.1,2.2-0.2,3.1-0.7c0.5-0.3,0.6-1.5,0.4-2.2
		C376.9,139.3,376.1,138.7,375.8,138.3z"/>
	<path d="M171.5,208c-1.1-0.2-2.2-0.3-3.3-0.6c-3.3-1.1-5-4.2-4.2-7.6c1.4-6.4,8.2-11,14.9-10.5c4.7,0.3,9.2,6.9,6,11.7
		C181.5,205.9,177,207.6,171.5,208z M172.2,205.5c3.7-0.2,7.4-1.7,9.9-5.3c1.9-2.6,1.5-5.1-1-7.2c-2.2-1.8-4.5-2-7-0.8
		c-3.3,1.5-5.1,4.4-6.4,7.6C166.7,203,168.3,205.3,172.2,205.5z"/>
	<path d="M116.5,71.3c-3.1-0.2-5.8-0.2-8.5-0.5c-1.1-0.1-2.2-0.7-1.3-2.6c4.9,1.1,9.7,0,14.7-0.4
		c3.4-0.3,6.8-0.3,10.3-0.4c1.2,0,2.2,0.5,2.3,2.1c-2.2,1.4-4.5,0.4-6.7,0.4c-3.9,0.2-4.9,0.7-6.1,4.2c-1.1,3.5-1.9,7-1.5,10.7
		c0.3,2.5,0.1,5-0.1,7.4c0,0.4-1,1-1.5,1c-0.5,0-1.3-0.5-1.5-1c-0.3-0.8-0.4-1.8-0.4-2.6c0.2-3.2,0.4-6.4,0.8-9.5
		C117.4,77.4,117.6,74.7,116.5,71.3z"/>
	<path d="M103.5,131c1.3,0.4,2.1,1.7,1.4,2.5c-5.3,6-6.3,14-9.9,20.7c-1.2,2.2-2,4.5-3.2,6.7c-0.2,0.4-1.2,0.8-1.7,0.6
		c-0.4-0.1-0.9-1.1-0.8-1.5c0.9-2.8,2.1-5.5,3.1-8.2c0.9-2.3,1.8-4.6,2.7-6.7c-3.1-4.8-8.9-7.4-9.7-14.3c3.4,1.2,3.7,3.8,5.4,5.2
		c1.7,1.5,3.3,3,5,4.6C100,138.3,99.7,133,103.5,131z"/>
	<path d="M105.1,207.1c-2.4,0-4.5-0.8-6.2-2.5c-3.4-3.5-3.2-9.1,0.9-11.8c3.9-2.6,8.3-4,13-2.9c1.9,0.5,3.8,1.6,5.3,2.8
		c2.2,1.7,2.5,4.1,1.4,6.7c-1.8,4.3-4.8,7.1-9.7,7.4C108.3,206.9,106.7,207,105.1,207.1z M105,204.4c4.4-0.1,8.2-0.5,10.9-4
		c2-2.6,1.6-5.1-1.1-7c-4.7-3.3-13-0.5-14.8,5c-0.6,1.9,0.3,4.3,2.2,5.2C103.2,204.1,104.3,204.3,105,204.4z"/>
	<path d="M42.5,71.7c1.9,0.6,4,0.9,5.6,1.9c2.7,1.8,3.3,5.6,2,8.6c-2.5,5.7-10.6,9.4-16.7,7.6c-4.3-1.2-5.8-3.8-5.2-8.2
		c0.7-5.5,4.4-8.5,10.8-9.7c1.1-0.2,2.3,0.1,3.4,0.2C42.4,72.1,42.5,71.9,42.5,71.7z M42.9,74.7c-5.5-0.2-10.2,3-11.6,7.8
		c-0.7,2.4,0.6,4.7,3,5.4c4.2,1.2,11-1.7,13-5.6C49.4,78.5,47.2,74.9,42.9,74.7z"/>
	<path d="M306.7,4.6c1.4,1.4,2.8,2.3,3.4,3.5c2.8,6.2,5.4,12.5,8.1,18.8c0.2,0.6,0.3,1.4,0.1,1.9
		c-0.2,0.5-1,0.7-1.8,1.3c-3.5-5.9-4.7-12.9-9.6-18.6c-2.8,5.1-3.9,9.9-5,14.7c-0.3,1.3-0.8,2.5-1.4,3.7c-0.1,0.2-0.8,0.4-1.2,0.3
		c-0.3-0.1-0.7-0.5-0.8-0.9c-0.1-0.4-0.1-0.9,0-1.3c2.1-7,4.2-13.9,6.4-20.9C305.2,6.4,305.8,5.7,306.7,4.6z"/>
	<path d="M445.1,137.2c1.7,0.2,2.7,0.3,3.6,0.4c2.7,0.5,4.4,2.5,4.5,5.2c0.1,3.1-0.8,5.8-3.4,7.8
		c-3,2.4-6.4,3.4-10.2,2.8c-3.9-0.6-6.7-3.6-7-7.3c-0.3-3.7,2.1-7,6-8C440.9,137.7,443.4,137.4,445.1,137.2z M440.1,150.9
		c4.1,0.3,7-0.8,9.1-3.6c1.1-1.5,1.8-3.3,1-5.1c-0.9-2-2.8-2.2-4.7-2.1c-1.6,0.1-3.2,0.4-4.7,0.8c-2.4,0.7-3.8,2.3-4.5,4.7
		c-0.5,1.6-0.1,3.3,1.4,4.2C438.6,150.4,439.7,150.7,440.1,150.9z"/>
	<path d="M137,11.9c-3.1,0.4-5.8,0.4-8.3,1.1c-3,0.7-5.1,4.3-5,8c0,2.1,2,4.4,4.9,5c2.7,0.6,5.4,0.7,8.1,1
		c1.3,0.2,2.6,0.3,4.3,0.6c-0.6,0.9-1,1.8-1.3,1.8c-4.3-0.2-8.7-0.2-12.9-1c-3.3-0.6-5.6-3-6.2-6.5c-0.7-3.8,0.2-7.4,3.3-9.8
		c3.1-2.4,6.9-3.5,10.9-3.1C136.2,9.1,137.5,9.7,137,11.9z"/>
	<path d="M208.8,208c-2.9-4.8-4.1-10.8-8.6-15.3c-3.5,5.5-4,12-7.9,16.8c0.6-5.9,5.8-19.7,8.5-23.6
		c0.6,0.7,1.3,1.2,1.7,1.9c2.2,4.3,4.3,8.5,6.4,12.8c0.8,1.6,1.5,3.3,2,5C211.3,206.8,210.5,207.7,208.8,208z"/>
	<path d="M102.5,89.2c-0.9,2.4-2.2,2-3.3,2c-3.7,0-7.3,0.1-11-0.4c-3.8-0.5-5.8-4.1-4.6-7.6c2.1-6.3,9.9-10.2,16.1-8.1
		c1.6,0.6,1.8,1.1,1.2,4.1c-1.1-0.5-2-1-3-1.4c-5.1-1.9-9.8,1.3-10.1,6.6c-0.1,2.8,1.1,4.1,4,4.3c1.8,0.1,3.7,0,5.5,0
		C99,88.8,100.6,89,102.5,89.2z"/>
	<path d="M344.4,137.2c-1.6,5.2-1.7,9.7-1.2,14.3c0.1,1.4,0.6,2.7,0.5,4c0,0.7-0.7,1.6-1.3,2.1c-0.7,0.5-2.1-0.7-2.1-2
		c-0.2-6.8-0.4-13.6,1.1-20.7c2.8-0.4,5.4-0.7,8.1-1c2.7-0.4,5.4-1,8.1-1.2c0.6-0.1,1.3,0.9,2,1.4c-0.6,0.6-1.2,1.4-1.9,1.7
		c-0.8,0.3-1.8,0-2.7,0.1C351.5,136.1,348.1,136.6,344.4,137.2z"/>
	<path d="M283.9,91.3c-1.4,2-3.4,3.2-5.7,3.3c-2.7,0.2-5.5,0.3-8-1.2c-2.1-1.3-3.4-3.1-3.5-5.5
		c-0.2-3.8,1.9-6.5,4.9-8.4c3.2-2,6.7-3,10.2-0.3c0.4,0.3,0.4,1.2,0.7,2.4c-1.2-0.2-2-0.2-2.8-0.4c-3.9-1.2-7.5,0.1-9.3,3.4
		c-1.5,2.9-0.3,6.2,2.7,7.3c2.2,0.8,4.5,0.7,6.7,0.2C281.2,91.6,282.3,90.3,283.9,91.3z"/>
	<path d="M196.4,74.1c-2.1,5.2-0.6,10.9-2.5,15.8c-1.6,0.1-1.9-0.8-1.9-1.7c0-2.3,0.1-4.5,0.1-6.8c0-2.2,0.6-4.5-0.4-7
		c-2.2-0.3-4.3-0.7-6.8-1.1c0.4-0.9,0.7-1.9,1-1.9c6.3-0.4,12.7-0.7,19-0.9c0.2,0,0.5,0.6,1,1.2c-1.3,1.5-3.3,0.9-4.9,1.3
		C199.5,73.4,197.9,73.7,196.4,74.1z"/>
	<path d="M287.2,32.7c-1-2.8-2.1-4.6-2.1-6.5c-0.1-4.5,0.2-9,0.5-13.4c0.1-0.9,1-1.9,1.7-2.7c0.2-0.2,0.9-0.2,1.2,0
		c0.3,0.2,0.6,0.7,0.7,1.1c0.1,0.4,0,0.9-0.2,1.3c-2,4.8-1.9,9.6-0.3,14.4c0.3,0.8,0.7,1.8,0.6,2.6C289,30.3,288.3,31,287.2,32.7z"
		/>
	<path d="M543.6,113.2c-1.3-2.7-1.3-2.7,3.9-13.4c3-0.8,3-0.8,5.7,0.5C551,105.4,545.7,108.1,543.6,113.2z"/>
	<path d="M515.5,56.6c2.2,5.7,2.4,7.7,1.4,13.4c-1.2,0.4-1.5-0.6-1.9-1.3c-1-1.8-1.9-3.6-2.8-5.4
		C510.5,60,511,58.9,515.5,56.6z"/>
	<path d="M396.4,206.1c0.8,0.3,1.2,0.4,1.6,0.6c0.9,0.6,1.1,2.1,0.3,3c-1.4,1.7-3.4,2.3-4.7,1.3c-0.8-0.6-1.2-2.4-0.4-3
		C394.3,207.2,395.5,206.6,396.4,206.1z"/>
</g>
</svg>
