<?xml version="1.0" encoding="utf-8"?>
<!-- Generator: Adobe Illustrator 16.0.0, SVG Export Plug-In . SVG Version: 6.00 Build 0)  -->
<!DOCTYPE svg PUBLIC "-//W3C//DTD SVG 1.1//EN" "http://www.w3.org/Graphics/SVG/1.1/DTD/svg11.dtd">
<svg version="1.1" id="Layer_1" xmlns="http://www.w3.org/2000/svg" xmlns:xlink="http://www.w3.org/1999/xlink" x="0px" y="0px"
	 width="1000px" height="420px" viewBox="0 0 1000 420" style="enable-background:new 0 0 1000 420;" xml:space="preserve">
<style type="text/css">
<![CDATA[
	.st0{fill-rule:evenodd;clip-rule:evenodd;}
	.st1{fill-rule:evenodd;clip-rule:evenodd;fill:#FFFFFF;}
]]>
</style>
<path class="st0" d="M663.6,131.4c3.8,0.3,5.9-1,7.8-2.6c4.7-4.1,10.4-4.7,16.2-5c4.3-0.2,8.2,0.9,11.1,4.4c0.7,0.8,1.6,1.5,2.5,2.3
	c1.1,0.1,2.2,0.4,3.2,0.4c4.6,0.2,8.6,1.8,11.6,5.5c4.2,5.1,9.9,6.7,16.2,6.5c2.5-0.1,5-0.1,7.4-0.5c8.3-1.5,16.4,0.1,24.6,1
	c21,2.2,39.5,11.1,57.8,21c3.6,1.9,7.4,3.7,11.4,4.7c12.2,2.9,22.1,9.3,30.9,18.1c7.2,7.2,13.7,15.1,20.5,22.6
	c8.7,9.7,15.3,20.8,20.6,32.7c4.6,10.4,8,21.1,10.1,32.3c0.5,2.7,1.5,5.3,2.3,8.3c13.6,3.5,27.8,3,41.4,6.6
	c13.4,3.5,27.4,5.1,40.7,9.3c-0.6,3-2.3,4.3-4.7,4.2c-2.5,0-5.1,0-7.4-0.7c-13.4-4.3-27.3-6.5-41.1-8.8c-11.9-1.9-23.9-3.6-35.9-5.2
	c-19.9-2.6-40-4-60.1-3.5c-11.8,0.3-23.7,0.1-35.5-0.2c-10.2-0.2-20.3,0.6-30.5,1.5c-2.5,0.2-4.9,0.6-7.3,1.1
	c-1.6,0.4-3,1.1-5.1,1.9c-0.7,3.1-1.4,6.2-2,9.1c2.1,3,4.8,3.4,7.5,4.1c2.1,0.6,4.6,0.8,6.1,2.1c6.5,5.4,14.1,9.5,19.8,15.9
	c1.1,1.2,2.1,2.5,3,3.9c2.1,3.3,0.8,7.1-3,7.7c-3.2,0.5-6.6,0.4-9.8,0c-10.4-1.5-20.8-1.8-31.3-1.1c-3.8,0.3-7.8,0.9-11.1,2.6
	c-7.1,3.6-14.6,4.9-22.2,6.1c-15.3,2.4-30.7,2.2-46.1,1.6c-10.4-0.4-20.9-0.5-31.3-0.9c-11.5-0.4-23.1-0.7-34.6-1.3
	c-2.9-0.2-6.2-0.9-8.6-2.5c-4.8-3-10-4.4-15.4-5.5c-8.1-1.7-15.8-4.5-23.6-7.4c-8.4-3.1-11.1-10.1-13-17.8c-0.6-2.4,0.8-4.2,2.5-5.8
	c1.4-1.2,3.2-2.1,2.6-5c-12.2,2.4-24.7,1.2-36.4,6.2c-3.3,1.4-6.9,1.8-10.4,2.6c-11.8,2.7-23.5,5.4-35.3,8.1
	c-1.6,0.4-3.4,0.9-4.9,0.5c-4.9-1.4-9.4,0.4-13.7,1.6c-6.6,1.9-12.9,4.9-19.4,7c-5.3,1.7-8.2,5.4-9.9,10.3c-0.8,2.3-1.8,4.8-1.9,7.2
	c-0.2,5.4-2.9,10-3.6,15.2c-0.4,2.5-2,3.9-4.1,4.7c-1.8,0.7-3.6,1.4-5.5,1.8c-4.3,0.9-7.6,3.2-10.1,6.6c-3.6,4.9-7.3,9.7-10.5,14.8
	c-6.9,11-14.8,21.1-23.8,30.5c-4.7,4.9-10.4,7.5-16.8,7.6c-6.8,0.1-13.6-1-20.2-3.1c-5.2-1.7-10.5-3.2-15.8-4.6
	c-14.6-3.9-29.3-7.7-43.9-11.7c-14.6-3.9-29.1-8.1-43.7-12c-14.9-3.9-30.2-6.2-45.6-6.8c-9.3-0.4-18.7,1-28,1.7
	c-1.3,0.1-2.6,0.7-3.7,1.4c-7.5,5.1-15.8,9-22.7,15c-3.4,3-8,3.3-12.2,4.5c-8.8,2.6-15.5-2-22.2-6c-4-2.4-4-5.5-0.9-9
	c1.1-1.2,2.4-2.4,3.8-3.1c4.4-2.3,8.7-5,13.3-6.4c10.3-3,18.6-9.4,27.1-15.5c3.3-2.3,5.6-6.1,8.2-9.2c0.5-0.6,0.8-1.4,1.2-2.2
	c1.2-3,0.3-5.6-2.9-6.6c-5.2-1.7-10.5-3.4-15.9-4.4c-5.7-1.1-11.4-1.5-17.2-2.2c-25.8-3-50.4,2-74.4,10.8
	c-5.9,2.1-11.6,3.4-17.6,1.1c-0.8-0.3-1.7-0.6-2.4-0.4c-7.1,2.2-11.9-2.9-17.5-5.5c-2.3-1.1-2.8-4.4-1-6.4c1.5-1.5,3.3-3,5.3-3.7
	c3.2-1.1,5.8-2.9,8.7-4.7c2.8-1.7,5.8-3.2,9-4c10-2.5,19.1-6.8,27.9-12c4.7-2.8,9.4-5.6,13.8-8.9c2.6-2,5.6-3.7,8.7-4.6
	c8.7-2.8,17.3-1.9,23.8,4.8c6.7,7,14.7,7.9,23.5,7.4c9.6-0.6,19.2-1.4,28.8-1.4c11,0.1,22,0.4,32.9,1.6c12,1.3,23.9,3.6,35.9,5.4
	c0.8,0.1,1.6,0.3,2.4,0.4c7.5,1.5,13.4-0.5,17.9-7.1c2.1-3.1,5-5.8,7.8-8.4c5-4.7,10.1-9.3,14.7-14.6c-2.9-6.6-7.8-10.8-13.2-14.7
	c-3.6-2.6-7.4-4.8-11-7.4c-3.1-2.3-6.4-4.5-8.8-7.4c-4.4-5.2-8.4-10.9-12.3-16.5c-4.7-6.9-10.3-12.9-16.8-18.1
	c-3-2.4-6.2-4.7-9.5-6.5c-7.8-4.2-16.2-6.7-25.2-6.8c-2.4,0-4.9,0.7-7.2,1.5c-4.6,1.8-9.2,3.7-13.6,6c-7.1,3.7-14.6,6.3-22.5,7.8
	c-1.3,0.3-2.7,0.6-4,1.1c-10.5,3.7-21.4,5-32.5,5.2c-5,0.1-9.9,0.1-14.9,0.1c-10,0-19-2.8-26.3-10.1c-2.7-2.7-5.6-5.3-8.2-8.1
	c-8.3-9.1-1.8-23.2,7.7-25.2c2.9-0.6,6.1-1,9-0.6c7.6,1,15.2,2.2,22.7,3.9c10.5,2.3,21,4.2,31.8,5c9.5,0.8,18.7-0.8,27.4-4.7
	c5.5-2.5,11-5.1,16.3-8c7.9-4.3,16.3-6.9,25.1-7.8c4.8-0.4,9.9,0.5,14.7,1.5c7,1.4,13.8,3.6,20.2,7c7.2,3.9,13.4,9,16.9,16.4
	c5.5,11.6,14,20.2,24.3,27.5c4.7,3.3,9.3,5.4,14.9,6.5c9.8,1.9,19.7,2.4,29.6,2.7c9.7,0.2,19.2-1.4,28.1-5.6
	c5-2.3,8.5-5.5,10.5-10.9c6.6-17.5,18.3-30.6,35.4-38.4c12.6-5.8,25.5-10.3,39.5-11c3.6-0.2,7.1-0.8,10.6-1.7
	c5.9-1.6,11.2-4.3,15.6-8.9c7.8-8.2,14.5-17.3,20.7-26.8c9.6-14.8,18.2-30.2,26-46c4.1-8.4,9.2-16.4,13.4-24.7
	c5-9.8,9.5-19.9,14.2-29.8c2-4.2,4.1-8.5,6-12.7c3.1-7,6.1-14.2,9.3-21.2c0.4-0.9,1.5-2.1,2.2-2.1c1.2,0.1,2.5,0.9,3.4,1.7
	c0.9,1,1.5,2.3,2,3.6c3.8,9.2,10.4,16.2,17.4,22.9c7.2,6.9,15.6,12.2,24.2,17.2c10.1,5.8,20.9,6.4,32,3.8
	c14.6-3.5,28.1-9.6,41.6-15.9c4.2-2,8.2-4.4,10.8-8.7c0.6-1.1,1.9-1.8,3.4-3.1c0.7,1.3,1.5,2.2,1.6,3.1c0.1,1-0.5,2.1-0.9,3.1
	c-5.5,11.8-8.6,24.4-10.9,37.2c-1.8,9.9-2.6,19.7-1.9,29.7c0.8,10.9,3.2,21.3,8.8,30.8C661,127.4,662.4,129.4,663.6,131.4z
	 M456.6,308.5c2.7,3,4.8,1.7,6.6,0.7c7.5-4.1,15.1-7.8,21.9-13.2c5.6-4.4,11.8-8.1,17.7-12c0.6-0.4,1.7-1.6,2.5,0.1
	c-21.1,16.6-21.1,16.6-23.2,22.1c2,0,3.9,0.3,5.6-0.1c4-0.9,8.1-1.8,11.9-3.5c7.5-3.4,14.8-7.3,22.1-11.1c2.4-1.3,4.8-2.8,7.2-4
	c2.2-1.1,4.4-2.7,7.6-2.5c-5.3,3.9-11.7,5.7-15,12.9c4.7-1.2,8.3-2.2,12-2.9c9.4-1.9,18.9-3.5,28.4-5.4c8.8-1.7,8.8-1.7,15.4-8.5
	c13.2-13.7,27.2-26.5,41.1-39.5c10.9-10.1,22.2-19.8,31.8-31.3c6.2-7.4,12.5-14.7,18.7-22.1c0.3-0.3,0-1,0-1.7
	c-0.8-0.1-1.6-0.4-2.3-0.2c-8,2-16.3,2.6-24.5,3.3c-3.8,0.3-7.7,0.7-11.5,1c-18.6,1.8-37.2,4.4-55.9,1.7c-0.5-0.1-1.1,0.2-1.6,0.3
	c-5.9,7.1-5.9,6.9-15.9,8.1c-4.9,0.5-9.9,1.3-14.5,2.9c-6.9,2.4-13.5,1.5-20.3,0.1c-4.9-1-8.5-3.7-10.8-8.1
	c-3.8-7.3-9.7-11.8-17.8-13.2c-13-2.3-26-4.8-39-6.6c-8.1-1.1-16.3-2.3-24.7-1.6c-14.9,1.3-29.3,4.6-43.8,8
	c-2.6,0.6-5.2,1.9-7.6,3.2c-4.8,2.6-9.7,5.2-14.3,8.2c-5,3.3-10.2,6.6-13.6,11.9c-2.5,4-5.1,7.8-7.5,11.9c-5.1,8.6-8.5,18-9.7,27.9
	c-0.9,8.2-1.2,16.5-0.7,24.8c0.7,11.8-0.1,23.7-1.9,35.5c-0.7,5.1-2.3,10.2-2,16.4c13.6-1.4,26.4,0.1,39.3,3.5
	c12.9,3.4,24.8,8.6,36.2,14.2c1.2-0.4,1.7-0.5,2.2-0.8c8.8-5,15.8-12.1,21.9-19.9c6.8-8.7,12.7-18,19.2-26.9
	c3.7-5.1,7.6-10.1,11.7-14.9c2.5-2.9,5.6-5.3,8.2-8.1c4.8-5,10.2-9.3,16.1-12.8c0.6-0.3,1.4-0.2,2.2-0.3c0.5,3-1.6,4.3-3.3,5.4
	c-5.4,3.8-10.1,8.4-15,12.9c-5.3,4.9-10.1,10.1-14.4,15.9c-5.7,7.8-10.4,16.2-14.6,24.9c-0.4,0.8-0.3,1.9-0.6,4.4
	c6.6-4.5,11.9-8.4,16.1-13.5c4.1-4.9,8.1-9.8,12.3-14.5c3.3-3.7,6.8-7.2,10.4-10.7c0.6-0.6,1.8-0.6,3.7-1.3
	c-3.1,6.8-8.7,9.8-12.1,14.8C465.2,299.4,460.8,303.6,456.6,308.5z M573.2,188.5c6.7-0.4,12.9-0.9,19.2-1.3c1.4-0.1,2.7-0.2,4.1-0.3
	c0.3,0,0.5-0.1,0.8-0.2c14.2-3.5,28.1-7.9,40.8-15.4c4.4-2.6,6.3-5.9,5.4-10.9c-1.4-8,1.6-14.6,6.7-20.4c1.4-1.6,3.2-3,5.1-4.8
	c-1.3-3.4-2.6-6.7-3.9-9.9c-2.4-5.9-4.8-11.8-5.1-18.2c-0.4-7.4-0.8-15,0-22.3c1.7-15.3,3.7-30.7,8.5-45.5c0.5-1.4,0.4-3,0.7-5.4
	c-2.3,1-3.8,1.5-5.2,2.2c-9.9,4.9-19.7,9.9-30.3,13.2c-9.2,2.8-18.3,6.4-28.2,5.5c-4.4-0.4-8.7-1.1-13.1-1.8
	c-5.3-0.8-9.9-3.2-13.9-6.7c-3.3-2.9-6.4-6.1-9.8-8.8c-9.1-7.3-17-15.6-22.8-25.8c-0.3-0.6-1.3-0.8-1.9-1.2
	c-3.6,3.2-3.5,3.3-5.4,7.1c-9.6,19.5-17.6,39.8-28.9,58.5c-5.1,8.5-9.9,17.2-14.4,26.1c-9.4,18.5-20.3,36-32.9,52.4
	c-3.2,4.2-6.3,8.3-9.4,12.6c-0.7,1-1.2,2.1-2.1,3.8c2.8,0.5,5,1,7.1,1.3c6,0.8,12,1.3,18,2.1c6,0.8,12,2,17.9,2.9
	c8.5,1.3,16.1,0.2,23.2-5.7c6.9-5.6,15-9.3,24.4-8.4c7.1,0.7,14.2,1.9,20.9,4.6C559,171.6,567.9,177.3,573.2,188.5z M125.9,398.2
	c7.4-5.1,14.5-10.2,21.7-14.9c4.1-2.7,8.5-5,13-7.3c2.4-1.2,5.1-1.9,7.7-2.7c1.6-0.5,3.3-0.4,4.8-0.9c6.9-2.6,13.6-1.5,19.9,1.6
	c6.5,3.2,13.3,5.1,20.3,6.8c9.4,2.2,18.6,4.7,28.1,6.6c23.2,4.7,45.6,12.3,68.5,18.2c7.4,1.9,14.9,3.7,22.4,5.5
	c5.3,1.3,10.8,2.1,16.1,3.6c6.8,1.8,12.6-0.5,17.8-4.2c4.2-3,8.3-6.5,11.5-10.5c5.4-6.5,10.5-13.5,15.2-20.6
	c5.3-8,10-16.4,14.9-24.7c0.9-1.6,1.5-3.4,2.3-5.3c-1.3-1.1-2.3-2.1-3.4-2.9c-7.8-5.9-16.9-9.2-25.8-12.9
	c-6.6-2.7-13.2-5.4-20.3-6.5c-8.5-1.3-16.9-2.2-25.4-0.5c-5.6,1.2-10.1,3.4-11.7,10c-1.4,5.8-4.2,11.4-6.6,16.9
	c-0.5,1.3-1.9,2.2-3,3.3c-0.3-0.2-0.7-0.4-1-0.5c1.1-3.8,2.2-7.6,3.5-12.1c-2.1,0.3-3.4,0.3-4.7,0.6c-21.4,5.4-42.9,9.3-65,10.7
	c-20,1.3-38.9-1.5-56.1-12.6c-3.7-2.4-7.8-4-11.9-5.7c-6.6-2.7-18,0.4-21.5,9.1c-2.6,6.5-6.9,11.8-11.5,17
	c-5.4,6.1-11.4,11.2-18.9,14.3c-6.1,2.5-12.3,4.8-18.5,7c-3.2,1.1-6,2.8-8.3,5.2c-1.7,1.8-1.6,3.8-0.1,6c1.7,2.3,3.8,3.2,6.5,2.4
	c2.5-0.8,5-1.9,7.9-3c-0.5,1-0.8,1.7-1.2,2.2c-0.9,1.1-1.8,2.1-0.9,3.6c1.1,1.8,2.9,1.7,4.4,1.2c1.5-0.5,2.9-1.5,4-2.6
	c1.6-1.8,2.9-3.8,4.6-6.2C125.6,395.5,125.7,396.9,125.9,398.2z M605.9,188.4c4.6-0.2,7.6-0.2,10.6-0.5c10.1-1.2,20.3-2.2,30.3-4
	c16-2.9,31.6-7.3,45.8-15.8c6.9-4.1,14.5-6.7,22.4-8.4c3.7-0.8,7.6-1.3,11.4-1.3c6.6-0.1,13.2,0.2,19.8,0.6c7.1,0.4,14.3,1,21.4,1.5
	c0.9,0.1,1.8,0.6,3.7,1.3c-3.3,2.2-6.1,1.6-8.7,1.6c-12.9-0.3-25.9-0.8-38.8-1c-3.2,0-6.5,0.7-9.7,1.4
	c-17.6,3.8-30.1,15.5-42.3,27.4c-3.7,3.7-7.1,7.7-10.5,11.7c-4.5,5.1-8.9,10.4-13.6,15.8c1,0.1,1.6,0.4,1.9,0.2
	c2.2-1.2,4.3-2.5,6.4-3.8c10.2-6.6,20.3-13.2,30.4-19.8c8.1-5.3,16.8-9.4,26.2-12c4.9-1.4,9.4-1.6,14.5,0.2c5.8,2.1,10.7,5.6,16,8.4
	c4.5,2.4,8,5.6,10.6,10.1c4.6,7.7,11.7,11.4,20.5,12c7.2,0.5,14.3,1.1,21.2,3.2c1,0.3,2.2,0.4,3.2,0.7c4.5,1,8.6,0.3,12.7-1.8
	c4.9-2.5,10.1-4.4,15.2-6.4c1.5-0.6,3.2-0.7,4.8-0.6c0.7,0.1,1.4,1.2,2.1,1.9c-0.6,0.5-0.8,0.8-1.1,0.8c-13.9,2.6-25.6,9.5-36,18.9
	c-1.1,1-2.6,2.1-1.6,4c0.6,0.1,1.2,0.4,1.6,0.2c6.7-2.7,13.9-3.2,21-4.4c10-1.6,19.9-0.5,29.1,3.7c5.4,2.5,10.6,5.9,15.3,9.7
	c10.5,8.5,20.1,18,25.7,30.8c1,2.2,2.3,4.3,3.4,6.5c3.1,0.4,5.9,0.8,8.6,1.1c1.4,0.2,2.7,0.4,4.1,0.4c3.3,0.1,4.8-1.3,4.3-4.4
	c-1.9-11.1-3.8-22.3-6-33.4c-0.5-2.4-1.5-4.8-2.6-7c-5-9.9-11-19.1-18.4-27.3c-3.7-4.1-7.3-8.3-11-12.3
	c-7.4-7.9-15.5-14.9-24.7-20.6c-1.3-0.8-2.8-1.1-5.3-2c0.6,2.8,0.9,4.6,1.4,6.3c0.7,2.4,1.8,4.6,2.3,7c0.2,1-0.9,2.2-1.9,4.3
	c-1.9-3.4-3.1-5.8-4.5-8.1c-3.2-5.5-6.7-10.9-12-14.5c-8.9-6.1-18.2-11.3-28.5-14.8c-4.4-1.5-8.8-3.1-13.2-4.7
	c-14.7-5.3-29.6-7.6-45.4-5.8c-18.8,2.2-36.8,7.2-54.2,14c-24.6,9.6-49.3,18.8-74.6,26.6C608.5,186.6,607.9,187.2,605.9,188.4z
	 M319.5,244.1c-0.2-0.6-0.4-1.1-0.6-1.7c-1.9,0-3.8-0.1-5.6,0c-4.1,0.3-8.2,1.1-12.3,0.9c-12.6-0.5-25.3-0.6-37.7-3.7
	c-11.4-2.9-21.7-8-28.8-17.9c-4.3-6-8.5-12.1-12.6-18.3c-6-9.1-13.9-15.5-24.5-18.3c-2.6-0.7-5.4-1.1-8.1-1.7
	c-11.9-3-22.9-0.5-33.5,5c-4.9,2.5-9.7,5.3-14.8,7.3c-6.6,2.6-13.3,5.8-20.3,6.7c-16.2,2-32.3,0.9-48-4.3
	c-4.9-1.6-10.1-2.5-15.3-3.4c-5.5-1.1-10.2,1.6-14.5,4.4c-2.4,1.5-3.5,4.4-3.1,7.3c0.5,2.9,0.9,6.4,2.7,8.5
	c5.5,6.9,11.8,12.9,21.3,14.4c10.2,1.7,20.3,1.3,30.4,0.5c15.8-1.3,30.7-6,45.1-12.3c5.3-2.3,10.7-4.4,16-6.7
	c5.4-2.3,11.1-3.4,16.8-3.8c6.5-0.5,12.7,1,18.1,4.5c10.7,7,20,15.5,27.4,26c4,5.6,8.1,11.2,12.5,16.5c2.2,2.7,4.9,5.3,7.8,7.3
	c9.8,6.7,20.6,11.5,31.4,16.3c2.2,1,4.2,0.9,6.1-0.7c2.7-2.3,5.7-4.3,8.3-6.8c9.4-8.6,19.5-16.1,30.6-22.4
	C316.2,246.7,317.8,245.3,319.5,244.1z M246.6,328.4c-1.6,1.3-2.8,0.2-4.1-0.2c-2.9-0.9-5.7-2.3-8.6-2.7
	c-13.9-1.9-27.7-4.7-41.7-5.6c-6.6-0.5-13.1-1.4-19.6-2.1c-4.9-0.5-9.9-1.1-14.8-1.1c-14.3-0.1-28.6,0.1-42.9,0.2
	c-6.3,0.1-11.9-1.5-16.6-6c-0.8-0.8-1.8-1.3-2.6-2.1c-7.3-6.9-18.1-7.7-26.9,0c-4.1,3.6-8.7,6.7-13.2,9.9
	c-6.6,4.6-13.6,8.4-21.6,9.9c-3.8,0.7-7.5,1.8-11.2,2.7c-7.2,1.8-13.6,5.3-19.9,10.1c1.1,1.2,1.7,2,2.5,2.6c3.1,2.3,6.3,0.7,9.5,0
	c0.4-0.1,0.8,0.3,1.3,0.5c-0.7,1-1.4,2-2.7,4c2.4-0.2,3.7,0,4.9-0.4c2.6-0.9,5.1-2,7.7-3c0.4-0.1,0.9,0.2,1.3,0.4
	c-0.3,1-0.6,2-0.9,3.3c3.8,1.2,7.1,0.8,10.6-0.4c6.7-2.4,13.5-4.8,20.3-6.8c10.8-3.1,21.7-5.9,32.7-8.6c2.3-0.6,4.9-0.9,7.3-0.6
	c7.1,0.9,14.2,1.9,21.2,3.3c9.4,1.9,18.8,3.9,28.1,6.3c4.3,1.1,7.2,0.3,10.3-2.8c6.9-6.8,17.3-8.3,25.9-4.3c8,3.7,16,7.2,24,11
	c9.4,4.5,19.3,6.2,29.6,6.3c12.7,0.1,25.3-1.2,37.8-3c7.6-1.1,15.1-3.2,22.5-5c1.3-0.3,2.3-1.9,3.7-3c-1-1.3-1.6-2.2-2.4-2.9
	c-5.7-5.2-12.1-9.4-18.6-13.6c-9.7-6.1-20.2-9.8-31.3-12.2c-1.3-0.3-3.1-0.5-4,0.1c-3.2,2.4-6.4,5.1-6.2,9.4
	C240.7,325.1,245.3,324.5,246.6,328.4z M707.8,222.4c5-2.5,8.6-6.4,11.9-10.3c4.6-5.4,9.6-9.9,17.3-9.7c0.8,0,1.5-0.5,2.6-0.8
	c-1.6-5.9-5.5-9.5-10.7-11.8c-10.1-4.6-20.1-2.8-29.4,2.1c-17.6,9.2-34,20.3-50.2,31.7c-7.4,5.2-14.4,11.1-21.4,16.8
	c-9.6,7.8-19.4,15.5-28.7,23.6c-5.6,4.9-10.5,10.5-15.6,15.9c-4.5,4.8-9,9.7-13.2,14.8c-1.9,2.3-3.7,4.9-5.1,7.5
	c-2.4,4.5-1.8,10.9,1.8,13.8c4.9,4,9.8,8.4,16,10c6.4,1.6,13,2.4,19.5,3.4c1.5,0.2,3.1-0.3,4.8-0.5c0.3-1.7,0.7-3.1,0.8-4.4
	c0.3-8.3,4.3-14.6,10.6-19.7c1.5-1.2,3.2-2.2,4.5-3.6c1-1,1.7-2.5,2.8-4.1c-2.8-1.3-5-2.4-7.2-3.3c-2-0.8-4.2-1.5-6.3-2
	c-2.4-0.6-4.9-0.9-7.3-1.3c-2.2-0.4-4.6,0.2-7.9-1.9c5.1-0.8,8.8-1.4,12.6-0.6c5.3,1.2,10.4,0.2,15.2-2.2c6.4-3.2,13-6,19.3-9.4
	c3.6-1.9,6.8-4.6,10.1-7.1c2.1-1.5,3.2-3.7,3.4-6.3c0.3-4.1,0.8-8.2,1-12.4c0.4-6.4,1.5-12.7,4.2-18.4c2.7-5.7,6.1-11.1,11.7-14.5
	c8.7-5.2,17.3-4.2,25.9,0.6C703.2,219.5,705.5,221,707.8,222.4z M786.1,310.6c-2.5-3.5-5.8-4.3-9.5-3.6c-4.6,0.9-9.1,2-13.6,3.2
	c-9.6,2.4-19.1,5.3-28.8,7.2c-10.5,2.1-21.2,3.2-31.9,0.5c-2.4-0.6-4.9-0.5-7.4-0.8c-1.9-0.2-3.9-0.2-5.7-0.7
	c-13.4-4.1-27.1-7.1-40.2-12.3c-5.6-2.3-11.4-3.9-17-5.8c-4.4,3.6-8.5,6.8-12.4,10.2c-6.9,6-8.2,14-7.4,22.6
	c0.3,2.7,2.2,4.4,4.9,4.7c1.1,0.1,2.2,0.1,3.3,0.1c15.1,0.3,30.2,0.7,45.4,1c3.6,0.1,7.2,0,10.7,0.1c8.8,0.3,17.6,1,26.4,1
	c16.6-0.1,32.9-2.1,48.6-8c2.5-1,5.3-1.7,8-1.8c10.2-0.2,20.3-0.2,30.5,0c3.5,0.1,7.1,0.8,10.6,1.2c2.3,0.2,4.3-0.9,3.9-2
	c-0.5-1.1-1.5-2.1-2.5-3c-0.6-0.5-1.5-0.6-2.3-0.8c-5.8-1.6-11.6-3.4-17.7-3.4c-1.3,0-2.7-0.6-4-0.9c3.4-1.3,6.7-0.9,9.9-1
	c3.1-0.1,6.1,2.2,9.3,0.7c-0.3-2.5-2-3.1-3.5-3.4c-1.6-0.3-3.3-0.2-4.9-0.2c-4.9,0.1-9.7,0.5-15.6-0.5
	C777.6,311.9,782.8,314.6,786.1,310.6z M868,280.8c-2.7-2-4-3-5.3-4c-1.1-0.8-2.2-1.6-3.2-2.6c-1.6-1.5-1.8-3.4-0.6-4.3
	c1.5-1.1,2.7-0.2,3.5,0.8c1.8,2.1,3.4,4.3,5.1,6.4c3,3.7,6.6,5.7,11.9,3.5c1.2-6.9-0.3-13.5-4.6-19.1c-3.3-4.3-7.2-8.4-11.2-12.1
	c-2.8-2.5-6.3-4.2-9.6-6.2c-0.3-0.2-1,0.2-1.5,0.3c-1.6,1-0.4,4.1-3.2,4.1c-1.7-1.1-1.4-2.9-1.4-4.5c0-3.2-1.8-4.8-4.3-6.4
	c-4.4-2.9-9.1-3.8-14.2-3.4c-14.2,1.3-28.5,2.6-41.9,7.9c-1,0.4-2.4,0-3.9,0c2.6-8,10.2-11.2,14.3-18.1c-8.6-2-16.1-1.4-23.6,2.6
	c0.3,1.3,0.3,2.4,0.7,3.4c2.6,6.5,3.3,13.3,3.6,20.2c0.3,8.9-1.1,17.6-3,26.2c-0.3,1.5,0,3.1,0,4.5c9.5,2.3,18.5,1.6,27.6,1.4
	c12.4-0.2,24.7-0.1,37.1-0.2C848.8,281.3,857.6,282.2,868,280.8z M250.9,308.7c2.3,1,3.9,1.9,5.7,2.4c10,3,20.1,6,29,11.6
	c8.4,5.3,18,6.6,27.1,9.5c3.6,1.1,6.7-0.4,8.1-3.9c1.8-4.3,3.3-8.8,4.3-13.3c4.5-19.3,4.5-38.8,3.4-58.5c-0.1-1.8-0.7-3.7-1.2-5.7
	c-6.6-0.8-12.3,0.9-17.6,3.9c-4.6,2.5-9,5.4-13.2,8.5c-15.9,11.5-29.2,26-42.5,40.3C252.8,304.9,252.1,306.7,250.9,308.7z
	 M746.7,310.1c-0.3-0.8-0.3-1.5-0.6-1.8c-8.1-6.1-13.9-14.1-18.8-22.8c-2-3.6-3.6-7.5-4.6-11.4c-1.2-5.1-1.8-10.3-2.5-15.5
	c-0.9-7.7-3-15.1-6.2-22.2c-3.7-8.3-10.1-13.6-18.2-17.1c-5-2.1-10-2.3-15.2-0.1c-7.9,3.3-12.9,9.2-15.4,17.2
	c-5.1,16.2-3.6,32.1,3.2,47.5c1.1,2.4,2.4,4.7,4.1,7.9c1.5-2.3,2.6-3.8,3.5-5.4c4-7.5,11.2-10.1,18.6-12.3c1.9-0.6,4.4,0,6.5,0.5
	c7.7,1.9,13,6.6,16.7,13.6c2.8,5.4,5.8,10.6,9,15.8c1.3,2,3.2,3.7,5,5.4C736.7,314,741.7,313.3,746.7,310.1z M723.5,253.6
	c3-0.4,5.7-1.9,8.2-3.3c6-3.2,12.3-2.4,18.5-1.4c1.2,0.2,2.5,1.2,3.5,2.1c5,4.4,7.4,10,7.9,16.7c0.9,11-2.5,21.2-4.5,31.8
	c-0.3,1.5-0.4,3.1-0.7,5c8.9-3.4,9.2-3.3,11.2-10.9c2.3-8.8,4-17.7,6.1-26.6c2.8-11.9,1.4-23.6-2.3-35.1c-3-9.2-8.5-16.6-17.3-21.1
	c-4.7-2.4-9.9-3.1-15.1-3.7c-7-0.8-12.2,2.1-16.4,7.5c-2,2.6-4,5.3-6.2,7.7c-3,3.3-3.5,6.5-1.3,10.5c3.2,5.8,5.4,12.1,7,18.5
	C722.3,252,722.9,252.6,723.5,253.6z M515.7,180.1c-0.2,1.7-0.3,3.3-0.5,4.9c-0.1,1.4-0.8,2.9-0.4,4c1.4,3.5,2.7,7.1,6.3,9.3
	c5.5,3.3,11.2,4.2,17.4,2.7c3.7-0.9,6.5-2.8,8.4-6.1c0.8-1.4,1.4-3,2.2-4.4c0.2-0.3,0.9-0.3,1.8-0.6c0.2,1.8,0.4,3.6,0.6,5.2
	c4.5,1.8,8.4,1.8,12.1-1.1c4.8-3.8,4.9-10.4,0-13.8c-10.8-7.5-22.3-12.8-35.8-13.3c-8.3-0.3-15,2.8-21.4,7.3c-1.7,1.2-2.7,3.3-4.1,5
	C508.4,182.6,508.4,182.6,515.7,180.1z M650.8,168.6c7.8-2.4,14.5-6.4,21.6-9.1c7.2-2.7,14.6-4.9,21.9-7.3
	c7.3-2.3,14.6-4.5,21.9-6.7c0.2-4.1-1.9-6.1-4.3-8.1c-2.2-1.8-4.5-3.2-7.5-2.7c-2.4,0.4-4.9,1-7.3,1.2c-1.2,0.1-2.4-0.3-3.5-0.5
	c0-0.9,0-1.2,0.1-1.4c1.9-3.9,1.2-5.7-2.5-6.3c-1.9-0.3-3.8-0.4-5.7-0.3c-6.9,0.4-12.1,3.3-14.4,10.2c-0.5,1.5-1.2,2.8-2.1,5
	c-2.6-3-5.2-4.2-8.4-3.4c-3.3,0.8-6.3,1.9-8.4,4.7c-2.5,3.4-4.1,7.2-4.4,11.4C647.4,159.7,647.2,164.2,650.8,168.6z M729.4,313.8
	c-6-8.7-11.5-16.6-17-24.4c-1.4-2-3-3.9-4.5-5.9c-1.9-2.5-4.6-4.2-7.6-4.6c-7.5-1-14.3,1.1-19.3,7c-3.8,4.5-6,10-4.3,16.1
	c1.2,4.4,3.5,8,8.3,9.4c10.7,3.1,21.6,3.8,32.6,4C721.4,315.4,725.3,315.3,729.4,313.8z M749.4,305c0.9-1.2,1.7-1.8,1.9-2.5
	c2.7-11.5,4.9-23.2,4.9-35c0-3.4-1.4-6.9-2.6-10.3c-1.1-3.1-3.6-4.8-6.9-5.2c-7.5-0.9-14.1,1-19.4,6.7c-1.8,2-2.5,4.1-1.8,6.8
	c2.9,11,7,21.4,13.6,30.7C741.7,299.9,744.7,303,749.4,305z M627.8,292.2c1,0.6,2,1.6,3.2,1.8c6.1,0.8,11.6,3.2,17.2,5.3
	c7.2,2.7,14.5,5.1,21.7,7.6c1.2,0.4,2.6,1.2,3.8-1c-3.6-6-5.2-13.3-8.9-19.2c-5.3,0-10-0.2-14.6,0.1c-6,0.4-12,1.2-18,1.9
	C630.4,289,628.3,289.2,627.8,292.2z"/>
<path class="st1" d="M456.6,308.5c4.2-4.8,8.6-9.1,12-14.1c3.4-5,9-8,12.1-14.8c-1.9,0.6-3.1,0.7-3.7,1.3c-3.5,3.5-7.1,7-10.4,10.7
	c-4.2,4.7-8.2,9.6-12.3,14.5c-4.3,5.1-9.5,8.9-16.1,13.5c0.3-2.5,0.2-3.5,0.6-4.4c4.2-8.7,8.9-17.1,14.6-24.9
	c4.3-5.8,9.1-11,14.4-15.9c4.8-4.5,9.6-9.1,15-12.9c1.6-1.2,3.8-2.4,3.3-5.4c-0.8,0.1-1.7,0-2.2,0.3c-5.9,3.5-11.3,7.8-16.1,12.8
	c-2.7,2.8-5.7,5.2-8.2,8.1c-4.1,4.8-8,9.8-11.7,14.9c-6.5,8.9-12.4,18.2-19.2,26.9c-6.1,7.8-13.1,14.9-21.9,19.9
	c-0.5,0.3-1,0.4-2.2,0.8c-11.4-5.5-23.3-10.8-36.2-14.2c-12.9-3.4-25.7-4.9-39.3-3.5c-0.3-6.2,1.2-11.3,2-16.4
	c1.7-11.8,2.5-23.6,1.9-35.5c-0.5-8.3-0.2-16.6,0.7-24.8c1.1-10,4.5-19.3,9.7-27.9c2.4-4,5-7.9,7.5-11.9c3.3-5.3,8.5-8.6,13.6-11.9
	c4.6-3,9.5-5.6,14.3-8.2c2.4-1.3,4.9-2.6,7.6-3.2c14.5-3.4,28.9-6.7,43.8-8c8.3-0.7,16.5,0.4,24.7,1.6c13.1,1.8,26,4.3,39,6.6
	c8.1,1.4,14,6,17.8,13.2c2.3,4.5,5.9,7.1,10.8,8.1c6.8,1.4,13.4,2.3,20.3-0.1c4.6-1.6,9.6-2.3,14.5-2.9c10.1-1.1,10.1-1,15.9-8.1
	c0.5-0.1,1.1-0.3,1.6-0.3c18.7,2.7,37.3,0.1,55.9-1.7c3.8-0.4,7.7-0.7,11.5-1c8.2-0.7,16.4-1.4,24.5-3.3c0.7-0.2,1.6,0.1,2.3,0.2
	c0,0.7,0.2,1.4,0,1.7c-6.2,7.4-12.5,14.7-18.7,22.1c-9.6,11.5-20.9,21.2-31.8,31.3c-13.9,12.9-27.9,25.8-41.1,39.5
	c-6.5,6.8-6.6,6.8-15.4,8.5c-9.4,1.8-18.9,3.5-28.4,5.4c-3.7,0.7-7.3,1.8-12,2.9c3.3-7.2,9.7-9,15-12.9c-3.2-0.2-5.4,1.4-7.6,2.5
	c-2.5,1.2-4.8,2.7-7.2,4c-7.3,3.8-14.6,7.7-22.1,11.1c-3.7,1.7-7.8,2.5-11.9,3.5c-1.7,0.4-3.6,0.1-5.6,0.1
	c2.1-5.5,2.1-5.5,23.2-22.1c-0.7-1.7-1.8-0.6-2.5-0.1c-6,3.9-12.2,7.6-17.7,12c-6.8,5.4-14.4,9.1-21.9,13.2
	C461.4,310.2,459.3,311.4,456.6,308.5z"/>
<path class="st1" d="M573.2,188.5c-5.3-11.2-14.2-16.9-24.4-21c-6.7-2.6-13.8-3.8-20.9-4.6c-9.4-0.9-17.5,2.7-24.4,8.4
	c-7.1,5.8-14.7,6.9-23.2,5.7c-6-0.9-11.9-2-17.9-2.9c-6-0.8-12-1.4-18-2.1c-2.1-0.3-4.3-0.8-7.1-1.3c0.9-1.6,1.3-2.8,2.1-3.8
	c3.1-4.2,6.2-8.4,9.4-12.6c12.6-16.5,23.6-33.9,32.9-52.4c4.5-8.9,9.2-17.6,14.4-26.1c11.3-18.7,19.4-39,28.9-58.5
	c1.9-3.8,1.8-3.8,5.4-7.1c0.6,0.4,1.6,0.6,1.9,1.2c5.8,10.2,13.7,18.5,22.8,25.8c3.4,2.7,6.5,5.9,9.8,8.8c4,3.5,8.6,5.9,13.9,6.7
	c4.3,0.7,8.7,1.4,13.1,1.8c9.9,0.9,19-2.6,28.2-5.5c10.6-3.2,20.4-8.3,30.3-13.2c1.4-0.7,2.9-1.2,5.2-2.2c-0.3,2.3-0.3,3.9-0.7,5.4
	c-4.8,14.8-6.8,30.1-8.5,45.5c-0.8,7.4-0.4,14.9,0,22.3c0.3,6.4,2.7,12.4,5.1,18.2c1.4,3.3,2.6,6.6,3.9,9.9c-2,1.8-3.7,3.2-5.1,4.8
	c-5.1,5.8-8.2,12.4-6.7,20.4c0.9,5-1,8.3-5.4,10.9c-12.8,7.4-26.6,11.8-40.8,15.4c-0.3,0.1-0.5,0.1-0.8,0.2
	c-1.4,0.1-2.7,0.3-4.1,0.3C586.1,187.6,579.8,188,573.2,188.5z"/>
<path class="st1" d="M125.9,398.2c-0.1-1.3-0.3-2.7-0.5-4.7c-1.7,2.4-3,4.4-4.6,6.2c-1.1,1.1-2.5,2.1-4,2.6
	c-1.5,0.5-3.3,0.6-4.4-1.2c-0.9-1.5,0-2.5,0.9-3.6c0.5-0.5,0.7-1.2,1.2-2.2c-2.9,1.1-5.4,2.2-7.9,3c-2.6,0.8-4.8-0.1-6.5-2.4
	c-1.5-2.1-1.6-4.2,0.1-6c2.3-2.4,5.1-4.1,8.3-5.2c6.2-2.2,12.4-4.5,18.5-7c7.5-3.1,13.5-8.2,18.9-14.3c4.6-5.2,8.9-10.5,11.5-17
	c3.5-8.7,15-11.8,21.5-9.1c4.1,1.7,8.2,3.3,11.9,5.7c17.2,11.2,36,13.9,56.1,12.6c22.1-1.4,43.6-5.3,65-10.7
	c1.3-0.3,2.6-0.4,4.7-0.6c-1.3,4.5-2.4,8.3-3.5,12.1c0.3,0.2,0.7,0.3,1,0.5c1-1.1,2.4-2,3-3.3c2.4-5.6,5.1-11.1,6.6-16.9
	c1.6-6.6,6.1-8.9,11.7-10c8.4-1.8,16.9-0.8,25.4,0.5c7.2,1.1,13.8,3.8,20.3,6.5c8.9,3.7,18,7,25.8,12.9c1.1,0.8,2.1,1.7,3.4,2.9
	c-0.8,1.8-1.3,3.7-2.3,5.3c-4.9,8.3-9.6,16.7-14.9,24.7c-4.7,7.1-9.8,14-15.2,20.6c-3.3,4-7.4,7.4-11.5,10.5
	c-5.2,3.8-11,6.1-17.8,4.2c-5.3-1.4-10.7-2.3-16.1-3.6c-7.5-1.8-14.9-3.6-22.4-5.5c-22.9-5.9-45.3-13.5-68.5-18.2
	c-9.4-1.9-18.7-4.4-28.1-6.6c-7-1.6-13.8-3.5-20.3-6.8c-6.4-3.2-13-4.2-19.9-1.6c-1.5,0.6-3.3,0.5-4.8,0.9c-2.6,0.8-5.3,1.5-7.7,2.7
	c-4.4,2.2-8.8,4.6-13,7.3C140.3,388,133.2,393.1,125.9,398.2z"/>
<path class="st1" d="M605.9,188.4c2-1.2,2.7-1.7,3.4-2c25.2-7.8,50-17.1,74.6-26.6c17.4-6.8,35.4-11.8,54.2-14
	c15.7-1.8,30.7,0.4,45.4,5.8c4.4,1.6,8.8,3.2,13.2,4.7c10.3,3.5,19.6,8.7,28.5,14.8c5.4,3.7,8.8,9,12,14.5c1.4,2.3,2.6,4.7,4.5,8.1
	c1-2.2,2.1-3.4,1.9-4.3c-0.5-2.4-1.6-4.7-2.3-7c-0.5-1.7-0.8-3.5-1.4-6.3c2.4,0.9,4,1.2,5.3,2c9.2,5.6,17.3,12.7,24.7,20.6
	c3.8,4,7.3,8.2,11,12.3c7.4,8.3,13.4,17.5,18.4,27.3c1.1,2.2,2.1,4.6,2.6,7c2.1,11.1,4.1,22.2,6,33.4c0.5,3.1-1,4.5-4.3,4.4
	c-1.4,0-2.7-0.3-4.1-0.4c-2.7-0.3-5.4-0.7-8.6-1.1c-1.1-2.1-2.4-4.2-3.4-6.5c-5.6-12.8-15.2-22.2-25.7-30.8
	c-4.7-3.8-9.8-7.2-15.3-9.7c-9.2-4.2-19-5.3-29.1-3.7c-7,1.1-14.2,1.7-21,4.4c-0.4,0.2-1-0.1-1.6-0.2c-1-1.9,0.5-3.1,1.6-4
	c10.4-9.4,22.1-16.3,36-18.9c0.2,0,0.4-0.3,1.1-0.8c-0.7-0.7-1.4-1.9-2.1-1.9c-1.6-0.1-3.3,0-4.8,0.6c-5.1,2-10.3,3.9-15.2,6.4
	c-4.2,2.1-8.3,2.8-12.7,1.8c-1.1-0.2-2.2-0.3-3.2-0.7c-6.9-2.1-14-2.8-21.2-3.2c-8.8-0.6-15.9-4.4-20.5-12
	c-2.7-4.4-6.1-7.7-10.6-10.1c-5.3-2.8-10.2-6.3-16-8.4c-5-1.8-9.6-1.6-14.5-0.2c-9.4,2.6-18,6.7-26.2,12
	c-10.2,6.6-20.3,13.3-30.4,19.8c-2.1,1.3-4.2,2.6-6.4,3.8c-0.3,0.2-0.9-0.1-1.9-0.2c4.7-5.4,9.1-10.6,13.6-15.8
	c3.4-3.9,6.8-8,10.5-11.7c12.3-12,24.8-23.7,42.3-27.4c3.2-0.7,6.5-1.4,9.7-1.4c12.9,0.2,25.9,0.7,38.8,1c2.6,0.1,5.3,0.6,8.7-1.6
	c-1.9-0.7-2.8-1.2-3.7-1.3c-7.1-0.6-14.3-1.2-21.4-1.5c-6.6-0.3-13.2-0.6-19.8-0.6c-3.8,0-7.7,0.5-11.4,1.3
	c-7.8,1.7-15.5,4.3-22.4,8.4c-14.2,8.5-29.7,12.9-45.8,15.8c-10,1.8-20.2,2.8-30.3,4C613.5,188.2,610.5,188.2,605.9,188.4z"/>
<path class="st1" d="M319.5,244.1c-1.7,1.2-3.3,2.6-5.1,3.6c-11.1,6.2-21.2,13.8-30.6,22.4c-2.6,2.4-5.6,4.4-8.3,6.8
	c-1.9,1.7-3.9,1.7-6.1,0.7c-10.8-4.8-21.6-9.6-31.4-16.3c-2.9-2-5.5-4.6-7.8-7.3c-4.4-5.3-8.5-10.9-12.5-16.5
	c-7.4-10.5-16.7-19-27.4-26c-5.4-3.6-11.6-5-18.1-4.5c-5.8,0.4-11.5,1.4-16.8,3.8c-5.3,2.3-10.7,4.4-16,6.7
	c-14.5,6.3-29.4,11-45.1,12.3c-10.1,0.8-20.3,1.2-30.4-0.5c-9.5-1.5-15.8-7.5-21.3-14.4c-1.7-2.2-2.2-5.6-2.7-8.5
	c-0.4-2.9,0.7-5.8,3.1-7.3c4.4-2.8,9-5.5,14.5-4.4c5.1,1,10.3,1.8,15.3,3.4c15.7,5.2,31.8,6.3,48,4.3c6.9-0.9,13.6-4,20.3-6.7
	c5.1-2,9.9-4.8,14.8-7.3c10.6-5.5,21.6-8,33.5-5c2.7,0.7,5.4,1,8.1,1.7c10.6,2.8,18.6,9.1,24.5,18.3c4,6.2,8.3,12.3,12.6,18.3
	c7.1,10,17.4,15,28.8,17.9c12.3,3.2,25,3.2,37.7,3.7c4.1,0.2,8.2-0.6,12.3-0.9c1.9-0.1,3.8,0,5.6,0
	C319.1,242.9,319.3,243.5,319.5,244.1z"/>
<path class="st1" d="M246.6,328.4c-1.3-4-6-3.3-8.6-6.4c-0.2-4.3,2.9-7,6.2-9.4c0.9-0.7,2.7-0.4,4-0.1c11.1,2.4,21.6,6.1,31.3,12.2
	c6.5,4.1,12.9,8.3,18.6,13.6c0.8,0.7,1.3,1.7,2.4,2.9c-1.4,1.2-2.4,2.7-3.7,3c-7.5,1.9-14.9,4-22.5,5c-12.5,1.7-25.1,3.1-37.8,3
	c-10.3-0.1-20.2-1.7-29.6-6.3c-7.9-3.8-16-7.3-24-11c-8.6-4-19-2.5-25.9,4.3c-3.1,3-6,3.9-10.3,2.8c-9.3-2.5-18.7-4.5-28.1-6.3
	c-7-1.4-14.1-2.4-21.2-3.3c-2.4-0.3-4.9,0.1-7.3,0.6c-10.9,2.8-21.8,5.6-32.7,8.6c-6.9,2-13.6,4.4-20.3,6.8
	c-3.5,1.3-6.8,1.6-10.6,0.4c0.4-1.3,0.7-2.3,0.9-3.3c-0.4-0.1-1-0.5-1.3-0.4c-2.6,1-5.1,2.1-7.7,3c-1.2,0.4-2.5,0.2-4.9,0.4
	c1.3-1.9,2-2.9,2.7-4c-0.4-0.2-0.9-0.5-1.3-0.5c-3.2,0.6-6.4,2.3-9.5,0c-0.8-0.6-1.4-1.5-2.5-2.6c6.3-4.8,12.6-8.3,19.9-10.1
	c3.7-0.9,7.5-2,11.2-2.7c8-1.6,15-5.4,21.6-9.9c4.5-3.1,9.1-6.2,13.2-9.9c8.7-7.7,19.5-6.9,26.9,0c0.8,0.7,1.8,1.3,2.6,2.1
	c4.6,4.5,10.2,6.1,16.6,6c14.3-0.2,28.6-0.3,42.9-0.2c4.9,0,9.9,0.6,14.8,1.1c6.6,0.6,13.1,1.6,19.6,2.1c14,1,27.8,3.7,41.7,5.6
	c2.9,0.4,5.7,1.8,8.6,2.7C243.8,328.7,245,329.8,246.6,328.4z"/>
<path class="st1" d="M707.8,222.4c-2.3-1.4-4.6-2.9-7-4.2c-8.5-4.8-17.1-5.8-25.9-0.6c-5.7,3.4-9,8.8-11.7,14.5
	c-2.7,5.8-3.8,12-4.2,18.4c-0.2,4.1-0.8,8.2-1,12.4c-0.2,2.7-1.3,4.8-3.4,6.3c-3.3,2.5-6.5,5.2-10.1,7.1c-6.3,3.4-12.9,6.3-19.3,9.4
	c-4.9,2.4-9.9,3.4-15.2,2.2c-3.8-0.8-7.5-0.2-12.6,0.6c3.2,2.1,5.7,1.5,7.9,1.9c2.4,0.5,4.9,0.8,7.3,1.3c2.1,0.5,4.2,1.2,6.3,2
	c2.3,0.9,4.4,2,7.2,3.3c-1.1,1.6-1.7,3.1-2.8,4.1c-1.3,1.4-3,2.4-4.5,3.6c-6.3,5.1-10.3,11.4-10.6,19.7c0,1.3-0.5,2.7-0.8,4.4
	c-1.7,0.2-3.3,0.7-4.8,0.5c-6.5-1-13.1-1.8-19.5-3.4c-6.2-1.6-11.1-6-16-10c-3.6-3-4.2-9.3-1.8-13.8c1.4-2.7,3.1-5.2,5.1-7.5
	c4.3-5,8.7-9.9,13.2-14.8c5.1-5.4,10-11.1,15.6-15.9c9.3-8.2,19.1-15.9,28.7-23.6c7.1-5.7,14-11.6,21.4-16.8
	c16.2-11.4,32.7-22.5,50.2-31.7c9.3-4.9,19.3-6.7,29.4-2.1c5.2,2.4,9.1,6,10.7,11.8c-1.1,0.3-1.8,0.8-2.6,0.8
	c-7.7-0.2-12.7,4.3-17.3,9.7C716.4,216.1,712.9,219.9,707.8,222.4z"/>
<path class="st1" d="M786.1,310.6c-3.3,4-8.4,1.3-13,4.2c5.9,1,10.8,0.5,15.6,0.5c1.6,0,3.3-0.1,4.9,0.2c1.6,0.3,3.2,0.9,3.5,3.4
	c-3.2,1.5-6.2-0.8-9.3-0.7c-3.3,0.1-6.5-0.3-9.9,1c1.3,0.3,2.7,0.9,4,0.9c6.1,0,11.9,1.9,17.7,3.4c0.8,0.2,1.7,0.4,2.3,0.8
	c1,0.8,2,1.8,2.5,3c0.5,1.1-1.5,2.2-3.9,2c-3.6-0.3-7.1-1.1-10.6-1.2c-10.2-0.2-20.3-0.2-30.5,0c-2.7,0.1-5.5,0.8-8,1.8
	c-15.7,6-32,8-48.6,8c-8.8,0-17.6-0.7-26.4-1c-3.6-0.1-7.1,0-10.7-0.1c-15.1-0.3-30.2-0.7-45.4-1c-1.1,0-2.2,0-3.3-0.1
	c-2.7-0.4-4.7-2.1-4.9-4.7c-0.9-8.6,0.5-16.6,7.4-22.6c3.9-3.4,8-6.6,12.4-10.2c5.7,1.9,11.5,3.6,17,5.8
	c13.1,5.3,26.8,8.2,40.2,12.3c1.8,0.6,3.8,0.5,5.7,0.7c2.5,0.3,5,0.2,7.4,0.8c10.7,2.7,21.4,1.6,31.9-0.5c9.7-2,19.2-4.8,28.8-7.2
	c4.5-1.1,9.1-2.3,13.6-3.2C780.3,306.3,783.6,307.1,786.1,310.6z"/>
<path class="st1" d="M868,280.8c-10.4,1.4-19.2,0.4-27.9,0.5c-12.4,0.1-24.7,0.1-37.1,0.2c-9.1,0.1-18.1,0.9-27.6-1.4
	c0-1.5-0.3-3.1,0-4.5c1.9-8.6,3.3-17.3,3-26.2c-0.3-6.9-1-13.7-3.6-20.2c-0.4-1-0.4-2.1-0.7-3.4c7.5-4,15-4.6,23.6-2.6
	c-4.1,6.9-11.7,10.1-14.3,18.1c1.6,0,2.9,0.4,3.9,0c13.5-5.3,27.7-6.6,41.9-7.9c5-0.5,9.8,0.5,14.2,3.4c2.5,1.6,4.3,3.2,4.3,6.4
	c0,1.6-0.3,3.3,1.4,4.5c2.8,0,1.7-3.1,3.2-4.1c0.5-0.1,1.2-0.5,1.5-0.3c3.3,2,6.8,3.7,9.6,6.2c4.1,3.7,7.9,7.7,11.2,12.1
	c4.4,5.6,5.9,12.2,4.6,19.1c-5.3,2.2-8.9,0.2-11.9-3.5c-1.7-2.1-3.3-4.4-5.1-6.4c-0.9-1-2.1-1.9-3.5-0.8c-1.2,0.9-1,2.8,0.6,4.3
	c1,0.9,2.1,1.7,3.2,2.6C864,277.8,865.3,278.8,868,280.8z"/>
<path class="st1" d="M250.9,308.7c1.2-2,2-3.8,3.2-5.1c13.4-14.3,26.6-28.7,42.5-40.3c4.2-3.1,8.6-5.9,13.2-8.5
	c5.3-3,11-4.7,17.6-3.9c0.4,2,1.1,3.8,1.2,5.7c1.1,19.6,1,39.2-3.4,58.5c-1.1,4.5-2.5,9-4.3,13.3c-1.4,3.5-4.6,5-8.1,3.9
	c-9.1-2.9-18.8-4.3-27.1-9.5c-8.9-5.6-19-8.6-29-11.6C254.8,310.6,253.1,309.7,250.9,308.7z"/>
<path class="st1" d="M746.7,310.1c-5.1,3.1-10,3.9-14.8-0.5c-1.8-1.7-3.7-3.3-5-5.4c-3.2-5.1-6.2-10.4-9-15.8
	c-3.6-7-9-11.8-16.7-13.6c-2.1-0.5-4.5-1.1-6.5-0.5c-7.4,2.2-14.6,4.8-18.6,12.3c-0.8,1.6-2,3-3.5,5.4c-1.7-3.2-3-5.5-4.1-7.9
	c-6.8-15.4-8.4-31.3-3.2-47.5c2.5-8,7.5-13.9,15.4-17.2c5.2-2.1,10.2-2,15.2,0.1c8.1,3.5,14.4,8.8,18.2,17.1
	c3.2,7.1,5.3,14.4,6.2,22.2c0.6,5.2,1.2,10.4,2.5,15.5c1,3.9,2.6,7.9,4.6,11.4c4.9,8.7,10.7,16.7,18.8,22.8
	C746.4,308.6,746.4,309.3,746.7,310.1z"/>
<path class="st1" d="M723.5,253.6c-0.6-1-1.2-1.6-1.4-2.4c-1.5-6.5-3.7-12.7-7-18.5c-2.2-4-1.7-7.2,1.3-10.5
	c2.2-2.4,4.2-5.1,6.2-7.7c4.2-5.4,9.4-8.2,16.4-7.5c5.2,0.6,10.4,1.2,15.1,3.7c8.8,4.5,14.4,11.9,17.3,21.1
	c3.7,11.4,5.1,23.1,2.3,35.1c-2.1,8.8-3.8,17.8-6.1,26.6c-2,7.6-2.3,7.5-11.2,10.9c0.2-1.8,0.4-3.4,0.7-5c2-10.5,5.4-20.8,4.5-31.8
	c-0.5-6.7-2.9-12.3-7.9-16.7c-1-0.9-2.2-1.9-3.5-2.1c-6.3-1-12.5-1.8-18.5,1.4C729.1,251.7,726.5,253.3,723.5,253.6z"/>
<path class="st1" d="M515.7,180.1c-7.3,2.5-7.3,2.5-13.3-0.7c1.4-1.8,2.4-3.9,4.1-5c6.4-4.5,13.1-7.6,21.4-7.3
	c13.5,0.5,25,5.8,35.8,13.3c5,3.5,4.9,10.1,0,13.8c-3.6,2.8-7.6,2.9-12.1,1.1c-0.2-1.6-0.4-3.4-0.6-5.2c-0.9,0.3-1.6,0.3-1.8,0.6
	c-0.8,1.4-1.4,3-2.2,4.4c-1.9,3.3-4.7,5.2-8.4,6.1c-6.2,1.4-11.9,0.6-17.4-2.7c-3.6-2.2-4.9-5.8-6.3-9.3c-0.4-1.1,0.3-2.7,0.4-4
	C515.4,183.4,515.5,181.8,515.7,180.1z"/>
<path class="st1" d="M650.8,168.6c-3.6-4.4-3.4-8.8-3.2-13.2c0.3-4.2,1.9-8,4.4-11.4c2.1-2.9,5.2-4,8.4-4.7c3.2-0.7,5.8,0.5,8.4,3.4
	c0.9-2.1,1.6-3.5,2.1-5c2.3-6.9,7.5-9.9,14.4-10.2c1.9-0.1,3.9,0,5.7,0.3c3.7,0.6,4.3,2.4,2.5,6.3c-0.1,0.2,0,0.5-0.1,1.4
	c1.1,0.2,2.3,0.6,3.5,0.5c2.4-0.2,4.9-0.8,7.3-1.2c3-0.5,5.3,0.9,7.5,2.7c2.4,2,4.5,4,4.3,8.1c-7.3,2.2-14.6,4.4-21.9,6.7
	c-7.3,2.3-14.7,4.6-21.9,7.3C665.3,162.2,658.6,166.2,650.8,168.6z"/>
<path class="st1" d="M729.4,313.8c-4.2,1.5-8.1,1.6-11.8,1.6c-11-0.2-21.9-0.9-32.6-4c-4.8-1.4-7.1-5-8.3-9.4
	c-1.7-6.1,0.4-11.6,4.3-16.1c5-5.8,11.8-8,19.3-7c3,0.4,5.7,2.1,7.6,4.6c1.5,2,3.1,3.8,4.5,5.9C718,297.2,723.4,305.1,729.4,313.8z"
	/>
<path class="st1" d="M749.4,305c-4.7-2-7.7-5.1-10.3-8.7c-6.6-9.3-10.7-19.7-13.6-30.7c-0.7-2.7,0-4.8,1.8-6.8
	c5.3-5.7,11.9-7.6,19.4-6.7c3.3,0.4,5.8,2.1,6.9,5.2c1.2,3.3,2.6,6.8,2.6,10.3c0,11.9-2.3,23.5-4.9,35
	C751.1,303.2,750.3,303.7,749.4,305z"/>
<path class="st0" d="M560,154.2c1.9,2.9,4.7,3,7.4,3.3c14.9,1.3,29.2,5,43.3,9.9c1.4,0.5,2.5,1.5,4,2.3c-2,1.8-3.6,0.9-5,0.3
	c-13.7-5.2-27.9-8.2-42.5-9.5c-4.4-0.4-8.7-1-12.1-4.4c-1.1-1-2.9-1.5-4.5-1.8c-2.7-0.6-5.5-0.6-8.1-1.3c-12.2-3.2-24-1-35.6,3
	c-3.1,1.1-6.2,2.3-9.3,3.3c-1.2,0.4-2.5,0.3-5.2,0.6c2.5-3,4.4-4.6,6.6-5.3c9-2.5,17.8-6,27.3-6c6.3,0,12.6,0.4,18.9,1.1
	c3.4,0.4,6.3,0.9,9.1-1.9c5.8-6,6.1-6.4,5.2-14.1c-3.2-1.5-6.3-3.5-8.6-6.8c-2.3-3.4-3-7-2.5-11c0.3-2.4,1.7-4.2,4.1-4.5
	c7.3-1.1,14.4-0.9,19.6,5.4c2.3,2.7,4.4,5.6,6.3,8.6c1.4,2.2,0.7,4.4-1.8,5.4c-2.8,1.1-5.8,1.8-8.7,2.5c-2.4,0.6-3.9,1.9-4.4,4.3
	C562.4,143.1,561.2,148.7,560,154.2z"/>
<path class="st0" d="M571.4,77.1c-1.9,2.5-3.6,5.3-5.8,7.6c-4.8,4.9-9.6,9.9-15.1,14c-6,4.5-12.1,3.4-16.6-2.5
	c-2.1-2.8-4.1-6.2-4.6-9.5c-0.9-6.8-1.5-13.7,0.4-20.5c0.8-2.9,1.2-5.9,1.5-8.9c0.3-2.6,1-4.8,3.7-6.5c1.2,0.9,2.9,1.6,3.7,2.8
	c7.9,10.9,18.6,17.7,31,22.2C570.2,75.9,570.6,76.4,571.4,77.1z M565.4,79.1c-4.5-2.6-8.1-4.5-11.6-6.6c-3.3-2-6.6-4-9.7-6.2
	c-3.2-2.4-5.2-6.2-9-8c-4.4,8.3-4.8,12.6-2.4,23.8c1.5-0.8,2.9-1.5,4.2-2.3c7.8-5.3,14.5-4.9,21.6,1.2c1,0.8,2.1,1.5,3.4,2.4
	C563.1,82,563.9,81,565.4,79.1z M556,88.8c-3.1-0.6-4.5-1.2-6-1.2c-1.8,0-3.1,1.1-3.1,3c0,1.2,0.3,3,1.1,3.5
	c0.8,0.4,2.5-0.2,3.5-0.9C552.8,92.4,553.7,91.1,556,88.8z"/>
<path class="st0" d="M627,71.6c1.7,3.2,1,5.8-0.1,8.3c-1.9,4.5-4,9-5.9,13.6c-1.4,3.3-3.2,6.4-4.2,9.8c-1.4,4.9-8.8,8.3-13.4,7.2
	c-4.1-1-7.9-2.4-10.4-6c-3.1-4.5-6-9.2-8.9-13.8c-0.9-1.4-0.2-3.6,1.4-4.1c2.3-0.8,4.7-1.4,7.1-1.7c7.6-1.3,15-3.2,21.7-7.2
	c2.1-1.3,4.1-2.8,6.1-4.2C622.3,72.2,624.2,71.2,627,71.6z M622.2,79.4c-4.2,1.9-7.6,3.5-11.1,4.8c-3.3,1.3-6.7,2.3-10.1,3.2
	c-3.6,1-7.5,0.9-11,3.7c1,3.9,2.3,7.3,5.8,10c1.5-1.8,3-3.4,4.2-5.2c3.7-5.6,9-7.7,15.4-7.6c1.3,0,2.6,0,3.7,0
	C621.2,86,622.6,83.7,622.2,79.4z M611.7,93c-1.5,1-3,1.4-3.6,2.4c-0.8,1.3-1.1,3-1.2,4.5c-0.1,2.1,1.8,4.3,3.1,4.1
	c1.9-0.2,2.6-1.7,3.2-3.2c0.5-1.2,1.3-2.6,1-3.8C614.1,95.7,612.8,94.6,611.7,93z"/>
<path class="st0" d="M587.7,132.6c1.2,1.1,2.4,1.8,3.1,2.9c1,1.4-0.4,3.6-2.1,3.5c-1-0.1-2.3-0.3-3-1c-0.7-0.6-1.5-2.1-1.2-2.7
	C585.1,134.2,586.4,133.6,587.7,132.6z"/>
<path class="st0" d="M526.3,125.6c0.2-1.6,1.7-2.8,3.5-2.7c1.9,0.1,3.3,1.4,3.2,2.9c-0.1,2-1.9,3.5-3.9,3.2
	C527.4,128.7,526.1,127.1,526.3,125.6z"/>
<path class="st0" d="M540.5,135c2.4-0.1,4,1.3,3.9,2.9c-0.2,1.5-1,2.5-2.6,2.7c-1.8,0.2-3.4-1.2-3-2.9
	C539,136.5,540,135.6,540.5,135z"/>
<path class="st0" d="M516.2,136.2c2.6,0.1,3.9,1.2,3.8,2.8c-0.1,1.5-1.1,2.4-2.6,2.4c-1.7,0-3.3-1.4-3-2.9
	C514.5,137.5,515.7,136.7,516.2,136.2z"/>
<path class="st0" d="M575.2,142c1.5,1.5,2.5,2.5,3.5,3.5c-0.7,0.7-1.3,1.8-2.1,1.9c-1.6,0.4-3.5-0.1-3.7-2
	C572.8,144.6,574.1,143.5,575.2,142z"/>
<path class="st0" d="M589.4,148.4c0.8-0.4,1.8-1.4,2.9-1.6c1.6-0.3,3.2,1.4,3.3,2.9c0,1.2-1.5,2.4-2.9,2.2
	C590.7,151.8,589.3,150.5,589.4,148.4z"/>
<path class="st0" d="M855.9,263.2c-1.8,0.2-3.7,0.5-5.5,0.6c-8.9,0.3-17.3,2.1-24.5,7.7c-0.4,0.3-0.9,0.8-1.4,0.8c-1,0.1-2,0-3,0
	c0.2-0.9,0.1-2.1,0.7-2.8c0.9-1,2-1.9,3.3-2.4c7.8-3.5,15.8-6,24.4-6.5c2-0.1,4.1,0.5,6.1,0.8C855.9,262.1,855.9,262.7,855.9,263.2z
	"/>
<path class="st0" d="M809.2,277.4c-3.4-1.3-5.2-1.8-6.8-2.7c-3-1.7-3.1-3.7-0.3-6.6c0.3-0.4,1-0.5,1.8-0.9
	C805.4,270.1,806.8,272.9,809.2,277.4z"/>
<path class="st0" d="M677.2,276.5c-2.9-4.5-1.1-7.1,1.1-9.2c3.9-3.9,8.9-4.7,14.1-4.6c0.4,2.8-1.6,3.3-2.9,3.7
	C684.4,268,680,270.5,677.2,276.5z"/>
<path class="st0" d="M686.8,243.9c-3,1.7-6,3.4-9,4.9c-0.4,0.2-1.4-0.4-1.9-0.9c-0.2-0.2-0.1-1.1,0.2-1.5
	C678.9,243.1,682.6,242.2,686.8,243.9z"/>
<path class="st0" d="M676.8,258.6c1.9-5,6.1-4.9,10-5.3c0.4,0.7,0.7,1,0.7,1.1C684.9,258,680.7,257.7,676.8,258.6z"/>
<path class="st0" d="M762.9,240.2c-1.6,0.8-2.3,1.4-2.9,1.4c-6.8-0.4-13.6-0.8-20.4-1.4c-1.5-0.1-3-0.8-4.9-1.3
	c4.3-3.4,4.3-3.5,12.3-3.6C752.4,235.4,757.9,235.1,762.9,240.2z"/>
<path class="st0" d="M753.7,231.4c-2.8-0.7-5.6-1.2-8.3-2c-0.5-0.2-1.3-1.4-1.1-1.8c0.4-0.9,1.2-1.5,1.9-2.2
	c0.1-0.1,0.5-0.1,0.8-0.1C750.4,225.7,752.2,228.1,753.7,231.4z"/>
<path class="st0" d="M753.3,219.3c-4.8,1.4-4.8,1.4-8.6-0.5C748.2,216.4,749.6,216.5,753.3,219.3z"/>
<path class="st1" d="M565.4,79.1c-1.5,1.9-2.3,2.9-3.4,4.3c-1.3-0.9-2.5-1.6-3.4-2.4c-7.1-6.1-13.8-6.5-21.6-1.2
	c-1.3,0.9-2.7,1.5-4.2,2.3c-2.4-11.3-2-15.5,2.4-23.8c3.8,1.8,5.8,5.6,9,8c3.1,2.3,6.4,4.3,9.7,6.2
	C557.3,74.6,560.9,76.5,565.4,79.1z"/>
<path class="st1" d="M556,88.8c-2.3,2.3-3.2,3.6-4.5,4.4c-1,0.7-2.7,1.3-3.5,0.9c-0.8-0.4-1-2.2-1.1-3.5c0-1.9,1.3-3,3.1-3
	C551.5,87.6,552.9,88.1,556,88.8z"/>
<path class="st1" d="M622.2,79.4c0.3,4.4-1,6.6-3.1,9.1c-1.1,0-2.4,0-3.7,0c-6.4-0.1-11.7,2-15.4,7.6c-1.2,1.8-2.7,3.3-4.2,5.2
	c-3.5-2.8-4.8-6.1-5.8-10c3.5-2.7,7.4-2.6,11-3.7c3.4-1,6.8-2,10.1-3.2C614.6,82.9,618,81.2,622.2,79.4z"/>
<path class="st1" d="M611.7,93c1.1,1.6,2.3,2.7,2.6,4c0.2,1.2-0.5,2.6-1,3.8c-0.6,1.5-1.3,3-3.2,3.2c-1.3,0.1-3.2-2-3.1-4.1
	c0-1.5,0.4-3.2,1.2-4.5C608.7,94.4,610.2,94,611.7,93z"/>
</svg>
