<?xml version="1.0" encoding="utf-8"?>
<!DOCTYPE svg PUBLIC "-//W3C//DTD SVG 1.1//EN" "http://www.w3.org/Graphics/SVG/1.1/DTD/svg11.dtd">
<svg version="1.1" id="snowflakes-migration-scheme" xmlns="http://www.w3.org/2000/svg" xmlns:xlink="http://www.w3.org/1999/xlink" width="1000" height="400" viewBox="0 0 1000 400">
<path d="M573.8,322.1c4.5-2.7,8.8-5.3,13.1-7.9s7-7.3,11.8-9.9c0.7,1,1.4,1.6,1.5,2.4c1.2,6,5.7,9.4,10.5,12.2
	c3.8,2.2,7.9,2.2,12.2,0.1c7.7-3.7,13-10,18.8-15.9c1-1,2-2,3-3c0.2-0.2,0.5-0.1,1-0.2c0.3,0.7,0.9,1.5,0.9,2.2
	c0.3,6.1,4.4,10.3,8.1,14.2c3.6,3.7,8.9,4.4,14,2.7c2.6-0.8,5-2,7.5-3.1c5.6-2.5,9.1-7.1,12.3-12.1c1.4-2.2,2.1-5,5.3-6.7
	c0.6,1.5,1.2,2.8,1.8,4.1c0.5,1.2,0.6,2.6,1.4,3.5c3.9,4.2,7.7,8.5,12,12.2c4.1,3.5,9.5,3.8,14.6,3.8c3.1,0,6.2-0.9,9.2-1.5
	c5.6-1,9.7-4.6,13.8-8.2c9.5-8.1,18.3-16.8,24.8-27.5c2.6-4.3,4.8-8.7,7.2-13.1c2.6-4.9,5.2-9.8,7.7-14.8c0.4-0.8,0.8-1.6,1.3-2.2
	c6.3-7.4,12.3-15.1,19.1-21.9c6.5-6.5,15.2-10,23.4-13.9c4.3-2,8.7-3.6,13-5.5c8.1-3.5,16.6-4.1,25.2-4c5.8,0.1,11.7,0.3,17.5,0.5
	c4.2,0.2,4.2,0.2,5.4-3.7c0.3-1.1,0.6-2.2,0.8-3.3c0.1-0.4-0.1-0.8-0.2-1.4c-2.1-1.1-4.1-0.3-6,0.7c-2.5,1.2-4.8,2.5-7.3,3.6
	c-1.3,0.5-2.8,0.6-5.1,1.1c1.7-3.2,4-4.1,6-5.3c3.7-2.3,7.5-4.7,11.2-7.1c1.1-0.7,2.1-1.4,3.2-2c1.4-0.8,2.2-1.7,1.5-3.5
	c-3.2-0.4-5.7,3.6-9.1,1.8c-0.4-2,0.9-2.4,2-3c2.4-1.2,4.9-2.3,7.3-3.6c1.8-0.9,3.1-2.1,2.2-4.7c-1.5,0-3.1,0-5.1,0
	c0.4-1.1,0.4-1.8,0.8-2.3c2.2-2.2,4.5-4.4,6.9-6.3c0.6-0.5,2.3-0.7,2.6-0.4c1.8,2.3,3.4,4.8,4.9,7.3c0.2,0.4-0.4,1.2-0.7,2.2
	c-1.5-0.6-2.7-1.1-4-1.7c-1.6,1.9-1.5,3.8-0.5,5.7c0.7,1.4,1.6,2.7,2.4,4.1c1,1.7,0.8,3-1.3,3.7c-1.1-0.8-2.3-1.5-3.4-2.3
	c-2.8,4.6-2.6,6.3,1,9.7c0.9,0.9,1.9,1.7,2.8,2.7c0.9,1,1.8,2.2,0.5,3.3c-0.6,0.5-2.1,0.2-3-0.2c-1.7-0.7-3.2-1.7-5.5-2.9
	c-0.4,2.9-0.9,5.1-0.8,7.2c0.1,0.9,1.5,2,2.5,2.5c2.5,1.1,5.2,1.6,7.6,2.8c4,2.2,7.8,4.7,11.6,7.2c1.3,0.8,2.5,1.8,3.8,2.8
	c2.6-2.1,4.7-4.2,6.5-6.9c-4.3-3.2-10-2.1-13.7-5.6c1.1-2.2,2.6-1.9,3.9-1.5c2.5,0.6,5,1.2,7.4,2.1c3.9,1.6,6.9,0.7,9.2-2.8
	c0.7-1.1,1.6-2.2,2.5-3.4c-2.8-2.5-7,0-9.4-3.9c1.3-0.4,2.2-1,3.2-1c1.7-0.1,3.5-0.1,5.1,0.2c5.4,1,8-2.2,10.4-6.5
	c-2-0.9-3.7-1.6-6.1-2.7c1.2-0.8,1.8-1.4,2.4-1.6c0.6-0.2,1.4-0.1,2.1-0.1c6.5-0.1,7.5,1,7.1,7.4c-0.1,2.4,0.2,4.8,0.2,7.2
	c0,0.8-0.7,1.6-1.1,2.4c-0.7-0.6-1.6-1-1.9-1.7c-0.6-1.2-0.7-2.5-1.1-3.9c-4.3,2.2-5.3,3.9-4.8,7.6c0.2,1.3,0.7,2.5,0.8,3.8
	c0,0.7-0.5,1.7-1.1,2c-0.5,0.2-1.5-0.3-2.1-0.8c-0.7-0.6-1.1-1.5-1.6-2.3c-4,2-5.1,4.1-4.1,7.9c0.5,2.1,1.4,4.1,1.8,6.1
	c0.1,0.7-0.6,1.7-1,2.5c-0.8-0.5-1.7-0.8-2.2-1.4c-0.7-0.9-0.9-2.1-1.4-3.1c-0.4-0.9-1-1.7-1.5-2.6c-3,0.9-3.4,3.8-5.1,5.5
	c0.2,0.6,0.1,1.1,0.4,1.4c3.7,4.9,7.5,9.7,11.2,14.5c2.9,3.8,3.4,4,7.3,1.4c1.6-1.1,3-2.3,4.5-3.5c-2-3.6-6.1-1.2-8.5-4.1
	c1-0.5,1.8-1.2,2.6-1.2c2,0.1,4,0.4,5.9,0.7c5.2,0.9,8.6-0.7,12-6c-2.1-0.5-4.1-0.9-6-1.3c0-0.2-0.1-0.5-0.1-0.7
	c0.8-0.3,1.6-1,2.4-1c3.1,0,6.3,0,9.4,0.3c3.2,0.2,4.2,1.8,2.6,4.5c-1.6,2.9-2.1,5.8-2.1,9c0,2.5-0.1,2.5-2.3,4
	c-2.3-3.1,0.2-6.7-0.9-9.8c-4.9,0.4-7.5,3.5-7,8c0.3,3.1,0.7,6.2,0.7,9.4c0,0.9-1,1.7-1.6,2.6c-0.7-0.8-1.6-1.5-1.9-2.4
	c-0.5-1.8-0.5-3.7-0.9-5.5c-0.3-1.3-0.8-2.5-1.4-4.3c-3.1,2.2-5.6,4-8.1,5.8c-1.5,1.1-1.8,2.5-1,4.1c0.3,0.5,0.6,1,0.8,1.5
	c2.7,5.7,5.4,11.3,8.1,17c0.5,1.2,1.3,2.6-0.3,3.3c-1.5,0.8-2.4-0.5-2.9-1.7c-1.4-2.8-2.8-5.6-4-8.5c-2.9-6.8-6.5-13.3-11-19.2
	c-5.3-7.1-10.4-14.2-17.3-19.9c-6-5-12.8-8-20.1-10.2c-2.7-0.8-5.7-0.5-8.5-0.8c-11.5-1.1-23.1-1-34.6,0.6c-2.1,0.3-4.2,0.8-6.2,1.6
	c-9.6,3.6-18.7,8.4-27.7,13.3c-8.2,4.4-14,11.1-20.1,17.7c-7.2,8-13.1,16.7-17.7,26.6c-5.6,12.1-12.9,23.1-22.3,32.7
	c-4.6,4.7-9.4,9.1-14.2,13.6c-2.7,2.5-5.8,4-9.4,4.7c-6.5,1.2-12.9,2.3-19.5,1.7c-2-0.2-3.4-0.9-4.9-2.2c-4.3-4.1-8.8-8.1-13.3-12
	c-2.5-2.2-3.4-2.3-5.9-0.1c-5.2,4.6-11.5,7.4-17.9,10c-8.6,3.4-19.9,2.2-26.7-6.7c-0.8-1.1-1.9-2.1-3-3.3c-1.2,0.7-2.2,1.2-3.1,1.8
	c-3.6,2.3-7.1,4.7-10.6,7.1c-7.8,5.3-19.3,5-27.8-2.4c-3.8-3.3-4.4-3.5-8.3-0.1c-4.3,3.7-9.6,4.9-14.8,6.4
	C577.8,325,575.5,325.3,573.8,322.1z"/>
<path d="M377.9,325.7c-1.3,0.4-2.5,1-3.8,1.1c-6.5,0.5-13.1,1.1-19.6-0.2c-5.7-1.2-11.5-1.8-17.1-3.3
	c-2.9-0.8-5.5-2.8-8.2-4.3c-0.6-0.3-1.2-0.8-1.8-1.2c-9.7-5.2-18.4-11.9-27-18.8c-2.9-2.3-6.1-4.2-9.2-6.2
	c-8.8-5.9-16.9-12.6-24.7-19.8c-3.3-3.1-7.3-5.4-10.9-8.2c-7.4-5.9-15.4-10.7-23.4-15.8c-5.6-3.6-11.1-7.5-16.7-11.1
	c-15.1-9.8-31.4-16.8-48.9-20.7c-7-1.5-14.2-1.8-21.3-0.3c-6.5,1.4-13.3,2.4-19.4,5c-10.1,4.4-19.1,10.6-27.1,18.3
	C88.5,250,79.6,261,72.1,273c-4.1,6.5-7.8,13.3-11.1,20.2c-5,10.6-10,21.1-15.8,31.3c-2.6,4.6-4.2,9.6-6.3,14.5
	c-0.4,1-0.9,1.9-1.7,3.6c-0.9-3-0.2-5,0.4-6.9c2.3-6.6,4.8-13.1,7.1-19.7c0.3-0.9,0.7-2.1,0.4-2.8c-1.5-3.1-3.3-6.1-5.1-9.4
	c-4.3,3.1-1.9,8.5-4.7,11.7c-0.4,0-0.7-0.1-1.1-0.1c0-1.3-0.3-2.6,0-3.9c0.7-3.8,1.4-7.6,2.3-11.3c0.6-2.6-0.5-4.3-1.9-6.3
	c-1,1.5-1.8,2.8-2.7,4.2c-1.9-1.2-1.7-2.8-1.8-4.3c-0.4-6.9-0.4-6.9,1.3-9.5c3.2,2.8,6.4,5.6,10,8.7c-1.4,0.7-2.3,1.1-3.2,1.5
	c1.6,4.4,1.8,4.5,5.7,4.2c1.1-0.1,2.1,0,3.3,0c0.2,3.1-2.9,2.3-3.7,3.9c1,3.8,1.1,3.9,4.4,6c0.6-0.7,1.4-1.4,1.7-2.2
	c2.2-4.9,4.3-9.9,6.6-14.9c1.8-3.9,3.5-7.8,5.6-11.5c2.6-4.7,5.6-9.3,8.3-14c0.5-0.9,0.8-2.5,0.3-3.1c-2.3-3-4.8-5.8-7.4-8.8
	c-5,4.4-2.7,11.5-7.2,15.8c-1.3-1.3-1-2.5-0.7-3.7c0.9-4.5,1.9-8.9,2.8-13.4c0.7-3.6,0.2-4.5-3.8-6.7c-1.9,2.5-0.5,6.8-4.6,8.5
	c-0.3-1-0.8-1.8-0.8-2.6c0.1-2.4,0.5-4.8,0.8-7.2c0.3-2.6,0.5-5.1-2-7.2c-0.7,0.7-1.3,1.3-2.3,2.4c-1.8-4-1.1-8-2.4-11.7
	c0.3-0.2,0.6-0.4,1-0.6c1.1,0.7,2.4,1.2,3.2,2.2c1.3,1.7,2.6,3.5,3.4,5.4c1.3,3.5,3.8,4.7,7.2,4.9c1.3,0.1,2.6,0.3,3.9,0.5
	c0.1,0.3,0.2,0.6,0.2,0.9c-1,0.9-1.9,1.8-3,2.7c0.1,2,1.5,2.6,3.2,2.6c2.4-0.1,4.8-0.5,7.2-0.9c1.3-0.2,2.6-0.6,4.5-1
	c-0.4,5.1-5.9,3.8-7.2,7.2c1.5,3,3.9,5.5,7.3,7.6c1.4-1.7,2.8-3.3,4.2-4.9c4.3-5,8.5-9.9,12.8-14.9c2.6-3,5.2-6.1,7.8-9.1
	c1.4-1.6,1.6-3.2,0.6-5.1c-2.1-3.6-3.2-7.9-6.8-11.5c-0.9,1.4-1.7,2.5-2.2,3.7c-1.2,3-2.3,6.1-3.4,9.2c-0.6,1.7-1.3,3.1-4.1,3
	c0.3-1.5,0.6-2.8,0.9-4.1c1.4-5.1,2.9-10.1,4.1-15.3c1-4.1,0.2-5.8-3.4-9c-3.5,2.6-3.6,8.1-8.1,9.8c-1.5-1.5-0.3-2.6,0.2-3.6
	c1.4-2.8,3-5.5,4.3-8.3c1-2,1.4-4-0.3-6.2c-1.1,0.6-2,1.1-3.5,1.8c-0.4-4.9-0.8-9.4-1.3-14.2c1.7-0.3,2.8,0.6,3.3,1.9
	c1.7,4.4,5.9,7.3,7.3,11.9c0.3,1,2.1,1.7,3.4,2.2c1.3,0.6,2.8,0.7,4.1,1.2c0.5,0.2,1.1,1.1,1,1.6c0,0.5-0.8,1.1-1.3,1.3
	c-1,0.3-2.1,0.4-3.4,0.6c0.6,3.2,2.2,5.3,5.1,6c3.6,0.9,7.2,1.6,10.8,2.4c1.3,0.3,2.6,0.3,3.7,0.8c0.6,0.3,1.5,1.3,1.4,1.7
	c-0.3,0.8-1.1,1.8-1.8,1.9c-2.1,0.3-4.3,0.3-6.4,0.4c-1.1,0.1-2.2,0.2-3.8,0.3c1.4,3.8,4.2,5.9,5.9,8.7c5.4-2.6,10.6-5,15.6-7.6
	c7.1-3.7,14.7-5.4,22.5-6.3c1.8-0.2,3.7,0,5.5,0.1c4.3,0.4,8.5,0.8,12.8,1.2c8.4,0.9,16.2,4.1,24.1,7c13.7,5.2,26.4,12.1,39.1,19.3
	c0.5,0.3,1,0.5,1.5,0.9c12.2,9,24.4,17.8,36.4,26.9c9.6,7.3,18.9,15.1,28.5,22.5c2.8,2.2,6,3.8,8.9,5.9c7.1,5,14,10.3,21.2,15.2
	c3.9,2.6,8.1,4.7,12.4,6.7c3.6,1.7,7.3,3.3,11.1,4.6c8.5,2.8,17.3,3.4,26.2,2.7c2.5-0.2,5-0.7,7.1,1.1
	C377.8,324.8,377.8,325.3,377.9,325.7z"/>
<path d="M511.5,329c0.7,1.9,0.9,3.3,1.6,4.3c2.9,4.4,5.8,8.8,9.1,12.9c2.8,3.5,3,4.4-0.5,7.3c-3.9,3.2-7.8,6.2-11.8,9.2
	c-1.3,0.9-2.9,1.3-4.6,2.1c-0.3-2.6,1.2-3.4,2.3-4.3c3.1-2.5,6.3-4.9,9.4-7.5c2.5-2,2.7-2.7,0.9-5.4c-3.2-4.9-6.5-9.7-9.8-14.5
	c-1.6-2.3-3.7-3.4-6.6-3.2c-6.1,0.4-12.2,0.8-18.3,1.1c-1.6,0.1-2.8,0.8-3.3,2.3c-2,5.5-3.9,11-5.8,16.5c-0.7,2-1.1,4-1.8,6.3
	c-7-0.7-13.1,3.4-20,2.9c0.1-2.4,1.7-2.6,2.9-3c3.4-1.1,6.8-2.1,10.3-2.9c2.8-0.7,4.5-2.1,5.2-5c1-3.9,2.4-7.6,3.5-11.5
	c1.1-4.2,0.3-5.2-3.9-5.1c-12,0.5-23.9,1-35.9,1.6c-9,0.5-17.6-0.9-26.1-3.8c-0.6-0.2-1.2-0.7-1.7-1c-0.5-2.2,0.9-3.1,2.3-3.8
	c1.1-0.6,2.3-1.1,3.6-1.4c11.7-2.9,21.2-9.2,30.1-17.1c13-11.6,23-25.6,32.9-39.7c3.7-5.2,8-10,12-15c0.3-0.3,0.5-0.7,0.9-0.9
	c6.6-3.8,12.9-8.4,20.8-9.4c3.3-0.4,5.5,1.2,7.5,3.3c1.5,1.5,2.5,3.5,3.8,5.2c2,2.8,4.1,5.5,6,8.3c2.3,3.2,4.4,6.6,6.7,9.8
	c6.5,9,13,18,19.5,27c2.6,3.7,5.1,7.5,7.6,11.4c0.9,1.4,1.8,3,2.3,4.6c0.4,1.1,0.7,2.9,0.1,3.7c-2.1,2.8-4.2,6-7.1,7.7
	c-5.9,3.6-12.6,5.1-19.7,4.4c-3.2-0.3-6.4,0.7-9.7,1c-3.1,0.3-6.3,0.4-9.4,0.7C515.1,328.2,513.6,328.6,511.5,329z M416.2,326.5
	c0,0.4,0,0.8,0,1.2c1.7,0.5,3.4,1.1,5.1,1.3c12.7,1.7,25.3-0.1,38-0.6c4.5-0.2,9.1-1.1,13.6-1.2c12.5-0.2,25.1-0.5,37.5-1.9
	c11.2-1.3,22.4-2.2,33.6-3.4c5.1-0.5,9.6-2.4,13.2-6.2c1.7-1.8,1.8-3.2,0.6-5.3c-6.7-11.8-14.9-22.6-22.4-33.8
	c-0.3-0.5-0.8-0.8-1.1-1.3c-3.7-4.7-7.6-9.2-11.1-14.1c-2.6-3.7-4.6-7.8-7.2-11.6c-2.9-4.3-7.4-5.5-12.3-3.8c-8,2.8-14.1,8-19,14.6
	c-5,6.8-9.8,13.6-14.8,20.4c-1.6,2.2-3.6,4.1-5.1,6.3c-4.7,7.2-10,13.8-17,19c-3.4,2.6-6.6,5.5-10.1,7.9c-6.2,4.3-12,9.3-19.7,10.9
	C417.5,325.4,416.9,326.1,416.2,326.5z"/>
<g>
	<path d="M558.3,58.9c0-1,0-1.7,0-2.3c0-1.9,1.1-2.5,2.8-2.2c0.4,0.1,0.8,0.2,1.2,0.3c5.4,2,11,2.9,16.7,3.6
		c0.8,0.1,1.4,0.7,2.2,1.1c-0.3,2.3-1.7,3-3.4,3.6c-6,1.9-12,3.6-17.5,6.9c-0.8,0.5-2.1,0.3-3.6,0.5c1-5,6.2-4.3,8.5-7.6
		c-1.3-0.2-2.2-0.5-3.1-0.4c-9.8,0.6-19.1,2.9-28,7.1c-6.4,3-12.8,6.4-19.4,8.9c-6.6,2.5-13.6,4.1-20.4,6.2
		c-3.9,1.2-7.7,0.1-11.4-0.8c-7.2-1.8-13.9-4.9-20.4-8.6c-6.1-3.4-12.6-6-19-8.6c-2.7-1.1-5.7-1.7-8.6-2.3
		c-6.2-1.4-11.5,1.3-16.6,4.3c-3.7,2.1-6.9,5.1-10.5,7.3c-2.6,1.6-5.6,2.8-8.5,3.7c-3.8,1.1-7.7,1.8-11.7,2.5
		c-0.9,0.2-2.4,0-2.8-0.6c-0.7-1.1-1.1-2.5-1.1-3.8c0-0.5,1.9-1.3,2.7-1.1c7,1.2,12.9-1.5,18.5-5c4-2.5,7.9-5.1,11.7-7.8
		c3.6-2.7,7.5-3.5,12-3.5c11.1,0,20.8,4.4,30.6,8.5c5,2.1,9.7,4.8,14.5,7.2c12,5.8,24.2,4.7,36.2,0.5c6.7-2.4,13.2-5.4,19.5-8.6
		c8.4-4.2,17.2-6.7,26.5-8.1C556.8,59.4,557.3,59.2,558.3,58.9z"/>
	<path d="M558.2,91.2c-0.8-1.6-1.2-2.5-1.8-3.7c1.1-0.4,1.9-0.9,2.8-1c4.3-0.2,17.5,2.3,19.9,3.7
		c0.1,2.4-1.6,3.1-3.4,3.7c-4.4,1.5-8.9,3-13.4,4.5c-2.2,0.7-2.2,0.7-5.1-0.8c1.5-1,2.7-1.9,4-2.7c-0.1-0.2-0.1-0.5-0.2-0.7
		c-1.4,0-2.7-0.1-4.1,0c-7.1,0.6-14.2,1.3-21.3,1.9c-7.6,0.7-14.8,2.8-22,5.4c-5.8,2-11.5,4.4-17.3,6.1c-7.6,2.2-15.3,1.7-22.4-2
		c-8.8-4.6-18.1-7.9-27.9-9.2c-9.2-1.3-18.3,0.2-26.5,4.6c-4.6,2.5-9,5.5-13.4,8.3c-6.2,3.8-13.1,5.5-20.2,6.7
		c-1.6,0.3-3.3,0.2-3.9-1.8c-0.8-2.7,0-4.6,2.9-4.9c4.1-0.5,8.2-1.2,12.2-2.2c7.7-2,14.4-6.1,21.2-10c7.2-4.1,14.7-6.4,22.9-5.7
		c3.8,0.3,7.6,1.3,11.3,2.4c6.8,2,13.6,4.2,20.4,6.6c11.3,3.9,22.6,4,34,0c6.5-2.2,13.1-4,19.6-6c7.7-2.3,15.7-2.8,23.7-3
		C552.6,91.2,555,91.2,558.2,91.2z"/>
	<path d="M385.9,137.9c1-0.2,1.9-0.6,2.7-0.5c10,1.1,18.7-2.4,27.2-7.3c3.3-1.9,6.9-3.5,10.4-4.9
		c5.7-2.3,11.7-3,17.7-2.1c6,0.9,12,2.3,18,3.7c6.5,1.5,12.9,3.7,19.4,5c10.7,2.2,21.3,0.8,31.6-2.3c7-2,13.7-5,20.6-7.2
		c5.8-1.9,11.8-3.1,18.1-2.8c2.5,0.1,5,0.5,8.1-0.6c-2.3-1.3-3.9-2.2-6.1-3.5c2.9-1.6,5.1-0.9,7.2-0.5c4.9,0.8,9.8,1.8,14.7,2.5
		c1.6,0.2,2.9,0.6,3.2,2.2c0.3,1.6-0.7,2.6-2.1,3.4c-4.9,2.6-9.8,5.2-14.6,7.9c-1.7,0.9-3,0.5-4.7-1.1c2.5-1.9,4.9-3.6,8.1-6
		c-2-0.3-3.1-0.7-4.1-0.7c-6.8,0.5-13.7,0.8-20.4,1.8c-4.9,0.8-9.6,2-14.4,3.8c-11.1,4.4-22.6,7.8-34.8,7.8
		c-6.5,0-12.7-1.2-18.9-2.8c-8.7-2.2-17.2-5-26.1-6.4c-10.4-1.6-19.9,0.8-28.5,6.5c-4.2,2.8-8.7,4.4-13.4,5.3
		c-5.1,1-10.5,0.6-15.8,0.7C387.8,140.2,386.4,139.9,385.9,137.9z"/>
</g>
<path d="M687.6,323c0.6,1.2,1.3,1.9,1.3,2.7c0.1,2.7,1.8,4.4,3.7,6c7.9,6.5,16.7,7.5,26.1,4.3c1.3-0.4,2.7-0.8,4.1-1.1
	c0.1,0,0.2,0.1,0.6,0.4c-0.3,0.5-0.5,1.2-1,1.5c-7.3,3.7-14.9,5.9-23,2.8c-2.7-1.1-5.5-2.5-7.7-4.4c-2.8-2.4-5.3-2.6-8.5-0.9
	c-4.9,2.7-9.9,5-14.8,7.6c-3.8,2.1-7.7,2.2-12,2c-4.8-0.2-8.3-2.5-11.8-5.3c-1.9-1.5-3.8-3.2-5.9-4.2c-1.5-0.7-3.6-0.8-5.2-0.3
	c-2.3,0.6-4.4,2-6.6,3.1c-6.3,3.1-12.8,4.2-19.4,1.6c-3.1-1.2-6.1-3.1-9-4.9c-2.7-1.8-3.5-2.1-6.1-0.3c-4.7,3.3-10.1,4.5-15.6,5.3
	c-2.8,0.4-4.9-0.3-7.8-2.4c0.4-1.8,2-1.7,3.3-2c6.7-1.4,12.7-4.4,18.3-7.9c2.5-1.5,4.7-2.3,7.4-1.9c0.2,0.3,0.5,0.5,0.5,0.8
	c0.6,5,3.3,8.2,8.1,9.8c6.7,2.3,12.8,2.7,19.1-1.4c3.6-2.3,7.2-4.4,10.2-7.6c1.7-1.8,3.6-1,3.7,1.5c0.1,2.5,1.4,3.9,3.1,5.2
	c4.1,3.1,7.9,6.5,13.2,7.6c3.2,0.6,6.3,0.8,9.3-0.5c8.1-3.4,15.9-7.1,20.5-15.3C686.2,324.2,686.7,323.9,687.6,323z"/>
<path d="M216.5,214.2c-0.9-8.7,4.3-15,12-19.8c7-4.4,13.7-4.1,20.8,0.2c5.6,3.5,9.9,7.9,13.1,13.6
	c4.6,8.3,1.7,18.9-4.4,23.7c-5.4,4.2-11.3,6.9-18.3,7.4c-5.1,0.3-9.6-1.5-14-3.2c-2.5-0.9-4.4-4-5.9-6.5
	C217.1,225.3,216.1,220.4,216.5,214.2z M239.6,198.3c-12-2.9-18.8,6-19.1,14.8c-0.1,3.5,0.3,7.1,1.2,10.6c1.4,5.7,7.6,10.1,13.6,9.7
	c3.4-0.2,6.8-0.7,10.1-1.6c9-2.3,15.1-13.4,12.3-22.4c-2.1-6.9-7.6-10.5-13.4-13.7C242.1,194.5,241,195.4,239.6,198.3z"/>
<path d="M570.7,352.9c3.3-0.6,6.5-0.7,9.2-1.8c2.8-1.1,5.5-3.1,7.9-5c2.4-1.9,4.5-4.2,6.9-6.5c1.6,0.6,2.7,1.7,3.2,3.5
	c0.8,2.6,2.7,4,5,4.9c6.7,2.5,13.7,3.2,20.6,1c3.9-1.2,7.6-3.3,10.1-6.8c0.5-0.7,1.3-1.3,1.9-1.9c0.5,0.3,0.9,0.4,1,0.6
	c2.2,8,9,10.1,15.8,11.9c6.1,1.7,11.4-1.3,16.8-3.5c2.4-1,4.6-2.2,6.8-3.5c2.9-1.7,5.7-3.6,8.8-5.6c0.4,0.6,0.9,1.3,1.3,1.9
	c0.8,1,1.4,2.3,2.4,2.9c6.5,3.6,13.3,6.9,21.1,4.8c4.1-1.1,8.1-2.6,12.2-4c1.4-0.5,2.8-1,5.1-1.9c-0.7,1.4-0.8,2-1.1,2.3
	c-6.5,4.5-13.8,6.9-21.6,7.5c-2.6,0.2-5.4-0.5-7.9-1.3c-3.1-1-6.1-2.4-9.1-3.8c-2.4-1.1-4.8-0.5-7.1,0.2c-2.6,0.8-5,2-7.5,3.2
	c-6.3,3.1-13,4.2-19.9,4c-4.6-0.1-8.6-2.1-12.1-4.8c-2.5-1.9-4.9-2.6-7.9-1.6c-2.4,0.8-5.1,1-7.5,1.7c-7.3,2.2-14.6,2.3-21.9-0.2
	c-0.9-0.3-2-0.5-2.8-1.1c-3.7-3.1-7.3-1.7-10.6,0.3c-4.4,2.7-9.2,3.8-14.2,4.2C574.2,354.9,572.4,355.2,570.7,352.9z"/>
<path d="M569.2,365.7c0.7-0.4,1.4-0.9,2.1-1c1.4-0.3,2.8-0.5,4.2-0.4c5.8,0.4,10.5-2.1,14.9-5.6
	c1.6-1.3,3.4-2.4,5.3-3.7c0.7,0.8,1.3,1.3,1.5,1.9c2.7,6.9,12.2,11.9,19.1,9.9c1.4-0.4,2.8-1.3,4-2.2c3.4-2.6,6.7-5.3,10-8
	c1.2-0.9,2.4-0.7,2.8,0.6c1.4,4.8,5.4,6.4,9.3,8.1c2.2,1,4.5,1.9,6.8,2.6c3.3,1,6.8,1.2,10.1-0.3c6.8-3,13.5-6.1,18.7-11.7
	c1.8-2,2.7-2,4.5,0.1c5.4,6,12.3,9.2,19.9,11.1c3.8,1,7.7,0.7,11.4-0.6c3.4-1.2,6.7-2.6,10-3.7c1.5-0.5,3.1-0.6,4.8-0.4
	c-6.7,3.2-13.1,6.7-20.5,7.8c-1.5,0.2-3.2,0.1-4.7-0.2c-6.1-1.5-12.2-3.3-17.5-6.8c-2.4-1.6-4.7-1.8-7.3-0.9c-5.5,2.1-11,4-16.3,6.5
	c-5.6,2.6-11,3.7-16.8,0.9c-3.3-1.6-6.9-2.8-10.1-4.5c-2-1-3.8-1.3-5.7-0.6c-2.8,1-5.6,2.1-8.4,3.3c-8.1,3.6-15.5,2.7-22.4-2.9
	c-1.4-1.1-2.7-1.4-4.3-1c-1.8,0.4-3.7,0.6-5.4,1.2c-5.3,1.9-11,1.6-16.5,2.2c-1.2,0.1-2.4-0.2-3.6-0.4
	C569.3,366.5,569.3,366.1,569.2,365.7z"/>
<path d="M809.8,181.3c-1.5,3.2-3.1,6.5-4.5,9.8c-1.6,3.9-3.1,7.9-4.5,12c-0.6,1.8-1.6,3-3.4,3.4c-2.1,0.5-4.1,0-5.4-1.7
	c-0.5-0.7-0.7-2.2-0.3-3c1-2.2,2.4-4.2,3.6-6.3c3.6-6.1,7.2-12.3,10.8-18.4c0.3-0.5,0.4-1,0.7-1.9c-1.4-0.4-2.6-0.7-4.4-1.2
	c2.5-4.2,6.7-6.1,9.5-9.4c2.8-3.2,5.7-6.3,8.7-9.5c2.5,1.3,2.3,3.3,1.6,5.4c-1.1,3.4-2.3,6.7-3.3,10.1c-0.6,2-0.7,4.2-1.2,6.3
	c-1,4.2-1.8,4.7-6.2,4.4C811,181.2,810.6,181.2,809.8,181.3z"/>
<path d="M768.7,249.6c1.3,1.6,2.1,2.5,2.8,3.6c1.7,2.5,1.6,3.8-0.7,6c-1.7,1.6-3.4,3.3-5.1,4.9c0.1,0.4,0.2,0.7,0.3,1.1
	c1.1,0.2,2.3,0.4,3.4,0.7c0.7,0.3,1.3,0.9,1.9,1.3c-0.6,0.7-1.2,1.6-1.9,1.9c-3.3,1.1-9.6-0.4-13.3-3.4c3.9-3.5,7.8-6.9,11.9-10.6
	c-1.9-2.3-3.6-4-5-6c-0.6-0.8-1.4-2.6-1.1-2.9c0.8-0.8,2.1-1.2,3.3-1.4c2.7-0.3,5.4-0.1,8.1-0.6c3.2-0.5,3.8-1.4,3.5-4.7
	c-0.4-4.5-1-9.1-1.2-13.6c-0.1-2.1,0.2-4.3,0.7-6.3c0.8-3.2,3-3.7,5.3-1.3c2.7,2.9,5.1,6.2,7.6,9.2c1.4,1.6,2.8,3.2,4.2,4.9
	c1.3,1.5,1.5,3,0.1,4.9c-6.2-2.5-7.9-9.5-13.3-13.4c-1.1,4.1-0.5,7.7-0.2,11.3c0.2,2.4,0.6,4.8,0.6,7.2c0,3.6-1,4.8-4.5,5.7
	C773.9,248.8,771.7,249.1,768.7,249.6z"/>
<path d="M134.4,72.5c-1.5-1.9-2.9-3.6-4.6-5.6c3.9-2.1,4.7,2.8,7.8,2.2c1.6-3.8-0.6-8.5,1.7-12.9
	c3.8,3.5,0.4,7.9,2.5,11.2c4.2-0.2,6.1-5.5,11.6-5.1c-2.5,3.1-4.6,5.6-7.2,8.7c1.8,0,2.8-0.2,3.7,0.1c0.6,0.1,1.3,0.8,1.4,1.2
	c0.1,0.5-0.5,1.5-1,1.6c-1.9,0.6-3.8,1.1-5.6,1.5c-1.2,2.9,4.7,4.3,1.2,7.7c-1.3-0.9-2.5-1.8-3.8-2.8c-1.5,1.3-0.6,3-0.8,4.4
	c-0.2,2.5-0.6,3-4,3.5c-0.3-2.3-0.6-4.6-1-6.9c-1.7,0.5-3.1,0.9-5.5,1.5c1-2.6,1.7-4.2,2.4-5.9c-3.5-2.1-7.7,0.9-11.3-1.8
	C125.9,72.1,130.7,75.5,134.4,72.5z"/>
<path d="M954.3,99.7c-2.8,4.5-7,2.3-10.6,3.8c1.9,2.3,3.6,4.3,5.6,6.7c-4.8,2.5-6-3.8-10.1-2.9
	c-0.1,1.6-0.2,3.4-0.2,5.1c0,0.8,0.3,1.7,0.1,2.5c-0.1,0.5-0.9,1.2-1.4,1.3c-0.5,0.1-1.5-0.5-1.6-0.9c-0.4-1.2-0.4-2.5-0.6-3.8
	c-0.2-1.8-0.4-3.5-0.5-5.4c-3.3-0.1-4.4,2-5.7,3.8c-1.2,1.7-2.4,2.2-4.6,0.9c0.9-1.5,1.7-3,2.7-4.7c-1.8-0.5-3.5-0.9-5.5-1.5
	c2.4-3.2,6.5-0.7,8.9-3.7c-1.3-1.4-2.7-2.9-4.3-4.6c3.7-2.6,5.3,2.1,8.4,1.8c3.2-2.4-0.3-7.5,3.9-10.6c0.3,1.8,0.6,3.1,0.7,4.4
	c0.2,1.3,0.2,2.7,0.3,4.2c4.2-0.6,6.2-5.2,11-4.8c-1.5,4-6,4.2-7.7,8C946.8,99.5,950.2,99.6,954.3,99.7z"/>
<path d="M889,137c-1-0.9-1.9-1.8-2.8-2.5c-0.7-0.5-1.6-0.8-2.1-1.4c-0.4-0.6-0.7-1.7-0.4-2.2c0.3-0.5,1.5-0.7,2.2-0.5
	c0.8,0.2,1.4,0.9,2.2,1.3c1.2,0.8,2.3,1.5,4.2,2.8c0.2-2.4,0.3-4.1,0.4-5.9c0.1-1.6,0-3.1,0.2-4.7c0.1-0.5,0.9-1.2,1.4-1.2
	c0.4,0,1.2,0.8,1.2,1.3c0.3,2.4,0.4,4.8,0.5,7.2c0,0.5,0.2,1.1,0.5,2.4c3-3,5.6-5.7,8.7-8.8c0.6,3.8-2,4.6-3.2,6.2
	c-1.2,1.7-2.6,3.3-4,5.1c2.1,1.6,3.9,0.8,5.6,0.7c1.8-0.2,3.6-0.5,5.5-0.7c0.6,2.8-1,3.2-2.7,3.6c-1.6,0.3-3.2,0.7-5.4,1.2
	c1.7,2.4,3.1,4.2,4.2,6.1c0.4,0.6,0.2,1.5,0.3,2.3c-0.9-0.1-1.9,0.1-2.6-0.4c-0.9-0.6-1.6-1.6-2.4-2.4c-1.1-1-2.3-1.9-3.4-2.7
	c-2.2,2,1.2,5.8-3.2,6.6c-0.4-2.2-0.8-4.3-1.3-6.5c-3.7,0.7-4.3,5.1-7.9,5.2c-0.4,0-0.7-0.3-1.6-0.7c1.5-2.1,2.8-4.1,4.4-6.4
	c-2.6-0.4-4.8-0.8-7.4-1.2C882.3,136.8,886.2,139.5,889,137z"/>
<path d="M870.1,78.9c2.1-0.4,4.2-0.8,6.8-1.2c-1.1-1.7-2-3-3-4.5c4.3-3,5.6,3.3,9.1,2.5c1.9-3.4-1.1-7.7,1.7-11.5
	c2,3.5,0.2,7.1,1.6,10.7c4.2-2.9,6.7-7.6,11.5-10c0.8,2.7-1,3.6-2.4,4.6c-2.1,1.6-4.5,3-4.9,6.2c4,2.3,7.7-1,11.6-0.3
	c0.7,2.3-0.1,3.3-2.3,3.6c-2.9,0.4-5.8,0.9-9.8,1.6c1.7,1.4,2.6,2.1,3.5,2.8c0.8,0.6,1.9,0.9,2.5,1.6c0.4,0.5,0.7,1.7,0.4,2.2
	c-0.2,0.4-1.5,0.7-2.1,0.5c-1.4-0.6-2.7-1.5-4.1-2.2c-0.9-0.4-1.8-0.6-2.8-0.9c-2.3,2.5,1.2,6.1-2.5,8.7c-0.4-3.3-0.7-6.2-1-9.3
	c-2.7,1-4.3,2.5-5.6,4.4c-1.2,1.8-2.7,2.4-4.9,1.3c0.8-3.5,4.5-4.7,6-8C876.3,80.5,872.7,82.6,870.1,78.9z"/>
<path d="M782.2,108.7c-2.2-1.8-5-0.3-6.3-3.4c1.5-0.4,2.8-0.8,4.3-1.2c-0.6-1.1-1.1-2.3-1.8-3.7c3.2-2.3,5,1.8,8.2,1
	c0.7-2.8,1.5-5.9,2.3-8.9c2.9,0.6,2.1,2.9,3.4,4.7c2.4-2.6,4.7-5.1,6.9-7.6c1.9,0.9,1.5,1.9,0.7,2.9c-1.4,1.8-2.9,3.5-4.3,5.3
	c-0.9,1.2-1.6,2.5-2.8,4.5c3.9,0.6,7.1,1,10.3,1.5c0.2,2.8-0.2,3.4-2.6,3.4c-1.8,0-3.6-0.3-6-0.5c0.5,1.2,0.7,2.1,1.2,2.6
	c1,1.1,2.1,2,3.1,2.9c0.9,0.8,1.9,1.7,0.9,2.9c-1,1.3-2,0.2-3-0.3c-1.3-0.8-2.6-1.7-4.2-2.7c-1.1,1.8-1,4.7-3.8,4.5
	c-3.1-0.1-2.1-3.3-3.2-5c-2,0-2.5,1.6-3.3,2.9c-0.7,1.1-1.8,1.8-2.8,0.8c-0.4-0.4-0.2-1.9,0.1-2.6
	C780.3,111.2,781.3,110,782.2,108.7z"/>
<path d="M241.9,150.4c0.6-1.3,1.2-2.6,1.8-3.8c0.6-1.1,1.2-2.5,2.9-1.7c1.4,0.7,1.3,2,0.8,3.3
	c-1.6,4.7-3.1,9.5-4.7,14.2c-0.3,0.8-0.2,1.8-0.6,2.5c-0.4,0.7-1.3,1.2-2.2,2.1c-0.6-1.2-1.1-1.9-1.3-2.6c-1.1-4.2-3.2-7.9-6.2-11.1
	c-0.8-0.8-1.5-1.8-1.8-2.8c-0.2-0.8,0-1.9,0.5-2.6c0.2-0.3,1.6-0.1,2.2,0.2c0.9,0.5,1.7,1.4,2.9,2.5c0.1-1.7,0.3-2.7,0.3-3.8
	c-0.2-6.6-0.6-13.1-2.5-19.5c-0.5-1.8-0.7-3.6-0.8-5.5c-0.1-1.7,0.6-2.8,2.4-2.8c1.7,0,3.2,0.3,3.4,2.3c0.1,0.7,0.1,1.4,0.1,2.1
	c0.3,7.3,0.6,14.5,1,21.8c0.1,1.7,0.5,3.3,0.8,5C241.3,150.4,241.6,150.4,241.9,150.4z"/>
<path d="M216.1,74.6c1.9-0.8,3.6-1.5,5.5-2.3c-0.2-1.1-0.4-2.3-0.7-3.6c2.9-1.7,3.8,2.9,7,1.6c1.3-1.6,0.9-4,0.7-6.4
	c-0.1-1.8-0.4-3.7-0.3-5.5c0.1-0.7,1.1-1.4,1.7-2.1c0.6,0.6,1.7,1.2,1.8,1.9c0.5,2.2,0.7,4.4,1.1,7.3c2-1.7,3.5-3,5.4-4.6
	c0.3,2.7-1.7,3.3-2.6,4.5c-0.9,1.3-1.8,2.6-2.6,4c0.2,0.3,0.4,0.6,0.6,0.8c1.6-0.3,3.2-0.7,4.8-1c1.5-0.3,2.9-0.4,5-0.7
	c-1.8,5.6-7.5,3.1-10.1,6.3c0.3,2.9,2.8,3.8,4.9,5.1c1.7,1.1,2.6,2.2,0.7,4.2c-1.4-0.6-2.9-1.2-4.5-1.9c-1.6,1.5,0.7,5.6-3.8,5.1
	c-0.8-3.2-1.6-6.6-2.4-9.9c-4.7,0.4-3.9,6.7-9.1,6.8c1.6-2.7,2.9-5,4.2-7.2C221.1,75.4,218.1,78,216.1,74.6z"/>
<path d="M161.6,111.2c-0.5-1.8-1-3.5-1.5-5.3c3.6-0.7,3.4,3.8,6.4,3.5c2.7-3.7-0.8-8.2,0.9-12.4
	c4.3,2.2,1.2,6.9,4.1,9.7c0.9-1,1.8-2,2.7-3c0.8-0.9,1.1-2.5,3.5-1.5c-0.7,1.7-1.4,3.4-2.1,5.3c1.8,1.5,3.6,0.5,5.3,0.3
	c1.6-0.2,3.5-1.3,4.5,0.8c0.7,1.4-0.6,2.2-3.9,2.7c-2.7,0.4-5.3,0.7-8.2,1.1c0.8,3.3,4.7,3.1,5.6,5.9c-2.4,2-3.7-1.2-6-1
	c-1.2,1.8,0,3.7,0.2,5.6c0.2,2.1,0.3,3.9-2.7,5.1c-0.6-3.8-1.2-7.4-1.8-10.9c-3.6-0.5-2.9,5.3-7.4,4.5c1.1-2.3,2-4.2,3-6.4
	c-2.6-1.2-4.6,0-6.7,0.8c-1.9,0.7-3.7,1.5-6-0.4C154.5,112.7,158.5,113.6,161.6,111.2z"/>
<path d="M853.5,97.5c0.3,3.2-2.3,4.1-3.9,5.7c-1.7,1.6-3.6,3.2-4.4,6.5c2.8-0.7,5.1-1.3,7.6-1.9
	c0.7,2.2-0.2,3.1-1.9,3.7c-1.7,0.6-3.3,1.3-5.4,2.2c1.1,1.2,1.9,1.8,2.4,2.6c0.5,0.9,1.1,2,0.9,2.9c-0.3,1.3-1.5,1.5-2.8,1
	c-0.3-0.1-0.8,0-1.4,0c-0.1,1,0.1,2.1-0.3,2.9c-0.4,0.8-1.3,1.3-2,1.9c-0.6-0.7-1.5-1.3-1.7-2c-0.4-1.7-0.5-3.6-0.7-5.6
	c-3.5,0.7-3.4,5.7-7.4,4.9c-1-3,3-4,2.6-7.1c-1.9-0.2-3.9-0.3-6-0.5c0.1-2.6,2.5-1.8,3.6-2.9c-0.3-0.9-0.7-1.9-1-2.8
	c1.4-1.6,2.8-0.9,4.1-0.7c4.1,0.8,4.8,0.2,4.7-4.1c0-1.4-0.4-2.9-0.2-4.3c0.1-1,0.7-2.6,1.3-2.7c1.6-0.3,2,1.2,2.1,2.6
	c0.1,1.4,0.2,2.8,0.3,4.6C847.9,103,849,98.1,853.5,97.5z"/>
<path d="M132.5,151.6c2.8-2.3,5-4.3,7.9-6.7c-0.4,4.2-2.7,6.8-4.3,10.5c2.6-0.2,4.7-0.3,6.7-0.5
	c1.6-0.2,2.8,0.2,2.8,2.5c-2.7,0.5-5.4,1-7.8,1.5c-0.5,2.6,3.3,3.8,0.7,6.5c-1.5-0.8-3.1-1.6-4.9-2.4c-1.1,1.8,1.2,5.1-3.1,5.6
	c-0.4-2-0.9-4.1-1.3-6.2c-3.3-0.8-3.5,4.7-7.6,3.1c1.5-2.2,2.9-4.3,4.7-7c-3.7-0.2-6.7-0.3-10-0.5c1.1-3.7,4.7-1.7,6.6-3.3
	c-0.7-1.5-1.4-2.9-2.3-4.5c3.8-1.1,5.3,2.7,8.1,2.8c1.8-3.1-1.1-6.9,0.9-9.9c0.4,0,0.7,0,1.1-0.1
	C131.3,145.5,131.8,148.2,132.5,151.6z"/>
<path d="M275.4,116.5c0.9-1.6,1.7-3,2.6-4.7c-2.7-1.8-6.3,1.7-9-1.7c1.2-0.7,2.4-1.4,3.6-2.1c0.1-1.1,0.1-2.3,0.2-4.3
	c2.3,1.1,4.1,1.9,6.1,2.9c1.1-4.5-1.4-8.8,0-13.5c4.1,2.6,1.8,7,4.2,9.8c1.4-1.2,2.8-2.4,4.2-3.7c2,2.3-0.8,3.7-0.6,6.1
	c1.8-0.2,3.5-0.4,5.2-0.6c1.1-0.1,2.6-0.4,2.7,1.1c0,0.8-1.1,2-1.9,2.3c-1.9,0.8-4,1.1-6,1.6c0.3,2.9,4.7,1.8,4.1,5.4
	c-1.9-0.3-3.7-0.5-5.4-0.8c-1.7,1.7,1.6,5.5-3.2,5.7c-0.5-1.6-1.1-3.3-1.7-5.2C278.6,114.5,278.5,118.9,275.4,116.5z"/>
<path d="M551.2,371.5c-1.3,4-5.3,5.6-7.5,9c2.7,3,8,3.1,9.7,8.1c-4.4,1.3-6.5-3.5-10.3-3.3c0,1.6,0,3.2,0,4.9
	c-3.3-0.2-2.8-3.5-4.9-4.9c-3,0.5-5.1,2.5-6.8,5c-1,1.5-2,2.9-4.4,1.4c1.1-4.6,6.2-5.9,8.1-9.6c-1-3.3-5.5-3.1-5.9-7.2
	c2.1,0.9,4.2,1.7,6.3,2.7c1-3.6-2.6-7,0.5-10.9c2.5,3.6,1.4,8.2,4.3,11.2C545.2,377.9,546.4,371.9,551.2,371.5z"/>
<path d="M457.3,243.9c0.8,1.7,2.1,3.4,2.3,5.2c0.4,2.6,0.2,5.4,0,8.1c-0.1,1.7-0.9,3.4-3.5,3c-0.2-2.2-0.4-4.4-0.6-7.4
	c-3.1,2.1-5.2,4.1-7.1,6.3c-1.3,1.5-2.5,3.1-4,4.4c-0.6,0.5-1.7,0.3-2.6,0.4c0-0.9-0.3-2,0.2-2.6c0.9-1.4,2.2-2.6,3.3-3.9
	c1.1-1.3,2.2-2.5,3.9-4.5c-1.7,0.2-2.7,0.5-3.5,0.2c-1-0.3-2.3-1-2.6-1.7c-0.2-0.7,0.6-1.9,1.3-2.8c0.4-0.5,1.2-0.7,1.9-0.9
	C449.7,246.5,453,245.4,457.3,243.9z"/>
<path d="M411.7,367.5c-0.5,3.1-1.1,5.6-1.3,8.1c-0.2,2.4,0.2,4.9-0.1,7.2c-0.3,2.2,2.6,4.8-0.7,7c-1.8-1.8-1.7-4-2-6.1
	c-0.2-1.7-0.2-3.6-2.5-3.8c-2.3-0.2-4.8-1.4-6.6,1.3c-2.1,3.2-4.3,6.4-6.3,9.6c-0.6,0.9-0.8,2.3-2.8,1.5c0.3-0.9,0.5-1.8,0.9-2.6
	c1.4-2.6,2.8-5.3,4.4-7.8c1.3-2,1.6-3.7-0.7-5c-0.4-0.2-0.6-0.6-0.9-0.9c-1.7-1.4-1.7-3-0.2-4.3c1.6-1.3,3.4-2.8,5.3-3.3
	c3.4-0.9,7-1.2,10.5-1.7C409.7,366.7,410.6,367.2,411.7,367.5z M395.3,373.5c3,3.1,6.6,4.2,11.8,3.6c0-1.8,0.2-3.8-0.1-5.7
	c-0.1-0.8-1.3-2-2.1-2.1C401.2,369,397.6,369.5,395.3,373.5z"/>
<path d="M742.1,237.5c0.9-3.3,4.5-1.7,6.1-3.9c-2.3-2.1-5.2-2.8-7.8-4.2c-1.1-0.6-2.4-1-3.4-1.7
	c-0.5-0.3-0.6-1.2-0.8-1.8c0.7-0.3,1.5-1,2.1-0.8c3.1,1,6.1,2.3,9.1,3.5c0.4,0.1,0.8,0.3,1.7,0.6c-0.3-1.4-0.5-2.4-0.8-3.4
	c-0.4-1.6-0.1-2.9,1.5-3.5c1.6-0.7,2.8,0.2,3.6,1.5c0.4,0.7,0.7,1.6,1,2.4c0.9,2.1,1.7,4.2,2.6,6.3c1.2,2.8,0.7,4.6-2.2,5.2
	c-3.3,0.7-6.7,0.9-10.1,1.1C743.7,238.8,742.9,238,742.1,237.5z"/>
<path d="M474.6,377.8c-1.1-2.8-3.8-3.5-5.8-5c-0.9-0.7-2-1-3-1.6c-1.1-0.6-2.7-1.1-1.7-2.7c0.2-0.4,2.2-0.3,2.9,0.2
	c5.1,3.1,10.2,6.3,15.1,9.7c3.5,2.4,3.1,5.4-0.8,7c-1.8,0.7-3.8,1.4-5.7,1.5c-3.6,0.2-5.1-2.6-3.2-5.7
	C472.9,380.1,473.8,379,474.6,377.8z M481.3,382.8c-0.5-2.2-1.5-3.4-3.3-3.1c-1.1,0.2-2.3,1.1-2.9,2c-1,1.4,0,3,1.7,2.7
	C478.3,384.2,479.7,383.4,481.3,382.8z"/>
<path d="M499.9,380.1c1.1,2.8,6.8,0.8,5.7,6.2c-1.5-0.6-2.6-1.1-3.8-1.5c-3.3-1.3-3.9-0.7-3.6,2.8
	c0,0.4-0.1,0.8-0.2,1.2c-4.1,0.6-4.3,0.3-3.3-5.3c-1.1-2.6-5.3-2.8-5.5-6.4c1.9-1.2,2.8,0.2,3.9,1c3.1,2.1,3.7,1.9,5.6-1.3
	c1-1.6,1.2-3.8,3.7-4.7C503.7,375.6,499.6,377.3,499.9,380.1z"/>
<path d="M562.7,398c0.3-2.2,0.3-3.4,0.6-4.5c0.3-1.2,0.9-2.4,1.5-3.5c1.1-2.2,0.8-4-1.4-5.5c-1.7-1.2-3.2-2.8-4.6-4.4
	c-0.5-0.6-0.5-1.6-0.8-2.9c4.4,0.7,5.6,5.6,9.9,5.6c1.3-1.9,2.7-3.8,4.1-5.8c0.3,0.1,0.6,0.3,0.9,0.4c-0.2,0.9-0.1,1.9-0.5,2.6
	c-2.8,5.1-5.8,10.1-7,15.9C565.2,396.5,564.2,396.8,562.7,398z"/>
<path d="M448.1,388.4c-3.2-1.5-3.2-3.5-3.4-5.5c-0.2-1.9-0.5-3.9-0.7-5.8c-4.3,0.1-4.9,0.7-5.1,4.2
	c-0.1,1.8,1.1,4-1.6,5.5c-0.4-0.8-1-1.4-1.1-2.1c-0.1-2.1-0.1-4.3,0-6.4c0.3-3.5,5.1-6.5,8.3-5.2c0.6,0.2,1.2,0.9,1.3,1.5
	C446.6,379,447.3,383.2,448.1,388.4z"/>
<path d="M522.6,380.6c-0.1,3.7-6.3,7.8-9.9,6.5c-2.7-1-3.5-6.5-1.2-8.4c1.4-1.2,3-2.1,4.7-2.8
	C519.4,374.7,522.8,377.3,522.6,380.6z M518.1,378.8c-2.6-0.2-4.6,1.4-4.7,3.1c-0.1,1.4,0.4,2.5,2,2.7c1.9,0.2,4.6-1.5,4.4-3
	C519.6,380.4,518.5,379.4,518.1,378.8z"/>
<path d="M457.3,387c-0.5-0.5-1.9-1.3-2.3-2.4c-0.4-1.5-0.6-3.5,0.1-4.8c1.6-2.9,6.5-4.1,9.4-2.9
	c1.8,0.8,2.6,2.3,2.1,4.1C466,383.9,461.1,387.3,457.3,387z M464.3,381.3c-2.6-2.5-3.5-2.6-5.7-1.2c-1.1,0.8-2,1.7-1.2,3.2
	c0.8,1.5,2.2,1.4,3.3,0.8C462,383.4,463.1,382.3,464.3,381.3z"/>
<path d="M418.4,284.7c1.4-3.4,8.4-9.1,12.6-10.6c0.9,3.8-2.2,5.4-4.3,7.1C424.6,283,422,284.9,418.4,284.7z"/>
<path d="M559.5,168.5c5-0.9,9.9,0.6,14.7,0.4c0.7,2.3-0.4,3.1-1.7,3.1c-3.7,0-7.3-0.2-10.9-0.6
	c-0.9-0.1-1.7-1.2-2.5-1.8C559.2,169.3,559.4,168.9,559.5,168.5z"/>
<path d="M530.1,179.2c2-4.7,7-7.1,13.1-6.4c-0.5,0.9-0.7,1.9-1.4,2.5C538.7,177.9,534.3,179.4,530.1,179.2z"/>
<path d="M706.6,213c1.5-0.1,3.2-0.8,4.4-0.3c2.9,1.1,5.6,2.7,8.3,4.2c0.5,0.3,0.7,1.7,0.4,2.2c-0.3,0.5-1.6,0.9-2.1,0.7
	c-3.6-1.7-7.1-3.5-10.6-5.4C706.7,214.3,706.8,213.9,706.6,213z"/>
<path d="M654.3,192.4c-4.8,0.7-13-3.3-14.8-7.1C642.9,184.7,652.1,188.9,654.3,192.4z"/>
<path d="M289.4,260.2c1,0.1,2.1-0.1,2.9,0.3c2.7,1.3,5.2,2.8,7.8,4.2c0.5,0.3,1,0.6,1.3,1.1c0.3,0.7,0.8,1.7,0.5,2.2
	c-0.3,0.5-1.6,0.9-2.1,0.7c-3.8-2.1-7.9-3.8-10.7-7.3C289.2,261.1,289.3,260.7,289.4,260.2z"/>
<path d="M326.9,283.3c-0.4,1.6-1.5,2.2-2.9,1.3c-3.3-2-6.5-4.1-9.6-6.3c-0.6-0.4-0.7-1.5-1.2-2.5
	C317.2,276.2,324.4,280.3,326.9,283.3z"/>
<path d="M687.7,205.9c-1.6,0.4-2.3,0.8-2.7,0.7c-3.2-1.4-6.4-2.9-9.6-4.4c-0.4-0.2-0.8-1.5-0.6-1.8
	c0.4-0.6,1.5-1.3,2-1.1C680.4,200.8,684.2,202.2,687.7,205.9z"/>
<path d="M370,297.5c2.9-1.6,11.1-1.8,15.7-0.2c-1.1,0.9-1.8,1.7-2.6,2.1C380.7,300.3,373.1,299.2,370,297.5z"/>
<path d="M339.8,289.6c5.3,0.6,9.6,1.5,13.7,3.1c0.2,1.9-0.6,2.9-1.8,2.6c-3.3-0.7-6.6-1.7-9.7-2.8
	C341.2,292.3,340.8,291.1,339.8,289.6z"/>
<path d="M269.2,240.7c0.7,0.3,1.3,0.4,1.7,0.7c2.7,2.5,5.3,5.1,7.9,7.7c0.3,0.3,0.2,1.5-0.1,1.8
	c-0.4,0.4-1.2,0.3-1.9,0.3c-0.4,0-0.8-0.4-1.1-0.7c-2.5-2.3-5-4.6-7.4-7c-0.4-0.4-0.5-1.3-0.4-1.9C268,241.3,268.7,241,269.2,240.7z
	"/>
<path d="M504.4,194.9c1.8-3.5,3.7-5.2,10.4-9.3c1.4,0.8,1,1.8,0.3,2.8C512,193,508.8,195.1,504.4,194.9z"/>
<path d="M600.4,175.4c3.3-2.2,7.7-1.5,12.2,1.6c-0.1,1.6-1.3,2.2-2.6,2C606.7,178.4,603.2,178.2,600.4,175.4z"/>
<path d="M406.5,290.1c0.3,1.9-0.4,3.5-2.2,4c-2.5,0.7-5.2,0.9-8.2,1.4c0.2-1.1,0.2-1.7,0.5-2
	C398.2,292.1,403.8,290.2,406.5,290.1z"/>
<path d="M73.8,323.8c-1.1-1.7-2-2.5-2.2-3.5c-0.3-1.4,0.6-2.5,2.1-2.5c1.2,0,2.9,0.4,2.6,2C76.1,321,75,322,73.8,323.8z
	"/>
<path d="M66.4,308.1c-0.7-2.6,0.9-3.5,2.2-4.6c0.4-0.3,1.5-0.4,1.8-0.1c0.4,0.3,0.7,1.3,0.5,1.9
	C70.1,307.2,68.7,308.2,66.4,308.1z"/>
<path d="M251.4,274.5c-1.7,1.1-2.6,2.1-3.6,2.2c-1.5,0.2-2.4-1.1-2-2.5c0.2-0.8,1.4-2,2.1-2
	C248.9,272.3,249.8,273.4,251.4,274.5z"/>
<path d="M89.1,297.3c-1.5,1.1-2.3,2-3.3,2.3c-0.3,0.1-1.8-1.4-1.6-1.8c0.4-1.1,1.3-1.9,2.1-2.9
	C87,295.6,87.7,296.2,89.1,297.3z"/>
<path d="M100.2,264.7c1.8,0,3,0,4.1,0c0.9,1.6,0.6,2.8-0.7,3.5c-0.6,0.3-2,0.4-2.3,0C100.7,267.2,100.6,266,100.2,264.7
	z"/>
<path d="M785.3,293.6c-1.4,0.8-2.3,1.5-3.3,1.7c-0.4,0.1-1.5-0.8-1.5-1.4c-0.2-1.3,1.7-2.8,2.8-2.4
	C783.8,291.7,784.3,292.6,785.3,293.6z"/>
<path d="M107.6,304.9c-1.2,1.7-2.5,2.1-4,1c-0.9-0.6-0.3-2.7,0.9-3.2C106.6,301.8,106.8,303.6,107.6,304.9z"/>
<path d="M142,225.7c-1,1.9-1.4,3.1-2.2,3.8c-0.4,0.4-1.6-0.1-2.5-0.2c0.1-0.9,0-2.1,0.5-2.5
	C138.6,226.2,139.9,226.2,142,225.7z"/>
<path d="M86,279.7c0.9,1.2,1.8,2,1.8,2.8c0,0.6-1.1,1.8-1.7,1.8c-1.3,0.1-2.5-0.8-2.3-2.3
	C83.9,281.3,84.9,280.8,86,279.7z"/>
<path d="M123.5,240.2c-1.4,1.1-2.2,2-3.1,2.2c-0.5,0.1-1.3-1.1-1.9-1.6c0.7-0.8,1.3-1.8,2.1-2.1
	C121.1,238.3,122.1,239.3,123.5,240.2z"/>
<path d="M809.7,260.3c0.9,1,2,1.8,1.9,2.2c-0.3,0.8-1.3,1.5-1.9,2.2c-0.7-0.7-1.6-1.4-2-2.3
	C807.5,262.1,808.7,261.2,809.7,260.3z"/>
<path d="M133,245.6c-0.9-1.6-1.6-2.3-1.6-3.1c0-0.8,0.8-1.6,1.3-2.3c0.8,0.7,2.1,1.3,2.2,2
	C134.9,243,133.9,244,133,245.6z"/>
<path d="M817.4,244.8c-1.7,0.9-2.6,1.8-3.1,1.6c-0.9-0.3-1.6-1.3-2.1-2.1c-0.1-0.1,1.1-1.5,1.4-1.4
	C814.6,243.2,815.5,243.9,817.4,244.8z"/>
<path d="M855.1,225.2c-1.2-2.2-1.5-3.7,0.4-4.8c0.4-0.2,1.8,0.4,2,0.9C858.3,223.3,856.7,224,855.1,225.2z"/>
<path d="M119.1,285.8c-1.3,0.9-2.1,1.8-2.7,1.7c-0.7-0.1-1.4-1-2.1-1.6c0.6-0.6,1.2-1.7,1.9-1.8
	C116.9,284.1,117.7,285,119.1,285.8z"/>
<path d="M110.8,326.4c-0.9,0.8-1.4,1.5-1.9,1.5c-0.9,0-1.9-0.3-2.7-0.8c-0.2-0.1-0.3-1.4-0.1-1.5
	c0.9-0.3,1.8-0.5,2.7-0.5C109.2,325.2,109.7,325.8,110.8,326.4z"/>
<path d="M108.4,248.7c-1.2,1.1-2,1.9-2.9,2.5c-0.2,0.1-1.4-1-1.3-1.1c0.6-0.9,1.3-1.9,2.2-2.6
	C106.4,247.4,107.3,248.1,108.4,248.7z"/>
<path d="M90.7,263.9c-1.4,1-2.3,1.7-3.3,2.1c-0.2,0.1-1.5-1.4-1.4-1.5c0.6-0.8,1.3-1.6,2.2-2.1
	C88.6,262.2,89.4,263.1,90.7,263.9z"/>
<path d="M101.3,282.8c0.6-1.9,1.1-3.3,3.1-2.8c0.4,0.1,1,1.2,0.8,1.6C104.7,283.5,103.3,283.8,101.3,282.8z"/>
<path d="M315.6,316.1c0.9,1.1,1.6,1.7,1.8,2.5c0.1,0.3-1.1,1.4-1.6,1.3c-0.6,0-1.5-0.8-1.7-1.4
	C314,318,314.8,317.2,315.6,316.1z"/>
<path d="M848.8,228.3c-1.2,1-2,2-2.6,1.9c-0.7-0.1-1.4-1.2-1.6-1.9c-0.1-0.4,1-1.5,1.5-1.5
	C846.8,226.8,847.5,227.5,848.8,228.3z"/>
<path d="M804.5,273.8c-1.3,0.8-2,1.5-2.7,1.6c-0.6,0.1-1.3-0.7-1.9-1.2c0.7-0.7,1.4-1.5,2.3-1.9
	C802.5,272.1,803.3,273,804.5,273.8z"/>
<path d="M829.8,307.3c-1.1,0.9-1.8,1.9-2.2,1.8c-0.8-0.2-1.4-1-2.1-1.6c0.5-0.5,1-1.5,1.5-1.5
	C827.8,306,828.5,306.7,829.8,307.3z"/>
<path d="M744.8,328.4c0.5,0.9,1.2,1.7,1.3,2.7c0.1,0.5-1,1.1-1.5,1.6c-0.6-1-1.4-1.9-1.7-2.9c-0.2-0.5,0.4-1.3,0.6-2
	C743.9,328,744.4,328.2,744.8,328.4z"/>
<path d="M828.2,240.4c-1.1,0.7-1.8,1.5-2.6,1.5c-0.5,0-1.5-1.3-1.3-1.7c0.3-0.7,1.1-1.4,1.9-1.6
	C826.6,238.5,827.2,239.5,828.2,240.4z"/>
<path d="M883,216.3c0.9,1.5,1.7,2.2,1.7,3c0,0.5-0.9,1.2-1.3,1.7c-0.6-0.5-1.5-1-1.6-1.5
	C881.7,218.8,882.4,218,883,216.3z"/>
<path d="M297.4,308.1c1.5,0,2.6,0,4.5,0c-0.8,1.3-1,2.5-1.6,2.6C298.5,311.2,297.9,309.9,297.4,308.1z"/>
<path d="M75.3,291.1c-1.1,0.7-1.7,1.5-2.5,1.5c-0.4,0-1.4-1.3-1.3-1.7c0.3-0.7,1.1-1.5,1.9-1.8
	C73.6,289,74.4,290.1,75.3,291.1z"/>
<path d="M811.7,281.8c-0.8-0.8-1.6-1.4-1.5-1.7c0.2-0.8,0.8-1.5,1.2-2.3c0.6,0.4,1.8,0.9,1.8,1.3
	C813.1,279.9,812.4,280.7,811.7,281.8z"/>
<path d="M774.3,304.7c-0.7-1.2-1.5-1.9-1.4-2.4c0.1-0.6,0.9-1.1,1.5-1.7c0.5,0.5,1.6,1,1.5,1.5
	C775.9,302.8,775.1,303.5,774.3,304.7z"/>
<path d="M52.4,334.7c0.6,1.1,1.2,1.8,1.1,2.1c-0.4,0.8-1.1,1.4-1.7,2c-0.4-0.6-1.3-1.3-1.2-1.7
	C50.7,336.4,51.5,335.8,52.4,334.7z"/>
<path d="M820.2,296.5c-1.2,0.6-2,1.3-2.5,1.1c-0.6-0.2-1.4-1-1.5-1.6c0-0.5,1.1-1.6,1.5-1.5
	C818.5,294.8,819.1,295.6,820.2,296.5z"/>
<path d="M840.1,246.4c-1.4,0.6-2.2,1.2-2.6,1c-0.8-0.3-1.4-1.1-1.8-1.9c-0.1-0.2,0.9-1.4,1.1-1.4
	C837.6,244.4,838.2,245,840.1,246.4z"/>
<path d="M792.3,268.3c-0.6-1-1.5-1.8-1.3-2.2c0.3-0.7,1.2-1.1,1.8-1.7c0.4,0.6,1.1,1.3,1.1,1.9
	C793.9,266.9,793.1,267.4,792.3,268.3z"/>
<path d="M896.3,220.5c-1.3,0.6-2.1,1.2-2.9,1.3c-0.4,0-0.9-0.8-1.3-1.3c0.6-0.6,1.2-1.4,2-1.7
	C894.5,218.6,895.2,219.6,896.3,220.5z"/>
<path d="M777.6,313c1.5-0.8,2.8-0.8,3.4,0.9c0.1,0.4-0.7,1.6-1.2,1.7C778.1,315.8,777.3,314.8,777.6,313z"/>
<path d="M802.9,258.8c-0.8-0.9-1.6-1.5-1.6-2.1c0-0.5,1-1.5,1.5-1.4c0.6,0,1.4,0.9,1.5,1.5
	C804.4,257.3,803.5,257.9,802.9,258.8z"/>
<path d="M833.5,232.2c-0.7-0.8-1.2-1.4-1.7-2c0.7-0.5,1.4-1.2,2.2-1.4c0.4-0.1,1.4,1.1,1.3,1.6
	C835.2,231,834.3,231.5,833.5,232.2z"/>
<path d="M200.5,240.5c-1.7,0.8-3.1,1-3.7-0.8c-0.1-0.4,0.3-1.2,0.7-1.4C199.3,237.6,200.1,238.6,200.5,240.5z"/>
<path d="M796.9,306.9c0.6,1,1.3,1.7,1.2,2.2c-0.1,0.6-1,1-1.6,1.4c-0.4-0.7-1-1.3-1.1-2
	C795.4,308.2,796.2,307.7,796.9,306.9z"/>
<path d="M770.9,315.3c0.6,1.3,1.2,2,1.2,2.8c0,0.4-0.9,0.8-1.4,1.2c-0.5-0.7-1.1-1.4-1.4-2.2
	C769.2,316.9,770.1,316.3,770.9,315.3z"/>
<path d="M57.4,320.7c0.9,1,1.9,1.8,1.8,2.1c-0.3,0.8-1.1,1.4-1.8,1.9c-0.2,0.1-1.4-0.8-1.4-1.2
	C56.1,322.7,56.7,321.9,57.4,320.7z"/>
<path d="M211.7,246.3c0.9-0.8,1.6-1.6,1.7-1.5c0.7,0.5,1.4,1.1,1.7,1.9c0.1,0.2-1,1.4-1.1,1.4
	C213.3,247.7,212.6,247.1,211.7,246.3z"/>
<path d="M936.4,257.3c-0.9,0.8-1.4,1.6-2,1.6c-0.5,0-1.6-0.9-1.5-1.3c0.1-0.6,0.8-1.5,1.4-1.6
	C934.8,255.9,935.5,256.7,936.4,257.3z"/>
<path d="M765.4,311.1c-0.7-1.4-1.4-2.2-1.4-2.9c0-0.6,0.8-1.5,1.4-1.6c0.4-0.1,1.4,0.8,1.5,1.3
	C767.1,308.5,766.4,309.2,765.4,311.1z"/>
<path d="M187.9,230.8c-0.8,0.8-1.4,1.6-2,1.7c-0.5,0-1-1-1.5-1.5c0.6-0.5,1.1-1.2,1.7-1.4
	C186.5,229.5,187.1,230.3,187.9,230.8z"/>
<path d="M787.2,283c-0.9-1.1-1.6-1.7-2-2.4c-0.1-0.3,0.7-1,1-1.5c0.6,0.5,1.4,1,1.9,1.7
	C788.4,281.2,787.8,281.9,787.2,283z"/>
<path d="M264.1,283.9c-1.1,0.7-1.7,1.4-2.1,1.3c-0.8-0.3-1.4-1-2-1.6c0.5-0.4,1-1.3,1.4-1.2
	C262.2,282.5,262.9,283.2,264.1,283.9z"/>
<path d="M820.9,283.6c0.6,1,1.2,1.6,1.2,2.2c0,0.4-1.1,1.2-1.3,1.1c-0.6-0.3-1.2-1-1.4-1.7
	C819.3,284.9,820.1,284.4,820.9,283.6z"/>
<path d="M822.4,235.1c-0.9,0.8-1.4,1.7-2,1.8c-0.5,0.1-1.2-0.7-1.8-1.1c0.6-0.5,1-1.3,1.7-1.5
	C820.7,234.1,821.4,234.7,822.4,235.1z"/>
<path d="M91.3,333.8c-0.9,0.5-1.5,1.1-2,1c-0.5-0.1-1-0.8-1.5-1.2c0.6-0.5,1.1-1.2,1.7-1.3
	C89.9,332.2,90.5,333.1,91.3,333.8z"/>
<path d="M274.2,293.8c0.4-2,1.2-3,3-2.4c0.4,0.1,0.8,1,0.7,1.3C277.3,294.5,276,294.3,274.2,293.8z"/>
<path d="M134.1,258.9c-1.2,0.6-1.8,1.1-2.5,1.1c-0.4,0-0.9-0.8-1.3-1.3c0.6-0.4,1.2-1.1,1.9-1.2
	C132.7,257.5,133.2,258.3,134.1,258.9z"/>
<path d="M158.7,223.9c-0.8,0.7-1.4,1.2-2,1.7c-0.4-0.6-1.2-1.3-1.1-1.9c0.1-0.6,1-1.2,1.6-1.4
	C157.5,222.3,158.1,223.2,158.7,223.9z"/>
<path d="M811.8,306.6c-0.9,0.7-1.4,1.4-2.1,1.5c-0.4,0.1-0.9-0.7-1.4-1.1c0.5-0.5,0.9-1.3,1.5-1.5
	C810.2,305.4,810.8,306.1,811.8,306.6z"/>
<path d="M903.2,231.7c-0.9,0.7-1.5,1.3-2.2,1.5c-0.4,0.1-0.9-0.8-1.3-1.2c0.5-0.5,1-1.2,1.7-1.5
	C901.7,230.3,902.3,231.1,903.2,231.7z"/>
<path d="M928.9,250.7c-1,0.8-1.5,1.4-2.2,1.7c-0.2,0.1-1.2-0.7-1.2-0.8c0.3-0.7,0.7-1.5,1.3-1.8
	C927.1,249.6,927.9,250.2,928.9,250.7z"/>
<path d="M821.6,252.9c0.8-0.7,1.4-1.5,1.7-1.4c0.6,0.2,1.3,0.8,1.6,1.4c0.1,0.2-0.7,1.4-1.1,1.4
	C823.2,254.1,822.6,253.5,821.6,252.9z"/>
<path d="M927.8,240.6c-0.8,0.6-1.5,1.3-1.7,1.2c-0.6-0.3-1-1-1.5-1.5c0.5-0.3,1-0.9,1.5-0.9
	C926.6,239.3,927,240,927.8,240.6z"/>
<path d="M796.7,287.6c-0.9,0.7-1.5,1.2-2,1.7c-0.5-0.6-1.1-1.1-1.3-1.8c-0.1-0.3,0.8-1.3,1.2-1.3
	C795.2,286.3,795.8,286.9,796.7,287.6z"/>
<path d="M836.5,288.2c-1,0.6-1.8,1.1-2.5,1.6c-0.3-0.5-0.9-1.4-0.8-1.5c0.6-0.6,1.4-1.1,2.2-1.4
	C835.5,286.8,836,287.5,836.5,288.2z"/>
<path d="M845.9,222.8c-0.5-0.9-1.1-1.5-1.2-2.2c0-0.3,1.1-1.1,1.5-1c0.6,0.3,1.2,1,1.3,1.6
	C847.5,221.5,846.6,222.1,845.9,222.8z"/>
<path d="M913.3,232.3c-0.6-0.8-1.3-1.3-1.3-1.7c0.1-0.5,0.7-1.2,1.2-1.3c0.4,0,1.3,0.7,1.3,1.1
	C914.6,230.9,913.9,231.5,913.3,232.3z"/>
<path d="M821,263.7c0.5,0.9,1.1,1.5,1,1.9c-0.1,0.5-0.9,0.8-1.4,1.2c-0.4-0.5-1.1-1-1.1-1.4
	C819.6,264.9,820.4,264.4,821,263.7z"/>
<path d="M188.6,240.8c0.6,0.8,1.1,1.4,1.6,2c-0.5,0.3-1.3,1.1-1.4,1c-0.6-0.4-1-1.1-1.3-1.7
	C187.4,241.9,188.1,241.4,188.6,240.8z"/>
<path d="M907.3,224c-0.9,0.5-1.5,1-2,1c-0.3,0-1.1-0.8-1-1c0.2-0.5,0.7-1.3,1.2-1.3C905.9,222.7,906.4,223.4,907.3,224z
	"/>
<path d="M171,230c-0.6-1.8-0.1-2.8,1.5-2.9c0.4,0,1.1,0.6,1.1,0.9C173.6,229.6,172.7,230.2,171,230z"/>
<path d="M917.4,239.5c-0.9,0.5-1.5,1.1-2,1c-0.5-0.1-0.8-0.9-1.2-1.4c0.5-0.4,1-1,1.5-1
	C916.1,238.1,916.6,238.8,917.4,239.5z"/>
<path d="M840.4,258.9c-0.6-0.8-1.3-1.4-1.2-1.7c0.2-0.6,1-1,1.5-1.5c0.4,0.5,1,1,1,1.5
	C841.7,257.6,841,258.1,840.4,258.9z"/>
<path d="M148.4,231.9c0.7,0.6,1.1,1.1,1.5,1.5c-0.4,0.4-0.9,1.2-1.4,1.3c-0.5,0.1-1-0.6-1.5-1
	C147.4,233.2,147.8,232.7,148.4,231.9z"/>
<path d="M260,271.6c0.6,0.9,1.3,1.4,1.2,1.8c-0.1,0.5-0.8,1-1.2,1.5c-0.4-0.5-1.2-0.9-1.2-1.4
	C258.9,273.1,259.5,272.5,260,271.6z"/>
<path d="M869.4,220.3c-1.1,0.5-1.7,0.9-2.4,1c-0.2,0-0.9-1-0.8-1.1c0.4-0.6,1-1.2,1.7-1.4
	C868.1,218.7,868.6,219.6,869.4,220.3z"/>
<path d="M853.7,237.5c-0.7,0.7-1.3,1.3-1.8,1.8c-0.4-0.4-1.1-0.9-1-1.1c0.3-0.7,0.8-1.2,1.3-1.7
	C852.4,236.4,853,237,853.7,237.5z"/>
<path d="M804.4,296.8c-0.5-0.9-1.2-1.6-1.1-1.9c0.3-0.6,1.1-0.9,1.6-1.3c0.3,0.5,1,1.1,0.9,1.5
	C805.8,295.6,805.1,296.1,804.4,296.8z"/>
<path d="M930.7,265c-0.7,0.7-1.1,1.5-1.6,1.6c-0.4,0.1-1.3-0.7-1.3-1.1c0-0.5,0.5-1.3,1-1.5
	C929.2,263.9,929.9,264.5,930.7,265z"/>
<path d="M236.6,265.8c-0.1-2.7,0.8-3.2,2.1-3c0.4,0.1,0.6,0.8,1,1.2C238.7,264.5,237.9,265,236.6,265.8z"/>
<path d="M330.2,326.3c-0.8,0.6-1.3,1.3-1.8,1.3c-0.5,0-0.9-0.7-1.4-1.1c0.4-0.4,0.8-1.2,1.2-1.3
	C328.7,325.1,329.3,325.8,330.2,326.3z"/>
<path d="M761.3,325.9c-0.5-0.9-1.1-1.5-1-1.9c0.2-0.4,0.9-0.8,1.5-0.9c0.3,0,1,0.8,0.9,1.1
	C762.5,324.7,762,325.1,761.3,325.9z"/>
<path d="M833.1,260.4c-0.9,0.5-1.5,1.1-1.9,1c-0.5-0.1-1.1-0.9-1.1-1.4c0-0.4,0.9-1.1,1.4-1
	C831.9,259,832.3,259.7,833.1,260.4z"/>
<path d="M118.2,269.5c-0.8,0.7-1.3,1.3-1.7,1.3c-0.5,0-0.9-0.7-1.4-1c0.4-0.5,0.7-1.2,1.2-1.3
	C116.7,268.4,117.3,269,118.2,269.5z"/>
<path d="M356.7,333.8c-1,0.5-1.6,1.1-2,1c-0.4-0.1-0.8-0.9-0.9-1.4c0-0.2,0.8-0.8,1.1-0.8
	C355.5,332.6,355.9,333.2,356.7,333.8z"/>
<path d="M286.4,296.8c0.6,0.9,1.2,1.3,1.3,1.9c0.1,0.3-0.7,1.1-0.9,1.1c-0.6-0.2-1.3-0.6-1.5-1.1
	C285.1,298.4,285.8,297.7,286.4,296.8z"/>
<path d="M786.3,299.2c0.5,1,0.9,1.5,0.9,2c0,0.4-0.8,1.1-1,1c-0.5-0.2-1.2-0.8-1.2-1.2C785,300.5,785.6,300,786.3,299.2
	z"/>
<path d="M344.2,330.3c-1,0.6-1.6,1.2-2.3,1.3c-0.2,0-1-1-0.9-1.5c0.1-0.5,0.9-1.1,1.4-1.1
	C342.8,328.9,343.3,329.6,344.2,330.3z"/>
<path d="M840.3,237.9c-0.9,0.5-1.4,0.9-2,1.1c-0.2,0-0.8-0.8-0.7-1.1c0.1-0.4,0.7-0.8,1.1-0.9
	C839.1,236.9,839.6,237.4,840.3,237.9z"/>
<path d="M230.9,271.3c-0.8,0.6-1.2,1.2-1.5,1.2c-0.6-0.1-1.1-0.6-1.6-1c0.3-0.4,0.7-1.1,1-1.1
	C229.3,270.3,229.9,270.8,230.9,271.3z"/>
<path d="M940.3,270.5c-0.7,0.4-1.2,0.8-1.7,1c-0.1,0-0.7-0.7-0.7-0.8c0.4-0.5,0.8-0.9,1.4-1.2
	C939.3,269.5,939.8,270,940.3,270.5z"/>
<path d="M119.1,255.9c-0.7,0.6-1.2,1.2-1.7,1.3c-0.2,0.1-1.1-0.8-1-1c0.2-0.5,0.7-1.1,1.2-1.4
	C117.8,254.7,118.4,255.3,119.1,255.9z"/>
<path d="M753.8,318.6c0.7-0.6,1.1-1.3,1.4-1.3c0.5,0.1,1,0.7,1.5,1.1c-0.3,0.4-0.6,1.1-0.9,1.1
	C755.2,319.5,754.6,319,753.8,318.6z"/>
<path d="M96.8,315.4c-1.7,0.8-2.2,1.3-2.8,1.3c-0.3,0-0.7-0.7-1-1.1c0.5-0.4,1-0.9,1.5-1.1
	C95,314.5,95.6,314.9,96.8,315.4z"/>
<path d="M203.9,251.6c-0.4-0.8-0.9-1.3-0.8-1.6c0.1-0.4,0.8-0.9,1.1-0.9c0.4,0.1,0.9,0.7,0.9,1.1
	C205.1,250.6,204.5,250.9,203.9,251.6z"/>
<path d="M833.2,272.9c-0.6,0.5-1.1,0.9-1.6,1.1c-0.1,0-0.7-0.7-0.7-0.7c0.4-0.5,0.8-0.9,1.2-1.3
	C832.2,272,832.6,272.5,833.2,272.9z"/>
<path d="M823.6,320.9c-0.8,0.6-1.3,1.2-1.6,1.1c-0.5-0.2-0.9-0.7-1.4-1.1c0.4-0.4,0.8-1.1,1.1-1
	C822.2,319.9,822.7,320.4,823.6,320.9z"/>
<path d="M150.5,246.7c-1,0.5-1.6,1.1-2,0.9c-0.4-0.1-0.8-0.9-0.9-1.5c0-0.2,0.8-0.9,1.1-0.8
	C149.3,245.5,149.7,246,150.5,246.7z"/>
<path d="M867.6,229.6c-0.7,0.4-1.2,0.9-1.5,0.8c-0.4-0.1-0.9-0.7-0.9-1.1c0-0.3,0.7-0.9,1-0.9
	C866.6,228.5,866.9,229,867.6,229.6z"/>
<path d="M802.9,319.5c-0.7,0.6-1,1.1-1.4,1.1c-0.4,0-1-0.5-1.1-0.9c-0.1-0.3,0.5-1,0.9-1.1
	C801.6,318.5,802.1,319,802.9,319.5z"/>
<path d="M219.4,259.3c-0.7,0.4-1.2,0.9-1.6,0.8c-0.4,0-0.7-0.6-1.1-0.9c0.5-0.4,0.9-0.9,1.4-1.1
	C218.4,258.1,218.8,258.8,219.4,259.3z"/>
<path d="M225.7,253.4c0.5,0.8,1,1.3,1.1,1.9c0,0.2-0.9,0.9-1,0.8c-0.5-0.3-1-0.8-1.2-1.3
	C224.5,254.6,225.1,254.1,225.7,253.4z"/>
<path d="M371.1,331.4c-0.7,0.6-1.1,1.1-1.4,1.1c-0.4,0-1-0.5-1.1-0.9c-0.1-0.3,0.5-1,0.9-1.1
	C369.8,330.5,370.3,331,371.1,331.4z"/>
<path d="M271.6,283.1c0.4,0.6,0.9,1.1,0.8,1.2c-0.2,0.4-0.6,0.7-1.1,0.9c-0.1,0-0.8-0.6-0.7-0.8
	C270.7,284,271.1,283.7,271.6,283.1z"/>
<path d="M167.6,237.4c0.4,0.5,0.9,1,0.9,1.1c-0.3,0.4-0.7,0.7-1.1,0.9c-0.1,0.1-0.8-0.6-0.7-0.8
	C166.8,238.3,167.2,238,167.6,237.4z"/>
<path d="M511,306.8c-1.8-0.4-3.8-0.4-5.4-1.1c-4.8-2.3-10-2-15.1-2.2c-3.2-0.2-6.5-0.7-9.6-1.7c-4.7-1.5-6.5-5.4-5-10.2
	c1.6-5,4.4-9.4,8.3-12.7c3.6-3.1,8.5-4.1,13.2-3.8c3.9,0.3,7.7,0.2,11.4-0.9c2.6-0.7,4.9-0.4,7.4,0.9c3.3,1.9,6.9,3.2,10.3,5
	c2.1,1.1,3.2,3.2,3.3,5.7C530.2,294,524,306.6,511,306.8z M511.4,303.6c6.1-0.1,9-1.4,12.7-6.5c5.4-7.4,5-13.6-4.5-17.7
	c-0.4-0.2-0.8-0.3-1.2-0.5c-4.1-1.7-7.9-0.9-10.9,2.3c-3,3.2-5.1,6.8-5.8,11.2C500.7,299.5,504.2,303.7,511.4,303.6z M502.9,282.3
	c-3.7-4.2-7.5-5.3-12-4.1c-5.5,1.5-12.2,11-11.7,16.5c0.2,2,1.3,3.3,3.1,4.3c5.1,2.7,10,1,14.8-0.7c0.6-0.2,1.2-1.3,1.2-2
	C498.3,291.2,499.5,286.4,502.9,282.3z"/>
<path d="M459.6,303c1.1,2.7-0.4,3.5-1.3,4.4c-6.5,6.7-13.5,11.8-17.3,12c2.3-1.5,4.6-2.8,6.8-4.5c2.1-1.7,4-3.6,5.9-5.5
	C455.6,307.5,457.4,305.4,459.6,303z"/>
<path d="M464.2,310.2c-4,3.7-8.2,7.6-12.4,11.5C453.2,316.7,460.1,310.8,464.2,310.2z"/>
<path d="M245.3,202.8c5.6,2.8,8.4,6.9,7.6,11.8c-1.2-2.2-2.2-4.4-3.5-6.2c-1.4-1.8-3.2-3.3-4.8-5
	C244.9,203.2,245.1,203,245.3,202.8z"/>
<path d="M231.3,225.5c-4.9-1.5-7.1-5.7-6.4-11.5c1.9-0.4,2.1,1,2.1,2.3C227,219.9,228,223.1,231.3,225.5z"/>
<path d="M230.4,212.9c1.4,3.2,2.4,5.4,3.4,7.7C230.6,219.6,229.7,217.9,230.4,212.9z"/>
<path d="M247.2,214.9c-1.8-1.9-4.1-3.6-3.9-7.3C245.8,209.9,247,212.2,247.2,214.9z"/>
<g>
	<path d="M63.4,16.3c8.2-0.1,14.8,1.2,20,5.4c4.7,3.8,8.6,8.7,12.4,13.4c2,2.5,2.1,5.9,1.6,9.1
		c-1.9,11.9-12.3,24.2-24.8,24.7c-3.1,0.1-6.3,0.4-9.4,0.9c-9.8,1.8-23.2-7.6-24.5-19.1c-1-8.3,0.4-15.8,4.9-22.4
		C48.5,21.2,55.1,15.7,63.4,16.3z M66.2,65.6c5.8,0,11.3-0.9,16.4-4.1c4.1-2.6,6.3-6.6,8.6-10.5c4.9-8.4,3.5-15.1-4.2-21
		c-3.5-2.7-7.4-4.8-11.1-7.3c-4.9-3.5-10.4-3.3-16-2.6c-1.4,0.2-2.8,0.8-3.9,1.5C47.7,27.2,42.4,34.4,42.5,45
		c0.1,11.4,6.9,19.2,18.2,20.2C62.5,65.3,64.4,65.4,66.2,65.6z"/>
	<path d="M73.4,51.5c-3.8,3.1-12.9,3.7-16.4,1.6c0.2-2.1,2-2.2,3.4-2.6c2.6-0.6,3.6-2.2,3.3-4.6
		c-0.3-2.5,1.2-5.5-2.1-7.2c-0.3-0.1-0.2-1.4,0-2c1.1-3.4,2.3-6.7,3.6-10c0.2-0.6,0.8-1.1,1.3-1.8c2,1.6,1.3,3.5,1.1,5.2
		c-0.3,4.8-0.7,9.6-1.1,14.5c0,0.6,0,1.1,0,1.7c0.2,3.7,0.5,4,4.2,4.5C71.5,50.9,72.1,51.1,73.4,51.5z"/>
	<path d="M80.3,52.8c-0.4-0.9-0.8-1.5-0.9-2c0-0.3,0.6-0.7,1-1c0.3,0.5,0.9,1,1,1.5C81.5,51.6,80.9,52,80.3,52.8z"/>
</g>
<g>
	<path d="M587,262.8c-3.9-0.9-7.5-1.3-10.8-2.5c-2.3-0.8-4.3-2.6-6.4-4c-1.2-0.8-2.1-1.9-3.3-2.7
		c-6.8-4.8-8.3-11.7-7.2-19.3c0.5-3.3,1.7-6.6,2.9-9.8c4.3-11.3,18.2-15.6,26.3-13.2c9.7,2.8,16.7,8.8,22.4,16.6
		c0.7,1,1.3,2.3,1.5,3.5c1.5,8.7,0,16.7-5.2,24c-2.1,3-5.4,4.3-8.6,5.3C594.9,261.6,590.8,262.1,587,262.8z M609.1,239.2
		c0.1-6-2.2-11.1-6.3-14.3c-3.7-2.9-7.7-5.4-11.4-8.3c-8.7-6.9-22.8,0.3-25.6,7.9c-1.9,5.2-3.1,10.5-1.6,16.3
		c2.5,9.1,9.7,16,19,17.5c4.3,0.7,8.5,0.1,12.7-0.9c6.9-1.6,10.8-6,12.3-12.7C608.7,242.6,608.9,240.5,609.1,239.2z"/>
	<path d="M591.4,221.1c0.1,2,0.3,3.4,0.3,4.7c-0.3,6.4-0.7,12.8-1,19.1c0,0.8,0,1.8-0.4,2.5c-0.4,0.7-1.3,1.2-2.6,2.4
		c-0.5-2.9-0.9-5.1-1.2-7.3c-0.5-3.8-0.6-3.8-4.5-4c-3-0.1-6-0.5-8.9-0.8c-1.6-0.2-2.4-1.2-1.9-2.7c1-3.5,2.1-7.1,3.3-10.6
		c0.3-0.8,1.2-1.5,1.9-2.4c2.6,2,0.7,4,0.3,5.8c-0.4,1.9-1.1,3.8-1.7,5.8c3.9,2.3,7.7,1.5,11.3,1c1.1-4.3,2.1-8.4,3.1-12.5
		C589.6,222,590.2,221.8,591.4,221.1z"/>
	<path d="M596.8,243.8c1.2,1.2,2.2,1.8,2.5,2.7c0.4,1.2-1.8,2.7-3.3,2.3c-0.7-0.2-1.6-1.5-1.5-2
		C594.8,245.8,595.8,245,596.8,243.8z"/>
</g>
<g>
	<path d="M830.5,51.9c-9.3,0.1-16.5-3.3-21.3-10.2c-4.8-6.8-5.3-14.6-2.1-22.4c0.6-1.5,1.5-2.8,2.1-4.2
		c5.3-13,25.8-18.6,37.1-5.4c1,1.2,2.2,2.3,3.2,3.4c5.8,6.2,6.8,13.4,5.1,21.4c-1.1,4.9-4,8.4-7.2,11.9c-2.5,2.7-6,3.9-9.5,4.6
		C835.2,51.5,832.5,51.6,830.5,51.9z M852.2,28.3c-0.6-2.7-0.8-5.7-2-8.2c-2.7-5.7-6.9-10.1-12.6-12.9c-4.7-2.3-9.4-3-14.1,0.4
		c-1.8,1.3-4.1,2.1-5.9,3.4c-1.5,1.2-3.1,2.6-3.8,4.3c-1.6,3.8-2.8,7.8-3.7,11.8c-1.7,7.6,2.8,15.7,9.8,18.9
		c4.6,2.1,9.2,2.1,14.1,1.8C843.8,47.2,852,38.7,852.2,28.3z"/>
	<path d="M816,33.8c1.5-2.3,3.1-1.9,4.6-1.6c2.5,0.5,5,1.1,7.6,1.3c3.3,0.3,5.5-1.6,5.4-4c-0.1-2.4-3.1-5-5.7-4.8
		c-1.7,0.2-3.3,0.7-5,1.1c-1.5,0.4-2.7-0.3-2.9-1.7c-0.4-2.7-0.7-5.4-0.5-8c0.1-1,1.6-2.4,2.7-2.8c2.8-0.9,5.8-1.3,8.8-1.9
		c1.3-0.3,2.5,0.1,2.5,1.5c0,0.6-1.2,1.3-1.9,1.6c-1.9,0.6-3.9,0.7-5.8,1.4c-0.9,0.3-2,1.4-2,2.2c0,0.9,0.8,2.1,1.7,2.7
		c0.9,0.6,2.2,0.5,3.3,0.8c1.5,0.4,3.1,0.7,4.4,1.5c3,1.9,4.9,4.6,4.2,8.2c-0.6,3.5-3.8,4.8-6.6,5.2C825.7,37.3,820.9,36.1,816,33.8
		z"/>
	<path d="M841.4,39.2c-0.8-0.8-1.9-1.4-1.8-1.8c0.2-0.8,1-1.3,1.6-2c0.5,0.5,1.4,1,1.5,1.6
		C842.7,37.6,842,38.3,841.4,39.2z"/>
</g>
<g>
	<path d="M307.6,196c-10.4,0.1-18.3-1.4-24.7-7.5c-0.5-0.5-1-1.1-1.6-1.4c-6.9-3.3-6.9-9.9-7.6-16.1
		c-0.7-5.7,1.5-10.6,5.2-14.9c5.1-6,11.4-8.1,19.1-6.3c6.7,1.5,13.3,3,19.4,6.4c7.6,4.3,12.9,15.8,11.3,24.1c-0.8,4.4-3,7.7-6.7,9.9
		C317,193.3,312,196.5,307.6,196z M303.2,192.5c2.8-0.4,5.7-0.6,8.4-1.3c7.7-2,12.4-7.2,14.9-14.6c0.3-0.9,0.4-2,0.2-2.9
		c-1.4-6.4-4.4-12-10.1-15.2c-7-3.9-14.7-6.2-22.8-6.3c-3.5-0.1-6.7,1.1-9.4,3.5c-10.5,9.4-7,24.1,1.8,31
		C291.2,190.7,296.8,192.4,303.2,192.5z"/>
	<path d="M296.2,168.7c1.6-2.2,3.1-4.3,4.7-6.6c-3.7-2.8-7.9,1.5-11.8-1.2c0.9-0.8,1.4-1.5,1.9-1.6
		c5.1-0.4,10.1-2,15.2-1.2c1,2.4-0.5,3.6-1.6,5.1c-1.5,2-1.3,2.8,1,3.8c0.4,0.2,0.8,0.3,1.2,0.4c2.8,1,4.9,2.8,4.8,5.9
		c-0.1,3-1.6,5.6-4.5,6.8c-4.9,1.9-10,2.3-15.1,0.7c-0.4-0.1-0.7-0.4-0.9-0.6c0.5-2,1.6-1.7,2.7-1.4c3.6,1.1,7.1,0.5,10.5-0.4
		c0.9-0.3,1.9-0.7,2.7-1.3c2.5-1.9,2.3-4.8-0.6-6.2c-1.5-0.7-3.3-0.9-4.9-1.2c-1.3-0.2-2.6-0.2-3.8-0.3
		C297.3,169.4,297,169.1,296.2,168.7z"/>
	<path d="M315.5,181c-0.7-0.8-1.4-1.3-1.4-1.7c0-0.5,0.5-1.4,1-1.5c0.4-0.1,1.5,0.6,1.5,0.9
		C316.6,179.3,316,180,315.5,181z"/>
</g>
<g>
	<path d="M521.1,29.1c-0.1,3.3-0.7,6.7-2.5,10.2c-4.1,8.2-10.8,11.8-19.4,12.8c-5.7,0.7-11.4,1.3-16.8-1.2
		c-2.9-1.4-6-2.9-8.4-5c-1.9-1.7-3.5-4.2-4.4-6.6c-3.9-11.4,1.1-25.4,11-32.1c6.6-4.5,13.9-4.3,20.9-2.1c6.5,2,12.5,5.3,16.4,11.6
		C520.4,20.4,521.6,24.2,521.1,29.1z M494.4,49.5c9.7-0.1,16.5-3.6,20.4-9.9c6-9.8,5.5-18.4-2.2-25.5c-4.9-4.5-10.7-6.8-17.2-7.7
		c-6.3-0.9-16.5,3-20.2,10.9c-2.8,6-4,12.1-2.4,18.6c1.3,5.4,4.4,9.3,9.7,11C486.2,48.1,490.4,48.6,494.4,49.5z"/>
	<path d="M487.6,34.6c4.5,0.5,8.7-1.3,12.6,0.8c0.4,0.2,0.4,0.9,0.7,1.6c-5.7,0.8-11.1,1.5-16.9,2.3
		c-0.8-1.3-0.3-3.1,0.6-4.7c1.4-2.8,3.4-5.2,6.3-6.8c2.5-1.4,4.8-3.1,6.9-4.9c0.9-0.8,1.8-2.7,1.4-3.6c-0.6-1.4-2-2.7-3.4-3.3
		c-1.6-0.8-3,0.1-3.7,1.9c-0.4,1-0.9,1.9-1.4,3c-2.8-3-1.7-7.2,1.8-8.2c4.8-1.3,9.8,1.3,11.3,6c0.9,2.6,0.6,4.1-1.7,5.5
		c-3,1.9-6.1,3.6-9.3,5.1C490.4,30.4,488.4,31.6,487.6,34.6z"/>
	<path d="M510.4,35.4c-1.3,0.7-2.2,1.5-2.8,1.4c-0.7-0.2-1.7-1.2-1.8-1.9c-0.1-1.3,0.9-2.2,2.2-1.8
		C508.8,33.4,509.4,34.4,510.4,35.4z"/>
</g>
<path d="M512.2,289c1.4,0.2,2.8,0.4,2.8,2.4c0,2.1-1.7,3.9-3.7,3.8c-1.7,0-2.9-1.3-2.9-3
	C508.5,290.4,510.1,288.9,512.2,289z"/>
<path d="M485.8,293.7c-0.5-2.3-0.3-4.4,2.2-5.3c0.8-0.3,2.3,0.1,2.9,0.7c1,1,1.6,2.6,0.4,3.9
	C489.8,294.6,488,295.1,485.8,293.7z"/>
</svg>
