<?xml version="1.0" encoding="utf-8"?>
<!DOCTYPE svg PUBLIC "-//W3C//DTD SVG 1.1//EN" "http://www.w3.org/Graphics/SVG/1.1/DTD/svg11.dtd">
<svg version="1.1" id="stones-roger-that" xmlns="http://www.w3.org/2000/svg" width="1000" height="150" viewBox="0 0 1000 150">
<style type="text/css">
<![CDATA[
	.face-b, .face-c, .face-g { fill:#DBE6EC; }
	.face-a, .face-d { fill:#81A8B8; }
	.face-f, .face-e { fill:#A4BCC2; }
]]>
</style>
<path d="M795.7,58.3c1.8,0.3,3.7,0.6,5.6,0.9c10.3,1.8,19.4,6.3,28.2,11.8c5.2,3.2,10,6.9,13.9,11.5
	c2.3,2.7,4.2,5.7,6.2,8.6c0.7,1.1,1.1,2.4,2,3.3c3.4,3.3,4.9,7.7,6.5,12c1.1,2.9,2.2,5.7,3.5,8.5c1.3,2.8,0.6,5.4-0.8,7.6
	c-1.1,1.7-3.2,2.9-5,4c-1.4,0.9-3.1,1.3-4.7,1.8c-4.7,1.4-9.6,1.9-14.6,1.8c-3.8,0-7.6,0.4-11.4,0.5c-4,0-8.1,0.1-12-1.2
	c-0.9-0.3-1.9-0.5-2.8-0.5c-3.3,0-6.4-1-9.3-2.3c-1.2-0.5-1.9-0.4-3,0.5c-2.3,1.8-4.9,3.4-7.4,4.9c-1.9,1.1-3.8,2.3-5.9,2.8
	c-4.3,1-8.2,3.2-12.5,4.5c-0.7,0.2-1.4,0.4-2.1,0.6c-3,0.5-6,1.1-9,1.5c-3.2,0.5-6.4,1-9.6,1.2c-5.9,0.5-11.7,0.9-17.6,1
	c-5.1,0.1-10.1-0.4-15.2-0.6c-1.5-0.1-3.1,0.2-4.6,0.1c-3.9-0.4-7.8-0.9-11.7-1.4c-4.6-0.6-9.3-1.1-13.9-1.8
	c-3.1-0.5-6.2-1.2-9.2-1.8c-4.7-1-9.5-2-14.2-2.9c-2.5-0.5-4.8-1.4-6.9-2.7c-1.7-1.1-3.5-2.1-5.2-3c-2.5-1.4-3.3-3.8-2-6.5
	c1.6-3.2,3.2-6.3,4.9-9.4c0.8-1.4,1.9-2.6,2.9-3.9c4.1-5.2,8.8-9.6,14.4-13.1c3.4-2.1,6.8-4.4,10.2-6.5c1.4-0.9,3-1.6,4.6-2
	c4.9-1.3,9.9-2.3,14.8-3.5c1.4-0.3,2.8-0.8,4.2-1.2c11.2-3.2,22.6-5.4,34.2-6.2c2.7-0.2,5.5-0.2,8.1-1c3-0.8,5.9-2.1,8.6-3.7
	c3.8-2.2,7.4-4.8,11.2-7.1c5.5-3.5,11.5-5.3,17.9-6.2C790,58.8,792.8,58.6,795.7,58.3z"/>
<path class="light face-a" d="M795.6,117.7c-0.1-1.4-0.3-3-0.5-4.6c-0.4-3.6-2.5-6.6-3.9-9.9c-1-2.5-2.4-5-4.1-7.1
	c-3.4-4.3-6.9-8.6-11.9-11.6c-2.6-1.5-5.3-2.7-8.3-3.2c-2-0.4-4-0.8-5.9-1.1c-2.6-0.4-5.2-1.1-7.9-1.1c-3.4-0.1-6.9,0.3-10.3,0.5
	c-10.3,0.6-20.3,2.6-30.3,4.9c-6.3,1.5-12.5,3.2-18.8,4.7c-3.7,0.9-7.2,2.1-10.5,4.2c-6.9,4.3-13.8,8.5-19.4,14.6
	c-3.2,3.5-5.8,7.2-7.1,11.9c-1.2,4.4,0.7,9.1,5,10.7c4.9,1.8,9.7,4,15.1,4.3c0.5,0,1,0.2,1.4,0.3c6.9,2,14.1,2.8,21.2,3.6
	c7.4,0.8,14.7,1.9,22.2,1.7c1,0,2.1,0,3.1,0.2c2.4,0.5,4.8,0.1,7.2-0.1c3.5-0.3,7.1-0.2,10.6-0.3c2.6-0.1,5.4,0.3,7.9-0.2
	c5.8-1.1,11.8-1.3,17.6-3.3c3.8-1.3,7.8-2.1,11.5-3.7c1.6-0.7,3.4-1,5-1.6c4.7-1.8,9.1-3.9,10.3-9.5
	C795.2,120.7,795.4,119.3,795.6,117.7z"/>
<path class="light face-b" d="M759.3,76.5c0.1,0.2,0.2,0.4,0.3,0.6c3.3,0.6,6.6,1.2,10,1.9c2.5,0.5,4.8,1.2,6.8,2.9c1.2,1,2.8,1.6,4.1,2.6
	c1.8,1.3,3.8,2.6,5.1,4.3c2.5,3.4,4.8,7.1,6.8,10.8c3.1,5.9,6.4,11.8,6,18.9c-0.1,0.8,0.4,1.3,1.1,1.7c3,1.6,6,3.4,9.1,5
	c0.6,0.3,1.4,0.5,2.1,0.6c4.2,0.5,8.5,1.2,12.7,1.3c5.5,0.1,10.9-0.1,16.4-0.5c4.8-0.3,9.3-1.5,13.6-4c3.7-2.2,5.2-5.1,4.5-9.3
	c-0.1-0.8-0.3-1.6-0.4-2.4c-1-4.3-3-8.1-4.8-12.1c-0.1-0.3-0.3-0.5-0.5-0.8c-1.6-2.3-3.2-4.6-4.7-7c-3.8-6.2-8.5-11.6-14.5-15.7
	c-3.2-2.2-6.6-4.2-10.1-6.1c-3.7-2-7.4-3.9-11.5-5.1c-3.4-1-6.7-2.1-10.1-3.1c-0.5-0.1-1-0.1-1.4-0.1c-3.1,0-6.2-0.3-9.3,0.4
	c-3.3,0.7-6.7,1.1-9.9,2c-6.6,2-12.3,5.5-17.5,10C761.6,74.4,760.5,75.5,759.3,76.5z"/>
<path d="M405.5,85c5.7,0.3,11.4,0.6,17,2.2c2.2,0.6,4.4,1,6.6,1.4c5.5,1.1,11,1.1,16.5-0.1c1-0.2,1.9-0.9,2.9-1.2
	c5.3-1.3,10.6-2.9,16-3.9c5.7-1,11.4-0.8,17.1,0.1c10,1.5,19.6,4.5,29.3,7.5c2.9,0.9,5.6,2.4,8.3,3.9c3.3,1.9,9.7,2.7,13.3,1.4
	c2.5-0.9,5-1.9,7.5-2.7c1.3-0.4,2.7-0.6,4-0.9c5.6-1.3,11.2-3.3,17-3.5c4.7-0.2,9.4-0.1,14.2,0.9c5.6,1.1,10.7,3.1,15.5,5.9
	c3.6,2.1,7.4,4,10.5,6.9c3.2,3,5.6,6.5,5.8,11c0,0.7,0.1,1.5,0,2.2c-0.3,3.2-0.7,3.8-3.9,4.7c-5.4,1.5-10.7,3.1-16.1,4.2
	c-4.1,0.8-8.3,0.9-12.5,1.1c-5.6,0.2-11.3,0-16.9,0c-1.4,0-2.7-0.2-4.1-0.1c-4.4,0.2-8.9,0-13.2,0.7c-3.1,0.5-6.5,1.3-9.1,3.6
	c-0.1,0.1-0.3,0.2-0.4,0.3c-6.3,2.6-12.2,6.3-19,7.7c-1.7,0.4-3.4,0.9-5.1,1.4c-7.7,2.2-15.5,3.8-23.4,4.8
	c-4.1,0.5-8.2,0.6-12.3,0.8c-5.3,0.3-10.6,0.5-15.9,0.6c-2.5,0.1-5,0.1-7.5-0.1c-3.9-0.3-7.9-0.8-11.8-1.2c-1.1-0.1-2.2-0.4-3.3-0.8
	c-4-1.4-8-2.5-11.8-4.3c-2.4-1.1-4.6-2.9-6.7-4.6c-1.4-1.2-2.7-2.3-4.5-2.6c-2.4-0.4-4.8-0.7-7.1-1.2c-2-0.4-4-1.1-6-1.6
	c-4-1-8-1.8-12-2.8c-3.7-1-7.6-1.8-11-3.4c-5.2-2.3-9.8-5.5-12-11.2c-0.3-0.7-0.7-1.3-1-1.9c-0.7-1.4-1.4-2.7-1.9-4.2
	c-1.4-4.9-0.3-7.8,4.8-10.8c4.1-2.4,8.3-4.6,12.7-6.5c5.4-2.4,11.2-3.2,17-3.6C397,84.9,401.2,85.1,405.5,85z"/>
<path class="light face-c" d="M475.1,85.9c-7.9-0.6-11,0.2-17.9,2.2c-4.6,1.3-9.1,3.4-13.4,5.6c-2.8,1.4-5.3,3.4-7.7,5.4
	c-2.7,2.2-5.2,4.8-7.8,7.2c-1.5,1.4-3,2.9-4.5,4.4c-2.4,2.3-3.8,5.4-5.7,8c-2.4,3.3-2.9,6.9-3.2,10.7c-0.2,2,0.5,3.9,2.4,5
	c2.4,1.3,5,2.5,7.5,3.8c1.1,0.5,2.1,1.1,3.3,1.5c1.8,0.6,3.6,1,5.4,1.5c5.1,1.5,10.2,2.1,15.5,1.7c3.2-0.2,6.4-0.5,9.7-0.4
	c10.6,0.3,21.1-0.3,31.5-2.2c2.1-0.4,4.3-0.6,6.4-1.1c5.1-1.3,10.2-2.5,15.2-4c5.3-1.6,10.2-3.8,14.7-7.2c3.1-2.4,5.4-5.5,7.9-8.4
	c1.7-2.1,2.3-5.9,0.9-8.1c-1.9-3.1-4-6-7-8.3c-1.7-1.3-3.5-2.2-5.3-3.3c-7.1-4.6-14.9-7.6-23.1-9.5c-2.2-0.5-4.3-1.4-6.5-1.8
	C487.1,87.5,481.1,85.9,475.1,85.9z"/>
<path class="light face-d" d="M434.9,95.4c-2.4-1.3-4.3-2.6-6.4-3.5c-4.6-2-9.4-3.2-14.5-3.6c-9.4-0.8-18.8-0.6-28.2,0.6
	c-0.6,0.1-1.3,0.2-1.9,0.4c-5.7,1.4-10.9,3.8-16.1,6.5c-1.3,0.7-2.5,1.4-3.6,2.4c-4,3.4-4.3,5.1-2,9.8c0.9,1.8,2,3.5,3.2,5.1
	c1.1,1.5,2.2,3,3.7,4.1c1.7,1.3,3.7,2.3,5.6,3.2c2.3,1,4.6,2,7,2.6c4.5,1.2,9.1,2,13.6,3.1c4.3,1.1,8.6,0.9,13,0.4
	c2.7-0.3,4.6-1.6,5.3-4.5c0.7-2.8,1.7-5.4,3.4-7.9c1.7-2.5,3.6-4.8,5.7-6.9c3.4-3.4,7-6.6,10.6-9.9
	C433.7,96.9,434.2,96.2,434.9,95.4z"/>
<path class="light face-e" d="M530.6,101.6c2.2,3.1,4.1,5.7,6,8.4c1.3,1.8,1.9,3.8,1.5,5.9c-0.2,1.2-0.5,2.4-0.9,3.5
	c-0.7,1.9-0.3,2.7,1.7,3.1c1.6,0.3,3.2,0.4,4.8,0.2c2.5-0.4,5-0.1,7.5,0.2c2.7,0.3,5.4,0.8,8.1,0.9c6,0.2,11.9,0.6,17.9-0.4
	c4.3-0.7,8.6-1.3,12.8-2.6c3.3-1,6.7-1.9,9.9-3.1c3.7-1.4,5.1-3.8,4.1-7c-1.2-3.7-3.9-6.2-7-8.3c-1.2-0.9-2.6-1.5-3.9-2.3
	c-4.3-2.7-8.6-5.3-13.7-6.3c-1.2-0.2-2.4-0.4-3.6-0.7c-6.6-1.5-13.3-1.2-19.9-0.2c-6.2,0.9-12,2.9-18,4.8c-1.7,0.5-3.3,1.3-4.9,2.1
	C532.1,100.2,531.3,101.1,530.6,101.6z"/>
<path d="M269.7,132.6c-5.3-0.1-10.6-0.1-15.9-0.2c-4.6,0-9.1-0.9-13.6-2.1c-1.8-0.5-3.6-0.8-5.5-1
	c-1.1-0.2-2.1,0.3-2.6,1.4c-1.1,3.1-3.8,4.5-6.3,6.1c-5.1,3.1-10.7,4.4-16.5,5.2c-6,0.8-12,1.3-18,1.9c-0.2,0-0.5,0-0.7,0
	c-6.4,0-12.7,0.1-19.1-0.1c-5.1-0.1-10.2-0.3-15.2-1c-4.6-0.6-9.1-1.9-13.7-3c-3-0.7-6-2-9.2-2c-0.4,0-0.8-0.1-1.2-0.2
	c-3.2-0.9-6.3-1.7-9.5-2.6c-2.8-0.8-5.7-1.3-8.3-2.4c-2.5-1.1-4.9-2.6-7-4.3c-2.3-1.9-2-4.8-1.4-7.5c0.4-1.5,1-2.9,1.8-4.2
	c2.3-4.2,4.7-8.4,7.1-12.7c1.8-3.3,3.9-6.5,6.4-9.3c2-2.2,4.1-4.3,6.8-5.8c2.6-1.5,5-3.2,7.6-4.8c3.4-2,6.8-3.9,10.7-4.9
	c3.6-1,7-2.3,10.6-3.1c3-0.7,6-0.9,9.1-1.1c4.2-0.2,8.4,0.2,12.6-0.3c2.2-0.3,4.7,0.3,6.9,1c5.7,1.7,11.3,3.7,16.5,6.9
	c1,0.6,2.2,1.1,3.4,1.2c4.5,0.7,9,0.7,13.2-1.6c1.8-1,3.7-2,5.6-2.8c2.1-0.9,4.3-1.7,6.5-2.5c2.1-0.7,4.3-1.3,6.5-1.9
	c7.7-2.1,15.3-1.5,22.8,1c6.9,2.3,13.5,5.2,19.7,9.1c6.3,4,12.7,7.9,18.4,12.8c1.8,1.5,3.4,3.2,4.9,5c3.6,4.2,4,10.7,1.7,15.7
	c-3.4,7.2-9.7,10.3-16.7,12.4C282.1,132.8,275.9,132.5,269.7,132.6z"/>
<path class="light face-f" d="M172.5,140c8.7,0.6,16.8,0,24.9-0.7c5.3-0.4,10.6-0.2,15.9-1.4c4.8-1.1,9.1-3.1,13.3-5.5
	c0.9-0.5,1.7-1.7,1.9-2.6c0.3-1.7,0.3-3.6-0.1-5.3c-0.7-3.2-1.6-6.4-2.5-9.6c-1-3.8-3.5-6.8-5.8-9.9c-1.3-1.7-2.7-3.4-4.2-5
	c-1.6-1.8-3.1-3.7-4.8-5.4c-2.1-2-4.3-3.9-6.6-5.7c-2.7-2.1-5.4-4.5-8.4-6.1c-5.1-2.8-10.6-4.6-16.6-4.7c-3.5,0-6.9-0.2-10.4-0.4
	c-4.1-0.1-8.2,0.3-12.2,1.4c-2.7,0.7-5.2,1.6-7.9,2.2c-3.9,1-7.4,2.7-10.9,4.6c-2.1,1.1-3.9,2.9-6,4c-6.2,3.2-10.2,8.5-13.6,14.3
	c-1.2,2-2.1,4.2-3.4,6.1c-1.7,2.7-2.5,5.6-2.8,8.6c-0.1,1,0.1,2.1,0.6,3c1.4,2.5,3.3,4.4,5.9,5.8c5.9,3.1,12.3,4.7,18.7,6.6
	c5.5,1.7,11.2,2.4,16.8,3.3C160.6,138.8,166.7,140.4,172.5,140z"/>
<path class="light face-g" d="M248.8,76.2c-3.4,0.5-7.1,0.9-10.7,1.6c-2.3,0.4-4.5,1.2-6.7,1.9c-0.8,0.2-1.7,0.4-2.5,0.8
	c-4.3,2.1-8.7,4.3-13,6.4c-0.8,0.4-1.5,0.9-2.1,1.6c-1.1,1.2-1.1,1.9-0.1,3.2c2,2.5,4,5,5.9,7.7c4.6,6.4,8.9,12.9,10.7,20.7
	c0.1,0.6,0.5,1.3,0.9,1.6c2.1,1.8,4.4,3.5,7.2,4.3c3.3,0.9,6.6,1.4,10,1.5c2.6,0.1,5.1,0.6,7.7,0.8c5.1,0.5,10.2,1.2,15.4,0.9
	c1.2-0.1,2.4-0.4,3.6-0.4c4.9-0.1,9.6-1,14.3-2c5.1-1.1,8.9-3.8,12.2-7.7c3.7-4.2,3.4-12.5-1.4-16.4c-3.5-2.8-6.7-6.1-10.6-8.4
	c-2.8-1.7-5.5-3.7-8.2-5.5c-2.1-1.4-4.2-2.7-6.3-4c-0.5-0.3-1-0.6-1.5-0.8c-4.9-1.8-9.8-3.8-14.7-5.4
	C255.7,77.5,252.4,77,248.8,76.2z"/>
<path d="M129.5,28c1.1,0.1,1.9,0.1,2.8,0.2c2.9,0.4,4.1,2,3.6,4.8c-0.8,4.3-3.1,6.2-7.9,6.6c-1,0.1-2.1,0-3.1,0
	c-1.5-0.1-2.8,0-4.2,0.8c-1.2,0.8-1.9,0.4-2.1-1.1c-0.4-4.1-0.7-8.2-1.1-12.2c-0.1-0.6,0-1.3-0.1-1.9c-0.2-2.7-0.2-2.7,2.1-3.9
	c2.3-1.2,4.7-1.7,7.2-1.3c3.6,0.6,4.9,3,3.6,6.4C130,26.8,129.8,27.3,129.5,28z M120.5,32.4c0,1,0,2,0.1,3c0.3,1.8,0.6,2.2,2.5,2.3
	c1.4,0.1,2.8,0.2,4.1,0.1c1.5-0.2,3-0.5,4.4-1c1.6-0.6,2.3-2.8,1.7-4.5c-0.5-1.5-1.9-2.2-3.7-1.8C126.7,31,123.8,31.7,120.5,32.4z
	 M119.3,26.3c0.1,0.9,0.2,1.9,0.5,2.8c0.2,0.5,0.9,1,1.4,1.1c2.9,0.4,6.7-2.6,6.8-5.5c0-0.6-0.3-1.5-0.8-1.9c-1.9-1.3-3.9-0.7-5.8,0
	C119.9,23.3,119.4,24.7,119.3,26.3z"/>
<path d="M842.2,51.2c0.1,1,0.1,1.5,0.1,2.1c0,1-0.6,1.2-1.4,1.2c-0.8,0-1.2-0.4-1.3-1.1c0-0.6,0.1-1.1,0.1-1.7
	c0.1-0.7,0.1-1.4,0.2-2.1c-1.8-0.8-3.3-0.3-4.9,0c-0.5,0.1-1,0.5-1.4,0.4c-0.7-0.2-1.6-0.6-1.8-1.2c-0.4-0.9,0.5-1.2,1.3-1.3
	c1.7-0.3,3.4-0.7,5.2-1c0-1.4-1.2-1.9-1.6-2.8c-0.2-0.5-0.2-1.2-0.3-1.8c0.6,0.1,1.3,0,1.7,0.3c1,0.7,1.8,1.6,2.9,2.6
	c0.5-0.9,1-1.6,1.4-2.4c0.2-0.4,0.3-0.9,0.5-1.3c0.4-0.7,0.8-1.5,1.8-1.1c1,0.4,0.5,1.2,0.3,1.9c-0.4,1.4-0.9,2.7-1.5,4.5
	c1.2,0,2.1,0.2,3,0.1c1.4-0.2,2.9-0.5,4.3-0.8c0.5-0.1,1-0.2,1.4-0.2c0.7,0,1.6,0,1.6,1c0,0.4-0.7,1.1-1.2,1.2
	c-0.8,0.3-1.7,0.3-2.6,0.3c-1.6,0.1-3.1,0.6-4.7,1.6c0.4,0.5,0.6,1,1,1.3c0.8,0.7,1.8,1.1,2.6,1.8c0.9,0.7,2.3,1.2,1.7,2.8
	c-0.3,0.8-1.3,0.6-3.1-0.7c-1.3-0.9-2.5-1.7-3.8-2.5C843.5,51.8,843.1,51.6,842.2,51.2z"/>
<path d="M316.2,30.7c2,0.4,3.9,0.7,5.7,1.2c2.4,0.6,4.8,1.3,7.2,2.2c1,0.4,2,1.2,2.5,2.1c1.6,2.8,2.8,5.8,2.3,9.2
	c-0.1,0.8-0.5,1.8-1,2.3c-2.1,2-4.5,3.3-7.5,3.4c-2.3,0.1-3.9-1.3-4.2-3.5c-0.4-3.8,0.9-6.9,4-9c0.8-0.5,2-0.6,3-0.6
	c0.3,0,0.9,0.7,0.9,1.1c0,0.4-0.5,0.9-0.9,1.2c-0.1,0.1-0.5,0.1-0.7,0.1c-2.8,0.6-4.4,3.1-3.8,5.9c0.2,1.1,0.9,1.7,2,1.8
	c2.6,0.4,5.8-1.9,5.8-4.5c0-5.4-1.8-7.6-6.4-9c-1.9-0.6-3.9-0.8-5.9-1.2C317.2,33.3,316.5,32.5,316.2,30.7z"/>
<path d="M387.1,65.2c2-0.1,4-0.3,6-0.4c1.2-0.1,2.3,0.4,2.8,1.6c0.2,0.5,0.4,1.3,0.1,1.8c-0.9,1.8-1.8,3.5-3.8,4.6
	c-2,1-3.8,2.3-5.8,3.5c-0.5,0.3-1.2,0.5-1.8,0.7c-1.1,0.4-1.8,0.2-2.4-0.9c-1.3-2.3-2.6-4.6-4-6.9c-0.5-0.9-0.6-1.8,0.1-2.7
	c0.7-0.9,1.3-1.9,2-2.7c1.6-1.8,2.6-1.9,4.6-0.5C385.8,63.7,386.5,64.6,387.1,65.2z M391.3,67.2c-1.4,0-2.5,0.4-3.4,1.3
	c-1.1,1-2.3,2-3.4,3.1c-0.4,0.4-0.7,1.2-0.6,1.6c0.2,0.8,1.1,1,1.8,0.6c2.2-1.1,4.4-2.3,6.5-3.6c0.5-0.3,0.9-1.4,0.8-2
	C393,67.7,391.9,67.5,391.3,67.2z M384.5,67.3c0-1.7-0.8-2.6-1.8-2.2c-0.9,0.3-2.1,2-1.8,2.9c0.2,0.7,0.8,1.5,1.4,1.8
	c0.3,0.2,1.2-0.5,1.6-1C384.3,68.2,384.4,67.6,384.5,67.3z"/>
<path d="M815.9,0c1.9,0.5,2.1,0.7,1.9,2.4c-0.2,2.2-0.5,4.3-0.8,6.5c-0.5,2.8-0.6,5.6-0.2,8.4c0.1,0.5,0.1,1,0.1,1.4
	c0,1-0.6,1.5-1.6,1.5c-1,0-1.1-0.7-1.2-1.5c-0.2-3.9-0.2-3.9-4-4.4c-0.3,0-0.6-0.1-1-0.2c-3.3-0.6-5.1,0.5-6.1,3.7
	c-0.7,2.1-1.2,2.3-3.7,1c0.3-0.5,0.5-1.1,0.9-1.6c2.3-2.4,4.8-4.8,7-7.3C810.4,6.8,813.8,4,815.9,0z M814.1,6.1
	c-1.8,1.8-3.4,3.2-5,4.8c1.3,1,2.5,1.1,3.7,1c0.4,0,1.1-0.4,1.1-0.7C814.2,9.7,814.9,8.3,814.1,6.1z"/>
<path d="M574.4,44.9c-1.1,0.6-1.8,1.1-2.6,1.5c-1.3,0.6-2.7,1.1-4,1.8c-1.4,0.8-1.6,1.3-0.8,2.8c1,1.8,2.1,3.4,3.2,5.1
	c0.3,0.5,0.7,1,1,1.6c-1.1,1-2,0.5-2.7-0.1c-0.9-0.9-1.6-2-2.4-3c-0.6-0.7-1.1-1.5-1.8-2.6c-0.7,1.7,0.7,4.2-2.4,3.8
	c-0.2-0.8-0.4-1.5-0.6-2.4c-1.6,0.5-2.7,1.4-3.4,2.7c-0.2,0.3-0.3,0.9-0.5,1c-0.5,0.2-1.2,0.1-1.8,0.2c0-0.5-0.3-1.2-0.1-1.5
	c0.6-0.9,1.4-1.7,2.2-2.6c1.2-1.4,2.4-2.8,3.6-4.1c-0.7-2.2-3.5-2-3.9-4.2c1-0.6,1-0.6,4.7,0.9c1.8-1.8,0.3-4.9,2.5-7
	c0.2,0.7,0.5,1.2,0.4,1.6c-0.2,1.5-0.5,3-0.8,4.5c-0.1,0.7-0.2,1.5-0.3,2.8c2.1-0.9,3.6-1.6,5.3-2.2
	C570.9,44.9,572.2,43.4,574.4,44.9z"/>
<path d="M519.5,53.6c0-0.6-0.1-1.1,0-1.6c0.6-2.8,1.3-5.7,2.1-8.4c0.8-2.8,1.7-5.5,2.6-8.3c0.2-0.7,0.4-1.7,1.6-1.4
	c0.8,0.2,1.1,1.5,0.7,2.5c-0.7,1.4-1.4,2.9-2.1,4.3c-0.2,0.4-0.2,0.9-0.3,1.4c1.2,0.3,1.8-0.4,2.5-0.8c2.7-1.6,5.4-3.2,8.1-4.7
	c1.2-0.7,2-0.3,2.2,0.8c0.1,0.9-0.5,1.3-1.2,1.6c-1.8,0.8-3.6,1.7-5.4,2.6c-0.4,0.2-0.7,0.4-1,0.6c-1,0.7-1.4,1.6-0.7,2.7
	c0.9,1.4,1.8,2.9,2.8,4.2c0.5,0.7,1.1,1.2,1.6,1.8c1.1,1.4,1,1.7-0.5,3.2c-0.2-0.1-0.5-0.1-0.6-0.3c-1.5-2.3-3-4.5-4.6-6.8
	c-0.5-0.8-0.8-2.1-2-1.8c-1.2,0.3-2.4,1.1-2.7,2.5c-0.2,0.9-0.4,1.9-0.4,2.9C522.1,52.8,522.1,52.8,519.5,53.6z"/>
<path d="M834.7,11.8c1.4,0.7,1.4,2,1.5,3.1c0.1,0.8,0,1.6,0.1,2.4c0.3,1.6,1,1.9,2.3,1c0.9-0.6,1.7-1.4,2.6-2.2
	c0.7-0.7,1.3-1.5,2.5-0.9c1.1,0.6,0.9,1.6,0.8,2.6c-0.2,1.5-0.6,3-0.9,4.5c-0.3,1.3-0.6,2.5-0.8,3.8c-0.1,0.9-0.2,1.6-1.3,1.6
	c-0.8,0-1.6-0.9-1.4-1.9c0.1-0.9,0.5-1.9,0.7-2.8c0.1-0.6,0.1-1.2,0.1-2.2c-1.8,0.9-3.3,1.7-5.1,2.6c-0.7-1.4-1.3-2.6-2.1-4.2
	c-0.8,1.3-1.4,2.2-2,3.1c-0.4,0.6-0.6,1.4-1.2,1.8c-0.4,0.3-1.3,0.4-1.7,0.2c-0.4-0.2-0.4-1.1-0.4-1.6c0-0.2,0.2-0.4,0.3-0.6
	c1.8-3.1,3.5-6.3,5.3-9.4C834,12.3,834.4,12.1,834.7,11.8z"/>
<path d="M891.3,69.7c-1.5,0.6-2.7,1.1-3.9,1.5c-0.8,0.3-1.6,0.7-2.5,1c-2.5,0.7-2.9,0.4-2.9-2.1c0-1-0.1-1.9-0.1-2.9
	c0-0.1-0.1-0.3-0.3-0.6c-0.5,0.2-1,0.4-1.4,0.6c-1.7,1-3.3,2-5,2.9c-0.6,0.3-1.4,0.3-2.2,0.5c-0.1-0.2-0.2-0.4-0.3-0.6
	c0.4-0.4,0.7-1,1.1-1.2c3.2-1.7,6.3-3.6,8.9-6.2c0.4-0.4,1.3-0.6,1.9-0.4c0.3,0.1,0.5,1.1,0.5,1.7c0,0.9-0.2,1.8-0.3,2.6
	c-0.1,0.9-0.1,1.7-0.1,2.8c2.3,0.2,4-0.9,5.8-1.7c0.6-0.3,1.1-0.8,1.7-1c0.6-0.2,1.5-0.4,2-0.1c0.3,0.2,0.4,1.1,0.4,1.7
	c0,0.7-0.2,1.4-0.5,2.1c-1,2.8-1.6,5.7-1.7,8.7c0,0.9-0.3,1.6-1.3,1.6c-1.1,0-1.3-0.9-1.2-1.7c0.2-1.7,0.5-3.3,0.8-5
	C891,72.7,891.6,71.4,891.3,69.7z"/>
<path d="M367.1,42.7c0.7,1.4,0.3,2.3-0.9,2.9c-1.8,0.9-3.7,1.7-5.5,2.6c-0.9,0.5-1.9,1-2.7,1.6
	c-2.3,1.6-2.3,3.7-0.2,5.6c0.8,0.8,1.7,1.5,2.4,2.3c1.9,2.2,1.7,3.9-0.7,5.6c-0.7,0.5-1.5,1-2.3,1.4c-1.6,0.8-3.1,0.6-4.4-0.6
	c-1.3-1.2-1.6-2.8-0.9-4.4c0.4-0.8,0.8-1.6,1.4-2.2c1.1-1.1,1.2-2.2,0.7-3.5c-0.2-0.4-0.2-1-0.4-1.4c-0.5-1.3-0.1-2.4,0.9-3.2
	c1.1-0.9,2.3-1.8,3.5-2.5c2.6-1.4,5.3-2.7,8-4C366.4,42.7,366.7,42.7,367.1,42.7z M359.2,60.2c-0.7-1.2-1.3-2.4-2.7-2.2
	c-0.9,0.1-2.1,1.4-2.2,2.3c-0.1,1,0.4,1.8,1.3,2C357.3,62.8,358.1,61.4,359.2,60.2z"/>
<path d="M369,19.9c-0.5-1.1-0.9-2-1.3-2.8c-0.2-0.5-0.6-1-0.7-1.5c-0.1-0.4,0.2-1,0.4-1.2c0.3-0.1,1,0.1,1.2,0.4
	c0.6,0.8,1,1.7,1.4,2.5c0.4,0.7,0.8,1.3,1.2,2c2.4-0.8,2.3-3.9,5.1-4.5c-0.2,0.9-0.2,1.5-0.4,2c-0.4,1-1,1.8-1.5,2.8
	c-1,1.8-0.5,2.8,1.4,3.4c0.7,0.2,1.4,0.2,2.1,0.4c0.5,0.1,1,0.3,1.7,0.4c-0.8,2-2.6,1.9-4.1,2.4c-0.1,1-0.2,1.9-0.4,2.9
	c-2,0-2.3-2-3.6-2.6c-1.3,0.5-1.6,1.5-1.9,2.6c-0.2,0.7-0.4,1.4-0.9,1.9c-0.4,0.3-1.2,0.4-1.7,0.3c-0.2-0.1-0.5-1.1-0.3-1.5
	c0.5-1.3,1.2-2.4,1.9-3.6c0.4-0.6,0.8-1.2,1.1-1.8c0.4-1,0.1-1.6-1-1.7c-1-0.1-2.1,0.1-3.1-0.1c-0.5-0.1-1-0.6-1.5-0.9
	c0.4-0.4,0.7-1.1,1.2-1.3C366.6,20,367.6,20,369,19.9z"/>
<path d="M827.2,50.4c-0.9-0.2-1.8-0.3-2.5-0.7c-1.8-0.9-3.6-1.8-5.3-2.9c-2-1.2-3.4-2.9-3.3-5.5c0.1-2.5,1.5-4,3.5-5
	c2-1.1,4.2-1.7,6.5-1.4c1.1,0.1,2.2,0.6,3.1,1.3c2,1.4,1.8,3.6-0.3,4.9c-2.1,1.2-4.3,1-6.6,0.5c-0.7-0.1-1.4-0.5-2.1-0.6
	c-1.1-0.2-1.8,0.6-1.3,1.6c0.5,0.9,1.2,1.7,2.1,2.2c1.5,1.1,3.2,1.9,4.8,2.9C826.9,48.6,826.9,48.6,827.2,50.4z M821.4,38.7
	c2.3,0.6,4.2,1.4,6.3,0C826,37.1,824,37.1,821.4,38.7z"/>
<path d="M617.5,71c-0.3-2.2-0.6-4.3-0.9-6.4c-2,0.2-3.1,1.3-4.1,2.4c-1.5,1.6-2.7,3.4-4.1,5c-0.4,0.4-1.1,1-1.5,0.8
	c-0.9-0.4-0.7-1.2-0.2-1.8c1-1.4,2.1-2.8,3.2-4.2c0.6-0.7,1.2-1.5,2.1-2.7c-0.5-0.3-0.9-0.4-1.2-0.7c-1.8-1.4-2-2.6-0.8-4.5
	c1.7-2.7,6.4-3.8,9-2c0.7,0.5,1.4,1.2,0.9,2c-1.9,3.1-0.7,6.4-0.6,9.7c0,0.2,0.1,0.5,0.1,0.7C619.6,70.4,619,70.9,617.5,71z
	 M616.8,62.6c0.2-1,0.4-1.7,0.4-2.3c0.3-1.7-0.4-2.5-2-2.2c-1,0.2-2,0.7-2.7,1.4c-1,0.9-0.6,2,0.6,2.4
	C614.2,62.3,615.4,62.4,616.8,62.6z"/>
<path d="M221.2,17.6c1.5,3.5,0.4,7,1.5,10.1c2.9,0.1,3.7-0.6,3.8-3.2c0.1-0.8,0-1.6,0.2-2.4c0.1-0.5,0.5-1,0.8-1.7
	c1.6,1.2,1.4,2.5,1.3,3.9c0,0.8-0.6,2,0.5,2.3c1.2,0.3,2.5,0.2,3.8,0c0.2,0,0.5-1.1,0.5-1.7c-0.1-1.9-0.4-3.8-0.6-5.8
	c-0.1-0.6-0.2-1.1-0.1-1.7c0.1-0.4,0.5-0.7,0.9-0.9c0.1-0.1,0.7,0.4,0.8,0.7c0.4,3,1,6,1.1,9.1c0.1,2-1.2,2.9-3.3,3
	c-2.5,0.1-5,0.1-7.5,0.3c-0.9,0.1-1.7,0.5-2.6,0.7c-0.9,0.2-1.5-0.2-1.6-1c-0.1-3.6-0.2-7.2-0.2-10.8
	C220.5,18.4,220.8,18.2,221.2,17.6z"/>
<path d="M811.4,31.1c-2.7,1-4.3,2.8-6.1,4.4c-0.3,0.2-0.4,0.7-0.6,1c-0.9,2.2-1.6,2.4-3.7,0.7c0.2-1.4,1.3-2.2,2.2-3
	c1.2-1.2,2.6-2.1,3.9-3.2c2-1.7,3.9-3.3,5.8-5c1-0.9,2-0.8,2.4,0.5c0.2,0.8,0.2,1.8,0,2.6c-1.2,3.6-2.1,7.3-2.3,11.1
	c0,0.7-0.2,1.5-0.6,2.1c-0.3,0.5-0.9,0.7-1.4,1c-0.3-0.5-0.8-1-0.9-1.5c0-1,0.2-2.1,0.4-3.1c0.3-1.9,0.6-3.8,0.9-5.7
	C811.6,32.5,811.5,31.9,811.4,31.1z"/>
<path d="M665.4,66.9c0.5-0.3,0.9-0.7,1.4-1c1.9-1.1,3.7-2.2,5.6-3.3c0.9-0.6,1.5-1.3,1.8-2.5c0.6-2.9-0.7-4.4-3.6-4
	c-0.9,0.1-1.9,0.3-3.1,0.6c0.1-1.3,0.2-2.3,0.3-3.3c0.1-1,0.3-2,0.6-3.2c-1.9,0.2-2.7,1.6-3.8,2.4c-0.6,0.4-1,1-1.6,1.5
	c-0.5,0.5-1.1,0.8-1.7,0.2c-0.6-0.7,0-1.2,0.5-1.6c2.3-2,4.7-4,7-6c0.5-0.5,1.1-0.9,1.8-1.5c1.4,2.9-0.5,5.2-0.8,8
	c0.9,0.1,1.7,0.2,2.5,0.2c2.5,0.2,3.5,1.3,3.8,3.8c0.3,2.4-0.6,4.4-1.9,6.3c-0.4,0.6-1.1,1-1.7,1.2c-1.9,0.8-3.8,1.6-5.8,2.4
	c-0.3,0.1-0.7,0-1.1,0C665.5,67.2,665.5,67.1,665.4,66.9z"/>
<path d="M282,20.7c-1,1.3-1.6,2.2-2.3,3c-1.2,1.5-2.3,3.1-3.6,4.5c-1.3,1.3-2.3,0.9-2.6-0.9c-0.5-2.5-1-5-1.4-7.6
	c-0.1-0.4-0.2-0.8-0.2-1.2c0-0.8,0.1-1.6,1-1.6c1-0.1,1.1,0.7,1.2,1.5c0.2,1.4,0.3,2.9,0.6,4.3c0.2,0.9,0.6,1.7,1.1,2.9
	c3.4-2.9,4.2-7.5,7.9-9.7c1.1,0.8,1,1.9,1,2.9c0.2,2.3,0.1,4.7,1.2,6.8c0.5,1-0.2,1.5-1.1,1.7c-0.8,0.2-1.4,0-1.6-0.9
	c-0.2-0.9-0.3-1.9-0.5-2.8C282.6,22.9,282.4,22.1,282,20.7z"/>
<path d="M480.6,27.3c-0.3,0.6-0.4,0.9-0.5,1c-2.4,1-4.7,2.1-7.1,2.8c-2.2,0.6-3.5-0.3-4.3-2.4c-1-2.8-0.2-5.2,1.5-7.4
	c0.4-0.6,1-1.1,1.5-1.6c1-1,2.1-1.6,3.5-0.9c1.3,0.6,2.2,1.6,2.3,3.1c0.2,1.8-0.6,3.3-1.9,4.4c-0.7,0.6-1.3,1.1-2.3,1.9
	C475.9,28.7,478,26.7,480.6,27.3z M470.5,26.5c2.1-0.3,3.1-1.2,4-2.2c0.4-0.5,0.5-1.5,0.4-2.2c-0.1-0.8-0.9-1.1-1.5-0.7
	c-0.9,0.7-1.7,1.5-2.3,2.4C470.7,24.4,470.7,25.3,470.5,26.5z"/>
<path d="M853.1,33.7c-1.7-0.7-3.8-1.5-5.7-2.4c-1.1-0.5-1.1-1.8-0.8-2.8c1-3,2.1-5.9,3.1-8.8c0.3-0.7,0.8-1.1,1.5-0.7
	c0.4,0.3,0.9,1,0.9,1.5c0,0.8-0.4,1.5-0.6,2.3c-0.5,1.7-0.3,1.9,1.3,2.7c1.3,0.6,2.6,1.4,3.5,2.4c1.2,1.2,1.1,2.8,0.4,4.3
	C856.1,33.5,854.7,33.4,853.1,33.7z M852.6,31.3c0.6-0.3,1.3-0.5,1.4-0.9c0.1-0.4-0.2-1.1-0.6-1.4c-0.8-0.5-1.7-0.9-2.6-1.2
	c-0.3-0.1-0.9,0.2-1,0.4c-0.2,0.4-0.2,1.1,0.1,1.3C850.7,30.3,851.6,30.7,852.6,31.3z"/>
<path d="M585.6,50.9c-0.8-1.4-1.6-2.9-2.5-4.3c-0.2-0.3-0.6-0.6-0.7-1c-0.1-0.5-0.3-1.2,0-1.5c0.5-0.6,1.2-0.3,1.6,0.3
	c2.1,3.2,4,6.4,4.9,10.2c0.9,3.9-1.2,6.5-5.2,6.6c-0.7,0-1.4-0.1-2.2-0.1c-2-0.2-3.1-1-3.5-2.7c-0.4-1.8-0.2-3.5,1.4-4.5
	C581.3,52.9,583.3,52.1,585.6,50.9z M585.5,54c-2.1,0-3.5,0.8-4.7,2.1c-0.8,0.9-0.5,2.4,0.5,2.6c1.4,0.3,3,0.4,4.5,0.1
	c1.2-0.2,1.8-1.9,1.5-3.2C587,54.6,586.4,53.9,585.5,54z"/>
<path d="M859.3,56.8c1.6,0.9,2.8,0.6,3.9,0.2c1.7-0.6,3.4-1.4,5.2-2.1c0.6-0.2,1.6-0.4,2-0.1c0.4,0.3,0.4,1.3,0.3,1.9
	c-0.8,2.5-1.5,4.9-1.5,7.6c0,0.4-0.5,1.2-0.8,1.2c-0.4,0-1.1-0.4-1.3-0.8c-0.3-0.7-0.4-1.6-0.3-2.3c0.1-1.3,0.3-2.5,0.5-4.1
	c-0.9,0.2-1.6,0.3-2.3,0.5c-2.4,0.7-4.8,0.9-7.2,0.7c-1.4-0.1-1.8-0.6-1.4-1.9c0.8-2.6,2-4.9,3.9-6.9c0.4-0.4,1.1-0.3,1.7-0.5
	c0,0.6,0.2,1.2,0,1.7c-0.3,0.8-0.9,1.5-1.3,2.3C860.1,55.1,859.8,55.9,859.3,56.8z"/>
<path d="M336.5,37.3c-0.3-3.6,2.3-5.5,5.4-5.8c0.7-0.1,1.5,0,2.2,0.1c2.8,0.3,4.2,1.8,4,4.6c-0.2,2.2-0.9,4.1-3.1,5.1
	c-0.9,0.5-1.7,1.2-2.7,1.6c-2.8,1.1-5.2-0.3-5.7-3.3C336.5,38.9,336.5,38.1,336.5,37.3z M342,33.5c-0.2,0.1-1.3,0.2-1.5,0.7
	c-0.6,1.4-1,2.9-1.1,4.4c-0.1,1.6,1,2.3,2.6,1.8c0.7-0.3,1.4-0.7,2.1-1.1c1.5-1,2.3-2.5,2-3.8C345.8,34.3,344.6,33.6,342,33.5z"/>
<path d="M740.7,10.3c0.5,0.3,1,0.4,1.4,0.8c1.8,2.1,3.6,4.3,5.3,6.5c0.3,0.4,0.3,1.3,0.1,1.7c-0.3,0.7-1,0.6-1.6,0.2
	c-0.3-0.2-0.6-0.3-0.7-0.3c-2.2,1-4.3,2.1-6.4,3c-1.3,0.6-2.7,0.6-3.8-0.4c-1.3-1.2-1.8-2.7-0.8-4.1c0.8-1.3,1.9-2.6,3.2-3.5
	C739.4,12.3,739.5,12.4,740.7,10.3z M742,14.5c-1.1,0.3-2,0.4-2.6,0.7c-1,0.6-2,1.3-2.8,2.1c-0.7,0.6-0.8,1.5-0.2,2.1
	c0.4,0.4,1.3,0.6,1.9,0.5c2-0.5,3.8-1.5,5.3-3.2C743,15.9,742.5,15.2,742,14.5z"/>
<path d="M198.8,18.1c1.6,2.1,0.7,4.5,1.5,6.9c0.8-0.1,1.7-0.2,2.5-0.3c2.6-0.3,4.9,0.7,5.9,2.7c0.9,1.6,0.7,2.7-0.8,3.8
	c-2.2,1.7-4.8,2.1-7.5,1.6c-1.1-0.2-2-1-2.1-2.1c-0.2-3.9-0.2-7.8-0.2-11.7C198.2,18.7,198.5,18.5,198.8,18.1z M203.9,27.4
	c-0.9,0.1-1.7,0.1-2.3,0.4c-0.5,0.3-0.8,1.1-0.9,1.7c-0.1,0.8,0.5,1.4,1.3,1.4c1.3-0.1,2.7-0.2,4-0.6c1-0.3,1.1-1.5,0.2-2.1
	C205.5,27.8,204.6,27.6,203.9,27.4z"/>
<path d="M693,38c-2.3-1.5-4.5-2.8-7.1-3.6c-0.5-0.1-1-0.1-1.4-0.3c-0.3-0.2-0.7-0.7-0.7-1.1c0.1-0.3,0.6-0.8,1-0.8
	c0.6-0.1,1.3,0,1.9,0.3c3.8,2,7.6,3.9,11.2,6.1c2.6,1.6,2.6,3.3,0.4,5.5c-0.9,0.9-1.9,1.8-2.9,2.5c-1.2,0.8-2.6,1-3.8,0.1
	c-1.1-0.8-1.7-2.7-1-4.2c0.5-1.2,1.3-2.2,2-3.3C692.6,38.9,692.8,38.5,693,38z M692.2,43.1c0,1.4,1.3,2.2,2.5,1.6
	c0.9-0.5,1.7-1.2,2.4-1.9c1-1,0.6-2.3-0.8-2.8C694.9,39.5,692.2,41.5,692.2,43.1z"/>
<path d="M252.9,29.4c-0.5-0.2-0.9-0.3-1-0.5c-0.6-1.7-2-1.8-3.5-1.8c-1.2,0-2.4,0-3.6-0.1c-0.7,0-1.5-0.1-2.1-0.3
	c-2.5-0.7-3.1-2.6-1.4-4.5c1.6-1.7,3.6-3,5.9-3.6c1.8-0.5,3.7-0.8,5.6-1.3C253.3,18.5,253.4,26.4,252.9,29.4z M246.7,24.7
	C246.7,24.7,246.7,24.7,246.7,24.7c0.4,0,0.8,0.1,1.2,0.1c0.4,0,0.8,0.1,1.2,0c1.5-0.1,1.9-0.5,2.1-1.8c0.2-1.7-0.2-2.5-1.6-3
	c-1.7-0.6-5.7,1-6.6,2.6c-0.5,0.9-0.2,1.5,0.8,1.7C244.7,24.7,245.7,24.7,246.7,24.7z"/>
<path d="M400.3,32.4c0.6,1.3,1.1,2.5,1.8,3.9c1.3-0.8,2.4-1.4,3.4-2.1c1.1-0.7,2.1-1.5,3.3-2c1.5-0.7,2.7-0.1,3.1,1.5
	c0.8,2.7-1,6-3.9,7.3c-0.7,0.3-1.4,0.5-2.1,0.7c-2.6,0.7-3.7,0.2-4.8-2.2c-0.7-1.6-1.4-3.3-2-4.9C398.8,33.4,398.8,33.4,400.3,32.4z
	 M409.5,34.9c-2.3,0.4-4.8,2.4-5.4,4.3C407.8,39.8,410.1,38,409.5,34.9z"/>
<path d="M545,41.8c0.2,0,0.5,0,0.7,0c3.5,0.4,3.6,0.6,3.7,4.2c0,1.8,0.4,3.6,0.5,5.5c0,0.4,0,1-0.3,1.2
	c-0.3,0.2-1.1,0.3-1.3,0.1c-1.6-1.9-3.7-1.6-5.8-1.5c-2.6,0.1-4.2-0.9-4.6-2.6c-0.6-2.3,0.7-5.3,2.8-6.1c1.3-0.5,2.8-0.7,4.2-1
	C544.9,41.6,544.9,41.7,545,41.8z M543.9,49.1C543.9,49.1,543.9,49.1,543.9,49.1c0.7,0,1.5,0.1,2.2,0c0.4-0.1,0.9-0.3,1.2-0.7
	c0.7-1.1,0.2-3.3-0.8-4.2c-1.8-1.6-4.8-0.8-5.8,1.6c-0.8,1.7-0.1,3,1.8,3.3C542.9,49.1,543.4,49.1,543.9,49.1z"/>
<path d="M399.7,61.9c0.9-0.6,1.6-1,2.2-1.5c2.2-1.5,4-0.9,6,0.5c1,0.7,1.3,1.9,0.4,3c-1.3,1.6-2.7,3.2-4.3,4.5
	c-1.3,1.1-3.4,0.4-4.3-1.3c-1.2-2.3-2.2-4.6-3.3-7c-0.1-0.1-0.1-0.3-0.1-0.5c-0.1-0.7-0.4-1.6,0.6-1.8c0.4-0.1,1.1,0.5,1.4,1
	C398.8,59.8,399.2,60.7,399.7,61.9z M401.7,65c0.4,0.3,0.9,0.9,1.6,1.1c0.8,0.2,2.6-1.7,2.6-2.5c0-0.8-0.8-1.5-1.6-1.5
	C403.3,62.1,401.7,63.7,401.7,65z"/>
<path d="M296.8,23.2c-1.8-0.6-1.9-1.7-1.9-2.9c0-2.5,0.7-4.8,2.1-6.8c0.5-0.7,1.1-1.4,1.5-2.2c0.5-1.1,0-2.3-1.1-3.1
	c-1-0.7-1.9-0.3-2.5,0.5c-0.6,0.7-1,1.7-1.6,2.4c-0.3,0.4-1,0.6-1.5,0.9c-0.3-0.5-0.8-1.1-0.8-1.6c0.1-1.7,1.3-2.9,2.5-3.9
	c2.2-1.8,3.9-1.9,5.6-0.3c2.6,2.5,2.9,4.5,1.2,7c-1.1,1.5-2.9,2.6-3.1,4.8c-0.1,1.2-0.2,2.4-0.3,3.5C297,21.9,296.9,22.4,296.8,23.2
	z"/>
<path d="M140.8,27.4c1.1-0.3,1.8-0.5,2.4-0.6c1.7-0.3,3.3-0.1,4.4,1.3c1.3,1.6,0.9,3.5,0.1,5.3
	c-0.6,1.5-1.9,2.4-3.6,2.2c-0.2,0-0.5,0-0.7,0c-4.1-0.1-4.9-0.7-5.2-4.8c-0.2-2,0-4,0.2-6c0-0.5,0.7-0.9,1.1-1.3
	c0.4,0.4,0.9,0.8,1.1,1.4C140.8,25.5,140.7,26.3,140.8,27.4z M144.2,33.9c1.5,0,2.5-1,2.5-2.6c0-1.3-0.8-2.1-2.1-2.1
	c-1.7,0-3.4,1.4-3.4,2.8C141.3,33.1,142.5,33.9,144.2,33.9z"/>
<path d="M718.4,22.1c0.4,0.9,0.8,1.6,1.2,2.4c0.9,1.7,1.2,1.8,2.8,1c1.3-0.6,2.5-1.4,3.8-2.1c0-2.4-2.8-3.9-2.1-6.5
	c1.4,0.1,2,1,2.5,1.9c1.7,3,3.3,5.9,6.1,8c0.7,0.5,0.9,1.2,0.4,1.9c-0.6,0.8-1.4,0.8-2.1,0.3c-0.5-0.4-0.9-0.9-1.3-1.4
	c-0.6-0.7-1.2-1.5-1.9-2.4c-1.8,1-3.3,1.8-4.9,2.7c-0.5,0.3-0.9,0.6-1.5,0.8c-1.4,0.6-2.1,0.3-2.7-1c-0.5-1-1-2-1.4-3.1
	C717,23.6,717,22.7,718.4,22.1z"/>
<path d="M456.7,32.6c1-0.7,1.7-1.1,2.4-1.6c2.1-1.6,2.2-1.9,1.3-4.4c-0.3-0.8-1-1.7-0.1-2.9c0.4,0.4,0.9,0.8,1.1,1.2
	c1.6,2.4,3.1,4.9,4.7,7.3c0.9,1.4,1.2,2.4,0.4,2.7c-1.2,0.4-1.7-0.6-2.3-1.3c-0.5-0.6-0.9-1.3-1.3-2.1c-2.1,0.6-3.3,2-4.7,3.6
	c0.4,0.6,0.9,1.1,1.1,1.7c0.2,0.5,0.2,1.3,0,1.5c-0.4,0.3-1.2,0.3-1.7,0.2c-0.3-0.1-0.6-0.5-0.8-0.8c-1.2-1.9-2.4-3.8-3.5-5.8
	c-0.4-0.6-0.7-1.4,0.1-1.9c0.8-0.5,1.4,0.1,1.8,0.7C455.6,31,456,31.7,456.7,32.6z"/>
<path d="M603.4,62c0,0.9-0.1,1.4-0.1,1.9c0,2.6-1.8,2.9-4.1,2.3c-1.2-0.3-2.4-0.9-3.5-1.4c-0.4-0.1-0.8-0.2-1.2-0.3
	c-1.4-0.4-2.1-1.4-2.3-2.8c-0.2-1.3,0.4-2.2,1.4-2.9c2.6-1.7,5.4-2.4,8.4-0.8c0.5,0.3,1,1,1.2,1.7C603.4,60.5,603.3,61.5,603.4,62z
	 M598.1,58.9c-0.8,0.3-1.5,0.3-2,0.7c-0.5,0.4-1.1,1-1.2,1.6c-0.1,0.4,0.6,1.1,1.1,1.3c1,0.3,2.1,1.4,3.1,0.5
	c0.6-0.6,0.8-1.8,0.7-2.6C599.6,59.8,598.7,59.4,598.1,58.9z"/>
<path d="M710.6,26.8c0.6,0.5,1.1,0.9,1.5,1.3c1.6,1.8,3.1,3.7,4.6,5.5c0.6,0.7,1,1.5,0.1,2.5c-1.8-0.9-3.4,0.1-5,1
	c-0.9,0.5-1.8,1-2.8,1.4c-1.4,0.5-2.7,0.2-3.8-0.8c-1.1-1-1.3-2.4-0.9-3.8c0.7-2.5,1.9-4.6,4.3-5.8
	C709.2,27.8,709.7,27.4,710.6,26.8z M714,34c-0.9-1.2-1.5-2.1-2.2-3c-1.1-1.2-3-1.4-4.1-0.3c-0.7,0.8-1.4,1.8-1.7,2.8
	c-0.5,2,0.7,3.2,2.7,2.6C710.4,35.7,712.1,34.8,714,34z"/>
<path d="M367.1,50.1c0.8,0.7,1.6,1.4,2.5,2.3c1-0.8,1.9-1.5,2.9-2.2c2.1-1.5,3.6-1.5,4.6,0c1.3,1.7,1,4.6-0.8,5.6
	c-1.7,0.9-3.6,1.5-5.4,2.1c-0.9,0.3-1.5-0.3-2-1.1c-0.8-1.6-1.7-3.1-2.4-4.7C366.2,51.3,366.1,50.6,367.1,50.1z M372.3,54.2
	c0.2,0.2,0.3,0.4,0.5,0.6c0.8-0.4,1.7-0.6,2.4-1.1c0.3-0.2,0.1-1,0.2-1.5c-0.5,0-1.2-0.3-1.4-0.1C373.3,52.7,372.9,53.5,372.3,54.2z
	"/>
<path d="M894.1,37.2c-0.4,0.7-0.8,1.2-1,1.7c-1.6-0.4-3-0.9-4.4-1.1c-0.6-0.1-1.6,0.2-1.9,0.7c-1,2.1-1.8,4.3-2.6,6.5
	c-0.2,0.6,0.2,1.4,0.3,2.3c-0.6,0.1-1.2,0.2-1.7,0.1c-1.2,0-1.6-0.8-1.3-1.8c0.4-1.5,0.9-3.1,1.5-4.6c1.5-3.6,1.5-3.7-2.1-4.8
	c-0.6-0.2-1.2-0.4-1.8-0.7c-0.3-0.2-0.6-0.7-0.5-1c0.2-0.4,0.6-0.6,1-0.9c0.2-0.1,0.5,0,0.7,0c4.1,1,8.3,2,12.4,3
	C893.1,36.7,893.5,36.9,894.1,37.2z"/>
<path d="M500,5.5c-0.1,0,0.2-0.1,0.3,0.1c1.8,1.9,3.6,3.9,5.3,5.9c0.4,0.4,0.6,1,0.7,1.5c0.1,0.4-0.2,0.9-0.5,1.2
	c-0.1,0.1-0.9,0-1-0.2c-1.1-1.5-2.2-0.7-3.4-0.1c-0.9,0.5-1.8,1-2.8,1.4c-2.5,0.9-4.2-0.4-3.8-3.1c0.2-1.1,0.7-2.3,1.4-3.2
	C497.3,7.8,498.6,6.8,500,5.5z M502.1,11.3c-1.2-1.5-1.4-1.7-2.2-1.5c-0.7,0.2-1.5,0.6-2,1.1c-0.3,0.3-0.3,1.2-0.1,1.7
	c0.1,0.2,1,0.4,1.5,0.2C500.1,12.4,501,11.9,502.1,11.3z"/>
<path d="M894.8,57.4c-1.1,0.1-1.8,0.2-2.4,0.1c-1.3-0.2-1.8-1.1-1.3-2.3c0.4-1,1.2-1.9,1.9-2.8c0.8-0.9,0.9-1.6,0.2-2.6
	c-0.9-1.2-1.8-2.5-2.6-3.7c-0.3-0.4-0.6-0.8-0.9-1.2c-0.5-0.7-1-1.5-0.1-2.1c0.9-0.7,1.7-0.1,2.3,0.7c0.8,1,1.5,2.1,2.3,3.1
	c0.6,0.7,1.2,1.4,2,2.3c0.8-0.8,1.4-1.4,2-2c0.6-0.6,1.1-1.2,1.7-1.7c0.3-0.2,0.9,0,1.3,0c0,0.4,0.1,1-0.1,1.3
	c-0.9,1.1-1.9,2.2-2.8,3.3c-0.8,0.8-1.6,1.6-2.4,2.4C894.5,53.6,893.2,55,894.8,57.4z"/>
<path d="M406.4,4.9c0.5,0.7,0.9,1.3,1.3,2c1,1.7,2,3.3,2.9,5c0.2,0.4,0.3,1,0.3,1.5c0,0.2-0.8,0.2-1.2,0.3
	c-1.2,0.2-2.3,0.3-3.5,0.5c-1.2,0.2-2.3,0.7-3.5,0.9c-1.3,0.2-2.6,0-3.3-1.4c-0.6-1.3-0.4-2.5,0.5-3.6c0.7-0.8,1.5-1.7,2.4-2.3
	C403.5,6.7,404.8,6,406.4,4.9z M407.6,11.2c-0.4-1.2-0.5-2.7-1.9-2.5c-1.2,0.1-2.6,0.8-3.6,1.6c-1,0.8-0.5,1.9,0.9,2.1
	C404.6,12.6,406,12.2,407.6,11.2z"/>
<path d="M260.4,20.3c-0.9,1.6-0.9,3.1-0.8,4.7c0.1,1.1,0.1,2.2,0,3.4c0,0.3-0.5,0.7-0.8,0.7c-0.3,0-0.9-0.3-0.9-0.5
	c-0.2-0.8-0.4-1.6-0.3-2.3c0.2-2.2,0.4-4.5,0.7-6.7c0-0.4,0.1-0.8,0.3-1.2c0.7-2,1.9-2.3,3.4-0.9c2.4,2.1,4.3,4.6,4.9,7.8
	c0.2,0.9,0.5,1.7,0.8,2.5c0.3,0.7,0.4,1.4-0.5,1.5c-0.5,0.1-1.4-0.2-1.6-0.6c-0.4-0.8-0.6-1.8-0.7-2.8c-0.4-2.2-1.7-3.8-3.3-5.2
	C261.3,20.5,260.9,20.5,260.4,20.3z"/>
<path d="M390.8,10.1c0.4,0.6,0.8,1.3,1.1,1.9c1.1,2.2,1.5,4.8,3.5,6.5c0.2,0.2-0.2,1.1-0.3,1.7c-0.5-0.1-1-0.2-1.5-0.3
	c-0.1,0-0.1-0.1-0.2-0.2c-2-2.3-2-2.3-4.6-0.5c-0.6,0.4-1.1,0.9-1.7,1.4c-0.7,0.6-1.2,1.3-0.9,2.3c0.1,0.4,0.1,0.8-0.1,1.2
	c-0.1,0.3-0.6,0.7-0.9,0.7c-0.3,0-0.7-0.4-0.8-0.7c-0.9-3-1.7-6-2.5-9.1c-0.1-0.2-0.1-0.5,0-0.7c0.2-0.3,0.4-0.8,0.7-0.8
	c0.3-0.1,0.8,0.3,0.9,0.5c0.3,1,0.5,2,0.8,3c0.2,0.5,0.4,1,0.6,1.7c2.3-0.3,3.8-1.8,5.5-2.9c0.3-0.2,0.3-1.2,0.2-1.8
	c-0.1-0.7-0.6-1.3-0.8-2c-0.1-0.5,0-1.1,0.1-1.7C390.4,10.2,390.6,10.1,390.8,10.1z"/>
<path d="M488.8,19.1c-0.7,0.5-1.3,0.9-1.9,1.4c-0.8,0.6-1.2,1.3-0.7,2.3c0.5,1,0.2,1.8-0.9,2.8
	c-2.4-2.9-3.7-6.2-4.8-9.7c1.5-0.4,1.9,0.4,2.2,1.2c0.4,0.8,0.8,1.5,1.1,2.3c1.7-0.1,2.5-1.1,3.4-2.1c0.3-0.4,0.3-1.2,0.2-1.8
	c-0.1-0.6-0.6-1.2-0.8-1.7c-0.3-0.7-0.3-0.7,0.6-2.1c2.6,2.6,2.8,6.8,6.2,8.5C491.9,21.8,491.9,21.8,488.8,19.1z"/>
<path d="M423,45.5c1.2,1.1,2,2.5,2.7,4.1c0.5,1.2,1.3,2.4,2.1,3.4c0.4,0.6,0.7,1.1,0.2,1.7c-0.5,0.6-1.6,0.7-2.1,0
	c-0.7-1.1-1.2-2.3-1.8-3.4c-0.4-0.8-0.8-1.5-1.2-2.3c-1.7,0.4-2.8,1.4-3.7,2.4c-0.4,0.4-0.4,1.3-0.2,2c0.1,0.6,0.6,1.1,1,1.7
	c0.3,0.5,0.8,1,0.7,1.5c0,0.6-0.5,1.2-0.8,1.8c-0.5-0.3-1.3-0.4-1.5-0.9c-1.1-2-2-4-3.1-6C417.9,49.4,420.4,47.5,423,45.5z"/>
<path d="M909.8,51.9c-1.2-0.7-2.3-1.2-3.1-1.9c-0.4-0.3-0.4-1.1-0.6-1.6c0.5,0,1.1-0.3,1.6-0.1c2.9,1.1,5.7,2.2,8.5,3.4
	c0.5,0.2,1,0.9,1,1.4c-0.1,0.9-0.9,1-1.7,0.8c-0.9-0.2-1.8-0.6-2.7-0.8c-1.9,2.2-3.3,4.4-3.7,7.1c0,0.3,0,0.7-0.2,0.9
	c-0.4,0.4-1,0.8-1.5,0.8c-0.8,0-1.3-0.7-1.1-1.5c0.3-1.2,0.6-2.3,1.1-3.4C908,55.3,908.8,53.7,909.8,51.9z"/>
<path d="M685.7,50.6c-0.5,0.8-0.6,1.1-0.8,1.2c-2.1,0.6-4.1,1.3-6.2,1.7c-1.3,0.3-1.9-0.5-2-1.8c-0.3-3,3.2-8.2,6-8.9
	c0.5-0.1,1.3,0.2,1.6,0.6c1.5,2.1,2.9,4.2,4.3,6.4c0.2,0.3,0.2,1-0.1,1.3c-0.3,0.3-1,0.3-1.3,0.2c-0.6-0.3-1.2-0.8-1.6-1.4
	c-0.7-1-1.3-2.2-2-3.3c-1.1-1.6-2.3-1.8-3.5-0.3c-0.7,0.9-1.3,2-1.7,3.1c-0.4,1.2,0.3,2,1.7,1.9c0.9-0.1,1.7-0.5,2.6-0.6
	C683.6,50.6,684.4,50.7,685.7,50.6z"/>
<path d="M434.5,41.2c3.6,0.3,5.1,2.8,3.2,5.8c-0.9,1.4-2,2.7-3.2,3.9c-1.2,1.2-2.3,1.1-3.6-0.1
	c-0.4-0.4-0.8-0.8-1.1-1.3c-1.9-2.3-1.6-5.2,1-6.8C431.9,42,433.3,41.7,434.5,41.2z M434.4,43.3c-0.9,0.4-1.8,0.6-2.5,1.1
	c-1.3,1-1.3,2.5-0.1,3.8c1.1,1.2,1.7,1.1,3.1-0.4c0.3-0.4,0.7-0.7,0.9-1.1c0.3-0.6,0.7-1.5,0.4-2C436,44.1,435.2,43.8,434.4,43.3z"
	/>
<path d="M362.6,33.6c-2,0.9-3-0.4-4-1.3c-1.1-0.9-2.2-1.8-3.6-3.1c-0.3,1.3-0.7,2-0.7,2.8c-0.2,1.5-0.1,3.1-0.3,4.6
	c-0.1,1.1-0.5,2-1.9,2.2c-0.2-0.5-0.4-0.9-0.4-1.3c0.3-3,0.6-6.1,1-9.1c0.4-2.8,1.4-3.2,3.6-1.4c2,1.6,3.8,3.5,5.7,5.2
	C362.2,32.6,362.3,33,362.6,33.6z"/>
<path d="M388.9,39.2c-1.5,1.1-2.7,1.9-3.9,2.7c-0.3,0.2-0.8,0.1-1.3,0.1c0-0.4-0.2-1,0-1.3c0.5-0.6,1-1.3,1.7-1.7
	c2.7-1.7,5.5-3.4,8.3-5c0.2-0.1,0.4-0.2,0.7-0.3c0.7-0.3,1.4-0.1,1.5,0.6c0.1,0.4-0.2,1.1-0.5,1.4c-0.8,0.6-1.7,0.9-2.5,1.4
	c-0.9,0.5-1.3,1.2-0.9,2.2c0.6,1.3,1.2,2.6,2,3.8c0.4,0.7,0.7,1.3,0.1,1.9c-0.8,0.7-1.6,0.4-2.1-0.3c-0.5-0.8-0.9-1.7-1.4-2.5
	C390,41.2,389.6,40.4,388.9,39.2z"/>
<path d="M451.6,42.7c-2.7-0.8-4-3.8-7.2-4c0,0.7-0.2,1.4,0,2c0.2,1.1,0.6,2.2,1,3.2c0.4,1.4,0.2,2.5-0.8,2.5
	c-1.3,0.1-1.6-1-1.7-1.9c-0.3-2.1-0.5-4.2-0.7-6.2c0-0.4-0.1-0.8,0-1.2c0.2-1.3,1.2-2.1,2.4-1.5c2.2,1.1,4.5,2.2,6.5,3.6
	C452.3,40,452.3,40.9,451.6,42.7z"/>
<path d="M722.9,66.8c-0.7-1.4-1.3-2.5-1.9-3.6c-2.2-4-4.8-7.8-6.3-12.2c-0.3-0.8-1-1.8,0.1-2.3c1.2-0.6,1.6,0.7,2,1.5
	c1.6,3.1,3.1,6.2,4.7,9.3c0.7,1.4,1.7,2.6,2.4,3.9C724.5,64.5,724.4,65.6,722.9,66.8z"/>
<path d="M180.1,31c-2.8,1.1-5.2,1.8-7.8,1.2c-1.6-0.4-2.5-1.7-2.9-3.3c-0.5-2-0.1-4,1.5-5.3c1.5-1.3,3.4-2.1,5.2-3
	c0.4-0.2,1.1-0.1,1.6,0.1c0.3,0.1,0.7,0.6,0.7,0.8c-0.1,0.4-0.4,0.9-0.7,1.1c-0.6,0.2-1.3,0.1-1.9,0.2c-2.3,0.2-3.9,1.6-4.3,3.8
	c-0.3,1.5,0.1,2.6,1.5,3.1c1.2,0.4,2.6,0.5,4,0.6C177.9,30.4,178.8,30.1,180.1,31z"/>
<path d="M188.8,24.4c-2.1,2.6-1.7,5.8-3.7,7.9c-1.2-0.4-0.9-1.2-0.6-1.9c1.2-2.9,2.1-5.9,2.5-9c0.2-1.4,1.1-1.7,2.2-0.8
	c0.5,0.4,0.8,1,1.2,1.5c1.1,1.7,2.1,3.4,3.1,5.1c0.3,0.5,0.6,1,0.7,1.5c0.1,0.4-0.1,1.1-0.4,1.2c-0.3,0.2-1,0-1.3-0.2
	c-0.7-0.8-1.2-1.7-1.8-2.5C190.2,26.3,189.6,25.5,188.8,24.4z"/>
<path d="M190.2,44.5c1,0.8,0.7,1.7,0.4,2.6c-1.3,4.5-2.7,8.9-4,13.4c-0.1,0.4-0.4,0.9-0.7,1.2c-0.6,0.6-1.5,0.4-1.6-0.5
	c-0.1-0.9,0-1.8,0.2-2.6c1.1-3.4,2.4-6.8,3.5-10.2c0.2-0.7,0.3-1.4,0.5-2.1C188.8,45.5,189.1,44.6,190.2,44.5z"/>
<path d="M434.8,62.8c1.5-0.2,2.2,0.6,2.6,1.7c1.5,4.9,4.7,8.8,7.6,12.8c0.4,0.6,1.1,1,1.6,1.5c0.6,0.6,0.8,1.3,0.2,1.9
	c-0.3,0.2-1.2,0.1-1.6-0.3c-0.6-0.5-1.1-1.2-1.5-1.8c-2.7-4.3-5.4-8.5-8.1-12.8C434.9,64.8,434.2,63.9,434.8,62.8z"/>
<path d="M858.4,34.8c0.3-1,0.4-1.6,0.6-2.2c0.7-2.1,1.4-4.1,2-6.2c0.3-1,0.9-1.6,2-1.2c1,0.4,1,1.2,0.7,2
	c-0.2,0.6-0.5,1.2-0.7,1.8c-0.6,1.7-1.1,3.5-1.6,5.3c-0.1,0.2-0.1,0.5-0.2,0.7c-0.3,0.9-0.9,1.5-1.8,1.1
	C858.9,35.9,858.6,35.2,858.4,34.8z"/>
<path d="M210.6,21.5c0.1-0.3,0.1-0.8,0.3-1.2c0.3-0.7,1.2-0.7,1.5,0c0.3,0.9,0.4,1.9,0.5,2.8c0.2,1.9,0.4,3.8,0.6,5.7
	c0,0.4,0.2,0.8,0.2,1.2c0,0.9-0.3,1.7-1.3,1.8c-1,0.1-1-0.8-1.1-1.5C211.1,27.4,210.8,24.6,210.6,21.5z"/>
<path d="M407.3,53.1c0.6-0.2,1.1-0.4,1.5-0.3c0.4,0.1,0.7,0.6,1,1c1.4,1.9,2.7,3.8,4.1,5.7c0.1,0.1,0.2,0.3,0.3,0.4
	c0.5,0.7,0.4,1.4-0.2,1.9c-0.7,0.6-1.4,0.4-1.9-0.3c-0.9-1.2-1.6-2.4-2.4-3.6c-0.6-1-1.2-2.1-1.8-3.1
	C407.6,54.3,407.5,53.8,407.3,53.1z"/>
<path d="M850.1,77.4c0.5-0.5,0.9-1.1,1.4-1.5c2.1-2.1,4.2-4.2,6.4-6.2c0.3-0.3,0.6-0.7,0.9-0.7c0.4-0.1,0.9,0,1.3,0.2
	c0.1,0.1,0.1,0.8-0.1,1c-2.4,2.5-4.8,4.9-7.3,7.3c-0.5,0.4-1.4,0.4-2.1,0.7C850.3,77.9,850.2,77.7,850.1,77.4z"/>
<path d="M559.4,80.5c0.2-0.8,0.2-1.5,0.5-2.1c1.2-3.4,2.4-6.8,3.6-10.2c0.3-0.8,0.6-1.5,1.9-1.2c0,0.6,0.1,1.2-0.1,1.8
	c-1.2,3.5-2.4,7-3.7,10.4C561.2,80,560.7,80.5,559.4,80.5z"/>
<path d="M151.6,22c0.3,0.3,0.6,0.5,0.6,0.8c0.7,2.8,1.3,5.6,2,8.5c0.1,0.4,0.3,0.9,0.1,1.2c-0.2,0.5-0.6,1.1-1,1.1
	c-0.4,0-1-0.4-1.2-0.9c-0.3-0.7-0.4-1.6-0.5-2.4c-0.3-1.9-0.6-3.8-0.7-5.7C150.9,23.7,150.7,22.8,151.6,22z"/>
<path d="M377.3,43.5c0.2-0.3,0.3-0.7,0.6-0.7c0.3-0.1,0.9-0.1,1.1,0.1c0.4,0.3,0.7,0.9,1,1.3c1,1.7,1.9,3.5,2.9,5.2
	c0.2,0.3,0.4,0.8,0.3,1.1c-0.1,0.5-0.4,1.1-0.8,1.3c-0.4,0.1-1-0.2-1.4-0.5c-0.3-0.3-0.5-0.8-0.7-1.3c-0.8-1.7-1.5-3.3-2.3-5
	C377.8,44.6,377.6,44,377.3,43.5z"/>
<path d="M117.2,136.5c0.8,0.3,1.7,0.5,2.4,1c0.5,0.4,0.9,1.2,0.8,1.8c-0.1,0.6-0.7,1.3-1.3,1.5
	c-1.3,0.6-2.7,0.2-3.9-0.5c-0.9-0.5-0.8-1.5-0.6-2.4C115,136.8,115.9,136.4,117.2,136.5z"/>
<path d="M106.7,134.1c1.8,0.2,2.6,1.2,2.4,2.7c-0.1,1.3-0.8,1.8-2.4,1.7c-0.5,0-1.1-0.2-1.6-0.4
	c-0.8-0.3-1.6-0.5-1.6-1.5c-0.1-1,0.6-1.6,1.4-2C105.6,134.3,106.3,134.2,106.7,134.1z"/>
<path d="M236.7,137.7c-1.4-0.1-2.7-1.1-2.7-2.2c0-1.2,1.6-2.6,3-2.6c1.2,0,2.4,1.4,2.4,2.8
	C239.4,137,238.3,137.8,236.7,137.7z"/>
<path d="M392.5,133.2c1.2,0.1,2.7,1.3,3,2.5c0.2,1,0,1.7-0.9,2.3c-0.8,0.5-1.8,0.6-2.5-0.1c-0.7-0.7-1.3-1.5-1.6-2.3
	C389.9,134.1,390.9,133.1,392.5,133.2z"/>
<path d="M401.6,142.1c-1.3,0-2.5-1-2.5-2.1c-0.1-1.3,1.2-2.5,2.7-2.6c1.3,0,2.6,1.1,2.7,2.3
	C404.5,141,403.1,142.2,401.6,142.1z"/>
<path d="M258.4,135.8c1.6,0,2.3,0.7,2.3,2.1c0,1.6-1.2,2.5-2.9,2.4c-1.4-0.1-2.3-0.8-2.3-2
	C255.5,136.9,256.7,135.7,258.4,135.8z"/>
<path d="M238.7,145.1c-0.7-0.3-1.4-0.6-2-1.1c-0.3-0.2-0.5-0.9-0.4-1.3c0.3-1.4,3.6-2.6,4.7-1.6c1.2,1,1.1,2.6-0.3,3.4
	C240.2,144.8,239.5,144.9,238.7,145.1z"/>
<path d="M85.7,132.9c1.1,0.1,2.1,0.4,2.4,1.6c0.2,0.9-0.4,1.8-1.6,2.4c-0.1,0-0.1,0.1-0.2,0.1c-1.1,0.4-2.7,0.3-3.1-0.5
	c-0.3-0.6-0.3-1.4-0.1-2C83.4,133.3,84.3,132.8,85.7,132.9z"/>
<path d="M536.5,131.3c0.6,0.4,1.5,0.7,2,1.3c0.9,1,0.6,2.3-0.8,2.5c-1.1,0.2-2.3-0.1-3.4-0.3c-0.5-0.1-1.2-0.8-1.2-1.2
	c0.1-0.6,0.6-1.3,1.1-1.6C534.8,131.6,535.6,131.5,536.5,131.3z"/>
<path d="M805.5,142.6c-2.4,1.6-3.4,1.6-4.9,0.3c-1.1-0.9-1.3-1.6-0.7-2.4c0.8-1.1,2.2-1.4,3.1-0.6
	C803.9,140.6,804.6,141.6,805.5,142.6z"/>
<path d="M290.1,134.5c1.4,0.1,2.3,0.7,2.5,1.7c0.1,0.9-0.6,1.8-1.9,2.1c-0.4,0.1-0.8,0.1-1.2,0.1c-1.3-0.1-2.3-1-2.3-2
	c0-0.9,0.9-1.6,2.2-1.8C289.6,134.5,289.9,134.5,290.1,134.5z"/>
<path d="M547.1,134.3c-0.4-0.3-1.3-0.7-1.5-1.3c-0.2-0.5,0.3-1.3,0.7-1.9c0.3-0.4,0.9-0.7,1.4-0.9
	c1.2-0.5,2.6,0.2,2.9,1.5c0.3,1-0.3,1.9-1.6,2.3C548.4,134.1,547.9,134.1,547.1,134.3z"/>
<path d="M246.8,135.4c1.5,0,2.7,0.9,2.7,1.9c0.1,1.1-1.2,2.1-2.5,2c-1.4,0-2.5-1-2.5-2.1
	C244.5,136.1,245.3,135.4,246.8,135.4z"/>
<path d="M99.7,129.4c-1.2,1.7-2.3,2.3-3.7,1.8c-0.6-0.2-1.3-1-1.5-1.6c-0.1-0.5,0.4-1.4,0.9-1.7
	C96.9,126.8,98.6,127.5,99.7,129.4z"/>
<path d="M776.1,147c-1.1,0.1-2.2-0.3-2.5-1.6c-0.1-0.5,0.1-1.3,0.5-1.6c0.8-0.8,2.2-0.7,3.3,0.1c0.8,0.5,1.3,1.2,1,2.2
	C778,147.1,777.1,147.2,776.1,147z"/>
<path d="M648.8,138.9c-1.1-0.5-2-0.8-2.6-1.3c-0.4-0.3-0.9-1.2-0.8-1.5c0.3-0.5,1-1.1,1.6-1.2c0.9,0,1.9,0.3,2.7,0.7
	c0.8,0.4,1.2,1.2,0.8,2C650.1,138.3,649.3,138.6,648.8,138.9z"/>
<path d="M543.2,141.1c-0.1,0.3-0.2,0.9-0.5,1.4c-0.5,1-1.6,1.3-2.4,1c-0.9-0.4-1.2-1.3-0.9-2.4c0.1-0.4,0.3-0.7,0.5-1.1
	c0.4-0.8,0.9-1.7,2-1.4C543,138.9,543.2,139.9,543.2,141.1z"/>
<path d="M275.3,135.7c1.7,0,2.5,0.5,2.5,1.6c0,1.1-1.1,1.9-2.6,1.9c-1.3,0-2.5-0.8-2.5-1.7
	C272.6,136.5,273.7,135.7,275.3,135.7z"/>
<path d="M860.5,134.3c-0.9-0.5-1.9-0.9-2.7-1.6c-1-0.8-0.7-1.7,0.6-2.1c1.2-0.4,3.2,0.2,3.8,1.3
	c0.2,0.3,0.3,1.1,0.2,1.3C861.9,133.7,861.3,133.9,860.5,134.3z"/>
<path d="M225.6,141.8c0.1-0.9,1.6-2,2.8-2c1.1,0,2.1,0.6,2.1,1.5c0,0.5-0.2,1.1-0.5,1.5c-0.8,0.8-3.5,0.5-4.2-0.4
	C225.7,142.1,225.6,141.9,225.6,141.8z"/>
<path d="M551.1,141.2c-1.4,0-2-0.5-2.1-1.5c0-1.2,1.4-2.6,2.7-2.6c1,0,1.7,0.8,1.7,1.9
	C553.4,140.4,552.5,141.2,551.1,141.2z"/>
<path d="M873,129.4c-1-0.7-1.8-1.2-2.4-1.9c-0.3-0.3-0.2-1.1,0-1.5c0.1-0.2,0.8-0.3,1.3-0.3c0.6,0,1.1,0.1,1.7,0.2
	c1.1,0.2,1.6,1,1.2,1.9C874.5,128.4,873.7,128.8,873,129.4z"/>
<path d="M556.1,132.1c0.9-1,1-2.7,2.8-2.3c0.9,0.2,1.5,0.9,1.5,1.9c0.1,1-0.4,1.7-1.3,2
	C557.7,134.3,556.9,133.3,556.1,132.1z"/>
<path d="M355,117.7c0-1.1,0.7-1.9,1.7-2c1.1,0,2.1,1.2,2.1,2.5c0,1-0.7,1.9-1.5,1.9C356.2,120.1,355,118.8,355,117.7z"
	/>
<path d="M516.8,143.8c-1.1,0-1.7-0.7-1.7-1.6c0.1-1.2,1.1-2.2,2.1-2.2c1.2,0,2.2,1,2.1,2.1
	C519.2,143.1,518.1,143.9,516.8,143.8z"/>
<path d="M353.9,124.8c-2.6,1.7-3.5,1.9-5.4,0.8c0.2-1.4,1.2-2.2,2.5-2.5C352.2,122.8,353.4,123.1,353.9,124.8z"/>
<path d="M389.9,144.8c-0.9-0.1-2.1-1.4-2.1-2.3c0-0.8,1.3-1.6,2.4-1.5c1,0.1,2,0.9,2,1.7
	C392.1,143.8,390.9,144.9,389.9,144.8z"/>
<path d="M632.6,136c0.9-0.2,1.7-0.6,2.5-0.6c1.3-0.1,1.9,0.4,1.8,1.6c-0.1,1.4-1,2.2-2.1,2
	C633.4,138.7,632.7,137.8,632.6,136z"/>
<path d="M506,142.9c1.3,0.1,2,0.6,1.9,1.4c-0.1,1-1.5,2.2-2.6,2.1c-1.2,0-1.8-0.8-1.7-1.8
	C503.7,143.4,504.5,142.9,506,142.9z"/>
<path d="M698.6,148.1c0-1,1.2-1.9,2.2-1.9c0.9,0.1,1.9,1.3,1.8,2.2c-0.1,0.8-1,1.6-1.8,1.6
	C699.6,149.9,698.6,149,698.6,148.1z"/>
<path d="M659.3,144.1c1.6,0.2,2.6,0.9,2.5,1.8c-0.1,1-1.4,1.7-2.9,1.4c-1.2-0.2-1.8-0.9-1.6-2
	C657.5,144.4,658.1,144,659.3,144.1z"/>
<path d="M833.1,136c0.5-0.3,1-0.9,1.6-1.1c1.2-0.3,2.9,1,2.8,2.3c0,0.4-0.4,0.9-0.8,1.1c-0.8,0.4-2.9-0.5-3.4-1.4
	C833.3,136.7,833.3,136.5,833.1,136z"/>
<path d="M810.6,136.4c-0.3-0.1-0.9-0.2-1.3-0.5c-0.4-0.3-0.7-0.9-0.7-1.4c0-0.5,0.5-1,0.9-1.3c1-0.6,2.8,0.1,3.3,1.1
	C813.3,135.4,812.3,136.4,810.6,136.4z"/>
<path d="M799.9,135.4c-1.7-0.1-2.6-0.8-2.4-1.7c0.2-0.9,1.7-1.8,2.9-1.7c1,0.1,1.5,0.7,1.4,1.8
	C801.7,135,801.1,135.5,799.9,135.4z"/>
<path d="M790.8,141.9c-0.8-0.3-1.5-0.5-2-0.7c-0.7-0.3-1.4-0.8-1-1.6c0.3-0.5,1.1-0.8,1.7-0.9c0.6-0.1,1.2,0.3,1.8,0.5
	c0.7,0.3,1.7,0.7,1.3,1.7C792.3,141.4,791.3,141.6,790.8,141.9z"/>
<path d="M822.1,135.4c1.3,0.1,2.7,1.4,2.7,2.2c0,0.9-1,1.8-1.9,1.8c-1.1,0-2-1.1-1.8-2.4
	C821.2,136.4,821.8,135.8,822.1,135.4z"/>
<path d="M849.7,137.3c-1.3,0.6-2.2,0.3-3-0.5c-0.6-0.6-0.8-1.5-0.3-2.2c0.3-0.4,1-0.8,1.6-0.8c0.8,0,1.6,0.5,1.7,1.4
	C849.7,135.9,849.7,136.6,849.7,137.3z"/>
<path d="M380.9,135.2c1.5,0.1,2.4,0.8,2.2,1.8c-0.1,0.9-1.1,1.4-2.3,1.2c-0.4-0.1-0.9-0.1-1.1-0.4
	c-0.4-0.4-0.9-1-0.9-1.5c0-0.3,0.7-0.8,1.1-1C380.3,135.2,380.7,135.2,380.9,135.2z"/>
<path d="M840.4,144.6c-0.3-0.4-0.9-0.9-1-1.6c-0.3-0.9,0.9-2.2,1.8-2.2c0.9,0,1.8,0.9,1.9,1.9
	C843,143.7,841.9,144.6,840.4,144.6z"/>
<path d="M528.9,141.7c-0.8-0.1-1.9-1.1-1.8-1.9c0-1,1.1-1.9,2.1-1.8c0.9,0.1,1.6,0.9,1.5,1.9
	C530.6,140.8,529.8,141.7,528.9,141.7z"/>
<path d="M684.4,146.7c1.6-1.8,2.7-2.3,3.7-1.6c0.5,0.4,1,1.2,0.9,1.7c-0.1,0.5-1.1,1.1-1.6,1
	C686.5,147.7,685.6,147.2,684.4,146.7z"/>
<path d="M369.8,130.3c-0.9-0.1-1.5-1-1.3-1.9c0.2-1,0.8-1.6,1.8-1.6c1,0,1.8,1,1.6,2
	C371.8,129.6,370.8,130.4,369.8,130.3z"/>
<path d="M569.5,131.4c1.2,0,1.9,0.6,1.9,1.4c0,0.9-1.1,1.6-2.4,1.5c-1.1,0-1.8-0.7-1.7-1.6
	C567.4,131.8,568.3,131.3,569.5,131.4z"/>
<path d="M858.6,142.5c-0.9,0-2.1-1-2.1-1.7c-0.1-0.7,1.1-1.7,2.1-1.7c0.8,0,1.6,0.9,1.5,1.8
	C860,142,859.5,142.5,858.6,142.5z"/>
<path d="M673.7,141c0.8,0.1,1.7,1.1,1.6,1.8c-0.1,0.9-1.4,1.7-2.4,1.6c-0.8-0.1-1.3-0.6-1.3-1.5
	C671.6,141.9,672.8,140.9,673.7,141z"/>
<path d="M640.1,129.4c1.1,0,2-0.2,2.6,0.1c0.6,0.3,1,1.2,1.1,1.9c0.1,0.3-0.8,0.9-1.3,1.1c-0.8,0.3-1.4,0-1.8-0.8
	C640.5,131.1,640.4,130.4,640.1,129.4z"/>
<path d="M581.4,130.9c0.9,0.1,1.8,1.1,1.7,2c-0.1,0.9-0.9,1.5-1.9,1.4c-1,0-1.7-1-1.7-2
	C579.7,131.5,580.6,130.8,581.4,130.9z"/>
<path d="M815.4,144.4c-0.8-0.8-1.6-1.3-2.2-2c-0.1-0.1,0.1-0.8,0.3-1c0.8-0.7,1.6-0.3,2.5,0c0.7,0.3,1.4,0.8,1.1,1.6
	C816.9,143.5,816.2,143.8,815.4,144.4z"/>
<path d="M365.1,122.9c-1.4,1.8-2.2,2.1-3.1,1.2c-0.8-0.8-0.8-1.8,0-2.5C362.9,120.8,363.8,121.1,365.1,122.9z"/>
<path d="M658.1,138.2c0.3-0.3,0.8-1,1.4-1.2c0.8-0.3,1.9,1.1,1.9,2c0,0.8-0.5,1.3-1.4,1.3
	C659.1,140.3,658.1,139.5,658.1,138.2z"/>
<path d="M293.8,31.2c0.8-0.7,1.3-1.2,1.8-1.4c0.6-0.2,1.7,0.9,1.4,1.5c-0.3,0.5-1,1-1.6,1.1
	C295.1,32.4,294.6,31.7,293.8,31.2z"/>
<path d="M777,149.2c0.4-0.2,0.9-0.3,1.3-0.5c0.1,0.1,0.2,0.2,0.2,0.3c-0.2,0.2-0.3,0.6-0.6,0.7c-0.2,0.1-0.6,0-0.9,0
	C777.1,149.5,777,149.4,777,149.2z"/>
<path d="M425.9,126.5c0.9-2.5,1.5-4.8,2.6-6.9c2.8-5.1,5.8-10,9.6-14.4c1.8-2.1,2.3-2.3,5.7-2.3c0.5,1-0.2,1.5-0.8,1.9
	c-3.5,2.6-6.2,5.8-8.4,9.4c-2,3.3-3.6,6.8-4.8,10.5C429,126.7,428.8,126.7,425.9,126.5z"/>
<path d="M512.3,100.5c1.3,0.6,2.4,1.1,3.5,1.7c4.5,2.4,8.7,5.3,11.8,9.4c0.6,0.7,0.9,1.7,1.2,2.6
	c0.1,0.2-0.3,0.8-0.6,0.9c-0.3,0.1-0.8,0-1.1-0.3c-0.4-0.4-0.7-0.9-1.1-1.3c-2.2-3.2-5.2-5.5-8.6-7.3c-1.3-0.7-2.7-1.5-4-2.2
	C512.2,103.5,511.6,102.5,512.3,100.5z"/>
<path d="M436.2,121.7c0.3-0.7,0.6-1.6,1-2.4c1.4-2.7,2.6-5.5,4.8-7.7c1.3-1.3,2.4-1.7,3.1-1.1c0.7,0.6,0.1,1.3-1.2,2.9
	c-1.4,1.7-2.5,3.7-3.6,5.6c-0.7,1.2-1,2.5-1.5,3.8c-0.3,0.8-0.7,1.2-1.6,1C436.3,123.5,436.1,122.8,436.2,121.7z"/>
<path d="M443.9,123.9c0.7-3.1,2-5.5,3.9-7.5c0.5-0.5,1.2-0.9,1.9-0.4c0.8,0.6,0.5,1.2,0.1,1.9c-1.2,1.9-2.4,3.8-2.8,6.1
	c-0.2,1.1-1.1,1.4-2,1.1C444.5,124.9,444.2,124.2,443.9,123.9z"/>
<path d="M514.2,109.5c3.1,1.8,5.8,3.6,7.8,6.2c0.4,0.5,0.6,1.2,0,1.7c-0.6,0.5-1.1,0.1-1.7-0.3
	c-1.6-1.3-3.2-2.6-4.9-3.8C514.3,112.4,513.8,111.4,514.2,109.5z"/>
<path d="M516.9,118.6c-1.9,2.4-2,2.4-4,0.8c-0.6-0.5-1.3-0.8-1.7-1.4c-0.4-0.7-0.5-1.5-0.9-2.8
	C513.3,115.8,515.3,116.8,516.9,118.6z"/>
<path d="M368,108.4c0.7-2.9,1.3-5.7,3.4-7.5c2.6-2.1,5.6-3.8,8.4-5.6c0.2-0.1,0.5-0.2,0.7-0.2c0.5,0,1.1,0,1.3,0.3
	c0.2,0.3,0.2,1-0.1,1.3c-0.7,0.9-1.4,1.9-2.4,2.3c-3.8,1.6-6.3,4.4-7.9,8.1C370.9,108.5,370.8,108.4,368,108.4z"/>
<path d="M381.5,110.2c0.5-2.6,1-4.9,2.5-6.7c0.7-0.8,1.8-1.3,2.8-1.7c0.3-0.1,0.9,0.1,1.2,0.4c0.2,0.1,0.1,0.9-0.1,1.1
	c-1.8,1.6-2.6,3.8-3.3,6.1C384.2,110.5,382.9,110.2,381.5,110.2z"/>
<path d="M382.8,102.1c-0.4,0.5-0.7,1-1.1,1.4c-1.1,1.3-2.4,2.6-3.5,3.9c-0.6,0.7-1.2,1.1-2.1,0.7
	c-0.9-0.4-0.7-1.2-0.5-1.9c0.2-0.7,0.5-1.4,1-1.9c1.2-1,2.5-2,3.8-2.8c0.5-0.3,1.3-0.1,2-0.2C382.6,101.6,382.7,101.9,382.8,102.1z"
	/>
<path d="M582.4,99.9c0.7,0.3,1.5,0.4,2.2,0.8c3.7,2.6,7.4,5.2,11,7.8c0.7,0.5,1.7,1.2,0.9,2.4c-0.5,0.7-1.8,0.4-2.6-0.7
	c-0.9-1.3-2.1-2.1-3.5-2.8c-2.5-1.4-4.9-3.1-7.3-4.7c-0.6-0.4-0.8-1.4-1.2-2.2C582.1,100.2,582.3,100.1,582.4,99.9z"/>
<path d="M590.9,111.1c-1.9,1.7-2.1,1.7-3.7,0.4c-0.7-0.6-1.4-1.3-2.2-1.8c-1.2-0.9-1.8-2-1.6-3.5
	C585.8,106.2,589.1,108.3,590.9,111.1z"/>
<path d="M585.6,114.5c-2.3,0.4-3.6-0.7-4.9-1.7c-0.6-0.5-1-1.3-0.1-2.3C582.4,111.5,584.2,112.4,585.6,114.5z"/>
<path d="M202.8,99.2c1-0.7,2-0.4,2.9,0.3c4.5,3.7,9,7.6,11.5,13.1c1.3,2.8,2.4,5.6,3.6,8.4c0.3,0.8,0.4,1.7,0.6,2.6
	c0.2,1.1-0.3,1.7-1.4,1.9c-1,0.1-1.7-0.2-1.9-1.3c0-0.1,0-0.2,0-0.2c-0.8-6.8-4.6-12-8.8-17.1c-1.6-2-3.3-4-5.5-5.3
	C202.9,101,202.5,100.2,202.8,99.2z"/>
<path d="M118.6,117.6c0.8-2,1.5-3.9,2.3-5.6c2.3-4.9,5.3-9.4,9.7-12.7c0.3-0.2,0.5-0.4,0.7-0.6c1.2-0.9,2.3-1,2.8-0.3
	c0.6,0.7,0.2,1.6-0.9,2.6c-4.9,4.2-8.4,9.3-10.5,15.4c-0.3,0.9-0.9,1.8-1.6,2.6c-0.3,0.3-1.3,0.4-1.7,0.1
	C118.9,118.8,118.8,118,118.6,117.6z"/>
<path d="M213.6,123.9c-2.9,0.1-3.2-0.2-3.7-2.4c-0.6-2.8-1.8-5.5-3.5-7.8c-0.5-0.7-1-1.5-1.2-2.3
	c-0.2-0.9,0.7-1.6,1.5-1.1c0.7,0.4,1.5,1,1.9,1.7c1.5,2.3,2.9,4.6,4.2,7C213.7,120.6,213.5,122.2,213.6,123.9z"/>
<path d="M135,107.4c-0.3,0.7-0.6,1.3-0.9,1.8c-1.1,1.8-2.3,3.5-3.4,5.3c-0.1,0.2-0.2,0.4-0.4,0.6
	c-0.6,0.7-1.2,1.4-2.2,0.9c-0.9-0.5-0.7-1.3-0.5-2.1c0.7-3.1,2.5-5.5,4.8-7.6c0.4-0.4,1.3-0.6,1.7-0.4
	C134.5,106,134.7,106.8,135,107.4z"/>
<path d="M207,121.7c-2.9,0.7-3.6,0.4-4.5-1.5c-0.5-1.2-1-2.4-1.3-3.6c-0.1-0.5,0-1.4,0.2-1.5c0.5-0.2,1.2-0.1,1.8,0
	c0.3,0,0.5,0.4,0.7,0.6C205.5,117.4,206.1,119.5,207,121.7z"/>
<path d="M134.6,116.9c0.1-0.7,0-1.6,0.3-2.4c0.5-1.2,1.3-2.4,2-3.5c0.4-0.6,1-1.3,1.7-0.8c0.6,0.4,1,1.3,1.1,2
	c0.2,1.5-2.9,4.8-4.5,5C135.2,117.3,135.1,117.1,134.6,116.9z"/>
<path d="M276.1,93c0.9,0.2,1.6,0.2,2.2,0.5c7.8,3.6,14.1,9,18.6,16.4c0.5,0.8,0.6,1.8,0.6,2.7c0,0.5-0.7,1.4-1,1.3
	c-0.6-0.1-1.3-0.6-1.6-1.1c-0.6-0.9-0.8-2.1-1.4-3c-3.7-5.1-8.2-9.4-13.9-12.5C277.9,96.5,276.4,95.6,276.1,93z"/>
<path d="M289.8,114.2c-0.4-0.3-0.8-0.4-0.9-0.8c-1.5-2.7-3.7-4.6-5.9-6.7c-0.3-0.3-0.7-0.7-0.9-1.1
	c-0.1-0.5-0.2-1.2,0-1.5c0.2-0.3,1-0.1,1.5-0.1c0.1,0,0.3,0.1,0.4,0.2c2.4,2.1,5,4.1,6.7,6.9c0.3,0.6,0.3,1.5,0.2,2.2
	C290.9,113.6,290.2,113.9,289.8,114.2z"/>
<path d="M283.6,114.8c-1.4,0.1-5.4-3.9-5.3-5.3c0-1.2,1-1.9,1.9-1c1.5,1.3,2.9,2.8,4.1,4.3
	C285,113.8,284.5,114.8,283.6,114.8z"/>
<path d="M765.5,88.5c1.5-0.8,2.9-0.1,4,0.7c2.2,1.6,4.4,3.3,6.5,5.1c2.8,2.4,4.9,5.3,6.8,8.5c1.8,3,3.5,6.2,5.1,9.3
	c0.5,1,0.9,2.1,1.1,3.2c0.2,1.1-0.5,1.8-1.5,1.8c-1,0-1.2-0.7-1.1-1.5c0.3-2.4-1.3-4.1-2.2-6c-0.8-1.7-1.6-3.5-2.7-5.1
	c-1.6-2.3-2.9-4.8-5.1-6.6c-2-1.6-3.8-3.5-5.7-5.2c-1-0.9-2.3-1.4-3.5-2.1C766.4,90.1,765.4,89.8,765.5,88.5z"/>
<path d="M675.5,104.7c0,0.9,0.3,1.6,0,2c-0.5,1-1.1,2.1-1.9,2.7c-3.5,2.6-4.9,6.4-6.5,10.2c-0.1,0.3-0.2,0.6-0.3,0.9
	c-0.3,0.9-1,1.3-1.9,1.1c-0.9-0.3-0.8-1.1-0.6-1.8c0.9-3.4,2.3-6.5,4.7-9.2c1.6-1.7,3.2-3.4,4.9-5
	C674.2,105.3,674.7,105.1,675.5,104.7z"/>
<path d="M765.5,96.5c1.5-0.9,2.4-0.3,3.1,0.4c1.6,1.5,3.2,3,4.5,4.7c2.3,3,4.5,6.1,6.6,9.2c0.8,1.2,1.2,2.6,1.6,4
	c0.1,0.4-0.1,0.8-0.3,1.5c-1.7-1.2-1.7-3.1-2.7-4.4c-1-1.3-1.8-2.8-2.8-4.2c-0.9-1.3-1.9-2.6-2.8-3.9c-1-1.3-2-2.7-3.2-3.9
	C768.4,98.7,767,97.7,765.5,96.5z"/>
<path d="M672.1,120.5c-0.4-3.4,3.8-10,6.8-10.7c0.7,0.7,0.2,1.3-0.2,1.9c-1.4,2.6-2.9,5.1-4.3,7.7
	C673.8,120.4,673.3,120.9,672.1,120.5z"/>
<path d="M765.2,102c1.3-0.3,2.2,0.1,2.9,0.9c1.2,1.2,2.3,2.5,3.2,3.8c1.2,1.8,2.3,3.7,3.3,5.6c0.4,0.6,0.5,1.4,0.4,2.3
	c-2.3-1.7-3.2-4.3-4.8-6.4C768.7,106.1,767,104.1,765.2,102z"/>
<path d="M677.4,121.4c-0.3-1.8,1-3,1.5-4.5c0.3-0.7,0.7-1.4,1.2-2.1c0.8-1.1,1.3-1.2,2.4-0.6c1.1,0.6,0.7,1.5,0.4,2.3
	c-0.1,0.3-0.3,0.5-0.5,0.8c-0.7,1-1.4,2-2,3C679.7,121.5,678.8,121.9,677.4,121.4z"/>
<path d="M851.3,112.1c-1.6,0.1-2.2-1-2.2-2.1c-0.1-3.3-1.7-5.9-3.6-8.5c-2-2.7-3.7-5.6-5.6-8.4
	c-0.7-1.1-1.5-2.1-2.4-3.3c1.5-0.6,2.2,0.2,2.8,0.9c1.9,2.4,3.9,4.7,5.6,7.2c1.9,2.9,3.5,5.9,5.2,9C852,108.9,852,109.5,851.3,112.1
	z"/>
<path d="M845.7,109.4c-0.8,0.5-1.3,0-1.6-0.5c-1.1-1.6-2.3-3.3-3.4-5c-1-1.5-1.9-3-2.8-4.5c-0.3-0.4-0.3-1-0.6-1.9
	c0.8,0.2,1.5,0.2,1.8,0.5c2.8,3.2,5,6.9,6.8,10.7C845.9,109,845.8,109.2,845.7,109.4z"/>
<path d="M833.8,102.2c2.6,1.4,5.5,7,5.4,9.7c-1.5-0.3-2-1.7-2.4-2.7C835.9,107,834,105.2,833.8,102.2z"/>
</svg>
