<?xml version="1.0" encoding="utf-8"?>
<!DOCTYPE svg PUBLIC "-//W3C//DTD SVG 1.1//EN" "http://www.w3.org/Graphics/SVG/1.1/DTD/svg11.dtd">
<svg version="1.1" id="stones-meat-talks" xmlns="http://www.w3.org/2000/svg" xmlns:xlink="http://www.w3.org/1999/xlink" width="1000" height="333" viewBox="0 0 1000 333">
<style type="text/css">
<![CDATA[
	.face-a { fill:#DBE6EC; }
	.face-e { fill:#81A8B8; }
	.face-b { fill:#A4BCC2; }
	.face-c { fill:#A4BCC2; }
	.face-d { fill:#81A8B8; }
]]>
</style>
<path d="M639.5,281.7c-0.1-3.6-0.4-7.2-0.3-10.8c0.1-8.1,2.1-15.7,7.3-22.1c1.1-1.4,2.8-2.5,4.3-3.6
	c1.6-1.2,3.3-2.2,4.9-3.3c0.6-0.4,1.3-0.9,2-1.2c5.6-1.9,11.3-3.5,17.3-3.6c4.1-0.1,8.2,0.1,12.3,0.8c1.3,0.2,2.7,0.6,4,1
	c1.4,0.4,2.8,1.1,4.2,1.3c4.2,0.7,7.8,2.7,11.1,5.2c1,0.7,2,1.3,2.9,2.1c2.6,2.2,5.5,2.2,8.5,1.5c0.7-0.2,1.5-0.6,1.9-1.2
	c5.2-6.9,11.6-12.7,17.8-18.6c5.8-5.6,12.4-10.2,19.7-13.4c3.5-1.6,7.6-2,11.5-2.4c13.5-1.5,26.9,0.1,40.3,1.5
	c7,0.8,13.6,3,19.9,5.9c3.1,1.5,5.9,3.8,8.6,6c5.3,4.1,10,8.9,14.6,13.7c3.3,3.5,5.9,7.4,7.4,11.9c0.8,2.4,1.3,4.8,1.8,7.2
	c1.2,6.2,2.1,12.4,1,18.7c-0.2,1.3-0.4,2.6-0.3,3.8c0.3,4.1-1.5,7.5-3,11c-0.5,1.2-1.6,2.4-2.7,2.9c-2.4,1.2-4.9,2.2-7.5,2.7
	c-5.9,1.1-11.9,1.8-17.8,2.7c-5.3,0.8-10.7,1.8-16,2.6c-2.3,0.3-4.6,0.5-6.9,0.5c-5.1,0-10.1,0.6-15.1,1.3
	c-4.6,0.7-9.2,0.9-13.9,0.9c-8.6,0.1-17.2-0.1-25.7-0.2c-4.3,0-8.6-0.1-12.9,0c-6.6,0.2-13.2,0.5-19.8,0.7c-2.2,0.1-4.5-0.1-6.7-0.1
	c-1.5,0-3.1,0-4.6,0.2c-3.4,0.4-6.4-0.5-8.7-3c-2.8-3-6.2-3.9-10.1-3.4c-6.9,0.8-13.9,0.4-20.8,0.1c-6.1-0.3-12-1.4-18.1-2.1
	c-4.2-0.5-8-2-10.8-5.4c-0.7-0.8-1.3-1.9-1.4-2.9c-0.4-3-0.5-6-0.7-9C639.2,281.7,639.4,281.7,639.5,281.7z M860.9,273.6
	c-0.6-6.8-0.7-14.5-4.8-21.5c0-0.1-0.1-0.2-0.1-0.2c-1-4-3.2-7.2-5.9-10.1c-3.6-3.8-7.5-7.3-11.3-10.9c-4.7-4.4-9.9-8.3-16.2-10.3
	c-3.4-1.1-6.7-2.8-10.3-3.1c-4-0.4-8-1-12-1.3c-6.4-0.5-12.9-1-19.3-1.1c-4.6-0.1-9.3,0.3-13.9,0.8c-5,0.5-9.8,1.9-13.9,4.9
	c-3.6,2.6-7.2,5.2-10.4,8.4c-2.5,2.5-5.3,4.6-7.9,6.9c-1.7,1.5-3.2,3.1-4.8,4.7c-1.7,1.7-3.3,3.5-4.9,5.3c-0.5,0.6-0.9,1.2-1.4,1.8
	c-1.1,1.4-2.1,2.9-3.2,4.3c-0.6,0.7-1.2,1.4-1.9,2.1c-0.9,1-1.8,2-2.8,3c-1,1-2.2,1.7-2.9,2.9c-3.3,5.6-6.7,11.2-9.2,17.3
	c-0.9,2.3-1.7,4.7-2.8,6.9c-1.8,3.9-2.2,7.9-1.8,12.1c0.2,2.2,0.9,4.3,2.9,5.5c1.4,0.8,2.9,1.6,4.5,1.9c3.9,0.6,7.8,1.2,11.8,1.3
	c3.9,0.2,7.9-0.2,11.8-0.3c1.6,0,3.3,0.1,4.9,0c5.1-0.3,10.1-1,15.2-1c6.6,0,13.2,0.6,19.8,0.7c6.4,0.1,12.9,0.5,19.3-0.5
	c3.4-0.5,6.8-0.9,10.2-1.2c3.3-0.3,6.7-0.2,10-0.6c8.3-1.1,16.5-2.4,24.7-3.5c4.9-0.7,9.7-2,14.7-2.4c5.6-0.4,10.2-5.1,10.8-10.2
	C860.3,282.3,860.5,278.4,860.9,273.6z M696.7,297.9c0-0.9,0.1-1.6,0-2.3c-0.7-5.1,0.7-9.6,2.7-14.2c2-4.5,3.8-9.1,6.5-13.4
	c2.5-4,4.4-8.3,7.5-12c1.5-1.8,1.4-2.3-0.6-3.7c-3.3-2.3-6.6-4.7-10-6.9c-1.4-0.9-3-1.6-4.6-2.1c-2.7-0.9-5.4-1.8-8.2-2.4
	c-3.4-0.7-6.9-1.3-10.4-1.5c-6.6-0.4-13,0.7-19.2,2.9c-5.5,1.9-10.2,4.9-13.5,9.7c-4.1,6.1-5.5,12.9-5,20.1c0.1,1.1,0.3,2.2,0.3,3.3
	c0,4.3,0.1,8.6,0.1,12.9c0,2.5,0.9,4.4,3,5.6c1.4,0.8,2.9,1.5,4.5,1.8c5.1,0.9,10.2,1.5,15.3,2.2c3.3,0.4,6.7,1.1,10,1.1
	c6.9-0.1,13.7-0.5,20.6-0.8C695.8,298.2,696.1,298.1,696.7,297.9z"/>
<path d="M548.2,271.2c-7-0.2-12.6,1-18.1,2.6c-2.8,0.8-4.9,2.3-5.6,5.4c-0.7,2.9-2.6,4.7-5.5,5.9
	c-6,2.5-12.3,2.9-18.7,3.3c-0.3,0-0.7,0-1,0.1c-3.8,1.2-7.8,0.8-11.7,1.4c-0.3,0-0.5,0-0.8,0c-5.8-0.1-11.7-0.2-17.5-0.2
	c-3.1,0-6.2,0.3-9.3,0.4c-5.3,0.3-10.6,0.3-15.9,0.8c-5.4,0.5-10.7,1.3-16.1,2c-1.4,0.2-2.9,0.2-4.4,0.3c-2.6,0.2-5.1,0.6-7.7,0.7
	c-3,0.1-6,0.1-9,0.1c-0.6,0-1.2-0.1-1.8-0.1c-12,0.3-24,0.5-36,0.8c-2.7,0.1-5.3,0.4-8,0.2c-3.2-0.2-6.3-0.4-9.4-1.1
	c-1.7-0.4-3.2-1.6-4.7-2.6c-0.3-0.2-0.5-0.7-0.6-1.1c-0.1-0.4-0.2-0.9-0.2-1.3c0.4-5-1.2-9.7-1.9-14.5c-0.4-2.4,0-4.6,0.9-6.8
	c0.8-1.7,1.8-3.3,2.4-5.1c1.5-4.2,2.9-8.4,4.3-12.7c2.1-6,5.3-11.2,10.3-15.4c2.3-2,4.8-3.6,7.5-4.9c2.1-1,4.4-1.3,6.6-1.9
	c5.4-1.5,10.7-3,16.1-4.4c2.7-0.7,5.5-1.1,8.3-1.8c3.7-0.9,7.4-2.1,11.2-2.9c3.7-0.8,7.4-1.3,11.2-1.7c1.4-0.2,3-0.1,4.4,0.2
	c8.5,1.9,16.9,3.9,25.3,5.9c2.8,0.7,5.6,1.8,8.4,2.5c1.9,0.5,3.8,0.8,5.8,1.1c5.4,0.8,10.8,1.5,16.4,0.7c5.4-0.8,10.6-2.1,15.9-3.3
	c0.6-0.1,1.1-0.5,1.7-0.7c4.2-1.6,8.4-3.5,12.8-4.7c4.8-1.3,9.8-1.4,14.8-1c1.9,0.1,3.7,0.5,5.6,0.6c3.3,0.2,6.1,1.5,9,2.9
	c4.5,2.2,8.9,4.5,13.4,6.6c5.6,2.7,10.2,6.6,14,11.4c2.3,3,4.4,6.1,6.5,9.2c1.7,2.5,3.6,4.8,5.3,7.3c0.5,0.8,0.8,1.7,1.1,2.6
	c0.8,2.2-0.1,3.7-1.7,5.3c-2.2,2.2-5,2.8-7.7,3.8c-3.6,1.4-7.4,2.1-11.3,2.4C557.7,270.1,552.4,270.8,548.2,271.2z M419.7,218.5
	c-2.1,0.4-4.2,0.7-6.2,1.1c-2.1,0.5-4.1,1.1-6.2,1.6c-4.2,1-8.5,2-12.7,3c-1.7,0.4-3.2,1.1-4.9,1.6c-4.9,1.3-9.8,2.3-14.7,3.7
	c-5.7,1.6-10.5,4.7-13.7,9.8c-2.1,3.3-4.2,6.7-6.1,10.1c-0.7,1.3-1.2,2.7-1.6,4c-1.4,5-2.5,10-5.1,14.5c-2,3.5-1.8,6.9-0.1,10.3
	c1.4,2.9,2.8,5.9,3.5,9.1c0.7,3.4,2.4,4.9,5.8,5.1c2.1,0.2,4.3,0,6.4,0c1.4,0,2.7-0.1,4.1-0.1c6.9-0.1,13.7-0.1,20.6-0.3
	c4.9-0.1,9.8-0.3,14.7-0.5c5.1-0.2,10.3,0,15.4-0.5c8.9-1,17.8-1.5,26.6-3.1c8-1.4,16.3-1,24.4-0.8c2.3,0.1,4.6,0.2,6.9,0.2
	c2.1,0,4.1-0.3,6.2-0.2c5.4,0.1,10.8-0.3,16.2-1c3.2-0.5,6.5-0.7,9.7-1c0.7-0.1,1.4-0.1,2-0.3c2.3-0.7,4.6-1.4,6.9-2.1
	c3.5-1,4.7-2.7,4.1-6.3c-0.8-4.6-1.9-9.2-3-13.8c-0.3-1.3-0.9-2.6-1.7-3.7c-2-2.8-4.1-5.5-6.2-8.2c-0.8-1.1-1.9-2-2.8-3
	c-2.3-2.5-4.5-5-6.8-7.4c-1.2-1.2-2.3-2.6-3.8-3.4c-4.5-2.8-9.7-3.8-14.8-4.9c-6.1-1.2-12.1-2.4-18.1-3.9c-7.5-1.9-14.9-4-22.4-6
	c-1.7-0.4-3.4-0.5-5-1.2c-2.6-1-5.3-1.6-8-1.9C426.2,219,423,218.8,419.7,218.5z M489.4,230.7c0,0.2,0,0.4,0,0.6
	c1.4,0.4,2.7,0.9,4.1,1.3c3.9,1.2,7.1,3.3,9.5,6.6c2,2.8,4.1,5.5,6.9,7.6c0.6,0.4,1.1,1.1,1.6,1.7c1.4,1.6,2.8,3.2,4.3,4.7
	c2.5,2.4,4.2,5.2,4.7,8.7c0.2,1.6,0.7,3.2,1.1,4.8c0.4,1.8,1.6,2.6,3.2,2.8c0.8,0.1,1.5,0.1,2.3,0.1c5.2-0.1,10.5,0.1,15.7-0.5
	c6.2-0.8,12.4-1.2,18.7-1.5c6.8-0.3,12.6-2.9,17.7-7.3c-0.2-2.8-0.6-4-2.8-8.2c-2.6-4.9-6-9.2-9.4-13.5c-2.8-3.5-6.2-6-10.2-8
	c-4.7-2.3-9.2-5-13.8-7.3c-1.6-0.8-3.4-1.3-5.1-1.8c-1.1-0.3-2.2-0.6-3.2-0.9c-3.9-1.2-8-1.8-11.9-1.4c-7.2,0.6-14.3,2-20.7,5.5
	c-0.5,0.3-1.1,0.4-1.7,0.6C496.7,227.1,493.1,228.9,489.4,230.7z"/>
<path d="M248.3,303.1c-1.8-0.2-3.6-0.5-5.4-0.5c-3.7,0-7.4,0.2-11,0.4c-3.3,0.2-6.6,0.8-10,0.9
	c-3.9,0.2-7.7,0.1-11.6,0.2c-1.4,0-2.9,0.2-4.3,0.5c-7.5,2-15.2,2.9-22.9,3.1c-7.7,0.2-15.5,0.6-23.2,0.9c-3.1,0.2-6.1,0.6-9.2,0.9
	c-8.4,1-16.8,0.2-25.2-0.7c-4.4-0.4-8.7-1-13.1-1c-7.2-0.1-13.9-2.1-20.4-5c-3.5-1.5-4.6-5-2.9-8.3c1.2-2.4,2.3-5,3.6-7.4
	c0.9-1.6,2.1-3.1,3.2-4.7c0.6-0.9,1.2-1.9,1.7-2.9c1.8-3.7,3.9-7.3,6.8-10.3c0.2-0.2,0.5-0.5,0.7-0.8c1.9-4,5.3-6.4,8.6-9.1
	c3.7-3,7.6-5.7,10.7-9.2c3-3.3,6.1-6.4,9.2-9.6c4.7-4.8,9.6-9.3,14.7-13.7c2.1-1.8,4.7-3.1,7.1-4.6c4.3-2.7,8.9-4.8,12.8-8
	c4.6-3.8,9.4-7.2,14.1-10.8c1.6-1.3,3.2-2.7,4.8-3.9c5.4-4.1,10.5-2.9,14.4,0.1c6.9,5.3,14.2,10.3,21.3,15.4c5,3.6,10.1,7,14.4,11.6
	c1.7,1.9,3.4,3.9,5,5.9c1.1,1.4,2.1,2.9,3.3,4.3c2.3,2.6,3.9,5.6,5.1,8.9c1.7,4.8,3.3,9.6,5,14.4c1.1,3.2,2.1,6.5,3.3,9.7
	c1.8,5.1,3.8,10.1,5.7,15.2c2.2,5.7-0.1,12.2-5.8,14.7c-1,0.5-2.1,0.9-3,1.4C253.4,302.6,251,303.3,248.3,303.1z M243.3,300
	c2.6,0,4.3-0.1,6,0c3.6,0.3,6.8-1.1,9.8-2.7c3.7-2.1,4.9-5.5,3.6-9.5c-0.6-1.9-1.3-3.7-1.9-5.6c-2.4-6.6-4.7-13.3-7.1-19.9
	c-0.8-2.3-1.9-4.5-2.3-6.8c-0.3-2.1-0.8-4-1.9-5.8c-1.1-1.9-2.3-3.8-3.4-5.7c-3.1-5.2-6.2-10.3-10.3-14.8c-2.6-2.9-5-6-8.3-8.3
	c-6.1-4.3-12-8.9-18.1-13.2c-4.2-3-8.3-6.4-13.2-8.5c-2.1-0.9-3.9-1-5.8,0.5c-1.6,1.3-3.2,2.5-4.8,3.8c-3.4,2.8-6.9,5.7-10.3,8.5
	c-3.6,3-7.1,6.2-11.5,8.2c-3.1,1.5-6.1,3.1-9,4.9c-4.9,3-9,6.8-13.2,10.7c-3.7,3.4-7.3,6.8-10.6,10.5c-4,4.5-8.1,8.8-12.8,12.6
	c-1.1,0.9-2.3,1.8-3.4,2.7c-3.5,2.6-6.5,5.6-8.6,9.4c-2.5,4.6-5.5,8.9-8.6,13.1c-1.9,2.5-3.5,5.3-5.1,8c-0.6,1-0.7,2.3-0.8,3.5
	c-0.2,1.8,0.5,3.1,2.1,4.1c1.9,1.2,3.6,2.5,5.5,3.8c0.4,0.3,0.9,0.6,1.4,0.7c3,0.5,5.9,1.4,8.9,1.4c6.3,0.1,12.5,1,18.7,1.7
	c7.8,0.8,15.6,1.4,23.4,0.1c1.1-0.2,2.2-0.3,3.3-0.4c10.5-0.5,20.9-0.8,31.4-1.4c4.4-0.3,8.9-0.4,13.3-1.7c2.8-0.8,5.7-1.6,8.6-1.8
	c5.1-0.4,10.3-0.3,15.4-0.4c1.9-0.1,3.8,0.1,5.6-0.3C234.2,300.3,239.1,299.3,243.3,300z"/>
<path d="M378.6,115.3c1.8,0.5,3.6,0.6,5,1.4c2.9,1.6,2.9,4.5,0,6.3c-1.9,1.2-4,2.1-6.3,2.1c-1.7,0-3.4,0.1-5.2,0.1
	c-1.2,0-2-0.5-2.1-1.8c-0.2-2-0.5-4.1-0.8-6.1c-0.3-2.2,0.5-3.8,2.7-4.7c1-0.4,1.9-1.1,2.9-1.6c2.2-0.9,3.6,0,3.6,2.3
	C378.6,114.1,378.6,114.9,378.6,115.3z M375.9,123.7c0,0.1,0.1,0.2,0.1,0.3c2-0.5,4-0.9,5.9-1.5c1.1-0.4,2.2-1.2,2.1-2.6
	c0-1-1.6-2.1-3.1-2.3c-0.4-0.1-0.9-0.1-1.3,0c-2.1,0.5-4.3,1-6.4,1.6c-1,0.3-2,0.6-1.8,2c0.2,1.6,1.1,2.4,2.7,2.5
	C374.7,123.7,375.3,123.7,375.9,123.7z M371.1,117.5c2.1,0.2,2.8,0.1,4.3-1.1c1.5-1.1,2.1-2.3,1.5-3.1c-0.5-0.7-1.7-0.7-3.3,0.3
	C372.2,114.5,370.6,115.3,371.1,117.5z"/>
<path d="M498.4,40.1c-0.5,0-1,0-1.5,0c-1.3,0.1-2-0.5-2.3-1.9c-0.4-2.4-1-4.7-1.5-7c-0.1-0.3-0.3-0.7-0.2-1
	c0.2-1.8,1.6-2.8,3-3.6c1.4-0.9,3-1.3,4.6-0.6c0.5,0.2,0.8,1.1,0.8,1.7c0.1,0.6-0.2,1.3-0.4,2c-0.3,1.7,0.4,2.6,2,2.9
	c0.3,0,0.5,0,0.8,0.1c1.5,0.3,2.6,1.3,2.8,2.6c0.2,1.2-0.6,2.8-2,3.3c-2,0.7-4,1.3-6.1,1.9C498.5,40.3,498.5,40.2,498.4,40.1z
	 M496.4,35.8c0,2.9,0.2,3.1,2.8,2.8c1.2-0.1,2.5-0.5,3.7-1c0.8-0.3,1.8-0.8,1.4-1.8c-0.3-0.6-1.2-1.4-1.8-1.4
	C500.4,34.5,498.2,34.3,496.4,35.8z M495.5,33.3c2.1-0.6,3.2-2.2,4.1-3.9c0.2-0.4,0.2-1.3-0.1-1.6c-0.3-0.3-1.1-0.3-1.6-0.2
	C495.6,28.4,494.9,30,495.5,33.3z"/>
<path d="M321.5,84.5c-0.8-2.1-0.6-4.3-1-6.5c-0.1-1-0.1-2.1-0.4-3c-0.4-1.3,0-2.1,1.1-2.8c1.8-1.2,3.9-1.8,6.1-1.8
	c2.2,0,3.5,1.5,3,3.7c-0.2,0.7-0.4,1.5-0.6,2.4c1.2,0.2,2.3,0.4,3.4,0.6c0.8,0.2,1.5,0.2,2.2,0.5c1.2,0.6,1.6,1.7,0.7,2.7
	c-1,1-2.2,1.8-3.4,2.5c-0.6,0.3-1.3,0.4-2,0.5C327.5,83.8,324.6,84.1,321.5,84.5z M334.5,79.6c-0.2-0.2-0.2-0.4-0.4-0.5
	c-0.4-0.2-0.8-0.3-1.2-0.5c-3.3-0.9-6.4-0.4-9.2,1.5c-0.4,0.3-1,0.8-1,1.2c0,0.9,0.8,0.9,1.5,0.9c2,0,3.9,0,5.9-0.2
	C331.8,81.9,333.5,81.3,334.5,79.6z M322.1,78.9c2.9,0,4.2-1.9,5.8-3.2c1-0.9,0.8-3,0-3.5c-1.8-1.1-6.2,0.8-6,2.8
	C321.9,76.3,322,77.5,322.1,78.9z"/>
<path d="M464.8,60c-0.4-1.6-0.7-2.9-1-4.2c-0.2-1-0.1-2,1.1-2.2c3.2-0.6,6.4-1.2,9.5-1.8c0.3,1.8,0.3,1.8-1.2,2
	c-2,0.4-4,0.9-6,1.3c-1.2,0.3-1.7,1.1-1.4,2.3c0.4,1.5,0.8,3,1.2,4.5c0.9,3.6,0.3,5-3,6.7c-1.4,0.7-2.8,1.3-4.3,1.7
	c-1.5,0.4-2.9,0.1-3.9-1.3c-0.9-1.3-0.6-2.6,0.1-3.9C457.9,62,460.7,60.2,464.8,60z M460,69.1c1.7-0.8,3.4-1.4,5-2.4
	c1.3-0.8,0.7-2.1,0.4-3.3c-0.3-1.2-1.2-1.5-2.3-1.5c-2.3,0.1-4.8,2.3-5.2,4.6C457.7,67.9,458.4,68.8,460,69.1z"/>
<path d="M313.7,131.2c-0.7-3-1.4-5.9-1.9-8.8c-0.1-0.7,0.4-1.7,0.9-2.2c0.5-0.6,1.4-1,2.2-1.3c2.9-1,4.1-0.2,4.1,3
	c0,0.2,0.1,0.3,0.3,0.7c1.1,0.1,2.4,0.3,3.7,0.4c0.9,0.1,1.9,0.1,2.8,0.3c1.3,0.3,1.8,1,1.5,2.2c-0.3,1-0.7,2.2-1.5,2.9
	c-2.8,2.6-6.1,3.7-9.9,2.8c-0.3-0.1-0.6-0.2-1-0.2C314.6,131,314.3,131.1,313.7,131.2z M315.5,130.1c7.3-0.4,8.9-1.1,10-4.5
	c-2.7-0.9-5.4-1.2-8.2-0.2C314.4,126.4,314.1,127.1,315.5,130.1z M317.4,120.7c-1.3-0.6-2.6-0.5-3.4,0.6c-0.8,1-0.9,2.3,0,3.5
	C316.6,124,317.4,123,317.4,120.7z"/>
<path d="M413.4,148.8c-2.7,0-4.9-2.4-4.8-6c0.3-6,5-8.9,9.4-8c2.7,0.6,3.8,3.4,2.1,5.5c-0.5,0.6-1.4,1-2.1,1.1
	c-1.6,0.3-3.2,0.5-4.8,0.7c-0.9,0.1-2,0-2.3,1.2c-0.3,0.9,0.6,2.9,1.6,3.2c1,0.3,2.2,0.5,3.2,0.5c1.5,0,2.9-0.3,4.3-0.5
	c0.5-0.1,1.1-0.1,1.5,0c0.3,0.1,0.6,0.6,0.6,0.9c0,0.2-0.4,0.6-0.6,0.6C419,148.4,416.5,148.6,413.4,148.8z M411.5,141
	c2.1-0.3,4-0.6,6-1c0.9-0.2,1.6-0.6,1.7-1.7c0-1.1-0.8-1.6-1.7-1.9C414.6,135.6,411.8,137.6,411.5,141z"/>
<path d="M811.5,193c-0.8-4.5,7.1-44,9.3-47.1c1,0.7,0.6,1.7,0.4,2.5c-1.1,4.8-2.4,9.7-3.4,14.5
	c-1.8,8.7-3.6,17.5-4.5,26.4c-0.1,0.7-0.1,1.4-0.4,2C812.6,191.9,812.1,192.3,811.5,193z"/>
<path d="M320.3,49.3c0.3,6.2-4.1,9-9.5,10.3c-2,0.5-3.5-0.6-4.5-2.3c-1.1-1.8-1.5-3.9-1.1-6c1-4.6,3.8-7.8,8.4-9.2
	c1.3-0.4,2.6-0.1,3.6,0.8C319.2,44.6,320.5,46.6,320.3,49.3z M319,50.1c0-1.7-0.4-3.2-1.5-4.5c-1.7-1.9-2-2-4.5-1
	c-0.4,0.2-0.8,0.3-1.2,0.3c-2.5,0.2-3.4,2-4.2,4c-0.2,0.4-0.2,0.8-0.3,1.2c-1,2.7-0.4,5.4,1.8,7.2c0.6,0.5,1.6,1,2.3,0.8
	C315.8,56.9,319.1,55,319,50.1z"/>
<path d="M432.5,39.9c2.2-0.3,3.9-0.5,4.7-2.4c0.5-1.2,1.8-1.2,2.9-1c1.9,0.4,3.8,2.6,3.9,4.6c0.1,1.1-0.1,2-1,2.8
	c-0.2,0.2-0.4,0.4-0.6,0.5c-3.3,2.8-5.2,2.4-7-1.6c-0.3-0.6-0.6-1.3-1.5-1.1c-0.9,0.2-1.3,0.8-1.3,1.7c0,0.3,0.1,0.7,0.1,1
	c0.1,0.4,0.1,0.8,0.2,1.4c-0.6,0.3-1.1,0.6-1.7,0.9c-0.2-0.3-0.5-0.5-0.5-0.7c-0.1-2.9-0.1-5.8-0.1-8.7c0-0.4,0.5-0.7,0.8-1.1
	c0.3,0.4,0.8,0.8,0.9,1.3C432.6,38.1,432.5,38.9,432.5,39.9z M442.4,41.6c0-1.3-1.8-3.4-2.7-3c-1,0.5-2.1,1.6-2.5,2.6
	c-0.5,1.2,1.2,3,2.2,2.9C440.8,44,442.4,42.6,442.4,41.6z"/>
<path d="M367.8,139.3c-0.1-1.4-0.3-2.4-0.4-3.5c-0.2-1.8-0.1-2.2,1.6-2.7c3.2-1,6.4-1.8,9.6-2.7
	c0.5,2.1,0.5,2.1-0.9,2.3c-2.2,0.4-4.4,0.8-6.5,1.4c-2.4,0.8-2.6,1.3-2.3,3.8c0.2,1.7,0.3,3.4,0.2,5.1c-0.1,1.2-0.4,2.4-0.8,3.5
	c-0.8,2.3-2.3,3.2-4.7,3.2c-1.8,0-3.1-0.9-3.8-2.5c-1-2.2-0.7-3.9,1.1-5.6c1.3-1.3,2.9-2.1,4.8-2.1
	C366.2,139.6,366.8,139.5,367.8,139.3z M367.9,143.9c0.2-2.4-0.9-3.4-2.7-3.2c-2.1,0.2-4.1,2.5-4.1,4.6c0,1.6,0.8,2.9,2,3.2
	c1.6,0.4,3.4-0.4,4-1.9C367.6,145.5,367.8,144.4,367.9,143.9z"/>
<path d="M450.1,72c-0.5,0.1-1.1,0.4-1.6,0.4c-1.7,0.2-3.4,0.3-5.1,0.4c-1.1,0-2.2-0.1-3.3-0.4c-1.7-0.5-2.7-1.7-2.7-3.6
	c-0.2-3.5,2.2-7.3,5.4-8.7c2.7-1.1,6,1.1,6.1,4c0,1-0.7,1.8-1.9,2c-1.7,0.3-3.4,0.4-5.1,0.8c-1,0.2-2.2,0.4-2.2,1.7
	c0,1.3,0.9,2.2,2,2.3c2.4,0.3,4.8,0.3,7.2,0.5c0.4,0,0.8,0,1.2,0C450,71.6,450.1,71.8,450.1,72z M440.4,65.7
	c2.3-0.7,4.4-0.4,6.2-1.5c-0.7-2-1.1-2.5-2.2-2.5C442.1,61.8,441.2,63.4,440.4,65.7z"/>
<path d="M485.2,70.1c-2.8-0.9-2.9-3.4-4-5.3c-1.8-0.4-3,0.4-3.9,1.8c-1.1,1.7-2,3.6-3.1,5.3c-0.3,0.5-0.7,1-1.2,1.9
	c-1.1-2.2,0.4-3.2,1-4.5c0.6-1.3,1.4-2.5,2.2-3.9c-1.1-0.4-2.1-0.6-2.9-1c-1.2-0.6-1.5-1.7-0.5-2.4c2-1.4,4.1-2.8,6.4-3.8
	c2.3-1,3.5-0.2,3.5,2.3c0.1,3.2,0.8,6.1,2.5,8.8C485.3,69.4,485.2,69.7,485.2,70.1z M474.9,62.5c1,1.3,2.3,0.8,3.4,0.8
	c2.8,0,3-0.4,2.3-3.3C478.4,60.2,476.4,60.6,474.9,62.5z"/>
<path d="M428,97.9c-0.6-2.1-0.6-8.4,0-10.2c0.8,0.8,0.8,0.8,1.4,3.6c1.8,0.5,3.4-0.2,5-1c1.1-0.6,2.1-1.2,3.2-1.7
	c2.2-1,3.4-0.8,4.7,0.6c1.5,1.6,1.9,3.9,1,5.7c-1.1,2.1-4.3,3.7-6.6,3.2c-1.5-0.3-2.5-1.1-2.9-2.6c-0.2-0.7-0.5-1.5-0.7-2.3
	c-0.6,0-1.2-0.1-1.7-0.1c-1.9,0.2-2.1,0.5-2,2.5C429.4,97.4,429.4,97.4,428,97.9z M438.9,89.8c-0.7,0.4-2.1,0.8-3.1,1.6
	c-1.2,0.9-1.2,2.5-0.3,3.7c0.8,1.2,2.2,1.8,3.5,1.3c0.9-0.3,1.7-0.8,2.4-1.4c1.1-0.8,1.2-2,0.7-3.2
	C441.7,90.6,440.8,89.9,438.9,89.8z"/>
<path d="M420.7,37.6c1.5,1.4,2.6,3,2.4,5.2c-0.1,0.6,0.3,1.3,0.4,2c0.4,1.6-0.4,2.9-1.9,3.3c-1.7,0.4-3.5,0.7-5.3,1.1
	c-1.3,0.2-2.6,0.5-3.6-0.7c-1-1.3-1.1-2.8-0.4-4.1c1.2-2.3,2.9-4.3,5.3-5.4C418.7,38.4,419.7,38,420.7,37.6z M418.9,40.6
	c-2.2,0.2-3.4,1.6-4.3,3.1c-0.5,0.8-0.4,2.2-0.1,3.1c0.2,0.4,1.7,0.5,2.5,0.4c0.7,0,1.5-0.3,2.2-0.7c0.4-0.2,1-0.7,0.9-1.1
	C420,43.9,420.4,42.1,418.9,40.6z"/>
<path d="M387.3,147.3c-0.1,0.3-0.2,0.6-0.3,0.7c-1.6,0.6-3.2,1.4-4.8,1.8c-2.5,0.6-4.4-0.4-5.6-2.6
	c-2.6-4.6,0.1-10.2,5.3-11c2.2-0.4,4.5,1.6,4.4,3.8c0,1-0.4,2-0.6,2.9c-2,0.3-3.8,0.5-5.5,0.8c-0.9,0.2-2,0.3-2,1.6
	c0,1.2,0.7,2.1,1.8,2.6c1.7,0.8,3.3,0.4,5-0.1C385.7,147.5,386.3,146.7,387.3,147.3z M377.9,142.3c2-0.2,3.8-0.4,5.5-0.7
	c0.8-0.1,1.6-0.5,1.5-1.5c-0.1-0.7-0.4-1.6-1-1.9c-1.3-0.6-2.7-0.6-3.9,0.3C378.9,139.4,377.3,140.2,377.9,142.3z"/>
<path d="M124.4,113.5c-0.7,1.7-2.1,2.5-3.7,2.9c-2.6,0.5-5.2,0.9-8,1.4c-1.1-2.6-1.1-5.5-0.9-8.2c0.1-1.5,3.1-3.2,4.6-3
	c1.1,0.1,1.7,0.9,2,1.8c0.4,1.3,1.2,1.9,2.4,2.4C122.3,111.2,123.8,111.8,124.4,113.5z M122.1,113.9c-3-2.5-6.5-1.9-8.1,1.3
	C116.8,115.7,119.4,115.5,122.1,113.9z M113.8,112.7c1.2-1,2.2-1.7,3.1-2.6c0.3-0.2,0.4-0.9,0.3-1.1c-0.2-0.4-0.8-0.7-1.2-0.7
	C113.7,108.2,112.6,110,113.8,112.7z"/>
<path d="M339.7,102.6c0.8,2.6,1.3,3.1,3.3,3c1.1,0,2.2-0.3,3.3-0.5c0.9-0.2,1.8-0.4,2.7-0.3c-2.3,1.5-4.7,2.6-7.4,2.4
	c-2.5-0.2-4.4-2.9-4.5-6.1c-0.1-2.8,2.3-6,5-6.7c1.7-0.4,3.1,0.2,4.2,1.3c1,1.2,1.5,2.7,1.2,4.3c-0.2,0.9-0.8,1.2-1.7,1.3
	c-1.3,0.1-2.6,0.3-3.8,0.5C341.2,102,340.4,102.4,339.7,102.6z M339.1,100.4c2.2,0.4,4-0.3,5.9-0.8c1-0.2,1-1.1,0.6-1.9
	c-0.6-1.1-1.5-1.6-2.7-1.5C340.7,96.3,339.3,97.7,339.1,100.4z"/>
<path d="M438.4,136.7c-1.1-2-2.7-3.2-4.4-4.4c-0.4-0.3-1-0.4-1.4-0.7c-0.3-0.2-0.4-0.7-0.5-1c0.4-0.1,0.9-0.3,1.3-0.4
	c0.1,0,0.2,0,0.2,0.1c3.5,2.4,6.8,5,9.3,8.4c1.5,2,0.7,4.3-1.7,5.1c-2.1,0.7-4.3,1-6.5,1.4c-0.6,0.1-1.2,0-1.8-0.2
	c-2.3-0.8-2.8-3-0.9-4.5c1.3-1,2.7-1.8,4.1-2.6C436.9,137.5,437.6,137.2,438.4,136.7z M434.9,143.7c2-0.4,3.7-0.6,5.4-1
	c1.1-0.2,1.9-0.8,1.8-2.1c-0.1-1.1-1.1-2.1-2.3-2.1c-2.3,0.1-4.4,0.8-5.8,2.7c-0.3,0.4-0.6,1.2-0.4,1.6
	C433.8,143.3,434.6,143.5,434.9,143.7z"/>
<path d="M523.8,33.7c-1.8,1.7,0.4,4.1-1.7,5.8c-0.9-1.9-2.2-3.4-2.3-5.4c-0.1-1.8-0.4-3.6-0.6-5.4
	c-0.1-1.3,0.2-2.4,1.6-3c1.4,1.5,0,3.4,0.9,5.1c2.6-1,3.1-4.5,5.9-5.2c0.8,1,0.5,1.7-0.4,2.4c-3.3,2.8-3.3,3.2-0.3,6.2
	c0.7,0.7,1.5,1.4,2.3,2.1c-1.4,1.5-2.2,0.4-3.1-0.3C525.4,35.2,524.6,34.4,523.8,33.7z"/>
<path d="M107.7,92.9c-1.2-0.9-2.3-1.7-3.6-2.6c1.9-1.2,3,0.9,4.8,0.1c0.2-1.4,0.4-3.1,0.7-5.2c1.9,2.1,0.1,4.6,1.7,6.4
	c2.4,0.2,3.3-2.7,6.1-3.1c-0.5,0.7-0.8,1.1-1.1,1.3c-0.7,0.5-1.5,0.9-2.1,1.4c-0.9,0.8-0.9,1.6,0,2.4c1.4,1.2,2.7,2.3,4.1,3.5
	c-0.2,1.1-0.7,1.3-1.5,0.8c-1.1-0.8-2.1-1.7-3.2-2.5c-0.7-0.5-1.5-0.9-2.2-1.3c-1.9,1.2,0.7,2.8-1,4c-0.5-0.7-1-1.4-1.7-2.3
	c-1.7,0.9-3.4,1.8-5.1,2.7C104.1,95.8,107.3,95.5,107.7,92.9z"/>
<path d="M478.4,43.9c1-0.2,1.9-0.5,2.9-0.5c3.2,0,5.3-1.6,6.9-4.2c1.3-2.1,0.6-3.4-1.8-3.8c-1.1-0.2-2.2-0.1-3.3-0.1
	c-0.8,0-1.5-0.1-2.4-0.2c0.1-2.4,3-2.6,3.3-4.6c-2,0-3.9,0-5.8,0c0,0-0.1-0.3-0.2-0.8c2.6-0.5,5.1-1,7.7-1.4
	c0.9-0.1,1.3,0.5,1.2,1.3c-0.1,0.7-0.5,1.4-0.9,2.1c-0.3,0.5-0.9,1-1.6,1.7c1.3,0.2,2.3,0.3,3.3,0.5c2.9,0.5,3.6,1.7,2.5,4.5
	c-1.1,2.8-3.4,4.5-6,5.7c-1.1,0.5-2.3,0.8-3.4,1c-0.7,0.1-1.5-0.2-2.3-0.3C478.4,44.5,478.4,44.2,478.4,43.9z"/>
<path d="M325.1,44.5c1.6,0.1,1.6,0.8,1.5,1.8c-0.1,1.8,0,3.5,0,5.4c2,0.6,3.5-0.3,5.1-0.7c0.9-0.3,0.9-1.1,0.8-1.9
	c-0.1-1.4-0.2-2.8-0.3-4.2c0.2,0,0.4-0.1,0.5-0.1c0.2,0.4,0.5,0.8,0.6,1.2c0.3,1.8,0.5,3.6,0.9,5.3c0.4,1.6,0.9,3.1,1.4,4.7
	c0.4,1.1,0.4,1-1.3,2.2c-0.3-1-0.5-1.8-0.8-2.7c-0.3-0.9-0.5-1.8-0.8-2.7c-2.6,0.3-4.7,0.9-5.7,3.4c-0.1,0.4-0.2,0.9-0.4,1.2
	c-0.3,0.3-0.8,0.6-1.2,0.7c-0.3,0-0.5-0.5-0.8-0.9c0-0.1-0.1-0.2-0.1-0.2C324.6,52.7,324.3,48.7,325.1,44.5z"/>
<path d="M174.9,107.8c2.2,0.8,4.1,1.5,6.1,2.3c-0.1,2.2-1.3,3.2-2.9,3.7c-2,0.6-4,1.1-5.9,1.6c-2,0.5-2.7,0-2.9-2
	c-0.2-1.6-0.3-3.2-0.5-4.8c-0.2-2.4,1.5-4.5,3.8-5.1c1.2-0.3,2.4,0.5,2.5,1.9C175.1,106.1,175,106.9,174.9,107.8z M178.4,111.5
	c-2.2-2.4-5.1-0.5-8.1-2c0.8-0.3,1.1-0.4,1.4-0.5c0.4-0.2,0.7-0.4,1-0.7c1.1-1,1.3-2.1,0.7-2.7c-0.6-0.6-2.2-0.2-2.9,0.8
	c-0.2,0.3-0.5,0.8-0.5,1.1c0,1.5,0,3.1,0.2,4.6c0.1,1.2,0.8,1.8,2.1,1.6C174.4,113.4,176.4,112.9,178.4,111.5z"/>
<path d="M422.6,122.7c-2.3,1.5-7.1,2.6-9,2.2c-1.5-0.3-2.2-1.2-2.5-2.9c-0.5-3.7,2.4-8.6,5.9-9.9c1.5-0.6,3.3,0.6,4,2.7
	c0.5,1.4-0.2,2.8-1.9,3.3c-1.5,0.4-3,0.8-4.4,1.3c-1.4,0.5-1.8,1.3-1.5,2.5c0.3,1.2,1.3,1.6,2.4,1.5c1.7-0.1,3.4-0.4,5.1-0.6
	C421.2,122.7,421.6,122.7,422.6,122.7z M413.9,117.7c1.6,0.5,2.8-0.4,4-0.7c0.9-0.2,1.6-0.7,1.2-1.8c-0.3-1-1.1-1.3-2.3-0.9
	C415.2,114.8,414.5,116,413.9,117.7z"/>
<path d="M389.2,42.6c-2.1,0.3-3.6,0.5-5.3,0.8c0-0.6,0-1.1,0.1-1.2c2.2-0.4,4.3-1.7,6.7-1.6c0.6,2.5-1.5,4.3-1.4,6.5
	c0.4,0.1,0.6,0.1,0.9,0.1c1.6-0.1,3.2-0.3,4.1,1.3c1.1,1.7,1.7,3.6,1.1,5.6c-1.1,4.1-5.5,6.2-10.2,4.8c0.6-0.5,0.9-0.9,1.4-1
	c1.3-0.3,2.5-0.4,3.8-0.5c1.7-0.2,2.8-1.2,3.3-2.8c0.6-1.7,0.3-3.3-0.9-4.5c-0.6-0.6-1.8-0.8-2.8-0.9c-1-0.1-2,0.1-3.3,0.3
	c0.5-1.3,0.9-2.3,1.3-3.3C388.4,45.2,388.7,44.1,389.2,42.6z"/>
<path d="M401.8,42.1c-1.7-3.1-5-4.8-7.1-7.6c0.2-0.2,0.4-0.4,0.6-0.6c0.5,0.3,1.2,0.5,1.6,0.8c3.1,2.8,6,5.8,9.2,8.6
	c3,2.6,2.1,6.5-2,7.5c-0.4,0.1-0.8,0.2-1.2,0.3c-2,0.3-3.3-0.6-3.3-2.6c0-1.5,0.5-3,1-4.4C400.7,43.5,401.3,42.9,401.8,42.1z
	 M403.3,49.4c1.5,0,3-1.2,3-2.2c0-1.3-1.8-3.3-2.8-3.2c-1.2,0.1-2,1.8-1.9,3.8C401.6,48.9,402.2,49.4,403.3,49.4z"/>
<path d="M519.2,137.5c-0.3,0.1-0.8,0.3-0.9,0.2c-1.3-1.4-2.8-0.8-4.3-0.8c-1.7,0.1-3.4,0.2-5.1,0
	c-2.9-0.3-3.8-2.1-2.2-4.5c2.3-3.6,5.6-5.6,10-5.7c0.7,0,1.5,0,2.3,0c1.1,1.9-0.8,3.6-0.4,5.4C518.8,133.8,519,135.6,519.2,137.5z
	 M516.8,134.7c0.1-0.6,0.2-1,0.2-1.4c0.1-0.9,0.2-1.9,0.2-2.8c0-1.9-0.7-2.7-2.5-2.2c-1.8,0.5-3.6,1.5-5.2,2.6
	c-0.6,0.4-1,1.4-1.3,2.2c-0.4,1.3,0.1,2.2,1.5,2.3C512.1,135.5,514.4,135.7,516.8,134.7z"/>
<path d="M52.8,76.3c3.2-2.2,5.1-5.6,7.9-8.5c0.8,0.9,0.4,1.6-0.2,2.2c-1.2,1.3-2.5,2.6-3.7,3.9c-1.8,2-1.8,2-0.2,4.3
	c1.7,2.3,3.3,4.6,4.9,6.9c0.2,0.3,0.2,0.6,0.4,1c-1.5,0.8-1.9-0.5-2.5-1.2c-1.4-1.7-2.6-3.6-4-5.3c-0.4-0.5-1.5-1.2-1.7-1.1
	c-0.7,0.5-1.4,1.3-1.6,2.1c-0.2,0.9,0.1,1.9,0.1,2.8c0,0.7,0,1.4,0,2.3c-1.2-0.6-1.1-1.4-1.1-2.1c-0.1-4.1-0.1-8.2-0.2-12.3
	c0-1-0.1-2-0.2-3.1c0.2,0,0.4,0,0.6,0c0.2,2.6,0.5,5.2,0.7,7.9C52.3,76.1,52.6,76.2,52.8,76.3z"/>
<path d="M295.3,121.6c3-1.7,5.9-1.4,8.7-2c0.9,2.1-1,3.3-1.4,5.1c1.1,0.3,2.1,0.5,3.2,0.8c2.4,0.7,3.2,2.9,1.5,4.7
	c-1.7,1.9-3.6,3.7-6.3,4.2c-1,0.2-2,0.6-3,0.8c-0.8,0.1-1.6,0-2.6,0c0.6-1.6,1.7-1.5,2.7-1.6c2.9-0.1,5.3-1.2,7.4-3.2
	c0.7-0.7,1.6-1.4,1.1-2.4c-0.4-0.7-1.4-1.1-2.3-1.3c-0.7-0.2-1.5-0.1-2.3-0.2c-0.8-0.1-1.5-0.4-2.6-0.8c1.3-1.5,2.2-2.6,3.3-3.8
	C300.1,120.5,297.9,123,295.3,121.6z"/>
<path d="M141.5,77.7c-1.4-0.3-1.6-1.2-1.8-2.1c-0.2-1-0.3-1.9-1.6-1.9c-1.4,0-1.9,0.7-2.3,1.9c-0.5,1.7-1.2,3.3-1.8,4.9
	c-0.2,0-0.4-0.1-0.6-0.1c0.2-1.1,0.3-2.3,0.6-3.3c0.4-1.3,0.6-2.3-0.9-3.3c-1.4-0.9-1.5-3,0-4.2c1.6-1.3,3.4-2.4,5.2-3.1
	c1.8-0.7,2.9,0.2,2.8,2.1c-0.1,2.8-0.2,5.7,0.6,8.4C141.9,77,141.7,77.3,141.5,77.7z M135.8,72.7c1.1-0.3,1.9-0.4,2.7-0.8
	c1-0.4,1.4-1.6,1.1-2.8c-0.3-1.3-1.3-1.2-2.2-1.1c-1.3,0.1-2.2,0.8-2.8,1.9c-0.3,0.5-0.4,1.4-0.2,1.9
	C134.6,72.3,135.4,72.5,135.8,72.7z"/>
<path d="M378.6,83.9c-1.2-0.4-1.1-1.4-1.2-2.1c-0.3-3.4-0.6-6.8-0.9-10.2c-0.1-0.9,0.1-1.7,1-2.2c0.4-0.3,0.8-0.7,1.2-1
	c1.3-0.9,2.6-2,4.2-1.2c1.8,0.9,3,2.6,3.2,4.7c0.3,2.4-3.4,5.3-5.7,4.5c-0.3-0.1-0.5-0.6-0.8-0.9c0.3-0.2,0.6-0.6,0.9-0.7
	c0.6-0.1,1.2,0.1,1.8,0c1.4-0.3,2.4-1.5,2.3-2.7c-0.1-1.4-1.8-3.2-3-3.1c-1.6,0-3.7,2.3-3.6,4c0.2,2.8,0.6,5.6,0.9,8.4
	C379.2,82.3,379.6,83.2,378.6,83.9z"/>
<path d="M531.7,96.2c2,0,1.6,1.2,1.7,2.2c0.1,1,0.1,2,0.2,3.3c0.8-0.3,1.4-0.5,1.9-0.7c2.9-1.2,4.2-0.6,5.4,2.3
	c1,2.5,0.9,3.3-0.7,4.8c-1,0.9-4.9,1.7-5.8,0.9c-1.1-1-2.1-2.3-2.2-3.9C532,102.2,531.8,99.3,531.7,96.2z M534.2,107.3
	c1,0.1,1.8,0.2,2.5,0.3c0.3,0,0.7,0,1-0.1c1.7-0.4,2.2-1.2,1.9-2.7c-0.4-1.8-1.6-2.6-3.1-2.2c-1.9,0.5-2.4,1.2-2.3,3.3
	C534.2,106.2,534.2,106.6,534.2,107.3z"/>
<path d="M392.2,118.8c1.3-0.5,2.1-0.9,3-1.2c1.4-0.6,2.8-0.6,4.3-0.1c2.5,0.9,3.2,3.6,1.1,5.3c-2.2,1.8-4.8,2.5-7.7,2.4
	c-1-0.1-1.6-0.6-1.8-1.6c-0.3-2.9-0.7-5.8-0.9-8.7c0-0.4,0.5-0.9,0.8-1.3c0.3,0.4,0.8,0.8,0.9,1.3
	C392.1,116,392.1,117.2,392.2,118.8z M395.7,123.5c0.9-0.4,2.4-0.9,3.7-1.6c1.2-0.7,1-1.9-0.4-2.5c-1.7-0.8-3.3-0.5-4.9,0.4
	c-0.9,0.5-1.6,0.9-1.3,2.2C393.2,123.1,394,123.5,395.7,123.5z"/>
<path d="M398.8,107c-0.2-2.6-0.3-5.2-0.5-7.8c0-0.3,0-0.5,0-0.8c-0.1-4.3-0.1-4.3,3.2-7c1.6-1.3,2.9-1.1,4.2,0.5
	c2.9,3.8,1.3,8.3-3.2,9.4c-0.7,0.2-1.3,0.3-2.2,0.5c0,1,0.1,1.9,0,2.8c-0.1,0.8-0.3,1.5-0.4,2.3C399.4,107.1,399.1,107.1,398.8,107z
	 M405.8,96.4c-0.2-0.7-0.3-1.5-0.7-2.2c-0.7-1.6-2.4-1.9-3.5-0.5c-0.8,1-1.4,2.1-1.9,3.3c-0.5,1.2,0,2.7,0.7,3
	C402,100.7,406.2,98.5,405.8,96.4z"/>
<path d="M499.4,142c-2.5,0.6-3.2-1.1-4.3-2c-1.2-1-2.1-2.2-3.1-3.2c-2.9,0.4-2.3,3.6-4.3,4.6c-1.3-1.9-1.9-7.9-1.1-11
	c1.4,0.8,0.7,2.1,0.9,3.2c0.2,1.2,0.3,2.4,0.5,3.8c3.4-2.6,5.6-6.3,9.1-8.5c1,1.1,0.4,1.7-0.3,2.3c-1.3,1.2-2.6,2.4-3.9,3.7
	C494.5,137.8,497.3,139.4,499.4,142z"/>
<path d="M93.1,71.8c-1,0.8-2,1.6-2.9,2.3c-1.6,1.3-1.7,1.8-0.2,3.3c0.8,0.8,1.7,1.4,2.5,2.2c0.5,0.5,0.9,1.2,1.5,1.9
	c-1.4,0.7-1.9-0.1-2.6-0.6c-0.9-0.6-1.7-1.4-2.5-2.1c-0.7-0.6-1.2-1.8-2.5-1.2c-1.3,0.7-2.2,2.1-2.1,3.5c0,0.5,0.1,1.1,0,1.6
	c0,0.1-0.4,0.2-1,0.5c-0.9-3.8-0.9-7.5-0.3-11.1c0.2,0,0.4-0.1,0.6-0.1c0.3,1.4,0.6,2.8,1.1,4.7c1.6-1.3,2.9-2.4,4.2-3.5
	c1.2-1,2.2-2.3,3.8-2.4C92.7,71.3,92.9,71.6,93.1,71.8z"/>
<path d="M517.3,75.6c0.1,0.5,0.1,1.2,0.3,1.8c0.4,2,0.9,4,1.4,6c0.1,0.4,0.2,1.1-0.1,1.3c-0.6,0.6-1.1,0.2-1.4-0.4
	c-0.8-1.4-1.9-1.2-3.1-0.7c-0.7,0.3-1.4,0.6-2.2,0.8c-1.4,0.3-2.9,0.6-4-0.8c-0.9-1.1-0.9-3.7,0-4.9c1.3-1.7,2.9-3,5.1-3.1
	C514.5,75.6,515.8,75.6,517.3,75.6z M513.4,77c-1.1,0.6-2.2,1.1-3.2,1.8c-1.1,0.9-0.9,2.2-0.4,3.3c0.5,1.2,1.7,1,2.6,0.7
	c0.8-0.2,1.6-0.5,2.4-0.8c1.4-0.7,1.7-1.5,1.4-2.9C515.8,77.8,515.1,77.3,513.4,77z"/>
<path d="M80.3,110c-0.7,1.7-1.3,3.1-2,4.9c1,0.3,1.7,0.5,2.5,0.7c1.2,0.3,1.8,1,2,2.1c0.4,2.5-0.2,4.9-2.2,6.6
	c-2,1.7-4.4,2-7,0.8c0.4-0.2,0.9-0.6,1.4-0.7c0.9-0.1,1.9,0,2.8-0.1c2.4-0.3,3.7-1.7,3.8-4.1c0.1-1.7-0.3-2.3-2.1-2.7
	c-0.7-0.2-1.5-0.2-2.3-0.3c-0.6-0.1-1.3-0.3-1.9-0.5c0.1-2.3,3.1-2.8,2.7-5.3c-1.4,0-2.9,0-4.7,0c0.4-0.6,0.5-1.1,0.7-1.3
	C75.5,109.3,78.1,109.3,80.3,110z"/>
<path d="M325,113c-0.1-2.3-0.2-4.3-0.2-6.3c0-2.4,0-4.8-0.1-7.2c-0.1-1.2,0.4-2,1.4-2.5c1.9-1.1,4.9-0.7,6.5,0.7
	c1.9,1.7,2.2,3.5,0.6,5.4c-1,1.2-2.3,2.2-3.6,3.1c-0.8,0.5-1.8,0.5-2.4-0.8c0.5-0.2,0.9-0.6,1.4-0.6c1.5-0.1,2.5-1,3.4-2.1
	c1.1-1.3,0.9-2.8-0.5-3.8c-1.2-0.9-2.6-1.1-3.9-0.6c-1.4,0.5-1.4,1.9-1.4,3.1c0.1,3,0.2,6,0.3,9C326.5,111.5,326.4,112.3,325,113z"
	/>
<path d="M342.8,75c0.9-0.3,2-0.7,3.3-1.2c0.1-0.8,0.2-1.7,0.4-2.5c0.2-0.8,0-1.8,1.4-2c0.1,0.4,0.2,0.8,0.2,1.1
	c-0.2,2.8-0.1,5.5,1.3,8c0.4,0.7,0.7,1.5-0.3,2c-0.9,0.4-1.4-0.3-1.7-1.1c-0.4-1-0.7-2.1-1-3.1c-2.7,0.2-3,0.5-3.5,2.6
	c-0.2,0.6-0.6,1.2-1.1,2.4c-0.6-1.1-1-1.5-1-2c-0.2-2.6-0.4-5.2-0.6-8C342.7,71.7,341.4,74,342.8,75z"/>
<path d="M126.6,77.5c-0.6-2.4-1.2-4.8-1.7-7.2c-0.2,0-0.4-0.1-0.6-0.1c-1.5,2-3,4-4.7,6.3c-1-1.4-1.9-2.5-2.8-3.8
	c-1.9,1.9-1.1,4.7-2.6,7c-0.7-2.3,0.6-4,0.7-5.7c0.1-1.8,0.2-3.5,0.3-5.5c2.7,1.1,2.5,4.3,5,5.2c2.3-1.6,2.4-4.7,4.3-6.8
	c1.7,0.7,1.1,2.2,1.5,3.3c0.4,1.3,0.8,2.6,1,4C127,75.2,128.7,76.2,126.6,77.5z"/>
<path d="M124.1,95.4c0.2,1.7,1.6,2,3,2.1c1.2,0.1,2.5,0.1,3.7,0.4c-2.3,1.2-4.6,1.5-6.9,0.1c-2.1-1.2-2.8-3.9-1.2-5.7
	c1.2-1.4,2.7-2.6,4.3-3.7c1.4-0.9,3.6,0,4.3,1.5c0.7,1.4-0.1,2.9-1.9,3.6c-0.8,0.3-1.7,0.4-2.5,0.6c-0.8,0.2-1.5,0.3-2.2,0.5
	C124.4,95,124.3,95.2,124.1,95.4z M124.9,92.7c2.1,0.6,3.7-0.2,5.4-0.8c-0.2-1.6-1.3-1.8-2.4-1.7C126.3,90.2,125.3,90.9,124.9,92.7z
	"/>
<path d="M491.7,89.5c-0.8-4.2-0.9-8.1-0.4-11.9c0.2,0,0.5,0,0.7-0.1c0.2,1.4,0.5,2.9,0.8,4.5c2.2,0,3.8-1.3,6-1.8
	c0-2,0-3.7,0-5.5c0.1,0,0.3-0.1,0.4-0.1c0.2,0.3,0.6,0.6,0.6,0.9c0.2,4.1,0.5,8.2,2.1,12.1c-1.3,0.6-1.7-0.2-1.9-1.1
	c-0.4-1.3-0.7-2.6-1-3.9c-2.6-0.5-4.4,0.8-5.9,2.2c-0.5,0.4-0.4,1.8-0.2,2.7C493,88.3,493,88.9,491.7,89.5z"/>
<path d="M450.4,132.1c1.9,1.7,1,4.2,1.8,6.1c1.7-0.3,3.3-0.5,4.8-0.8c1.9-0.3,2.1-0.6,2.1-2.5c0-1-0.2-2.1-0.2-3.1
	c0-0.4,0.3-0.8,0.7-1.7c0.9,4.2,1.6,7.9,2.4,11.6c-0.9,0.3-0.9,0.3-2.8-3.2c-1.7,0.3-3.6,0.6-5.4,1c-1,0.2-1.4,0.8-1.2,1.9
	c0.2,0.9,0.6,1.9-1.2,2.6c0-0.1-0.2-0.4-0.3-0.8C450.5,139.6,450.1,135.9,450.4,132.1z"/>
<path d="M468.9,133.6c0.1,1.2,0.2,2.3,0.3,3.5c0.2,1.1,0.5,2.3,0.7,3.5c2.5-0.7,3.7-2.5,4.9-4.1c1.2-1.6,2.1-3.3,3.2-5
	c0.2,0,0.4,0.1,0.6,0.1c0.3,1.8,0.4,3.7,0.8,5.4c0.4,1.8-0.3,3.9,1.8,5.3c-0.5,0.6-0.9,1.1-1.6,2c-1.7-3-0.9-6-2.1-8.7
	c-0.5,0.4-0.9,0.8-1.2,1.2c-1.3,1.5-2.6,3-4,4.4c-0.7,0.7-1.6,1.1-2.4,1.6C467.8,140.7,467.1,135.4,468.9,133.6z"/>
<path d="M362.1,95.1c0.6,3.4,1.2,6.5,1.8,9.7c0,0.1-0.2,0.2-0.5,0.5c-0.6-0.5-1.2-1-1.8-1.5c-1.3,0.4-2.6,0.8-3.9,1.1
	c-1.6,0.4-3.1,0.1-4.1-1.4c-1-1.4-0.6-2.9,0.2-4.1C355.7,96.7,358.2,94.7,362.1,95.1z M357.5,103.2c3.2,0,4.2-1.2,3.7-4.4
	c0-0.2,0-0.3-0.1-0.5c-0.1-1.1-0.9-1.6-1.8-1.2c-1.3,0.5-2.6,1.2-3.7,2c-0.8,0.5-1.2,1.5-0.7,2.5
	C355.4,102.7,356.3,103.3,357.5,103.2z"/>
<path d="M545,35.9c-1.6-0.7-1.5-2-1.8-3.1c-0.3-1.1-0.5-2.1-0.8-3.8c-0.9,1.1-1.4,1.8-2,2.5c-1.1,1.4-2.2,2.9-3.5,4.1
	c-1.1,1.1-2.4,0.9-2.9-0.4c-1-2.7-1.1-5.5-1.3-8.9c1.8,1.4,1.7,2.9,1.8,4.2c0.1,1.4,0.4,2.5,1.9,3.2c1.7-0.9,2.7-2.5,3.8-3.9
	c1.1-1.3,1.3-3.3,2.8-4.5C543.9,26.9,545.2,33.8,545,35.9z"/>
<path d="M511.8,112.8c-2.1,0.4-3.7,1-5.2,1c-2.7,0-4.3-2.5-3.3-5.1c0.9-2.2,4.4-4.8,6.8-4.9c1,0,1.7,0.2,2,1.2
	c0.6,2,1.4,4,1.8,6.1c0.1,0.7-0.5,1.5-0.8,2.5C512.4,113.2,511.9,112.9,511.8,112.8z M507.7,112.6c1.3-0.1,3-0.4,3.2-1.7
	c0.2-1.5-0.4-3.1-0.8-4.6c-0.1-0.3-1.4-0.5-1.8-0.3c-1.1,0.6-2.1,1.5-2.9,2.4c-0.7,0.8-0.9,1.8-0.2,2.9
	C505.7,112.2,506.6,112.7,507.7,112.6z"/>
<path d="M350.3,56c-0.6-2.1-1.1-4.2-1.7-6.5c-2.7,1.5-3.3,5.1-6.6,5.9c-1.4-2.8-1.7-5.8-1.6-8.9
	c1.4-0.2,1.5,0.5,1.7,1.3c0.3,1.5,0.6,3,1,4.8c3.1-2,4-5.1,6.2-7.5c0.3,0.8,0.5,1.3,0.6,1.8c0.6,2.5,1.1,5,1.6,7.5
	c0.1,0.5-0.2,1-0.2,1.5C350.9,56,350.6,56,350.3,56z"/>
<path d="M404.4,75.9c-2.2,0.6-2.5-0.9-2.9-2c-0.5-1.2-0.8-2.4-1.3-3.8c-2.7,1.9-4,5.1-7.5,5.8c-1.8-2.7-1.8-5.7-1.7-8.7
	c1.3-0.4,1.7,0.2,1.8,1c0.2,0.9,0.1,1.9,0.3,2.8c0.1,0.8,0.4,1.5,0.7,2.4c1.9-0.5,2.8-1.9,3.8-3c1-1.1,1.7-2.3,2.9-3.8
	C402.2,69.8,402.8,72.9,404.4,75.9z"/>
<path d="M81.3,103.1c-0.6-2-1.2-3.9-1.9-6.3c-1,1-1.7,1.6-2.3,2.2c-0.7,0.6-1.3,1.3-2.3,2.2c-1.2-1.6-2.3-3.1-3.4-4.5
	c-2.5,1.3-1.5,4.2-3.4,5.9c-0.6-2,0.8-3.2,1.2-4.7c0.4-1.5,0.9-3.1,1.4-5.1c0.8,0.8,1.4,1.3,1.8,1.9c0.4,0.5,0.7,1.2,1.1,1.8
	c1.5,2.5,2.2,2.4,3.6,0.1c0.6-0.9,1.3-1.7,2.3-3.1c0.6,1.4,1,2.3,1.3,3.2c0.5,1.6,1,3.3,1.5,4.9C82.4,102.2,82.5,102.2,81.3,103.1z"
	/>
<path d="M432.8,71.2c-2.5,0.8-5,1.6-7.5,2.3c-0.7,0.2-1.5,0-2.3-0.2c-1.9-0.5-2.6-1.7-2.3-3.7c0.3-1.7,1-3.2,2.4-4.4
	c1.7-1.4,3.5-2.4,5.6-2.9c0.7-0.2,1.4,0.1,1.5,1c0.1,0.8-0.3,1.3-1.1,1.4c-1.2,0.3-2.5,0.5-3.7,0.9c-1.5,0.5-2.2,1.8-2.5,3.3
	c-0.4,2,0.5,3,2.5,2.8c1.4-0.1,2.8-0.6,4.3-0.8c1-0.2,1.9-0.4,2.9-0.6C432.7,70.6,432.8,70.9,432.8,71.2z"/>
<path d="M467.9,110.9c-1.1,1.3-1.8,2.2-2.7,3c-1.1,1.1-2.2,2.1-3.4,3.1c-0.7,0.6-1.5,0.6-2-0.3c-1.4-2.6-1.5-5.3-0.5-8
	c1.4,2,0,4.8,2.1,6.7c3.2-1.7,4.9-5,7.1-7.9c0.4,0.6,0.7,0.8,0.8,1.1c0.6,2.9,1.2,5.8,1.7,8.8c0,0.1-0.2,0.2-0.4,0.4
	c-1.5-0.4-1.2-1.8-1.6-2.8C468.6,113.9,468.4,112.7,467.9,110.9z"/>
<path d="M332.3,139.9c-0.1,1-1,0.7-1.6,0.8c-1.9,0.1-3.2,1.2-4.1,2.7c-1.6,2.6,0,5.7,3.3,6c2,0.2,4.1,0.1,6.2,0.2
	c0.7,0,1.6-0.3,2,0.9c-0.4,0.1-0.7,0.4-1.1,0.4c-2.5,0.1-5,0.1-7.5,0.1c-3-0.1-4.8-1.6-5.3-4.3c0-0.3-0.1-0.5-0.1-0.8
	c0.1-3.3,4.7-7.1,7.9-6.5C332.1,139.5,332.2,139.8,332.3,139.9z"/>
<path d="M453.6,119.4c-0.2,0.3-0.5,0.8-0.7,0.8c-2.6,0.5-5.2,0.9-7.8,1.4c-2.9,0.6-5.6-2.9-4-5.8c1.4-2.5,3-4.8,5.6-6.1
	c0.8-0.4,1.8-0.7,2.7-0.7c1.1,0,1.9,0.5,1.8,2.1c-3.3-1.2-5.5,0.4-7.5,2.6c-0.6,0.7-1.1,1.6-1.3,2.4c-0.7,2.2,0.4,3.9,2.7,3.9
	c1.9,0,3.9-0.4,5.8-0.6c0.8-0.1,1.6-0.3,2.4-0.4C453.4,119,453.5,119.2,453.6,119.4z"/>
<path d="M372.3,52.8c-1.6-2.2-2-7.1-0.8-9.5c1,2.5,0.1,5.2,1.7,7.5c2.8-2.4,4.1-5.7,6.1-9c0.4,0.9,0.7,1.3,0.7,1.8
	c0,2.2,0.4,4.3,1.3,6.3c0.5,1.1,0,1.6-1.1,1.7c-1.4-1.5-0.8-3.6-1.6-5.5C376,48,375.6,51.9,372.3,52.8z"/>
<path d="M343.4,119.1c0.3,1.7,0.4,2.9,0.7,4.3c3.3-2.6,6.4-5,9.7-7.6c0.3,2.1-1.4,2.3-2.1,3.1c-0.8,0.9-1.8,1.6-2.9,2.6
	c1.4,1.7,2.7,3.3,4.1,5.1c-1.6,0.6-2.3-0.7-3.1-1.3c-0.9-0.7-1.6-1.5-2.5-2.3c-1.6,1.1-3.6,1.6-2.8,4.2c0.1,0.2-0.5,0.7-0.8,0.8
	c-0.2,0.1-0.7-0.3-0.7-0.5c-0.2-2.5-0.4-4.9-0.5-7.4C342.3,119.8,342.9,119.5,343.4,119.1z"/>
<path d="M361.7,117.4c1.3,0,2.8,0.3,3.6,1.9c0.8,1.6,0,3-0.9,4.3c-0.4,0.5-1,1-1.5,1.4c-4.1,2.7-6.1,1.4-7.7-2.9
	c-0.2-0.5,0.2-1.5,0.6-2.1C356.9,118.4,359.1,117.5,361.7,117.4z M360.7,118.9c-0.6,0.2-1.2,0.2-1.8,0.5c-1.9,0.8-2.5,2-1.8,3.6
	c0.8,1.8,2.2,2.4,4,1.5c0.9-0.4,1.7-1.1,2.4-1.9c1-1.2,0.6-2.5-0.8-3.1C362.1,119.2,361.4,119.1,360.7,118.9z"/>
<path d="M389.5,95c0.9,3.1,1.7,5.7,2.5,8.3c-1.5,0.6-1.5,0.6-3.4-4.5c-1,0.9-1.9,1.7-2.8,2.6c-0.7,0.6-1.4,1.3-2.2,1.8
	c-0.8,0.5-1.8,0.9-2.6,1.3c-0.4-1-1.1-1.9-1.2-2.9c-0.2-1.5-0.1-3-0.1-5c2.2,1.9,0.7,4.3,2.1,6.1C385,101,387.1,98.3,389.5,95z"/>
<path d="M417.6,191.7c-0.4,0.4-0.7,0.9-1.5,1.8c-0.3-0.6-0.5-1-0.6-1.4c-1.3-3-2.8-5.9-3.8-9
	c-1.9-5.5-3.6-11.1-5.4-16.6c-0.1-0.3,0-0.8,0-1.7c0.6,0.7,1.1,1,1.2,1.4c0.9,2.7,1.8,5.3,2.7,8c1.4,4.3,2.8,8.7,4.4,12.9
	C415.2,188.7,416.5,190,417.6,191.7z"/>
<path d="M417.1,98.2c-2.9-1.3-4.1-4.2-5.4-6.8c-0.2-0.3,0.2-1,0.4-1.7c2.2,2,2.2,5.4,5.4,6c1-2.3,2-4.6,3-6.9
	c0,0,0.3,0.1,0.6,0.2c0,0.4,0,0.8-0.2,1.1c-2.3,4.9-2.8,10.2-4.2,15.3c0,0.2-0.4,0.3-1,0.7C415.6,103.1,417,100.8,417.1,98.2z"/>
<path d="M224.1,90.1c-1.7-0.2-2.4-1.3-2.5-2.7c-0.2-2,1.1-3.9,3.1-4.9c1.9-0.9,3.5-0.4,5,0.8c2.2,1.7,3.1,3.9,2.7,6.6
	c-0.2,1.6-0.6,3.2-1,4.8c-0.7,2.3-1.5,4.5-2.3,6.9c-0.1-0.4-0.4-0.9-0.3-1.3c0.3-1.6,0.8-3.1,1.3-4.7c0.5-1.9,1.2-3.8,1.5-5.7
	c0.4-2.5-0.9-4.6-2.9-5.6c-1.7-0.8-3.6-0.4-4.7,0.8c-0.9,1.1-1.3,2.2-0.6,3.6C223.6,89,223.8,89.5,224.1,90.1z"/>
<path d="M455.7,85.8c-1.9-0.9-3.7,0.4-5.3-1c1.2-1.7,2.7-0.7,4-0.9c1.5-0.2,3.1-0.3,4.6-0.5c1.4-0.2,2.8-0.5,4.3-0.8
	c0.5,0.9,0.6,1.7-0.7,1.9c-0.9,0.2-1.9,0.3-2.8,0.4c-1.4,0.2-2.1,1-2.3,2.3c-0.4,2.1-0.9,4.2-0.2,6.3c0.3,1.1,0.4,2.1-1.3,2.3
	C454.7,92.6,456.2,89.1,455.7,85.8z"/>
<path d="M143.9,122.6c-0.4-4.2-0.7-8.3-1-12.5c0-0.3,0-0.7,0.2-1c0.9-1.5,5.4-2.7,6.8-1.7c0.7,0.5,1.3,1.5,1.4,2.3
	c0.4,2.3-2,5.3-4.4,5.6c-0.3,0.1-0.7-0.2-1.1-0.3c0-1.3,1.1-1.1,1.7-1.5c0.9-0.7,2-1.4,2.6-2.3c0.8-1.1,0.1-2.5-1.3-2.7
	c-1.6-0.2-3.2,0.2-4.3,1.4c-0.5,0.5-0.7,1.6-0.6,2.4c0.3,2.8,0.8,5.6,1.1,8.4c0.1,0.6-0.2,1.2-0.3,1.9
	C144.5,122.6,144.2,122.6,143.9,122.6z"/>
<path d="M215.6,104.5c0.5-0.1,1-0.3,1.5-0.4c2-0.4,3.1,0.4,3.6,2.3c0.3,1.4-0.2,2.6-1.3,3.4c-1,0.8-2.1,1.7-3.5,0.9
	c-0.7-0.4-1.5-1.1-1.7-1.7c-0.5-3.1-0.8-6.2-1.1-9.4c0-0.1,0.2-0.2,0.5-0.5C215.6,100.5,214.4,102.7,215.6,104.5z M219.2,107.2
	c0-1-0.8-1.3-1.7-1.2c-0.9,0-1.8,0.1-1.7,1.4c0.1,0.9,0.3,1.9,1.5,2C218.3,109.4,219.2,108.4,219.2,107.2z"/>
<path d="M301.3,101c1,1.5,2.6,9,2.2,10.6c-1.6-0.6-1.5-2.1-1.7-3.4c-0.2-1.2-0.4-2.5-0.6-4.2c-2.7,2-4,5-7,5.9
	c-1.3-1.7-1.3-6.8,0-10.9c1,1.6,0.2,3.1,0.2,4.4c0.1,1.5,0,3,0,5.1C297.7,106.4,299.6,103.9,301.3,101z"/>
<path d="M349.4,140.1c0.9,0.1,1.7,0,2.5,0.2c1.8,0.3,2.5,1.6,2.2,3.4c-0.6,2.8-5,5.8-7.8,5.2c-0.7-0.2-1.5-0.6-1.9-1.2
	c-1.3-1.8-1.1-3.9-0.5-5.9c0.2-0.6,1.2-1.2,2-1.4c1.1-0.3,2.3-0.3,3.5-0.4C349.4,140,349.4,140,349.4,140.1z M348.4,141.4
	c-2.2-0.1-3.7,1.3-3.6,3.3c0.1,1.9,1.4,3.4,3,2.9c1.5-0.4,3-1.1,4.3-2.1c1.5-1.1,1-3.4-1-3.7C350.1,141.7,349.1,141.5,348.4,141.4z"
	/>
<path d="M518.1,112.5c0-0.4-0.2-0.8-0.1-1.2c1.5-4.1,3-8.2,4.5-12.3c0.1-0.2,0.4-0.2,1-0.6c0.3,1,0.5,1.8,0.8,2.6
	c0.7,2.3,1.3,4.6,2,6.9c0.1,0.2,0.3,0.5,0.3,0.7c-0.1,0.5-0.2,1.1-0.6,1.3c-0.3,0.1-1-0.2-1.2-0.5c-0.4-0.6-0.6-1.4-0.8-2.2
	c-0.3-1.1-0.6-2.1-1.1-3.8c-2,3.1-2.8,6.2-4.1,9C518.5,112.6,518.3,112.5,518.1,112.5z"/>
<path d="M158.3,72.1c-0.2-1.7,0.3-3.1,2-4.1c0.8-0.5,1.4-1.3,2.2-1.8c1.5-1,3.5-1,4.8,0.1c1.2,1,1.7,2.8,1.1,4.4
	c-0.6,1.8-1.9,3-3.5,3.9c-0.8,0.4-1.7,0.8-2.6,1.1c-2.5,0.9-3.7,0.1-4-2.6C158.3,72.8,158.3,72.5,158.3,72.1z M159.2,72
	c0,1.8,0.9,3,2.3,2.6c1.6-0.5,3.2-1.2,4.7-2.1c1-0.6,1.4-1.7,1.2-2.9c-0.2-1.2-1.1-1.9-2.2-2.3C163.4,66.6,158.8,69.5,159.2,72z"/>
<path d="M50.9,123.8c-0.2-0.7-0.4-1.3-0.4-1.9c-0.2-3.3-0.3-6.6-0.5-10c0-1.2,1.3-2.4,2.9-2.9c1.5-0.4,2.6-0.1,3.3,1.1
	c1.6,2.6,0.9,5.3-1.8,6.7c-3.1,1.6-3.2,1.6-2.3,5.4C52.4,123.3,52.1,123.6,50.9,123.8z M56.1,112.9c0-1.6-0.9-2.5-2.3-2.4
	c-1.6,0.1-2.8,1.7-2.7,3.4c0.1,1.4,0.8,2.1,2,2.1C55,116,56.2,114.8,56.1,112.9z"/>
<path d="M194.5,111.4c-1.2-1.3-2.5-1.4-3.9-0.7c-0.6,0.3-1.3,0.2-2,0.2c-2.3-0.1-3.5-1.9-2.3-3.9
	c1.3-2.1,3.1-3.7,5.6-4.2c1.7-0.4,2.4,0.1,2.6,1.8c0.2,1.5,0.5,3,0.6,4.6c0.1,0.6,0,1.3-0.1,1.9
	C194.9,111.2,194.7,111.3,194.5,111.4z M193.7,107.1c-0.5-1-0.6-2.2-1.3-2.6c-0.6-0.3-1.8,0.1-2.6,0.5c-0.7,0.4-1.4,1-1.8,1.8
	c-0.3,0.6-0.2,1.7,0.2,2.1c1.1,1,2.6,0.6,3.9,0.2C192.8,108.8,193.1,107.8,193.7,107.1z"/>
<path d="M335.4,130.4c-1.2-0.8-0.8-1.7-0.6-2.4c0.7-2.1-0.1-3.6-1.6-5c-1.4-1.2-2.5-2.7-3.8-4.1c0.9-1.1,1.5-1,2.1-0.3
	c0.6,0.7,1.1,1.5,1.8,2.2c0.6,0.6,1.4,1.1,2.1,1.7c1.6-1.4,0.7-3.9,2.5-4.9c0.2,0.2,0.5,0.4,0.5,0.4c-0.8,3.9-1.6,7.9-2.5,11.8
	C335.9,130,335.6,130.1,335.4,130.4z"/>
<path d="M76.5,82c-2,0.1-3.7,0.3-5.4,0.3c-0.9,0-1.9-0.1-2.8-0.4c-1.4-0.5-2.1-1.8-1.4-3c1.7-2.7,4-4.7,7.4-4.9
	c0.8-0.1,1.6,0,1.7,1.1C76.2,77.3,76.3,79.6,76.5,82z M71.8,81c0,0.1,0.1,0.2,0.1,0.3c0.9-0.3,2.3-0.5,2.6-1.1
	c0.5-1,0.5-2.5,0.2-3.6c-0.3-1.1-1.6-0.9-2.4-0.8c-0.9,0.1-1.8,0.5-2.6,1c-0.9,0.6-1.6,1.6-1.3,2.8c0.4,1.2,1.5,1.2,2.5,1.3
	C71.3,81,71.6,81,71.8,81z"/>
<path d="M403.5,144.1c0.4,1,0.1,1.6-0.7,1.8c-1.7,0.4-3.5,0.9-5.3,1.2c-2.8,0.5-4.3-1.2-3.6-4c0.6-2.2,1.7-4.1,3.6-5.4
	c0.5-0.3,1.1-0.6,1.6-0.7c0.3,0,0.7,0.4,0.9,0.7c0.1,0.2-0.1,0.6-0.3,0.9c-0.1,0.2-0.4,0.3-0.7,0.4c-2.1,0.7-2.8,2.4-3.2,4.3
	c-0.3,1.6,0.3,2.4,1.9,2.1c1.3-0.2,2.5-0.6,3.7-0.9C402.3,144.3,402.9,144.2,403.5,144.1z"/>
<path d="M163.6,107.2c-0.2,2.5,1.1,4.7,0.6,7.1c-1.9-0.1-1.5-1.7-2.3-2.6c-2.1,0.4-2.9,3.5-5.5,3.1
	c-1.1-1.6-1.4-5.5-0.5-8c0.5,2.1,0.9,4,1.4,6C160.5,111.9,161.1,108.5,163.6,107.2z"/>
<path d="M97.1,116.2c0.4-1.3,0.7-2.6,1.4-3.8c1.3-2.3,3-2.7,5.4-1.6c2.3,1.1,3.1,3.4,1.6,5.5c-1.1,1.5-2.5,2.8-4.4,3.4
	c-2.2,0.7-3.4-0.1-3.7-2.4c0-0.3,0-0.7,0-1C97.3,116.2,97.2,116.2,97.1,116.2z M100.9,118.2c1.4,0,3.8-1.6,4.3-2.9
	c0.2-0.5,0.1-1.2-0.2-1.6c-1-1.5-3.4-2.1-5-1.2c-1.2,0.7-1.8,2.2-1.4,3.8C98.9,117.6,99.6,118.2,100.9,118.2z"/>
<path d="M356.7,74.7c1.1-1-0.1-3.2,2.3-4.2c-0.4,4.5-1.2,8.5,0.6,13c-1-0.4-1.7-0.4-1.9-0.7c-0.5-0.7-1-1.6-0.9-2.3
	c0.2-2.7-1.6-4.1-3.4-5.6c-0.7-0.5-1.4-1.1-2.4-2C353.8,71.9,354.6,74.9,356.7,74.7z"/>
<path d="M513.1,31.3c0.4-1.9,0.6-3.3,0.9-4.7c0.2,0,0.4,0,0.6,0.1c0.8,2,0,4.1,0,6.1c0.1,2.1-0.3,4.3,1.2,6.1
	c-0.6,1-1.4,0.9-1.7,0.2c-0.5-0.9-0.9-1.9-0.9-2.9c0.1-2-0.8-3.2-2.4-4.2c-1-0.5-1.9-1.2-2.8-1.8c-0.7-0.5-1-1.1,0-2.1
	C509.5,29.1,511.2,30.1,513.1,31.3z"/>
<path d="M452.8,38.3c-1.1-0.1-3.7-0.7-4.1-1c3.5-1.2,6.9-1.6,10.5-2c0.1,0.5,0.2,0.7,0.1,1c0,0.3-0.2,0.6-0.3,0.9
	c-0.2,0.1-0.4,0.2-0.5,0.2c-3.5,0.3-4.3,1.5-3.4,5.1c0.1,0.3,0.4,0.6,0.4,0.9c0,0.4-0.2,0.9-0.4,1.3c-0.4-0.3-1.2-0.5-1.3-0.8
	c-0.4-1.3-0.6-2.6-0.9-4C452.9,39.5,452.9,39,452.8,38.3z"/>
<path d="M367.6,79.7c-1.8-2.5-0.7-5.5-1.6-8.1c-1.1,0-2.1,0-3.7,0c0.6-0.7,0.9-1.2,1.2-1.3c2-0.6,3.9-1.2,5.9-1.7
	c0.3-0.1,0.7-0.2,1,0c0.3,0.1,0.7,0.5,0.8,0.8c0.1,0.2-0.2,0.6-0.4,0.8c-0.1,0.1-0.3,0.2-0.4,0.2c-2.4,1.1-2.4,1.1-2.2,3.7
	c0.1,1.2,0.3,2.4,0.5,3.6C368.8,78.5,368.8,79.2,367.6,79.7z"/>
<path d="M476.4,117.2c-0.3-3.1-0.7-5.9-0.9-8.8c0-0.4,0.2-1,0.5-1.1c2.1-1.1,4.2-2.2,6.4-3.2c0.4-0.2,0.9,0.1,1.4,0.2
	c0.3,1.2-0.4,1.4-1.2,1.8c-1.2,0.5-2.3,1.1-3.5,1.6c-1.5,0.7-2.1,1.9-1.8,3.6c0.2,1.3,0.3,2.6,0.6,3.8
	C478,116,477.9,116.8,476.4,117.2z"/>
<path d="M69.9,119c-1.7,0.2-3.3,0.4-4.9,0.6c-0.6,0.1-1.2,0.1-1.8,0c-1.4-0.2-2.1-1.3-1.6-2.6c0.9-2.3,2.5-3.9,4.7-4.9
	c1.8-0.8,2.9,0.1,3.1,2C69.5,115.9,69.7,117.4,69.9,119z M68.9,115.4c-0.7-0.7-1.1-1.5-1.7-1.8c-1.6-0.5-4,1.5-3.9,3.2
	c0,0.4,0.4,1.2,0.7,1.2c1.2,0,2.4,0,3.4-0.4C68,117.4,68.3,116.4,68.9,115.4z"/>
<path d="M137.4,115.6c-1.4,0.3-2.6,0.5-3.7,0.8c-2.2,0.6-3.7,0.1-4.4-1.4c-0.6-1.4,0.2-3.8,1.6-4.8
	c1.3-0.9,2.8-1.2,4.4-0.6c1.1,0.4,1.7,1,1.8,2.2C137.1,113,137.3,114.3,137.4,115.6z M133.2,115.1c1.8,0,2.7-0.8,2.8-2.5
	c0-1.3-0.8-2-2.4-1.9c-1.6,0.1-2.8,1.3-2.8,2.7C130.9,114.4,131.8,115.1,133.2,115.1z"/>
<path d="M369.5,103.9c-0.2-2.6-0.4-5-0.5-7.3c0-0.4,0.3-1.1,0.7-1.3c2.4-1,4.9-1.8,7.4-2.7c0.7,1.5,0.2,2-0.9,2.4
	c-1.4,0.5-2.7,0.9-4.1,1.4c-1.2,0.4-1.7,1.3-1.4,2.6c0.2,0.8,0.3,1.7,0.4,2.5C371.4,102.7,371,103.4,369.5,103.9z"/>
<path d="M138.8,90.1c2.2-1.5,7.9-1.8,10.9-0.9c-0.4,1-1.2,0.7-1.9,0.7c-2.3,0-2.2,0-2.6,2.2c-0.3,2.2-0.6,4.4,0.2,6.6
	c0.1,0.3-0.1,0.7-0.2,1.2c-1.3-0.3-1.4-1.1-1.4-2c-0.1-1.5,0-2.9-0.1-4.4c-0.1-3-0.5-3.3-3.5-3.4C139.8,90.2,139.3,90.1,138.8,90.1z
	"/>
<path d="M95.9,96.3c0,2.5-2.2,5.1-4.4,5.4c-1.2,0.2-2.4-0.5-3-1.6c-0.6-1.3-0.4-3.5,0.6-4.3c0.7-0.6,1.5-1.2,2.3-1.7
	c1-0.6,2.1-0.8,3.2-0.2C95.6,94.6,96,95.5,95.9,96.3z M89.7,98.6c0.1,1.1,0.9,1.7,1.9,1.6c0.9-0.1,1.9-0.7,2.6-1.3
	c0.5-0.4,0.9-1.5,0.7-1.9c-0.3-0.6-1.2-1.2-1.9-1.4C91.9,95.3,89.7,97.4,89.7,98.6z"/>
<path d="M208.5,102.4c-0.6,1.3-0.6,1.3-2.5,1.8c-1.5,2.4,0,4.9,0.1,8c-0.8-0.7-1.3-1-1.4-1.4c-0.4-1.3-0.5-2.7-0.8-4
	c-0.5-2.2-0.5-2.3-2.8-2.2c-0.3,0-0.6-0.1-1-0.2c-0.1,0-0.1-0.1-0.1-0.2C201.1,102.8,205.4,101.8,208.5,102.4z"/>
<path d="M491.3,109.9c0.7-0.3,1.4-0.8,2.2-0.9c2.1-0.4,3.2-1.5,3.1-3.6c0-0.6,0.2-1.3,0.4-1.9c0.2,0,0.3,0,0.5,0
	c0.5,3.8,0.9,7.5,1.4,11.5c-0.9,0.6-1.4-0.1-1.7-1.1c-0.4-1.3-0.6-2.6-1-4.1c-1.7,0.3-3.2,0.6-4.7,0.8
	C491.4,110.4,491.4,110.2,491.3,109.9z"/>
<path d="M88.2,119.7c-1-2.3-0.5-4.2-0.5-6c0-0.5,0.2-1,0.3-1.5c0.3-2.5,0.3-2.7,2.8-3.1c1.2-0.2,2.4-0.9,3.7-0.3
	c-0.1,1.1-0.8,1.3-1.5,1.5c-3.4,1.2-4.2,2.4-3.8,6c0.1,0.7,0.3,1.4,0.3,2C89.3,118.7,88.8,119,88.2,119.7z"/>
<path d="M153.3,75.6c-1.1,0.2-2.2,0.5-3.3,0.5c-3.2,0.1-4.9-3-3.4-5.7c1.5-2.6,3.9-4,6.9-3.6c-0.8,0.5-1.2,0.7-1.6,1
	c-1.1,0.7-2.3,1.1-3.2,2c-2,2.1-1.1,4.6,1.8,5.1c0.9,0.2,1.8,0.2,2.8,0.2C153.3,75.2,153.3,75.4,153.3,75.6z"/>
<path d="M547.5,107.7c-0.5-1.5-1.1-2.8-1.3-4.2c-0.4-2.4-0.6-4.9-0.8-7.4c-0.1-0.7-0.2-1.8,0.9-1.8c1.2,0,1.1,1.1,1.1,2
	c0,1.3-0.3,2.6-0.1,3.8c0.3,1.8,0.8,3.5,1.3,5.2C548.8,106.2,549.1,107,547.5,107.7z"/>
<path d="M406.1,124.4c-0.5-0.9-0.9-1.3-1-1.7c-0.3-2.8-0.5-5.6-0.7-8.4c0-0.4-0.1-0.9,0.1-1.3c0.3-0.4,0.7-0.7,1.1-1.1
	c0.2,0.4,0.7,0.8,0.7,1.2c-0.4,3.2,0,6.3,0.4,9.5C406.9,123,406.5,123.5,406.1,124.4z"/>
<path d="M489.1,115.5c-0.2-4-0.4-7.8-0.6-11.6c1.3,0,1.4,0.9,1.4,1.6c0.1,1.5,0,3.1,0.2,4.6c0.1,1.3,0.3,2.5,0.6,3.7
	C491,114.8,490.6,115.3,489.1,115.5z"/>
<path d="M605,267.6c-0.4,0.2-1,0.7-1.6,0.8c-1.2,0.2-2.2-0.7-2.1-1.7c0.1-0.9,0.6-1.4,1.5-1.4
	C603.9,265.4,605,266.4,605,267.6z"/>
<path d="M593.8,281.1c-1.3,0.6-2,1.1-2.7,1.1c-1,0.1-1.6-0.6-1.5-1.6c0.1-0.9,0.6-1.6,1.5-1.3
	C591.8,279.6,592.4,280.2,593.8,281.1z"/>
<path d="M515,297.5c0.3,1.3,0.6,1.9,0.6,2.5c0,0.6-0.2,1.6-0.6,1.6c-0.6,0.2-1.5,0-2-0.4c-0.3-0.2-0.2-1.3,0-1.8
	C513.4,299,514,298.5,515,297.5z"/>
<path d="M490,301.6c-0.7-0.7-1.3-1.1-1.5-1.7c-0.2-0.5-0.2-1.3,0-1.8c0.2-0.3,1.2-0.4,1.5-0.1c0.5,0.4,1.2,1.1,1.2,1.7
	C491.2,300.3,490.5,300.9,490,301.6z"/>
<path d="M561.4,276.2c0.5,0.7,0.9,1.4,1.4,2.1c-1.5,0.9-2.6,1-3-0.1C559.3,276.9,560.2,276.5,561.4,276.2z"/>
<path d="M405.2,303.9c-0.4,0.3-1,1-1.5,1c-0.8,0.1-1.8-0.2-1.8-1.3c0-1,0.9-1.1,1.6-1.2
	C404.3,302.3,405,302.5,405.2,303.9z"/>
<path d="M865.2,304c-0.9,0.7-1.4,1.3-2.1,1.5c-0.8,0.2-1.3-0.4-1.2-1.2c0-0.8,0.2-1.7,1.2-1.6
	C863.7,302.7,864.3,303.3,865.2,304z"/>
<path d="M370.8,303.3c2,0.4,2.8,1.1,3,2.2c0.1,0.4-0.4,1-0.6,1.4c-0.4-0.2-1-0.3-1.2-0.6
	C371.6,305.5,371.3,304.6,370.8,303.3z"/>
<path d="M136.1,321.1c-0.1-0.3-0.1-0.4-0.1-0.4c0.3-1.3,1.2-1.8,2.4-1.6c0.3,0.1,0.7,0.8,0.7,1.1
	C139,321.2,137.9,321.4,136.1,321.1z"/>
<path d="M475.6,307.4c0.7,0.4,1.1,0.7,1.5,1c0.6,0.4,1.1,1,0.5,1.7c-0.3,0.3-1,0.5-1.5,0.4c-0.7-0.1-1.5-0.5-1.3-1.5
	C474.8,308.4,475.2,308.1,475.6,307.4z"/>
<path d="M820.7,329.2c-0.9,0.7-1.5,1.2-2.2,1.5c-0.2,0.1-0.9-0.7-1-1.1c-0.2-0.8,0.8-1.7,1.6-1.5
	C819.5,328.1,819.9,328.6,820.7,329.2z"/>
<path d="M452,296.9c1.4,0.4,2.2,0.9,2,2.2c0,0.3-0.7,0.7-0.9,0.6c-0.7-0.2-1.6-0.5-1.8-1
	C451.1,298.3,451.8,297.5,452,296.9z"/>
<path d="M559.6,307.3c-1,0.6-1.4,1-1.9,1.1c-0.9,0.2-1.8-0.2-1.9-1.2c-0.2-0.9,0.6-1.3,1.3-1.1
	C557.8,306.2,558.4,306.7,559.6,307.3z"/>
<path d="M841.4,308c1,0.9,1.4,1.7,0.5,2.5c-0.6,0.6-1.6,0.6-2-0.2C839.3,309,840.4,308.5,841.4,308z"/>
<path d="M581.3,277.1c-1-0.2-1.9-0.4-2.9-0.6c0-0.2-0.1-0.4-0.1-0.6c0.5-0.3,0.9-0.9,1.4-1c1.1-0.1,1.5,0.7,1.9,1.5
	C581.5,276.6,581.4,276.9,581.3,277.1z"/>
<path d="M857.8,322.6c-0.2-0.2-1-0.8-0.9-0.9c0.3-0.6,0.8-1.2,1.4-1.5c0.2-0.1,1.1,0.5,1.2,0.9
	C859.6,321.9,859.1,322.4,857.8,322.6z"/>
<path d="M526,308.8c0.6,0.9,1.1,1.4,1.2,2c0.2,0.8-0.4,1.4-1.1,1.3c-0.5-0.1-1.4-0.8-1.4-1.1
	C524.7,310.4,525.3,309.8,526,308.8z"/>
<path d="M582.7,146.3c2.3-1.9,5-3.4,8-4.3c1-0.3,2.1-0.4,2.8,0.5c0.8,1,0.4,1.9,0,2.9c-0.5,1-1,2-1.7,3.4
	c1.4-0.1,2.4-0.2,3.3-0.3c1.1-0.2,2.2-0.6,3.3-0.7c1.7-0.1,2.4,1,2.1,2.7c-0.4,1.7-1.1,3-2.6,3.9c-2.1,1.2-4.2,2.6-6.4,3.8
	c-2.3,1.3-4.1,0.7-5.1-1.7c-0.9-2.1-1.6-4.3-2.4-6.5C583.5,148.9,583.2,147.8,582.7,146.3z M589.4,157.1c4.3-0.5,8.9-3.8,9.5-7
	c-1.3-0.7-2.5-0.2-3.7,0.2c-1.7,0.6-3.3,1.3-5,2.1C587,154,586.9,154.2,589.4,157.1z M592.1,144.4c-2.2-0.3-6,1-6.7,2.4
	c-1,1.8,0.3,3.2,1.3,5C589,149.7,591,147.6,592.1,144.4z"/>
<path d="M596.6,174.2c-0.5,0.8-1,1.5-1.5,2.3c-0.8,1.4-1.4,2.9-2.1,4.4c-0.7,1.4-1.5,1.5-2.4,0.2
	c-0.7-0.9-1.2-1.9-1.8-2.8c-0.4-0.7-0.9-1.4-1.5-2.4c-1.3,3.9-0.6,7.7-1.4,11.3c-0.2,0-0.4,0-0.7,0c-0.2-0.4-0.5-0.8-0.5-1.2
	c0-2.1,0.1-4.3,0.3-6.4c0.2-2,0.5-4.1,0.8-6.1c0.1-0.4,0.2-0.8,0.4-1.4c2.5,2,2.8,5.3,5.1,7.4c2-3.4,3.9-6.5,4.5-10.2
	c1.5,0,2.2,0.5,2.6,1.8c0.7,2.1,1.5,4.2,2.3,6.3c0.6,1.4,1.3,2.8,1.9,4.2c0.1,0.2,0.3,0.5,0.3,0.7c-0.1,0.7,0.1,1.7-0.3,2.1
	c-0.9,0.8-1.7-0.1-2-0.8c-0.8-1.8-1.6-3.6-2.3-5.5c-0.4-1.1-0.7-2.3-1.1-3.4C597,174.3,596.8,174.3,596.6,174.2z"/>
<path d="M667.5,136.4c-1.3-1.4-0.8-2.7-0.3-3.7c1.3-2.6,3.6-4.3,6.1-5.7c0.3-0.2,0.7-0.2,1-0.2c3.7,0.2,6.9,1.3,9,4.7
	c0.7,1.2,0.9,2.4,0.3,3.7c-0.9,1.7-1.6,3.4-2.7,4.9c-2.9,3.9-4.1,8.1-2.6,12.8c0.1,0.5,0.1,1,0.1,1.7c-1.5-0.2-1.9-1.3-2.2-2.3
	c-0.9-2.6-0.8-5.3,0.3-7.8c1-2.3,2.5-4.5,3.7-6.8c0.1-0.1,0.2-0.3,0.3-0.4c2-2.9,2-4.3,0.1-6.1c-2.5-2.4-5.5-2.8-7.9-1.1
	c-1.9,1.3-3.6,2.7-4.1,5.1C668.6,135.5,668,135.9,667.5,136.4z"/>
<path d="M617.1,172.2c-2.6-0.1-2.8-0.1-3.4,2.1c-0.5,1.9-0.9,3.8-1.2,5.7c-0.2,0.9-0.4,1.2-2.5,2.4
	c-0.8-0.8-0.5-1.7-0.1-2.6c0.6-1.5,1.2-3,1.7-4.6c0.2-0.6,0.3-1.3,0.5-2.1c-1.2-0.2-2.2-0.3-3.1-0.6c-1.9-0.5-2.4-1.8-1.3-3.3
	c1.7-2.3,3.6-4.4,6.1-5.8c2.5-1.4,3.5-0.9,4.1,2c0.4,1.8,0.7,3.6,1.2,5.3c0.4,1.2,1.1,2.3,1.8,3.3c0.4,0.7,0.4,1.3-0.2,1.8
	c-0.7,0.6-1.4,0.3-1.8-0.3C618.3,174.4,617.7,173.2,617.1,172.2z M615.9,164.9c-3.4,0.6-5.3,2.4-6.7,5.2c2.1,0.9,4.1,0.6,6,0.2
	c0.4-0.1,1-0.8,1-1.2C616.3,167.7,616.1,166.4,615.9,164.9z"/>
<path d="M655.9,150.1c0.2,0.5,0.6,1,0.7,1.6c0.2,0.9,0.3,1.9,0.5,2.8c0.5,2.2,0.6,4.7,3.2,5.7c-0.6,1.5-1.6,2.1-2.8,1.5
	c-1.4-0.7-2.6-0.3-3.9,0.2c-1,0.4-1.9,0.8-2.9,1.1c-2.1,0.7-3.6,0.5-4.4-0.8c-1.1-1.7-1.5-3.6-0.3-5.3c1.7-2.5,3.9-4.3,6.7-5.4
	C653.5,151.1,654.5,150.7,655.9,150.1z M649.6,161.3c1.6-0.6,3.2-1.1,4.7-1.8c0.7-0.3,1.4-0.9,1-1.8c-0.5-1.4-0.3-3.1-1.7-4.1
	c-0.2-0.1-0.5-0.1-0.7-0.1c-2.9-0.1-5.7,3.2-5.3,6C647.8,160.6,648.3,161.2,649.6,161.3z"/>
<path d="M639.9,139.8c-2.2-2.2-5.3-10.7-5-13.3c1.6,1.5,1.6,3.5,2.3,5.2c0.7,1.6,1.4,3.2,2.3,5.3
	c0.7-0.9,1.3-1.4,1.5-1.9c1.6-4.1,3.2-8.1,4.7-12.2c0.3-0.8,0.6-1.7,1.1-3c0.7,0.8,1.1,1.1,1.3,1.6c0.8,1.5,1.4,3.2,2.3,4.6
	c1,1.7,2.2,3.2,3.4,4.8c0.7,0.9,1.1,1.7-0.2,2.8c-3.3-2.2-3.7-6.4-6.3-9.6c-0.4,1-0.8,1.8-1.1,2.5c-1.4,3.3-2.6,6.7-4.1,10
	C641.6,137.6,640.7,138.6,639.9,139.8z"/>
<path d="M632.9,192.3c1.5-0.2,2,0.9,2.4,1.7c1.3,2.3,2.6,4.7,3.6,7.1c2.8,6.5,5.7,12.9,9.3,18.9
	c1.3,2.1,2.4,4.3,2.7,7.2c-0.8-0.2-1.3-0.2-1.7-0.5c-0.4-0.3-0.6-0.8-0.9-1.3c-2.1-4.3-4.3-8.6-6.3-12.9c-1.6-3.5-2.9-7.1-4.6-10.6
	c-1.1-2.4-2.5-4.7-3.8-7C633.3,194.2,632.3,193.6,632.9,192.3z"/>
<path d="M625.2,128.5c1.2,1.3,1.2,2.1,0.4,3.1c-1,1.3-2,2.8-3,4.3c2.6,2.6,6.6,2.6,9,5.3c-0.8,1.3-1.7,0.8-2.5,0.4
	c-2-0.9-3.9-1.8-5.9-2.6c-1.9-0.8-1.9-0.7-3.1,1.5c0.5,0.7,1.1,1.4,1.6,2.1c-1.4,1.6-1.9,1.7-3.2,0.3c-0.5-0.5-0.9-1.1-1.2-1.7
	c-1-2.1-1.9-4.2-2.8-6.3c-0.2-0.6-0.2-1.2,0-2c1.9,1.1,2.3,3.5,4.1,4.8c1.8-0.9,2.1-3,3.2-4.4C623,131.8,624,130.2,625.2,128.5z"/>
<path d="M575.8,146.9c-1.1,2.1-2.1,3.9-3.1,5.9c1.1,0.1,1.8,0.1,2.5,0.1c3.7,0.2,5.2,2.8,3.8,6.3
	c-1.1,2.6-2.7,4.6-5.4,5.5c-1.9,0.7-3.7,1.3-5.6,1.8c-0.4,0.1-1-0.2-1.5-0.3c0-0.2,0-0.5,0-0.7c0.8-0.2,1.7-0.5,2.5-0.7
	c2.4-0.6,4.9-1.3,6.7-3c0.8-0.8,1.6-1.8,2.1-2.9c0.9-2.1-0.2-3.9-2.5-4c-1.8-0.1-3.6,0.2-5.6,0.3c0.1-2.5,2.6-3.8,3.1-6.3
	c-3.5,0.5-6.2,3-10.1,3C564.7,150.1,572.8,147,575.8,146.9z"/>
<path d="M640,166.4c0.1,0.4,0.1,0.5,0.1,0.5c-3,1.8-5.7,4-9.4,4.1c-3.5,0.1-5.6-3.5-4.7-6.4c0.9-2.8,2.7-4.8,5.1-6.3
	c1-0.6,2.2-0.9,3.2,0c0,1.4-0.9,1.5-1.7,1.5c-2.3,0.1-3.5,1.8-4.3,3.6c-1.1,2.5,0.2,4.8,2.9,5c1.6,0.1,3.4-0.4,5-0.8
	C637.5,167.4,638.7,166.9,640,166.4z"/>
<path d="M611.3,152.4c-1.3-0.9-1.7-2.3-2-3.7c-0.3-1.9-1.2-3.1-3.2-3.4c-1.5-0.3-3-0.8-4.5-1.2
	c-0.7-0.2-1.6-0.3-1.6-1.7c2.6-0.9,5,0.8,7.9,1c-0.1-2.4-0.3-4.7-0.4-7.1c1.6,0,1.5,0.9,1.6,1.7c0.5,2.8,0.9,5.6,1.5,8.3
	c0.3,1.3,1.1,2.5,1.7,3.8C612.9,151.2,612.6,152,611.3,152.4z"/>
<path d="M679.5,166.5c-0.4,1.1-1,1.8-2.2,1.4c-0.9-0.3-0.6-1.1-0.2-1.7C677.6,165.3,678.2,165.4,679.5,166.5z"/>
<path d="M224.2,310.6c0.6,0.9,1,1.4,1.1,1.9c0.2,0.8-0.3,1.4-1.1,1.3c-0.4,0-1.2-0.7-1.1-0.9
	C223.2,312.2,223.7,311.7,224.2,310.6z"/>
<path d="M383.7,303.6c0.8-1.3,1.7-1.4,2.6-0.5c0.2,0.2,0.3,1,0.1,1.3C385.8,305.1,385,304.8,383.7,303.6z"/>
<path d="M540.1,301.4c-0.7,0.5-1,1.1-1.5,1.1c-0.9,0.1-1.4-0.5-1.5-1.3c-0.1-0.8,0.3-1.5,1.1-1.3
	C538.9,300,539.3,300.7,540.1,301.4z"/>
<path d="M574.6,284.7c-1.1,0.6-1.8,1.1-2.4,1.1c-0.3,0-1.1-0.9-1-1.1c0.3-0.5,0.8-1.2,1.3-1.3
	C573,283.5,573.5,284.1,574.6,284.7z"/>
<path d="M876.9,290.2c-0.7,0.6-1.2,1.3-1.5,1.2c-0.5-0.1-1.2-0.6-1.4-1.1c-0.2-0.7,0.3-1.4,1.1-1.3
	C875.7,289.1,876.1,289.6,876.9,290.2z"/>
<path d="M252.1,309.9c0,1.3-0.7,1.7-1.5,1.7c-0.4,0-1-0.4-1.1-0.7c-0.2-0.9,0.5-1.5,1.3-1.5
	C251.3,309.3,251.8,309.7,252.1,309.9z"/>
<path d="M503.3,310.5c0.6-1.1,1.4-1.7,2.5-1c0.3,0.2,0.3,1.5-0.1,1.7C504.7,312.1,503.9,311.4,503.3,310.5z"/>
<path d="M892.3,292.6c0.5,0.6,1,0.9,1.1,1.3c0.2,0.7-0.6,1.4-1.5,1.3c-0.4-0.1-1-0.8-0.9-0.9
	C891.2,293.7,891.7,293.2,892.3,292.6z"/>
<path d="M269.6,304.6c-0.5-0.7-1-1.2-1.1-1.8c0-0.3,0.7-0.7,1-1.1c0.4,0.5,0.9,0.9,1.1,1.5
	C270.7,303.5,270.1,304,269.6,304.6z"/>
<path d="M555.5,287.6c1.7,1.6,1.7,1.6,0.5,2.9C554.4,289.3,554.4,289.3,555.5,287.6z"/>
<path d="M690.7,309.1c-0.2,1.3-0.4,2.2-1.8,2.1c-0.3,0-0.9-0.8-0.8-1C688.5,309.2,689.3,308.6,690.7,309.1z"/>
<path d="M420.8,306.6c-0.7,0.4-1,0.8-1.4,0.9c-0.8,0.1-1.4-0.4-1.2-1.2c0.1-0.4,0.8-0.9,1.3-0.9
	C419.8,305.4,420.2,306,420.8,306.6z"/>
<path d="M119.4,319.4c0.4-1.2,0.9-1.9,2-1.6c0.3,0.1,0.6,1.1,0.4,1.4C121.3,320.3,120.5,320,119.4,319.4z"/>
<path d="M538.3,285.5c0.6,0.8,1.1,1.2,1.2,1.8c0.1,0.9-0.6,1.1-1.4,1.1c-0.8,0-1.3-0.6-1-1.3
	C537.3,286.5,537.8,286.2,538.3,285.5z"/>
<path d="M438,299.6c-0.9,0.6-1.4,1.2-1.9,1.2c-0.4,0-1.1-0.7-1.1-0.9c0.1-0.5,0.6-1.3,1.1-1.4
	C436.5,298.4,437.1,299,438,299.6z"/>
<path d="M584.7,300.5c-0.6-0.8-1.3-1.4-1.2-1.8c0.1-0.5,0.8-1.1,1.3-1.1c0.4,0,1.1,0.7,1.2,1.2
	C586.1,299.2,585.4,299.7,584.7,300.5z"/>
<path d="M568.4,298.2c0.1-0.2,0.1-0.3,0.1-0.3c1.5-0.9,2.3-0.9,2.8,0c0.1,0.3,0,1.1-0.3,1.2
	C569.8,299.7,568.9,299.4,568.4,298.2z"/>
<path d="M178.4,317.2c0.6,0.7,1.1,1.2,1.5,1.8c-0.3,0.3-0.7,0.8-0.9,0.7c-0.6-0.3-1.2-0.7-1.8-1.1
	C177.6,318.2,177.8,317.8,178.4,317.2z"/>
<path d="M778.9,317c0.6,0.7,1.2,1.2,1.1,1.4c-0.2,0.5-0.7,1-1.1,1.4c-0.3-0.3-1-0.7-0.9-0.9
	C778,318.4,778.4,317.9,778.9,317z"/>
<path d="M549,281c-0.2,1.2-0.8,1.5-1.6,1.3c-0.4-0.1-0.9-0.6-1-0.9c-0.1-0.9,0.6-1.2,1.4-1.1
	C548.3,280.3,548.7,280.8,549,281z"/>
<path d="M444.6,310.4c-0.8,0.4-1.3,0.9-1.9,1c-0.3,0-1-0.9-0.9-1.2c0.2-0.5,0.8-1,1.3-1.1
	C443.5,309,443.9,309.8,444.6,310.4z"/>
<path d="M827.7,314.6c-0.7,0.5-1.1,1.1-1.5,1.1c-0.4,0-1-0.5-1.2-0.9c-0.2-0.7,0.3-1.4,1.1-1.3
	C826.6,313.6,827,314.1,827.7,314.6z"/>
<path d="M601.1,291.2c-0.7,0.4-1.1,0.8-1.5,0.8c-0.7,0.1-1.5-0.2-1.4-1.1c0.1-0.4,0.9-0.9,1.3-0.9
	C599.9,290.1,600.4,290.7,601.1,291.2z"/>
<path d="M466.9,297.8c0.9,0.6,1.9,1,1.2,2.2c-0.1,0.3-1,0.4-1.3,0.2C465.8,299.6,466.1,298.8,466.9,297.8z"/>
<path d="M267.3,315.2c-0.8,0.5-1.3,0.9-1.8,1.1c-0.1,0.1-0.8-0.7-0.7-0.8c0.3-0.5,0.7-1,1.2-1.4
	C266,314,266.6,314.6,267.3,315.2z"/>
<path d="M676.2,312c-0.7,0.2-1.3,0.5-1.9,0.7c-0.7-1-0.5-1.8,0.3-2.1C675.5,310.2,675.9,310.9,676.2,312z"/>
<path d="M675.8,324.6c-0.4,0.9-0.5,2-1.7,1.4c-0.3-0.1-0.7-1-0.6-1.3C674,323.8,674.8,323.9,675.8,324.6z"/>
<path d="M877.3,314c-0.8,0.4-1.3,1-1.7,0.9c-0.4-0.1-0.7-0.7-1.1-1.1c0.4-0.3,0.8-0.9,1.2-0.9
	C876.1,312.9,876.6,313.5,877.3,314z"/>
<path d="M527.1,139.2c-0.5-0.9-1-1.4-0.9-1.8c0.1-0.4,0.7-0.8,1.2-0.9c0.3-0.1,1,0.7,1,0.8
	C528.2,137.9,527.7,138.4,527.1,139.2z"/>
<path d="M240,310.9c-0.6,0.6-1,1-1.5,1.3c-0.1,0.1-0.8-0.6-0.7-0.7c0.3-0.5,0.7-1,1.1-1.4
	C238.9,310.1,239.4,310.5,240,310.9z"/>
<path d="M103.1,316.1c1,0.3,1.6,0.8,1.2,1.7c-0.1,0.3-1.2,0.6-1.5,0.4C102,317.6,102.4,316.9,103.1,316.1z"/>
<path d="M843.5,324.7c-0.6,0.6-1,1.2-1.3,1.1c-0.5-0.1-0.9-0.6-1.2-1c0-0.1,0.5-0.8,0.7-0.8
	C842.2,324,842.7,324.4,843.5,324.7z"/>
<path d="M229,319.3c0.4,0.7,0.7,1.1,0.9,1.6c0,0.1-0.7,0.6-0.9,0.5c-0.4-0.1-0.9-0.5-1-0.9
	C227.9,320.2,228.5,319.9,229,319.3z"/>
<path d="M661.2,314.8c-0.7,0.5-1.2,0.9-1.6,1c-0.2,0-0.6-0.4-0.9-0.7c0.3-0.4,0.6-1,1-1.1
	C660,313.8,660.5,314.3,661.2,314.8z"/>
<path d="M760.7,321.4c-0.7,0.5-1,1-1.4,1c-0.4,0-1-0.4-1-0.8c-0.1-0.3,0.5-1,0.7-1C759.5,320.6,759.9,321,760.7,321.4z"
	/>
<path d="M799.9,327.9c-0.6,0.5-0.9,1-1.3,1c-0.3,0-0.9-0.6-0.9-0.9c0-0.3,0.5-0.9,0.9-0.9
	C799,327,799.4,327.5,799.9,327.9z"/>
<path d="M196.6,317.9c-0.6,0.4-1,0.8-1.4,0.8c-0.3,0-0.5-0.7-0.8-1c0.4-0.2,0.8-0.6,1.2-0.7
	C195.9,317,196.2,317.4,196.6,317.9z"/>
<path d="M798.6,319.2c-0.4-0.7-0.9-1.1-0.8-1.4c0.1-0.3,0.6-0.8,1-0.8c0.3,0,1,0.6,1,0.8
	C799.5,318.2,799.1,318.6,798.6,319.2z"/>
<path d="M161.1,320.9c-0.7,0.2-1.1,0.5-1.5,0.5c-0.2,0-0.4-0.6-0.7-0.9c0.4-0.2,0.8-0.6,1.2-0.7
	C160.3,319.9,160.6,320.4,161.1,320.9z"/>
<path d="M397.9,312.6c0.6-0.4,1-0.8,1.2-0.7c0.4,0.3,0.8,0.7,1.1,1.1c-0.3,0.3-0.8,0.9-1,0.8
	C398.8,313.6,398.5,313.1,397.9,312.6z"/>
<path d="M189.7,324.5c0.3,0.7,0.7,1.1,0.6,1.4c-0.1,0.4-0.6,0.7-0.9,1c-0.3-0.3-0.8-0.6-0.8-0.8
	C188.8,325.6,189.2,325.2,189.7,324.5z"/>
<path d="M281,300c-0.4-0.4-0.9-0.7-0.8-1c0.1-0.4,0.4-0.8,0.7-1.1c0.3,0.3,0.9,0.5,1,0.9
	C281.9,299.1,281.4,299.5,281,300z"/>
<path d="M175,330.2c-0.5,0.4-0.8,0.9-1,0.9c-0.4-0.1-0.7-0.5-1-0.8c0.3-0.3,0.5-0.8,0.7-0.8
	C174.1,329.5,174.5,329.9,175,330.2z"/>
<path d="M207.5,311.8c-0.4-0.4-0.8-0.7-0.8-1c0-0.2,0.5-0.5,0.8-0.7c0.2,0.3,0.6,0.6,0.7,0.9
	C208.3,311.1,207.9,311.4,207.5,311.8z"/>
<path d="M283.3,311.3c-0.6,0.4-0.9,0.7-1.3,0.8c-0.2,0-0.7-0.6-0.7-0.7c0.2-0.4,0.6-0.7,1-0.9
	C282.4,310.5,282.8,310.9,283.3,311.3z"/>
<path d="M249.3,322.3c-0.3-0.8-0.6-1.2-0.5-1.5c0.1-0.4,0.5-0.8,0.9-1c0.2-0.1,0.9,0.4,0.8,0.6
	C250.4,320.9,250,321.2,249.3,322.3z"/>
<path d="M153.2,328.3c-0.5,0.3-1,0.7-1.2,0.7c-0.3-0.1-0.5-0.6-0.6-0.9c0-0.1,0.5-0.6,0.7-0.5
	C152.5,327.5,152.7,327.9,153.2,328.3z"/>
<path d="M219.8,328.5c-0.4,0.3-0.9,0.7-0.9,0.7c-0.4-0.4-0.7-0.8-1-1.2c0.2-0.2,0.6-0.5,0.7-0.5
	C219,327.7,219.3,328,219.8,328.5z"/>
<path d="M198.9,327.4c0.4-0.1,0.7-0.3,1-0.3c0.2,0,0.6,0.6,0.5,0.7c-0.2,0.3-0.5,0.7-0.9,0.7c-0.4,0-0.8-0.3-1.2-0.4
	C198.6,327.9,198.7,327.6,198.9,327.4z"/>
<path d="M755,107.2c-0.2,0.9-0.2,1.4-0.4,1.9c-0.3,0.6-0.6,1.4-1.1,1.5c-1,0.2-1-0.8-1.3-1.6c-0.4-1.6-0.9-3.1-1.4-4.6
	c-0.1-0.4-0.5-0.7-0.9-1.2c-1.4,1.5-2.7,2.9-4,4.1c-1.2,1.1-1.9,3-4.1,3.3c0.2-2.3,1.9-3.3,2.9-4.6c1-1.4,2.1-2.6,3.1-3.9
	c-1.1-2-4.3-1-4.6-4c0.6,0.1,1.1,0.1,1.5,0.2c0.6,0.2,1.2,0.7,1.9,0.9c2.2,0.8,2.9,0.2,2.5-2.1c-0.2-1.2-0.4-2.4-0.5-3.6
	c0-0.5,0.1-1.1,0.2-1.9c2,0.9,1.4,2.5,1.7,3.8c0.3,1.4,0.6,2.8,1.1,4.6c1.1-0.7,1.9-1,2.6-1.6c1.4-1.2,2.7-2.4,4-3.6
	c0.6-0.6,1.2-1.2,2.3-0.9c-0.2,1.4-1.4,1.8-2.1,2.5c-1.1,1.1-2.4,1.9-3.5,3c-2.1,2-1.7,4.1,1,5.2c1.9,0.8,4,1.1,5.9,1.8
	c0.4,0.1,0.6,0.8,0.9,1.3c-0.5,0.2-0.9,0.6-1.5,0.7c-0.3,0.1-0.6-0.3-1-0.3C758.6,107.9,756.9,107.6,755,107.2z"/>
<path d="M864.4,113.5c0.6,2.7-0.7,4.6-1.9,6.7c1.2,0.5,2.2,0.8,3.2,1.3c1.6,0.8,2,1.7,1.2,3.3c-1.1,2.1-2.6,3.9-5.2,4.1
	c-1.4,0.1-2.7,0.3-4.1,0.3c-1.1,0-2-0.4-2.1-1.7c-0.2-3.3-0.5-6.7-0.6-10c-0.1-2.1,0.2-2.3,2.1-3C859.3,113.7,861.7,113,864.4,113.5
	z M857.6,127.1c1.3,0,2.7,0.2,3.9-0.1c1.1-0.3,2.2-0.9,3.1-1.6c1-0.9,0.5-2.1-0.7-2.2c-1.2-0.2-2.6-0.1-3.8,0
	C857.7,123.5,857.3,124,857.6,127.1z M856.9,121.3c3.3-0.3,5.3-2.2,5.7-5.5c-1.9-0.5-3.7,0.2-5.3,1.1c-0.4,0.2-0.7,0.8-0.7,1.3
	C856.6,119.2,856.8,120.3,856.9,121.3z"/>
<path d="M803.8,62.3c-0.4-1.2-0.6-2.2-1-3.1c-0.5-1.4-1.2-2.7-1.8-4c-0.5-1.1-0.1-1.9,1-2.2c1.4-0.4,2.8-0.8,4.2-1
	c2.1-0.3,4.2-0.5,6.4-0.7c0.4,1.5,0.1,2.2-1.3,2.3c-1.2,0.1-2.4,0-3.6,0.1c-1,0.1-2.1,0.3-3,0.6c-1.4,0.5-1.7,1.1-1.2,2.6
	c0.7,1.9,1.4,3.9,2.3,5.7c1,2,0.9,4.2,0.9,6.3c0,1.8-0.7,2.5-2.5,2.5c-1.5,0-3.1-0.2-4.6-0.4c-1.5-0.2-2.5-1.2-3-2.6
	c-0.5-1.4,0.1-2.6,1.2-3.4c1.1-0.8,2.3-1.4,3.5-2C802,62.5,802.7,62.5,803.8,62.3z M802.9,69.8c1.1-0.2,2.1-0.2,2.3-1.6
	c0.3-1.7-0.2-3.4-1.4-3.4c-1.4,0-2.9,0.2-4.1,0.8c-1.5,0.8-1.4,2.4,0,3.3C800.7,69.4,801.8,69.5,802.9,69.8z"/>
<path d="M717.7,100.8c-1.4,1.9-2.6,3.6-4,5.6c-1.4-1.9-2.6-3.5-4-5.2c-1.4,3,0,6.1-1.4,9c-1.5-1.7-0.8-3.4-0.7-4.9
	c0.1-1.6,0.2-3.3,0.5-4.9c0.3-1.6-0.5-3.4,0.9-5c1.5,0.9,1.4,2.6,2.1,3.8c0.7,1.1,1.5,2.2,2.2,3.3c1.5-0.4,2.1-1.3,2.5-2.4
	c0.3-0.9,0.5-1.8,0.8-2.7c0.2-0.7,0.2-1.8,1.2-1.6c0.6,0.1,1.1,1,1.4,1.6c0.4,1.1,0.6,2.3,0.8,3.5c0.4,1.9,0.7,3.9,1.2,5.8
	c0.2,0.9,0.6,1.8-0.7,2.5C718.5,106.9,719.5,103.4,717.7,100.8z"/>
<path d="M712.7,71.4c-2.3-4.5-6.5-7.1-10.2-10.2c0.9-1.2,1.8-1,2.6-0.4c0.7,0.5,1.3,1.1,1.9,1.7
	c1.8,1.8,3.5,3.8,5.5,5.5c1.7,1.5,2.7,3.3,3.6,5.3c1.3,2.5,0.3,4.4-2.4,5c-1.8,0.4-3.7,0.6-5.6,0.9c-0.7,0.1-1.7,0.2-2.3-0.2
	c-0.8-0.5-1.7-1.2-2-2.1c-0.4-1.1,0.6-1.9,1.5-2.4C707.6,73.4,710,72.5,712.7,71.4z M706.1,76c0.6,0.6,1,1.2,1.3,1.1
	c2.3-0.2,4.5-0.5,6.7-0.9c0.3,0,0.7-0.9,0.6-1.2c-0.2-0.4-0.8-1.1-1.2-1c-1.6,0.1-3.2,0.3-4.8,0.7C707.9,74.9,707.1,75.5,706.1,76z"
	/>
<path d="M915,38.1c-1.7,0.2-2.2-0.6-2.7-1.5c-0.5-0.9-1-1.8-1.5-2.8c-2.9,1.8-3.4,4.7-4,7.8c-1.9-1.4-1.4-2.8-1-4.2
	c0.5-1.3,1.2-2.6,1.9-4c-0.9-0.4-1.6-0.7-2.2-1c-1.6-0.9-2-2.1-1.2-3.6c1-2,4.7-4.1,6.9-3.9c1.3,0.1,1.8,0.6,1.9,2
	c0,0.5,0,1-0.1,1.5c-0.3,2.4,0.1,4.6,1.1,6.8C914.4,36.1,914.6,37,915,38.1z M910.9,27.6c-1.9-0.7-3-0.1-3.9,0.8
	c-0.4,0.4-0.4,1.3-0.3,1.8c0.1,0.4,0.8,0.8,1.3,0.9c0.7,0.1,1.5-0.2,2.4-0.3C910.6,29.8,910.7,28.7,910.9,27.6z"/>
<path d="M835.8,60c-1.3-1.3-2.6-2.7-3.9-4c-1.8-1.8-3.6-3.5-5.3-5.2c-0.3-0.3-0.3-0.7-0.5-1c0.9-1,1.5-0.4,2.1,0.1
	c2.7,2.5,5.4,5,8,7.6c0.6,0.5,1.1,1.1,1.5,1.8c2,3.2,0.9,6.7-2.5,8c-1.8,0.7-3.8,1-5.7,1.2c-2.1,0.1-2.9-1.4-2-3.3
	C828.8,61.9,832.4,59.7,835.8,60c-0.3,1.4-1.1,2.2-2.7,2.5c-1.2,0.3-2.2,1.2-3.2,2c-0.7,0.6-0.4,1.5,0.4,1.8
	c1.4,0.6,5.3-0.4,6.1-1.7c0.6-1,0.8-2.1,0.3-3.2C836.5,61,836.1,60.5,835.8,60z"/>
<path d="M865.7,27.7c1.6,0.6,1.3,1.6,1.4,2.4c0.3,1.9,1.2,2.3,2.8,1.1c0.3-0.2,0.5-0.4,0.7-0.7c1.2-1.5,2.9-2,4.7-2.3
	c1.6-0.2,3.1-0.1,4,1.6c0.7,1.3,0.4,3.6-0.7,4.8c-1.3,1.4-2.9,2.1-4.8,2.3c-1.3,0.2-1.9-0.8-2.6-1.8c-0.9-1.4-1.3-1.5-2.7-0.9
	c-0.9,0.4-1.3,1-1.2,2c0.1,0.5,0.3,1.1,0.1,1.5c-0.2,0.4-0.7,0.7-1.1,0.8c-0.2,0.1-0.7-0.4-0.9-0.7c-0.2-0.3-0.2-0.7-0.2-1
	c-0.1-2.3-0.3-4.6-0.3-6.9C865.2,29.3,865.5,28.5,865.7,27.7z M876,30.2c-1.7,0-3.1,0.9-3.1,2c0,1.1,1.1,2.6,2,2.7
	c1.5,0.1,3.2-1.3,3.3-2.7C878.2,31,877.4,30.3,876,30.2z"/>
<path d="M848.3,72.4c-0.5,0.3-1,0.6-1.5,0.9c-0.3-0.3-0.6-0.4-0.6-0.7c-0.9-4.3-1.9-8.5-2.8-12.8c-0.1-0.4,0-1,0.3-1.2
	c1.7-1.3,3.3-2.7,5.1-3.7c2.4-1.2,4.6-0.7,5.8,1c1.2,1.8,1.1,4.4-0.7,6.1c-1.2,1.1-2.8,1.9-4.2,2.9c-0.4,0.3-1,0.3-1.4,0.5
	c-1.7,0.8-1.9,1.2-1.3,3C847.3,69.7,847.8,71,848.3,72.4z M845.5,60.9c0.3,2.7,0.7,3.1,2.8,2.6c1.4-0.3,2.7-0.9,3.9-1.7
	c1.5-1,1.8-2.5,1.1-3.8c-0.7-1.3-2.4-1.7-4.1-1c-1,0.4-1.9,1-1.9,2.2C847.4,60.4,846.7,60.8,845.5,60.9z"/>
<path d="M853.1,88.7c1.6,2,2.7,3.4,3.9,4.9c3.6-0.6,4.1-4.2,5.9-6.5c1.5,0.8,2.2,1.6,2.4,3.3c0.4,2.3,1.7,4.4,2.6,6.7
	c-1.2,0.9-1.9,0.9-2.5-0.4c-0.3-0.7-0.4-1.5-0.7-2.2c-0.4-0.8-0.8-1.7-1.3-2.8c-1.5,1.2-2.7,2.1-3.9,3.2c-2,1.8-2.4,1.8-4.1-0.2
	c-0.3-0.3-0.6-0.7-0.9-0.9c-0.2-0.2-0.4-0.3-0.7-0.4c-1.8,1.8-1.1,4.9-2.9,6.7c-0.2-0.1-0.4-0.1-0.6-0.2c0-0.7-0.2-1.5,0-2.1
	C851.4,95.1,851.6,91.9,853.1,88.7z"/>
<path d="M813.8,88.7c1.6,0.4,1.6,1.5,1.7,2.5c0.2,1.2,0.3,2.4,0.5,3.6c0.2,1,0.8,1.5,1.8,1.2c0.1,0,0.2,0,0.3-0.1
	c5-1.6,4.9-1,4.1-5.5c-0.1-0.9,0-1.7,0.3-2.6c1.6,2.1,0.9,4.6,1.6,6.8c0.7,2.2,1.4,4.3,2,6.5c-1.3,0.4-1.6,0.3-2.4-1.3
	c-0.5-1-0.8-2-1.4-3.4c-1.8,0.9-3.5,1.8-5.2,2.7c0.5,1.5,0.9,2.7,1.3,4.1c-0.6,0.4-1.1,0.8-1.9,1.3c-0.6-0.8-1.3-1.4-1.4-2.1
	c-0.6-4.1-1.1-8.3-1.6-12.5C813.5,89.5,813.6,89.2,813.8,88.7z"/>
<path d="M889.8,110.8c-0.2,1.5-0.1,2.6-0.4,3.6c-0.3,0.9-0.9,1.7-1.4,2.7c0.5,0.2,0.8,0.3,1,0.4
	c3.3,0.7,4.6,3.3,3.5,6.5c-1.5,4.2-4.9,5.7-8.7,6.8c-0.4,0.1-1-0.2-1.5-0.4c0.1-1.4,1.1-1.4,1.9-1.6c1.4-0.5,2.9-0.8,4-1.5
	c1.1-0.7,2-1.9,2.6-3c1.2-2.4-0.1-4.5-2.8-4.6c-1-0.1-2-0.1-3.1-0.2c-0.2-2.6,2.6-3.7,2.4-6.1c-0.5-0.1-1-0.4-1.5-0.4
	c-0.9-0.1-1.9,0-2.8,0c-0.8,0-1.9,0.3-2-0.9c-0.1-1,1-1,1.7-1.1C884.9,110.8,887.1,110.8,889.8,110.8z"/>
<path d="M695.6,13.1c0.2,1.7,0.3,3.3,0.5,5.3c2.1-0.6,4-1,5.8-1.7c0.5-0.2,0.8-1,0.9-1.6c0.2-1.1,0.1-2.2,0.2-3.3
	c0.1-0.8,0.3-1.5,0.5-2.3c0.2,0,0.5,0,0.7,0c0.1,0.6,0.4,1.2,0.3,1.8c-0.6,3.6,0.4,6.9,1.3,10.3c0,0.2,0.2,0.3,0.1,0.5
	c-0.1,0.5-0.3,0.9-0.4,1.3c-0.5-0.2-1.2-0.3-1.5-0.6c-0.4-0.5-0.5-1.3-0.7-1.9c-0.5-1.7-0.8-1.9-2.6-1.6c-0.8,0.2-1.6,0.5-2.3,0.9
	c-1.8,1.1-1.7,1.1-1.3,3.3c0.1,0.5-0.2,1-0.3,1.5c-0.6-0.3-1.4-0.4-1.6-0.8c-0.6-1.4-1.1-2.9-1.3-4.4c-0.2-1.7-0.1-3.4-0.1-5.1
	C693.9,13.7,694.2,12.9,695.6,13.1z"/>
<path d="M713.4,49.9c-0.8,1.5-1.6,1.2-2.4,0.8c-1.1-0.7-2.1-1.5-3.2-2.2c-0.8-0.5-1.5-1.1-2.3-1.6
	c-1.4,0.9-2.1,1.9-2.1,3.4c0,0.7-0.6,1.4-1.1,2.3c-1.5-1.6-0.8-3.1-1-4.5c-0.2-1.4-0.4-2.9-0.3-4.4c0-1.3-0.7-2.9,1-4.1
	c1.3,1.5,0.1,3.5,1.2,5c3-1.6,5.3-4.3,8.4-5.8c0.6,1.6,0.4,2.5-0.8,3.3c-1.1,0.7-2,1.5-3.1,2.3c0.3,1.7,1.7,2.2,2.7,3
	C711.5,48.3,712.4,49.1,713.4,49.9z"/>
<path d="M799.7,30.9c1.7,1.1,1.6,2.4,1.7,3.5c0.2,1.7,0.3,3.4,0.5,5.1c0.3,2.3-0.3,3.4-2.5,4c-0.9,0.2-1.8,0.4-2.8,0.5
	c-2.1,0.2-4.3,0.4-6.4,0.6c-2.3,0.2-3-0.2-3.2-2.5c-0.1-1.9,0-3.8,0.1-5.6c0-0.4,0.4-0.8,0.9-1.7c0.3,1,0.5,1.6,0.5,2.1
	c0,1.2-0.2,2.4-0.2,3.6c0.1,1.9,0.5,2.5,1.9,2.4c2.2-0.2,3.1-0.3,3-2.5c-0.1-1.2,0-2.4,0.2-3.6c0.1-0.7,0.4-1.3,0.7-2.1
	c1.4,0.6,1.2,1.5,1.2,2.3c-0.1,1-0.3,2.1-0.2,3.1c0.2,1.8,1.1,2.4,2.8,2.2c1.7-0.2,2.3-0.8,2.2-2.5c-0.1-1.8-0.3-3.6-0.4-5.4
	C799.6,33.4,799.7,32.4,799.7,30.9z"/>
<path d="M896.1,65.1c-0.9-1.4-2-1.6-3.6-1.4c-1.4,0.1-2.9,0.1-4.3-0.3c-2.5-0.7-3.1-3-1.5-5c1.6-1.9,3.8-2.6,6-3.3
	c0.9-0.3,1.9-0.4,2.7-0.7c1.2-0.5,1.8,0.1,2.1,1.1c0.2,0.7,0.1,1.5,0.2,2.3c0.1,1.5,0.1,3.1,0.4,4.6
	C898.3,63.8,897.8,64.6,896.1,65.1z M895,56.9c-2.3-0.4-3.9,0.6-5.4,1.8c-1.2,0.9-1,2.2,0.4,2.8c3.2,1.5,5.4,0,5.3-3.5
	C895.2,57.7,895.1,57.4,895,56.9z"/>
<path d="M736.7,109c-0.4,0.2-0.9,0.5-1.3,0.5c-2-0.1-4.1,0-6.1-0.4c-3.2-0.7-4.7-4.9-2.8-7.6c1.1-1.6,2.6-2.7,4.3-3.6
	c2.2-1.1,4-0.8,4.7,0.8c0.9,2.1-0.3,4.7-2.5,5.4c-1.3,0.4-2.6,0.7-4,1.1c0.4,2.2,2,2.3,3.5,2.6c1.4,0.3,2.8,0.5,4.2,0.7
	C736.6,108.6,736.7,108.8,736.7,109z M728.9,102.5c0.1,0.2,0.2,0.4,0.3,0.5c1.3-0.3,2.6-0.6,3.9-1.1c0.7-0.3,1.2-1.2,0.7-1.9
	c-0.3-0.4-1.3-0.6-1.8-0.4C730.7,100.2,729.6,101.2,728.9,102.5z"/>
<path d="M731.1,135.1c0.1,2.5,0.2,4.8,0.3,7c0,0.1-0.4,0.2-1,0.5c-0.3-1.3-0.7-2.5-0.9-3.7c-0.4-3.1-0.5-6.2-0.9-9.2
	c-0.2-1.3,0.2-2.1,1.2-2.9c1.7-1.5,3.6-2.2,5.9-2.1c1.4,0.1,2.2,0.7,2.6,2c1,3.5-1.3,7.3-4.9,8.1C732.7,134.8,732,135,731.1,135.1z
	 M736.9,128.8c0-1.3-0.6-2-1.8-2c-1.7-0.1-4.1,1.6-4.5,3.3c-0.3,1.3,0.1,2.1,1.4,2.5C734.5,133.3,736.9,131.5,736.9,128.8z"/>
<path d="M723.5,75.3c0.2,1.5,0.4,2.8,0.5,4c0.1,0.7,0.3,1.4,0.1,2c-0.1,0.4-0.7,0.7-1.1,0.8c-0.2,0.1-0.8-0.4-0.9-0.7
	c-0.3-0.9-0.5-1.8-0.6-2.8c-0.2-2.6-0.4-5.1-0.6-7.7c-0.1-1.6,0.5-2.8,2-3.6c1-0.5,1.9-1.2,2.9-1.6c1.5-0.6,2.4-0.3,3.3,1.1
	c0.5,0.7,0.9,1.5,1.2,2.3c1.1,2.6-0.3,5.3-3.1,5.8C726.2,75.1,725.1,75.1,723.5,75.3z M723.6,73.1c1.2,0,2.6,0.2,3.9,0
	c1.3-0.2,1.9-1.3,1.7-2.4c-0.4-2.3-2.4-3.2-4.4-2.3C722.9,69.2,722.6,70.3,723.6,73.1z"/>
<path d="M791.7,117.5c1.4-1,2.3-0.9,3.2-0.2c2.9,2.2,5.8,4.5,7.5,7.9c1.4,2.9,1.2,4.3-1.7,5.5c-1.4,0.6-2.9,1-4.4,1
	c-2.3,0.1-3.6-1.4-3.4-3.8c0.1-1.7,1-2.9,2.3-3.8c0.8-0.6,1.7-1.2,2.5-1.8C796.7,119.7,793.5,119.6,791.7,117.5z M797,130.2
	c1.2-0.3,2.2-0.6,3.2-0.9c1.1-0.3,1.4-1.1,1.1-2.2c-0.5-1.6-1.6-2.8-2.5-2.5c-1.1,0.4-2.3,0.9-3.1,1.7c-0.5,0.5-0.7,1.8-0.5,2.6
	C795.3,129.4,796.4,129.8,797,130.2z"/>
<path d="M822.1,37.7c2.7,2.2,6,0.3,8,2.5c-0.2,0.2-0.2,0.5-0.3,0.5c-2.5,0-5.1,0.1-7.6-0.2c-2.9-0.4-4.1-2.7-2.8-5.3
	c0.8-1.6,1.8-3.1,3-4.4c0.9-0.9,2.4-1.5,3.8-0.7c1.1,0.7,1.8,1.6,1.6,3c-0.2,1.6-0.8,3-2.5,3.6C824.5,37.2,823.5,37.3,822.1,37.7z
	 M822.3,34.7c0.1,0.2,0.3,0.5,0.4,0.7c0.8-0.2,1.6-0.2,2.4-0.5c0.8-0.3,1.1-1.1,0.7-1.9c-0.5-0.9-1.3-0.7-2-0.2
	C823.2,33.3,822.8,34.1,822.3,34.7z"/>
<path d="M743.1,11.1c-1.1-1.8-1.9-3.3-2.8-4.7c-0.9-1.4-2-2.6-3.1-3.9c1-0.9,1.6-0.7,2.1,0c2,2.9,4,5.8,6,8.7
	c0.1,0.2,0.2,0.5,0.3,0.7c2.1,4.4,1.4,6.2-3.2,7.5c-1.5,0.4-3,0.6-4.6,0.6c-2.2-0.1-3.1-1.8-1.7-3.5c1.2-1.4,2.8-2.5,4.2-3.6
	C741,12.2,741.9,11.8,743.1,11.1z M737.5,17.8c1.8,0.6,5.6,0.1,6.8-0.9c0.8-0.7,0.8-1.6,0.4-2.3c-0.3-0.5-0.9-1.1-1.5-1.1
	C741.3,13.2,738.3,15.6,737.5,17.8z"/>
<path d="M880,90.2c-0.7,0.7-1.3,1.4-1.9,2.1c-1,1-1.9,2-2.9,2.9c-0.9,0.8-2,0.7-2.3-0.4c-0.8-2.2-1.3-4.4-1.9-6.7
	c-0.1-0.3,0.5-1.1,0.9-1.2c0.8-0.3,1.8-0.3,2.3,0.6c0.3,0.6,0.3,1.3,0.4,2c0.1,1,0.2,1.9,0.4,3.1c3-1.3,3.6-4.2,5.6-6.1
	c0.5,0.5,1,0.9,1.2,1.4c1.2,3.2,2.3,6.5,3.2,9.8C881.5,96.5,882.5,92.3,880,90.2z"/>
<path d="M722.4,136.2c-2.1-2.8-0.7-6.1-2.1-9c-2.3,0.6-4.4,1.2-6.5,1.8c-1,0.3-1.1,1.2-1.1,2.1c0.1,1.4,0.2,2.7,0.1,4.1
	c0,0.6-0.4,1.1-0.7,1.6c-1.4-0.3-1.3-1.2-1.3-1.9c-0.2-1.9-0.3-3.8-0.5-5.6c-0.1-1.4,0.3-2.1,1.7-2.4c2.8-0.7,5.5-1.3,8.3-1.8
	c1.5-0.3,1.9-0.1,2.1,1.4c0.4,2.7,0.6,5.4,0.8,8.2C723.3,135,722.8,135.5,722.4,136.2z"/>
<path d="M902.6,112.7c-1.8-1.7-3.4-3.1-5-4.5c-0.4-0.4-0.9-0.7-1.3-1.2c-0.2-0.2-0.1-0.7,0-0.9s0.6-0.3,0.9-0.3
	c0.2,0,0.5,0.1,0.7,0.3c3.2,2.7,6.5,5.4,8.4,9.3c0.2,0.4,0.4,0.8,0.5,1.2c0.7,2,0.4,3-1.4,4.1c-1,0.6-2.2,1-3.3,1.4
	c-1.3,0.4-2.7,0.4-3.5-0.9c-0.9-1.3-0.9-2.8,0-4.1c0.8-1.2,1.9-2.2,2.9-3.2C901.6,113.5,902,113.2,902.6,112.7z M902.6,115.4
	c-0.1,0-0.5,0-0.8,0.1c-1.5,0.5-2.5,2.1-2.2,3.4c0.3,1.3,1.3,1.6,3.2,1.2c0.3-0.1,0.5-0.1,0.8-0.2c1.5-0.5,2-1.1,1.7-2.4
	C905,116.2,904.1,115.4,902.6,115.4z"/>
<path d="M774.6,96.9c-2.5-3.1-4.8-5.9-7.2-8.9c1.3-0.6,2.1-0.3,2.4,0.6c1.4,3.7,4.4,6,7.3,8.4c0.3,0.3,0.6,0.6,0.9,0.9
	c2.4,3.2,1.7,5.1-2.2,6c-1.3,0.3-2.7,0.5-4.1,0.5c-0.9,0-1.9-0.4-2.6-0.8c-1.1-0.7-1.3-1.4-0.6-2.6c0.9-1.4,2.1-2.5,3.7-3.1
	C772.9,97.8,773.5,97.4,774.6,96.9z M773.5,103.1c0.7-0.2,1.9-0.3,2.9-0.7c0.5-0.2,1.2-0.7,1.2-1.1c-0.1-0.6-0.5-1.3-1-1.6
	c-1.4-0.9-4.4-0.2-5.4,1.1c-0.8,0.9-0.5,1.8,0.7,2.1C772.3,103,772.7,103,773.5,103.1z"/>
<path d="M831.3,90.7c1.8,2,0.3,4.9,2.2,7.2c2.9-2.9,4.5-6.6,7.4-10.1c0.5,1.4,0.9,2.2,1.1,3c0.6,2.8,1.2,5.7,2.8,8.2
	c0.2,0.4,0.1,1.3-0.1,1.5c-0.7,0.6-1.4,0.1-1.6-0.6c-0.7-1.8-1.3-3.7-1.9-5.6c-0.2-0.7-0.4-1.4-0.7-2.5c-0.6,0.6-1.1,0.9-1.4,1.4
	c-1.2,1.8-2.3,3.6-3.5,5.4c-0.4,0.6-0.8,1.1-1.4,1.5c-0.7,0.5-1.5,0.4-1.9-0.5c-1.2-2.7-1.4-5.6-1.5-8.5
	C830.7,91.1,831,90.9,831.3,90.7z"/>
<path d="M755.1,48.2c-2,0.8-3.1-0.2-4.2-0.9c-1-0.7-1.9-1.6-2.9-2.5c-1.8,0.8-2,2.4-2.4,4.2c-0.7-0.5-1.3-0.8-1.4-1.2
	c-1.2-2.7-1.8-5.6-2-9c2.7,1.1,1.3,3.9,2.9,5.2c1.5-1.3,2.9-2.6,4.5-3.8c1.5-1.1,2.6-2.7,4.9-3c-0.8,2.6-2.9,3.7-4.6,5.2
	C750.5,45.2,753.5,45.8,755.1,48.2z"/>
<path d="M743.1,131c0.1-2.1,0.9-3.7,2.9-4.5c1.6-0.7,3.3-1.4,5-1.7c2-0.3,3.2,0.9,3.5,2.9c0.6,4-3,8.4-7.1,8.6
	c-1.6,0.1-3-0.7-3.6-2.3C743.4,133,743.3,132,743.1,131z M753.1,129.2c0-1.8-0.8-2.6-2.5-2.4c-0.9,0.1-1.8,0.4-2.7,0.7
	c-2.1,0.9-3.1,3.7-1.9,5.5c0.4,0.5,1.2,1,1.9,1.1C750.5,134.3,753.1,131.8,753.1,129.2z"/>
<path d="M787.9,63.8c0.3,0,0.7,0,1,0.1c1.5,0.3,3.2,0.4,3.7,2.2c0.4,1.7-0.8,4.4-2.4,5.2c-1.9,1-3.9,1.8-6.1,1.4
	c-3.1-0.5-4.2-3-2.4-5.7C783.2,64.9,785.1,63.6,787.9,63.8z M787,65.9c-0.8,0.5-2.2,1-3.2,1.9c-1.3,1.1-0.7,2.5,1,3
	c1.5,0.5,2.8-0.2,4.2-0.7c1.1-0.4,2-1.1,1.8-2.5c-0.2-1.3-1.3-1.4-2.3-1.6C788.1,66,787.9,66,787,65.9z"/>
<path d="M849.5,33.7c0.1-0.4,0.2-1.2,0.6-1.8c1.4-2.1,3.4-3.4,5.9-3.7c2-0.2,3,0.8,3.2,2.8c0.2,1.9,0.5,3.7,0.7,5.5
	c0,0.4,0,1-0.2,1.1c-0.4,0.2-1.1,0.2-1.4,0c-1.1-1.1-2.3-0.9-3.6-0.8c-1,0.1-2.1,0.1-3.1-0.1C850.3,36.6,849.6,35.7,849.5,33.7z
	 M857.2,32.7c0-2.4-0.8-2.9-2.9-1.7c-0.6,0.4-1.3,0.8-1.7,1.4c-0.7,1-0.3,2.2,0.6,2.6C855.3,36.2,857.2,35.2,857.2,32.7z"/>
<path d="M891.2,22.6c0.2,1.2,0,2.1-1.1,2.2c-1.7,0.1-1.9,1.2-1.8,2.5c0.3,2.5,0.7,4.9,1,7.3c0.1,0.5,0.1,1,0.1,1.6
	c-1.7,0.4-2.4-0.5-2.7-1.8c-0.4-1.9-0.7-3.9-1.1-5.8c-0.1-0.7-0.1-1.4-0.2-2c-0.1-1-0.8-1.5-1.8-1.4c-0.6,0.1-1.2,0.3-1.8,0.2
	c-0.5-0.1-0.9-0.5-1.3-0.8c0.4-0.4,0.7-1.1,1.1-1.2c1.9-0.4,3.9-0.6,5.8-0.8C888.8,22.5,890,22.6,891.2,22.6z"/>
<path d="M772.4,132c-0.7,1.5-1.5,1.5-2.5,0.6c-0.9-0.8-1.8-1.5-2.7-2.3c-1.5,0.9-1.7,3.3-4,2.6c-0.4-1.3,0.7-2,1.4-2.8
	c1.5-1.9,1.5-1.9,0.3-4c-0.6-1-1.2-2.1-1.7-3.1c0-0.1,0-0.2,0.1-0.4c1-0.7,1.6-0.1,2.2,0.7c0.6,0.7,1.1,1.5,1.8,2.4
	c0.9-0.8,1.6-1.4,2.2-2c0.4-0.4,0.8-0.9,1.3-1.2c0.4-0.2,1.1-0.1,1.3,0.1c0.2,0.2,0.1,1-0.1,1.3c-0.7,0.8-1.6,1.5-2.4,2.3
	c-0.9,0.9-1,1.7-0.1,2.7C770.5,129.9,771.4,130.9,772.4,132z"/>
<path d="M790.8,111.2c-2-1.1-2.4-2.6-2.2-3.8c0.6-3.8-0.9-6.2-4-8.2c-1.4-0.9-2.8-2.3-3.1-4.5c1.6,0.2,2.8,0.6,3.8,1.8
	c0.9,1.2,2.1,2.1,3.2,3.2c2.3-1.7,1.1-4.4,2.6-6.6c0.3,0.8,0.7,1.2,0.7,1.6c-0.2,1.8-0.3,3.6-0.7,5.3c-0.5,2.9-0.9,5.7,0.1,8.6
	C791.4,109.3,791,110.1,790.8,111.2z"/>
<path d="M807.5,120.7c2.7,1.7,0.8,5.2,3.1,6.9c1.9-0.4,2.9-2,4-3.3c0.6-0.7,1.1-1.5,1.7-2.3c1-1.2,1.7-1.1,2.5,0.4
	c0.5,0.9,0.8,1.9,1.3,2.8c0.5,0.8,1.3,1.5,2,2.3c-1.7,0.9-2.4,0.8-3.4-0.6c-0.4-0.6-0.8-1.3-1.3-1.9c-0.1-0.1-0.3-0.2-0.7-0.4
	c-0.7,0.7-1.4,1.5-2.1,2.2c-1.1,1.1-2.1,2.2-3.3,3.2c-1.2,0.9-1.7,0.7-2.6-0.5C807.5,127.8,806.8,123.2,807.5,120.7z"/>
<path d="M845.6,38.5c-1.7,0.9-2.1,0.9-2.5-0.5c-0.5-1.7-0.8-3.5-1.3-5.3c-0.6-2.6-2.7-3.4-4.8-1.8
	c-0.6,0.4-1,1.5-0.9,2.2c0.1,1.3,0.6,2.6,1,4.2c-0.4,0.3-0.9,0.7-1.9,1.4c-0.4-2.1-0.7-3.7-1-5.4c-0.8-4-1.1-3.6,2.7-4.8
	c0.3-0.1,0.6-0.2,1-0.4c3.6-1.2,4.5-0.7,5.4,3.1c0.3,1.3,0.5,2.5,0.8,3.8C844.5,36.2,845.1,37.2,845.6,38.5z"/>
<path d="M762.6,18.2c-0.9,0.8-1.6,0.5-2-0.1c-0.9-1.1-1.8-0.9-3-0.5c-0.9,0.3-1.8,0.6-2.7,0.7c-1.2,0.2-2.4,0-3.2-1.2
	c-0.7-1.1-0.9-2.3-0.2-3.4c1.4-2.5,3.5-4.2,6.2-5.1c2.2-0.7,3.5,0.6,3.3,2.9C760.7,14,761.2,16.1,762.6,18.2z M759.2,13.6
	c0-2.8-1.3-3.5-3.8-2.1c-0.1,0.1-0.3,0.2-0.4,0.3c-1.5,1.1-2.2,2.7-1.5,3.7c0.9,1.4,2.3,0.9,3.5,0.6
	C758.9,15.7,759.2,15.3,759.2,13.6z"/>
<path d="M915.7,123.6c-0.6,0.1-1.2,0.3-2.4,0.6c0.2-2.1,0.2-3.8,0.5-5.5c0.3-1.9-0.1-3.1-1.9-4
	c-1.4-0.7-2.5-1.7-3.8-2.7c-0.6-0.4-1.1-1.1-0.4-1.7c0.3-0.3,1.1-0.2,1.6,0c1.2,0.7,2.3,1.5,3.4,2.3c1.7,1,2.1,0.8,2.8-1
	c0.3-0.8,0.5-1.7,0.8-2.4c0.2-0.4,0.6-0.7,1-1.1c0.9,1,0.4,1.9,0.2,2.8c-0.8,3-1.5,6-2.1,9C915.3,120.9,915.6,122,915.7,123.6z"/>
<path d="M925,111.5c1.1-1.3,1.9-2.2,3.1-3.7c0,1.1,0.1,1.6,0,2c-0.1,0.4-0.4,0.8-0.6,1.1c-2.1,2.7-1.3,5.3,0.4,7.8
	c0.1,0.1,0.2,0.3,0.3,0.4c0.6,0.8,1.6,1.8,0.3,2.6c-1.2,0.7-1.6-0.8-2.1-1.6c-0.5-0.8-0.9-1.6-1.3-2.3c-2.7-0.1-1.5,3-3.5,3.6
	c-0.1-0.6-0.3-1.1-0.1-1.4c0.3-1,0.7-1.9,1.3-2.8c1.1-1.6,0.9-3.2,0-4.8c-0.4-0.8-0.9-1.5-1.1-2.3c-0.1-0.5,0.2-1.2,0.3-1.8
	c0.5,0.3,1.1,0.4,1.4,0.8C923.9,109.6,924.3,110.4,925,111.5z"/>
<path d="M859,55.4c3.3,0,3.3,3.8,5.7,4.1c1.8-0.8,0.6-3.7,3.2-4.1c-0.1,0.7-0.1,1.1-0.2,1.6c-0.4,1.9-0.8,3.8-1.4,5.7
	c-0.7,2.6-1,5,1.2,7.1c-1.8,0.9-2.6,0.8-3-0.8c-0.4-1.5-0.5-3.1-0.3-4.5c0.2-1.4-0.2-2.3-1.3-3.3c-1.3-1.2-2.3-2.7-3.4-4.1
	C859.3,56.7,859.2,56.2,859,55.4z"/>
<path d="M781.4,123.7c2.6,0.2,4,1.1,4.5,2.9c0.5,1.8-0.4,3.9-2.2,5.1c-0.1,0.1-0.3,0.2-0.5,0.2
	c-1.6,0.5-3.2,1.7-4.9,0.4c-1.8-1.4-2.1-3.5-2.1-5.6c0-0.6,0.7-1.5,1.2-1.8C778.8,124.4,780.1,124.1,781.4,123.7z M781,130.8
	c1.5,0,3.1-0.7,3.4-1.9c0.2-0.6,0.1-1.6-0.3-2.1c-0.9-1.2-2.2-1.1-3.5-0.8c-0.1,0-0.2,0-0.2,0.1c-1.6,0.4-2.3,1.3-2.1,2.7
	C778.4,130.1,779.4,130.8,781,130.8z"/>
<path d="M878.7,119.2c0,3.2-3.4,6.4-6.6,6.3c-1.4-0.1-2.5-0.9-2.7-2.3c-0.2-2,0.2-4,1.8-5.4c1.7-1.3,3.7-1.7,5.8-1.2
	C878.2,116.8,878.7,117.8,878.7,119.2z M875.5,118.4c-2.7,0-3.9,1.1-4,3.2c-0.1,1.3,0.9,2.2,2.1,1.7c1-0.4,2-0.9,2.8-1.7
	c0.5-0.5,0.8-1.6,0.6-2.3C876.8,118.8,875.7,118.5,875.5,118.4z"/>
<path d="M717,27.5c-1.3-1.1-1.7-2.4-1.6-3.9c0.1-2.1-0.8-3.3-2.6-4.2c-1.7-0.9-3.4-2-4.2-4.3c2.8-0.1,4,2.4,6.5,2.9
	c0.4-1.1,0.7-2.1,1.1-3.1c0.4-0.9,0.1-2.1,1.8-2.5c-0.1,0.8,0,1.4-0.2,1.9c-1.3,3.8-1.1,7.6-0.2,11.4C718,26.3,718.1,26.9,717,27.5z
	"/>
<path d="M720.9,45.8c1.8-1.7,1-4.3,3.1-5.7c0.2,0.6,0.6,1.1,0.5,1.4c-1.3,3.8-1.7,7.6-0.6,11.5
	c-1.9,0.5-2.2,0.4-2.6-0.9c0-0.1,0-0.2,0-0.3c0.4-3.2-1.3-4.9-4.1-5.9c-0.7-0.3-1.4-0.8-1.9-1.3c-0.3-0.4-0.4-1-0.6-1.5
	c0.5,0,1.2-0.3,1.6-0.1c0.9,0.4,1.7,1.1,2.6,1.6C719.5,45.1,720.2,45.4,720.9,45.8z"/>
<path d="M734.8,67.1c2.5,0.7,3.6,2.9,6,3.8c0.8-1.4,1.7-2.8,2.8-4.7c0.1,0.8,0.2,1.1,0.2,1.3c-1.5,3.3-1.3,6.7-0.8,10.1
	c0.1,0.7,0.3,1.5-0.6,1.6c-0.4,0-1-0.7-1.4-1.1c-0.2-0.2-0.3-0.6-0.3-1c0.2-3.1-1.9-4.8-3.9-6.5c-0.7-0.6-1.4-1.3-1.9-2
	C734.5,68.3,734.8,67.8,734.8,67.1z"/>
<path d="M809.8,37.6c-1,2.1-1.8,3.8-2.6,5.5c-0.2,0-0.4,0-0.6,0c-0.2-0.5-0.7-1-0.6-1.4c0.6-3.1,1.4-6.1,2.1-9.2
	c0-0.1,0.2-0.2,0.7-0.5c0.5,0.6,1.1,1.1,1.6,1.8c1.2,1.6,2.2,3.2,3.4,4.8c0.2,0.3,0.5,0.6,0.5,0.9c0,0.5-0.1,0.9-0.2,1.4
	c-0.5-0.1-1.1-0.1-1.3-0.3c-0.6-0.6-1-1.4-1.6-2C810.8,38.2,810.4,38,809.8,37.6z"/>
<path d="M758,39.9c1.6,2.2,0.5,5.1,3,6.6c2.8-0.9,3.9-3.7,5.6-6.3c2,2.2,1.8,5.1,3.8,7.1c-3,0.6-2.8-2.2-4.4-3.4
	c-0.6,0.7-1.3,1.5-2,2.2c-1.1,1.2-2.3,2.7-4.1,2.2c-1.9-0.6-2.1-2.6-2.3-4.2C757.5,42.9,757.3,41.6,758,39.9z"/>
<path d="M740,47.9c-2.7,1.3-5.6,2-8.6,1.4c-2.4-0.5-3-2.5-1.6-4.5c1.5-2.1,3.7-3.3,6-4.2c0.5-0.2,1.2,0,2,0.1
	c-0.2,1.4-1.1,1.7-2,2.1c-1.1,0.6-2.3,1.2-3.2,2c-0.5,0.4-0.9,1.5-0.7,2c0.2,0.5,1.2,0.9,1.8,1c1.5,0,3.1-0.2,4.6-0.3
	c0.5,0,1-0.1,1.5-0.1C739.9,47.5,739.9,47.7,740,47.9z"/>
<path d="M751.8,76.9c-0.4-2.9-0.4-5.7,0-8.4c0.1-0.7,0.6-1.5,1.2-1.9c2.2-1.6,4.9-2.4,7.4-3.9c0.5,1.7,0,2.5-1.2,3.1
	c-1.5,0.7-2.9,1.5-4.3,2.3c-1.4,0.8-1.8,2-1.4,3.5c0.2,1,0.4,2,0.6,3C754.3,76.1,753.6,76.6,751.8,76.9z"/>
<path d="M829.4,119c-3.5,0.2-3.5,0.2-4.4-0.5c2.4-2.1,8.7-3,11.5-1.7c-0.1,1.2-1.1,1.1-1.9,1.2
	c-3.7,0.5-3.7,0.5-3.7,4.3c0,1.2,0.3,2.4,0.3,3.6c0,0.6-0.2,1.2-0.3,2c-2.1-1.3-1.4-3-1.5-4.4C829.3,122.1,829.4,120.6,829.4,119z"
	/>
<path d="M901.6,35.3c-2,0.8-4.1,0.8-6.2,0.4c-1.3-0.3-2-1.2-2.1-2.6c-0.3-3.1,2.9-6.6,6-6.5c0.3,0,0.7,0,1,0.2
	c0.3,0.2,0.6,0.6,0.6,1c0,0.2-0.4,0.6-0.6,0.7c-0.6,0.2-1.2,0.1-1.7,0.4c-0.8,0.4-1.7,0.9-2.2,1.6c-1.1,1.6-0.6,3.1,1.3,3.5
	c1.3,0.3,2.6,0.4,4,0.6C901.6,34.9,901.6,35.1,901.6,35.3z"/>
<path d="M876.2,62.3c-0.8,0.7-1.5,1.2-2.5,2c-0.8-2.9-0.4-5.4-0.1-7.9c0.1-0.5,0.9-1.1,1.4-1.3c2-0.9,4.1-1.6,6.2-2.4
	c0.4-0.1,0.8-0.3,1.2-0.2c0.4,0,0.9,0.3,1,0.5c0.1,0.3,0,0.9-0.2,1.1c-0.4,0.4-1,0.6-1.5,0.8c-1.7,0.7-3.5,1.3-5.2,2.1
	c-2,1-2.3,2.3-1,4.2C875.8,61.5,875.9,61.7,876.2,62.3z"/>
<path d="M903,73.1c0.8-2,1.5-4.1,2.4-6.1c0.2-0.4,0.9-0.5,1.4-0.7c0,0.5,0.3,1.2,0.1,1.6c-0.7,1.5-1.5,2.8-2.3,4.2
	c-0.3,0.5-0.7,0.9-1.1,1.3C903.4,73.2,903.2,73.2,903,73.1z"/>
<path d="M770.6,17.7c0.3,2-0.4,5.2-1.7,7.3c0.3-2.6,0.6-4.8,0.9-6.9C769.8,18,770.3,17.9,770.6,17.7z"/>
<path d="M942.8,123.9c-1.1,0.8-1.7,1.6-2.2,1.5c-0.5,0-1.2-0.9-1.4-1.5c-0.1-0.2,0.8-1.2,1.2-1.2
	C941,122.8,941.6,123.3,942.8,123.9z"/>
<path d="M826.1,23.1c-0.8,0.4-1.2,0.8-1.7,0.8c-0.2,0-0.7-0.6-0.7-0.8c0.2-0.4,0.6-0.9,0.9-1
	C825,22.2,825.4,22.7,826.1,23.1z"/>
<path d="M932.4,126.1c-0.2-0.5-0.7-1.1-0.5-1.6c0.2-0.6,0.7-1.2,1.3-1.6c0.1-0.1,1.2,0.6,1.2,0.8
	c-0.2,0.7-0.6,1.3-1,1.9C933.1,125.7,932.7,125.9,932.4,126.1z"/>
<path d="M818.4,25.2c-0.8,0.5-1.2,0.9-1.7,1.1c-0.2,0-0.6-0.6-0.9-0.9c0.4-0.4,0.8-0.9,1.3-1
	C817.3,24.3,817.7,24.8,818.4,25.2z"/>
<path d="M133.2,330.8c-0.3-0.5-0.6-0.8-0.6-1.2c0-0.2,0.3-0.5,0.5-0.8c0.3,0.3,0.6,0.6,0.8,1
	C133.9,330.1,133.5,330.4,133.2,330.8z"/>
<path d="M208.1,319.4c-0.4,0.4-0.6,0.7-0.8,0.7c-0.3,0-0.6-0.3-0.7-0.6c-0.1-0.2,0.2-0.5,0.3-0.8
	C207.2,318.9,207.5,319,208.1,319.4z"/>
<path class="light face-a" d="M860.9,273.6c-0.4,4.8-0.6,8.6-1,12.5c-0.5,5.1-5.2,9.8-10.8,10.2c-5,0.4-9.8,1.7-14.7,2.4
	c-8.3,1.1-16.5,2.4-24.7,3.5c-3.3,0.4-6.7,0.3-10,0.6c-3.4,0.3-6.8,0.7-10.2,1.2c-6.4,1-12.9,0.6-19.3,0.5
	c-6.6-0.1-13.2-0.7-19.8-0.7c-5.1,0-10.1,0.7-15.2,1c-1.6,0.1-3.3,0-4.9,0c-4,0.1-7.9,0.5-11.8,0.3c-3.9-0.2-7.9-0.7-11.8-1.3
	c-1.6-0.3-3.1-1.1-4.5-1.9c-2.1-1.2-2.8-3.3-2.9-5.5c-0.3-4.2,0-8.2,1.8-12.1c1.1-2.3,1.9-4.6,2.8-6.9c2.5-6.1,5.9-11.7,9.2-17.3
	c0.7-1.1,1.9-1.9,2.9-2.9c0.9-1,1.8-2,2.8-3c0.6-0.7,1.3-1.4,1.9-2.1c1.1-1.4,2.2-2.9,3.2-4.3c0.5-0.6,0.9-1.3,1.4-1.8
	c1.6-1.8,3.2-3.5,4.9-5.3c1.5-1.6,3.1-3.2,4.8-4.7c2.6-2.4,5.4-4.5,7.9-6.9c3.2-3.1,6.9-5.7,10.4-8.4c4.1-3,8.9-4.4,13.9-4.9
	c4.6-0.5,9.3-0.8,13.9-0.8c6.4,0.1,12.9,0.6,19.3,1.1c4,0.3,8,0.9,12,1.3c3.7,0.3,6.9,2.1,10.3,3.1c6.3,2,11.4,5.9,16.2,10.3
	c3.8,3.6,7.7,7.1,11.3,10.9c2.7,2.9,5,6.1,5.9,10.1c0,0.1,0,0.2,0.1,0.2C860.1,259.1,860.3,266.8,860.9,273.6z"/>
<path class="light face-b" d="M696.7,297.9c-0.6,0.2-0.9,0.3-1.2,0.3c-6.9,0.3-13.7,0.8-20.6,0.8c-3.3,0-6.7-0.6-10-1.1
	c-5.1-0.7-10.2-1.3-15.3-2.2c-1.5-0.3-3.1-1-4.5-1.8c-2.1-1.2-3-3.2-3-5.6c0-4.3,0-8.6-0.1-12.9c0-1.1-0.2-2.2-0.3-3.3
	c-0.5-7.2,0.8-14,5-20.1c3.3-4.8,8.1-7.8,13.5-9.7c6.2-2.1,12.7-3.3,19.2-2.9c3.5,0.2,7,0.8,10.4,1.5c2.8,0.6,5.5,1.5,8.2,2.4
	c1.6,0.5,3.2,1.2,4.6,2.1c3.4,2.2,6.7,4.6,10,6.9c2,1.4,2.1,1.9,0.6,3.7c-3.1,3.7-5,8-7.5,12c-2.7,4.3-4.4,8.9-6.5,13.4
	c-2,4.6-3.4,9.2-2.7,14.2C696.8,296.3,696.7,297,696.7,297.9z"/>
<path class="light face-c" d="M419.7,218.5c3.3,0.3,6.4,0.5,9.6,0.9c2.7,0.3,5.4,0.8,8,1.9c1.6,0.6,3.3,0.7,5,1.2c7.5,2,14.9,4.2,22.4,6
	c6,1.5,12.1,2.7,18.1,3.9c5.2,1,10.3,2.1,14.8,4.9c1.4,0.9,2.6,2.2,3.8,3.4c2.3,2.4,4.5,4.9,6.8,7.4c0.9,1,2,1.9,2.8,3
	c2.1,2.7,4.3,5.4,6.2,8.2c0.8,1.1,1.4,2.4,1.7,3.7c1.1,4.6,2.2,9.2,3,13.8c0.6,3.6-0.6,5.3-4.1,6.3c-2.3,0.7-4.6,1.4-6.9,2.1
	c-0.7,0.2-1.4,0.2-2,0.3c-3.2,0.3-6.5,0.6-9.7,1c-5.4,0.8-10.8,1.1-16.2,1c-2.1,0-4.1,0.2-6.2,0.2c-2.3,0-4.6-0.2-6.9-0.2
	c-8.2-0.2-16.4-0.7-24.4,0.8c-8.8,1.6-17.7,2.1-26.6,3.1c-5.1,0.6-10.3,0.4-15.4,0.5c-4.9,0.2-9.8,0.4-14.7,0.5
	c-6.9,0.1-13.7,0.2-20.6,0.3c-1.4,0-2.7,0.1-4.1,0.1c-2.1,0-4.3,0.1-6.4,0c-3.4-0.3-5.1-1.8-5.8-5.1c-0.7-3.2-2.1-6.2-3.5-9.1
	c-1.7-3.4-1.8-6.8,0.1-10.3c2.5-4.5,3.7-9.6,5.1-14.5c0.4-1.4,0.9-2.8,1.6-4c2-3.4,4-6.8,6.1-10.1c3.2-5.1,8-8.2,13.7-9.8
	c4.9-1.4,9.8-2.4,14.7-3.7c1.7-0.4,3.2-1.2,4.9-1.6c4.2-1.1,8.5-2,12.7-3c2.1-0.5,4.1-1.2,6.2-1.6
	C415.6,219.1,417.7,218.8,419.7,218.5z"/>
<path class="light face-d" d="M489.4,230.7c3.7-1.8,7.4-3.5,11.1-5.3c0.5-0.3,1.2-0.3,1.7-0.6c6.4-3.5,13.5-4.9,20.7-5.5
	c4-0.4,8,0.2,11.9,1.4c1.1,0.3,2.2,0.5,3.2,0.9c1.7,0.6,3.5,1,5.1,1.8c4.6,2.4,9.2,5,13.8,7.3c4,2,7.4,4.5,10.2,8
	c3.4,4.3,6.8,8.6,9.4,13.5c2.2,4.2,2.7,5.3,2.8,8.2c-5.1,4.4-10.8,7-17.7,7.3c-6.2,0.3-12.5,0.7-18.7,1.5
	c-5.2,0.6-10.5,0.4-15.7,0.5c-0.8,0-1.6,0-2.3-0.1c-1.6-0.3-2.9-1-3.2-2.8c-0.3-1.6-0.8-3.2-1.1-4.8c-0.5-3.5-2.2-6.2-4.7-8.7
	c-1.5-1.5-2.9-3.1-4.3-4.7c-0.5-0.6-1-1.2-1.6-1.7c-2.8-2.1-4.9-4.8-6.9-7.6c-2.4-3.3-5.6-5.5-9.5-6.6c-1.4-0.4-2.7-0.9-4.1-1.3
	C489.4,231.1,489.4,230.9,489.4,230.7z"/>
<path class="light face-e" d="M243.3,300c-4.2-0.7-9.1,0.4-14,1.3c-1.8,0.4-3.8,0.3-5.6,0.3c-5.1,0.1-10.3,0.1-15.4,0.4
	c-2.9,0.2-5.8,1-8.6,1.8c-4.3,1.3-8.8,1.4-13.3,1.7c-10.5,0.6-20.9,1-31.4,1.4c-1.1,0.1-2.2,0.2-3.3,0.4c-7.8,1.3-15.6,0.8-23.4-0.1
	c-6.2-0.7-12.4-1.5-18.7-1.7c-3-0.1-5.9-0.9-8.9-1.4c-0.5-0.1-1-0.4-1.4-0.7c-1.8-1.3-3.6-2.6-5.5-3.8c-1.6-1-2.3-2.3-2.1-4.1
	c0.1-1.2,0.2-2.5,0.8-3.5c1.6-2.8,3.2-5.5,5.1-8c3.1-4.2,6-8.5,8.6-13.1c2.1-3.8,5.1-6.8,8.6-9.4c1.2-0.9,2.3-1.8,3.4-2.7
	c4.7-3.8,8.8-8.1,12.8-12.6c3.3-3.7,6.9-7.2,10.6-10.5c4.2-3.8,8.3-7.7,13.2-10.7c2.9-1.8,5.9-3.4,9-4.9c4.3-2.1,7.8-5.2,11.5-8.2
	c3.4-2.8,6.9-5.7,10.3-8.5c1.6-1.3,3.2-2.6,4.8-3.8c1.8-1.4,3.6-1.4,5.8-0.5c4.9,2.1,8.9,5.5,13.2,8.5c6.1,4.4,12,9,18.1,13.2
	c3.3,2.3,5.7,5.4,8.3,8.3c4,4.5,7.2,9.6,10.3,14.8c1.1,1.9,2.3,3.8,3.4,5.7c1,1.8,1.6,3.7,1.9,5.8c0.3,2.3,1.5,4.5,2.3,6.8
	c2.4,6.6,4.7,13.3,7.1,19.9c0.7,1.9,1.3,3.7,1.9,5.6c1.3,4,0.1,7.4-3.6,9.5c-3,1.7-6.2,3-9.8,2.7C247.6,299.9,245.8,300,243.3,300z"
	/>
<path d="M846.1,276.7c1-2.6-0.1-4.9-0.7-7.2c-2.1-7.3-5.6-14-9.3-20.6c-0.8-1.4-2.2-2.6-3.4-3.8
	c-0.5-0.6-1.1-1.1-1.7-1.7c0.1-0.2,0.2-0.3,0.3-0.5c0.5,0.1,1.2,0.1,1.5,0.4c1.4,1.3,2.9,2.5,3.9,4c5.2,8.1,9.2,16.7,11.6,26
	c0.2,0.7,0.3,1.5,0.3,2.3C848.6,276.9,848.1,277.1,846.1,276.7z"/>
<path d="M740.9,246.4c0.1,1.6-0.9,2.4-1.7,3.3c-4.2,4.4-7.8,9.3-11.5,14.2c-2.6,3.5-4.2,7.4-5,11.7
	c-0.3,1.4-0.6,2.8-1.3,4.3c-0.1-0.4-0.3-0.8-0.3-1.2c0.3-5.9,2.5-11.2,6.1-15.8c4.3-5.4,8.6-10.7,12.9-16
	C740.3,246.7,740.5,246.7,740.9,246.4z"/>
<path d="M829.4,255.5c1.3-0.6,2,0,2.5,0.7c2.4,4.1,4.6,8.2,5.7,12.8c0.1,0.3-0.1,0.8-0.2,1.2c-1.2,0-1.4-0.8-1.6-1.5
	c-1.3-4.3-3.6-8.1-5.8-11.9C829.7,256.4,829.6,256,829.4,255.5z"/>
<path d="M737.4,261.2c-1.8,3.3-3.6,6.6-5.6,10.3c0-0.9-0.2-1.6,0-2.1c1.3-3.1,2.7-6.2,5.2-8.6
	C737.1,261,737.2,261.1,737.4,261.2z"/>
<path d="M653.8,265.1c-1.4-1.5-0.8-3-0.1-4.1c1.8-2.8,3.7-5.5,5.7-8.2c0.8-1.1,1.9-2.1,2.9-3.1c0.9,1.5,0.9,2.1-0.3,3.1
	c-2.3,2-4.2,4.2-5.7,6.8C655.4,261.3,654.7,263.1,653.8,265.1z"/>
<path d="M669.5,254.2c-2.4,3.1-3.9,6.5-5,10.3c-1.5-0.8-0.9-1.8-0.6-2.6C664.9,258.8,666.4,255.9,669.5,254.2z"/>
<path d="M363.2,278.2c-1.3-1.2-1.4-2.5-1.5-3.7c-0.1-5,0.6-9.8,2.6-14.3c2.1-5,4.9-9.8,7.5-14.6
	c0.1-0.2,0.4-0.2,0.7-0.4c0.7,1.1,0,1.8-0.4,2.6c-1.3,2.3-2.7,4.6-3.9,6.9c-3.6,7.1-5.8,14.5-4.6,22.5
	C363.6,277.3,363.5,277.5,363.2,278.2z"/>
<path d="M513.1,272.8c-0.9,0.7-1.6,0.8-2.1-0.1c-0.3-0.5-0.5-1.1-0.8-1.6c-1.1-2.8-2.5-5.2-4.6-7.3
	c-1.6-1.6-2.8-3.7-4.2-5.4c-0.7-0.8-1.7-1.3-2.6-2c-0.3-0.3-0.7-0.7-0.8-1.1c-0.1-0.2,0.3-0.8,0.4-0.8c0.5,0,1.1,0.1,1.4,0.4
	c1.4,1.5,2.8,3,4.2,4.6C507.4,263.5,510.9,267.6,513.1,272.8z"/>
<path d="M373.6,260.3c-1.2,5.6-2.6,11.2,0.1,16.9c-0.5,0.8-1.2,0.8-1.7-0.1c-0.5-0.7-0.9-1.5-1-2.3
	c-0.7-4.8-0.3-9.6,1.6-14.1c0.1-0.2,0.2-0.5,0.3-0.7C373.1,260,373.4,260.2,373.6,260.3z"/>
<path d="M505.8,270.7c-1.8,0.3-2.3-0.6-2.8-1.3c-1.5-1.9-3-4-5.3-5.1c-0.4-0.2-0.4-1-0.7-1.5c0.5-0.1,1.3-0.4,1.6-0.1
	C501.1,265.1,503.8,267.3,505.8,270.7z"/>
<path d="M571.1,255.3c-0.4-0.3-0.9-0.4-1-0.7c-2.4-4.3-6.1-7.3-10-10.2c-2.4-1.8-4.9-3.5-7.4-5.1
	c-0.7-0.5-1.6-0.7-2.4-0.8c-1.1-0.1-1.2-0.8-1.1-1.7c1.7-0.8,2.9,0.5,3.9,1.3c4.7,3.4,9.3,7,13.8,10.7c1.4,1.2,2.6,2.7,3.8,4.2
	C571.2,253.3,571.7,254.1,571.1,255.3z"/>
<path d="M554.3,246.8c1.8-0.1,4.3,1.4,7,4.1c0.9,0.9,2.3,1.5,2.2,3.1c-0.3,0.1-0.5,0.1-0.6,0.1
	c-0.2-0.1-0.5-0.2-0.7-0.3C560.1,250.9,557,249,554.3,246.8z"/>
<path d="M109,288.9c-0.3-1.7-0.1-3.6,0.6-5.3c1.2-2.7,2.4-5.3,3.7-7.9c0.2-0.5,0.5-0.9,0.9-1.3
	c5.6-6,11.7-11.4,19.2-14.8c1.4-0.7,3-1,4.5-1.6c0.1,0.2,0.2,0.4,0.3,0.6c-1.2,0.6-2.4,1.3-3.7,1.9c-4.7,1.9-8.6,5-12.4,8.2
	c-3.3,2.7-6.7,5.7-8.7,9.6C111.6,281.6,110.4,285.3,109,288.9z"/>
<path d="M248.5,279.6c-0.1-3.9-2.1-7.2-3.5-10.7c-1.2-2.9-2.2-5.9-3.4-8.9c-0.8-2-1.7-3.9-2.5-5.9
	c-0.3-0.7-0.6-1.5-0.9-2.5c1.8,0.2,2.1,1.4,2.5,2.3c1.9,4.5,3.7,9.1,5.5,13.6c1,2.5,2,4.9,2.9,7.4
	C249.6,276.8,249.4,277.6,248.5,279.6z"/>
<path d="M120.8,278.2c3.9-5.9,10.1-8.4,16.1-11.3c0.1,0.2,0.2,0.3,0.4,0.5c-0.5,0.5-1.1,1-1.7,1.4
	c-1.2,0.8-2.4,1.6-3.8,2.2c-3.8,1.7-7.2,4-9.9,7.1c-0.2,0.2-0.5,0.4-0.8,0.5C121,278.5,120.9,278.4,120.8,278.2z"/>
<path d="M234.8,260.7c1.9,5.1,3.7,9.6,5.5,14.4c-1.3,0.1-1.7-0.6-2-1.2c-1.4-4-2.7-8.1-4-12.1
	C234.3,261.7,234.5,261.5,234.8,260.7z"/>
<path d="M151.7,174.4c-0.4,0.4-0.8,0.8-1.7,1.7c-0.2-0.6-0.4-1-0.5-1.4c-1.1-3.1-2.4-6.1-3.2-9.2
	c-1.6-5.6-2.9-11.3-4.3-16.9c-0.1-0.4,0-0.8,0.1-1.7c0.6,0.8,1,1.1,1.1,1.5c0.8,2.7,1.5,5.4,2.2,8.2c1.2,4.4,2.2,8.8,3.6,13.2
	C149.4,171.3,150.7,172.7,151.7,174.4z"/>
<path d="M950,124.1c-1.1,0.7-1.7,1.3-2.4,1.5c-0.3,0.1-0.8-0.8-1.2-1.2c0.6-0.5,1.1-1.2,1.8-1.4
	C948.5,122.8,949.1,123.5,950,124.1z"/>
<path d="M230.6,109.2c-0.4,1.1-1,1.8-2.2,1.4c-0.8-0.3-0.6-1.1-0.2-1.7C228.7,107.9,229.2,108,230.6,109.2z"/>
</svg>
