<?xml version="1.0" encoding="utf-8"?>
<!DOCTYPE svg PUBLIC "-//W3C//DTD SVG 1.1//EN" "http://www.w3.org/Graphics/SVG/1.1/DTD/svg11.dtd">
<svg version="1.1" id="stones-meet-head" xmlns="http://www.w3.org/2000/svg" xmlns:xlink="http://www.w3.org/1999/xlink" x="0px" y="0px"
	 width="1000px" height="250px" viewBox="0 0 1000 250" style="enable-background:new 0 0 1000 250;" xml:space="preserve">
<style type="text/css">
<![CDATA[
	.st0{fill-rule:evenodd;clip-rule:evenodd;fill:#E6AC27;}
	.st1{fill-rule:evenodd;clip-rule:evenodd;fill:#BABABA;}
	.st2{fill-rule:evenodd;clip-rule:evenodd;}
	.st3{fill-rule:evenodd;clip-rule:evenodd;fill:#BF4D28;}
	.st4{fill-rule:evenodd;clip-rule:evenodd;fill:#F6F7BD;}
	.st5{fill-rule:evenodd;clip-rule:evenodd;fill:#939393;}
	.face-a { fill:#DBE6EC; }
	.face-b { fill:#A4BCC2; }
	.face-c { fill:#A4BCC2; }
]]>
</style>
<path class="st2" d="M525.5,84.3c4.7-4.4,9.5-8.5,13.8-13.1c5.5-5.8,10.6-12,16-17.9c2.8-3.1,5.9-5.9,8.7-9.1
	c1.3-1.5,2.3-3.3,2.9-5.1c0.6-1.7-0.1-3.5-1-5.2c-2.1-4-1.6-7.2,1.4-10.1c2.8-2.7,7.8-3.7,10.8-1.9c2.8,1.6,4.9,3.9,6.2,6.9
	c1.5,3.2,0,6.9-3.2,8.4c-2,0.9-4,1.9-6.3,1.6c-1.6-0.2-2.5,0.7-2.7,2.3c-0.6,4.6-1.2,9.2-1.7,13.9c-0.1,0.6,0.1,1.1,0,1.7
	c-0.5,5.4,0.1,10.8,0.5,16.2c0.3,3.5,0.4,7,0.5,10.6c0.2,7.1,0.9,14.1,3.2,20.8c0.9,2.6,0.2,5.2-0.9,7.5c-1.3,2.8-2,5.8-2.3,8.8
	c-0.8,8.4-1.4,16.8,0.8,25.2c2.5,9.9,4.5,19.9,6.6,29.8c0.7,3.3,1.1,6.8,1.2,10.2c0.3,6.2-2.2,11.3-7,15.2c-1.5,1.2-3.1,2.2-4.8,3.1
	c-6.3,3.4-13,5.8-19.8,8c-3.2,1-6.7,1.5-10,2.1c-5.7,1-11.4,2.1-17.2,2.9c-9.2,1.2-18.3,2.2-27.5,3.2c-6.3,0.6-12.7,0.9-19.1,1.3
	c-10.7,0.7-21.3,0-32-0.6c-7.8-0.5-15.6-0.9-23.4-1.8c-5.5-0.6-10.8-2.5-15.5-5.5c-1.7-1.1-3.3-2.7-4.4-4.4
	c-4.6-6.6-7.4-13.9-8.1-22c-0.6-6.7-1.3-13.4-1.1-20.2c0.5-13.5,3.3-26.4,10.1-38.3c2.9-5,4.9-10.5,7.2-15.8
	c0.3-0.6,0.4-1.3,0.3-1.9c-0.3-5.6,2.2-10.3,4.8-15c2.1-3.9,4-8,5.9-12c0.9-1.9,1.5-2.4,3.5-1.7c1.6,0.5,3.2,1.3,4.7,2
	c1.6,0.8,3.2,1.3,4.9,0.3c0.5-0.3,1.1-0.4,1.7-0.4c2.5-0.2,4.5-1.4,6.4-2.9c3.1-2.4,6.4-4.3,10.5-4.7c3.7-0.3,7.1-1.9,10.1-4.4
	c1.3-1.1,3-1.7,4.7-2.6c0.8,0.9,1.6,1.8,2.3,2.6c1.9,2.2,4.3,2.3,6.4,0.2c3.3-3.4,5.2-7.7,7.5-11.8c0.9-1.7,2-3.3,2.9-4.9
	c1-1.7,2-3.5,2.9-5.2c2-3.9,4-7.8,6-11.7c2-4.1,4-8.2,5.9-12.4c1.1-2.4,1-3-1.1-4.6c-2.3-1.6-3.2-4-3.7-6.5c-0.1-0.6-0.2-1.4,0-2
	c2.2-6.4,7.2-11.3,15.2-8.5c1.8,0.6,3.5,1.5,5.2,2.3c1.9,1,3.1,2.5,3.5,4.6c0.9,4.1,0.8,8-2.4,11.2c-0.6,0.6-1.2,1.3-2,1.6
	c-1.6,0.5-2.1,1.7-2.4,3.2c-1,4.2-0.2,8.4,0.2,12.5c0.7,5.9,1.7,11.9,2.6,17.8c0.2,1.3,0.6,2.6,1,3.9c1.3,4.2,2.5,8.4,3.8,12.6
	C520.1,78.3,522.3,81.4,525.5,84.3z M412.9,111.6c-1.4,2.9-2.9,5.9-4.3,8.9c-1,2.1-1.9,4.1-3,6.1c-1.8,3.3-3.7,6.6-5.5,10
	c-0.3,0.5-0.4,1.1-0.5,1.6c-0.9,3.5-1.6,7-2.7,10.5c-1.6,4.7-2.2,9.4-2.6,14.3c-0.4,4.9-0.3,9.7,0,14.5c0.3,4.3,0.4,8.6,0.9,12.8
	c0.2,1.9,1.1,3.8,1.7,5.7c0.3,0.9,0.7,1.8,1,2.7c1.8,4.7,3.8,9.4,8.3,12.4c2,1.3,3.9,2.7,6.1,3.6c4,1.6,8.1,2.8,12.4,3
	c12.4,0.6,24.7,1.2,37.1,1.8c11.5,0.6,22.8-0.9,34.2-1.9c5.1-0.5,10.2-1,15.3-1.6c5.9-0.7,11.7-1.4,17.5-2.3c4.7-0.7,9.3-1.8,14-2.8
	c2.6-0.5,5.3-1,7.7-1.9c6-2.3,11.9-4.7,17.7-7.2c5.2-2.3,8.3-6.7,9.6-12.1c1.1-4.6-0.1-9.1-0.9-13.6c-1.8-11-5.7-21.5-9.1-32.1
	c-0.1-0.3-0.2-0.5-0.3-0.8c-0.4-1.3-1.3-2-2.7-2.1c-3.4-0.3-6.8-0.6-10.2-0.9c-6.8-0.7-13.6-1.4-20.4-2.2c-4.3-0.5-8.7-1.1-13-1.7
	c-4.8-0.6-9.6-1-14.4-1.9c-9.6-1.9-19.2-4.1-28.7-6.1c-4.8-1-9.8-1.7-14.5-3c-10.9-3-21.7-6.3-32.6-9.4
	C425.2,114,419.4,112,412.9,111.6z M464.1,71.6c-1.2,1-2.2,1.6-3,2.5c-2.7,3.5-6.3,5.2-10.6,5.5c-3,0.2-5.5,1.4-7.9,3
	c-2.2,1.5-4.4,3.1-6.6,4.5c-2.9,1.8-6,2.3-9.2,0.4c-0.7-0.4-1.3-0.7-2-1.1c-2.1-1.1-2.8-0.9-3.9,1.2c-1.5,2.9-2.9,5.8-4.3,8.7
	c-0.8,1.7-1.8,3.4-2.5,5.1c-0.8,1.8-0.3,3,1.4,3.8c4.4,2,8.9,3.9,13.4,5.7c2.7,1.1,5.6,1.8,8.5,2.6c4.6,1.4,9.3,2.9,13.9,4.3
	c2.6,0.8,5.3,1.4,8,2.1c4.6,1.3,9,3.1,13.7,4.1c7.3,1.6,14.8,2.8,22.2,4.2c4.1,0.8,8.2,1.5,12.4,2.2c1.9,0.3,3.8,0.4,5.7,0.6
	c7,1,13.9,2.2,20.9,3.2c5.7,0.8,11.5,1.4,17.2,2c4.1,0.4,8.1,0.8,12.2,0.9c2.5,0.1,2.8-0.3,3.1-2.7c0.8-5.1,1.3-10.2,2.2-15.3
	c0.4-2.3,0.9-4.7,1.8-6.8c1.1-2.8,1.8-5.5,1.1-8.6c-0.9-3.5-1.6-7.1-2.2-10.6c-1.4-8.1-1.7-16.3-1.4-24.5c0.4-8.3,0.7-16.5,1.1-24.8
	c0-0.3-0.1-0.6-0.2-1.3c-3.5,3.5-6.5,6.9-9.8,10c-4.4,4.2-8.2,9-12.2,13.6c-2.6,2.9-5,6-7.7,8.7c-3.5,3.6-7.2,7.1-10.9,10.5
	c-1.5,1.4-3.2,2.8-5,3.8c-2.6,1.5-4.6,0.6-5.5-2.2c-0.5-1.4-0.8-2.9-1.1-4.4c-0.8-4.1-1.4-8.3-2.3-12.4c-1.1-5.5-2.5-10.9-3.6-16.4
	c-0.5-2.3-0.7-4.7-1-7.1c-0.4-3.9-0.6-7.8-1.1-11.7c-0.4-2.9-1.1-5.8-1.8-8.7c-0.5-2-2.8-2.4-4.2-0.9c-0.4,0.5-0.8,1.1-1.1,1.7
	c-1.4,2.8-2.4,5.9-4.1,8.5c-5.2,7.9-8.6,16.8-13.5,24.8c-2.8,4.5-5.3,9.2-8.4,13.5c-1.2,1.6-2.5,2.8-4.1,3.7c-1.9,1.1-2.4,1-3.8-0.8
	C466.6,75.2,465.5,73.6,464.1,71.6z M510.3,22.4c1.2-0.4,2.7-0.6,3.7-1.4c3.3-2.7,2.9-9.2-0.7-11.5c-1.7-1.1-3.7-1.8-5.7-2.6
	c-1.3-0.5-2.7-0.5-3.8,0.5c-2,1.9-4,3.8-3.6,7c0.4,3.3,1.7,5.8,5.1,6.8C506.9,21.8,508.5,22,510.3,22.4z M575.6,23.8
	c-3.2-0.1-4.5,1-5.7,3.9c-1.1,2.7-0.8,3.8,1.5,5.7c1.2,0.9,2.5,1.6,3.8,2.4c1.8,1.1,4,0.7,6-0.8c1.5-1.2,2.1-3.2,1.2-5.2
	c-1.1-2.3-2.6-4.4-5-5.6C576.7,23.9,575.9,23.9,575.6,23.8z"/>
<path class="st2" d="M691.9,199.1c-4.2-0.3-8.4-0.3-12.5-0.9c-7.3-1.1-12.6-5-15.4-12c-1.8-4.4-0.9-8.6,2.8-11.7
	c3.2-2.7,6.5-5.3,9.9-7.7c3.3-2.2,6.1-4.8,8.7-7.8c1.7-1.9,3.4-3.8,5.3-5.6c3.3-3.1,7.2-4.8,11.8-5c6.4-0.4,12.5,0.8,18.6,2.5
	c3.3,0.9,6.5,2.2,9.9,2.8c6,1.1,11.8,0.6,16.7-3.5c7.8-6.5,16.5-11.6,26.1-15.1c3.5-1.3,7.4-1.6,11.1-2.7c4.3-1.3,8.5-2.8,12.6-4.4
	c2.4-0.9,4.7-2.1,7.1-3.1c4.7-1.9,9.4-1.1,14,0.1c4.7,1.2,8.7,3.9,12.6,6.5c4.1,2.8,7.8,6,11.7,9.1c1.2,0.9,2.3,2.1,3.6,2.9
	c4.1,2.4,6.3,6.3,8.3,10.3c2.2,4.4,4.2,8.9,6.4,13.4c2,4.1,3.5,8.2,3.5,12.8c0,1.9,0.2,3.8,0.6,5.7c1.2,4.8-0.6,8.9-3.2,12.6
	c-1.4,2.1-3.4,3.8-5.4,5.4c-5.3,4.3-11.5,6.8-17.9,9.2c-5.8,2.1-11.7,3.2-17.7,4.4c-1.6,0.3-3.2,0.6-4.8,0.5
	c-4.6-0.1-9.1,0.8-13.6,1.4c-8.1,1.2-16.3,1.5-24.5,1.1c-4.3-0.2-8.6-0.2-12.8-0.4c-3.7-0.1-7.4-0.3-11.1-0.6
	c-5.1-0.4-10.2-0.9-15.3-1.6c-4-0.6-8.1-1.2-12.1-2.3c-5.2-1.4-9.4-4.5-12.7-8.7c-0.9-1.2-1.6-2.6-1.9-4.1c-0.4-1.5-1.1-2-2.5-2.3
	c-3.9-1-7.9-1.4-11.9-1.4c-2,0-4,0-6,0C691.9,199,691.9,199.1,691.9,199.1z M776.9,216.5c0-0.1,0-0.1,0-0.2c3.1,0,6.3,0.1,9.4,0
	c6.4-0.4,12.7-0.9,19.1-1.4c5-0.3,10.1-0.2,15.1-0.9c7.2-1,14.2-2.8,21.1-4.9c6.6-2,12.2-5.4,16.8-10.4c2.7-3,4.1-6.6,3.9-10.7
	c-0.2-2.9-0.4-5.9-0.8-8.8c-0.4-2.3-0.8-4.7-1.7-6.9c-2.6-5.9-5.5-11.7-8.2-17.6c-1.7-3.9-4.5-6.8-7.7-9.4c-3.1-2.6-6.5-4.9-9.7-7.5
	c-2.2-1.8-4.4-3.3-7.1-4.2c-3.1-1.1-6.2-2-9.1-3.3c-4.7-2-9.2-1.6-13.9-0.1c-4.9,1.6-9.8,3.1-14.8,4.5c-2,0.6-4.1,0.7-6.2,1.1
	c-4.8,0.9-9.3,2.8-13.8,4.5c-9.2,3.5-16.5,9.7-23.8,15.9c-0.4,0.3-0.6,0.7-0.9,1.1c-2.9,4.1-5.9,8.2-8.8,12.3
	c-2.6,3.6-5.1,7.4-7.7,11c-2.9,4-6.1,7.8-9,11.8c-1.4,2-2.4,4.3-3.4,6.6c-0.7,1.5-0.6,3.2,0.3,4.7c2.2,3.5,5.1,6.3,9.1,7.5
	c4.1,1.2,8.3,1.9,12.5,2.8c1.9,0.4,3.8,0.6,5.6,1c6.8,1.3,13.7,2.3,20.7,2.2C768.4,216.9,772.6,216.7,776.9,216.5z M706.4,150.8
	c-5.2,0.2-9.2,0.7-12.5,3.5c-1.8,1.5-3.6,3-5.3,4.8c-3.3,3.6-6.5,7.2-10.5,10c-3.4,2.4-6.7,5-10,7.5c-2.8,2.1-3.3,4.7-2.2,7.8
	c1.2,3.2,2.9,6.2,5.8,7.9c4.2,2.5,9.1,3.4,14,3.5c8.6,0.2,17.1-0.2,25.6,1.5c1.3,0.3,2.2-0.3,2.7-1.5c0.6-1.2,1.2-2.4,1.9-3.5
	c3-4.2,6-8.4,9-12.5c3.5-4.9,7-9.7,10.5-14.6c0.9-1.2,1.8-2.5,2.6-3.8c0.6-0.9,0.4-1.9-0.7-2.3c-1.7-0.7-3.3-1.5-5-2
	c-5.9-1.7-11.9-3.5-17.8-5C711.4,151.4,708.4,151.1,706.4,150.8z"/>
<path class="st2" d="M218.7,221.5c-13.6,0.2-25.2,0.4-36.8,0.5c-4.3,0-8.6,0-12.8-0.1c-0.8,0-1.5,0-2.3-0.2
	c-3.7-0.8-7.5-1.1-11.3-1.3c-9.4-0.5-18.5-2.5-27.4-5.4c-4.3-1.4-8.8-2.3-13.2-3.6c-3.6-1.1-7.4-1.8-10.4-4.4
	c-2.4-2-3.3-4.6-3.9-7.4c-1.1-5.6-0.3-11.2,0.9-16.7c1-4.6,2.7-8.9,4.5-13.2c0.4-0.9,0.7-1.8,1.2-2.6c2.9-5.3,5.6-10.8,8.9-15.9
	c3.1-4.9,7-9.2,11.7-12.7c0.4-0.3,0.8-0.5,1.3-0.7c3.6-1.6,7.3-3.3,10.9-4.9c1-0.4,2.2-0.7,3.3-0.9c5.7-0.7,11.3-1.4,17-2.1
	c1.2-0.1,2.5-0.1,3.7-0.1c9.3-0.1,18.6,1,27.9,1.8c5.9,0.5,11.7,1.7,17.5,2.6c1.4,0.2,2.8,0.5,4.2,0.6c8.3,0.8,15.5,4.5,22.1,9.2
	c5.1,3.6,10,7.1,16.1,8.9c3.7,1.1,7.2,2.9,10.4,5.3c2.8,2,5.9,3.4,8.8,5.2c4.4,2.8,8.4,6,10.6,10.9c0.8,1.7,1.9,3.3,2.8,5
	c0.8,1.4,1.4,2.9,2,4.4c0.4,0.9,0.9,1.9,1.3,2.8c0.3,0.6,0.7,1.2,0.7,1.8c0.1,2.2,0,4.4,0.1,6.5c0.2,3.2-0.7,6.2-1.5,9.2
	c-0.6,2-1.9,3.4-3.4,4.8c-3.5,3.4-7.9,5-12.4,6c-6,1.3-12.2,2.2-18.2,3.6c-7.2,1.6-14.5,1.7-21.8,2.2
	C226.4,221.1,221.6,221.3,218.7,221.5z M166.7,133.1c-4.5,0.3-7.8,0.2-11.1,0.8c-5.9,1.1-11.7,2.3-17.4,4.5
	c-6.1,2.4-11.2,5.8-14.8,11.2c-2.6,4-6.2,7.3-7.9,11.8c-0.1,0.3-0.3,0.5-0.5,0.7c-3.7,4.8-6.4,10.1-8,16c-0.5,1.8-1.3,3.6-1.5,5.5
	c-0.6,4.9-1.3,9.8-1.4,14.7c-0.1,4.6,3,8.1,7.4,9.3c2.2,0.6,4.4,1.1,6.6,1.8c6.4,1.8,12.8,3.6,19.3,5.3c1.6,0.4,3.3,0.8,5,1
	c5.8,0.6,11.6,1,17.3,1.8c7.5,1.1,15,1.3,22.5,1.1c14.8-0.3,29.5-0.2,44.3-0.8c8.5-0.3,17.1,0.2,25.5-2c0.3-0.1,0.6-0.1,0.9-0.1
	c4.4-0.7,8.8-1.4,13.2-2.2c4.7-1,9.1-2.6,13-5.7c3.4-2.6,5-6.2,5.9-10.1c0.4-1.8,0.7-3.7-0.8-5.4c-0.5-0.6-0.5-1.6-0.6-2.4
	c-0.2-1.2-0.3-2.5-0.7-3.6c-1-3.4-2.2-6.6-4.3-9.6c-1.8-2.5-3.5-5-5.9-6.9c-2.3-1.8-4.7-3.5-6.9-5.5c-3.1-2.7-6.6-4.5-10.4-5.9
	c-5.4-1.9-10.7-4.1-15.3-7.6c-1.6-1.2-3.2-2.4-4.8-3.5c-7.2-4.6-14.6-8.5-23.4-9.2c-4.2-0.3-8.3-1.4-12.4-1.9
	c-4.5-0.6-9.1-0.9-13.6-1.3C179,134.2,172.3,133.6,166.7,133.1z"/>
<path class="st2" d="M252.7,74c4.9-1.8,7.2-6.3,11.2-8.6c1.4,1.1,0.8,2,0,2.8c-2.4,2.4-4.9,4.8-7.3,7.2c-0.3,0.3-0.8,0.6-1.1,0.9
	c-1.5,1.3-1.8,2.1-0.5,3.6c2.2,2.5,4.7,4.7,7.1,6.9c0.5,0.5,1.3,0.8,1.8,1.3c0.8,0.7,0.8,1.4,0.2,2.3c-0.6,0.8-1.4,1.1-2.2,0.6
	c-0.7-0.4-1.3-1-2-1.6c-1.9-1.5-3.7-2.9-5.6-4.4c-0.4-0.3-1-0.4-1.9-0.7c-0.2,1.2-0.5,2.2-0.5,3.1c0,1.6,0.1,3.2,0.3,4.8
	c0.3,2.3,0.3,2.3-2.4,3.5c-1.6-2.6-0.2-5.7-1.3-9c-1.1,1-1.9,1.5-2.5,2.3c-1.6,1.9-3.1,3.8-4.7,5.8c-0.5,0.6-0.9,1.4-1.5,1.7
	c-0.6,0.3-1.6,0.5-2,0.2c-0.4-0.3-0.6-1.3-0.5-2c0.1-0.6,0.6-1.2,1-1.7c2-2.3,4-4.6,6-6.9c0.4-0.5,1-1,1.2-1.5
	c1.4-2.8,2.4-4.5-1.5-6.4c-1.1-0.5-2.1-1.3-3.1-2.1c-0.8-0.6-1.4-1.5-0.7-2.4c0.7-0.8,1.6-0.3,2.3,0.2c1.2,0.8,2.3,1.7,3.6,2.3
	c2.5,1.3,3.2,0.8,3.4-1.9c0.2-1.9,0.3-3.8,0.4-5.7c0-0.3,0-0.6,0-0.9c0.1-1-0.1-2.4,1.4-2.3c1.4,0.1,1.1,1.5,1.2,2.5
	c0.1,1.1,0,2.3,0,3.4C252.5,72.2,252.6,72.9,252.7,74z"/>
<path class="st2" d="M256.5,49.2c-2.2,0.2-4.3,0.4-6.4,0.5c-1.8,0.1-2.5-0.4-2.5-1.9c-0.1-3.7-0.1-7.4-0.1-11.1
	c0-3.8,1.8-6.3,5.2-7.7c2.7-1.2,5.2-0.7,7.5,1c1.9,1.4,2.2,3,1.3,5.2c-1.1,2.7-0.9,3.1,2,3.9c1.5,0.4,3.1,0.9,4.6,1.6
	c1.6,0.7,3,1.8,2.7,3.9c-0.3,2-1.5,3.3-3.4,3.8c-1.8,0.5-3.7,0.7-5.6,0.9C260,49.3,258.1,49.2,256.5,49.2z M256.8,46.9
	c0.6,0,1.6,0,2.7-0.1c1.3-0.1,2.7-0.2,3.9-0.5c1.2-0.3,3-0.2,3.1-1.9c0.1-1.5-1.5-1.8-2.7-2.1c-2.1-0.5-4.3-0.7-6.4-1.4
	c-1.5-0.5-2.7-0.5-4.1-0.1c-2.9,0.8-3.2,1.3-2.5,4.2c0.3,1.3,1,2,2.4,2C254.2,46.9,255.3,46.9,256.8,46.9z M250.4,36.1
	c0,1.6,0.5,2.3,1.9,2.2c2.2-0.3,4.2-1,5.6-2.9c1.2-1.7,0.7-3.3-1.3-3.9C253.6,30.4,250.5,32.7,250.4,36.1z"/>
<path class="st2" d="M298,48.4c-0.4,0.3-0.8,0.7-1.2,0.7c-3-0.1-6.1,0-9.1-0.6c-4.7-1.1-7.1-5.2-6.1-10c0.8-3.8,2.8-6.9,5.8-9.3
	c3.3-2.7,7.9-2.3,10.3,1.2c1.3,1.9,2.1,4.3,2.6,6.5c0.5,2.2-1.2,3.6-3.7,3.6c-2.3,0-4.6,0.1-6.8,0.2c-0.8,0-1.5,0.1-2.3,0.3
	c-1.9,0.5-2.4,1.9-1.1,3.4c0.7,0.8,1.9,1.4,2.9,1.6c1.9,0.5,3.9,0.7,5.9,1C296.3,47.1,297.5,46.9,298,48.4z M288,38.3
	c2.2-0.3,4.5-0.6,6.8-0.9c1-0.2,2-0.6,2.1-1.9c0.3-3.4-2.7-5.9-5.9-4.9c-2.6,0.8-4.3,2.6-5.1,5.2C285.4,37.6,285.9,38.3,288,38.3z"
	/>
<path class="st2" d="M204.7,55.3c-0.1-1-0.4-2-0.3-3c0.5-6.5,1-13.1,1.5-19.6c0.1-1.6,0.6-2.7,2.3-3.1c1.3-0.3,2.5-1,3.8-1.3
	c4.5-0.9,8.2,1.7,8.8,6.2c0.2,1.1,0.1,2.3,0,3.4c-0.3,3.2-2.2,5.2-5.3,5.9c-2.1,0.4-4.3,0.6-6.6,0.9c-1.3,2-1,4.4-1,6.8
	C207.9,54.2,207.8,54.4,204.7,55.3z M211.6,41.3c2.4,0,4.4,0,5.4-2.1c0.9-2,0.8-4.1-0.1-6.1c-0.8-1.7-2.6-2.3-4.6-1.9
	c-2.2,0.5-3,1.3-3.2,3.4c-0.2,1.4-0.3,2.8-0.4,4.2c-0.1,1.5,0.3,2.1,1.8,2.3C210.9,41.3,211.5,41.3,211.6,41.3z"/>
<path class="st2" d="M356.9,64.2c-1.6-0.2-2-1-2.1-2c-0.8-6.3,2.2-10.7,7.8-12.7c3.4-1.2,8,1.3,8.9,4.8c0.5,1.9,0.6,4,0.3,5.9
	c-0.9,4.9-2.6,9.5-5.5,13.7c-1.5,2.1-2.9,4.3-3.2,6.9c0,0.4-0.1,0.8-0.4,1c-0.4,0.3-0.9,0.7-1.4,0.7c-0.3,0-0.8-0.7-0.7-1
	c0.1-1.3,0.1-2.7,0.5-3.9c1.1-3,2.5-6,3.8-8.9c1.1-2.4,2.2-4.9,3.1-7.3c0.5-1.3,0.8-2.8,0.8-4.2c0-3.2-3.3-5.5-6.2-4.1
	c-3.9,1.8-5.6,2-5.6,7.8C356.9,61.9,356.9,63,356.9,64.2z"/>
<path class="st2" d="M301,78.8c-1.4-0.1-2.3-0.2-3.2-0.2c-0.7,0-1.4,0.4-1.9,0.3c-0.6-0.2-1.5-0.7-1.6-1.2c-0.1-0.5,0.5-1.6,0.9-1.7
	c2.5-0.6,5-1,7.6-1.3c1.4-0.1,2.1,0.7,2,2.2c-0.1,1.1-0.5,2.2-0.8,3.3c-0.6,1.8-0.6,2.3,1.1,2.9c3.7,1.2,4.9,4.1,5.1,7.5
	c0.2,2.2-0.1,4.6-0.5,6.8c-0.4,2.2-1.9,3.8-4.1,4.4c-2.8,0.7-5.6,1.3-8.4,1.9c-1.1,0.2-2.4,0.5-2.9-1c-0.3-1,0.5-1.7,2.6-2
	c1.5-0.2,3-0.2,4.5-0.5c2.3-0.4,4.6-0.9,5.4-3.5c1-3.1,1.4-6.2-0.8-9c-0.4-0.5-1-0.9-1.6-1.1c-0.7-0.3-1.5-0.4-2.2-0.6
	c-4-1-4.3-1.8-2.1-5.1C300.4,80.3,300.6,79.9,301,78.8z"/>
<path class="st2" d="M210.2,80c1.5-1,2.4-1.7,3.4-2.4c1.7-1.1,3.3-2.3,5-3.3c0.9-0.5,1.9-0.6,2.5,0.5c0.5,1-0.1,1.6-0.8,2.1
	c-1.2,0.8-2.4,1.6-3.5,2.4c-2.1,1.4-2.3,2.4-0.8,4.4c1,1.3,2.2,2.3,3.3,3.5c0.6,0.6,1.4,1.2,1.7,1.9c0.3,0.7,0.4,1.7,0,2.3
	c-0.6,0.9-1.5,0.4-2.2-0.2c-1.6-1.5-3.1-3.1-4.7-4.6c-0.3-0.3-0.6-0.8-1-1.1c-0.7-0.5-1.7-1.3-2-1.1c-0.8,0.5-1.5,1.4-1.9,2.3
	c-0.3,0.7-0.2,1.7-0.2,2.5c0,1.1-0.4,1.8-1.4,2.3c-1,0.5-1.7,0.2-2-0.8c-0.2-0.8-0.2-1.7-0.2-2.5c0.4-4.4,0.8-8.7,1.2-13.1
	c0.1-1,0.2-2,1.5-2c1.2,0,1.5,1.1,1.6,2C210,76.5,210.1,77.9,210.2,80z"/>
<path class="st2" d="M236,40.3c-0.8,0.7-1.7,1.4-2.4,2.2c-1.3,1.3-2.6,2.8-4,4.1c-0.5,0.5-1.7,0.9-2.2,0.6c-0.6-0.3-1-1.4-1-2.1
	c0.1-4.3,0.3-8.5,0.4-12.8c0-0.4,0-0.8,0.2-1.1c0.3-0.4,0.8-1,1.2-1c0.4,0,1.1,0.6,1.2,1c0.2,1.3,0.3,2.6,0.3,4
	c0.1,1.9,0.1,3.7,0.1,5.8c2.1-0.5,2.9-1.9,3.7-3c0.8-1.1,1.5-2.4,2.4-3.6c1.3-1.8,2.6-1.7,3.5,0.4c0.2,0.5,0.4,1.1,0.5,1.6
	c0.4,2.9,0.7,5.8,1,8.8c0.1,0.6,0.2,1.3-0.1,1.7c-0.4,0.6-1.1,1.4-1.8,1.6c-1,0.2-1.5-0.7-1.6-1.6c-0.1-1-0.2-2.1-0.3-3.1
	c-0.1-1-0.3-2-0.4-3C236.5,40.5,236.2,40.4,236,40.3z"/>
<path class="st2" d="M194.1,38.3c0.3-2.3,0.8-4.9,1.1-7.4c0.4-3.1-0.3-3.8-3.4-3.6c-0.7,0.1-1.3,0.1-2,0.2c-2,0.1-3.1,1.2-3.5,3.1
	c-0.6,2.9-1.2,5.8-1.8,8.6c0,0.2,0,0.4-0.1,0.6c-0.3,1-0.6,2.3-1.9,2c-1.2-0.2-1-1.4-0.9-2.4c0-0.5,0.2-0.9,0.3-1.4
	c0.8-4,1.7-8,2.5-12c0.4-2.2,0.9-2.6,3-2.5c2.7,0.2,5.3,0.3,8,0.5c2.3,0.1,2.9,0.6,2.9,2.9c0,1.8-0.3,3.6-0.4,5.4
	c-0.1,2.5-0.2,4.9-0.3,7.4c0,0.6,0.2,1.3-0.1,1.7c-0.4,0.6-1.1,1.3-1.6,1.3c-0.5,0-1.3-0.7-1.5-1.3C194,40.5,194.2,39.5,194.1,38.3z
	"/>
<path class="st2" d="M338.9,81.6c1.4-0.2,2.3-0.3,3.2-0.4c2.9-0.2,5.2,0.8,6.7,3.4c1.5,2.5,0.7,5.8-1.7,7.3
	c-1.9,1.1-3.9,1.8-6.2,1.6c-4.8-0.6-4.9-0.5-5.1-5.3c-0.2-3.4-0.2-6.8-0.3-10.2c0-0.4,0-0.8,0-1.1c0.1-1.1,0.2-2.2,1.6-2.2
	c1.2,0.1,1.4,1.1,1.5,2.1C338.8,78.2,338.8,79.7,338.9,81.6z M342.4,90.8c2.7,0,4.2-1.1,4.2-3.2c0-1.9-1.8-3.4-4.2-3.4
	c-2.2,0-3.4,1.2-3.4,3.3C339.1,89.9,340,90.8,342.4,90.8z"/>
<path class="st2" d="M276.8,88.8c1.9-1.2,2.8-3.1,4.1-4.7c0.8-1.1,1.3-2.3,2.2-3.4c0.4-0.5,1.2-1.1,1.8-1c0.6,0.1,1.3,0.8,1.6,1.3
	c0.3,0.5,0.3,1.3,0.3,1.9c0.3,2.6,0.6,5.3,0.9,7.9c0.1,0.5,0.3,1.1,0.1,1.4c-0.4,0.7-0.9,1.5-1.6,1.7c-1,0.4-1.5-0.5-1.7-1.4
	c-0.3-1.7-0.6-3.3-0.9-5.1c-1.6,0-2.2,1.3-3,2.1c-1,1-1.8,2.3-2.9,3.1c-2.2,1.6-3.9,1-4.3-1.6c-0.5-3.8-0.7-7.6-0.9-11.4
	c0-0.5,0.6-1,0.9-1.5c0.5,0.4,1.3,0.7,1.4,1.2c0.2,1.7,0.4,3.4,0.3,5.1C274.9,86.2,275.4,87.6,276.8,88.8z"/>
<path class="st2" d="M198.9,74.7c0.1,1.2,0.3,2.2,0.4,3.2c0.2,2.3,0.4,4.5,0.7,6.8c0.3,2.1-0.7,3.4-2.7,3.3c-3-0.3-6-0.7-9-1.2
	c-2-0.4-3.4-1.7-3.9-3.8c-0.5-2.1,0.5-3.6,2.1-4.6c1.3-0.9,2.8-1.7,4.3-2.1C193.3,75.6,195.8,75.3,198.9,74.7z M192.1,84.2
	c0.1,0,0.5,0,0.9,0c1.8-0.2,2.4-1.1,2.2-3.2c-0.2-1.5-0.9-2.1-2.5-2c-0.6,0-1.3,0.2-1.9,0.5c-1.9,0.8-2.8,1.9-2.6,2.9
	C188.3,83.6,189.5,84.2,192.1,84.2z"/>
<path class="st2" d="M329.7,80c0,3.5,0,7,0,10.5c0,0.7,0.1,1.5-0.2,1.9c-0.4,0.6-1.2,1.2-1.8,1.1c-0.5,0-1.2-0.9-1.3-1.5
	c-0.3-1.3-0.2-2.7-0.3-4c-0.1-1.2-0.8-1.7-2-1.5c-0.6,0.1-1.1,0.3-1.7,0.4c-1.4,0.3-2.1,1-1.8,2.6c0.3,1.6-0.5,2.6-1.7,2.6
	c-1.1,0-1.9-0.8-1.8-2.4c0.1-3.9,0.2-7.8,0.5-11.7c0-0.6,0.7-1.5,1.2-1.6c1-0.2,1.5,0.7,1.6,1.6c0.1,0.8,0.1,1.7,0.1,2.6
	c0.2,2.3,0.6,2.7,2.4,2.8c2.3,0.1,3.4-0.6,3.7-2.6c0.2-1.4,0.2-2.8,0.5-4.2c0.1-0.4,0.8-0.9,1.2-0.9c0.4,0,0.9,0.6,1.1,1
	c0.2,0.3,0.1,0.7,0.1,1.1C329.6,78.7,329.6,79.3,329.7,80C329.6,80,329.7,80,329.7,80z"/>
<path class="st2" d="M167.7,69.4c1.6,0.9,1.6,2.1,1.5,3.2c0,1.1,0,2.2,0,3.2c1.6,0.6,2.5-0.3,3.3-1c1.4-1,2.7-2.1,4-3.2
	c0.7-0.5,1.5-1.1,2.3-0.3c0.8,1,0,1.8-0.7,2.4c-0.9,0.7-1.8,1.4-2.7,2.1c-1.5,1.2-1.9,2.2-1.1,4c0.8,1.6,1.9,3.1,2.8,4.6
	c0.3,0.4,0.7,0.7,0.9,1.1c0.6,0.9,0.8,1.8-0.2,2.5c-0.8,0.6-1.6,0.2-2.3-0.5c-0.3-0.4-0.6-0.8-0.9-1.1c-0.9-1.3-1.9-2.7-2.8-4
	c-0.5-0.7-1-2-2.1-1.5c-0.8,0.4-1.5,1.4-2,2.2c-0.3,0.4-0.2,1.1-0.3,1.7c-0.2,1.2-0.9,2.1-2.3,2.3c-0.2-0.6-0.7-1.1-0.6-1.6
	c0.6-4.8,1.3-9.6,2-14.4C166.8,70.7,167.3,70.1,167.7,69.4z"/>
<path class="st2" d="M319.8,48.8c-0.5-0.8-1.3-1.6-1.5-2.5c-0.3-1.7-0.4-3.4-0.4-5.1c0-0.8,0.1-1.5,0.1-2.3
	c-0.2-1.8-0.8-2.4-2.6-2.3c-1.1,0-2.3,0.4-3.4,0.4c-0.4,0-1.2-0.4-1.3-0.8c-0.1-0.4,0.3-1.1,0.7-1.4c0.4-0.3,1-0.5,1.6-0.5
	c4.7-0.4,9.5-0.7,14.2-1.1c0.4,0,0.8-0.1,1.1,0.1c0.5,0.3,1,0.8,1.2,1.3c0.1,0.3-0.5,0.9-1,1.2c-0.5,0.2-1.1,0.2-1.7,0.3
	c-0.8,0-1.5,0-2.3-0.1c-2.9,0-3.2,0.3-3.3,3.3c-0.1,2.4,0,4.8-0.1,7.1c0,0.7-0.3,1.4-0.5,2.1C320.4,48.6,320.1,48.7,319.8,48.8z"/>
<path class="st2" d="M252.8,133.9c-0.5-0.6-1-0.9-1.1-1.2c0-0.6,0.1-1.4,0.4-1.9c3.6-5.7,6.1-11.8,8.8-17.9c0.6-1.4,1.4-2.7,2.2-4
	c0.3-0.5,1.2-0.6,1.9-0.8c0.2,0.7,0.7,1.5,0.5,2c-2.1,4.7-4.3,9.3-6.6,13.9c-1.3,2.6-2.7,5.2-4.2,7.7
	C254.3,132.4,253.6,133,252.8,133.9z"/>
<path class="st2" d="M330.6,58.3c0.4-1.6,0.6-3,1.1-4.3c0.2-0.5,0.9-0.8,1.4-1.1c0.3,0.6,1,1.2,0.9,1.7c-0.2,1.4-0.5,2.8-1,4.1
	c-0.2,0.5-1,1-1.4,0.9C331.1,59.6,330.9,58.8,330.6,58.3z"/>
<path class="st2" d="M794.5,230.8c0,1.9-1.3,3.2-2.5,3c-0.5-0.1-1.2-0.9-1.3-1.4c-0.2-1.1,1.8-3,2.7-2.7
	C794,229.9,794.3,230.6,794.5,230.8z"/>
<path class="st2" d="M359,94.2c1.1-0.1,2,0.8,2,2c0.1,1.1-0.7,2-1.8,2.1c-1.2,0.1-1.7-0.6-1.7-1.7C357.5,95.4,357.8,94.4,359,94.2z"
	/>
<path class="st2" d="M203.4,241.6c0.3,0.3,1,0.9,1.2,1.5c0.3,1-0.8,2.1-1.9,2c-1.1-0.1-1.8-0.7-1.9-1.7
	C200.6,242.4,201.7,241.6,203.4,241.6z"/>
<path class="st2" d="M209.7,234c-0.3-0.4-1.1-0.8-1.2-1.5c-0.3-1.1,0.9-2.4,1.9-2.3c1.2,0.1,1.5,1,1.6,2
	C212.1,233.4,211.2,233.9,209.7,234z"/>
<path class="st2" d="M167.3,233.1c-1.2,2.1-2.6,2.4-3.8,0.9c-0.3-0.4-0.5-1.1-0.3-1.5c0.2-0.4,0.8-0.7,1.3-0.8
	C165.4,231.5,166,231.9,167.3,233.1z"/>
<path class="st2" d="M188.6,232c-1.2,0.6-1.8,1.2-2.5,1.3c-1,0.1-1.8-0.6-1.8-1.7c-0.1-0.9,1-2.1,1.7-1.8
	C186.8,230.2,187.4,231,188.6,232z"/>
<path class="st2" d="M235.6,236.2c-0.9-0.8-1.8-1.2-2.2-1.9c-0.4-0.7,0.9-1.8,2-1.9c1.1-0.1,2.4,0.9,2.1,1.7
	C237.2,234.8,236.4,235.3,235.6,236.2z"/>
<path class="st2" d="M282.9,222c-1.1,0.7-1.7,1.3-2.4,1.4c-1.2,0.2-2.2-0.7-2.2-1.6c0-1,1.1-2,2.2-1.6
	C281.2,220.3,281.8,221.1,282.9,222z"/>
<path class="st2" d="M300.5,204.3c-0.4,0.2-0.9,0.8-1.5,0.9c-1,0.2-2.1-0.8-2.1-1.8c0-0.9,0.5-1.4,1.4-1.3
	C299.5,202.1,300.5,203,300.5,204.3z"/>
<path class="st2" d="M314.4,207.6c-0.5,0.6-0.9,1.3-1.6,1.7c-0.4,0.3-1.2,0.1-1.8-0.1c-0.3-0.1-0.6-0.9-0.4-1.2
	c0.3-0.5,0.7-1.1,1.3-1.3c0.6-0.2,1.4,0.1,2.1,0.1C314.1,207.1,314.2,207.4,314.4,207.6z"/>
<path class="st2" d="M271.7,227.9c-1.2,0.7-1.9,1.3-2.6,1.4c-0.9,0.1-1.7-0.3-1.8-1.3c-0.1-0.8,1-1.6,2.1-1.3
	C270,226.8,270.5,227.3,271.7,227.9z"/>
<path class="st2" d="M556.2,224.3c-0.2-1.4-0.5-2.3-0.3-3c0.1-0.5,0.9-0.9,1.5-1c0.4-0.1,1.2,0.4,1.3,0.8c0.2,0.4-0.1,1.1-0.4,1.5
	C558,223.1,557.4,223.4,556.2,224.3z"/>
<path class="st2" d="M700,219.8c-0.7-0.7-1.3-1.1-1.4-1.6c-0.3-1,0.8-2.1,1.9-1.9c0.6,0.1,1.5,1.1,1.4,1.3
	C701.5,218.4,700.8,218.9,700,219.8z"/>
<path class="st2" d="M784.1,224.2c0.2,0.3,0.9,1.1,0.8,1.1c-0.7,0.7-1.5,1.3-2.3,1.7c-0.1,0.1-0.9-0.6-0.9-1
	C781.5,225.1,782.6,224.2,784.1,224.2z"/>
<path class="st2" d="M830,234.5c1.1-0.9,1.8-1.5,2.5-2.1c0.4,0.5,1,0.9,1,1.4c0.1,1-0.6,1.8-1.7,1.9
	C831.3,235.7,830.8,235.1,830,234.5z"/>
<path class="st2" d="M540.1,221.2c-1.2,0.7-1.7,1.2-2.4,1.3c-1,0.1-1.7-0.6-1.5-1.6c0.1-0.5,0.9-1.2,1.3-1.1
	C538.2,219.9,538.9,220.5,540.1,221.2z"/>
<path class="st2" d="M256.7,244.2c-1.2,0.8-1.8,1.5-2.5,1.6c-0.5,0-1.3-0.7-1.5-1.3c-0.3-0.8,0.2-1.7,1-1.6
	C254.6,242.9,255.4,243.5,256.7,244.2z"/>
<path class="st2" d="M453,230.8c-0.9,0.7-1.4,1.4-1.9,1.5c-0.8,0.1-1.7-0.3-1.8-1.3c0-1,0.7-1.6,1.6-1.5
	C451.5,229.5,452,230.1,453,230.8z"/>
<path class="st2" d="M814.9,234.4c-1,0.7-1.6,1.2-2.2,1.3c-0.4,0-1.2-0.6-1.3-1c-0.2-0.9,0.3-1.8,1.4-1.7
	C813.3,233,813.8,233.7,814.9,234.4z"/>
<path class="st2" d="M308.7,224.2c-0.4,1.6-1.2,2.2-2.5,1.7c-0.8-0.3-1.1-1.1-0.6-1.9C306.6,222.8,307.6,223.5,308.7,224.2z"/>
<path class="st2" d="M887.5,200c-1.3,0.7-1.9,1.2-2.6,1.3c-0.3,0-1.1-1-1-1.3c0.2-0.6,0.9-1.3,1.4-1.4
	C885.8,198.6,886.4,199.3,887.5,200z"/>
<path class="st2" d="M516.3,240.9c-0.5-1.1-1-1.6-1-2.1c0-0.9,0.6-1.7,1.6-1.5c0.4,0.1,1.1,1,1,1.4
	C517.8,239.3,517.2,239.9,516.3,240.9z"/>
<path class="st2" d="M900,217.6c-1.1,0.5-1.8,1-2.5,1c-0.4,0-1-0.8-1-1.3c0-1,0.8-1.5,1.8-1.2C898.8,216.3,899.1,216.9,900,217.6z"
	/>
<path class="st2" d="M881.3,222.9c-0.6-0.7-1-1.1-1.4-1.5c0.5-0.5,0.9-1.1,1.5-1.3c0.7-0.2,1.6,0.2,1.5,1.1
	C882.7,221.8,881.9,222.2,881.3,222.9z"/>
<path class="st2" d="M851,217.6c0.7,1,1.3,1.5,1.3,2c0.1,0.8-0.6,1.5-1.4,1.3c-0.6-0.2-1.3-0.8-1.4-1.3
	C849.5,219.1,850.3,218.6,851,217.6z"/>
<path class="st2" d="M804.5,226.8c-1.1,0.5-1.8,0.9-2.5,1c-0.3,0-0.9-0.7-0.9-1.1c0-0.9,0.7-1.6,1.7-1.4
	C803.2,225.4,803.6,226,804.5,226.8z"/>
<path class="st2" d="M532.8,233.1c-0.7-0.9-1.4-1.4-1.5-1.9c-0.2-0.9,0.5-1.5,1.3-1.3c0.6,0.2,1.4,0.7,1.5,1.3
	C534.3,231.6,533.5,232.2,532.8,233.1z"/>
<path class="st2" d="M496.9,243.1c-0.4-1-0.9-1.5-0.9-2c0.1-0.9,0.7-1.6,1.7-1.4c0.4,0.1,1.1,1.1,1,1.3
	C498.5,241.7,497.8,242.2,496.9,243.1z"/>
<path class="st2" d="M294.6,213.1c0.7,1.1,1.4,1.7,1.4,2.2c-0.1,0.5-0.9,1-1.3,1.4c-0.4-0.4-1.1-0.8-1.2-1.3
	C293.4,214.9,294,214.3,294.6,213.1z"/>
<path class="st2" d="M519.1,227.7c-0.6-0.9-1.2-1.5-1.2-1.9c0.1-0.6,0.8-1.1,1.2-1.6c0.5,0.5,1.3,0.9,1.3,1.4
	C520.5,226.2,519.8,226.7,519.1,227.7z"/>
<path class="st2" d="M883.8,211.1c-0.5-0.7-1-1.2-1-1.6c0-1,0.6-1.6,1.6-1.5c0.5,0.1,1.2,1,1.1,1.1
	C885.2,209.8,884.6,210.3,883.8,211.1z"/>
<path class="st2" d="M718.1,217.9c-1.1,0.7-1.7,1.2-2.4,1.4c-0.3,0.1-1-0.6-1.1-1c-0.1-0.9,0.4-1.8,1.4-1.7
	C716.6,216.7,717.1,217.3,718.1,217.9z"/>
<path class="st2" d="M857.4,231.4c-0.9,0.7-1.5,1.5-2,1.4c-0.5,0-1.3-0.7-1.4-1.3c-0.2-0.9,0.6-1.3,1.5-1.2
	C856,230.5,856.4,230.9,857.4,231.4z"/>
<path class="st2" d="M549.1,235.3c-1,0.8-1.9,1.6-2.8,0.4c-0.2-0.3,0-1.4,0.3-1.7C547.7,233.4,548.6,233.8,549.1,235.3z"/>
<path class="st2" d="M431.7,229.3c0.6,0.7,1.2,1.1,1.3,1.6c0.2,1-0.6,1.6-1.5,1.5c-0.5-0.1-0.9-0.7-1.4-1
	C430.6,230.8,431,230.2,431.7,229.3z"/>
<path class="st2" d="M501.8,228c1-0.4,1.6-1,2.2-0.9c0.4,0.1,0.7,0.8,1.1,1.3c-0.5,0.4-1,1-1.6,1.1
	C503.1,229.5,502.6,228.7,501.8,228z"/>
<path class="st2" d="M225,239.1c0.7,1.1,1.2,1.6,1.3,2.2c0,0.4-0.8,1-1.3,1c-0.5,0-1.3-0.7-1.3-1C223.7,240.7,224.3,240.2,225,239.1
	z"/>
<path class="st2" d="M573.8,214c-1,0.6-1.6,1.2-2.1,1.2c-0.4,0-1.1-0.9-1-1.2c0.2-0.6,0.8-1.1,1.3-1.6
	C572.4,212.8,572.9,213.3,573.8,214z"/>
<path class="st2" d="M464.7,240.1c-0.9,0.8-1.5,1.4-2.1,1.7c-0.2,0.1-1-0.5-1.1-0.9c-0.2-0.9,0.3-1.7,1.2-1.8
	C463.2,239,463.7,239.6,464.7,240.1z"/>
<path class="st2" d="M250.6,230.3c-0.6-0.8-1.2-1.3-1.2-1.8c0-0.5,0.7-0.9,1.1-1.4c0.5,0.5,1.2,0.9,1.4,1.4
	C252,228.9,251.3,229.5,250.6,230.3z"/>
<path class="st2" d="M861.8,210.4c-0.9,0.6-1.4,1.2-2,1.3c-0.3,0-1-0.9-0.9-1.4c0.1-0.5,0.7-1.2,1.2-1.2
	C860.5,209,861,209.7,861.8,210.4z"/>
<path class="st2" d="M871.7,229.5c0.5,0.9,1,1.4,1,1.8c0,1-0.8,1.5-1.7,1.4c-0.3,0-0.8-0.8-0.7-0.9
	C870.5,231.1,871,230.5,871.7,229.5z"/>
<path class="st2" d="M583.4,205.5c0.7,0.8,1.2,1.1,1.4,1.5c0.2,0.8-0.2,1.6-1.1,1.6c-0.4,0-1.1-0.6-1.1-0.9
	C582.5,207.1,583,206.5,583.4,205.5z"/>
<path class="st2" d="M836.7,225.9c-0.7-0.7-1.4-1.2-1.3-1.4c0.3-0.6,0.8-1.1,1.3-1.5c0.1-0.1,1.1,0.6,1.1,0.9
	C837.7,224.4,837.2,225,836.7,225.9z"/>
<path class="st2" d="M761.7,224.7c0.7,0.9,1.4,1.5,1.3,1.8c-0.2,0.6-0.9,1-1.4,1.5c-0.4-0.4-1.1-0.8-1.1-1.2
	C760.6,226.2,761.1,225.7,761.7,224.7z"/>
<path class="st2" d="M511.2,234.6c-0.9,0.6-1.5,1.2-2,1.2c-0.3,0-1.1-1-1-1.2c0.2-0.5,0.8-1.1,1.4-1.3
	C509.8,233.2,510.3,233.9,511.2,234.6z"/>
<path class="st2" d="M469.1,230.5c-0.7,0.7-1.1,1.2-1.7,1.5c-0.2,0.1-1-0.4-1.1-0.8c-0.3-0.8,0.5-1.9,1.3-1.7
	C467.9,229.5,468.3,230,469.1,230.5z"/>
<path class="st2" d="M485.1,239.1c0.7,0.9,1.4,1.5,1.3,1.7c-0.2,0.6-0.8,1-1.4,1.4c-0.1,0.1-1-0.6-1-0.9
	C484.1,240.7,484.5,240.2,485.1,239.1z"/>
<path class="st2" d="M484.2,231.7c-0.5-0.9-1.1-1.3-1.1-1.8c0-0.4,0.7-1.1,0.9-1c0.5,0.1,1.2,0.6,1.3,1
	C485.4,230.3,484.8,230.9,484.2,231.7z"/>
<path class="st2" d="M145.2,228.9c-0.9,0.4-1.4,0.9-1.7,0.8c-0.5-0.1-0.9-0.7-1.3-1.1c0.4-0.3,0.8-0.9,1.2-0.8
	C143.9,227.9,144.4,228.4,145.2,228.9z"/>
<path class="st2" d="M710.7,211c-0.9,0.6-1.4,1.1-2.1,1.3c-0.2,0.1-0.7-0.4-1-0.7c0.4-0.5,0.8-1.2,1.3-1.5
	C709.1,209.9,709.8,210.5,710.7,211z"/>
<path class="st2" d="M572.6,226c-0.9,0.5-1.4,1-1.9,1c-0.3,0-1.1-0.8-1-1c0.2-0.5,0.7-1.2,1.1-1.3
	C571.2,224.7,571.7,225.4,572.6,226z"/>
<path class="st2" d="M592.9,214.3c-1,0.5-1.5,0.9-2,0.9c-0.4,0-1.1-0.8-1-1c0.2-0.5,0.7-1.1,1.2-1.2
	C591.6,213,592.1,213.7,592.9,214.3z"/>
<path class="st2" d="M530.8,224c-1,0.5-1.5,0.9-2.2,1.1c-0.2,0.1-0.6-0.5-0.9-0.8c0.5-0.5,0.9-1.1,1.4-1.4
	C529.4,222.8,529.9,223.4,530.8,224z"/>
<path class="st2" d="M591.5,198.2c-0.7,0.5-1.1,1.1-1.6,1.2c-0.4,0.1-0.8-0.5-1.2-0.8c0.4-0.5,0.8-1.1,1.4-1.5
	C590.1,196.9,590.8,197.6,591.5,198.2z"/>
<path class="st2" d="M580.1,223c-0.5-0.8-1-1.3-1-1.7c0.1-0.4,0.6-1,1-1.1c0.3,0,1.1,0.6,1,0.9C581.2,221.8,580.7,222.2,580.1,223z"
	/>
<path class="st2" d="M599,202.9c-0.5-0.6-1-1-0.9-1.2c0.2-0.5,0.6-1,1-1.4c0.4,0.3,1.1,0.7,1,1C600,201.7,599.5,202.1,599,202.9z"/>
<path class="st2" d="M291.4,233c-0.1-0.3-0.2-0.5-0.2-0.7c0.2-0.9,0.7-1.5,1.8-1.3c0.2,0.1,0.5,0.6,0.5,0.9
	C293.1,232.9,292.4,233.4,291.4,233z"/>
<path class="st2" d="M567.7,236.9c-0.7,0.5-1.1,0.8-1.7,1c-0.1,0-0.8-0.7-0.7-0.8c0.3-0.5,0.7-0.9,1.2-1.2
	C566.7,235.8,567.2,236.4,567.7,236.9z"/>
<path class="st2" d="M872.4,199c-0.7,0.5-1.1,1-1.7,1.2c-0.1,0.1-0.9-0.7-0.8-0.9c0.2-0.5,0.6-1,1-1.5
	C871.3,198.2,871.7,198.5,872.4,199z"/>
<path class="st2" d="M321.3,209.7c0.6,0.8,1.2,1.3,1.1,1.5c-0.2,0.5-0.8,0.8-1.2,1.3c-0.3-0.3-0.8-0.7-0.8-0.9
	C320.5,211.1,320.9,210.6,321.3,209.7z"/>
<path class="st2" d="M821.2,229.7c-0.5-0.8-1-1.2-0.9-1.6c0.1-0.4,0.6-1,1-1.1c0.3-0.1,1,0.6,1,0.9
	C822.2,228.5,821.7,228.9,821.2,229.7z"/>
<path class="st2" d="M277.8,238.5c-0.7,0.4-1.3,0.7-2.2,1.2c0.2-2.2,0.2-2.2,2-1.8C277.6,238.1,277.7,238.3,277.8,238.5z"/>
<path class="st2" d="M304.9,211.7c0.5,0.7,1,1.2,0.9,1.6c-0.1,0.4-0.7,0.7-1,1c-0.3-0.3-0.8-0.7-0.8-1
	C304,212.8,304.5,212.4,304.9,211.7z"/>
<path class="st2" d="M702.4,205.4c-0.8,0.5-1.2,0.9-1.8,1.1c-0.2,0.1-0.6-0.5-0.9-0.8c0.4-0.4,0.8-0.9,1.3-1.1
	C701.3,204.5,701.8,205,702.4,205.4z"/>
<path class="st2" d="M875.1,208.8c-0.5,0.5-0.8,1-1.2,1.2c-0.2,0.1-0.6-0.4-1-0.7c0.3-0.4,0.5-0.9,0.9-1.2
	C874,208.1,874.5,208.5,875.1,208.8z"/>
<path class="st2" d="M307.3,238.8c-0.9,0.5-1.3,0.8-1.9,1c-0.1,0-0.6-0.6-0.6-0.7c0.3-0.4,0.6-0.9,1-1.1
	C306.1,238,306.5,238.4,307.3,238.8z"/>
<path class="st2" d="M867.3,219.3c0.3,0.6,0.7,1,0.6,1.3c-0.1,0.3-0.6,0.7-0.9,0.7c-0.3,0-0.7-0.6-0.7-0.9
	C866.3,220,866.8,219.8,867.3,219.3z"/>
<path class="st2" d="M321.7,227.8c-0.4-0.4-0.9-0.8-0.8-0.9c0.3-0.4,0.6-0.8,1-1.1c0.1-0.1,0.8,0.5,0.7,0.6
	C322.5,226.8,322.2,227.2,321.7,227.8z"/>
<path class="st2" d="M691.9,207.6c-0.4,0.2-0.9,0.5-1.3,0.4c-0.3,0-0.6-0.4-0.9-0.7c0.3-0.3,0.5-0.7,0.9-0.9
	c0.2-0.1,0.6,0.3,0.9,0.4C691.6,207.2,691.8,207.4,691.9,207.6z"/>
<path class="st2" d="M678.5,207c-0.6,0.3-0.9,0.7-1.3,0.7c-0.2,0-0.7-0.6-0.6-0.7c0.2-0.3,0.5-0.7,0.9-0.8
	C677.7,206.1,678.1,206.6,678.5,207z"/>
<path class="st4" d="M412.9,111.6c6.5,0.3,12.2,2.4,18.1,4c10.9,3.1,21.7,6.4,32.6,9.4c4.8,1.3,9.7,2,14.5,3
	c9.6,2,19.1,4.2,28.7,6.1c4.7,0.9,9.6,1.3,14.4,1.9c4.3,0.6,8.7,1.2,13,1.7c6.8,0.8,13.6,1.5,20.4,2.2c3.4,0.4,6.8,0.7,10.2,0.9
	c1.4,0.1,2.3,0.8,2.7,2.1c0.1,0.3,0.2,0.5,0.3,0.8c3.4,10.6,7.2,21.1,9.1,32.1c0.7,4.5,2,9,0.9,13.6c-1.3,5.4-4.3,9.8-9.6,12.1
	c-5.8,2.6-11.7,5-17.7,7.2c-2.5,0.9-5.1,1.3-7.7,1.9c-4.6,1-9.3,2-14,2.8c-5.8,0.9-11.7,1.6-17.5,2.3c-5.1,0.6-10.2,1.1-15.3,1.6
	c-11.4,1-22.7,2.5-34.2,1.9c-12.4-0.6-24.7-1.2-37.1-1.8c-4.4-0.2-8.5-1.4-12.4-3c-2.2-0.9-4.1-2.3-6.1-3.6c-4.4-3-6.4-7.6-8.3-12.4
	c-0.3-0.9-0.7-1.8-1-2.7c-0.6-1.9-1.5-3.8-1.7-5.7c-0.5-4.3-0.6-8.5-0.9-12.8c-0.3-4.8-0.4-9.7,0-14.5c0.4-4.9,1-9.6,2.6-14.3
	c1.1-3.4,1.8-7,2.7-10.5c0.1-0.5,0.3-1.1,0.5-1.6c1.8-3.3,3.7-6.6,5.5-10c1.1-2,2-4.1,3-6.1C410.1,117.5,411.5,114.5,412.9,111.6z"
	/>
<path class="st0" d="M464.1,71.6c1.4,2,2.5,3.6,3.6,5.1c1.4,1.8,1.9,1.9,3.8,0.8c1.7-0.9,3-2.1,4.1-3.7c3.2-4.3,5.7-9,8.4-13.5
	c4.9-8.1,8.3-16.9,13.5-24.8c1.7-2.6,2.7-5.6,4.1-8.5c0.3-0.6,0.6-1.2,1.1-1.7c1.4-1.5,3.7-1.1,4.2,0.9c0.7,2.9,1.4,5.7,1.8,8.7
	c0.5,3.9,0.7,7.8,1.1,11.7c0.2,2.4,0.5,4.7,1,7.1c1.1,5.5,2.5,10.9,3.6,16.4c0.9,4.1,1.5,8.2,2.3,12.4c0.3,1.5,0.6,3,1.1,4.4
	c0.9,2.8,2.9,3.7,5.5,2.2c1.8-1,3.4-2.4,5-3.8c3.7-3.4,7.4-6.9,10.9-10.5c2.7-2.8,5.2-5.8,7.7-8.7c4-4.6,7.8-9.4,12.2-13.6
	c3.3-3.1,6.3-6.5,9.8-10c0.1,0.7,0.3,1,0.2,1.3c-0.3,8.3-0.7,16.5-1.1,24.8c-0.4,8.2,0,16.4,1.4,24.5c0.6,3.6,1.3,7.1,2.2,10.6
	c0.8,3.1,0.1,5.8-1.1,8.6c-0.9,2.2-1.4,4.5-1.8,6.8c-0.8,5.1-1.4,10.2-2.2,15.3c-0.4,2.4-0.7,2.8-3.1,2.7c-4.1-0.1-8.2-0.5-12.2-0.9
	c-5.8-0.6-11.5-1.2-17.2-2c-7-1-13.9-2.1-20.9-3.2c-1.9-0.3-3.8-0.3-5.7-0.6c-4.1-0.7-8.2-1.5-12.4-2.2c-7.4-1.4-14.8-2.6-22.2-4.2
	c-4.6-1-9.1-2.8-13.7-4.1c-2.6-0.8-5.3-1.4-8-2.1c-4.7-1.4-9.3-2.8-13.9-4.3c-2.8-0.9-5.7-1.6-8.5-2.6c-4.5-1.8-9-3.7-13.4-5.7
	c-1.7-0.8-2.1-2-1.4-3.8c0.7-1.8,1.7-3.4,2.5-5.1c1.4-2.9,2.8-5.8,4.3-8.7c1.1-2.1,1.7-2.2,3.9-1.2c0.7,0.3,1.4,0.7,2,1.1
	c3.2,1.9,6.2,1.4,9.2-0.4c2.3-1.4,4.4-3,6.6-4.5c2.4-1.6,4.9-2.8,7.9-3c4.3-0.3,7.9-2,10.6-5.5C461.9,73.2,462.9,72.6,464.1,71.6z"
	/>
<path class="st3" d="M510.3,22.4c-1.9-0.4-3.4-0.7-5-1.1c-3.4-1-4.7-3.5-5.1-6.8c-0.4-3.2,1.6-5.1,3.6-7c1.1-1,2.5-1,3.8-0.5
	c1.9,0.8,3.9,1.5,5.7,2.6c3.6,2.3,4,8.8,0.7,11.5C513,21.9,511.5,22,510.3,22.4z"/>
<path class="st3" d="M575.6,23.8c0.3,0.1,1.1,0.2,1.7,0.5c2.4,1.2,3.9,3.3,5,5.6c0.9,1.9,0.3,4-1.2,5.2c-2,1.6-4.2,1.9-6,0.8
	c-1.3-0.8-2.7-1.5-3.8-2.4c-2.3-1.9-2.6-3-1.5-5.7C571.1,24.8,572.5,23.7,575.6,23.8z"/>
<path class="st1 face-a" d="M776.9,216.5c-4.3,0.2-8.6,0.5-12.8,0.5c-7,0.1-13.9-0.9-20.7-2.2c-1.9-0.4-3.8-0.6-5.6-1
	c-4.2-0.9-8.4-1.6-12.5-2.8c-4-1.2-6.9-4-9.1-7.5c-0.9-1.5-1-3.2-0.3-4.7c1-2.3,2-4.6,3.4-6.6c2.8-4,6-7.8,9-11.8
	c2.7-3.6,5.1-7.3,7.7-11c2.9-4.1,5.9-8.2,8.8-12.3c0.3-0.4,0.5-0.8,0.9-1.1c7.3-6.2,14.7-12.4,23.8-15.9c4.5-1.7,9-3.6,13.8-4.5
	c2.1-0.4,4.2-0.5,6.2-1.1c4.9-1.4,9.9-2.9,14.8-4.5c4.7-1.5,9.2-1.9,13.9,0.1c3,1.3,6.1,2.3,9.1,3.3c2.6,0.9,4.9,2.4,7.1,4.2
	c3.1,2.6,6.5,4.9,9.7,7.5c3.2,2.6,6,5.5,7.7,9.4c2.6,5.9,5.6,11.7,8.2,17.6c0.9,2.1,1.3,4.5,1.7,6.9c0.4,2.9,0.7,5.9,0.8,8.8
	c0.2,4.1-1.2,7.7-3.9,10.7c-4.6,5-10.2,8.4-16.8,10.4c-6.9,2.1-14,3.9-21.1,4.9c-5,0.7-10.1,0.6-15.1,0.9c-6.4,0.4-12.7,1-19.1,1.4
	c-3.1,0.2-6.3,0-9.4,0C776.9,216.4,776.9,216.4,776.9,216.5z"/>
<path class="st5 face-c" d="M706.4,150.8c2,0.3,5.1,0.6,8,1.3c6,1.5,11.9,3.3,17.8,5c1.7,0.5,3.4,1.3,5,2c1.1,0.5,1.3,1.4,0.7,2.3
	c-0.8,1.3-1.7,2.5-2.6,3.8c-3.5,4.9-7,9.7-10.5,14.6c-3,4.2-6,8.3-9,12.5c-0.8,1.1-1.4,2.3-1.9,3.5c-0.6,1.2-1.4,1.7-2.7,1.5
	c-8.5-1.7-17-1.3-25.6-1.5c-4.9-0.1-9.7-0.9-14-3.5c-2.9-1.7-4.6-4.7-5.8-7.9c-1.1-3.1-0.5-5.8,2.2-7.8c3.3-2.5,6.6-5.2,10-7.5
	c4-2.8,7.2-6.4,10.5-10c1.6-1.7,3.5-3.2,5.3-4.8C697.2,151.5,701.2,151,706.4,150.8z"/>
<path class="st1 face-b" d="M166.7,133.1c5.6,0.5,12.4,1.1,19.1,1.7c4.5,0.4,9.1,0.7,13.6,1.3c4.2,0.5,8.2,1.6,12.4,1.9
	c8.8,0.7,16.2,4.6,23.4,9.2c1.7,1.1,3.3,2.3,4.8,3.5c4.6,3.5,9.9,5.7,15.3,7.6c3.8,1.3,7.3,3.2,10.4,5.9c2.2,2,4.6,3.7,6.9,5.5
	c2.4,1.9,4.2,4.3,5.9,6.9c2.1,3,3.3,6.2,4.3,9.6c0.3,1.2,0.4,2.4,0.7,3.6c0.2,0.8,0.1,1.9,0.6,2.4c1.5,1.7,1.2,3.7,0.8,5.4
	c-0.9,3.9-2.5,7.5-5.9,10.1c-3.9,3-8.3,4.7-13,5.7c-4.4,0.9-8.8,1.5-13.2,2.2c-0.3,0-0.6,0-0.9,0.1c-8.4,2.2-17,1.7-25.5,2
	c-14.7,0.5-29.5,0.5-44.3,0.8c-7.5,0.1-15,0-22.5-1.1c-5.7-0.8-11.5-1.2-17.3-1.8c-1.7-0.2-3.4-0.5-5-1c-6.4-1.7-12.8-3.5-19.3-5.3
	c-2.2-0.6-4.4-1.1-6.6-1.8c-4.4-1.3-7.5-4.8-7.4-9.3c0.1-4.9,0.8-9.8,1.4-14.7c0.2-1.9,1-3.7,1.5-5.5c1.6-5.9,4.3-11.2,8-16
	c0.2-0.2,0.4-0.4,0.5-0.7c1.7-4.6,5.3-7.8,7.9-11.8c3.5-5.4,8.7-8.8,14.8-11.2c5.6-2.2,11.5-3.3,17.4-4.5
	C158.8,133.3,162.2,133.4,166.7,133.1z"/>
<path class="st2" d="M516.5,144.9c1.2,0.6,0.8,1.6,0.6,2.5c-0.4,1.5-1,2.9-1.4,4.3c-0.3,1.2-0.4,2.4-0.6,3.9c1-0.1,1.6,0,2.2-0.2
	c1.5-0.6,3-1.3,4.5-1.9c3.1-1.2,4.8-0.2,5.1,3.1c0.2,1.8,0,3.6,0,5.4c0,0.9,0.1,1.8,0.3,3.2c2.5-1.2,4.5-2.2,6.6-3.2
	c1.6-0.8,3.3-1.5,4.9-2.2c1.4-0.6,2.5-0.2,3.2,0.9c0.6,0.9,1.1,2,1.2,3.1c0.3,3,1.3,5.7,2.7,8.4c0.7,1.3,1.2,2.8,1.9,4.4
	c1.5-0.9,2.2-2.4,3.1-3.6c1.2-1.5,2.4-2.9,3.7-4.3c0.7-0.8,1.7-1,2.5-0.2c2.3,2.2,4.5,4.5,6.8,6.8c-2,0.9-2,0.9-7.6-3.1
	c-2.3,0.8-3.8,2.6-5.5,4.3c-2.4,2.5-3.7,2.4-5.4-0.7c-1.4-2.8-2.6-5.7-3.8-8.6c-0.9-2.2-0.8-2.1-3.2-2.4c-2.5-0.3-4.9-0.1-7.2,1
	c-0.9,0.4-2,0.6-3,0.8c-2.4,0.5-3,0.1-3.2-2.5c-0.1-1.4,0.1-2.9,0.1-4.3c0-2.4-0.7-3.1-3.2-2.8c-2.5,0.3-4.9,0.8-7.3,1.2
	c-1.7,0.2-2.6-0.4-2.1-2c1-3.6,2.4-7.2,3.6-10.8C516.1,145.1,516.3,145,516.5,144.9z"/>
<path class="st2" d="M482.3,182.2c1.1,2.5,1.1,3.2-0.3,4.4c-5.3,4.3-10.6,8.6-16.2,12.6c-2.1,1.5-4.9,2-7.3,3
	c-0.3,0.1-0.8,0.3-1.1,0.1c-0.8-0.4-1.8-0.9-2.1-1.6c-0.5-1.1,0.5-1.7,1.4-2.1c2.4-1,5-1.9,7.3-3.2c5.6-3.2,10.7-7.1,15.6-11.3
	C480.4,183.4,481.4,182.9,482.3,182.2z"/>
<path class="st2" d="M442,147.7c-4.5,0.3-5.9-4-4.2-6.6c1.6-2.5,4-3.7,7-3.6c1.7,0,2.8,1.1,3.3,2.7c1.1,3.1-1.1,6.7-4.3,7.3
	C442.9,147.7,442.1,147.7,442,147.7z"/>
<path class="st2" d="M476.9,143.9c2.5,0,4.8,2.2,4.9,4.6c0,2.5-3.7,5.7-6.6,5.7c-2-0.1-3.8-2.2-3.8-4.5
	C471.4,146.5,473.9,143.9,476.9,143.9z"/>
<path class="st2" d="M561.2,110c-1.9-7.5-1.3-14.9-1.4-22.2c0-0.6,0.3-1.3,0.5-1.9c0.2,0,0.5,0,0.7,0c0.2,0.6,0.6,1.3,0.7,1.9
	c0.1,1.7,0.1,3.4-0.1,5.1c-0.5,4.6-0.3,9.1,0.7,13.6C562.6,107.7,562.9,108.9,561.2,110z"/>
<path class="st2" d="M508.6,88.9c-2.2-5.3-2.5-11-3.3-16.6c-0.1-0.8,0.1-1.6,0.4-2.4c1.9,1.7,1,4,1.5,6c0.6,2.2,0.9,4.5,1.1,6.7
	C508.5,84.7,509.9,86.7,508.6,88.9z"/>
<path class="st2" d="M555.4,105c-1.8-2.4-3-9.3-1.9-11.8c0.3,0.4,0.7,0.7,0.8,1.1c0.6,3.5,1.1,7,1.5,10.5
	C555.9,104.9,555.6,105,555.4,105z"/>
<path class="st2" d="M502.3,78.5c0.6,3.1,1.3,6.1,2,9.8c-2.4-2.3-3.5-7-2.7-9.7C501.9,78.6,502.1,78.5,502.3,78.5z"/>
<path class="st2" d="M750.8,169.5c0.9,1.8,0.1,2.6-0.6,3.3c-5.9,6.3-10,13.6-13,21.6c-0.3,0.9-0.5,2.1-1.7,1.7
	c-1.2-0.4-0.7-1.6-0.4-2.5c0.9-2.1,1.8-4.2,2.9-6.2c3.1-5.5,6.2-10.9,10.4-15.7C749,171,749.8,170.4,750.8,169.5z"/>
<path class="st2" d="M849.7,185.4c-0.2-0.8-0.4-1.6-0.4-2.4c0-7.5-2.1-14.5-6-20.9c-0.6-1-1.5-1.9-0.4-3.1c1.3-0.2,1.8,0.9,2.3,1.7
	c2.5,4.6,4.7,9.4,5.2,14.7c0.2,2.5,0.5,4.9,0.7,7.4C851.1,183.7,851.3,184.8,849.7,185.4z"/>
<path class="st2" d="M752,184.5c-1.3,2.1-2.6,3.9-3.6,5.7c-0.8,1.5-1.4,3-2,4.6c-0.3,0.8-0.2,0.9-1.8,2.1c-0.1-0.9-0.3-1.6-0.1-2.3
	c0.7-3.9,3.1-6.8,5.2-10C750,184.2,750.1,184.2,752,184.5z"/>
<path class="st2" d="M840.9,180.9c-0.3-1.1-0.7-2.3-1-3.4c-0.7-2.5-1.5-5.1-2.2-7.6c-0.1-0.5,0.4-1.1,0.6-1.6
	c0.4,0.3,1.1,0.5,1.2,0.9c1.2,3.8,2.5,7.5,2.1,11.5C841.4,180.8,841.2,180.9,840.9,180.9z"/>
<path class="st2" d="M678,186.1c-1.7-1.2-1.6-2.4-1.3-3.4c0.3-1.2,0.8-2.4,1.5-3.3c2.8-3.3,5.6-6.4,8.5-9.6c0.4-0.4,1.1-0.6,1.7-0.9
	c0.9,1.5-0.2,2-0.9,2.7c-2.4,2.3-4.8,4.6-7,7C678.7,180.4,677.7,182.8,678,186.1z"/>
<path class="st2" d="M686.1,183.7c0.1-3.5,1.9-6.2,4.2-6.7C690,178.6,688.4,181.3,686.1,183.7z"/>
<path class="st2" d="M243.4,166.7c0.8-0.9,1.9-0.6,2.8-0.3c2.7,1,5.6,1.9,8.1,3.4c5.1,3.1,9.5,7,13.3,11.6c2,2.4,4.1,4.7,6.1,7.1
	c-0.1,0.2-0.2,0.3-0.3,0.5c-0.5,0-1,0.1-1.4-0.1c-2.3-1.1-3.9-2.9-5.4-4.9c-1.9-2.6-3.8-5.4-6.3-7.3c-4.6-3.5-9.5-6.6-15.1-8.3
	C244.4,168,243.3,168.1,243.4,166.7z"/>
<path class="st2" d="M118.5,188.9c-0.1-1.5-0.3-2.4-0.2-3.4c0.2-4.8,2.1-9,4.6-13c1.3-2.2,2.8-4.3,4.3-6.4c0.3-0.5,0.7-0.9,1.2-1.2
	c0.5-0.3,1.2-0.5,1.5-0.3c0.5,0.3,1,1.2,0.9,1.6c-0.3,1-0.9,2.1-1.6,2.9c-3.9,4.4-7.1,9.1-7.4,15.2
	C121.6,186.2,121,187.7,118.5,188.9z"/>
<path class="st2" d="M135,175c-1.1,2.1-2.3,3.9-3,5.8c-0.7,1.9-1.1,3.9-1.6,6c-1.4-0.1-1.8-1-1.7-2c0.2-1.5,0.5-3,1-4.4
	c0.6-1.5,1.4-2.9,2.2-4.3C132.5,175.3,133.1,174.3,135,175z"/>
<path class="st2" d="M260.6,186.9c-2.2-0.7-2.7-2.5-3.9-3.6c-1.3-1.2-2.7-2.4-3.9-3.7c-1.1-1.2-3.2-1.3-3.8-3.2
	c0.8-1,1.7-0.7,2.3-0.2c3.4,2.4,6.5,5,8.7,8.6C260.2,185.3,260.3,185.9,260.6,186.9z"/>
</svg>
