<?xml version="1.0" encoding="utf-8"?>
<!DOCTYPE svg PUBLIC "-//W3C//DTD SVG 1.1//EN" "http://www.w3.org/Graphics/SVG/1.1/DTD/svg11.dtd">
<svg version="1.1" id="SyncAsyncProcesses" xmlns="http://www.w3.org/2000/svg" xmlns:xlink="http://www.w3.org/1999/xlink" x="0px" y="0px"
	 width="1000px" height="525px" viewBox="0 0 1000 525" style="enable-background:new 0 0 1000 525;" xml:space="preserve">
<style type="text/css">
<![CDATA[
	.st0{fill-rule:evenodd;clip-rule:evenodd;}
]]>
</style>
<path class="st0" d="M884,194.4c1.3,6.1-41.9,3-47.1,4.5c-6.8,1.9-16.7,0-23.8,0c-7.9,0-18.1,2.5-25.7,0.9c-3-0.6-8.4-1-11.5-0.2
	c-3.8,1-7.9-0.9-11.5,0.1c-3.9,1.1-9.7,0.8-13.8,0.8c-4.5,0-9,1.1-13.5,1c-15.8-0.2-33.4-2.5-49.1,1.1c-6.5,1.5-13.9,1.9-20.6,2.1
	c-4.4,0.2-23.2-1.2-23.9,2c-0.7,3.1,0,6.4,0.3,9.5c0.5,3.6-0.6,7.3-0.7,11.1c0,1.5-0.1,11.4,1.1,12.2c4.2-0.1,8.3,0.7,12.5,0.8
	c14.6,0.6,29.5,1.6,44.2,1.3c15.2-0.3,31,2.8,46.4,2c8.3-0.4,16.2,1.3,24.4,1.4c4.3,0.1,8.5-0.4,12.7,0c3.9,0.3,10.6-1.6,14-0.3
	c3.6,1.4,9.4,0.4,13.2,0.4c3.8,0,7.4,0,11.1-0.1c3.8-0.1,7.8,0.8,11.7,1c4.8,0.2,9.7-0.9,14.5-1c8.8-0.2,17.6-1,26.4-1
	c3.5,0,8.3-0.8,11.7-1.3c2.1-0.3,4.1-0.6,6.3-0.5c2.1,0,2.5,3.8,0.9,4.7c-16.4,1.1-33.3,2.8-50,3c-17.2,0.2-34.5-0.2-51.7,0
	c-8,0.1-16-0.7-24-1c-9-0.3-19.8-2.5-28.6-0.7c-4.5,0.9-10-0.2-14.6-0.2c-5,0-10.1,0.4-15-0.1c-9.1-0.8-18.6-0.5-27.9-0.5
	c-8.8,0-17.7,0.1-26.5,0c-7.8-0.1-14.4,5-20.9,8.1c-1.9,0.9-11.8,9-11.7,9.1c-2.2-1.9-4.1-9.9-1.1-12.1c1.3-1,3.3-0.5,4.9-1.1
	c3-1.2,5.2-2.2,7.8-4.2c4.7-3.8,2.3-4.8,4.1-9.9c1.1-3.1,0.6-9.5-0.3-12.6c-1-3.9-0.1-8.9-0.1-12.9c0-4.7,1.6-11.2,0.1-15.7
	c-0.6-2,0.6-4.7,0.8-6.8c0.4-4.4,1.4-8.8,1.7-13.2c1.3-2.3,0.8-7.6,0.8-10.2c0.1-4.3,0.1-8.5,0.4-12.8c0.6-7.9-1.7-15.4,0.1-23.2
	c2-8.3,0.9-16.3,0.9-24.6c0-8.2,0-16.3,0-24.4c0-3.8-0.2-7.4,0-11.2c0.2-4.4,2.1-9.1-3.8-9c-8.4,0.2-16.7,0.4-25.2,1
	c-8.3,0.5-16.2,1.5-24.5,1.5c-8.3,0-16.5,1.1-24.8,0.9c-6.3-0.2-16,1.6-21.9-0.7c-2.5-1-6.5,0.8-9.1,0.1c-4-1.1-9.9-1.2-14-1.2
	c-4,0-10.3,1.3-14.1-0.4c-3.9-1.7-10.5,1.9-14,0.2c-2.3-1.1-8.3-0.9-10.4,0.3c-1,4.5-0.1,9.9-0.1,14.5c0,9.7,0.6,19.5,0.4,29.2
	c-0.2,16.4,2.1,33,2.3,49.5c0.1,7.6,0.1,16.5,1.3,24.1c1.1,7-1.1,14.5-1.3,21.6c-1.8,1.9-2.3,5.1-6.3,3.5c-1.9-0.8-8.2,0.3-10.1,1
	c-3.7,1.4-10.4,0.2-14.4,0.3c-4.4,0-8.5,0.1-12.9-0.1c-8.3-0.3-16.4,2-24.7,2c-3.7,0-7.5,0.4-11.2,0.7c-2.4,0.2-4.9,0.4-7.3,0.1
	c-1.3-0.2-5.5-0.8-6.8-0.3c-4.5,1.9-10.2-1.2-14.9,0.3c-3.8,1.2-9.7,0-13.6,0c-5.5,0-10.9,0.6-16.3,0.9c-5,0.3-12.4,1.5-17.2,0.6
	c-6.5-1.2-15.3,0.9-22.1,1c-8.9,0.1-17.3-0.4-26-0.1c-9,0.3-18.2-0.8-27.2-1c-9.4-0.2-18.6,0.5-27.9,0.6c-15.3,0.1-30.3,0.9-45.6,1
	c-17.9,0-36.1,0.3-53.8,1.9c-2,0.2-8.3,2.6-10.1,1.9c-3.1-1.4,0.2-6.7,2.7-6.7c9.4-0.2,18.8-0.1,28.2,0c9.3,0.1,18.5-0.1,27.8-0.4
	c4.2-0.2,8.4-0.5,12.6-0.5c4,0,9.2-1.4,13.1-0.4c8.6,2.2,19.4-0.5,28.2-0.6c4.9,0,9.8-0.9,14.7-1c5.7-0.1,11.3,1,17,1
	c18.2,0.1,36.2,1.5,54.4,0.4c8.6-0.5,17.1-1.3,25.7-1.4c4.3,0,8.6-0.4,13-0.5c2.9-0.1,8.1,0.7,10.8-0.2c4.2-1.3,10.1-0.3,14.4-0.3
	c5,0,10,0,15,0c9.6,0.1,19.3-0.2,28.9-1c7.7-0.6,15.3-1.9,23.1-1.8c7.8,0,15.8,0.5,22.6-3c1.2-0.6,3.8-0.4,4.6-1.3
	c1.3-1.5,2.5-2.9,3.8-4.4c2-2.3,3.5-5.2,3.4-8.5c-0.3-8.5,1.4-17.2,0.9-25.8c-0.4-8.1-1.3-16.2-1.5-24.3c-0.2-8.7-0.1-18.2-1.1-26.8
	c-1.1-9.2-0.4-18.8-0.4-28.1c0-5.5-3.3-20.7,4.1-21.3c6.1-0.5,13.2-1,19.3-0.2c1.1,0.1,2.7-0.4,3.8-0.6c1.7,0.5,3.2,0.9,5,0.9
	c4.5-0.1,12.1-1.5,16.3,0.4c7.5,3.3,17.9-0.7,25.9,1.4c2.5,0.7,7.9,0.1,10.4-0.8c3.1,1.9,10,0.5,13.5,0.5c8.8,0,17.7-1.4,26.5-1.4
	c9.3,0,19.8-0.8,28.9-2.6c2.9-0.6,7.5-1.4,10.2-1.3c4.4,0.1,4.3-0.8,6.2,3.9c0,3.3,1.8,8.4,0.8,11.4c-1.3,4-0.6,10.1-0.8,14.3
	c-0.1,3.6-0.5,7.2-0.5,10.8c0,4.7,1.6,9.3,1,14.1c-0.9,6.7,1.1,15.5-1.3,22c-2.5,6.9-0.1,17-0.1,24.1c0,4.7-0.7,9.2,0.1,13.8
	c1.7,1.8-0.1,10.6,3.6,9.3c3.6-1.3,6.2-5.2,9.3-7.3c3.5-2.3,7.2-5.1,10.1-8.1c2.6-2.7,4.9-5.6,7.4-8.3c3.8-4,6.2-8.9,9.8-12.9
	c2.4-2.6,4.8-4.8,7.4-7.2c3.1-2.9,6.3-3,10-4.1c6.9-2.1,19.2,5.7,19.6,13c0.1,1.9-0.7,3.9-1.1,5.7c0.6,1.6,3.6,0.7,4.3-0.4
	c2-3.4,3.1-8.4,4.1-12.1c0.9-3.4,1.1-10.3,4.3-12.5c5.8-3.9,6.2,1.6,11,3.7c6.8,2.9,14.8-3.1,18.7-8.4c6.9-9.2,7.3,12.4,7.9,16
	c0.6,3.7,0.5,7.3,1.2,11.1c0.8,4.8,2.9,4.6,8.1,5c7.3,0.6,16.8,0.9,23.6,3.6c2.9,1.2,7.4,2.6,10.6,2.3c1.9-1.8,3.6-6.9,4.2-9.3
	c1.9-7.5,0.3-18.3-0.1-26.2c-0.2-3.3-1.1-6.9-1.7-10.1c-1.8-1.6-0.5-2.9-3.3-3.8c-1.8-0.6-3.5-0.8-5.1-2.1c-3.9-0.6-7,1.9-10.9,1.4
	c-3.8-2.4-7.5-6.7-2.4-10.4c1.7-1.2,2.9-1.7,4.8-2.3c2.2-0.8-0.7-2.6-0.8-4c-0.4-4.4,3.9-5.2,7.5-5.2c2.3,0,3.3,1.4,4.7-1.2
	c1-1.9,2.1-1.6,3.4-3.1c4.5-1.2,7.3-1.3,10.6,2.4c0.2,3.5,4.6,1.2,8,1.4c3.8,3,2.8,4,3.2,8.4c-1.4,2.6-4.3,5.6-7.2,6.7
	c-3.7,1.4-3,4.5-6.3,6.6c-4.2,2.7-2.2,5.2-1.2,9.3c0.9,3.8,1.5,8,1.9,11.9c0.2,1.5-0.4,7.3,1,7.8c2.9-0.2,5.1-6.8,7.4-8.4
	c6.5-4.5,12.3-9.5,19.4-13.3c3.6-1.9,7.6-3.6,10.8-6c4.5-0.6,5.2,2,2.2,4.8c-6.1,5.8-9.5,13.6-14.8,20c-5.6,6.8-10.5,13.1-18,18.1
	c-2.6,1.7-7.2,3.5-7.8,7c0,2.6,7.5,4.4,9.6,4.1c4-0.5,7.7,1.8,11.2,3.4c4.9,2.2,9.6,4.6,14.6,6.4c4.2,1.6,8.1,3.1,11.9,5.5
	c3.2,2.1,9.1,4.1,11,7.3c2.5,4.4,0.4,4.8-3.1,2.5c-3.6-2.3-7.6-4.4-11.4-6.3c-5.7-2.9-12.2-5-17.8-8.4c-6.4-3.8-16.7-8.3-24.2-8.1
	c-2.5,0.1-7-0.7-9.2-1.7c-3.6-1.5-9.5-0.2-12.6-1.9c-2.2-1.3-6.6-0.7-9.1-0.9c-4.5-0.3-9.3-1.6-13.8-2.6
	c-17.4-4.1-33.8-2.1-51.4-1.7c-14.2,0.3-31.5,4.5-43.9,11.5c-2.6,1.5-6,1.4-8.4,3.1c-2.4,1.7-5.7,2.9-8.3,4.3
	c-7.7,4.4-15.8,8.1-22.7,13.9c-2.9,2.4-4.4,5.6-4.3,9.4c0.1,2.8,6.5,3.1,8.6,3.1c7.4,0.1,16.5-0.2,23.8-1.8c16.5-3.5,34-2,50.6-3.9
	c17.9-2.1,35.8-3.1,53.8-3.1c17.7,0,35.6-0.4,53.3,0.1c7.4,0.2,14.9,0.9,22.3,0.9c4.8,0,9.6,0,14.4,0
	C874.8,193.6,881.2,192.2,884,194.4C884.2,195.2,883.2,193.7,884,194.4z M823.2,97.5c3.9-1.7,6.7-0.1,10.5-3
	c1.6-1.3,1.7-2.8,1.9-4.7c-1.9-2.6-6.1-0.5-8.4,0.1C827.8,89.8,823.2,97.7,823.2,97.5c-1.4-0.3-4,1-5.5,1c-0.7,0-3.9,4.2-4.2,5
	c2.6,1.4,8.2,2.3,10.4-0.2C826.7,99.9,823.2,100.6,823.2,97.5C824,97.1,823.2,97.8,823.2,97.5z M770.8,150.1
	c0.7-2.1-0.9-5.4-1.1-7.5c-0.2-1.5,0.5-3.6,0.1-4.9c-0.5-1.8,0.7-14.9-1.7-15.3c-1.7-0.2-6,6-8.3,7.1c-4.6,2.2-12.6,5.1-16.8,0.3
	c-5.7-6.5-5.7,3.9-7.2,7.9c-1.1,3-2.1,6.1-3.2,9.1c-1.2,3.5-1.5,4.4,2.8,3.4c5.8-1.4,12.3-0.5,18.2-0.5
	C759.3,149.8,765.1,149.5,770.8,150.1C771,149.3,769,149.9,770.8,150.1z M692.4,159.5c3.8-0.3,6.8-2.2,10.3-3.2
	c3.7-1,7.5-1.4,11.1-2.6c6.1-2,9.5-12.2,2.5-15.7c-4-2-5.4-3.7-10.2-3.5c-3.8,0.1-7.6,2.6-10.1,5.5
	C693.8,144.3,688.7,155.1,692.4,159.5C693.2,159.5,691.6,158.6,692.4,159.5z M845.6,125c-4.6,4.5-8.4,7.1-11.9,12.8
	c-2,3.3-7.7,14.6,0.1,8.6c5.6-4.3,10.3-9,14.5-14.7c0.8-1.1,7.9-11,6.9-11.6C851.7,121.4,848.9,123.6,845.6,125
	C844.1,126.5,846,124.8,845.6,125z M814.8,97.8c2.5-5.7-12.7-0.2-14.5,2.6c-2.8,4.2,3.8,3.7,6.3,2.8
	C809.6,102,811.5,98.9,814.8,97.8C815,97.1,813.2,98.3,814.8,97.8z M818.2,88.7c3.3,0.3,6.2-0.4,6.5-3.5
	C823,82.3,812.4,85.2,818.2,88.7C819.6,88.8,817.3,88.2,818.2,88.7z M814.2,91.9c2.9-3.2-7.4-2.4-8.3-2.1
	C805.4,93.9,811.8,92.7,814.2,91.9C814.6,91.5,812.7,92.4,814.2,91.9z"/>
<path class="st0" d="M3.7,253.8c3.7-1.1,6.3-0.7,10.1-0.3c5,0.5,7.2-1.8,11.2-4.3c6-3.7,14-8.5,21.1-4.9c3.7,1.8,8,0.3,11.8,0
	c1.2-1.5,2.3-2.5,3.8-3.7c1.9-1.7,0.8-3,1.7-5.1c0.9-2.1,0.1-8.7,0-11.1c0-5.3-0.2-7.8,6.1-7.4c4.3-1.4,10.9-1.7,15.4-1.3
	c1.2,0.1,1.1,1.7,0.7,2.4c-1,1.6-4,1.5-5.6,1.8c-2.5,0.4-7.3,2.2-8.1,4.9c-1.2,3.9,1.9,10.5,1.8,15c0,2.1-2.7,11.7-1.1,12.3
	c1.7,0.6,8.1,0.2,10.1,0c3.3-0.3,7,0.9,10.3,1c5.7,0.2,10.2-1.4,15.7-1.9c35.9-3,72.2-2.1,108.1-2.5c9.6-0.1,20.3,0.9,29.7-1.2
	c3.8-0.8,8,0,11.8,0.2c5.3,0.2,11-1.4,16.2-0.2c3.7,0.9,8.8-0.2,12.6-0.2c5.7,0,11.4,0,17.2,0c10.2,0,20.4,1.2,30.6,1.4
	c8.5,0.2,17.2,0.7,25.7,0.6c7.5-0.2,15.2,1.7,22.8,1.4c4.3-0.2,8.6-0.4,13-0.4c3.9,0,8.4,1.7,12.2,0.3c3.7-1.4,8.6,0.2,12.5,0.1
	c4-0.1,8,0.1,12,0.4c19.9,1.6,40.3-0.1,60.2,0.1c9,0.1,17.9,0.8,26.8,1c9.6,0.1,14.9,5.2,23.3,8.7c2.2,0.9,3.8,1.9,5.7,3.4
	c1.1,0.8,0,2.4-1.1,2.1c-3.4-1-6.7-1.9-10-2.8c-7.4-2-15.5-6.1-23.4-6.3c-14.3-0.3-29.7-5.2-43.9-1.1c-8.3-2-16.5-0.8-24.9-1
	c-8.3-0.2-16.6-1-24.8-1c-7.7,0-15.3,0.2-23,0c-4.2-0.1-8.3,0-12.6,0.1c-4.1,0-10.9,1-14.8-0.2c-7.7-2.3-17.9-1.2-25.9-1.3
	c-8.4-0.1-16.7-0.9-25-1c-8.5-0.1-17.1-0.9-25.4-1c-8-0.1-16.1,0.5-24.3,0.4c-13.9-0.2-29.1-1-42.9,1.1c-8.1,1.3-17.1-0.1-25.3-0.1
	c-9.2,0-18.3,0.1-27.5,0.8c-8.8,0.7-17.6-0.4-26.5,0.2c-6.8,0.5-15-0.4-21.6,1.7c-6.6,2.1-15.1,0.9-22.1,1.8
	c-7.2,1-14.3,0.8-21.5,2.1c-6,1.1-12.6,3.4-18.7,3.9c-8.9,0.7-11.6-7-19.1-9.1c-3-0.8-6.9-2-10-1.2c-3.5,0.9-9.6,2.1-12.5,4.3
	c-3.2,2.4-6.9,0.8-10.2,0C11.4,256.4,2.3,255.8,3.7,253.8C4.3,253.6,3.4,254.2,3.7,253.8z"/>
<path class="st0" d="M600.3,277.5c0-7.5,4.9-12.3-1.4-18.8c-3-3.1-5.1-2.4-8.7-4c-3.6-1.7-4.5,4-5.6,6.2c-1.2,2.5-2.4,5.4-3,8.1
	c-1,4.5,1,5.4,2.8,8.9c4.5,8.8-5.3,11-11.8,8.7c-4-1.4-6.1-3.3-6-7.8c0-3.4,2.7-5.9,1.9-9.4c-1.5-6.8-6.7-11.7-10.8-17
	c-4.1-5.2-10.2-7.4-13.3-13.4c-1.2-2.4,2.4-6.4,4.9-5.8c3.6,0.9,7.2,2.1,10.8,2.8c10.8,2.1,24.9,0,34.8-4.7c5.5-2.6,9.9-6,13.6-10.8
	c1.3-1.7,3.2-6.7,5.6-6.4c2.4,2.2,2.8,5,3.3,8.1c0.5,3.5,2.1,6.7,1.9,10.3c-0.2,3.3-1.3,8.1-1,11.3c0.3,3-1.4,7.6-2.1,10.6
	c-0.8,3.6,0,6.3-0.3,9.6c-0.5,5.2,5.3,14.2-1.9,17.1C609,283.1,603.6,282.1,600.3,277.5C600.3,276.1,600.6,277.9,600.3,277.5z
	 M577.8,272c1.7-8.2,3.7-16.4,8.7-23.4c5.7-8,17.9,6.2,19.7,11.8c1.3,4.1,0.6,6.1,4.4,4.6c1.9-0.7,1.3-11.5,1.5-13.8
	c1.3-4.5,2.9-9.7,2.9-14.4c0-2.2,0-13-2.4-13.8c-11.1,14.4-36,20.6-53.2,17c-6.5-1.4-4,2.3-0.5,6.2c0.2,3.6,4.9,7.6,7.3,10.1
	c3.3,3.6,3.7,7.3,6.1,11.2C573.3,268.9,574.1,273.8,577.8,272C577.9,271.2,577.2,272.2,577.8,272z M582.1,281.7
	c-1.8-6.2-14.5-7.2-11.1-0.3C572.5,284.4,580.7,284.6,582.1,281.7C581.6,279.8,581.9,282,582.1,281.7z M613.4,271.4
	c-3.9-1.8-9.9-1-8.8,4.4c0.5,2.7,4.8,2.5,6.6,2.2C615.5,277.1,613.6,274.3,613.4,271.4C612.7,271,613.5,272.7,613.4,271.4z"/>
<path class="st0" d="M29.3,344.1c1.9,4.7,0.7,7.7-0.5,12.5c-1.4,5.9-8.3,12-8.3,2.2c0-8.9-3.7-5.4-8.9-10.1c-5.8-5.2,8.9-6.9,11-7.4
	c4.9-1.2,5.1-9.6,5.9-13.7c0.3-0.8,0.7-1.5,1.3-2.2c0-1.5-3-3.4-3.9-4.3c-2.9-2.7-0.1-4,2.6-4.9c2.6-0.8,6.4-1.2,2.6-4.1
	c-2.6-2-3.6-4.3,0.2-4.4c3.2,0,6.9,2.3,7.7-2.2c0.6-3-0.9-6.1,3.4-5c1.9,1.8,3.6,3.7,6,4.8c3.1-2.8,5.6-3.7,9.3-2
	c2.9,1.3,4.6,5,7.9,5.4c1.8,0.2,6,4,7.4,5.2c2.8,2.2,12.2,8.6,5.8,11.1c-4.9,2-3.7,9.8-7.5,13.1c-1.8,1.6-3.8,2.9-6.5,2.2
	c-2.1-1.2-5.9-1.8-6.7,1.2c-0.4,1.5,0.2,6.7-2.6,5.6c-3.3-1.2-3.9-3.7-5.6-6.4c-5-7.8-1.7,3.7-4.8,5.8c-2.2,1.4-5.8-2.9-7.5-4
	C35.6,341.3,30.3,340.9,29.3,344.1C29.4,344.3,29.6,342.9,29.3,344.1z M64.8,328.6c-7.7-4.7,10-4.4,11.6-7
	c-1.4-1.7-8.6-9.7-10.7-8.2c-2.9,2.1-3.2,5.7-7.2,6.9c-3.8,1.1-9.1-1-11.2-4c-2.3-3.1-2.2-2.7-5.3-0.7c-2.6,1.6-4.9,3.9-6.7,6.4
	c-2.5,3.5-7.9,12.5-6.7,17.3c0.4,1.5,4.7-1,5.7-1.2c3.4-0.6,4.9,3.2,7.2-1.3c1.1-2.2,3.6-4.7,5.4-6.4c3.6-3.5,1.7,2.3,1.8,3.4
	c1,2.2,14.7,3.3,17.1,3.1c4.2-0.4,4.2-3.5,5.6-6.4C74.1,325.2,67,328.1,64.8,328.6C64.3,328.2,67,328.1,64.8,328.6z M62.4,311.5
	c-1.5-1.8-4.2-6.7-7.2-5.5c-3.2,1.2-5,1.7-6.4,4.8C48.8,318.8,60.5,318.4,62.4,311.5C61.3,310.1,61.8,313.6,62.4,311.5z"/>
<path class="st0" d="M737.8,101.8c-5.8,0.3-4.7-10.5-2.8-14.2c1-2,2.5-3.5,3.6-5.3c-0.9-2-2.8-3.1-3.5-5c1.6-2.5,3.9-2.3,6.2-3.6
	c1.9-1.1,2.2-3,3.6-4.4c1.4-1.5,1.2-3.9,3-5.3c3-1,4.2,5.7,5.3,7.4c0.9,1.4,3.1,4.6,5,4.8c1.9,0.2,1.2-6.3,1.6-7.6
	c1.3-5,2.9-10,5-14.8c2.1-4.7,8.3-5,3.9-0.4c-2.9,3-5.2,12.5-4.9,16.4c0.1,1.6-1.1,4-1.5,5.7c-0.4,2.1,0.9,4.4-0.3,5.9
	c-3.3,4.7,8.6,1.4,10.7,0.1c2.1-5.8,5.2-6.5,6.4,0.2c0.4,2.1,0,5,1.3,6.9c2.2,3,0.7,1.9-0.2,5.7c-3.4,3.3-6,5.9-6.8,10.8
	c-1.3,7.5-5.1,5.3-9.1,0.2c-1.9-2.4-3.6-4.8-5.6-7.1c-1-1.1-1.8-2.3-2.5-3.6c-1.3,0.4-2.3,0-3.1-1
	C747.1,92.9,741.5,97.9,737.8,101.8C737,101.8,738.7,100.9,737.8,101.8z M756.8,81.6c-0.8-3.9-4.8-6.1-6.8-9.2c-2-3.1-5.9,2.7-7.8,4
	c-2.8,1.8,1.2,7.5,3.5,8.5c1.1,0.5,1.9,1.5,1,2.6c-1.4,1.7-3.1-0.6-4.3-1.4c-2.8-1.9-5.3,4.4-4.7,6.6c-1.5,4.4,1.3,1.9,3.4,0.8
	C747.6,89.9,755.8,91.1,756.8,81.6C756.4,79.5,756.7,83,756.8,81.6z M769.1,95.9c2.3-2,5.8-1.1,7.6-4c0.4-1.3-0.9-5.7-1.8-6.5
	c-2.5,0-5.3,0.8-7.8,1.2c-1.3,0.2-6-1.1-6.2-0.9c-4.8,4.8-1.4,8.8,2.4,12.7c0.6,0.7,5.6,7.4,6.1,4.6c0.3-1.9,2.3-3.4,2-5.4
	C769.8,97.4,769.4,97.5,769.1,95.9C770.1,95,769.2,96.2,769.1,95.9z"/>
<path class="st0" d="M63.6,133.3c-2.7,0.8-3.6,2.9-5.3,4.9c-2.2,2.7-4.9,4-7.2,6.7c-4.4,5.3,3.9,6.7,7.5,4.7
	c5.9-3.2,9.9,2.1,2.7,4.2c-6.8,2-11.5,3.7-16.8-2.4c-4.8-5.5-10.6-4.8-17-3.1c-5,1.4-4.7,6.1-7.6,9.4c-1.8,2.1-2.9,4.1-6.1,3.5
	c-3-0.6-4.3-3.2-0.3-2.7c5.1,0.6,7.8-9.8,10.9-13c5.2-5.2,7.3-7,14.1-3.4c2,1.1,5.7-0.1,8.1-0.5c3.3-0.6,3.3-1.9,5.8-3.8
	c2.4-1.8,4.1-4.3,6.3-6.4c2.9-2.8,6.1-0.6,9.8-0.6c2.2,1.1,5.3,3.2,7.7,3.4c3.3,0.3,7.1,0.4,10.3,1.4c4.4,1.4,10.9-0.9,14.9-2.8
	c2.1-1,4.8-1.1,5.5,1.6c-1,2.4-5.8,2.5-8,3.4c-4.7,1.8-9.2,4.1-14.3,2.2C77.9,137.6,70.3,134,63.6,133.3
	C61.9,133.9,65.1,133.5,63.6,133.3z"/>
<path class="st0" d="M893,281.7c-0.2-2.9,3-5.9,4.3-8.5c1.8-4,4.9-7.4,6.9-11.3c1.5-2.8,2.1-8.3,6-8.8c3.8,0.2,6.3,8,7.7,10.9
	c2.1,4,4.4,5.8,7.3,9.1c3.5,4-4.5,5.6-7,5.1C910.6,276.7,899.5,287,893,281.7C892.9,281.2,894.2,282.7,893,281.7z"/>
<path class="st0" d="M620.4,141.8c8.1-4.1,5.1,5.6,5.2,10.3c0.1,3.2-0.1,3.5-3,4.5c-1.9-2.5-3-6-3.4-9.1c-2.2-3.8-11-0.1-14.5,1.3
	c-7.2,2.9-6.1,6.5-4.1,12.9c0.2,0.9-0.1,1.5-0.9,2c-2,1.9-2-0.8-3-1.9c-1.4-1.5-3.2-7.9-2.6-9.9c1.4-2.4,5-3.4,7-5.3
	c0.9-2.1,1.5-5.1,1.9-7.4c0.8-3.8,0.7-7.5,0.7-11.3c0.8-1.7,3.5-4.8,5.5-2.3C611.8,128.9,615.7,140.8,620.4,141.8
	C620.9,141.5,619.7,141.7,620.4,141.8z M608,132.1c-1.6,1.2-2.9,11.2-0.8,12c2.5-0.4,6-0.4,4.3-3.5C610,137.9,609.6,134.8,608,132.1
	C607.2,132.7,609,133.8,608,132.1z"/>
<path class="st0" d="M900.9,331.8c3.5,1.1,7.1,5.7,8.1,9.5c0.4,1.5,1.2,3.9,2,5.3c2.1,3.4,7.2-0.6,9.9,1.8c1.7,1.6,0.8,6.4,0.8,8.6
	c0,1.9-2.5,8.1-4.2,2.9c-0.8-2.4,1.3-6.9-1.5-8.2c-2.4,0-5.9-0.1-8.3,0.8c-3.1,1.1-13.7,0.5-15.5,3.2c-1.3,2,0.3,5.1,1,6.9
	c1.1,2.5-1.9,3.9-3.6,1.9c-2.2-2.6-1.5-5.9-2-9c-0.7-3.9,3-3.6,4.5-6.6C893.9,345.3,897.1,333.4,900.9,331.8
	C901.8,332.1,900.4,332,900.9,331.8z M899.7,349.7c1.4,0.1,6.6-0.2,7.3-1.7c0.6-1.5-1.8-5.2-2.3-6.5
	C902.9,337.2,897.1,348,899.7,349.7C902,349.9,898.8,349.1,899.7,349.7z"/>
<path class="st0" d="M71.8,103.4c4,1.5-1.9,3.5-3,3.8c-2,0.7-4.1,1.9-6.2,2.2c-2.5,0.3-4.6-1-7.1-1.3c-6.6-5.1-8.9,1.3-9.2,7.6
	c-0.3,0.6-2.6,4-3.1,3.6c-3.6-2.6-7-5.5-10.7-7.8c-2.4-1.5-6.6-5.3-9.9-3.4c-1.8,1-4,4.7-5.5,6.4c-3.3,3.8-12.9,2-7.2-0.8
	c4.3-2.1,6.1-3.4,9.2-6.6c1.7-1.7,6.2-4.4,8.6-4c3.8,0.7,5.3,3.7,9.5,3.7c2.9,0,4.5,0.7,6.5-1.6c1.4-1.6,2.8-3.2,4.4-4.6
	c3.8-0.9,9,2.9,12.6,3.9C65,105.7,67.6,103.6,71.8,103.4C72.5,103.7,70.6,103.4,71.8,103.4z"/>
<path class="st0" d="M554.1,120.9c3.3,2.6-0.3,5.1-3.3,4.4c-1.4-0.3-5,1.7-6.5,2.2c-4.5,1.3-4.7,3.3-2.9,7.5
	c6.8-3.1,20.9-1,17.6,9.3c-1.6,4.9-7,6.3-11.3,7.8c-0.7,0.2-9.3,2.4-9.5,2.3c-3-2.2-0.7-6.6-2.3-10c-1.6-3.3-1.5-10.8-1.6-14.5
	C534.4,123.6,549.1,122.2,554.1,120.9C554.6,121.2,553.6,121,554.1,120.9z M555.9,141.2c-2.9-3.7-5.9-4.5-10.5-3.7
	c-4.5,0.9-5.1,1.8-4.3,6.1c0.9,4.9-1.4,6.4,4.4,5.7C549.6,148.8,555.9,146,555.9,141.2C555.2,140.4,555.9,141.9,555.9,141.2z"/>
<path class="st0" d="M891.4,318.7c-2.5-0.8-6.7,3.6-9.2,0.3c-0.6-2.1-0.2-8.4,0-10.8c0.3-3.4-3-9.4-1.9-12.4
	c1.7-3.1,8.1-1.5,10.9-2.5c2.2-0.8,7.3,1.4,7.1,4.1c-0.1,1.1-1.2,4.8-0.8,5.8c1.4,1.3,4.3,1.2,6,2.3
	C914.4,312.6,897.5,318.7,891.4,318.7C891.4,318.7,893.7,318.7,891.4,318.7z M887.2,314.9c3.1,3.3,20.5-3.3,12.1-6.7
	c-3.1-1.2-5.8,0.4-8.7,1.2C886.1,310.6,888.2,311.1,887.2,314.9C887.6,315.3,887.5,313.8,887.2,314.9z M886.2,297.5
	c-1.8,4.8,2.3,13.4,6.4,6.2C896.9,296.4,891,297.5,886.2,297.5C886,298.2,888.4,297.5,886.2,297.5z"/>
<path class="st0" d="M524.5,149c-7.6,4.7-13.5,7.2-20.6-0.4c-5.2-5.4-6.8-16.1-0.9-21.8c6.4-6.1,15.9-0.7,21.8,2.2
	C530.3,136.7,530.4,141.2,524.5,149C522.5,150.2,525.4,147.8,524.5,149z M508.8,128.9c-2.5,6-4.2,11.6-1,18c2,4,7.9,4.6,10.8,1.6
	c4.3-4.4,9.8-8,6.1-14.9C520.1,129.8,515,126.3,508.8,128.9C508.2,130.1,509.3,128.6,508.8,128.9z"/>
<path class="st0" d="M141.9,268c0.2,3,5.6,16.5-1.1,17.3c-8,4-16.2,0.2-24-1.1c-3.8-0.6-2.2-7.6-2.1-10.4c0.1-4.4,0.8-5,4.2-7.5
	c2.5-1.9,9.1-1.6,12.3-1.7C135.6,264.6,138.2,266.2,141.9,268C142,269,141.1,267.7,141.9,268z M139,272c1.1-7.1-17.1-5-20.2-2.7
	c-3.8,2.8,4.9,5.5,6.4,5.9C130.1,276.4,135.1,274.9,139,272C139.2,270.9,137.5,273.1,139,272z M117.7,280.1
	c2.6,4.9,23.1,5.2,23.3-1.4c0.1-3-10.1-0.3-12.7-0.2C123.2,278.6,118.9,274.1,117.7,280.1C118,280.8,117.8,279.5,117.7,280.1z"/>
<path class="st0" d="M0.2,208.5c-1.3-2.2,6.1-1.9,7.3-2.7c4.4-2.8,7.7-5.6,10-10.5c2.5-5.5,5-15.5,12.7-12.1c3.4,0.6,8.1-0.3,11.2,1
	c3.5,1.5,7,4.2,10.6,5.1c3.3,0.8,4.9,5,9.3,3.7c2.5-0.8,7-1.8,9.5-1.1c-0.3,1.8-4.9,3.3-6.5,3.8c-3.6,1.1-6.6-0.3-10-0.8
	c-2.7-0.4-4.7-3.2-7.4-3.9c-4.3-1.2-7.7-2.8-12.4-2.7c-6.8,0.1-12.5,5.2-15.6,10.7C15.7,204.5,7.2,213.5,0.2,208.5
	C-0.1,208,1.4,209.4,0.2,208.5z"/>
<path class="st0" d="M115.3,61.4c5.7-3,15.6-0.6,21.8-0.4c9.4,0.2,1.5,6.3-0.8,10.9c-1,2-2.1,4.4-3.4,6.3c-3,4.2-4.7,0.8-6.8-2.2
	C122.6,71.1,113.7,67.8,115.3,61.4C115.6,61.2,115,62.7,115.3,61.4z"/>
<path class="st0" d="M460.1,219.1c4-1.5,5,6.2,5.1,8.7c0.2,4,3,5.7,6.6,5.8c2.2,0.1,4.4,0,6.5,0c3.1,1.5,0.2,1.7,1,3.7
	c-2.9,2.3-3.9,6.1-3.4,9.6c-2.1,4.7-4.2-1.7-3.7-4c1.3-5.7,2.2-4.9-2.8-5.4c-3.2,1.2-5.3-0.5-9-0.4c-4,0.1-8.7,1.5-12.5,0.8
	c-0.4,2.1,3.7,13.6-1.4,9.9c-1.9-1.4-4-9.5-4.1-12c-0.2-3.6,9.1-0.8,10.9-4.5C455.5,227,458.6,223.6,460.1,219.1
	C460.8,218.8,459.9,219.6,460.1,219.1z M458.3,233.7c7.6,1.8,4.5-8.2,2.4-8.4C459.5,225.7,452.1,236.8,458.3,233.7
	C458.8,233.8,457.8,233.9,458.3,233.7z"/>
<path class="st0" d="M873.5,344.5c3,0.6,6.2,1.7,8.6,3.7c3.5,3,2.2,4.9,0,8.1c-6.1,2.4-12,2.6-18.6,3.2c-3,1.5-6.7,2.6-6.7-1.8
	c2.3-1.1,4.9-1.5,7.4-1.8c3.3-0.3,6.9,0,10.1-0.9c1.2-0.3,7.8-2.6,3.9-4.5c-2.7-1.3-15.9-2.5-11.7-7.7c0.5-0.7,6.2-4.8,2.9-5.2
	c-3.6-0.4-7.4,0.5-10.9-0.3c-2.7-0.6-2-3.1,0.5-3.1c3.9,0,7.9,0,11.8-0.1c3.5-0.1,7.6-1.5,5.5,3.7
	C875.6,339.4,873.5,342.6,873.5,344.5C876.3,345,873.5,343.6,873.5,344.5z"/>
<path class="st0" d="M262,224.1c3.3-3.1,15-10.2,15-0.4c0,4.5-1.8,6,3,6.8c3.2,0.5,8.4,1.6,7.6,6c-1.4,7.6-17.1,9.6-21.8,5.5
	C261.4,242.6,261.8,227.1,262,224.1C262.3,223.8,262,225,262,224.1z M267.5,240c3,0,6.2-0.3,9.1,0c1.9,0.2,9.7-2.7,6.6-5.3
	C279.3,233.3,261.9,232.2,267.5,240C268.4,240,266.6,238.7,267.5,240z M272.5,228.9c2.6-6.3,0.4-8.5-5-4.1c-2.3,1.8-2,3.2-1.6,5.9
	C266.2,233.4,271.8,229.5,272.5,228.9C273,227.9,269.7,231,272.5,228.9z"/>
<path class="st0" d="M202.6,162.1c6-2,6.7,8.9,10.5,11c4,2.2,3.9,6.6,3.9,10.5c0,1.1,1.2,4.8-1.9,3.6c-2.4-0.9-1.9-4.5-1.9-6.5
	c0-4.1-9.2-2.8-12.4-2.7c-2.4,0-13.5-0.7-13.1,3.3c0.1,1.5,0.8,4.2,2.3,5c1.5,3.5-3.5,1.4-4.4-1.7c-0.3-1.2-3-6.3-0.3-7
	c1.4-0.5,2.9-0.9,4.5-1.1c2.8-0.1,1.2-1.2,2.6-2.4C196.2,170.8,198.3,164.9,202.6,162.1C204.3,161.5,201.6,162.8,202.6,162.1z
	 M201.8,168.3c-3.9,2.1-6.4,6.8-0.2,6.8C208.8,175,202.8,168,201.8,168.3C201.4,168.5,202.4,168.1,201.8,168.3z"/>
<path class="st0" d="M946,342.5c-1.9,3.2-11.6,2.3-15,3.9c-2.9,7,6.6,4.1,10.3,3.2c2.1,0.8,3.8,1.2,4.7,3.5c-1.5,2.6-6,1.1-8.5,1.7
	c-5.9,1.5-14,4.5-11.7-5.3c0.8-3.4-3.5-13.2,0.6-14.4c3.2-0.9,6.6-1.6,9.8-2.6c1.3-0.6,2.7-0.9,4.2-0.8c1.5,0.9,1.2,3.8-0.5,4.4
	c-2.4,0.8-4.9,0.8-7.4,1.5c-1.9-0.1-2.8,0.8-2.5,2.9c-0.4,2.1,4.1,0.5,5,0.5C938.2,341,946.2,337.3,946,342.5
	C945.5,343.3,946,341.8,946,342.5z"/>
<path class="st0" d="M50.5,20.3c2.2,0.8,5.5,0.9,7.7,0.6c2.4,1.1,1.5,6.4,2.2,8.7c0.4,1.4-1.2,5.3-1.9,3.5c-1.2-3-0.7-8.8-4.9-8.7
	c-5.7,0.1-12.4-0.6-18,0.4c-2.2,0.4-4.8,1-3.6,3.8c0.8,1.9-0.8,5.6,1.1,7.3c-1.4,4.4-6.1-7.6-5.8-9.2c0.8-2.2,2.3-2.7,3.7-4.2
	c2.3-2.6,4.6-6.9,6.3-9.9C38.2,11,40.7-1.7,43,0.2c1.5,1.3,1,6.4,1.6,8.2C45.9,12.5,48.3,16.6,50.5,20.3
	C51.4,20.6,49.9,19.2,50.5,20.3z M40.8,9.3c-1.6,3.7-3.2,7.4-3.2,11.4c1.2,1.6,5.9,1,7.6,0.7c3.5-0.5,1.2-4.1-0.7-6.5
	C43.1,13.3,43.6,8.9,40.8,9.3C39.6,12,41.1,9.2,40.8,9.3z"/>
<path class="st0" d="M188.3,127.7c-4.6-2-1.1-8.1-2.9-12c0.7-3.1,0.1-5.7-0.1-8.8c-0.2-2.9,2.8-2.5,5.3-2.6c4.6-0.2,10.6-3.8,15-2.3
	c1.7,3.5-4.9,3.4-7.4,3.8c-2.1,0.3-7,0.1-8.4,2c-0.5,1.5,0.4,5.5,2.8,4.7c4.5-1.7,10.9,0,15,1.9c6.8,3.3,0.6,6.9-3.4,9.3
	C199.2,126.6,193.4,125.1,188.3,127.7C187.8,127.5,188.8,127.5,188.3,127.7z M201.2,122.3c2.1-2.4,8.1-3.6,2.8-6.3
	c-2.8-1.5-7.9-0.6-11-0.5c-3.4,0.1-2.4,4.2-2.2,6.5C192.3,124.5,198.8,122.4,201.2,122.3C202.6,120.7,198.3,122.4,201.2,122.3z"/>
<path class="st0" d="M572.2,149c2.9,1.4,14.3-5.5,14-0.2c-0.2,2.7-2.3,1.8-4.6,1.8c-0.6,0.3-4.9,2-5.8,1.9c-2.6-0.2-5.4,4.3-7,1.3
	c-1.3-2.4-2-4.8-2.1-7.6c-0.2-3.5-0.4-8.2,1-11.6c0-1.5-1.9-9.3,1.8-7.7c3.7,1.6,15.7-5.9,12.8,2c-0.9,0.8-6.6,1.4-8.1,1.3
	c-2.5-0.1-2.6,7.8-0.1,7.8c4.8,0,10.7-2.9,11.7,2.4c0.3,1.4-5.7,0.4-7.1,1.3C572.8,142.7,571.4,142.1,572.2,149
	C572.8,149.3,571.9,146.7,572.2,149z"/>
<path class="st0" d="M700.8,233.1c-0.4,5.5-6.8,0.3-7.3-2.6c-0.8-5-2.8-6.3-7.6-5.3c-4.9,1-5.5-0.2-6.9,5.3c-0.5,1.9-1,4.3-3.8,3.6
	c-1-3.1-0.1-3.8,0.6-6.7c1.2-4.4,5-9.1,5.4-13.4c0.3-2.5,2.8-11.7,6-5.9c2.2,3.9,4.3,7.6,6.2,11.6
	C695.4,223.9,696.8,230.2,700.8,233.1C700.7,234.4,700.4,232.7,700.8,233.1z M688,221.5c-0.7-1.8-1.5-5-2.7-6.4
	c-1.1-0.4-3,5.5-3.1,6.5C683.1,222.1,687.4,222.1,688,221.5C687.6,220.5,687.9,221.6,688,221.5z"/>
<path class="st0" d="M520.4,202.9c0.7-3.2,5.9-4.9,8.7-4.4c1.9,0.9,6,8.2,6.6,10.1c5,5.7,11.1,10.2,16.4,15.4
	c2.9,2.9,4.2,6.5-1.2,5.2c-3.8-0.9-6.1-4.7-9.3-7.4C534.9,216.4,525.2,210.1,520.4,202.9C520.6,202.2,520.6,203.2,520.4,202.9z"/>
<path class="st0" d="M701.3,214.9c3.9-5.6,20.7-14.2,21.5-2.6c2.2,4.1,1.6,8.9,3.2,13.2c0.7,1.8,2.4,3.5,0.8,5.2
	c-3.1,3.2-4.6-3.7-5-5.6c-0.8-3.9-0.6-14.8-6.4-12c-2.4-0.7-5.5,1.2-7.6,2.5c-3.5,2.1-2.7,4.6-1.9,8.1c0.5,2.2,1.3,4.3,1.7,6.5
	c0.3,1.7-3.4,2.1-3.8,0.5C702.3,225.5,701.3,220.3,701.3,214.9C702,213.9,701.3,215.2,701.3,214.9z"/>
<path class="st0" d="M94.3,27.9c-0.5-2.7,0.1-7.2-1.1-9.6c-1.5-3-0.8-7.3,1.5-9.6c2.2-2.2,6.8-5.8,9.3-2.4c2,2.8,0.1,8.3,4.3,8.3
	c9.1-0.2,7.6,10,0.4,12.3c-2.6,0.8-5.1,4.2-7.8,4.3c-1.2,0-2.2,1.9-3.5,1.3C96.4,32.1,95,28.8,94.3,27.9
	C94.1,27.1,95.2,29,94.3,27.9z M111.2,17.5c-6.4,0-15,0.6-12.4,9C103.2,29.1,115,19.9,111.2,17.5C110.1,17.5,112,18.1,111.2,17.5z
	 M100.9,8.3C97.2,9,93.6,14,98,16.6C102.2,19,105,10.1,100.9,8.3C99.8,8.5,101.8,8.6,100.9,8.3z"/>
<path class="st0" d="M88.2,247.2c-4.4-3.4,7.4-24.2,9.1-29.4c0.7-2.1,2.8-4.7,2.8-7c0-3.9,3,1.7,2.8,1.4c3.6,4.5,1.1,12.5,4.5,16.8
	c1.7,2.2,0.5,6.5,2.4,9.7c0.7,1.2,1.8,5.2-1.1,4.6c-1.5-0.3-3-5.6-3.5-6.8c0.7-7.2-11.1-6.6-11.3-1.2
	C93.3,238.1,91.2,247,88.2,247.2C86.6,246,89.4,247.1,88.2,247.2z M103.2,228c1.1-1.9,0.3-5.5-0.4-7.4c-0.4-1.3-1.7-6.7-3.1-2.5
	C97.8,223.6,92.9,231.4,103.2,228C103.9,226.7,101.1,228.7,103.2,228z"/>
<path class="st0" d="M396.1,241.3c-1.9-0.3-4.4-0.7-6-1.6c-2.6-1.3-1.3-4.1-1.3-6.5c0-3.1-0.9-10.8,1.4-13.5
	c1.3-1.6,7.6-0.5,9.7-1.4c2.7-1.1,8.8-1.1,7.7,3.2c-0.7,1-2.8-0.3-3.6-0.5c-2.8,0.6-5.4,0.9-8.2,1c-3.8,0.1-2.2,2.3-3.5,5.1
	c0.9,2,4.7,0.8,6.5,0.8c5.3,0,10.4,0.4,10.4,6.6C406.6,239.8,401,239.7,396.1,241.3C394.7,241,397.3,240.9,396.1,241.3z
	 M393.3,231.3c-2.2,7.7,5.4,8.3,10.3,4.5C410.3,230.8,396.6,230.4,393.3,231.3C393.1,232,393.9,231.1,393.3,231.3z"/>
<path class="st0" d="M979.3,331.9c1.2-2.6,5.2,0.8,5.7,2.2c-1.3,4.3-2.1,7.2,3.1,6c3-0.7,6.5-1.9,9.5-0.5c3.1,2.3,2.9,6.4,0.5,9
	c-1.7,1.9-3.6,3.5-6,4.5c-3.9,0-11.8,2-12-3.2c-0.1-3-0.3-6.1-0.5-9.1C979.6,338.7,978.6,333.9,979.3,331.9
	C979.8,330.9,979.1,332.7,979.3,331.9z M984.3,346.9c1,6.1,9.6-0.1,11.4-1.9C995.6,341.2,985,344.1,984.3,346.9
	C984.5,348.1,984.4,346.5,984.3,346.9z"/>
<path class="st0" d="M225.5,137.5c4.4,2.6-2.7,3.7-4,4.1c-3,0.8-7.8,0.9-6.9,4.6c0.6,2.6,6.3-0.4,8.8-0.4c5.6,0.1,7,4.2,5.4,9
	c-1.1,3.4-6.3,3.6-9.1,3.6c-5,0-9.1-0.4-9.4-5.9c-0.2-3.5-3-9.4,0.5-11.2C214.5,139.4,221.2,137.1,225.5,137.5
	C226.3,138,223.6,137.4,225.5,137.5z M216.9,155c2.1,0.3,4.2,0.1,6.3,0c1.7-0.7,6-4.1,2.3-5.6C222.8,148.4,211.5,150.3,216.9,155
	C217.1,155,215.7,154,216.9,155z"/>
<path class="st0" d="M747.8,206.3c4.2,1.4,2.7,11.8,3.5,15.2c0.5,1.9,3,6.4,1.9,7.9c-0.8,1.2-2.8,0.9-3.6,0
	c-2.1-2.2-3.2-8.9-2.9-11.7c0.8-7.6-2.4-4-6.8-3.5c-5.6,0.5-3.7,6.3-2.1,10.6c1.1,2.8,0.9,4-1.9,4.8c-2.2-0.9-2.1-5.1-2.3-6.9
	c-0.2-2.5-2.4-12.4,1.4-13.2C739.5,208.5,742.8,206.3,747.8,206.3C749.5,206.9,747.6,206.3,747.8,206.3z"/>
<path class="st0" d="M841.4,217.5c5.5-3.5,5.4,4.3,6.1,7.2c0.5,2.2,6.4,13.2,1.2,12.7c-2.1-1.9-5.9-13.2-6.8-13
	c-1.7,3.4-5.3,8.6-8.9,10c-5.3,2.1-5.5-4.1-6.4-7.9c-0.6-2.7-1.7-5.8-1.6-8.6c1.4-2.8,3.9,1,4,2.4c0.2,2,1.5,10.1,4.4,9.2
	C836.5,225.6,839.6,222.2,841.4,217.5C842.4,216.8,840.7,219.4,841.4,217.5z"/>
<path class="st0" d="M914.3,318.4c-5.6-2.1-4-12.1-3.9-17c0-1.3-0.6-6,0.8-6.7c3.4-1.5,3.4,5.1,3.9,6.7c1.1,4.1,9.8,1.3,11.8,6.6
	c1.4,3.6-0.8,5.2-3,7.6C921,318.8,917.9,317.2,914.3,318.4C913.7,318.1,915,318.2,914.3,318.4z M915.8,312.5
	c1.9,3.6,6.3,0.5,7.1-2.4c0.6-2.3-3.6-2.5-4.8-2.5C914.7,307.7,915.8,309.9,915.8,312.5C916.2,313.3,915.8,311.3,915.8,312.5z"/>
<path class="st0" d="M434.4,241.1c1,3.5-10.6,1.4-12.2,0.8c-3.5-1.2-8.9,0.1-9.2-5.4c-0.4-7.7,8.6-19.7,16.6-13.3
	c1.5,1.2,6.2,8.8,3.2,9.8c-3.9,1.4-11.2,0-15.5,0c-2.7,1.3,0.4,6.5,2.9,6.3C424.9,239.1,430.3,238.7,434.4,241.1
	C434.8,242.4,432.7,240.1,434.4,241.1z M425.8,224.4c-2.7,0.1-10.9,5.9-4.4,5.9C426.6,230.2,432.4,229.4,425.8,224.4
	C423.8,224.4,426.9,225.2,425.8,224.4z"/>
<path class="st0" d="M244.4,174c2.9-2.4,16.6-9.3,15.5-0.3c-0.2,1.7-3.1,3.9-0.7,4.7c2.6,0.9,4,2.6,5.5,4.8
	c-0.4,6.5-10.4,4.2-14.4,3.7c-3.2-0.4-5.6,0.2-4.7-3.9C246.3,180.1,243.8,176.5,244.4,174C244.7,173.8,244.3,174.6,244.4,174z
	 M253,173.1c-1.8,0.7-3.3,1.9-5.2,2.5c0.3,2.9,0.2,3.2,3.4,2.8C255.3,177.8,259.2,173.2,253,173.1C250.9,173.8,254,173.1,253,173.1z
	 M249.3,182.6c-0.3,2.5,10.7,2.8,11,0.3C258.8,180.1,251.5,181.5,249.3,182.6C249.2,183.3,249.7,182.4,249.3,182.6z"/>
<path class="st0" d="M537,197.9c-3.7-2.6-2.6-2.6-1.6-7c1.5-6.5,3.5-3.5,5.6,0.3c1.6,2.9,1.8,6,4.1,8.8c2.9,3.6,4.3,7.9,7.6,11.2
	c2.3,2.3,5,4.5,7.1,7c-0.8,4.8-6.2-1.4-7.8-2.2C545.1,212.6,541.5,203.7,537,197.9C535.9,197.1,537.7,198.8,537,197.9z"/>
<path class="st0" d="M405.2,135.5c-0.7,1.9,0.8,6.1,1.1,8.3c0.4,2.8,4,6.3,3.9,8.7c-0.2,4.5-5.5-2.6-5.9-3.1
	c-1.4-1.9-0.5-5.9-2.1-7.4c-2.7,0.7-3.6,10.3-3.9,12.7c-1.5,2.4-3.4,0.3-3.4-1.6c0-2.7,1.5-5.7,2.2-8.5c0.9-4-8.8-1.6-6.9-8.1
	C393.9,133.8,402.5,130,405.2,135.5C405,136,404.9,134.9,405.2,135.5z M394.1,138.1c0.9,1.3,6.5,1.9,7.7,0.5
	C403.7,134.1,395.5,136.6,394.1,138.1C394.3,138.4,395.2,136.9,394.1,138.1z"/>
<path class="st0" d="M231.6,106.5c1.7,1.5,8.4,8.8,4.1,10.9c-0.6,0.2-4.4-0.4-4.8-0.4c-2.8-0.1-5.9-0.3-8.8,0.1
	c-1.8,1.4-1.6,4.8,0.4,6.1c4.2,2.8,8.6,3,13.5,2.1c0.6,0.4,3.4,0.6,1.8,1.9c-1.7,1.4-6.2,1-8.3,1c-4.7,0-8.3-0.3-10.5-5
	C215.5,115.6,222.4,104.1,231.6,106.5C233.3,108,230.8,106.3,231.6,106.5z M229.9,109.3c-4.4-1.4-8.7,6-3.6,4.9
	C230,113.3,237.2,114.5,229.9,109.3C228.2,108.8,230.6,109.9,229.9,109.3z"/>
<path class="st0" d="M777.4,224.9c1.4,3.1,4.4,4.7,7.7,4.7c2.5,0,5,0,7.4,0c2.1,0,4.6,1.5,1.1,2.3c-9.6,2.1-18,1.7-20.9-8.7
	c-1.4-5.1,3.5-5.9,7.1-8.9c3.8-3.2,6.5-2.9,10.7-0.7c1.7,0.9,2.2,2.1,0.6,3.6c-1.4,0.8-5.4-0.4-7.1-0.4
	C780.4,218,778.4,221.8,777.4,224.9C777.8,225.8,777.5,224.5,777.4,224.9z"/>
<path class="st0" d="M83.2,11c3,6.1-2,6.2-5.9,7.1c-3.8,0.9-9.5,2.5-4.4,6.7c3.5,0.1,6.9-1.1,10.3-0.9c7.2,0.4,1.2,2-2.3,2.7
	c-2.9,0.6-9.4,2.2-11.7-0.7c-1.5-1.9-3.6-6.3-2.5-8.7c1.6-3.4,1.1-6.4,5.1-8.7C75.8,6.1,80.7,6.6,83.2,11
	C83.5,11.5,82.3,9.4,83.2,11z M71.6,15.9c2.8-0.8,11.9-0.4,8.1-4.9C75.8,8.4,67.8,13.9,71.6,15.9C74.4,15.1,70.9,15.6,71.6,15.9z"/>
<path class="st0" d="M817,216.5c0.9,2.9,1.1,5.1,1.6,7.9c0.3,1.9,4.3,11.3-1.6,8.5c-1.7-2.8-2.5-8.4-2.2-11.6
	c-1.1-2.7-9.3-1.1-10.1,1.3c-0.6,2.2-1,8.6,0.3,10.4c-0.6,1.7-1.7,1.7-3.2,1c-2.6-1.2-1.6-4.5-1.6-6.7c0.1-6.4-1.1-8.8,5.6-10.1
	C808.6,216.8,814.7,214.2,817,216.5C817.4,217.8,816.3,215.8,817,216.5z"/>
<path class="st0" d="M255.7,122.3c-3.9,0.1-5.8-0.6-5.5,3.7c0.1,1.6,1.7,8.8-1.9,6.4c-3.9-2.6-2.8-13-3.5-17.2
	c-0.8-5.5,8.2-11.1,12.7-6.9C262.4,112.8,261.3,119.7,255.7,122.3C254.3,122.3,256.3,122,255.7,122.3z M248.7,119.2
	c3.7,3,9.5,0.6,8.7-4.3c-0.4-2.7-2.4-6-5.4-3.9C248.4,113.7,248.7,114.8,248.7,119.2C249.1,119.5,248.7,117.2,248.7,119.2z"/>
<path class="st0" d="M330,124c-4.8,3.1-4.1-4.7-5.8-6.8c-2.8-0.1-3.4,5.7-7,1.9c-2.9-3-3.8-7.9-5.3-1.4c-0.2,1-0.1,9.8-2,8.1
	c-2.9-2.6-0.9-8.5,0-11.6c0.8-2.9,0.7-7.8,4.8-4.7c2.4,1.9,3.9,9.5,6.6,5c1.5-2.4,2.3-8.3,5.8-6c0.3,2.3,0.7,4.6,1,7
	C328.3,117.7,330.7,122,330,124C329.3,124.5,330.3,123.3,330,124z"/>
<path class="st0" d="M860.5,220.6c-0.7-0.5-3.6-0.1-4.4,0c-4.7,0.6-2.4-2.7,0.9-3.3c4.4-0.8,8.4-1.9,12.9-1.9c5.4-0.1,5.6,3.4,0.5,4
	c-4.9,0.5-3.4,2.1-3.4,6.5c0,3.3,2.5,9.5-2.6,9.5C858.5,235.4,862.2,223.9,860.5,220.6C859.9,220.2,861.5,222.5,860.5,220.6z"/>
<path class="st0" d="M237.4,179.6c-1.1,2.8-11.2,2.4-11.1,3.1c1,3.9,11.3-1.4,13.4,2.3c1,1.8-12.5,1.6-13.9,1.3
	c-2.9-0.8-5.2-5.7-4.4-8.5c1.1-3.8,5.3-7.1,9.3-7.1C236.4,170.6,237.4,175,237.4,179.6C237.1,180.4,237.4,178.1,237.4,179.6z
	 M225.9,178.3c2.1,1.5,8.3,1,8.7-2.1C233,170.7,224.5,174.6,225.9,178.3C226.6,178.8,225.6,177.5,225.9,178.3z"/>
<path class="st0" d="M956,342.7c0.7,5.6,2,8.4,8.4,6.6c1.5-0.4,7.7-2,8,0.5c0.5,3.6-16.5,3.8-19.1,1.9c-3-2.2-2-7.7-1.8-10.8
	c0.2-3.5,5.3-7.2,8.4-7.8c2.7-0.5,6.3-1.5,5.6,2.1C961.7,337.7,956.9,337.2,956,342.7C956.3,344.9,956.2,341.5,956,342.7z"/>
<path class="st0" d="M298.2,236.8c3.5-1.1,5.3-6.5,7.2-9.3c3.6-5.3,5.1,4.9,5.3,6.7c0.2,2.1,1.2,4.6,2.2,6.5c1.7,3.3-1.1,5-3,2
	c-0.9-1.4-3.3-10.8-4.3-9.4c-2.4,3.2-4.9,6.9-9,8.1c-3,0.9-3-7-3.2-9.6c-0.2-1.9-2.4-9.1,1.4-7.3
	C296.5,227.6,295.8,234.4,298.2,236.8C298.8,236.6,297.6,236.2,298.2,236.8z"/>
<path class="st0" d="M293.5,106.8c4.3-1,7.5,13.3,10.1,16.1c-0.3,5.2-3.7,0-4.5-1.4c-1.9-3.3-4.1-5.8-7.8-2.4
	c-0.2,3.4,0.3,6.1-2.7,7.9c-5,3-4.3-2-2.9-5.1C287.9,117.3,289.4,110.2,293.5,106.8C294,106.7,291.8,108.3,293.5,106.8z
	 M295.5,114.2C293,106.3,293.7,119.1,295.5,114.2C295.3,113.6,295.3,114.7,295.5,114.2z"/>
<path class="st0" d="M299.1,143.3c2.9,2.8,2.2,7.3,3.3,10.9c0.6,1.9,3.2,3.7,0.4,4.5c-2.4,0.6-3.6-1.6-3.8-3.6
	c-0.5-7.1-6.1,2.7-9.1-1.2c-3.4-4.4-2.7-5-4.8,0.8c-0.1,0.3-3.9,8.9-4.2,3.8c-0.2-4.5,3-8.7,3.9-13.1c1.1-6,4.6,1.5,5.8,3.2
	C294.8,154.9,295.6,145.4,299.1,143.3C299.4,143.7,298.1,143.9,299.1,143.3z"/>
<path class="st0" d="M329.8,150.8c-2,5.1,16.9,1.7,13.7,5.2c-6.6,0.1-14.1,2.8-17.7-4.1c-1.4-6.5,5.7-14.4,12.1-13.3
	c2.5,1,4,6.6,1.2,8.1C335.8,148.5,333.9,150.1,329.8,150.8C329.5,151.5,330.2,150.7,329.8,150.8z M332,143.2
	c-0.3,0.5-3.6,4.4-1.3,4.5c1.4-0.4,3.4-1.2,4.5-2.1C339.9,141.7,335.8,141.2,332,143.2C331.2,144.4,332.8,142.7,332,143.2z"/>
<path class="st0" d="M132.1,239.1c3.9,3.6-1.7,6.6-2.9,2.4c-1.2-4.5,1.1-10.1-0.2-14.2c-0.4-1.3,1.1-1.8-1-2.3
	c-2.4-0.6-6.5,0.7-7.3,3c0.4,3.3,3.4,10.6,0.6,12.9c-3.6,0.8-3-8.2-3.1-10.7c-0.1-2.1-2.1-7.1,1.5-7.2c2.8,0,10-3.3,11.9-0.5
	C132.1,227.9,132.1,233.6,132.1,239.1C132.7,239.6,132.1,238.5,132.1,239.1z"/>
<path class="st0" d="M44.5,42.1c2-1.3,7-0.7,9.3-0.7c3.3,0,9.7-2.5,10.5,1.9c0.5,2.9,2.6,13.2-2.3,11.1c-1.8-2.7,0.9-8.6-1.8-10
	c-1.8,0-7.4-0.2-8.9,0.7c-3.9,2.1,3.5,9.1,2.3,12.2c-0.5,1.3,0.7,2.3-1.1,3.1c-2.3-1-2.4-4.9-3.2-6.9c-0.6-1.6-1.8-2.7-1.9-4.5
	C47.2,46.1,43.9,44.9,44.5,42.1C45.1,41.7,44.1,44.2,44.5,42.1z"/>
<path class="st0" d="M138.4,223.3c1.3-2,8.7-5.2,11.1-4.2c3.8,1.5,3.8,7.5,2.5,10.9c-0.8,2.1,1.5,8.1,1.7,10.7
	c-2.5,4.6-4.5-6.3-4.5-7.7c-0.1-3.5,1.1-9.7-2.9-9.7c-5.9-0.1-5.3,4.6-5.3,9.2c0,2.2-0.3,3.1,0.9,4.9c-0.1,1.2-2.1,4.6-3.4,2.2
	C136.3,235.4,138.4,227.9,138.4,223.3C139.3,222,138.4,224.3,138.4,223.3z"/>
<path class="st0" d="M84.2,48.9c-1.1,2.3-2.1,3.6-4.6,4.6c-3.9,1.5-4.7-0.1-5.1,4c-0.1,1.4,1.4,5.4-0.7,6.4c-1.8,0.8-2.8-6.9-3-7.9
	c-0.6-2.8-0.9-5.6-1.4-8.4c-0.7-4.1-0.9-5.3,3.1-6.2C78.5,40.1,86,39.8,84.2,48.9C84.1,49.3,84.6,47.2,84.2,48.9z M72.7,48.3
	c2.7,3.9,10.4,3.9,8.9-2.3C80.3,40.3,72.7,43.7,72.7,48.3C73.2,49,72.7,47.6,72.7,48.3z"/>
<path class="st0" d="M381.8,232.7c2.8,8.3-14.3,9.8-19.3,8.5c-5.8-3.1,0.3-11,3-13.4C371.6,227.3,378,226.1,381.8,232.7
	C381.9,233.1,380.6,230.7,381.8,232.7z M378.3,233.7c-3.8-5.4-13.9-4.8-14.1,2.7C364.1,242.9,379.5,236.9,378.3,233.7
	C377.3,232.3,378.5,234.3,378.3,233.7z"/>
<path class="st0" d="M186.5,143.3c5.6-4.4,7.2-3.2,13,0.1c4.1,2.3,7.3,7.8,2.2,10.9C191.9,160.2,181.8,154.8,186.5,143.3
	C187.6,142.5,186,144.5,186.5,143.3z M190.9,154.4c3.3,0.6,5.9-0.2,8.8-1.7c4.3-2.2,0.4-5-1.7-7c-3.2-1.4-4.3-1.8-6.9,0.6
	C188.2,149,187.9,152,190.9,154.4C193.6,154.9,190.3,153.9,190.9,154.4z"/>
<path class="st0" d="M195,6.9c6,2.1,8.8,8,9.5,14.2c0.2,1.1,0.7,2.1,1.5,3c1.3,1.9-1.2,4.3-2.7,2.1c-2.2-3.3-2.2-4.9-6.7-4.9
	c-3,0-5.1-1.5-4.9,2.5c0.3,4.2-5.2,5-3.2-0.6C189.5,20.3,192,8,195,6.9C195.9,7.2,194.2,7.2,195,6.9z M199.3,17.8
	c0.8-2-1.9-8.8-4.3-6.4C190.3,16.4,194.5,18.7,199.3,17.8C200,16.1,197.5,18.2,199.3,17.8z"/>
<path class="st0" d="M110,291.5c5.1,9.9-13.4,16.6-17.9,7.2c-2.1-4.5,0-7,3.7-9.8C100.1,285.7,106.5,288.5,110,291.5
	C111,293.4,109.3,290.9,110,291.5z M102.4,290.2c-3.9,1.4-3.6,1.7-5.8,5.2c0,3.1-0.9,4.5,3.2,5c3.1,0.3,7.1-1.5,8.3-4.5
	C109.5,292.6,104.6,291,102.4,290.2C101,290.8,103.7,290.7,102.4,290.2z"/>
<path class="st0" d="M197.6,243.4c-10.6-3.9-0.7-20.2,8.7-15c3.7,2,5.3,5.4,3.5,9.4C207.5,242.7,202.3,243.4,197.6,243.4
	C195.7,242.7,198.7,243.4,197.6,243.4z M202,239.8c3.4-1.5,8.6-7.2,2.1-8.5C197.9,230,192.6,241.5,202,239.8
	C202.8,239.4,201,240,202,239.8z"/>
<path class="st0" d="M570.2,181.1c1.7,2.6,5.1,4.2,7.1,6.6c1.9,2.3-0.5,7.7-3.6,7.3c-3.5-0.5,0.3-4.4,0.3-5.7
	c-1.1-2.1-5.2-4.5-7.2-5.5c-7.8-3.9,2.4-9.7,4.6-13c0.7-1,2-3.2,3.4-3.4c2.2-0.3,3.4,1.8,1.7,3.5C574.7,172.7,569,178,570.2,181.1
	C571,182.3,569.7,180,570.2,181.1z"/>
<path class="st0" d="M246.2,153.2c-2.2-0.4-4.2,0.6-6.3,0.4c-1.5,0.8-0.5,1.8-1.1,2.8c-3.8,1.9-3.8-3.6-3.9-5.8
	c-0.1-1.9-1.5-8.7,0.7-9.6c5.6,2.4-1.6,10.7,7.6,8.4c5.6-1.4,0.7-3.3,3.1-6.2c2.4-2.9,2.8,4.8,3.9,6.2c0.8,4.1-0.7,6.1,2,9.9
	c0.2,2.2-2.5,1.2-3.4,1C246.9,158.1,246.7,155.8,246.2,153.2C243.8,152.7,246.4,154.1,246.2,153.2z"/>
<path class="st0" d="M121.2,10.3c5,0.2,8.6-5,12.7,0c4.2,5.2,1.2,7,0.2,12.4c-4.3,3.6-9,4.3-12.1-1.1
	C121.6,16.8,118,14.8,121.2,10.3C122.6,10.3,120.5,11.2,121.2,10.3z M129.9,22.8c2.9-2.3,6.7-9.6,0.7-10.6
	C124,11,121.3,22.8,129.9,22.8C130.7,22.2,129,22.8,129.9,22.8z"/>
<path class="st0" d="M321.8,179.1c2,1.8,8,3.3,8.6,5.9c-0.7,3-10.1-3.2-11.1-4.1c-3.7,0.2-2.6,6.8-5.4,5.7c-3-1.2-1.2-11-0.8-13.3
	c0.4-2.5,1.6-3.5,3.2-1.4c0.3,1-0.9,4.8,0.1,5.5c1.5-0.2,11.8-8.7,12.6-6.1C330.7,177,322.6,174,321.8,179.1
	C322.2,179.4,321.9,178.8,321.8,179.1z"/>
<path class="st0" d="M225.3,49.1c-1.6-3.1-4.6-13.5-0.6-14c0.8,1.4,1.2,5.4,3.2,4.8c2.9-0.9,5.4-2,8.5-1.3c2.9,0.7,3.6,1.5,5,4.1
	c0.1,1.2,0.3,2.4,0.4,3.6c-0.6,0.7-1.3,1.4-2,2.1C238.2,52.4,228.3,50.1,225.3,49.1C224.3,47.1,226.3,49.4,225.3,49.1z M232.5,41.5
	c-1.8,1.3-6,0.3-5.2,3.9c1.9,2.6,3.9,2.3,6.8,1.9c2.2-0.2,3.8-0.4,4.8-2.6C238.8,41.8,234.6,42,232.5,41.5
	C232,41.8,234.6,42,232.5,41.5z"/>
<path class="st0" d="M259.9,159.9c-3.5-0.1-3-10.8-3.7-13c-0.8-2.4,2.8-3.2,2.8-2.1c-0.1,2.8,0.6,7.2,1.8,9.6
	c3.1-1.6,5.7-12.6,9.1-8.2c1,1.3,5.2,13.7,3.6,14.2c-5.1,1.6-2.8-9.1-5.6-8.8C265.1,152.3,262.6,158.4,259.9,159.9
	C259.2,159.9,260.1,159.7,259.9,159.9z"/>
<path class="st0" d="M169.6,20.5c-3.4,1.6-0.7,4.9-2.9,6.4c-4.4,2.9-2.4-9.4-2.4-10.9c0-1.1,0.2-7.3,2.8-4.2
	c0.6,3.4,0.5,3.5,3.8,3.1c0.6-0.7,7.3-5.4,7.1-2.5c-0.3,5.2-7.6,3.2-2.4,8.9c0.1,0.1,6.1,7,2,5.2C174.3,25.2,172.8,22,169.6,20.5
	C168.4,21.1,171.3,21.3,169.6,20.5z"/>
<path class="st0" d="M231.4,224.5c2.6,5-3.7,2.9-6.5,2.7c-2-0.1-1.7,5.8-1.6,7.2c0.1,2.8-0.7,5.1,1.9,6.8c1.2,2.3-2.5,5.1-4.4,3.2
	c-1.2-2,1.1-20.4-4.2-17.1c-4.5-2.4-3.3-4.5,1.4-3.7C222.4,224.3,227.3,222.8,231.4,224.5C231.7,225.1,230.3,224,231.4,224.5z"/>
<path class="st0" d="M309.3,160.4c-3.2-2.1,2.5-11.8,4.3-14.4c0.8-1.2,2.6-6.8,5.2-3.1c1.4,2.1,2.5,5.2,4.3,6.8
	c0.7,0.5,0.7,5.7,1.6,7c-0.8,1.7-3.5,1.7-3.9-0.5c-0.8-4.2-3.4-4.9-6.9-2.9C312.3,155.2,311.6,159.3,309.3,160.4
	C308.4,159.8,310.4,159.9,309.3,160.4z M317.1,149.2c0-0.5,0.1-0.9,0.1-1.4C316,147.5,316.2,148.9,317.1,149.2
	C317.6,148.7,316.8,149.1,317.1,149.2z"/>
<path class="st0" d="M245.8,240.9c-9.2,0-10-15.2-2-14.6c3.9,0.3,8.4,0.3,10.1,4.9C255.5,236,248.8,238.8,245.8,240.9
	C244.6,240.9,246.2,240.6,245.8,240.9z M244.8,237.9c5.2-2.2,8.2-6.4,1.7-8.5C241.4,227.8,239.8,237,244.8,237.9
	C247.3,236.8,243.5,237.7,244.8,237.9z"/>
<path class="st0" d="M378.1,182.7c-0.9,0.3-1.7,0.8-2.4,1.5c-1.7-2.1-2.4-7.1-5.5-6.7c-2.2,2.4-4.9,3.8-7.9,5.3
	c-2.8,1.4-5.7,1.8-6.5-1.8c-0.3-1.3-1.9-11.1,1.4-9.8c2.5,1,1.4,4.4,1.6,6.5c0.6,5.4,4,1.5,7.1-0.5c1.5-1,4.6-5.5,6.8-4.3
	C375.8,174.5,377.5,179.5,378.1,182.7C377,182.9,378,182,378.1,182.7z"/>
<path class="st0" d="M334.3,227.2c-2.1-0.7-6.3,0.1-6.7,2.3c-0.6,3.9,0.7,8,0.5,11.9c-3.7,3.9-5.2-4.6-4.1-7c1.5-3,1.1-8.3-3.7-6.5
	c-2.1,0.8-2.3-4.3,0.4-3c3.4,1.6,9.4-1.1,12.9-1.1c2.1,0,9.5-3,9.2,0.6C342.6,227.4,337.3,226.5,334.3,227.2
	C334.1,227.1,336.3,226.7,334.3,227.2z"/>
<path class="st0" d="M353.2,105c5.8-1.3,11.5-2.6,17.5-2.6c3.9,1.6-3,3.5-4.1,3.5c-2.1,0.9-4.6,2.7-3.2,5.5c1.1,2-0.6,5.7,0.2,8.4
	c-2.1,5.2-4.7-5.3-4.7-6.1c-0.1-2.4,1.3-6.9-2.2-5.9C355.1,108.2,350.3,107.3,353.2,105C354,104.8,352.6,105.5,353.2,105z"/>
<path class="st0" d="M298.7,179.6c-3-1.4-5.8,1.7-8.6-1.3c-1.5-1.6-0.9-5.5-0.3-7.5c0.3-0.8,0.8-1.4,1.7-1.6c2.5,1.2,1,2.6,1.1,4.7
	c0.1,3.1,2.5,1.8,4.4,1.6c2.7-0.2,2.8-1.2,2.8-3.8c-0.5-1.4,0-2.3,1.4-2.6c2.6-0.1,2.1,4.1,2,5.7c-0.2,2.9-1.2,6.2-0.1,9.1
	c1.2,3.3,3.3,3.3-1.4,4.1C298.3,186.6,300.4,182,298.7,179.6C298.4,179.4,299.9,181.3,298.7,179.6z"/>
<path class="st0" d="M287.2,107.5c-3.4,1.6-11.8,1.1-14,4.6c-0.8,4.2,1.6,11.4-2.2,14.2c-2.7-1-4.1-17.4-1-18.8
	c3.7,0.9,5.3-0.5,8.9-1.7C280.8,105.1,287.2,103.9,287.2,107.5C286.2,107.9,287.2,106.4,287.2,107.5z"/>
<path class="st0" d="M135.3,43.3c1.8,0,3.9,0.8,4.9-1.1c0.3-0.6,1.7-6.2,3.1-3.4c-1,2.7,0.4,5.8-1.2,8.2c0.4,1.5,2.6,4.2,2.6,5.3
	c-3.6,4.6-5.1-4.7-5.5-5.5c-7-5.3-2.7,7-5.3,7.3C127.7,54.7,130.1,28.3,135.3,43.3C136.7,43.3,134.9,42,135.3,43.3z"/>
<path class="st0" d="M157.4,23.9c0.1-0.3-2.5,8.2-2.8,4.3c-0.4-4.8-0.8-10-6.1-10.3c-1.8-0.1-7.1-0.9-5.5-4.3
	c0.6-1.4-1.3-7.6,1.8-6.8c2.9,0.8-0.8,8,3.7,7.8c1.4-0.1,2.8,0,4.3,0c1.3-1.5,1.9-5.4,1.9-7.3c2.2-3.8,2,4.2,2,4.7
	C156.2,16.4,156.5,19.6,157.4,23.9C157.2,24.4,157.2,23,157.4,23.9z"/>
<path class="st0" d="M590,185.6c0.5,4.8-0.8,10.8-5.4,13.2c-6.4-2.2,5.1-7.8,0.4-12.2c-2.8-2.6-3.7-2.5-5.5-6.1
	c0.4-2.2,0.5-5.8,3.5-6.3c3.7,1.1,0.1,4.2,0.9,6.6C584.4,182.7,588.7,183.8,590,185.6C590,185.8,588.7,183.8,590,185.6z"/>
<path class="st0" d="M199.9,48.1c-0.5,2.4,2.3,4.1,1.3,6.3c-2.6,1.2-3.2-2.9-4.7-3.9c-1.5-1.3-5.5-0.6-7-0.2
	c-0.9,1.1-1.8,2.2-2.6,3.4c-1,1.3-3.6,2.2-2.4-0.4c2.2-4.9,5.5-8.6,7.3-14.1C192.6,36.9,198.9,46.8,199.9,48.1
	C199.6,49.9,199.6,47.7,199.9,48.1z M192.2,46.3c1.4,1.3,2.8-0.4,1.2-1.3C193,45.5,192.6,45.9,192.2,46.3
	C192.8,46.9,192.4,45.6,192.2,46.3z"/>
<path class="st0" d="M52.2,81.3c-1.6,4.2-14.1-1.7-16.5-3.3c-3.5,0.1-5.1,1.1-8.1,2c-2.6,0.8-3.2,4.9-6.4,3.1
	c-1.1-1.4,2.8-3.2,3.6-4.3c1-1.4,3.2-7.5,5.5-6.6c3.6,1.4,6.4,3.4,9.8,5.1C43.4,78.8,50,78.7,52.2,81.3C51.9,82,52,81.1,52.2,81.3z"
	/>
<path class="st0" d="M763.1,73.9c0.9-4.4,6.4-11.7,10.2-14.4c1.8-1.3,14.8-8.5,15.6-5c-0.3,1.9-5.2,3.1-6.6,3.9
	c-3,1.6-5.7,3.2-8,5.7C773.1,65.3,764.4,78,763.1,73.9C763.4,72.7,763.3,74.6,763.1,73.9z"/>
<path class="st0" d="M370.3,144.1c-1.2-4.5,12.9-11,12.9-6.8c0,2-3.1,1.2-4.5,2.2c-2.8,2.1-3,4.3-0.9,7.1c3.3,1.2,6,1.2,9.5,1.2
	c3.5-0.1,2.4,2.8-0.4,2.9C379.2,151,375.6,149.6,370.3,144.1C370.1,143.3,371.8,145.6,370.3,144.1z"/>
<path class="st0" d="M189.5,222.1c4.5,2-1.6,4.3-3.3,4.8c-2,0.5-6.6,0.6-7.7,2.7c0,3.4,0.1,6.6,0.5,9.9c0.2,2.2-3.9,5.6-3.9,2.4
	c0-3.9,0.1-7.8,0.1-11.7c0-3.8-0.4-4.1,3.9-5.2C182.6,224.1,186,222.9,189.5,222.1C190.2,222.4,189,222.2,189.5,222.1z"/>
<path class="st0" d="M357.8,141.5c-2.1-1.9-4.4,1.2-6.5-0.6c-1.3-3.1,2.8-3.9,5.1-4c3.4-0.1,7-1.8,10.3-2.6c2.6-0.7,6,0.6,2.7,3.1
	c-2.9-0.1-6.9,0.7-9.2,2.5c-1.2,2.7,1.1,7.8,1.9,10.4c1.5,4.4-1.7,4.6-2.8,0.5C358.5,148.2,357,144.3,357.8,141.5
	C357.5,141.2,357.7,141.9,357.8,141.5z"/>
<path class="st0" d="M907.8,117.2c3-3.6,5.2,0.1,5.5,2.9c0.4,3.7-1.2,7.3-1.4,10.9c-0.3,4.9-5.2,2.9-5.7-0.8
	C905.6,125.8,906.3,121.2,907.8,117.2C908.8,115.9,907.5,118,907.8,117.2z"/>
<path class="st0" d="M339.9,122.7c-8.5-1.1-3.3-15,4.3-15c2.8,1.4,5.2,4.5,5,7.7C349,120.8,344.5,121.5,339.9,122.7
	C338,122.5,341.8,122.2,339.9,122.7z M339.4,113.7c-0.4,6.1,3.7,7.7,7.3,2.5C346.6,111.2,341.8,108.4,339.4,113.7
	C339.3,115.1,339.8,112.8,339.4,113.7z"/>
<path class="st0" d="M90.3,50.7c-1.8-9.3,13.9-14.1,15.6-5.3C107.2,53.1,93.3,59.2,90.3,50.7C90.1,49.7,90.7,51.8,90.3,50.7z
	 M94.2,45.6c-0.2,2.3-2.3,4.2,0.4,6c2.7,1.8,6.3-0.1,8.2-2.3C107.1,44.4,97.3,42.5,94.2,45.6C94.1,46.3,94.9,44.8,94.2,45.6z"/>
<path class="st0" d="M338.8,185.3c-4.8-6.5-2-16.7,7.3-14.4C353.6,174.8,345.4,185.8,338.8,185.3
	C338.3,184.6,339.9,185.4,338.8,185.3z M343.5,173.2c-2.9,0.9-7.4,8.7-2.5,9.2C344.6,182.6,348.7,174.5,343.5,173.2
	C341.7,173.7,344.2,173.3,343.5,173.2z"/>
<path class="st0" d="M271.5,186.7c-8.3-2.8-1-16.1,7.4-11.9C287,179,277.5,187.7,271.5,186.7C270.5,186.4,273.9,187.1,271.5,186.7z
	 M279.5,179.2c-1.5-4.7-9-1.6-7.9,3C272.7,186.8,278.6,182.1,279.5,179.2C279.2,178.3,279,180.8,279.5,179.2z"/>
<path class="st0" d="M929.4,312.3c0-3.8-0.8-7.2-1-11c-0.1-1.3-0.4-3.3,0.2-4.5c3.4-2.7,4.9,1.8,4.8,4.4c-0.2,3.4,0.5,7.2,1.2,10.5
	c0.3,1.2,0.8,3.5-0.6,4.3C930.4,316,931.3,314.5,929.4,312.3C929.4,311,930.5,313.5,929.4,312.3z"/>
<path class="st0" d="M908.1,92c-0.1-3,0-8.3,4.1-5.9c4.3,2.5,0.7,8.8,0.7,12.8c0,2.3-3.2,5.4-4.7,2.4
	C908.8,97.8,906.3,95.8,908.1,92C908,90.1,907.8,92.6,908.1,92z"/>
<path class="st0" d="M85.6,317.8c-4.1-5.9,6.6-11.2,11.2-8.2C104.3,314.5,91.2,321.1,85.6,317.8C85.2,317.2,86.7,318.4,85.6,317.8z
	 M90.1,315.8c2.2,0.8,6.2-0.3,5.4-3.6C93.2,310.2,88.5,312.3,90.1,315.8C90.7,316.1,89.4,314.2,90.1,315.8z"/>
<path class="st0" d="M912.6,144.4c2.6,2.4-0.7,19.7-5.4,14.1C904.9,153.6,905.7,143.1,912.6,144.4
	C913.5,145.1,911.6,144.2,912.6,144.4z"/>
<path class="st0" d="M908.7,72.5c-2.5-1.4-1.6-6.4-1.6-8.8c0-3.3-0.2-8,4.7-7.1C914,56.9,914.6,74.4,908.7,72.5
	C907.9,72,909.9,72.8,908.7,72.5z"/>
<path class="st0" d="M910.2,189.7c-5,0-5.1-15.3-1.4-16.9c5.1-0.3,3.4,2.9,3.5,6.8C912.4,182.3,912.6,187.8,910.2,189.7
	C909.5,189.7,911.4,188.7,910.2,189.7z"/>
<path class="st0" d="M171.6,44.9c-1.1,1.5-3.8,5-3.2,7c0.8,2.8-1.9,3.6-2.4,0.3c-0.4-2.7,3.8-14,6.8-13.6c2.4,1.3,5.6,10.2,7.1,12.9
	c0.2,4.3-3.1,0.3-3.7-0.6C174.9,48.9,174.2,44.7,171.6,44.9C170.3,46.5,173.1,44.8,171.6,44.9z"/>
<path class="st0" d="M158.4,56.4c-6,1.4-0.5-8.4-4-10.6c-2-1.3-4.5-2.2-6-4.1c-2.6-3.3,1.8-1.9,3.3-1.1c1.4,0.8,6,4.3,6.3,1.2
	c0.3-2.7,3.5-4.7,2.7-0.7c-0.6,2.9-1.3,5.9-2,8.8C158.1,52.2,158.9,54.2,158.4,56.4C157.8,56.6,158.6,55.5,158.4,56.4z"/>
<path class="st0" d="M910,200.5c3.6,1.8,2.6,17.8,0.1,17.3c-4.3-0.9-3.5-3.8-3.1-7.5C907.3,207.7,906.8,201.4,910,200.5
	C910.4,200.6,908.6,200.9,910,200.5z"/>
<path class="st0" d="M212.6,37.1c1.1,0,5.9,2.4,2.7,2.9c-3.2,0.5-4.5,0.9-6.9,3.5c-1.2,3-1.5,4,1.7,5.7c0.9-0.1,9.6-1.8,8.6-0.2
	c-3.1,5-12,3-14.2-1.4C202.6,43.5,210,38.6,212.6,37.1C213.6,37.1,211.8,37.6,212.6,37.1z"/>
<g>
	<path class="st0" d="M792,498c2.5-1.2,1.3-20.1,1.3-23.6c-0.1-7.8-1.1-15.3-1.5-23.1c-0.2-4.4-1-9.5-0.9-13.7
		c0.1-3.1,1.9-9.7-1.1-12c-1.3-0.6-4.1,0.7-5.2,1.5c-3.3,2.5-6.5,0-3.7-3.4c0.4-4.7,2.3-9.2,3.6-13.7c1-3.4,1.7-8.4,3.4-11
		c1-1.4,0-3.5,0-5c0-3,1.4-3.9,1.6-6.9c0.1-1.7-0.2-7.9,2-8.8c4.3-1.9,4.8,14.2,5.7,16.5c1.1,2.9,3.7,8.8,3.5,12
		c-0.3,5,7.6,6.6,2.6,10.7c-4.5,3.7-5.6,5.7-5.6,11.6c0,4.1,0.6,8.3,0.4,12.4c-0.4,7.6-2.2,17.3,0,24.8c2,7,0.5,15.3,1.6,22.5
		c0.4,2.7,0,5.9,0,8.7c0,1.5,0.6,3,0.5,4.5c-1.8,1.8-4.2,1.2-6.4,2.1c-3.3,1.4-7.5,0.2-10.3,2.4c-4.3-1.2-7.5,0.7-11.7,0.8
		c-6.9,0.2-13.5,0.5-20.4,0.5c-8.9-6.1,10.4-8,14.8-7.8C774.9,500.5,783.4,498.6,792,498C792.7,497.7,788.9,498.3,792,498z"/>
	<path class="st0" d="M263.7,457.3c-1.1,1.6,0.3,2.8-1.6,4.3c-1.1,0.9-3.6,1.4-5,1.7c-2.8-1.3-1.1-8.8-1.2-11.4
		c-0.1-3.6-1.1-11,0.2-14.5c1.7-4.6-0.7-10.2,1.2-14.9c0.6-1.6,0.2-7-0.5-8.6c-1-1.5-2.4-0.6-3.7-0.7c-3.7-0.2-1.5-4.3-1-6.2
		c2.3-9.1,3.7-18.9,4.8-28.2c0.2-1.8-0.2-10.4,3.2-9.2c1.5,1.6,2.7,10.5,2.7,12.8c0,9.5,1.5,18.6,4.6,27.6c2.1,6.2-2,1.9-5.4,4
		c-2.3,2.9-0.2,10.5-0.2,14C261.6,437.7,261,447.7,263.7,457.3C263.1,458.1,263.5,456.7,263.7,457.3z"/>
	<path class="st0" d="M562.5,316.1c5.8-3.1,3.4,9.2,4.6,11c3.1,4.4,2.8,11.2,4.5,16.1c0.5,1.5,3.5,5,1.1,6c-0.9,0.4-5-1.6-5.1-0.2
		c-0.7,7.6,0.2,15.1,1,22.5c0.5,5.5-9.4,0.9-7.1-4.5c1-2.3,0.2-6.4,0.2-8.9c0-2.9,1.6-9.9-2.1-9.8c-7.5,0.1-1.4-9.5-0.6-13.6
		c0.5-2.6,2.1-6.3,1.8-8.9C562.2,322.9,560.6,318.9,562.5,316.1C563.7,315.4,561.8,317.1,562.5,316.1z"/>
	<path class="st0" d="M450.1,380.3c2.9-5.1,6,9,6.9,11.1c2.4,5.4,3.1,11.7,5.1,17.3c1,2.9,1.3,6.3,2.4,9.2c0.9,2.5,3.1,4.8-0.6,5.2
		c-4.8,0.5-1.7-10.8-6.3-10.8c-2.4,0-14.3-1.1-15.1,2c-0.6,2.4-1.8,4-1.9,6.8c-0.4,0.7-1,1.1-1.7,1.4c-3.9-1-2.1-1.2-2.1-4.3
		c3.7-4,5.1-13.6,7-18.6C446.4,393.3,448.8,386.9,450.1,380.3C450.5,379.7,449.9,381.3,450.1,380.3z M457.7,408.2
		c0.6-2.6-3.5-19.4-6-20.2c-2,4.5-3.3,9.5-4.9,14.3c-1.2,3.8-4.1,7.2,1.5,7.2C451.3,409.4,454.8,408.9,457.7,408.2
		C457.7,408,455.8,408.7,457.7,408.2z"/>
	<path class="st0" d="M456.7,492c1.3,4.8,5,12.4-2.9,12.4c-2,0-17.5-0.7-16.9,2.3c1.1,5.5,5.4,7.5,10.4,7.9c2.2,0.2,4.5,0.6,6.7,0.6
		c2.2,0,4.2,2,1.4,3.4c-2.7,0.5-13.2,0.3-15.3-1.8c-1.8-1.8-4.1-2.5-5.7-4.7c-0.3-3.9-1.5-6.7-0.6-10.9
		C436.1,490.7,447.8,483.6,456.7,492C457.1,493.4,456.4,491.8,456.7,492z M453.5,499.9c0-3.8-0.7-5.9-4.2-8.1c-4-2.6-8,2.5-10.1,5.5
		c-2.3,3.1-1.7,3.9,1.6,3.8C443.8,501,451.3,502.2,453.5,499.9C453.5,498.9,453.3,500.1,453.5,499.9z"/>
	<path class="st0" d="M260.2,510.4c-3.7,3.4-1,7.1,0.6,10.2c-0.5,1.5-2.9,5.2-5,4.3c-1.2-0.9-0.7-5.4-0.8-6.7
		c-0.2-5.7,0-11.1,0.1-16.9c0-2.1-0.7-10.2,1.3-11.5c2.7-1.8,10.7-2.3,13.8-1.8c4.6,0.7,6.5,3,8.7,6.7c2.6,4.4-1.6,10-4.9,12.8
		C269.7,510.9,265.4,510.4,260.2,510.4C259.7,510.8,260.8,510.4,260.2,510.4z M272.7,491.9c-3.3-0.7-9.3-1.4-12.2,1
		c-1.9,1.6-3.4,13.4-1.3,14.4c4.3,1.3,9.4,0.2,13.2-2C275.1,501.4,278.7,495.1,272.7,491.9C271.6,491.7,274.3,492.7,272.7,491.9z"/>
	<path class="st0" d="M595.9,497.9c5.4-1.7,2.9,9.3,2.9,12.6c0.1,6.7,8.9,0.2,8.6,7.7c-0.1,3.4-7,10-6.1,4.1c0.6-3.7,1-4.8-3.6-4.6
		c-3.4,0.1-6.7,0.6-10.2,0.5c-2.7,0-5.3,0-8-0.5c-4.2-0.8-3.2-5.8-2.7-8.8c0.2-1.5-0.7-8.6,1-8.8c2.4-0.2,2.6,3.9,2.6,5.3
		c0,1.1-0.8,5.3-0.4,6.2c0.7,1.4,7.4,1,9,1.2c4.5,0.6,5.1,1.2,5.8-3.6C595.2,505.4,595.7,501.7,595.9,497.9
		C596.7,497.6,595.8,498.5,595.9,497.9z"/>
	<path class="st0" d="M585.1,461.5c2.4,7.5-6,2.4-7.6-0.8c-0.7-1.3-10.5,0.7-12.8,0.3c-5.3-0.8-10.3-3.1-8.2-9.7
		c0.6-1.8-1.4-6,0.1-7.4c2.4-2.2,4,0.8,4,2.8c0,2.4-0.8,6.4,0.8,8.4c2.6,0.7,6.6,0.9,9.3,1c4.1,0.2,1.6-11.4,2.7-14.9
		c4.6-2.9,2.2,12.6,3.9,13.9C580.6,455.7,589.6,454.8,585.1,461.5C585.3,462,586.4,459.7,585.1,461.5z"/>
	<path class="st0" d="M111.9,503.1c-2.7-7.3-0.6-14.5,4.7-20c3.8-3.9,12-5.3,16.7-2.3c1.2,0.8,2.3,1.5,3.4,2.3
		c0.7,2.1-0.7,2.9-2.5,1.4c-2.4-1.9-5.4-0.3-7.6-1.9c-3.1,0.7-6.3,2.1-8.3,4.6c-1.9,2.4-1.1,4.9-2,7.2c-2.4,5.8,5.5,13.7,10.4,14.4
		c3.9,0.5,16.4-5,17.8-2.6c-0.9,3.7-12.7,5.2-16.8,5.3C121.2,511.6,117.1,506.2,111.9,503.1C111.6,502.4,112.2,503.2,111.9,503.1z"
		/>
	<path class="st0" d="M355.2,516.2c-4.4-3.1-0.7-16.3-0.7-20.8c0-3.7,0.4-7.5,0.4-11.2c0.4-0.9,1.7-1.8,2.5-0.8
		c1.4,1.7,0.4,4,0.4,6.1c0,3.4-0.5,7-0.4,10.4c0.1,3.9,3.7,0.7,6.3,0.6c7.2-0.1,2.9-11.6,6.1-16.4c3.9,0.2-0.1,13,0.5,16.2
		c0.6,3.1,0.2,6.6,0.2,9.7c0,3.1,2.9,5-0.3,7.5c-2.8-0.2-2.7-5.4-2.7-7.2c-0.1-4.9-1.8-6.4-7-5.2
		C354.9,506.4,360.2,516.8,355.2,516.2C354.3,515.5,355.9,516.3,355.2,516.2z"/>
	<path class="st0" d="M225.2,497.7c5.5-1.1,6.2-13.1,11.2-15.9c2.9-1.7,1.2,3.9,1,4.5c-0.7,2.2-3,4.3-4.1,6.4
		c-1.2,2.2-4.7,6.7-1.6,8.6c2.6,1.6,4.1,4.4,6.7,6c2.7,1.7,2.3,4.8-0.2,6.4c-3.3,0.9-4-3.4-5.4-5.2c-5.7-7.6-6.7,1.7-10,6.1
		c-3.1,4.1-2.9-1.9-1.7-4.1c1.3-2.2,3.8-6.2,3.6-8.8c-1.5-1.8-11.9-7.5-9.9-10.3C216.4,489.1,224,496.7,225.2,497.7
		C225.5,497.6,224.3,496.9,225.2,497.7z"/>
	<path class="st0" d="M325.2,485.5c4,2.7,0.3,13.8,4,13.8c3.4,0,6.9-1.9,10.3-2.1c2.7-2.3,1.6-7.5,2.1-10.8c0.1-0.4,2.9-7,3-3.2
		c0.1,3.6-0.4,7.6-0.9,11.2c-0.4,2.8-0.5,5.5-0.6,8.4c-0.1,2.1,0,3.6,0,5.6c0,2.4,1.9,4.2,1.5,6.6c-1.3,2.9-3.9-0.1-3.9-2
		c0-3.5-0.4-7.3-0.6-10.8c-0.1-2.1-6.2,0.4-7.4,0.5c-5.8,0.2-4.7,2.1-5.8,6.7c1.2,2.9,1.2,3-1.9,4.5c-3.5-0.6-1.4-8.7-1.4-10.7
		C323.7,500.2,322.9,486.4,325.2,485.5C326.4,486.3,324,485.9,325.2,485.5z"/>
	<path class="st0" d="M632.3,502.1c1.1,3.3,2.8,6.8-0.4,9.5c-2.3,2-13.6-1.4-14.5,1.5c1.2,5.5,8.7,4.5,12.7,4.5
		c2.3,0,4.4-0.2,6.5,1.2c0.6,1.1-0.1,3.3-1.7,2.5c-4.2-1.8-10.1-0.7-14.6-0.7c-4.4-2-8.2-6.3-6.5-11.5
		C615.7,502.9,627.1,492.2,632.3,502.1C632.6,502.7,631.2,500,632.3,502.1z M630.2,507.8c2.4-6.4-6.3-6.4-9.4-3.4
		C614.1,510.7,626.6,508.5,630.2,507.8C631,505.8,626.5,508.6,630.2,507.8z"/>
	<path class="st0" d="M631.3,398.7c4,2.6,1.4,8.3,2.6,12.7c0.5,1.9,4.7,1,6,0.5c3.3-1.3,1.4-5.9,1.3-8.7c-0.1-2.3-0.4-6.2,3.2-3.6
		c1.1,2.3,1.4,6.3,0.4,8.5c1.8,3.6,1.6,8,3,11.9c1,2.7-0.1,3.1-1.7,4.8c-3.1-2-1.1-5.1-3.1-7.6c-1.3,0-8.6-0.1-7.4,2.6
		c1.8,4.3-0.1,4.4-2.4,6.3c-2,1.6-1.5-4.8-1.5-5.5c-0.1-2.7-0.9-5.4-1-8.2C630.4,409.2,627.6,399.9,631.3,398.7
		C632,399.1,630.2,399,631.3,398.7z"/>
	<path class="st0" d="M660.1,423.7c-7.1,9.2-7.4-25-7.2-25c4.1-0.1,3.7,9,4.3,12.3c0.4,2.2,12.1,0.2,9.4-6.3c-0.4-1-0.8-4.7-0.6-5.7
		c2.8-2.5,3.8,2.4,4.2,4.2c0.7,3,0.8,6.4,1.3,9.5c0.4,2.3,2.4,6.1,2.1,8.4c0,0.2-2.1,1.7-2.5,1.8c-1.3,1-2.8-7-3.8-8
		c-2.7,0-5.1,2.6-7.8,2.7C657.7,417.7,659.8,422.6,660.1,423.7C659.4,424.6,659.8,422.6,660.1,423.7z"/>
	<path class="st0" d="M390.6,487.2c2.7-1.9,4.1,1.6,4.3,4c0.4,4.3-2.5,4.9,2.4,5.8c5.1,0.9,19.2-2.4,16,7.8c-2.8,9-13.2,7.1-20,5.9
		C389,504.5,390.6,494.2,390.6,487.2C391.4,486.6,390.6,487.6,390.6,487.2z M408,500.8c-4.9-1.7-18.7-1.3-11.5,6.6
		c3.7,0.1,6.3,2.4,10.4,0.1C407.5,505,409.2,503.5,408,500.8C406.1,500.1,408.2,501.2,408,500.8z"/>
	<path class="st0" d="M612.3,447.7c0,4.9-2.2,6-7.2,6c-1.9,0-3.8,0-5.6,0c-3.7-1.6-1.9,0.3-2.1,2.6c2.8,3.5,5.9,2.8,10.1,2.8
		c1.4-0.3,2.6,0,3.8,0.7c0.7,1.4,0.5,2.3-0.7,2.7c-1.5,0.1-3.5-0.5-5.1-0.5c-4.1,0-9,0.9-11.1-3.5c-1.8-3.9-2.8-10-0.6-13.9
		c1.8-3.1,5.8-6,9.6-5.6C608.7,439.7,610.2,443.8,612.3,447.7C612.3,448.8,612,447.2,612.3,447.7z M604.5,442.5
		c-2.7,0.5-4.4,0.7-6.3,2.9c-3,3.5-0.7,3.5,2.5,4.3c2.3,0.5,7.6,0.5,7.5-2.1C608,445.2,606.3,443.9,604.5,442.5
		C603.3,442.7,605.4,443.2,604.5,442.5z"/>
	<path class="st0" d="M472.9,455c-5.1,6.3-3.9-5.9-3.9-8c0-2.9,0-5.8,0-8.7c2-1.9,3.8-0.5,6.1-1.5c4.8-2,11.6,0.1,16.9-1.6
		c5.8,1.5,1.4,10.9,1.4,16c0,4,2.4,5.5-1.4,8.4c-2.3,0.5-2-2.9-2-4.2c0-1.4,1.2-15.4-0.5-15.3c-4.7,0.3-9.4,1.4-14.1,1.9
		C469.7,442.7,471.6,450.6,472.9,455C472.2,455.9,472.7,454.3,472.9,455z"/>
	<path class="st0" d="M740,418.9c-1.2,1.9-3.8,1-4.5-0.8c-1.1-3,0.1-6.8-0.8-10c-4.3,0.7-15.1,14.9-18,9.9
		c-1.9-3.3-1.9-9.4-2.7-13.3c-1.1-5.1,3.3-5.3,4.2-1.1c0.5,2.1,0.1,8.4,2.3,9.5c3.5-2.5,7-6.2,10.5-8.4c2.9-1.8,8.1-6.4,8.2,0.6
		C739.2,409.6,739,414.9,740,418.9C739.6,419.5,739.9,418.5,740,418.9z"/>
	<path class="st0" d="M496.5,518.6c-2.4-0.6-3.2,1.7-3.2-2.6c0-2.8,0.3-5.2,0.1-8c-0.2-2.6-0.2-5.3,0.6-7.7c0.7-2.1,5.9-1.8,7.6-2.1
		c3.2-0.5,6-1,9.3-1c3.8,0,2.9,0.5,4.9,3.3c0,3.6-2.2,10.5-0.4,13.7c2.2,4.1-5.2,8.3-4.6,3.4c0.6-4.4,0.8-9.7,0.7-14.2
		c-0.1-4.3-9.1-1-12.7-1C494.1,504.8,500.8,515.8,496.5,518.6C496.2,518.5,497.1,518.2,496.5,518.6z"/>
	<path class="st0" d="M578.3,402.8c6.2-3.1,13.2-3.1,18.1,2.9c6.5,8-4.9,11.5-10,13.7c-4.1,1.7-2,5.6-2.3,9.5
		c-0.5,0.8-3.8,1.5-3.8-0.2C580.2,420,578.2,411.6,578.3,402.8C579,402.4,578.2,405.2,578.3,402.8z M593.7,408
		c-1.9-2.3-4.8-3.2-7.6-3.9c-4.3-1-4,2.1-4,5.3c0,4.6,0.3,7.4,5.2,5.8C590.6,414.1,595.4,413,593.7,408
		C591.2,404.9,594,408.8,593.7,408z"/>
	<path class="st0" d="M716.1,516c-3.1,1.1-8.9,5-11.9,3.4c-2.6-1.4-6.5,0.1-5.9-4.4c0.7-4.3-2.5-19.6,1.9-21.2c3.9,1,2,6,2,8.9
		c0,5.9,4.9,1,8.7,0.7C718.9,502.9,722,511.3,716.1,516C714.8,516.5,717,515.3,716.1,516z M707.5,508c-3.8,2.1-4.5,2.4-4.4,6.8
		c0,2.1,4.6,1.3,5.8,1.1c2.6-0.6,8.8-2.4,7.1-6.1C713.3,507.7,710.8,507.8,707.5,508C706.4,508.6,708.5,507.9,707.5,508z"/>
	<path class="st0" d="M188.9,486c3.6,3.5-1.4,11.7,5.5,11.6c7.8-0.2,6.2-4,6-10.5c0-1.5,0.7-5.5,3-5c2.8,1.6,0,4.5,0.6,6.8
		c0.7,2.9,0.2,6.5,0.5,9.6c0.3,3,1,6.1,1.1,9.1c0,1.2,1.1,4.3,0.1,5.3c-2.7,2.4-3.5-5.3-3.6-6c-0.7-3.6-0.3-7.5-5.2-6.3
		c-4.1,1.1-6.4-0.2-5.3,5.3c0.5,2.3,0.2,4.1-2.5,4.2c-1.7-1.2-1.5-6.5-1.4-8.4C187.9,499.3,185.2,486.2,188.9,486
		C189.2,486.4,187.6,486.1,188.9,486z"/>
	<path class="st0" d="M502.4,445c6.5-2.8,16.2-6.9,21,1c5.8,9.6-11.3,12.1-17,12.2c-0.8,2.3,0.4,5.8,1.6,7.8c-0.4,0.9-4.7,4-4.7,1.4
		C503.1,460.3,499.9,451.8,502.4,445C504.3,444.1,501.9,446.4,502.4,445z M506.5,446.8c-1.5,1.8-1.8,6.9,0.4,8.1
		c3.4,1.9,8-0.2,10.9-1.9c3.5-2,3.1-5.2,0.4-7.4C514.7,444,509.7,444.6,506.5,446.8C505.7,447.8,508.6,445.4,506.5,446.8z"/>
	<path class="st0" d="M522.8,524.5c-1.7-2-1.6-6.2-1.6-8.8c0-3.9-1.6-9.6,0.2-13.1c1-2,5.6-2.4,7.8-2.5c4.7,0,9-0.9,12,3.4
		c2.9,4-2.7,10.3-6.8,11.2c-2.5,0.6-6.5,1.3-8.7,2.4C525.1,520.4,527.6,524.2,522.8,524.5C521.9,523.3,524.2,524.4,522.8,524.5z
		 M535.9,504c-3.3,0-7.7-0.8-10.6,1.2c-0.4,1.1,0,8,1.1,8.4C530.9,514.5,543.2,506.8,535.9,504C533.6,504,536.4,504.2,535.9,504z"/>
	<path class="st0" d="M301.4,511.2c-8,1-9.3-1.9-13.1-8c-1.6-4.7,4.6-13.9,9.2-14.7c9-1.6,14.6,1.1,14.6,10.6
		C312.1,506.6,307.7,508.9,301.4,511.2C300.3,511.4,302.3,510.9,301.4,511.2z M292.6,501c1.6,9.8,11.9,9.7,16.1,1
		C314.5,490,294.3,486.8,292.6,501C292.6,501,293,497.9,292.6,501z"/>
	<path class="st0" d="M152,491.7c3.8-4.3,5,4.7,5,7.2c0,9.6,6.7-0.1,8.7-3.6c3.1-5.3,8.8-11.2,8.2-0.6c-0.2,3.5-1.3,10,1.2,12.9
		c1.5,1.7,0.4,2.8-1.6,2.7c-2.6-0.8-3.2-5.8-3-8c0.6-7.6-1.1-4.7-4.9-0.2c-1.6,2-8.5,11.8-10.3,5.5c-0.6-2.1-1.9-5.1-1.9-7.2
		C153.6,498.4,153,493.3,152,491.7C152.4,491.2,152.7,492.8,152,491.7z"/>
	<path class="st0" d="M505.4,417.2c4-2.1,6.1-8.8,8.5-12.5c5.3-8.1,5.2,5.2,6.3,7.9c0.6,1.5,4.9,10.8,0.1,9.8
		c-4.6-1-1.7-11.3-5.2-12.5c-3,1.6-4.1,7.3-6.7,9.6c-6.7,5.9-7.1-2-8-7.4c-0.2-1.1-1.1-14.2,2.5-9.1c1,1.5,0.1,4.6,0.3,6.4
		C503.6,411.9,504.3,415,505.4,417.2C505.7,417,504.6,415.6,505.4,417.2z"/>
	<path class="st0" d="M695.6,420.4c-3.8,2.4-14,5.8-15.5-0.1c-1.7-6.8-0.3-14.6-2.9-21.1c2.5-3.2,3.9,2.2,4,3.9
		c0.1,2.5,1.3,4.9,1.5,7.4c1.1,1.2,4.1-1,5.4-1.2C694.9,407.8,699.7,414.8,695.6,420.4C694.4,421.1,695.9,420,695.6,420.4z
		 M684.4,419.5c3.9,1.9,10-0.8,8.3-5.5C689.4,411.9,679.4,414.5,684.4,419.5C685.6,420,683.4,418.4,684.4,419.5z"/>
	<path class="st0" d="M554.5,519.6c-5.1-2.7-5.6-7.3-5.6-12.5c3.4-7.2,7.3-6.9,14.2-7.1c5.6-0.2,8.3,6.2,6.3,10.5
		C566.2,517.9,560.8,517,554.5,519.6C552.3,518.4,556.2,518.9,554.5,519.6z M565.9,504.5c-5.8-5.2-16.1,2.1-12.7,9.2
		c2.8,3.1,4.4,2,8.3,0.3C565.6,512.2,568,509.1,565.9,504.5C564.4,503.3,566.7,506.4,565.9,504.5z"/>
	<path class="st0" d="M528.1,402.3c3.5-4,3.4,5.4,3.4,6.6c0.1,3.7,2.6,2.3,5.5,1.9c2.7-2,3.1,1.7,3.2-3.3c0-1.6-1-5.8,1-6.3
		c2.7-0.8,2.2,3.1,2.1,4.3c-0.5,5,1.1,10.2,0.9,15.3c-0.2,3.1,0.4,3.2-2.5,4.2c-2.6-1.4-1.5-5.4-1.8-8c-0.3-3-7.1-4-8.9-0.9
		c1.8,7.1-5.3,7.5-3.8,2.6C528.7,413.9,528.1,407.3,528.1,402.3C529.2,401,528.1,404,528.1,402.3z"/>
	<path class="st0" d="M624,413c-2,4-6.7,9.4-11.7,8.3c-5.2-1.1-7.2-7.9-6.7-12.7C606.8,397.9,625.2,401.7,624,413
		C623.2,414.5,624.2,411,624,413z M612.2,417.7c5,0.1,12.7-8.4,5.4-11.3C609.2,403.2,607.8,412.9,612.2,417.7
		C613,417.8,611.6,417.1,612.2,417.7z"/>
	<path class="st0" d="M620.3,458c0.1-1.2-1.4-1.9-1.5-3.1c-0.2-2.3-0.6-4.2,0.6-6.6c2-4.1,7.2-7.6,11.5-8.9c7.3-2.3,4.7,6.6,2.8,5.3
		c-3.3-2.4-9.5,2.1-10.4,5.7c-2.9,10.9,12.4,8.6,18.2,6.3c2.9-1.1-0.4,3.3-0.5,3.3c-2.5,0.3-4.8,0.6-7.3,1.1
		C629,462.1,623.6,462,620.3,458C620.4,457.2,622,460.1,620.3,458z"/>
	<path class="st0" d="M548,446.9c0.2,4.6-0.9,10.2-5.4,12.3c-4,1.9-9.9,1.3-11.6-3.6C527.1,444.2,540.6,436.4,548,446.9
		C548,447.6,546.2,444.4,548,446.9z M534.4,454.3c4.1,4.7,11.4-0.2,10.1-6.1C538.5,442.7,534.1,446.7,534.4,454.3
		C534.9,454.9,534.3,452.5,534.4,454.3z"/>
	<path class="st0" d="M558.7,420.9c0,2.8-2.6,5.6-5.2,2.9c0.9-3.8,3.9-6.7,4.3-10.7c-1.6-1.4-3.5-2.4-5.1-3.8
		c-0.5-0.4-3.3-5.4-0.5-4.2c2.4,1.1,5.2,5.1,7.9,5.1c2-1,4.4-6.5,5.6-8.4c0.6-0.9,2.1-1.8,3.1-0.7c1.6,1.7-1.5,4.1-2.5,5
		c-0.3,1.8-5.5,6.9-2.1,7.6c1.7,0.4,3.5,2.7,4.9,3.6c2.9,1.9,1.2,1.4,0.8,4.4c-2.2-0.1-4.5-3.1-6.3-4.3
		C559.5,414.9,560.9,418.5,558.7,420.9C558.7,421.9,559.4,420.1,558.7,420.9z"/>
	<path class="st0" d="M654.1,455.8c3.8,1.1,6.4,0.2,10.2,0.3c1.7,0.1,3.3-1.1,3.3,1.4c0,2.2-1.3,2.2-2.9,2.3
		c-8.9,0.9-16.2-0.4-16.2-10.6c0-3.6,3.5-6.4,6.3-8c1.1-0.6,10.6-4.9,9.9-0.2c-0.2,1-7.6,4.4-8.9,5.3
		C651.3,449.5,653.9,451.8,654.1,455.8C657.9,457,654,454.3,654.1,455.8z"/>
	<path class="st0" d="M643.1,508.8c2.1-4.3,6.4-7.5,10.9-9.1c5.4-2,7.2,4.9,5.4,4.9c-1.6,0-0.9-2.1-2.6-2c-2.1,0.2-4.2,2-6,3
		c-3.3,1.9-4.7,8.2-0.9,10.1c4.2,2,7.4,0,11.5,0c2.2,0,2.4,0.2,2.3,2.3c-0.2,2.2-0.9,1.1-2.5,1.1c-4.3,0-8.9,2-13.2-0.2
		C644.4,517.1,643.2,512.3,643.1,508.8C644.5,505.9,643.1,511.3,643.1,508.8z"/>
	<path class="st0" d="M494.3,420.9c-2.6,5-18.1,1.6-19.4-4.1c-0.9-4.1-0.4-7.9,2.1-11.4c1.9-2.6,7.8-7,11.2-4.4c3.5,2.6-0.2,3-1.9,3
		c-3.6,0.2-8.9,6.2-8.1,9.8c1,4.5,1.4,3.8,5.5,5.7C486.4,420.8,492.7,418.4,494.3,420.9C493.9,421.6,493.8,420.2,494.3,420.9z"/>
	<path class="st0" d="M669.4,507.4c2.6-3.3,10.5-13.4,14.5-9.1c3.2,3.4-0.8,2.8-3.7,4c-3.9,1.6-5.6,4.1-7.2,7.9
		c2.7,4.4,4.5,2.8,8.6,4.8c0.9,0.5,3.9-0.1,4.9-0.2c0.8,0.6,1.7,2.7,0.1,3.3C678.5,520.6,668.9,516.7,669.4,507.4
		C669.7,507.1,669.4,509,669.4,507.4z"/>
	<path class="st0" d="M727.5,395.5c-3.3,3.3-4.3-2.1-5.4-4.2c-0.6-1.1-2.4-2.1-3.2-3.1c-0.7-2.5,3-3.4,4.8-4.1
		c1.2-0.5,8.5-5.3,7.8-0.5C730.8,388,727.5,390.7,727.5,395.5C727.2,395.8,727.5,394.2,727.5,395.5z"/>
	<path class="st0" d="M702.3,397.7c4.7-2.8,3.8,8.5,4,10.2c0.4,2.6,2.7,11.5,0.9,13.2c-4.1,4.1-4.1-5-4.2-7.5
		C702.9,408.4,700.8,403,702.3,397.7C703.3,397.1,701.8,399.4,702.3,397.7z"/>
	<path class="st0" d="M725,497c6.3-3.1,4.9,16.4,4.9,20.3c-3.6,4.7-4.3-4.8-4.3-6.5C725.5,506.2,725.2,501.6,725,497
		C725.6,496.7,725,498.2,725,497z"/>
	<path class="st0" d="M423.2,506c0.9,2.1,1.2,2.6-0.2,4.4c-0.6,0.8-2.2,2.9-3.3,1.3c-1.4-2.1-0.8-8.3-0.8-11c0-0.8-0.3-12.4,2.8-7.9
		C423.7,495.8,423,502.5,423.2,506C423.6,507.1,423.1,504.1,423.2,506z"/>
</g>
<path class="st0" d="M908.8,227.9c5-1.1,4.3,13.4,1.7,15c-4,0-4.2-1.1-3.9-5C906.8,235.1,906.1,229.5,908.8,227.9
	C909.7,227.7,907.5,228.6,908.8,227.9z"/>
<path class="st0" d="M124.2,50.5c0.4,1.6-12.2,4.5-13-1.2c-0.8-6,4.3-9.2,9.5-8.8c3.7,3-4.2,2.6-5.9,4.5
	C111.8,53.6,121.5,47.4,124.2,50.5C124.4,51,123.9,50.1,124.2,50.5z"/>
<path class="st0" d="M423.2,155.1c4.3,0.5,4.9,1.7,4.2,5.7c-0.4,1.9,0,7-2.2,7.9C420.8,170.6,421.3,157.1,423.2,155.1
	C425,155.3,422.3,156,423.2,155.1z"/>
<path class="st0" d="M164.6,86.8c5.4-0.1,3.2,13.7,1.5,16.4C160.9,105,164.2,89.2,164.6,86.8C165.6,86.8,164.4,87.7,164.6,86.8z"/>
<path class="st0" d="M429,142.2c-0.7,2.2-3.2,3.1-4.5,0.9c-0.6-2.8-0.5-6.9,0.1-9.7c0.3-1.3,1.9-4.5,3.7-2.9
	C430.8,132.8,428.1,139,429,142.2C428.7,143.1,428.5,140.5,429,142.2z"/>
<path class="st0" d="M425.5,176.6c1.8,2.5,2.6,14-1,14c-2.8-2.8-3.2-3.9-2.4-7.9C422.4,180.8,422,174.4,425.5,176.6
	C426.1,177.5,424.5,176,425.5,176.6z"/>
<path class="st0" d="M425.7,122.7c-5.3,2.1-3.5-8.5-3.4-11.4c0.1-2.9,4.4-1.9,4.4,0.8C426.6,115.1,427.8,120.3,425.7,122.7
	C425.2,122.9,426.4,121.9,425.7,122.7z"/>
<path class="st0" d="M424.5,100.4c-2.8,0.7-3.3-13.3-2.5-15.8c1.3-4.4,3.6,1.9,3.8,3.3C426.1,91.6,426.7,97.1,424.5,100.4
	C423.6,100.6,425.5,98.8,424.5,100.4z"/>
<path class="st0" d="M163.4,182.6c2.7-2.8,3.2,2.8,3.5,4c0.7,2.9,2.3,7.6,1.8,10.5c-1.5,1.4-4-2.9-5.1-3.8
	C161.6,191.7,163.3,185,163.4,182.6C164.4,181.6,163.3,183.7,163.4,182.6z"/>
<path class="st0" d="M580.2,229.8c-2.4,3.3-9.4,4.7-8.2-1.2C572.8,224.8,581.2,224.6,580.2,229.8
	C579.5,230.8,580.3,229.3,580.2,229.8z"/>
<path class="st0" d="M164.6,136.1c3.4,1.8,0.9,8.7,0.7,11.8c-2.1,3.5-4-2.4-3.7-4.2C161.8,142,161.7,136.1,164.6,136.1
	C164.9,136.3,163.9,136.1,164.6,136.1z"/>
<path class="st0" d="M165.4,126c-3.1,0.4-4.1-2.6-3.4-5.3c0.5-1.8-0.6-6.6,1-7.8C169.1,113.9,164.3,122,165.4,126
	C164.2,126.1,164.9,124,165.4,126z"/>
<path class="st0" d="M132.8,138.4c-3.9,1.1-4.3-11.2-2.1-11.5C135.9,125.9,134.5,136,132.8,138.4
	C131.7,138.7,133.1,138.1,132.8,138.4z"/>
<path class="st0" d="M135,178.7c-5,2.7-5.4-12.6-2.2-11.9C136.6,168.9,135.5,175.2,135,178.7C134.6,179,135.1,178.3,135,178.7z"/>
<path class="st0" d="M563.7,232.3c-0.6-1.4-2.1-2.3-2.9-3.6c2-2.7,2.7-3.2,6.3-2.9C569.8,226.1,569.5,235.3,563.7,232.3
	C563,230.9,564.3,232.6,563.7,232.3z"/>
<path class="st0" d="M163,158c3,1.9,5.3,10.3,1.6,12.5C162.2,171.9,159.9,159.2,163,158C164.6,159.1,162.1,158.3,163,158z"/>
<path class="st0" d="M135.9,198.2c-1.1,2.3-3.4,0.8-4.2-0.7c0-3.5-0.8-7,0.1-10.5c2.9-3.4,2.2,1.7,2.5,3.2
	C135.4,192.9,134.7,195.6,135.9,198.2C135.6,198.9,135,196.3,135.9,198.2z"/>
<path class="st0" d="M128.9,90c5-2.4,3.7,8.7,4.2,10.1c1.4,3.5-3.1,0.1-3.6-0.5C128.6,97.4,127.9,92,128.9,90
	C129.4,89.7,128.8,90.2,128.9,90z"/>
<path class="st0" d="M135,158.3c-5.3,2.6-5.7-8.9-3.4-10.3C135.8,145.4,135,156.8,135,158.3C134.5,158.5,135,157.9,135,158.3z"/>
<path class="st0" d="M129.3,111.7c0.7-1.2,1.1-3,3-2.5c2.2,0.7,0.7,4.9,0.8,6.5c0.1,1,1.1,6-2.1,4.6
	C128.6,119.2,129.8,113.9,129.3,111.7C129.8,110.8,129.9,114.1,129.3,111.7z"/>
<path class="st0" d="M589.9,228c-1.1,3.8-8.9,3.4-7-1.1C585.1,221.8,588.6,224.4,589.9,228C589.7,228.4,589.5,226.8,589.9,228z"/>
<path class="st0" d="M595,215.6c-4.6-0.6-5.8-3.1-2.5-6.1c1.4-1.3,3.6-1.2,4.5,0.7C597.9,212.4,596.3,214,595,215.6
	C593,215.3,595.9,214.5,595,215.6z"/>
<path class="st0" d="M585.9,222.2c-3.1-1.9-4.4-4-0.4-6.5C591.3,215.2,590.9,220.8,585.9,222.2C585.1,221.7,587.3,221.8,585.9,222.2
	z"/>
<path class="st0" d="M573.4,219.3c2.4-2.3,6-2.4,6,1.6c0,1.6-0.4,2.4-1.8,3.3C572.4,225.1,574.6,221.6,573.4,219.3
	C574.8,217.9,573.9,220.3,573.4,219.3z"/>
<path class="st0" d="M569.8,215.7c2.6,3.4,1.1,6.6-3.2,6.2C562.4,219.8,566.3,214.8,569.8,215.7C570.9,217.2,569,215.5,569.8,215.7z
	"/>
<path class="st0" d="M582.8,212.4c-2.7-3,0.3-7.3,4-5.6C591.1,208.9,585.7,212.7,582.8,212.4C581.9,211.3,583.3,212.5,582.8,212.4z"
	/>
<path class="st0" d="M594.6,220c4.5,0,5.6,4.1,1.3,6.1c-1.4,0.7-2.3-0.4-3.3-1.3C591.9,222.2,592.9,221.8,594.6,220
	C595.8,220,594,220.7,594.6,220z"/>
<path class="st0" d="M578.3,208.8c0,2-3.3,9.3-5.5,4C571.2,209.1,575.2,206.5,578.3,208.8C578.3,209.8,576.6,207.5,578.3,208.8z"/>
<path class="st0" d="M605.2,216.6c-1.2,3.7-3.8,3.1-6.3,1.1C599.3,213.3,603.2,212.8,605.2,216.6
	C604.5,218.8,604.7,215.7,605.2,216.6z"/>
<path class="st0" d="M365,169.1c-2.8-1.9-4.5-6.5,0.4-3.7C367.6,166.7,368.3,169.7,365,169.1C363.8,168.3,365.7,169.2,365,169.1z"/>
<path class="st0" d="M743.6,143.3c-0.8-0.4-3.8-2.5-4.2-3.1c-0.9-1.6,1-4.8,2.7-4.6C747,135.9,749.9,143.9,743.6,143.3
	C742.7,142.8,744.7,143.4,743.6,143.3z"/>
<path class="st0" d="M762.6,140.1c-2,2.5-9.1,3.3-6.9-1.3C757.3,135.2,763.9,135,762.6,140.1C762.3,140.5,763,138.7,762.6,140.1z"/>
<path class="st0" d="M698.4,144.8c0.9-2.7,7.4-3.7,6.7,0.3C702.6,147.8,699.9,148.7,698.4,144.8C698.6,144.1,698.5,145,698.4,144.8z
	"/>
<path class="st0" d="M708.6,143.5c0.8-3,3.2-3.6,5.1-1.2c1.2,1.5,1.1,2.7-0.9,3.6C710.7,146.9,709.9,144.9,708.6,143.5
	C709,142,709.5,144.5,708.6,143.5z"/>
<path class="st0" d="M56,313.8c-1.4-0.3-5.2-3.7-1.7-3.7C56.4,310.1,59.4,312.8,56,313.8C55.3,313.7,56.9,313.6,56,313.8z"/>
</svg>
