<?xml version="1.0" encoding="utf-8"?>
<!DOCTYPE svg PUBLIC "-//W3C//DTD SVG 1.1//EN" "http://www.w3.org/Graphics/SVG/1.1/DTD/svg11.dtd">
<svg version="1.1" id="WaveLine" xmlns="http://www.w3.org/2000/svg" x="0" y="0" width="1000" height="50" viewBox="0 0 1000 50">
<path d="M0,5c13.93-1.223,28.253-2.917,42.192-3.515c10.75-0.461,23.707-2.859,34.356-0.756C86.795,2.754,101.191,11.55,111.9,9
	c21.917-5.345,41.312-0.983,62.9-1.3c9.365,0,17.789-5.249,27.219-5.148c14.291,0.153,29.412,4.815,43.252,8.052
	C291.64,21.45,344.78,12.053,392.2,8c47.434-3.986,92.091,1.421,139.263,4.263c40.346,2.43,75.079-10.574,115.696,2.345
	c36.718,11.679,85.971,0.434,123.2-5.7c23.956-3.947,43.67-2.741,67.281,1.571c23.316,4.257,44.41-3.207,66.393,3.659
	C931.347,22.667,971.971,8.726,1000,5c0,6.187,0,30,0,30s-33.869,5.137-39.656,5.961c-17.478,2.49-38.96,9.395-56.311,3.976
	c-21.982-6.865-43.076,0.6-66.393-3.659c-49.234-8.991-98.009,1.084-147.24,7.647c-21.216,2.829-42.943-2.575-63.375-7.837
	c-23.286-5.997-41.91-2.532-65.125,1.412c-42.468,7.864-88.719-8.968-131.825-6.975c-28.999,1.341-58.198,3.64-87.098,6.297
	c-22.344,2.055-55.746,9.262-77.559,3.93C218.576,34.301,172.687,32.362,125,37.8c-24.634,2.864-45.958-6.731-70.826-6.085
	C36.112,32.185,18.061,33.905,0,35C0,24.867,0,15.133,0,5z"/>
</svg>
