<?xml version="1.0" encoding="utf-8"?>
<!DOCTYPE svg PUBLIC "-//W3C//DTD SVG 1.1//EN" "http://www.w3.org/Graphics/SVG/1.1/DTD/svg11.dtd">
<svg version="1.1" id="WaveLine" xmlns="http://www.w3.org/2000/svg" x="0" y="0" width="1000" height="50" viewBox="0 0 1000 50">
<path d="M0,4.9c0,0,13-1.1,18.3-1.3c3.1,0.1,9.4-0.2,12.2-0.8C41.9,0.4,54.4,2.1,66,0.3c10.2-1.7,21.9,4.3,31,6.2
	c5.5,1.2,8.6,4,14.9,2.5c4.1-1,8.8-1.2,13.1-1.7C136.4,6,144.6,4.1,156,5c6.6,0.6,12,2.8,18.8,2.7c3.7,0,12.5-2.1,15.9-3.3
	c11.1-4.2,23.1-0.2,33.8,1.7c10.4,1.8,20.8,4.7,31.1,6.8c10.9,2.2,17.5,5.7,29.3,2.9c8.4-2,21-2.8,29.9-2.9c13.6-0.2,28.6-1.6,42-3
	c11.6-1.3,23.7-0.9,35.4-1.9c23.8-2,52-5.5,75.6-1.3c10.9,2,26.1,3.1,37.4,3c5.3,0.1,11.7,1.4,17,2c6,0.6,12.6,0.3,18.3,1.8
	c3.7-1.1,8.6,1.2,12.5,0.3c2.7-0.7,6.2-1.3,8.9-1.8c5.3-1,11.3-1.6,16.4-3c9.2-2.8,27.4-3.8,37-1.6c7,1.8,16.4,4.9,23.6,5.4
	c8.3,0.6,16.4,6,25,5.6c6.1-0.3,12.2,1.5,18.6,0.9c5.3-0.4,10.5-1.3,15.8-1.9c10.2-1.2,22.2-2.1,32-4.3c7.4-1.8,19.6-3.3,27.5-3.1
	c12.5,0.3,25.2-4.8,37.9-4.3C807.2,6,817,4.9,827.9,8.2c9.1,2.8,20.6,3.7,30.2,5.7c12.3,2.7,26.6-8.8,38.2-2.9
	c6.8,3.5,17,6.3,25.2,4.9c21.9-3.5,78.5-11,78.5-11v30.5c0,0-56.6,7.8-78.5,11.3c-8.2,1.4-18.4-1.4-25.2-4.9
	c-11.6-5.9-25.9,5.6-38.2,2.9c-9.6-2-21.1-2.9-30.2-5.7c-10.9-3.3-20.7-2.3-32.2-2.8c-12.7-0.5-25.4,4.6-37.9,4.3
	c-7.9-0.2-20.1,1.4-27.5,3.1c-9.8,2.3-21.8,3.1-32,4.3c-5.3,0.6-10.5,1.5-15.8,1.9c-6.4,0.6-12.5-1.2-18.6-0.9
	c-8.6,0.4-16.7-5-25-5.6c-7.2-0.5-16.6-3.6-23.6-5.4c-9.6-2.3-27.8-1.2-37,1.6c-5.1,1.5-11.1,2.1-16.4,3c-2.7,0.5-6.2,1.1-8.9,1.8
	c-3.9,0.9-8.8-1.4-12.5-0.3c-5.7-1.5-12.3-1.2-18.3-1.8c-5.3-0.6-11.7-1.9-17-2c-11.3,0.1-26.5-1.1-37.4-3
	c-23.6-4.2-51.8-0.7-75.6,1.3c-11.7,1-23.8,0.6-35.4,1.9c-13.4,1.5-28.4,2.9-42,3c-8.9,0.1-21.5,0.9-29.9,2.9
	c-11.8,2.8-18.4-0.7-29.3-2.9c-10.3-2.1-20.7-5-31.1-6.8c-10.7-1.9-22.7-5.9-33.8-1.7c-3.4,1.3-12.2,3.3-15.9,3.3
	c-6.8,0.1-12.2-2.1-18.8-2.7c-11.4-0.9-19.6,1-31,2.3c-4.3,0.5-9,0.7-13.1,1.7c-6.3,1.6-9.4-1.3-14.9-2.5c-9.1-1.9-20.8-7.9-31-6.2
	c-11.6,1.8-24.1,0.1-35.5,2.5c-2.8,0.6-9.1,0.9-12.2,0.8C13,34.5,0,35.3,0,35.3V4.9z"/>
</svg>
