<?xml version="1.0" encoding="utf-8"?>
<svg version="1.1" id="RulesPytagorus" xmlns="http://www.w3.org/2000/svg" xmlns:xlink="http://www.w3.org/1999/xlink" x="0px" y="0px"
	 width="1000px" height="1000px" viewBox="0 0 1000 1000" style="enable-background:new 0 0 1000 1000;" xml:space="preserve">
<style type="text/css">
<![CDATA[
	.st0{fill-rule:evenodd;clip-rule:evenodd;}
	.st1{fill-rule:evenodd;clip-rule:evenodd;fill:#FFFFFF;}
]]>
</style>
<g>
	<path class="st0" d="M793.6,97.9c-7.7-6.1-19.2-11.6-28.5-6c-13.3,8-9.1-17.6-6.6-23c3.1-6.5,6.1-26.7,14.4-25.4
		c10.3,1.6,21.4,7,31.1,10.5c6,2.2-0.3,19.4-4.4,21.1c-4.8,2.1-10.2-12-16.5-14.8c-1.8-0.8-5.2-5.7-7.5-1.3
		c-1.7,3.3-5.2,11.5-3.8,15.6c1.7,4.8,8,3.5,11.9,5.9c5.8,3.7,11.6,5.6,16.8,10.3c5.4,4.8,21.7,10.4,15.7,18.8
		c-6.2,8.6-13.6,20.7-25.1,21.6c-25.7,2.1-41.4-8.4-62-22.1c-4.9-3.2-14.8-7.2-4.5-12.3c10.7,5.4,20.9,11.7,31.2,17.7
		c8.5,4.9,18.3,10.7,28.2,6.7C797.6,115.9,800,110.1,793.6,97.9C789.9,95.1,794,98.8,793.6,97.9z"/>
	<path class="st0" d="M733.4,368.3c-1,2.6-1.9,5.2-2.6,7.9c10.6,6.1,43.4,6.1,36.7,27.7c-9.7,9.5-14.2,11.2-27.3,13.7
		c-10,1.9-20,2.8-30.1,1.4c-6.3-0.9-28.2,1.5-32.5-2.2c-6.4-7.6,18.9-6.7,20-6.7c13.9,0.1,42.1,3.4,52.2-9.1
		c12.6-15.6-23.4-15.5-30.9-13.4c-6.5,1.8,5-20.7,5.8-22.8c4.7-11.3-0.6-13.7-9.7-5c-15.1,3.7-12.2-1.1-11.7-14.8
		c0.4-10.3,19.7-6.2,27.4-6.2c7.8,0,28.7-1.9,17.8,11.5C743.4,356.4,738.4,362.3,733.4,368.3C733.3,371.1,735,366.3,733.4,368.3z"/>
	<path class="st0" d="M535.9,191c-6.9-3.6-47.5-5.6-27.6-21.1c3.8-2.9,6-9.6,8.4-13.6c5.2-8.7,12-15.8,15.4-25.5
		c2.3-6.4,11.8-2.7,9.2,2.6c-3.8,7.9-10,14.8-14.7,22.2c-2.9,4.5-6.8,10.4-8.3,15.6c2.1,5,15.7,4.3,20.2,2.9
		c4.5-1.4,6.1-11.8,6.5-16.3c0.6-6.7,13.4-17,11.1-7.6c-4.6,18.1-5.7,34.4-4.1,52.9c0.3,3.9,0.6,7.9,0.7,11.8
		c0.2,4.5,4.1,10.9,3.2,15.1c-2,9.4-16.7,0.2-22.3-0.8C519.1,226.4,536.3,200.7,535.9,191C532.4,189.2,536,194.3,535.9,191z"/>
	<path class="st0" d="M794.4,220.9c2-12.1,33.1,26.2,36.6,30.6c14.8,18.9,28.3,38.9,46.5,54.8c4.6,4,15.9,8.8,16.3,15.2
		c0.5,8.9-12.9,3.2-18.2,2.4c-20.1-3-44.7-2.5-65.1-1.4c-43.2,2.2-87.2,0.9-130.6,1c-22.6,0.1-44.8-1.2-67.4-1.3
		c-9,0-17.7-0.3-26.5,0c-13.3,0.5-14-3.6-11.6-17.1c14.1-78.2,12.7-158.6,26.3-236.9c3.1-18,3.3-36,3.4-54c0-3.7,2.1-17.6,8.7-13.4
		c6.1,3.9,9.4,16,14.1,21.8c25.3,31.8,54.9,60.7,80.2,92.3c10.1,12.6,22.2,24.9,31.1,38.3c4.6,6.9,15.6,14.1,14.3,23.3
		c-5.5,6-11.7-3.4-14.7-7.4c-20.6-27.1-43.5-51.7-65.7-77.7c-10.9-12.7-20.6-26.3-33-37.9c-5.8-5.4-11.1-13.2-16.2-19.4
		c-6.4-7.9-6.5-3-8.4,5.1c-2.4,10-1.2,20.1-3.3,30.1c-1.9,9.1-3.3,19.4-3.4,28.6c-0.2,21-4.2,41.9-4.7,62.9
		c-0.2,8.1-3.4,16.4-3.8,24.7c-0.5,10.7,0.6,22.9-2.2,33.3c-1.3,4.8-5.6,16.5,2.3,17.9c10.1,1.9,19.3,5.9,29.6,6.6
		c9.8,0.7,12.4,0.4,15.6,9.9c-2.1,7.4-1.9,16.2-5.3,23.2c-2.1,4.4-2.6,16-2.5,21.3c0.2,9.6,4.9,10.3,14.7,10.1
		c35.4-0.8,71.1,3,106.4,3.7c18.2,0.4,35.6-0.9,54.2,0.1c9.6,0.5,19.4,2.4,29,2.4c5.8,0,20.7,2.4,24.9-1.1
		c-1-6.3-10.9-15.1-15.5-19.1c-7.9-7.1-12.6-18.7-20-26.5c-5.9-6.2-12.7-12.2-17.7-19.3C807.7,241.1,795.2,229.4,794.4,220.9
		C794.7,219.1,794.5,222.4,794.4,220.9z M626.5,304.8c1.1-13.5,4.8-26.9,5-40.6c0.2-12.2-22.7-14.2-33.2-13.2
		c-6.9,0.7-4.8,4.6-5,11.8c-0.3,8.4-0.2,16.1-0.1,24.5c0.1,7.7-2.5,19.1,7.5,20.3C604.2,308.1,626.2,308.5,626.5,304.8
		C626.8,301.9,626.5,305.5,626.5,304.8z"/>
	<path class="st0" d="M667.3,274.5c-14.3,3.8-0.9-12,0.4-14.2c3.7-6.4,11.7-10.2,15.1-17.1c0.5-1.1-17.7-9.4-20.2-11.1
		c-6.7-4.4-3.1-20.2,1-25.1c12.5-15.1,44-1.3,39.5,18.7C698.7,244.9,680.6,261.4,667.3,274.5C664.1,275.4,669.6,272.2,667.3,274.5z
		 M679.1,213.1c-13.1,7.9,0.4,18.6,10.4,17.8C693.2,221.9,692,210.7,679.1,213.1C676.6,214.7,681.3,212.7,679.1,213.1z"/>
	<path class="st0" d="M739.4,259.3c-6-0.8-11.5,3.3-18.2,2.3c-6.8-1-8.5-7.1-9.5-13c-1.8-10.3,4-32,15.7-35.3
		c14.5-4.1,23,2.9,28.5,15.3C755.8,243.2,750.8,251,739.4,259.3C736.4,258.9,740.3,258.6,739.4,259.3z M726.1,231.9
		c-2,4.2-7.8,18.5-2.2,20.6c8.5,3.1,14.9-2.5,19.4-9.2C753.8,227.8,736.1,211.1,726.1,231.9C724.5,235.1,727.5,228.9,726.1,231.9z"
		/>
	<path class="st0" d="M782.5,214.7c-20.8,7.9-38.1-19.9-13.9-28c7.4-2.5,18.3,0.6,22.3,7.6C796.3,203.9,786.8,207,782.5,214.7
		C780.5,215.5,783.8,212.4,782.5,214.7z M782.2,201.9c0.2-5.6-9.5-10.6-10.3-4c1.2,3.1-2.1,6.9,0.6,9.1
		C776.5,210.5,779.7,204.3,782.2,201.9C782.4,197.6,780.1,204,782.2,201.9z"/>
</g>
<g>
	<path class="st0" d="M16.3,989.2c-9.8-5.5,28.7-28.6,33-30.9c7.5-3.9,15.8-7.4,10.4-16.5c-6-10.1-9.8-17.8-18.7-26
		c-6.8-6.3-17.6-10.1-23.2-17.3c-9.2-11.9,11.3,0,13.6,1c8.8,3.9,16.8,10.2,25.9,13.1c4.2-3.4,2.5-28.5,0.6-33.9
		c-6.3-17.9,0.6-41-6.1-58.6c-2.8-7.3-0.6-17.2-3.5-24.8c-4.8-12.5-13.5-11-8.2-26c3.1-8.8,8.5-12.1,10.1-21.8
		c1.6-9.9,1.2-21.6,1.4-31.7c0.3-20.7-4.8-41.9-4.9-62.9c0-7.4,1.2-20.1-2.3-26.8c-2.7-5.2-16-9.1-21.1-13.1
		c-3.3-10.5-10.5-22-6.1-32.7c3.4-8.2,12.5-12.5,17.4-19.8c1.8-7.4-0.4-17.8,0.2-25.8c0.8-10.2,0.2-21,1.6-31
		c1.3-9.5-0.4-19.6-0.4-29.2c-0.1-12.3,1-26-3.9-37.6c-3.1-7.4-12.3-8.7-17.2-15.7c-4.9-7-10.9-15-13.6-23.3
		c-8.5-25.8,28.4-24.1,26.5-43.6c-1-9.8,2.9-16.1-7.1-16.5c-8.6-0.3-17.3-9-5.6-15.6c17-9.7,7.9-41.7,6.6-57.9
		c-1.3-16.9-2.7-35.2-7.7-51.4c-2.1-6.9-9.4-16.3-1.7-21.3c6.3-4.1,20.7-11.4,28.1-11.5c18.9-0.4,37.8,0.3,53.5,11.8
		c18.3,13.5-1.8,35.2,2.7,52.6c1.6,6.2-1.9,18.8-3.8,24.9c1.8,7.6-4.7,19.4,6.3,15.6c14.4-4.9,28.4-4.5,41.9,3.6
		c15.1,9.1,36.9,13.4,37.6-11.6c0.3-10.2,4.3-19.3,3.7-29.8c-0.6-10-12.2-13.1-15.5-21.9c-5.4-14.7-10.6-33-8.7-48.7
		c2.6-21.6,35.1-22.5,51.9-25c9.4-1.4,21-1.9,30.5-1.4c4.1,0.2,8.1,1.2,12.3,1.4c2.9-3.2,6.9-4.8,11.2-5c9.2-0.5,20.9-6.1,29.8-8.8
		c8.7-2.6,19.7-3.3,27.7-7.3c15.3-2,31.2-9.3,46.2-10c4.4-0.2,13.5-2.4,16.2,2.6c5.4,9.7,10.7,19.1,16,28.9
		c8.3,15.6,15.6,31.6,23.2,47.6c3.5,7.5,7.1,15,10.6,22.5c3.5,7.7,15.4,19.5-0.2,19.5c-6.1,6.9-4.5,20.4-8.4,29
		c-4,8.9-10,12.4-18.9,16.4c-20.9,9.4-39.6-1.2-58.4-9.2c-36.4-15.5-71.4-34.1-111.6-34.8c-4.7-0.1-28-3.6-27.4,4.6
		c0.6,8.6,9.7,14.7,11.6,22.5c2.7,10.8,32.8,33.2,21.6,43.5c-6.3,5.8-19.3,4.5-27.7,7c-8.9,2.7-21.8,5.1-28.7,11.7
		c-6,5.7-17.7,7-24.6,12.7c-8.9,7.4-19.6,12.6-27,21.8c-4.1,5.1-14.4,16.2-12.2,23.1c2.9,9.3,1.9,13.6-3.2,21.6
		c-3.7,5.9-12.4,7.9-12.7,14.6c-0.5,11-1.7,22-2.1,33c-0.3,5.6,0,9.8-2.5,14.8c-0.8,4.6,2.8,8.5,1.6,13.3
		c-2.7,10.7-0.7,24.2-0.7,35.2c0.1,11.2,2.3,22.7,5.1,33.5c3.6,2.6,3.7,5.7,6.1,8.9c3.1,4.2,8,4.9,10.1,9.8
		c6.5,14.6,8.8,39.9-10.4,46.1c-11.1,3.6-10.3,2.8-10.9,15.7c-0.4,9.6-0.6,18.4,0.1,28.1c0.7,9.4,0.6,18.8,1.1,28.4
		c0.5,10.2,1.2,20.3,1.1,30.6c0,5.3-1.6,13.1,4.5,15.7c5.9,2.5,9.1,9.1,13.6,13.9c13.4,14.1,13.8,23,6.1,39.7
		c-2.3,5-4.9,9.8-7.4,14.7c-2.9,5.7-1.4,10.1-3.6,15.9c-1.3,3.6,0.9,8.7,1,12.3c0.1,8.2,0.1,16.5,0.2,24.7
		c0.1,18.8,3.8,37.6,3.7,56.3c-0.1,13.2,5.8,10.7,15.8,7.5c4.9-1.6,8.6-3.5,13.8-3.8c7.4-4.1,11.7-3.2,19.6-5.2
		c7.9-2,18.1-1.8,26.1-1.5c2.8,0.1,4.9,3.3,1.6,4.2c-5.8,1.6-12.2,1.5-18.2,2.5c-6.1,1.1-8.4-2.9-12.7,2.1
		c-4.7,0.8-9.4,1.5-13.7,3.5c-7.4,3.6-16.2,7.6-22.6,12.8c-16,13.1,14.9,25.5,23.7,30c5.2,2.6,45.3,30.6,44.9,30.9
		c-3.3,2.5-33.6-13.6-37-17c-8.3-8.4-36.7-20.6-47.8-18.7c-6.5,1.1-15.6-2.8-22.4-3.3c-9.8-0.8-22-1.6-31.5,2.1
		c-8.3,3.2-16.2,7.5-24.4,11.1C29.3,977.6,24,984.7,16.3,989.2C15.1,988.5,17.3,988.7,16.3,989.2z M218.7,289.3
		c-3.9-5.6-5.2-12.9-10-17.9c-5.5-5.6-14.9-12.9-13.5,1.5c1.2,12.6-16.4,39.9-30.7,36c-15.7-4.3-27.9-12.5-42.7-18.4
		c-9.6,1.6-18.2,2.5-27,7.6c-6.6,5.4-3.8,22-2.7,29.3c1.3,8.7,1.4,15.9,1.6,24.7c0.3,10.7,5.2,10,12,16.1c7.6,6.8,8,8.2,12.3-0.6
		c3.2-6.4,11.1-14.2,17-18c18-11.8,34.8-21.8,54.9-29.4c7.7-2.9,15.2-6.5,22.5-10.2C222.6,304.5,225.5,299,218.7,289.3
		C217.7,287.8,221,292.6,218.7,289.3z"/>
	<path class="st1" d="M90.4,212c4.2,7.7-0.1,22.3-0.9,30.9c-1.1,11.3-2.1,22.5-2.3,33.8c-0.1,6.7-0.3,19.2-3,25.1
		c-3.9,8.5,1.1,24.5,0.8,33.6c-0.1,4.5,2.9,9.1,3.4,13.6c0.8,6.8,0.2,12.9,2.2,19.6c2.5,7.9,6.2,10.6-4.5,10.7
		c-8,0.1-16.1,0.1-24.1,0.1c-7.2,0-25.1,4.5-25.1-5.2c0-6.6-3.9-11.6-3.2-18.4c0.5-5.1,2-13.8,0.2-18.7c2.7-6.8,21,1.6,23.6,5.8
		c3.4,5.5,4.9-2.3,4.8-4.5c-0.4-6.2-6.5-9.7-11.9-11.8c-15-5.6-15.2,0.7-14.7-17.3c-6.7-11.3-2.6-22.4-6.3-33.9
		c-3.2-9.8,1.6-22.4-3.4-31.6c-3.5-6.4-2.2-20.6-4.2-28.3c-3.1-11.7,21.5-0.3,28.4,0C63.1,216.1,78.2,216.1,90.4,212
		C91.1,213.3,89.1,212.4,90.4,212z"/>
	<path class="st1" d="M271.9,161.5c-0.3-3.8,9-6.3,11.3-8.4c8.1-7.2,17.3-4.9,26.2-9.1c4.9-2.3,16.7-5.2,22-6.2
		c8.1-1.5,16.4-4.3,24.5-5.3c3.5-0.4,20.7-5,22.9-0.9c4.6,8.7,10.6,15.6,14.8,24.7c6.9,14.7,14.1,28.4,19.9,43.7
		c3.6,9.4,8.8,18.3,11.3,28.1c1,3.9-12,0.9-14.5,0.2c-7.3-2.1-14.9-4.9-22.4-6.2c-6.7-1.1-20.1-5.1-25.4-9.4
		c-5.1-4.2-17-6.1-23.4-9.7c-7.7-4.3-15.9-7.9-23.3-12.7c-7.9-5.1-15.9-9.3-23.4-15C287,171.2,275.6,167.1,271.9,161.5
		C271.8,160,272.5,162.4,271.9,161.5z"/>
	<path class="st1" d="M56,572.7c-28.4-12.1-3.8-59.6-11.9-81.9c-2.6-7,0.3-18.4,0.2-25.9c-0.1-8.7-0.6-17.8-0.9-26.6
		c-0.4-9.7,33-10.6,41-11.6c19.3-2.4,10.5,25.9,9.4,38.2c-1.6,18.7-1.5,37.4-1.7,56.2c-0.1,12.9-2.1,32,3.4,43.8
		C99.9,574.9,61.2,573.4,56,572.7C54.3,572,57.7,572.9,56,572.7z"/>
	<path class="st1" d="M118.2,954.4c-3.6,3-16.8-2.4-21.2-2.9c-6.1-0.6-12,0-18.3,0.1c-11.5,0.2-10.1-23.2-10.5-32.6
		c-1.4-35-5.4-69.1-8.4-104c-0.9-10.4-3.8-13.1,7.6-11.6c10.5,1.4,21.5,5.5,32,5.7c15.8,0.2,10.4,34.5,10.9,46.3
		c0.8,19.9-0.4,40.5,3.1,60.2c1.1,6.5,1.4,13.1,2.5,19.6C116.6,939.7,120.2,950.1,118.2,954.4C117.1,955.2,118.3,954,118.2,954.4z"
		/>
	<path class="st1" d="M100.8,752.7c-7.3,6.4-31.4,12.6-38.5,3.5c-0.7-3.6,0.3-9,0-12.8c-0.6-6.7-1.6-14-1.4-21.2
		c0.3-13.5-3.4-27-3.5-40.5c-0.2-17.5,0-33.4-3.4-50.5c-2-9.8,5.4-6.1,13.4-6.1c9.1,0,18.9-0.9,27.9,0.3c2.1,5.9-0.4,15.3-0.9,21.6
		c-0.5,6.9,0.3,13,0.3,19.9C94.8,694.2,92.8,726.7,100.8,752.7C99.2,754.2,100.5,751.5,100.8,752.7z"/>
	<path class="st1" d="M25.2,424.6c-8.5-6.3-12.6-19.7-17.8-28.6c0-5.3-0.8-7.7,2.7-11.9c1.9-2.3,7.2-8.8,10.6-4.8
		c5.5,6.4,21.2,9.2,29,6.6c4.5-1.5,14.8,0.7,19.8,0.7c8.1,0,16.2,0,24.4,0c14.1-11,16.8-4.6,21.9,9.8c2.6,7.5-8.6,20.6-16.1,20.8
		c-11.9,0.3-25.6,4.1-37.2,6.7C49.2,426.8,38,422.9,25.2,424.6C21,421.5,32.4,423.7,25.2,424.6z"/>
	<path class="st1" d="M116.6,607.8c-15.2,9.6-39.1,9.7-56.9,8.8c-11.4-0.6-22.8-2.4-30.5-11c-2.4-10.2-10.6-23.1,1.8-30.3
		c11.9-6.9,10.1,0.6,22.9,4c11.8,3.2,22.6-0.4,34.5-0.6c11.9-0.2,16.3-6.9,26.9-2.8C120.8,585.5,119.9,597.8,116.6,607.8
		C113.5,609.7,117.6,604.8,116.6,607.8z"/>
	<path class="st1" d="M370.4,224.9c7.5,15.4,0.6,37.7-18.2,41.4c-19.7,3.9-38.9-10-47.3-27.4c-7.6-15.8-0.3-41.6,21.3-34
		c6.4,2.3,11.8,7.1,18.5,9.3C352.4,216.7,363.7,220.5,370.4,224.9C371.1,226.2,367.6,223.1,370.4,224.9z"/>
	<path class="st1" d="M110,801.8c-5.4-3.3-19.3-2.7-25.6-3.8c-10.1-1.7-16.6-2.1-26-6.2c-7.3-3.2-13.5-10.5-11.3-18.6
		c1.3-4.5,3.6-8.6,7.3-11.5c4.3,2.5,8.8,6.1,14.1,6c8.3-0.1,17,0.3,25.1-1.7c9-2.2,10.8-6.8,17.7-11.4c8-0.5,15.6,12.6,15.6,18.9
		C126.8,782.5,119.6,798.8,110,801.8C108,800.6,113.3,800.8,110,801.8z"/>
	<path class="st1" d="M379.7,230.1c3.4-4.4,38.1,7.4,40.3,11.5c8.6,15.7-8.4,31.1-20.5,36.8c-5.9,2.8-39.8,4.4-34.4-10
		c2-5.3,8.5-8.6,11.3-13.6C380.9,246.9,382.5,238.7,379.7,230.1C380.6,229,380,230.9,379.7,230.1z"/>
	<path class="st1" d="M25.4,201.8c7.5-10.7,17.7-18.7,31.5-15.2c11,2.8,26,0.1,33.5,11.4c5.7,8.5-24,10.6-29.5,10.5
		C53.3,208.4,30.1,208.7,25.4,201.8C27.5,198.8,25.8,202.4,25.4,201.8z"/>
	<path class="st0" d="M47.9,282.9c0,1.7,0.6,7.7-3.9,6.1c-6.2-2.2-4.6-15.9-5.5-20.9c-2-10.3-1.4-21.7-4.8-31.7
		c-1.1-3.2,1.4-5.7,4.3-4c3.5,2,4.4,12.4,4.1,15.9C41,257.7,40.3,275.9,47.9,282.9C47.9,284.6,45.4,280.6,47.9,282.9z"/>
	<path class="st0" d="M49.6,238.5c9.5-5,7.8,28.7,9.7,35.5c3.5,12.7-4.1,7.5-5.9-1.9C51.9,263.1,45.2,247.4,49.6,238.5
		C50.4,238.1,48.7,240.3,49.6,238.5z"/>
	<path class="st0" d="M361.3,142.1c5.3,10-10.6,6.7-16,7c-6.1,0.3-10.6,1.5-16.5,2.5c-7.2,1.2-6.6,7.3-12.2,8.2
		c-4.6,0.7-8.1-1.6-8.9-6.3c1.9-3.3,13.8-5.5,17.6-6.2C336.4,145.4,350,140.2,361.3,142.1C363.4,145.9,358.6,141.6,361.3,142.1z"/>
	<path class="st0" d="M323.6,165.4c1.3-9,25.6-9.8,31.8-9.1c2.4,0.9,2.8,2.2,1.4,4.1c-3,3.2-9.5,2.2-13.6,2.8
		C337.5,164,326.6,171.8,323.6,165.4C324.1,161.8,324,166.2,323.6,165.4z"/>
	<path class="st0" d="M52.7,480.4c-3.8-7.4-8.5-30-1.5-36.8c8.2,0,6.2,24.5,6.2,31.5c0,5.4-0.8,11.7,1.1,17c1.5,4.4,4.9,13.5,5,18
		c0,10.8-7.9-3.9-8.2-5.5C53.5,496.5,52.7,488.8,52.7,480.4C51.6,478.2,52.7,482.9,52.7,480.4z"/>
	<path class="st0" d="M70.9,489.9c-10.3-0.8-5.6-37.8-2.2-36.6C75.7,455.6,76,486.6,70.9,489.9C70.4,489.8,72.5,488.8,70.9,489.9z"
		/>
	<path class="st0" d="M68.3,814.4c10.8-1.9,6,17,5.8,22.6c-0.2,3.9,5.6,27.3,0.8,28.8C72,866.7,68,819.2,68.3,814.4
		C69.3,814.2,68.1,817.4,68.3,814.4z"/>
	<path class="st0" d="M80.5,826.2c6.4-6.1,4.6,13.2,5,16c0.7,5.5,3.2,13.8,1.8,19.4c-5.3,6.7-4.9-7.7-5.3-8.7
		C79.3,845.9,80.5,833.7,80.5,826.2C80.9,825.8,80.5,829.4,80.5,826.2z"/>
	<path class="st0" d="M63.7,637.3c8.4-2.6,5.8,16,5.9,20.8c0.2,6.1,6.9,21.6,3.7,25.5c-7.6,9.5-7.6-15.9-7.7-18.8
		C65.2,656.4,62.2,645.6,63.7,637.3C65.5,636.7,63.3,639.4,63.7,637.3z"/>
	<path class="st0" d="M85.1,676.6c-8.6,7.3-8.8-19.2-7.9-22.9c1.5-6,5.8-5.3,5.6,0.8C82.5,662.2,85.1,669.1,85.1,676.6
		C84.3,677.2,85.1,675.7,85.1,676.6z"/>
	<path class="st0" d="M369.4,238.6c3.5,12.6-16,13.8-19.4,3C345.7,228,364.5,231.6,369.4,238.6C369.8,240.3,366.4,234.4,369.4,238.6
		z"/>
	<path class="st0" d="M392.7,257.2c-0.8-13.2,14.9-14.9,20.2-4C413.9,264.6,397.2,267,392.7,257.2
		C392.5,254.2,394.1,260.3,392.7,257.2z"/>
</g>
<g>
	<path class="st0" d="M918.1,773.6c9.6,2.1,14.9,6,22.3,11.4c7.5,5.4,3.2,15.5,4.8,23.3c1.4,7.3,13.4,13.2,17.8,19.1
		c5.5,7.5,18.3,16.9,26,22.2c9.2,6.4,10.3,14.6,11,25c0.5,7.2,0.4,20.5-9.4,20.4c-10.4-0.1-15.3-6.6-23.2-13.1
		c-8.3-6.8-16.6-15.1-24.4-22.9c-7.8-7.8-13.4-15.3-23.5-10.3c-8.3,4.1-17.4,2.4-21.4-6.3c-8.4-18.2-20.7-32.1-35.1-46.1
		c-4.1-4-13.6-13.4-19-14.8c-4.8-1.3-8.9-4.2-13.1-6.5c-4.9,0.6-9.6-1-14-2.9c-11-4.7-15.9-8-19.2-20.1c-2.6-9.8-10.9-15-15.5-23.7
		c-3.8-7.1-16.2-14.2-22.5-19.1c-8.1-6.2-15.7-9.7-25.5-12.3c-4.3,2.8-19.1-4.4-23.8-6.5c-11.3-5-10.1-14.5-15.9-23.5
		c-9.9-15.4-22.9-27.6-36.1-40.3c-4.3-4.1-10.9-10.1-16.5-12.1c-4.1-1.4-5-4.6-9.6-4.7c-6-0.1-11.4,0.9-17.2-1
		c-20.1-6.8-16.1-30-24.4-44.7c-4.8-8.5-12.3-12.6-18-20.1c-9.9-12.9-17.8,5.7-21.4,14.1c-7.2,16.8-15.6,32-20.3,49.8
		c-4.8,18.2,0.6,42.2,6.1,59.8c4.2,13.4,13.1,33.9,7.3,46.4c-19.6,4.9-39-20.3-51-31.6c-7.8-7.4-6.9,2.4-11.5,8.1
		c-5,6.2-11.9,10.7-16.8,17.3c-10.5,14.1-21.8,29.5-37.3,38.8c-15.8,9.5-21.7,24.3-21,41.8c9.6,19.6,22.3,37.5,30.9,57.5
		c3.7,8.6,4.9,18.1,8.7,26.6c2,4.5,1.6,24.7,6.4,24.9c11,0.5,21.8,1,32.8,1c5.7-2.2,9.8,0.7,14-4.3c3.9-4.6,8-9.6,14.3-10.9
		c7.4-1.5,17.4,3.2,22.8,8.1c8,7.3,10.5,6.9,22,7c11.6,0.1,23.3,0.1,34.9,0.3c2.8,0,8.8,0.9,11.8,1.2c7,0.8,6.5-0.7,12.7-1.7
		c38.2-6.4,51.1,56,5.1,55c-18.1-0.4-36.7,1-54.8,1.3c-19.3,0.3-35.7,7.8-54.6,2.4c-6-1.7-16.1-0.3-22.4-0.2
		c-9.5,0.2-18.8-0.4-28.4,0.2c-23.3,1.4-43.1,4-65,12.9c-9.1,3.7-18.6,5.2-28.4,2.9c-9.4-2.2-13.4-6.1-20.9-10.8
		c-13.8-8.7-43.9-2.3-59.7-0.9c-9.1,0.8-19.5,4-28.2-0.4c-5.1,0.3-2.4,1.2-8.6-0.8c-2.3-0.8-6.3-4.4-8.3-4.7
		c-11.5-1.7-17.6-43.1-15-51.5c3.2-10.4,12.2-4.7,20.3-3.9c9.9,1,20.5,0.4,30.4,0.1c20.8-0.6,40.6-0.6,61.1-1.2
		c20-0.7,32.3-10.1,52.9-2.5c10.2,0.7,20.1,1.5,30.5,1.5c15.1,0,18.3,1.3,14.9-15.2c-4.5-21.6-13.1-42.5-23.9-61.6
		c-7.3-12.9-29.8-38.5-24-54c4.7-12.4,24.3-22.5,34.2-30.3c6.1-4.8,16.6-9.7,16.4-18.5c-0.3-11.6-0.9-17.3-13-18.3
		c-9.1-0.7-16.1-7.1-24.5-9.1c-8.2-2-18.3-6.9-25.3-11.6c-5.1-3.4-12.7-6.5-18.3-9.1c-9.1-4.3-19-11.1-26.8-17.4
		c-14.5-11.7-35.4-21.3-46.6-35.9c-11.7-15.2-27.8-25.7-40.5-39.9c-10.3-11.5-19.3-32.3-13.5-47.8c6.7-18,19.1-25.2,36.9-29.3
		c3.8-0.9,18.9,0.6,22.9,2.4c7.8,3.6,22.1,0.9,30.6,1.4c9.5,0.5,19.9,4.1,29.2,1.5c11-3.1,25.1-1.7,36.5-1.5
		c10.2,0.2,21.9,2.5,17.6,15.6c-2.3,7.1-2,15-2.6,22.3c-0.7,9.7-3.7,19-3.7,29c0,6.1,0,12.3,0,18.4c0,10.2-0.6,11.9,7.6,17.7
		c19.9,3.7,35.1,0.4,52.6-8.1c27.3,0,30.4,15,36.6,38c3.9,14.5,3.7,33.7,13.1,46.3c3.5,4.7,11.8,13.4,17.8,10.1
		c7.6-4.2,0.6-19.2-1.3-25.6c-10.7-36.5-7.7-70.2,11.2-103.6c4.6-8.2,10.1-16.5,13.5-25.2c4.1-10.6-4.7-16-12.7-22.4
		c-7.2-5.8-13-11.9-19.6-17.9c-6.8-6.3-20.2-5.1-25.3-13.4c-8.6-14,8.6-39.4,17.5-46.9c16.9-14.1,35.6-0.4,48.7,12.1
		c8.6,8.3,18.6,23.4,28.7,29.2c3.1,1.8,6.5,9.6,10.9,6.5c3.6-2.6,9.7-3.6,14-3.4c7,7.5-4.1,14.8,3.4,22.1c9,8.8,17.5,16.4,29.8,19.1
		c9.4,2,22.8,7.3,18.8,19.9c-3,9.4,16.4,19.5,23,24.9c15.7,13.1,35.1,25.9,54.3,32.4c8.3,2.8,20.1,5.2,25,13.4
		c3.7,6,3.5,12.7,3.5,19.7c0,7.6,3.2,7.2,7.5,12.7c6.2,7.8,14.9,14.8,22.6,21.1c3.2,2.6,5.6,6,8.5,9c3.6,3.6,9.7,3.9,13.9,6.6
		c8,5.1,18.8,5.1,27.2,9c13.6,6.2,13.9,18.3,17.5,30.7C875.4,746.2,899.1,759.3,918.1,773.6C919.9,774,911.1,768.4,918.1,773.6z"/>
	<path class="st1" d="M537.2,502.8c-7.6-4.5-14.7-9.4-22.1-14.1c-8.2-5.2-0.9-9.7,3.9-14.3c6.3-6.1,10.2-13.2,15.9-19.7
		c9.6-11.1,10.2-7.8,21.2,2.3c14.6,13.3,29,27.9,41.3,44.2c4.5,5.9-0.9,20.4-0.6,28.3c0.4,11.7,13.2-15.8,12.4-14.8
		c6.8,5.7,28.1,24,22.7,33.3c-5.6,9.6-19.4,21-30.3,12.7c-4-3-6.7-7.9-10.4-11.4c-6.7-6.3-13.2-12.8-20.1-18.9
		C561.5,522.2,542.8,514.7,537.2,502.8C531.4,499.4,537.9,504.3,537.2,502.8z"/>
	<path class="st1" d="M391,601.4c-4.5-0.2-13.4-13.9-18.3-17.1c-10.6-6.9-20.9-16.2-30.4-24.5c-10-8.6-20.5-15.9-29.6-25.5
		c-3.2-3.4-7-7.7-9.8-11.6c-6.7-9.5,0.3-9.6,8.7-10.1c15.6-1,31.3,0.1,47-0.9c6.7-0.5,38.2-6,38.5,4.4c0.3,12.5-4.3,27.3-5.3,40.1
		C390.5,571.7,390.5,585.9,391,601.4C390,601.4,390.9,597.2,391,601.4z"/>
	<path class="st1" d="M717.4,606.2c20.3,6.2,14.9,61.2-11.8,53.1c-17.5-14.9-35.2-30.1-52-45.7c-3.4-3.1-7.6-6.4-11.5-8.7
		c-0.1-2.3,7.7-9.1,9.2-11.3c7-10.5,12.9-17.9,12.2-31.4c-0.4-8.2,20.5,12.5,23,14.8C697.3,586.7,707.8,595,717.4,606.2
		C717.9,606.4,713.8,602,717.4,606.2z"/>
	<path class="st1" d="M367.7,597.3c5.3,14.1-30.5,30.8-41.3,30.4c-11.1-0.4-19-4.5-26.2-12.8c-7.9-9.1-9-12.3-10.1-23.8
		c-1-9.6-3.9-17.2,0.7-26.4c3.6-7.2,19.7-19.3,27.6-13C335.4,565.3,352.7,581.6,367.7,597.3C368.3,599,367.1,596.7,367.7,597.3z"/>
	<path class="st1" d="M401.6,906.4c7-5.6,29.2-1.8,37.7-1.2c14.2,1.1,28.6,2.7,42.9,2.7c6.1,0,11.6-0.2,17.6,1.8
		c2.3,4.4,4.4,10.5,7.3,14.5c7,9.4,2.4,21.6-7.1,25c-3.6,1.3-10-2-13.9-2c-7.3,0-14.7,0.1-22,0.1c-13.3,0-27.7,2.4-40.6,5.4
		c-13.3,3.1-14.4,0.5-13.2-13.1C411.2,927.2,405.6,917.3,401.6,906.4C401.9,906.1,402.1,907.9,401.6,906.4z"/>
	<path class="st1" d="M254.7,908c6.4,2.2,28.2,2,34.7-1.3c11.8,3.1,24.5,2.9,36.7,2.2c12.7-0.7,21.9,1.1,33,8.4
		c3.9,7.9,8,22.9-0.3,29.6c-8.7,7-28.8,2.1-39.1,1.5c-13.3-0.8-27.5-0.5-40.6,1.1c-3.8,0.4-14.6,4.7-17,0.9c-1.7-2.6,1-8.4,0.6-11.4
		C261.5,930.6,252.2,916,254.7,908C258.4,909.3,253.6,911.3,254.7,908z"/>
	<path class="st1" d="M547.9,949.4c-2.8-2.6,0.3-22.1-1.3-28.1c-2.9-11.2-5.8-14.8,7-14.7c13.3,0.1,27.3-0.7,40,0.1
		c9.2,0.6,21.8-0.1,29,2.2c5.4,2,6.5-4.2,12.4-0.2c5,3.3,7.8,9.6,9.7,15c6,17.3-9.6,20.9-22.1,21
		C599.8,944.8,569.4,941.1,547.9,949.4C547.3,948.8,553.9,947.1,547.9,949.4z"/>
	<path class="st1" d="M817.8,703c23.1,12.3-3.9,50.9-17.8,31.8c-13-17.9-33.3-30.3-51-42.5c-11-7.6,2.1-8.3,7.4-15.8
		c4.7-6.6,7.2-15.1,9.5-22.7c2.2-7.1,2.3-8.7,8.5-2.1c7.1,7.5,11.8,18,20.5,24C803.2,681.4,813.1,694.4,817.8,703
		C820.3,704.4,814.3,696.5,817.8,703z"/>
	<path class="st1" d="M307,542.5c-5.1,4.4-20.1,5.8-21.9,13.9c-1,4.5-4.4,7.3-5.2,12.2c-0.8,5,1.3,12.4-0.8,17
		c-20.7-2.1-30.8-21.7-38.3-38.2c-7-15.2,9.3-36.1,23.6-38.8c12.5-2.3,16.8-2.1,23.6,8.6c1.9,3.1,5,12.3,8.3,13.9
		C300,533.1,305.1,538.8,307,542.5C304.5,544.7,305.9,540.4,307,542.5z"/>
	<path class="st1" d="M724.4,661.7c9.8-6.3,7.8-11.9,11.7-21.3c1.5-3.7,0.6-22.7-1.8-26.3c4.1-6.8,16.2-3.3,20.8,0.8
		c8.6,7.5,9.5,13.9,7.1,25.1c-2,9-3.8,18.2-8.4,26.3c-5.7,10-14.4,12.3-22.5,19.5c-3.5,3-5.5,2.3-9.9,2.3c-3.5-1.2-7-2.4-10.5-3.6
		c-1.2-3.1-2.5-6.1-4.2-9C706.6,666.8,719.6,670.8,724.4,661.7C726.5,660.4,721.9,666.6,724.4,661.7z"/>
	<path class="st1" d="M358.2,905.1c1-5.3,15.1-5.5,19.5-5.5c8.7,0,15.3,5.7,19.2,13.5c6.3,12.4,13.4,37-0.6,46.9
		c-8.6,6.1-15.3,5.4-25.1,3.8c-11.1-1.8-18.8-3.7-5.7-10.4c5.3-8.6,6-12.5,5.8-23C371.3,923.8,364.2,908.5,358.2,905.1
		C358.6,902.6,360.6,906.5,358.2,905.1z"/>
	<path class="st1" d="M886.3,773.6c-3.4-0.4-10.2-8.8-13.3-3.1c4.6,5.7,15.4,15.5,22.4,18.2c1.7-3.1-7.9-10.9-3.9-11.4
		c2.9,1.1,4.2,4.6,6.6,6.4c6.8,4.8,5-0.5,8-3.6c5.3,4.2,9.6,13.6,8.4,20.2c-1.2,6.1-9.4,19.3-17.4,14.4
		c-6.8-4.2-13.5-12.3-20.1-17.8c-6.5-5.4-13.4-10.3-20.1-15.3c-6.1-4.5-22.4-11.1-12.1-16.7c7.3-3.9,14.9-9.6,18.4-17.3
		c0.6-1.2,1.2-8,4.4-4.8c4.2,4.2,8.4,8.4,12.6,12.6c3.3,3.2,15.9,10.9,16.6,15.5c-2.3,2.5-19-10.8-23.9-12.1
		C866.3,759.1,885.1,772,886.3,773.6z"/>
	<path class="st1" d="M654.8,535.7c4.2,8,0.7,11.3,0.3,19.2c-0.3,7.4,1.1,15.6-1.6,23c-5.4,14.6-30.8,34.3-42.8,16.4
		c-4.3-6.4-7.7-11.6-6.9-19.5c0.5-4.9,14-7.3,18.3-9.5c8.1-4.1,14.1-7.1,16.9-16.4C641.3,540.8,642.6,527.7,654.8,535.7
		C655.4,536.8,651.1,533.2,654.8,535.7z"/>
	<path class="st1" d="M835.8,712.7c-5.6-7.1-5.6-13.7,3.9-13.8c10.6-0.2,17.2,4.7,19.6,15.6c3.6,16.1-2.1,34.4-16.5,42.9
		c-7.3,4.3-19.7,8.2-28.4,6.7c-6.9-1.2-13-11-7.9-17.3c7.9-2.8,14.2-4.5,21.6-9C837.8,732,835.5,721.7,835.8,712.7
		C834.4,710.9,835.7,716.6,835.8,712.7z"/>
	<path class="st1" d="M505.5,903.7c0.8-15.3,16.4-15.1,25.7-6.7c7.8,7.1,13.1,29.9,11.3,40.3c-1,5.5-9.2,15.2-15.4,14.6
		c-7.5-0.7-5.5-4.9-6.8-9.6C516.6,928.7,511.9,916.7,505.5,903.7C505.6,901.9,506.4,905.6,505.5,903.7z"/>
	<path class="st1" d="M993.2,876.5c-1.8,9.9-6.6,13.5-14,4.8c-5.4-6.3-13.6-11.8-19.7-17.5c-4.9-4.6-10.1-9.7-15.5-14
		c-4.8-3.8-21.3-11.6-8-17.3c4.2-5.9,4.2-14.6,11.6-9.8c5.1,3.3,13.7,9,16.4,14.2C971.6,851.3,993,857.8,993.2,876.5
		C992.1,882.5,993.2,873.8,993.2,876.5z"/>
	<path class="st1" d="M899.9,826c1.6-4.5,7.4-4.4,10.7-7.3c5.5-4.7,8.3-6.3,11.2-13.8c3.8-9.9-1.2-28.7,12.8-13.2
		c7.5,15.2-2.3,30.3-11.7,40.8C912.8,844,901.5,842.8,899.9,826C900.5,824.4,900.3,830.1,899.9,826z"/>
	<path class="st1" d="M507.1,478c-1.6,0.1-3.2,0.6-4.7,1.3c-7.3-8.6,8.6-30.1,14.8-35.5c6.4,3.4,10.5,5,7.1,13
		C520.9,464.7,513.7,472.9,507.1,478C505.4,478.5,509.4,476.2,507.1,478z"/>
	<path class="st1" d="M236.1,908.6c9.1,1,11.9,7,13.9,15.2c1.1,4.6,5.2,21.7,0.2,24.3C240.3,941.7,232.8,919.8,236.1,908.6
		C241.9,909.3,235.1,912,236.1,908.6z"/>
	<path class="st1" d="M886.1,773.8c1.5,0.2,2.2,2.1,1.8,2C885.8,775.2,886.9,774.6,886.1,773.8z"/>
	<path class="st0" d="M544.2,470.2c-1.1-16.8,43.5,24.4,32.9,29.9c-4.6,2.4-8-7.9-11.1-10.1C558.2,484.4,551.8,476.2,544.2,470.2
		C543.9,465.6,546.1,471.7,544.2,470.2z"/>
	<path class="st0" d="M541.9,478.6c5.3-6.9,20,9.7,21.9,15.5C561.4,502,543.8,482.9,541.9,478.6
		C542.4,477.9,542.6,480.2,541.9,478.6z"/>
	<path class="st0" d="M327.4,518.4c8.3,3.7,20.5,1.5,29.4,1.4c1.5,0,23.3-1.3,14.8,6.4c-4.6,4.2-21.5,0.6-27.6,0.6
		C341.3,526.8,313.7,525.5,327.4,518.4C331.2,520,324.2,520.1,327.4,518.4z"/>
	<path class="st0" d="M338.8,539.8c-8.9-7,21.7-8.2,26.3-8.3c9.8-0.2,8.5,4.6,0.1,6.7C356.7,540.3,347.4,540.6,338.8,539.8
		C336.8,538.3,342.6,540.2,338.8,539.8z"/>
	<path class="st0" d="M673.5,581.7c10.2-2.9,21.5,9.7,27.6,16.3c3.4,3.7,10.5,5.8,10.4,11.4c0.2,2.4-0.8,3.8-3.2,4.1
		c-7,2,1.7,4.8-3.3,6.7c-8.2,0-22.1-14.6-28.3-19.7c-1.8-1.5-3.6-9.5,0.4-7c3,1.9,10.3,8.9,13.6,8.7
		C694.9,597,670.6,589.1,673.5,581.7C676,581,672.3,584.8,673.5,581.7z"/>
	<path class="st0" d="M338.5,590.9c-9.4,0.5-12.1-1-18.3-8c-1-5.3-0.3-9,4.4-12c2.5-0.2,4.9-0.7,7.2-1.4c1.8,1.5,3.7,2.8,5.8,3.9
		C340.1,578.2,345.1,586.9,338.5,590.9C337.6,591,340.4,589.8,338.5,590.9z"/>
	<path class="st0" d="M427.2,939.4c-4.4-5.2,28-7.7,31.3-7.7c6,0,24.3-2.7,29.7,0.6c9.8,6-21.1,4.1-23.7,4.1
		C456.6,936.3,433.1,943.9,427.2,939.4C426.5,938.6,428.3,940.2,427.2,939.4z"/>
	<path class="st0" d="M440.8,925.6c-5.7-5.8,31.3-6.2,36.2-6c0.4,0,11.8-0.9,9.1,4.1c-2.1,2.3-11.4,0.6-14.1,0.6
		C461.6,924.3,451.3,926.2,440.8,925.6C439.7,924.5,444.7,925.8,440.8,925.6z"/>
	<path class="st0" d="M277.7,940.6c-10.2-5.2,12.9-7.6,15.6-7.6c4.2-0.1,28.8-1.9,29.9,4C316.9,947.4,287.1,935,277.7,940.6
		C275.9,939.7,278.8,940,277.7,940.6z"/>
	<path class="st0" d="M282.2,927.7c-3.3-6.1,32.9-6.2,37.6-0.2C314.2,933.7,289,930.7,282.2,927.7
		C281.4,926.3,282.7,927.9,282.2,927.7z"/>
	<path class="st0" d="M608.7,935.1c-8.3-0.2-16-0.1-24.3-0.1c-5.3,0-10.6,0-15.8,0c-3.3-3.4-1.7-5.7,2.5-5.9
		c7.9-0.5,15.8-1,23.9-1.1C595.6,928.1,620.7,928.2,608.7,935.1C605.5,935.1,611.1,933.7,608.7,935.1z"/>
	<path class="st0" d="M607,922.7c-4.6,5.7-19.9,0.5-26.4,0.5C576,912.8,603.3,918.4,607,922.7C606.6,923.2,606.6,922.3,607,922.7z"
		/>
	<path class="st0" d="M806.8,697.2c-1.4,3.2-27.9-25.3-32.3-27.6c-1.5-2.6-1-4,1.7-4.2c4.3,0.1,7.4,4.6,10.3,7.4
		C794.2,680.2,801.1,688.3,806.8,697.2C806.4,698.1,799.1,685.3,806.8,697.2z"/>
	<path class="st0" d="M797.8,699.1c-3,4.6-28.8-17.6-26.2-22.2C775.7,673.4,795.9,694.6,797.8,699.1
		C797.4,699.6,796.7,696.7,797.8,699.1z"/>
	<path class="st0" d="M271.4,527.2c10.3-2.7,22.2,3.1,17.4,15.8C277.4,549,261.8,540.9,271.4,527.2
		C272.4,526.9,267.9,532.2,271.4,527.2z"/>
	<path class="st0" d="M951,842.5c0-1.4,0.2-2.8,0.7-4.2c-1.8-2-5.6-5.1-1.5-7.2c3.8-2,13.8,11.5,16.4,13.8
		C976.1,853.7,952.5,850.5,951,842.5C950.2,841,951.2,843.6,951,842.5z"/>
	<path class="st1" d="M703.1,611.4c-0.4,0.7-0.7,1.3-1.1,2c-3.7-1.8-5.7-5.5-8-8.7C698.5,604.3,700.2,608.8,703.1,611.4
		C703.1,612.6,701.7,610.1,703.1,611.4z"/>
</g>
</svg>
