<?xml version="1.0" encoding="utf-8"?>
<!DOCTYPE svg PUBLIC "-//W3C//DTD SVG 1.1//EN" "http://www.w3.org/Graphics/SVG/1.1/DTD/svg11.dtd">
<svg version="1.1" id="Rules" xmlns="http://www.w3.org/2000/svg" xmlns:xlink="http://www.w3.org/1999/xlink" x="0px" y="0px"
	 width="1000px" height="750px" viewBox="0 0 1000 750" style="enable-background:new 0 0 1000 750;" xml:space="preserve">
<style type="text/css">
<![CDATA[
	.st0{fill-rule:evenodd;clip-rule:evenodd;}
	.st1{fill-rule:evenodd;clip-rule:evenodd;fill:#FFFFFF;}
]]>
</style>
<g>
	<path class="st0" d="M520,733.2c-8.1-19.7,74.3-19.2,88.9-19.3c23.5-0.1-0.1-49.4,0.6-49.4c-10.3,0.5-81.2-2.2-81.9-10.8
		c-0.9-12.9,56.3-11,65.1-11.5c37-2.3,9.4-45.9,11.2-46.7c-20.5,9.2-93.8,1.5-101.9-19.5c3.6-9.4,75.2-2.6,87.2-3.1
		c52.2-2.4,26.1,19.3,36.3,52.8c3.8,12.4,21.4,87.7,8.2,96C612.1,735.3,545.1,747.5,520,733.2C519.3,731.5,523.4,735.1,520,733.2z"
		/>
	<path class="st0" d="M741.4,665.6c-2.1-1-131.8-22.2-81.5-55.8c12.3-8.2,24.7-41.2,43.8-30.7c21.2-11,52.1,13.6,48.5,14.9
		c-23.4,8.7-34.2-11.3-56.6,12.6c-37.2,39.7,53,42.2,74.5,54.4c17.8,23.5,12.2,43.7-11.7,62.1c-10.6,8.1-93.8,33.4-90.4,21.2
		C678.5,706.8,780.4,743.6,741.4,665.6C737.6,663.8,747.2,677.3,741.4,665.6z"/>
	<path class="st0" d="M266.3,720.3c-63.7,0-65.4-34.1-68.5-88.4c-0.5-8.7-8.6-57.7,7-56.6c17.3,6.4,8.4,24.5,8.3,38.7
		c-0.2,23.1,1.5,94.8,35.3,90.1c77.5-10.9,17.8-110.4,53.5-132.9c16.4-4.4,8.8,78.6,8.6,89.8c-0.2,10.9-1,31.9-4.8,42
		C296.6,718.1,279.7,711.2,266.3,720.3C260.7,720.3,270.8,717.2,266.3,720.3z"/>
	<path class="st0" d="M382.2,693.9c31.4,10.3,80.2-29.2,95,2.1c-4.2,8.5-106.6,25.7-115.1,15.9c-12.3-33.5-12.7-93.6-12.7-128.9
		c21.1-47.3,26.2,31.9,26.2,37.2C375.6,642.2,373.3,672.6,382.2,693.9C383.8,694.4,381.5,692.2,382.2,693.9z"/>
	<path class="st0" d="M536.3,540.4c6.4-8.6,17.8-15.3,21.8-0.5C562.5,556,535.7,560.8,536.3,540.4C539,536.7,536,550.5,536.3,540.4z
		"/>
	<path class="st0" d="M578.5,531.4C611.6,502.7,578.5,579.3,578.5,531.4C579.9,530.2,578.5,533.4,578.5,531.4z"/>
	<path class="st0" d="M0.9,569.2c13.9-27.1,82.7-21.2,104.4-12.7c31.1,12.1,59.5,44.6,31.3,74c-24.4,25.5-52.3,20.3-23.7,56.8
		c10.9,14,35.4,27.5,41.3,43.5c-13.2,16.1-16.1,6-29.2-7.3c-20-20.3-46.3-55.5-74.6-55.2c-44.8,0.6-25.2,37.9-28.5,69.3
		c-0.6,5.4-11.9,19.3-16,8.2c-5.6-15.1-5.8-38.6-6-54.9C-0.5,651.7,4.2,607.1,0.9,569.2C2,567.1,1.1,571.4,0.9,569.2z M25.7,656.2
		c31.6-9.4,56.9-6.8,85.1-27.4c34.5-25.2,7.5-51.4-19-60.2c-21-7-68.4-9.8-75.5,16.3C19,591.1,17.7,658.6,25.7,656.2
		C32.3,654.3,25.2,656.4,25.7,656.2z"/>
</g>
<g>
	<path class="st0" d="M999.8,653.2c2.3,18.3-15.8,44.1-15.4,17.5c0.4-26.4-22.6-58.4-31.8-82c-11.2-28.9-24.9-56-44.9-80
		c-24.6-29.4-23.6-41.4-17.4-76.8c10.8-61.4,18.9-118.9,16.1-181.2c-4.2-10-18.7-67.7-31.3-64.8c-20.2,4.6-13.8,62.6-16.3,77
		c-4.5,26.8-4.8,53.1-15,78.9c-3.3,8.3-2,87.8-24,54c-2.8-37-61.6-130.6-107.4-102.7c-7.7,4.7-19.4,11.8-25,16
		c-14.2,17,21.2,32.5,33.4,43.9c10.7,10,32.4,13,16.9,33.2c-7.5,9.8-14,22.5-23,30.9c-9.3,8.7-38.8-41.6-52.6-40.2
		c-14.4,19.5-16.3,20.8-15.7-9.8c0.2-12.4-35.4-33.9-45.8-41.4c-36.9-26.5-44.2,23.7-48.3,48.1c-3.7,22.1-28.9,32.8-48,38.7
		C458.4,427,391.3,392,349.3,377.8c-15.5-5.2-38.5,17.7-44.6,29c-19.3,16.6-50.7,30.1-76.3,33.5c-29.5,3.9-70-4.9-98.5-13.7
		c-35.3-10.9-4.3-17.4,14.9-11.9c63.1,18.1,119,7.9,167.4-35.8c54.5-49.3,83.3,10.1,140.9,14.5c21.8,1.7,39.7,8.5,57.7-7.7
		c24-21.7,13.2-43.7,24.7-71.7c14.6-35.3,34-27.1,61.2-42.3c15.3,4.6,25.2,19.4,38.9,23.9c32.8,10.8,24.9,24.9,50.8-0.3
		c11.1-10.8,26.7-31.7,45.4-29.4c24,3,46.3,26.1,62.3,41.8c13.2,12.9,33,42.8,38.2,3.8c7.8-57.4,30.9-100-28.4-128
		c-52.5-24.9-101-7.8-153.7-3.2c-46.9,4.1-77.2,51.7-120.4,66.2c-37.5,12.6-79.2,74.5-124.2,53.5c-17.1-8-43-31-45.4-51.7
		c-2.7-23,21.7-68.5,16-85c-4.2-5.4-54.6,38.6-52.5,10.7c19.9-27.4,38.5-54,59.9-80.5c30.6-38,76.5-116.1,136.1-87.2
		C565.9,28.5,635.6,20,676.8,50.8c25.1,0.4,54.9,5.7,79.3,3.9c34.9-2.5,53.7,17.7,83.5,29.6c45.2,18,54.9,88.7,72.6,125.3
		c12.2,25.2,11,62.5,10.9,89.9c0,12.6,1.8,70.8-4,80.7c-34.5,58.8,10.6,96.8,26.8,147.5C959.1,568.7,980.8,613.8,999.8,653.2
		C1000.3,657.1,998.5,650.6,999.8,653.2z"/>
	<path class="st1" d="M534.5,226.4c-29.3,18.9-80.6-3.1-91.3-33.7c-10.9-31.3,5-81.1,47.1-83.8c19.6-1.2,90-36.6,88.1,16.1
		c2.9,6.9,5.4,14,7.3,21.3c2,14.8-6.3,26.9-6.4,40.5C579,204.9,551.2,225.3,534.5,226.4C532.5,227.7,537.8,226.2,534.5,226.4z"/>
	<path class="st1" d="M366.7,146.4c-1.7-28.2,57.7-72.6,71.7-97.6c28.6-51.2,94.6-19.4,136.5-1.4c43.6,18.7-61.3,33.8-77.2,43.9
		C462.9,113.4,405.9,132.9,366.7,146.4z"/>
	<path class="st1" d="M387.2,171.4c17.5-20.2,5.8-25.8,36.7-22.9c1.5,1.3,5.4,41.2,5.4,45.2c0,34.6,35.3,35.5,52.3,51.1
		c7.1,22.5-55.2,51.3-72.8,38.7C364.1,251.4,373.1,218.2,387.2,171.4C393,164.7,384.7,179.7,387.2,171.4z"/>
	<path class="st1" d="M665,361.2c4.4-4.2,5-8.5,1.9-13c-13-0.9-6.3,5.5-21.7-0.8c-11.6-4.7-47.3-37-47.3-46.1
		c9.1-15.6,32.4,27,39.6,21.1c3.4-2.7-2.7-6.9-0.2-10.6c3.4-2,32.4,48.4,47.4,43c3.2-4.2,2.3-7.8-2.8-10.8
		c6-2.3,29.1,51.6,38.8,27.7c15.3-1.6-7.9,25.7-10.1,27C700.6,397.9,670.5,368.7,665,361.2C666.6,358.1,667.7,364.8,665,361.2z"/>
	<path class="st1" d="M623.7,301.7c2.7,1.3,2.7,1.3,2.3,4.9C622.3,304.9,622.3,305,623.7,301.7z"/>
	<path class="st1" d="M608.9,292.5C609.7,292.7,609.6,292.6,608.9,292.5L608.9,292.5z"/>
	<path class="st1" d="M364.4,148.2C362.4,152,364.3,148.3,364.4,148.2C364.1,148.8,364.4,148.2,364.4,148.2z"/>
	<path class="st1" d="M364.6,148.5C364.6,147.6,369,143.4,364.6,148.5C364.6,147.2,364.6,148.5,364.6,148.5z"/>
	<path class="st1" d="M657.8,324.7C657.9,323.9,657.9,324,657.8,324.7L657.8,324.7z"/>
	<path class="st0" d="M499.4,192.6c13.2-1.7,38.5-26.9,31.2,14.4C513.9,224,491.7,215.1,499.4,192.6
		C505.1,191.8,498.3,195.9,499.4,192.6z"/>
	<path class="st0" d="M483.8,30.3c-2.6,18.5-28.7,35.2-40,49c4.4-5.3-32.2,33.2-19.9,8C427.4,80.1,479.7,20.6,483.8,30.3
		C482.9,36.5,483,28.4,483.8,30.3z"/>
	<path class="st0" d="M496.2,41.5c0,14.2-22,31.3-34,37.3C459.5,80.1,473.8,39.6,496.2,41.5C496.2,43.3,494.5,41.4,496.2,41.5z"/>
	<path class="st0" d="M405,249.9c8.9-16.5,22.7-21,34.5-4.5C443.1,273.3,405.2,273,405,249.9C406.6,246.9,405,252.8,405,249.9z"/>
</g>
</svg>
