<?xml version="1.0" encoding="utf-8"?>
<!DOCTYPE svg PUBLIC "-//W3C//DTD SVG 1.1//EN" "http://www.w3.org/Graphics/SVG/1.1/DTD/svg11.dtd">
<svg version="1.1" id="AppKingOfTheScreen" xmlns="http://www.w3.org/2000/svg" width="1000" height="2000" viewBox="0 0 1000 2000">
<style type="text/css">
<![CDATA[
    path {fill-rule:evenodd;clip-rule:evenodd;}
    .coat  { fill:#80BCA3; }
    .face  { fill:#F6F7BD; }
    .crown { fill:#E6AC27; }
    .gem   { fill:#BF4D28; }
    .scarf { fill:#BF4D28; }
    .boot  { fill:#655643; }
]]>
</style>
<path class="body" d="M0.6,1214.3c-3.4-14,8.9-33.3,17.6-44.2c14.4-18,12.4-53.5,8.5-73.8c-3.3-17.4-8.2-42.4-4.6-60
	c19.5-15.8,23.2,46.1,23.6,50.8c3,41.1,28.6,89.7,22,131.2c-5.4,33.8,3.4,96.3,23.5,125.8c14.1,20.7,67.4-52.1,80.4-65.1
	c24.9-24.9,50.8-55.1,71.3-83.7c14.8-20.7,65.6-61.2,65.4-86.6c-0.1-14.8,18-49.2-9-54c-23.1-4.1-45.4-11.4-68.5-15.6
	c-31.9-5.7-63.2-25.3-88.8-43.7c-32.8-23.6-41-69.7-66.8-98.1c-54.7-60-41-164.3-38.2-234.9c3.6-91.4,98.8-146.9,97.8-238
	c-0.4-39.5-9.1-79.2-16.8-118.1c-7.4-37.7-6.8-86.9-56.5-91.6c-13.1-1.3-31.7-19.7-37.1-30.1c-25.1-9,16.1-44.9,23.6-52.1
	c31.7-30.8,70.8-10.2,99.9,13.9c0.6,6-12,36.3-8.8,36.2c9.8-0.2,17.4,33.6,25,40c43.5,36.7,89.2,67.4,152.1,49.3
	c33.1-9.6,47.1-32,65.8-56.8c26.6-35.3,56.8-68.6,87-101.2c33-35.6,25.6-39.8,15.9-84.7c-10-46.3,85.1-24.7,101.9-22.3
	c30.3,24.2-20.1,87.8-31.2,107.5c-11.4,20.4-5.6,45.6-7.4,66.9c-1.9,22.6,15.8,49.7,13.5,69.3c-2.2,18.7,44.5,72.7,60.1,81.4
	c18.7,10.4,33.5,28.3,52.3,38.1c20.3,10.5,48.6,13.2,66.2,28.5c7.7,6.7,16.6,7.3,24.8,14.7c10.8,9.6-3.4,13.5-2.5,24.3
	c0.8,9.4-27.5,20.9-33,24.6c-33.3,22.5-62.5,67.7-76.2,103.5c-13.4,34.7-18,64.7-6.8,102.4c10.7,35.9,41.1,73,46.6,108.7
	c4.8,31.7,34.6,59.3,48.2,87.5C760,903,792,934.9,810.6,974c33.3,70.2,59.4,145.4,75,221c17.3,83.8,51,167,58,252.7
	c3.3,41.2,14,84.6,22,125.1c9.3,46.8,9.2,93.6,16,140.2c3.5,23.5,37.6,107.2,3.3,120c-23.3,8.7-45.7-10.6-67.2-11.4
	c-21.1-0.7-50.8-6.2-70.9-13.4c-52.8-18.9-59.3,30-61.5,67.3c-2.5,42.4,90.8,67.9,39.5,105.7c-36.2,26.7-96,12.8-139.2,14.7
	c-33.7,1.5-115,14.8-139.4-16.2c-13.9-17.6,22.1-66.6,43.8-72c40.3-10,81.1-34.8,125.6-19.4c38.6,13.3,43-93.4-1.4-100.4
	c-48.2-7.6-98.8-5.1-146.7-13.5c-44.4-7.8-77.4-22.8-93.9,26.7c-6.1,18.5-9,38-11.4,57.1c-3.3,26.9,9.4,47.8,9.8,72.7
	c0.2,13.1,16.3,23.1,12.6,37.3c-6.1,23.4-27.6,26.8-51,24.5c-45.4-4.5-90.6-6.5-135.9-9.6c-22.3-1.5-101.4-5.8-91.3-38.7
	c16.5-54.1,75.5-64.8,126-64.8c39.8,0,72.6,12.3,87.8-28c8.4-22.1-6.6-46.6-10.5-67.5c-6.1-33.1-50.3-28-75.7-29.4
	c-42-2.3-81.4,15.3-124.5,8.9c-17.6-2.6-27-29-37.2-39.6c-16.1-16.6-36.1-28.2-39.4-51.3c-5.3-37.2,19-89.8,30.3-125
	c14.6-45.6,20.2-95.2,36.3-139.9c9.9-27.2,35.7-108.4-19.1-72.1c-27.4,18.1-69.3,37.6-90.7,62.3c-42.9,49.4-38.8-59-43.3-77.4
	c-5-20.6-4.2-42.8-10.3-63.4C31.7,1242.2,11.6,1225.9,0.6,1214.3C0,1212.1,3.9,1217.9,0.6,1214.3z"/>
<path class="coat" d="M787.2,1003.8c65.8,52,68.6,171.9,84.9,245.6c19.8,89,37.8,178.8,59.5,266.9c10.8,43.9,7.6,90.5,11,135.4
	c2.5,33.1,20.4,106.9-5.4,133.1c-26.8,27.2-105.9-8.6-137.6-9.4c-49.3-1.2-111.8-7.8-159.5-18.8c-105-24.1-206.8-33.2-314.3-22.7
	c-36.7,3.6-113.2,30.3-130.5-15.8c-7.6-20.4-11.5-46-10.3-68c1.2-21.8-4.7-47.4,1.2-68.7c9-32.6,5.8-90.3,26.4-118.1
	c9-12.2,9.4-45,13.5-59.7c4.5-16.4,15.9-41.2,16.1-57.4c0.7-37.9,27.6-81.1,36.7-118.4c6.5-26.7,20.8-89,49.5-98.7
	c31.4-10.6,84.7,4.5,119.2,4.3c44.6-0.3,88.4-17.9,127.2-36.7c33.4-16.2,70.3-23.1,102-43.2c14.9-9.4,31.3-17.7,46.5-27.1
	c8.2-5,16-9.6,24.6-14.2C764.6,1003.6,770.1,1006.4,787.2,1003.8C793.8,1009,784.3,1004.2,787.2,1003.8z"/>
<path class="face" d="M427.9,1039.3c-40.4-7.9-83.9,11.2-125.1,0.7c-37.7-9.6-72-23.3-108.9-35.1C122,982.1,92.7,874.6,62.6,820.1
	c-30.3-54.8-2.1-156.2,23.3-208.5c12.4-25.6,33.8-84.4,67.5-90.6c17.8-3.3,31.7-20.9,49.4-23.5c25.3-3.8,48-1.7,73.2-0.8
	c164.1,5.8,321.9,98.8,376,246.2c26.8,73.1,37.5,163.3-31.9,220.2C566.3,1006.9,495.3,1023.8,427.9,1039.3
	C421,1038,430.2,1038.8,427.9,1039.3z"/>
<path class="crown" d="M508.7,99c22.6,3.4,17.2,105,23.6,125.5c10.2,32.5,12.1,72.1,29.2,102.6c20.6,36.5,75.8,38.7,107.7,60.5
	c5.2,3.6,92.3,45.5,64.8,48.1c-48.6,4.6-48.8,61-84.7,78.1c-6.5,14.4-50.8,91-64,88.1c-56.5-61.8-156.2-103-241.5-113.1
	c-50.7-6-101.3-12-151.9-18.4c-33.8-4.3-21-5.5-33.5-29.9c-7.2-14-8.3-38.6-12.3-54.1c-4.8-18.9,1.7-42.3-7.6-60.4
	c-4.3-8.3-12-39.2-11.1-47.9c1.4-12.7-6.8-25.8-7.8-38.3c10.9-17.7,35.6,9.1,47.7,10.6c14.8,1.9,30.1,23,44.8,27.5
	c16.1,4.9,35.8,18,51.6,19.5c10.6,1,18.9,9,28.5,12.4c15.9,5.6,16.8,0.6,31.6,1c17.3-12.3,24.2-31.3,38.2-46.2
	c17.9-19,38.9-65.6,62-77C454.9,172.2,473,105.9,508.7,99C512.4,99.5,503.7,99.9,508.7,99z"/>
<path class="scarf" d="M712.3,862.5c12.6,0,28.7,41.8,35.5,51.3c15.4,21.2,12.6,33.7,1.5,55.8c-18.1,36-76.3,68.3-113.4,85.3
	c-39.1,17.9-80.9,30-121,45.5c-24.1,9.3-51,16-77,16.4c-13.3,0.2-27,0.4-40.2,2.1c-13.7,1.7-23.9-9.7-36.7-10.1
	c-25.5-0.9-29.4-17.4-15.9-36.2c20.8-29,53.6-5.8,79.9-17.2c23.6-10.3,54.9-0.2,77.6-16.7c13.4-9.8,41.4-15.3,57.3-20.9
	c33.8-11.9,67.2-34.8,89.6-61.5c10.6-12.6,23.9-25,31.5-39.5C689.5,900.5,698.1,874,712.3,862.5
	C713.6,862.5,707.4,866.5,712.3,862.5z"/>
<path class="boot" d="M816.5,1958.7c-14.5,20.7-87.1,20.3-112.1,18.6c-13.9-0.9-146.5,9.7-135.1-15.5c19.3-42.6,76.5-54.1,120.8-54.2
	C711.7,1907.7,828.8,1922.6,816.5,1958.7C815.1,1960.7,818.4,1953.1,816.5,1958.7z"/>
<path class="boot" d="M243.1,1952.1c-15.2-33.8,57.9-56,82.3-50c18.7,4.6,42.4-4,62.2,0.4c9.8,2.2,20.9-1.8,30.5,2.2
	c12.5,5.2,7.9,14.3,15.6,22.3c46.9,49-17.4,47.3-60.5,40.9C338.7,1962.7,270.7,1977.3,243.1,1952.1
	C242.5,1950.9,246.1,1954.9,243.1,1952.1z"/>
<path class="gem" d="M36.6,186.8c-1.8-31,66-81.6,78-38.6C131.2,207.4,79.1,218.8,36.6,186.8C36.5,184.4,39.8,189.1,36.6,186.8z"/>
<path class="gem" d="M570.1,52.2c-16.8,10.7-16.9,25-39.5,29.3c-17.3,3.3-30.6-22.7-25.1-36.8C519,10.5,598.2,4,570.1,52.2
	C566.6,54.4,570.9,50.9,570.1,52.2z"/>
<path d="M761.1,1082.5c30.7,25.7,27.6,34.9,20.6,68.3c-4.3,20.2-24.4,51-35.3,69.8c-11.1,19.2-22.9,44.8-27.4,66.5
	c-5.4,25.6,0.6,47.1-23.7,64c-40.1,27.9-95.5,43.3-118.8,89c-2.2,4.3,4.2,71.4-12.5,50.4c-27.3-34.6-23.2,17-30.2,24.5
	c-13.4,14.3-34.4-26.1-41.2-35.9c-24.4-34.8,27.3-40.8,47.9-53.6c18.5-11.5,30.2-35.4,49.6-44.3c13.3-6.1,40.6-31.3,49.9-42.9
	c20.2-25.2,28.9-28.7,33.5-63.2c4-29.5,8.4-62.6,19.4-90.8C707.4,1147.3,693.1,1060,761.1,1082.5
	C764.1,1085,758.9,1081.8,761.1,1082.5z"/>
<path d="M279.7,555.8c9.9-12.2,7.3,22.8,11.5,24.2c14.9-3.3,32.9-18.2,48.2-15.6c16.6,2.9,16.4,37.3,34.6,23
	c13.7-10.8,38-11.5,36.8,12c-1,19.9,17.2,46,17.2,68.3c20.3,29.1,69.8-35.4,83.2-18c-5.1,9.8-21.9,13-29.2,21.4
	c-11.3,13-18,35.9-31.8,45.9c-19.2,13.9-41-69.2-40.5-81c0.3-8.7-9.6-33.4-22.8-27.7C355,622,356.8,591,340.7,586.7
	c-16.1-4.3-33.3,0.6-47.2,7.4C270.4,605.4,276.7,565.3,279.7,555.8C280.6,554.7,278.5,559.6,279.7,555.8z"/>
<path d="M308,700.5c-2.9-36.7,76.8-22.5,62.6,13.9C359.6,742.7,306.9,729.6,308,700.5
	C307.6,696.3,307.8,705.3,308,700.5z"/>
<path d="M389.6,872.2c9,11.4-15.8,47.5-23.4,56.5c-18.7,22.3-42.1,17.8-63.4-1.9c-14.4-13.3,35.3-12.6,40.1-14.9
	C357.8,904.8,375.6,871.6,389.6,872.2C391.9,875.2,383.2,871.9,389.6,872.2z"/>
<path d="M165.2,675.8c16.1,0.4,20.3-3.5,34.9,7.5c19.4,14.7,5.2,36.2-15.6,37.8C147.7,723.9,139.3,695.8,165.2,675.8
	C167.3,675.8,163.6,677.1,165.2,675.8z"/>
</svg>
