<?xml version="1.0" encoding="utf-8"?>
<!DOCTYPE svg PUBLIC "-//W3C//DTD SVG 1.1//EN" "http://www.w3.org/Graphics/SVG/1.1/DTD/svg11.dtd">
<svg version="1.1" id="dialog-woman" xmlns="http://www.w3.org/2000/svg" width="200" height="200" viewBox="0 0 200 200">
<style type="text/css">
<![CDATA[
	.st0{opacity:0.2;}
	.st1{opacity:0.4;}
	.st2{opacity:0.6;}
]]>
</style>
<path class="st0" d="M10,114.3c0.6-19.2,3.5-37.6,10.9-54.4C26.2,48,34.1,38.4,43.4,30.7c10-8.3,20.7-14.7,32.5-18.1
	c13.1-3.8,26.5-3.4,39.1,1.7c14.7,6,28.7,14.1,43.2,21c20.7,9.9,27.4,30.8,30.6,55.1c2.3,17.8,1.3,35.4-1.5,52.7
	c-1.6,9.9-3.8,20.1-9.9,28c-1.1,1.4-2.2,3-3.5,4.1c-3,2.5-4.8,1.7-6.1-2.3c-2.8-8.5-5.5-17.1-8.8-25.4c-1.6-4-1-6.4,1.4-9.5
	c5.5-7.2,11-14.6,16-22.4c2.2-3.4,3.7-7.8,4.8-12.1c0.9-3.6-1-5.5-3.7-3.8c-7.2,4.7-12.9,0.4-17.5-5c-7.5-8.9-14.1-18.9-21.1-28.5
	c-5-7-11.3-10.9-18.6-14c-10.7-4.5-21.5-6.8-32.7-6.6c-9.7,0.1-18,5-25.7,12c-2.5,2.3-2.6,5-0.2,7.1c3.9,3.4,3.4,7.4,1.8,11.9
	c-4,11.2-8.2,22.4-11.9,33.8c-2.3,7-4.1,14.4-2.1,22.2c0.5,2,1.1,4.4,2.3,5.7c2.8,2.9,2.6,5.5,0.5,8.8c-4.9,7.7-9.5,15.7-14.4,23.4
	c-3.1,4.9-4.8,4.9-8.7,0.6C20,160.5,15.4,147,12.6,132.4C11.4,126.4,10.8,120.3,10,114.3z"/>
<path class="st2" d="M90.4,52.4c14.6,0.8,29.2,2,41.1,14.1c4.1,4.1,7.4,9.3,11,14c6,7.9,11.9,13.7,18.1,21.4
	c1.9,2.4,10.6,3.6,13,5.3c3.6,2.5-1.8,7.2-4.9,10.5c-8.9,9.5-5.3,13.4-14.6,22.2c-5.7,5.4-30.6,22.4-36.8,27
	c-4.1,3.1-2-5.1-3.3-10.8c-1.9-8.5-2.7-17.9-5.8-25.8c-6.4-16.4-9.6-32.9-20.2-46.3c-5.3-6.7-13.5-16-24-20.7c-3.2-3.5,3-4.5,7.5-8
	C77.3,50.8,83.8,52.2,90.4,52.4z"/>
<path class="st2" d="M108.4,189.6c-19.7,1.8-38.9-3.5-58.1-7.8c-4.8-1.1-6.6-4-4.6-9.2c3.3-8.4,7.3-16.4,12-23.8
	c1.6-2.5,5.8-3.2,8.9-3.4c8.5-0.4,17.1,0.1,25.7-0.3c3.4-0.1,6.7-1.1,10-2.3c3.1-1.1,4.7,0.3,5,3.8c0.5,5.2,1,10.4,1.1,15.6
	c0.1,10,3.3,12.6,10.5,7.7c10.1-6.8,20-13.9,29.9-21.1c2.9-2.1,5.1-2.2,6.4,1.8c2.8,9.1,5.5,18.2,8.1,27.5c1,3.7-1.7,4.8-3.7,5.4
	c-8.7,2.2-17.4,4.9-26.2,6C125.1,190.4,116.7,189.6,108.4,189.6z"/>
<path class="st1" d="M79.8,141.2c-7.4-0.2-14.6-3.5-21.5-6.4c-1.8-0.7-3.6-4.4-3.8-6.9c-0.3-4.4-0.1-9.2,1.1-13.3
	c3.7-12.2,7.8-24.1,12.1-36c2.1-5.9,4.3-6.2,8-1.5C87.3,92,97.1,108.3,103,127.8c1.3,4.4,0.6,7.7-3.2,8.8
	C93.2,138.5,87.1,141.4,79.8,141.2z"/>
</svg>
