<?xml version="1.0" encoding="utf-8"?>
<!DOCTYPE svg PUBLIC "-//W3C//DTD SVG 1.1//EN" "http://www.w3.org/Graphics/SVG/1.1/DTD/svg11.dtd">
<svg version="1.1" id="dialog-appking" xmlns="http://www.w3.org/2000/svg" width="200" height="200" viewBox="0 0 200 200">
<style type="text/css">
<![CDATA[
	.st0{opacity:0.2;}
	.st1{opacity:0.4;}
	.st2{opacity:0.6;}
]]>
</style>
<path class="st0" d="M117.8,189c-10.8-2.1-22.4,3-33.4,0.2c-10.1-2.6-19.2-6.2-29.1-9.4c-19.2-6.1-27-34.8-35-49.3
	c-8.1-14.6-0.6-41.7,6.2-55.6c3.3-6.8,9-22.5,18-24.2c4.7-0.9,8.5-5.6,13.2-6.3c6.7-1,12.8-0.5,19.5-0.2
	c43.8,1.5,85.9,26.4,100.3,65.7c7.2,19.5,10,43.6-8.5,58.7C154.8,180.3,135.8,184.8,117.8,189C116,188.6,118.5,188.8,117.8,189z"/>
<path class="st2" d="M123,7.5c2.1,0.3,1.6,9.7,2.2,11.6c0.9,3,1.1,6.6,2.7,9.5c1.9,3.4,7,3.6,9.9,5.6c0.5,0.3,8.5,4.2,6,4.4
	c-4.5,0.4-4.5,5.6-7.8,7.2c-0.6,1.3-4.7,8.4-5.9,8.1c-5.2-5.7-14.4-9.5-22.3-10.4c-4.7-0.6-9.3-1.1-14-1.7c-3.1-0.4-1.9-0.5-3.1-2.8
	c-0.7-1.3-0.8-3.6-1.1-5c-0.4-1.7,0.2-3.9-0.7-5.6c-0.4-0.8-1.1-3.6-1-4.4c0.1-1.2-0.6-2.4-0.7-3.5c1-1.6,3.3,0.8,4.4,1
	c1.4,0.2,2.8,2.1,4.1,2.5c1.5,0.5,3.3,1.7,4.8,1.8c1,0.1,1.7,0.8,2.6,1.1c1.5,0.5,1.5,0.1,2.9,0.1c1.6-1.1,2.2-2.9,3.5-4.3
	c1.6-1.8,3.6-6,5.7-7.1C118,14.3,119.7,8.1,123,7.5C123.3,7.6,122.5,7.6,123,7.5z"/>
<path class="st2" d="M79.5,15.6c-0.2-2.9,6.1-7.5,7.2-3.6C88.2,17.5,83.4,18.6,79.5,15.6C79.5,15.4,79.8,15.8,79.5,15.6z"/>
<path class="st2" d="M128.7,3.2c-1.5,1-1.6,2.3-3.6,2.7c-1.6,0.3-2.8-2.1-2.3-3.4C123.9-0.6,131.2-1.2,128.7,3.2
	C128.3,3.4,128.7,3.1,128.7,3.2z"/>
<path class="st1" d="M93.1,84.6c-0.8-9.8,20.5-6,16.7,3.7C106.8,95.8,92.8,92.3,93.1,84.6C93,83.4,93,85.8,93.1,84.6z"/>
<path class="st1" d="M118.8,136.8c2.4,3-4.2,12.7-6.2,15.1c-5,5.9-11.2,4.7-16.9-0.5c-3.8-3.5,9.4-3.4,10.7-4
	C110.3,145.5,115.1,136.6,118.8,136.8C119.4,137.6,117.1,136.7,118.8,136.8z"/>
<path class="st1" d="M55,78c4.3,0.1,5.4-0.9,9.3,2c5.2,3.9,1.4,9.7-4.2,10.1C50.3,90.8,48.1,83.3,55,78C55.5,78,54.5,78.3,55,78z"/>
</svg>
