<?xml version="1.0" encoding="utf-8"?>
<!-- Generator: Adobe Illustrator 16.0.0, SVG Export Plug-In . SVG Version: 6.00 Build 0)  -->
<!DOCTYPE svg PUBLIC "-//W3C//DTD SVG 1.1//EN" "http://www.w3.org/Graphics/SVG/1.1/DTD/svg11.dtd">
<svg version="1.1" id="Layer_1" xmlns="http://www.w3.org/2000/svg" xmlns:xlink="http://www.w3.org/1999/xlink" x="0px" y="0px"
	 width="1000px" height="750px" viewBox="0 0 1000 750" style="enable-background:new 0 0 1000 750;" xml:space="preserve">
<style type="text/css">
<![CDATA[
	.st0{fill-rule:evenodd;clip-rule:evenodd;fill:#164528;}
	.st1{fill-rule:evenodd;clip-rule:evenodd;fill:#4BB264;}
	.st2{fill-rule:evenodd;clip-rule:evenodd;fill:#B6C620;}
	.st3{fill-rule:evenodd;clip-rule:evenodd;fill:#B6F165;}
	.st4{fill-rule:evenodd;clip-rule:evenodd;fill:#EAFA8E;}
	.st5{opacity:0;fill-rule:evenodd;clip-rule:evenodd;}
	.st6{fill-rule:evenodd;clip-rule:evenodd;}
	.st7{fill-rule:evenodd;clip-rule:evenodd;fill:#FFFFFF;}
	.st8{fill-rule:evenodd;clip-rule:evenodd;fill:#9CE276;}
]]>
</style>
<rect y="500" class="st5" width="1000" height="250"/>
<path class="st6" d="M243,164.8c12.6-2.4,25.1-5.5,37.8-6.9c8.4-0.9,17.1,0.2,25.6,1.2c4.1,0.5,5.1,5.6,1.9,8.4
	c-14.7,13.2-16.4,30.3-13.5,48c1.5,9.3,5.2,18.2,8.3,27.2c2.6,7.4,1.2,14.1-1.2,21.4c-3.3,10-6.2,20.2-7.4,30.6
	c-0.4,3.6,3.9,8.3,6.9,11.8c14.7,17.2,30.2,33.8,44.5,51.3c10.8,13.1,12.2,29.5,14.2,45.8c1.7,13.9-0.2,27.2-4.9,39.6
	c-5.1,13.4-6.7,27-5.6,40.6c1.4,18.4,2.6,37.3,12.2,53.7c8.5,14.5,18.7,27.9,27.6,42.1c1.1,1.8-0.5,7.5-2.4,8.4
	c-8.2,3.9-17.3,5.9-25.2,10.2c-6.7,3.6-12.7,9-18.2,14.4c-3.1,3.1-4.5,7.9-7,11.7c-3.5,5.3-9.2,6.4-14.3,4.5
	c-9.5-3.6-18.8-7.7-27.6-12.7c-21.4-12.3-42.3-13.5-63.7-0.1c-8.7,5.4-17.9,3.2-25.1-4.6c-9.8-10.5-19.6-21.3-34.6-24.3
	c-7.8-1.6-15.8-2.2-23.8-3.2c-4.8-0.6-6-3.7-3.2-7.1c12.3-15.4,25.1-30.4,37.4-45.8c6.3-7.9,12-16.4,17.7-24.9
	c0.4-0.6-1.4-3.8-2.6-4.1c-10.2-2.6-10.4-3.4-10.5-14.3c-0.1-5.7-2.1-11.4-3.6-17c-0.1-0.5-3.1-1.1-3.9-0.5
	c-12.9,9.7-25.6,19.7-38.5,29.4c-1.6,1.2-4.1,1.7-6.1,1.8c-12.4,0.3-24.9,0.5-37.3,0.5c-1.5,0-3-1-4.5-1.5c0.7-1.4,1.1-3.2,2.2-4.3
	c9.4-9.8,19.7-18.9,28.2-29.4c9.5-11.9,17.7-24.9,26-37.7c5.4-8.3,10.9-16.8,14.7-25.9c4.2-10.2,6.3-21.2,9.5-31.8
	c2.8-9.2,4.4-19.3,9.4-27.2c7.8-12.5,9.6-20.3,0.3-32.3c-9.3-12-19.6-23.3-29.9-34.4c-8-8.7-9.2-18.1-4.9-28.7
	c1.9-4.6,4.4-9.2,5.2-14c0.8-4.4-0.1-9.2-0.8-13.8c-2.5-16.5,6.2-27.2,19.3-34c12.3-6.5,25.7-11.1,38.7-16c4.1-1.5,6.4-2.6,5.2-7.5
	c-2.8-10.6-1.5-12.7,8.9-15.8c0.2-0.1,0.5-0.1,0.7-0.1c14.8-3.3,14.8-3.3,13.8,12.2C238.7,162,237.3,165.9,243,164.8z"/>
<path class="st6" d="M756.1,503.2c-9.4,0-18.8,0-28.2,0c-21.3,0-42.6,0-64-0.1c-1.1,0-3.1-1.5-3.1-2.2c0.8-17.9,0.6-36,3-53.7
	c2.1-15.1,7-29.9,10.9-44.8c3.5-13.3,4-13.6,13.5-3.2c13,14.2,29.2,22.9,47.6,24.6c17.8,1.6,34.9-3.7,46.7-19.1
	c3.7-4.8,7.3-9.8,11.5-14.1c3.4-3.5,9.3-1.1,10.5,3.7c3,11.5,5.9,23.1,9,34.6c4.2,15.8,8.3,31.6,12.8,47.3c2,7,4.5,14,7.4,20.7
	c0.6,1.5,4,2.5,6.1,2.5c15.9,0.2,31.3-2.9,46.2-8.4c6.6-2.4,13-5.6,19.6-8.2c16.1-6.5,33.1-10.2,50.1-7.3c9.6,1.6,19,7,27.4,12.2
	c5.8,3.6,11.3,9.2,14.5,15.2c2.4,4.4,2.7,11.6,0.8,16.4c-3.6,9.2-8.6,18.2-14.5,26.2c-5.9,8-12.9,15.4-20.5,21.6
	c-8.9,7.3-18.6,13.9-28.9,19.1c-9.7,4.9-20.7,7.3-31,11.3c-12,4.6-24.2,8.8-35.6,14.7c-12.4,6.4-22.5,15.8-27.9,29.5
	c-2.7,6.8,0.5,11.5,4.2,16c7.4,8.7,10.2,19.6,3.5,29c-4.1,5.7-11,9.8-17.2,13.7c-15.4,9.5-32.3,16.2-50.5,16.3
	c-21.7,0.1-43.8,0-61.8-15.6c-7.4-6.4-12-14.1-11.8-24.1c0.2-13.1-0.9-26.5,1.2-39.4c1.2-7.7,6.7-15.1,11.5-21.8
	c15.8-21.8,38.1-35.2,62.3-45.5c21.9-9.3,44.9-14.6,68.5-17.8c25.2-3.4,50-8.8,73.2-19.8c5-2.4,9.8-5.1,14.4-8
	c5-3.1,4.6-6.7-0.3-10.8c-7.3-6-16.1-5.8-24.7-6.4c-13.9-1-27.8-1.6-41.7-2c-18.8-0.5-37.5-0.8-56.3-1c-19.6-0.2-39.2,0-58.8,0
	C756.1,504.2,756.1,503.7,756.1,503.2z"/>
<path class="st6" d="M375.4,493c1-14.3,0.7-28.7,3.3-42.7c3.1-17,7.7-33.9,13-50.4c8.5-26,15.6-52.7,31.4-75.8
	c5.5-8.1,10.2-16.8,15-25.3c0.6-1.1,0.1-3.5-0.7-4.6c-4.6-6.1-10.4-11.5-13.9-18.1c-8.1-15.3-4-30.2,4-44.2c3.3-5.8,7.8-11,11-16.9
	c1.1-2,0.4-5.6-0.5-8.1c-3.8-11-7.6-22-12.2-32.6c-3.8-8.9-9.3-17-12.9-26c-1.9-4.6-1.3-10.2-1.5-15.4c0-0.6,2.3-1.2,3.6-1.9
	c4.6-2.4,9-5.2,13.8-7c3.2-1.2,7.2-2,10.5-1.3c9.5,2.1,12.8,0.9,16.5-8.1c7.7-18.9,16.1-37.7,22.8-56.9c3.7-10.5,4.5-21.8,1.2-33.3
	c-1.4-4.8-0.3-11.8,2.5-15.9c5.2-7.7,10.4-8.1,19.5-3.2c8.6,4.6,16.4,12.9,13.6,20.1c-1,2.6-2,5.2-3.7,7.4c-4.7,6.1-5.4,12-2.4,19.4
	c5.7,14,9.9,28.7,15.5,42.7c1.1,2.6,5.8,5.3,9,5.3c8.9,0.2,16.9-2.8,24.9-7.2c7.5-4.1,16.4-5.4,24.6-8.2c4.6-1.6,8.1-4.1,4.9-9.8
	c-4.2-7.4,5.7-18.4,14.2-20.8c8.8-2.4,15.7,0,22.6,8.4c7.7,9.5,3.1,23.7-8.8,27.7c-9.6,3.2-18,8.3-24.3,16.5
	c-9.5,12.3-20.2,23.9-28.7,36.9c-6.4,9.9-10.3,21.6-14.9,32.7c-2.3,5.5-3.9,11.3-5.2,17.2c-0.3,1.5,1.2,4.6,2.5,5.2
	c12.5,5,20.1,15,26.2,26c5.5,10,6.6,21.2,3.3,32.4c-1.8,6.3-4.5,12.3-6.6,18.5c-0.2,0.6,0.6,1.8,1.3,2.2c4.1,2.7,8.9,4.6,12.3,8
	c5.2,5.2,9.8,11.1,14,17.2c3.4,4.9,6.4,10.2,8.5,15.7c6.3,16.5,11.9,33.3,18.2,49.7c10.6,27.8,12,56.8,12.6,86
	c0.3,14.5,0.5,29,1,43.4c0.2,5-2.3,6.5-6.6,6.8c-32.8,1.9-65.6,4.6-98.4,5.5c-29.2,0.8-58.5-0.1-87.7-0.7
	c-20.6-0.4-41.1-1.6-61.7-2.5c-5.8-0.3-5.5-5.1-6.1-9c-0.2-1.6,0.1-3.3,0.2-5C375.9,493.1,375.6,493,375.4,493z"/>
<path class="st6" d="M76.5,454c-7.4,0-14.9-0.6-22.2,0.3c-3.5,0.4-7.2,3.2-9.8,5.9c-10.9,10.9-12.8,24.3-10,38.8
	c0.8,3.9-0.8,6-4.9,5.7c-9.2-0.8-18.4-1.7-27.5-2.8c-0.8-0.1-2.2-1.8-2.1-2.6c2.6-21.2,4.7-42.5,8.3-63.6c1.5-8.8,5.6-17.4,9.6-25.5
	c1.6-3.2,6.3-5,9.6-7.3c4.6-3.2,9.2-6.2,13.8-9.4c3.3-2.2,6.4-2.8,8.1,1.7c2.5,7.1,6.8,3.9,10.8,2c2.8-1.3,5.3-3.5,8.2-4.3
	c1.1-0.3,3.5,1.9,4.3,3.5c1.5,3,1.9,6.6,3.4,9.7c5.5,12.1,14.1,21.2,26,27.4c3.7,1.9,6.8,5,9.8,7.9c0.6,0.6,0.3,3.4-0.5,4.1
	C101.2,453.6,88.6,453,76.5,454z"/>
<path class="st3" d="M283.5,161.5c5.8,0.3,11.3,0.5,16.8,0.9c0.9,0.1,1.8,0.5,2.7,0.8c-0.5,0.8-0.8,1.7-1.4,2.2
	c-15.6,13.2-23.4,31-30.1,49.6c-7,19.4-3.8,37.5,3.4,56c9.2,23.6,27.1,40.1,43.4,58.3c8.4,9.3,14.8,20.7,21.2,31.6
	c9.6,16.3,14.1,34.3,14.6,53c0.3,9.6-0.8,19.6-3.6,28.7c-4.3,14.4-6.2,28.7-5.4,43.7c1.1,20,2.9,39.9,13.2,57.4
	c6,10.2,14.8,18.8,22.1,28.3c2.1,2.8,3.6,6.2,5,9.5c0.2,0.6-1.3,2.4-2.3,2.9c-7.7,3.8-15.4,7.3-23.1,11.1
	c-9.5,4.6-17.6,10.6-22.5,20.5c-4.3,8.7-14.8,10.4-24.5,4.9c-5.5-3.2-9.9-7.1-11.3-13.7c-0.2-0.8-1.7-1.7-2.7-1.8
	c-5.3-0.5-10.7-0.1-15.8-1.2c-15.8-3.7-30.8-2.6-45.7,4.3c-5.9,2.7-13.2,5.4-19,4.2c-4.9-1-10.2-7.1-12.5-12.1
	c-6.6-14.2-17.7-19.6-32.5-19.8c-7.5-0.1-15-0.3-22.5-0.7c-0.7,0-2-2.6-1.7-2.9c9.1-12,17.8-24.3,27.6-35.7
	c13.5-15.7,25.8-31.9,34.5-50.8c8.3-18.2,12.9-36.8,11.2-57.1c-1.7-20.3-1.3-40.8-3.4-61.1c-1.7-16.6-7.4-32.3-18.3-45.5
	c-11.5-13.8-23.1-27.5-34.4-41.4c-5-6.1-10.1-12.3-14.2-19.1c-4.8-8.1-1.4-16.6,2.5-23.6c3.9-7,10.3-12.6,15.6-18.9
	c0.5-0.6,0.9-1.3,1.3-2c-1-0.3-2.3-1.2-3-0.9c-3.1,1.7-6,3.7-8.9,5.7c-0.9,0.6-1.7,1.2-2.5,1.8c-0.3-1-0.9-2-1-3
	c-1.2-23.6,3.2-29.3,23.4-40.1c10.5-5.6,22.5-8.3,33.9-12.2c1-0.3,3.5,0.6,3.5,1.1c0.2,1.6,0,4.1-1,4.8
	c-17.8,11.8-28,28.7-32.6,49.1c-3.5,15.5-0.7,29.9,8.7,42.8c0.6,0.8,1.8,1.1,2.7,1.7c-0.3-1-0.4-2.1-0.9-2.9
	c-6.2-11.1-9.5-23.2-8.2-35.6c0.9-8.3,4.7-16.6,8.3-24.4c6.8-14.9,20.1-23.4,34.2-30c14.4-6.7,29.4-12.1,44.3-17.6
	C275.9,161.2,280,161.7,283.5,161.5z"/>
<path class="st4" d="M217.3,388.3c0,10.3-0.3,19.7,0.1,29c0.4,10.7-6,18.3-12.6,24.6c-12.3,11.7-25.8,22.2-39.1,32.9
	c-6.8,5.5-12.6,4.6-18-2.4c-2.5-3.3-4.8-6.8-7.2-10.3c-5.7-8.4,0.9-14.6,4.7-20.4c11.2-17.2,24.4-33.1,30.4-53.2
	c1.1-3.6,0.5-7.6,1.2-11.3c1.7-8.8,3.8-17.5,5.8-26.2c1.1-4.7,14-12.2,18.6-10.8c0.8,0.2,1.6,1.2,1.9,2
	C207.9,357.8,212.7,373.4,217.3,388.3z"/>
<path class="st4" d="M271.9,240.7c-0.4-21.1,8.2-39.3,18.7-56.8c0.5-0.8,1.5-1.4,2.3-2.1c-0.1,0.9-0.2,1.9-0.4,2.8
	c-2.9,16.4-4.9,32.9,2.5,48.6c8,16.8,2.2,32.4-2.7,48.3c-1,3.4-1.6,6.9-2.4,10.3c-1.9-3-4-5.9-5.7-9
	C277.3,269.6,272.4,255.8,271.9,240.7z"/>
<path class="st7" d="M116.7,498.3c-5.5,0-11.1,0-16.6,0c-0.9,0-1.8-0.2-2.8-0.4c0.5-0.7,0.8-1.6,1.5-2.2
	c10.2-10.5,20.7-20.8,30.4-31.7c3.4-3.8,4.6-6.5,8.6-0.7c3.9,5.7,8.2,11.9,13.8,15.7c5.8,4,3,5.2-0.3,7.7c-4.3,3.2-8.6,6.6-13,9.7
	c-1.4,1-3.3,1.6-5,1.7c-5.5,0.2-11.1,0.1-16.7,0.1C116.7,498.2,116.7,498.3,116.7,498.3z"/>
<path class="st7" d="M217,446.7c-0.8,17.2-3.9,32.4-11,46.6c-2.7,5.3-9.6,6.8-14.4,3.5c-0.5-0.4-0.6-1.6-0.7-2.5
	c-0.5-9.9-1.1-19.8-1.2-29.8c0-2.2,1-5.1,2.6-6.6c4.9-4.8,10.1-9.3,15.5-13.5c2.1-1.6,5-2.2,7.6-3.2
	C216,443.4,216.7,445.6,217,446.7z"/>
<path class="st8" d="M939.4,479.2c13.4-0.2,26.1,2.1,37.6,9.9c12.5,8.5,15.4,17,11.3,31.5c-3.7,13.2-8.9,25.7-18.9,34.8
	c-16.6,15-34.1,28.9-56.7,34.5c-16.8,4.1-33.3,9.4-49.7,14.7c-11.6,3.7-21.6,10.3-29.4,19.9c-7.8,9.5-7.7,16.9,0.7,29.2
	c3,4.4,7.3,8.2,9.7,12.8c5.3,10.3,0,23.9-12.3,29.4c-15.2,6.8-30.5,14.2-47.6,13.1c-13-0.8-25.9-3.3-38.7-5.7
	c-19-3.5-31.5-17.3-32.6-36.5c-0.6-10-1.6-20.7,1.4-29.8c3.4-10.4,9.7-20.8,17.4-28.6c9.8-9.8,21.5-18.3,33.7-25
	c22.9-12.6,47.3-21.4,73.7-24.5c14.7-1.7,29.2-4.8,43.6-7.9c10.6-2.2,21.4-4.5,31.4-8.4c15.5-6.1,31.3-12.4,42-26.3
	c0.9-1.2-1.7-7.4-3.7-8.1c-6.5-2-13.5-3.1-20.3-3.5c-15.1-1-30.2-1.5-45.3-2.2c-2.6-0.1-5.3-0.3-7.9-0.6c-0.9-0.1-1.7-0.5-2.6-0.8
	c0.6-0.6,1.1-1.3,1.8-1.6C897.8,490.7,916.7,479.4,939.4,479.2z"/>
<path class="st8" d="M664.2,487.8c3.1-21.7,5.9-43.4,9.4-65c1.2-7.4,4.3-14.6,6.7-21.8c0.1-0.3,2.4-0.4,3.2,0.1
	c8.5,6.4,16.4,13.7,25.5,19.2c17.8,10.8,36.4,11.4,55.6,2.4c13.1-6.2,22.1-16.7,32.2-26.1c0.9-0.8,2.1-1.3,3.2-1.9
	c0.4,1.1,1,2.1,1.3,3.3c6.6,25.1,13.3,50.2,19.8,75.3c2.1,8.2,4,16.4,5.7,24.7c0.2,0.8-1.3,2.7-2.1,2.8c-4.9,0.5-9.8,0.7-14.7,0.7
	c-17.2-0.2-34.3-0.5-51.5-0.8c-25.6-0.5-51.3-1-76.9-1.5c-1.1,0-2.2,0-3.3,0c-12.5,1.2-11.4,3.4-11.9-10.9
	C665.5,488,664.9,487.9,664.2,487.8z"/>
<path class="st0" d="M381.2,470.5c-1.3-25.4,6.5-49.1,14.3-72.6c4.3-12.9,9.3-25.5,14.7-38c6-13.8,12.9-27.1,19.1-40.8
	c7.9-17.6,23.5-26.2,39.3-34.9c13.7-7.6,28.3-13.3,43.9-13.2c13.3,0.1,26.5,3.6,39.9,5c12.4,1.3,21.8,8.5,28.9,17
	c9.4,11.1,17.2,24,23.5,37.1c6.5,13.6,12,28.1,15.1,42.8c4.3,20.9,6.9,42.3,8.6,63.7c1.2,14.8-0.5,29.7-0.7,44.6
	c-0.1,5.6,0.5,11.3,0.3,17c0,1.3-1.8,3.6-2.9,3.7c-26.9,1.9-53.8,4-80.7,5c-17.7,0.7-35.5,0.2-53.2-0.3c-30.4-0.8-60.9-2-91.3-3.1
	c-2.7-0.1-5.4-0.6-7.9-0.2c-5.6,0.8-8-1.6-8.4-7C382.9,487.7,382,479.1,381.2,470.5z"/>
<path class="st2" d="M537.2,194.2c-13.6-1-25-3-36.2-2.4c-14,0.8-28,2.9-40.8,9.6c-5,2.6-9.9,5.4-14.9,7.9c-0.6,0.3-2.5-0.4-2.7-1
	c-2.3-7.8-3.9-15.9-6.8-23.5c-2.6-6.7-7.1-12.7-10-19.3c-3.5-7.7-6.4-15.7-9.1-23.8c-1-2.9-1.3-6,4.3-5.1c2.4,0.4,6.7-2.5,7.9-5
	c2.9-6,6.3-5.5,11.1-3.1c5.3,2.7,14.1,0.7,16-3.8c2.9-6.8,5.2-13.9,7.8-20.8c3.3-8.8,6.6-17.5,10.2-26.2c5-11.9,10.3-23.5,15.5-35.3
	c1.9-4.4,6.1-5.2,8.4-0.9c2.9,5.7,4.5,12,6.9,18c5.4,13.3,10.9,26.6,16.5,39.8c1.7,4.1,2.3,7.2-2.7,9.2c-1.1,0.5-1.7,2.3-2.5,3.5
	c1.4-0.1,2.9,0.1,4.2-0.3c9.7-2.9,19.4-5.6,28.9-8.9c12.5-4.4,24.7-9.6,37.1-14c2.7-1,6.3-1.2,8.9-0.2c4.7,1.7,3.1,5.3,0.8,8.2
	c-12.2,15.2-25.2,29.8-36.4,45.8c-6.3,9-10,19.9-14.2,30.3c-2.6,6.4-4,13.4-6.2,19.9C538.8,193.9,536.7,194.5,537.2,194.2z"/>
<path class="st4" d="M424.6,261.3c-1.2-16.7,4.3-30.9,16-42c16.6-15.7,36.6-23.9,59.7-22.6c13,0.7,26,2,38.8,3.8
	c11.1,1.6,29.1,21.7,30.6,32.7c0.7,5.2,3.4,10.3,3.1,15.3c-0.4,6.3-2.6,12.6-4.4,18.8c-2.6,8.7-9.8,5.9-15.4,5.2
	c-12-1.5-23.9-4.7-36-5.3c-8.4-0.4-17.4,1.1-25.3,4c-12.8,4.7-25,11-37.2,17.2c-5.4,2.7-10.1,3.5-15.3-0.1
	C429.7,281.7,424.2,273,424.6,261.3z"/>
<path class="st3" d="M607.1,57c7.6-0.1,18.6,8.4,18.7,14.4c0.2,7.7-6.9,14.8-14.7,14.7c-11.2-0.2-19.3-6.3-19.3-14.5
	C591.9,66.5,601.7,57.1,607.1,57z"/>
<path class="st3" d="M484,21.6c0.6-10.5,3.5-15.4,8.7-15c9.2,0.7,19.4,9.3,19.1,15.8c-0.3,5.2-6.6,10.4-12.2,10
	C487.4,31.6,483.5,28.9,484,21.6z"/>
<path class="st1" d="M73.9,452.5c-12.4-2.2-23.8-4.2-35.3-6.2c-1.1-0.2-2.3,0-3.4,0.1c0.8,1,1.5,2.6,2.4,2.8c9.1,1.6,7.4,5,2.4,10.3
	c-9.8,10.4-10.8,23.6-10.7,37c0,1-1.8,2.9-2.6,2.9c-5.9-0.4-11.8-0.8-17.5-2.1c-1.2-0.3-2.6-3.8-2.6-5.8c0.4-23.4,3.2-46.7,9.5-69.2
	c1.7-6,8.7-10.7,13.7-15.6c3-3,7-4.9,10.3-7.7c3.4-2.9,5.3-3,6.7,1.7c1,3.3,2.7,6.4,4.6,9.3c0.7,1.1,2.8,1.2,4.3,1.7
	c-0.1-1.3,0.2-2.7-0.3-3.7c-1.2-2.8-1-4.2,2.3-5c3.6-0.9,7.5-4,10.4-3.2c2.2,0.6,2.8,6,4.4,9.2c5.8,11.3,14.7,19.5,25.4,26
	c2.7,1.6,5.3,3.7,7.6,5.9c0.5,0.5-0.2,3.6-0.9,3.8C94.4,447.6,84,450.1,73.9,452.5z"/>
<path class="st6" d="M44.7,432.3c-4.3-1-10.6-2.3-16.6-4.1c-0.9-0.3-2-4-1.4-4.7c3-3.3,6.3-6.2,9.9-8.9c0.9-0.7,3.4-0.3,4.3,0.5
	c3.8,3.5,7.9,6.8,10.6,11.1C54.4,431,50.9,432.5,44.7,432.3z"/>
<path class="st6" d="M76.8,431.9c-2.5,1.2-5,3.6-6.5,3c-5.1-1.8-9.8-4.6-14.7-7.1c-0.5-0.3-1.3-1.1-1.3-1.1c1.9-2.3,3.5-5,5.8-6.8
	c2.4-1.7,7.5-4,7.9-3.5C71.2,420.8,73.5,425.7,76.8,431.9z"/>
<path class="st7" d="M38.5,428.8c-3-1.6-5-2.7-7-3.8c2.5-2.2,4.9-4.4,7.4-6.6c1.1,1.7,3.1,3.4,3.1,5
	C41.9,425.2,39.8,426.8,38.5,428.8z"/>
<path class="st7" d="M69.1,424.8c-1.3,1.9-2.9,5-3.2,4.9c-2.5-1-4.7-2.6-7-4c2.2-1.9,4.5-3.8,6.7-5.7
	C66.6,421.5,67.8,423,69.1,424.8z"/>
</svg>
