<?xml version="1.0" encoding="utf-8"?>
<!-- Generator: Adobe Illustrator 16.0.0, SVG Export Plug-In . SVG Version: 6.00 Build 0)  -->
<!DOCTYPE svg PUBLIC "-//W3C//DTD SVG 1.1//EN" "http://www.w3.org/Graphics/SVG/1.1/DTD/svg11.dtd">
<svg version="1.1" id="Layer_1" xmlns="http://www.w3.org/2000/svg" xmlns:xlink="http://www.w3.org/1999/xlink" x="0px" y="0px"
	 width="1000px" height="350px" viewBox="0 0 1000 350" style="enable-background:new 0 0 1000 350;" xml:space="preserve">
<style type="text/css">
<![CDATA[
	.st0{fill-rule:evenodd;clip-rule:evenodd;fill:#555555;}
	.st1{fill-rule:evenodd;clip-rule:evenodd;fill:#FFFFFF;}
	.st2{fill-rule:evenodd;clip-rule:evenodd;fill:#333333;}
]]>
</style>
<path class="st2" d="M1000,33.8V350H0V33.8c0,0,3.7,0.8,5,0.8c6.8-0.4,13.1-3.8,19.6-5.7c6.3-1.8,12-4.1,16.7-6.9
	c5-2.9,10.1-5.6,16.2-7.9c5.9-2.2,12.1-2,18.5-1c2.5,0.4,4.7,1.3,7.2,1.8c2.1,0.4,4.3,0.7,6.4,1c3.7,0.5,13.2,0.2,14.9,2
	c0.3,0.3-10.6,4.9-16.3,7c-5.2,1.9-10.7,3.7-16.8,4.8c-0.5,0.1-0.9,0.3-1.4,0.4c-2.9,0.7-5.7,1.5-8.7,2.2c-3,0.6-6,1.2-9.1,1.7
	C44.7,35.2,37,36.6,29,37.4c-1.8,0.2-3.6,0.6-5.4,0.9c0.1,0.1,0.1,0.3,0.2,0.4c0.8,0,1.7,0.1,2.5,0c5.2-0.7,10.5-1.3,15.6-2.2
	c8.1-1.4,16-2.9,24-4.4c2.5-0.5,4.7-1.4,7.2-1.8c6.8-1.3,13.2-2.9,18.9-5.2c1.2-0.5,2.3-1,3.5-1.4c3.6-1.4,7.3-2.7,10.7-4.2
	c6.2-2.6,12.2-5.4,19.3-7.4c3.5-1,7-1.4,11.1-0.9c3.8,0.5,7.4,1.2,10.7,2.1c6.3,1.7,12.4,3.7,18.6,5.5c3.1,0.9,6.3,1.7,9.5,2.4
	c3.9,0.9,7.8,1.8,11.8,2.7c2.9,0.6,5.7,1.3,8.6,1.8c3.5,0.7,7.1,1.3,10.7,1.9c2.2,0.3,4.4,0.6,6.9,0.3c-0.3-0.3-0.3-0.4-0.5-0.4
	c-3.2-0.5-6.5-1.1-9.8-1.6c-4.1-0.6-8-0.9-10.1-2.9c-0.5-0.5-2.4-1-1.5-1.2c4.6-1,10.1-2.7,15-4.1c4.7-1.4,9.6-2.6,13.3-4.8
	c1-0.6,2.2-1,3.4-1.5c5-2.1,10-4.2,15-6.3c2.3-1,4.3-2.1,6.7-3c3.1-1.2,5.9-1.6,9.3,0.1c0.7,0.3,1.4,0.7,2.2,0.8
	c4,0.8,7.8,1.8,11.2,3.1c0.8,0.3,1.9,0.5,2.8,0.7c1,0.3,2.1,0.5,2.9,1c3.9,2.1,9.5,2.8,13.1,5c0.5,0.3,2.2,1,1.7,1.3
	c-1.3,0.8-6.1,1.4-9.2,2c-7.9,1.5-15.6,3.3-23.4,5c-0.8,0.2-1.4,0.5-2.5,0.8c1.8,0.4,2.7,0,3.7-0.2c6.2-1.3,12.3-2.8,18.6-4
	c8.2-1.6,16.1-3.3,23.7-5.5c5.6-1.6,11.4-2.9,17.3-4.1c4.6-1,9.3-1.9,13.9-2.8c3.3-0.7,6.6-1.4,9.9-2.1c3.4-0.7,6.4-0.7,9.2,0.8
	c3.5,1.8,7.2,3.5,11,5.2c3.4,1.5,6.5,3.2,10.8,4.1c2.1,0.5,4.1,1.1,6.3,1.5c3.5,0.8,7.4,1.1,10.6,2.2c0.4,0.1,1.9,0.5,1.5,0.7
	c-1.5,0.7-4.2,1-6.4,1.4c-0.5,0.1-0.9,0.3-1.4,0.4c-2.9,0.7-5.7,1.5-8.7,2.2c-3,0.6-6,1.2-9.1,1.7c-7.7,1.3-15.4,2.8-23.5,3.6
	c-1.8,0.2-3.6,0.6-5.4,0.9c0.1,0.1,0.1,0.3,0.2,0.4c0.8,0,1.7,0.1,2.5,0c5.2-0.7,10.5-1.3,15.6-2.2c8.1-1.4,16-2.9,24-4.4
	c2.5-0.5,4.7-1.4,7.2-1.8c6.8-1.3,13.2-2.9,18.9-5.2c1.2-0.5,2.3-1,3.5-1.4c3.6-1.4,7.3-2.7,10.7-4.2c6.2-2.6,12.2-5.4,19.3-7.4
	c3.5-1,7-1.4,11.1-0.9c3.8,0.5,7.4,1.2,10.7,2.1c6.3,1.7,12.4,3.7,18.6,5.5c3.1,0.9,6.3,1.7,9.5,2.4c3.9,0.9,7.8,1.8,11.8,2.7
	c2.9,0.6,5.7,1.3,8.6,1.8c3.5,0.7,7.1,1.3,10.7,1.9l5.6,0.6c-7.1,2.9-14.9,5.4-23.4,7.1c-1,0.2-2,0.5-2.9,0.8
	c0.1,0.2,0.2,0.3,0.3,0.5c0.8-0.1,1.7,0,2.4-0.2c2.1-0.4,4.3-0.8,6.2-1.4c4.8-1.4,9.6-2.9,14.4-4.4c2.8-0.9,5.4-2,8.2-2.9
	c6.5-2.2,12-4.8,16.6-8c4.8-3.3,12.5-3.9,18.4-2.7c9.5,1.8,18.9,3.7,28.3,5.6c3.5,0.7,6.8,1.7,10.3,2.4c4.4,0.9,8.8,1.7,13.2,2.6
	c3.2,0.6,6.4,1.3,9.6,1.9l-0.1,0.5c-5.1,2.9-10.2,5.7-15.3,8.6c-1.2,0.7-2,1.4-3,2.2c0.3,0.1,0.5,0.2,0.8,0.3
	c0.6-0.2,1.2-0.4,1.7-0.6c5.4-2.9,10.8-5.8,16.1-8.7c7-3.8,14.1-7.7,21-11.5c2.6-1.5,5.9-1.9,9.4-1.4c2.6,0.4,5.3,1,7.5,1.8
	c9,3.5,19.7,4.3,30.4,5.1c7.6-0.8,15.5-1.1,21.7-4c2.5-1.2,5.5-2.2,9.3-1.9c3.1,0.3,6.3,0.5,9.1,1.1c8.8,1.9,17.4,4,26.1,5.9
	c8.6,1.9,17.2,3.7,25.9,5.5c0.2-0.2,0.3-0.3,0.5-0.5l-10.1-2.6c6.2-1.3,12.3-2.8,18.6-4c8.2-1.6,16.1-3.3,23.7-5.5
	c5.6-1.6,11.4-2.9,17.3-4.1c4.6-1,9.3-1.9,13.9-2.8c3.3-0.7,6.6-1.4,9.9-2.1c3.4-0.7,6.4-0.7,9.2,0.8c3.5,1.8,7.2,3.5,11,5.2
	c3.4,1.5,6.5,3.2,10.8,4.1c2.1,0.5,4.1,1.1,6.3,1.5c3.5,0.8,5.3,1,8.8,1.8l-8.1,3.7c-7.8,3-16.3,5.3-25.5,6.9c-1.1,0.2-2,0.5-3,0.7
	c0.1,0.2,0.2,0.3,0.2,0.5c0.8,0,1.7,0,2.4-0.1c2.1-0.3,4.3-0.7,6.3-1.2c5-1.3,10-2.6,14.9-3.9c2.9-0.8,5.6-1.8,8.5-2.7
	c6.7-1.9,12.6-4.5,17.5-7.4c5.2-3.2,12.9-3.5,18.7-2.1c9.2,2.1,18.4,4.3,27.6,6.5c3.4,0.8,6.6,1.9,10,2.7c4.2,1.1,8.5,2.4,12.9,3
	C990.8,20.8,1000,33.8,1000,33.8z"/>
<path class="st0" d="M341.9,128c-2.3-0.7-4.4-1.6-6.3-2.5l3.1-1c2.5-0.7,4.9-1.6,7.3-2.4c1.2-0.4,2.5-0.8,3.5-1.3
	c1.6-0.7,3.4-1.3,4.4-2.1c3-2.3,6.4-4.4,11.1-6.2c3.6-1.3,6.5-3,9.6-4.6c3-1.5,4-1.6,8.1-0.7c3.4,0.7,5.7,1.9,7.8,3.3
	c2.6,1.7,5.9,2.9,9.8,3.9c4.5,1.2,8.7,2.6,13.1,3.8c3.3,0.9,6.9,1.6,10.9,1c0.6-0.1,1.3-0.2,1.9-0.3c7.4-1.7,14.9-3.5,22.2-5.3
	c2.3-0.6,4.5-0.8,7.1-0.5c2.4,0.2,5,0.2,7.3-0.1c2.6-0.3,4,0.2,5.6,1c3.9,2.2,8,4.3,12.1,6.3c2.5,1.2,5.8,2.1,10.1,2.7
	c0.3,0,1.2,0.1,1.2,0.1c-5.5,1.7-10.8,3.5-17.2,4.4c-6.2,0.9-12.6,1.6-19,2.3c-2.6,0.3-5.3,0.3-7.9,0.5c-3.2,0.3-3.5,0.6-2.4,2.4
	c1-0.1,2.1-0.1,3.1-0.2c7.5-1.1,15-2.1,22.3-3.3c5.6-0.9,11.3-1.9,16.5-3.2c5.1-1.4,9.5-3.3,14.4-4.9c4.2-1.4,7.2-3.2,9.8-5.2
	c1.9-1.5,4.6-2.4,8.3-2.6c2.6-0.1,4.8-0.4,6.7-1.3c1.1-0.5,2.7-0.9,4.2-1.3c5.4-1.2,10.9-2.3,16.3-3.5c1.3-0.3,2.3-0.9,3.2-1.4
	c3.1-2,6.8-3.7,11.5-4.9c2.1-0.6,4.6-0.8,7-1.2c0.7,0.6,1.2,1,1.7,1.3c1.9,1.2,3.7,2.4,5.8,3.4c4,2,8.1,3.9,12.4,5.7
	c2,0.8,4.6,1.4,7,2c2.6,0.8,5.1,1.5,7.7,2.3c1.1,0.3,2.3,0.7,2.9,0.9c2.9-0.7,5.2-1.4,7.7-1.9c4.8-1,9.2-0.1,11.1,2.2
	c0.9,1.1,1.6,2.3,2.5,3.4c4,5.1,9.5,9.9,16.7,14.2c3.5,2.1,6.7,4.4,10.2,6.5c1.5,0.9,3.5,1.7,5.9,2.9c0-0.6,0.1-0.8,0-0.9
	c-8.8-4.3-15.7-9.3-22.4-14.2c-1.6-1.2-2.9-2.4-4.1-3.6c0,0,3.4-0.9,4.5-1.2c2.6-0.7,4.9-1.6,7.3-2.4c1.2-0.4,2.5-0.8,3.5-1.3
	c1.6-0.7,3.4-1.3,4.4-2.1c3-2.3,6.4-4.4,11.1-6.2c3.6-1.3,6.5-3,9.6-4.6c3-1.5,4-1.6,8.1-0.7c3.4,0.7,5.7,1.9,7.8,3.3
	c2.6,1.7,5.9,2.9,9.8,3.9c4.5,1.2,8.7,2.6,13.1,3.8c3.3,0.9,6.9,1.6,10.9,1c0.6-0.1,1.3-0.2,1.9-0.3c7.4-1.7,14.9-3.5,22.2-5.3
	c2.3-0.5,4.5-0.7,7.1-0.5c2.4,0.2,5,0.2,7.3-0.1c2.6-0.3,4,0.2,5.6,1c3.9,2.2,8,4.3,12.1,6.3c2.5,1.3,5.7,2.3,10.1,2.7
	c0.5,0,1.9,0,1.9,0c-3.6,1.6-7.9,3-12.9,4c-6.2,1.3-11.8,3.1-17.7,4.6c-3.9,1-7.9,2.1-11.8,3.1c-1.1,0.3-2.2,0.6-3.3,0.9
	c0.2,0.2,0.4,0.3,0.5,0.5c3,0.2,5.3-0.2,7.9-1.2c5.2-2.1,10.1-4.5,17.8-4.7c1,0,2.2-0.2,2.9-0.5c4.5-2.2,10.9-3.3,15.8-5.3
	c2.3-0.9,4.4-1.9,6.1-3c2.8-1.8,5.2-3.7,7.9-5.6c1.3-0.9,2.8-1.6,4.3-2.4c4.9-2.6,9.7-5.2,14.8-7.6c2-1,4.6-1.8,7.1-2.5
	c2.9-0.8,4.8-0.6,6.5,0.7c1.4,1.1,2.2,2.3,3.3,3.4c0.5,0.6,0.8,1.2,1.6,1.7c3.4,1.9,7.1,3.8,10.6,5.7c1.1,0.6,2,1.4,2.8,2.1
	c1.8,1.7,3.5,3.4,5.3,5.1c3.2-0.6,6.1-1.2,9-1.8c6.7-1.3,10.6-0.5,13.2,2.6c1,1.2,2.1,2.3,2.7,3.5c3.1,5.5,9.7,10.2,17.7,14.4
	c5.2,2.7,10.7,5.3,16.3,7.9c2.9,1.3,6.2,2,10.1,2.4c-0.5-0.3-0.8-0.6-1.2-0.7c-7.9-1.9-13.6-4.9-19.4-7.8
	c-5.6-2.8-11.1-5.7-14.9-9.2c-1.5-1.4-2.9-2.8-4.2-4.3c0,0,1.5-0.7,2.1-0.8c3.7-0.7,10.6-0.4,15.8-1c2.2-0.3,4.4-0.5,6.5-0.9
	c2.5-0.5,4.7-1.3,7.3-1.6c6.4-0.8,12.8-1.1,18.7,0.9c6.2,2.1,11.4,4.5,16.5,7.2c4.8,2.5,10.5,4.6,17,6.3c6.6,1.7,13.2,3.4,19.9,5.2
	l5.1,1.1V350H0V122.3l5.6-1.9c1.6-0.6,3.3-1.2,4.9-1.8c4.9-1.8,9.7-3.7,14.6-5.5c4.5-1.7,9.1-3.4,13.4-5.2c4.5-1.9,8.1-4.2,13.3-5.8
	c2.8-0.9,5.7-1.2,9-0.7c2.3,0.3,4.7,0.6,6.9,1c6.5,1.1,12.8,1.4,19.3-0.1c3.3-0.8,6.7-0.7,9.8,0.4c1.3,0.5,2.8,0.9,3.8,1.4
	c3.8,2.1,7.5,4.1,10.9,6.3c2.1,1.3,4.4,2.1,8,2.4c4.8,0.4,8.6,0.1,12.3-1.6c4.6-2.1,9.8-3.9,15.1-5.5c4.9-1.6,6.2-1.4,9.7,0.8
	c5.7,3.6,11.3,7.1,16.8,10.7c6.1,4,13.7,7.3,21.2,10.7c6.8,3,13.6,6.1,20.4,9.1c1.6,0.7,3.4,1.4,5.1,2.1c1.1,0.5,2.3,0.9,3.4,1.3
	c6.5,2.8,12.9,5.6,19.4,8.4c0.4,0.2,0.9,0.3,1.4,0.4c-1.5-2-4.9-3.2-8-4.4c-2.7-1.1-5.3-2.2-7.9-3.4c-2.3-1-4.7-2-6.9-2.9
	c-5.3-2.3-10.6-4.7-16-7c-3.1-1.3-6.2-2.6-9.3-3.9l3.6-0.7c6.9-1.4,12.7-3.3,17.3-6c1.9-1.1,4.1-2.1,6.5-3
	c6.3-2.4,13.2-4.7,17.2-8.1c2.9-2.4,7.3-4,11.5-5.8c2.2-1,4-1,6.7-0.1c7.6,2.4,14.9,5,19.9,8.6c1.1,0.8,2.5,1.5,3.7,2.2
	c2.3,1.3,4.3,1.5,7.8,0.8c2.9-0.6,5.6-1.3,8.6-1.7c8-1.3,12.6-0.4,16.5,3.1c0.3,0.3,0.7,0.7,1.2,0.9c4.7,2.3,9.4,4.6,14,6.9
	c6.5,3.3,4.5,3.2,10.9,6.5L341.9,128z"/>
<path class="st1" d="M217.6,347c-0.7-8-5.7-8.8-10.1-14.2c-4.5-5.4-10.3-9.1-16.7-11.9c-2.8-1.2-4.8-3.2-6.6-5.7
	c-4.5-6.5-9.3-12.7-14.1-19c-3.5-4.7-5.9-9.8-6.6-15.6c-0.3-2.3-0.3-4.7-0.9-7c-0.8-3.2-1.9-6-5.5-7.8c-6-2.9-9.7-8.7-13.8-13.7
	c-4.6-5.6-9.5-11.1-12.1-18.1c-0.7-1.8-2.6-3.2-4.3-5.1c-4.9,7.2-9.1,13.3-13.7,20.2c-6.5-6.5-14.9-9.9-17.5-18.9
	c-0.5-1.9-2-3.4-2.6-5.3c-2.1-6.1-6-9.6-12.8-10.6c-4.7-0.7-4.6-1.3-7.9-7.9l-14.8,10.4c-9,4.7-12.1,12.8-12.8,21.9
	c-0.5,6.2-3.5,10.8-7.2,15.1c-2.9,3.4-6.3,6.7-10,9.3C15.9,271.2,8.9,282.6,4,295.5l-4,1.7V350h1000v-52.8l-6.5-3.8
	c-6.5-7.4-12.8-14.9-19.1-22.6c-7.5-9.3-14.6-18.9-22.3-27.9c-2.4-2.8-6.3-4.4-9.6-6.3c-2.2-1.2-4.9-1.5-6.9-3
	c-10.4-7.6-21.7-14.1-30.3-23.8c-2.2-2.5-4.7-3.5-8-2.2c-4.3,1.7-9.1,2.6-12.9,5c-7,4.6-12.7,1.4-18.7-1.5c-1.7-0.8-3.1-2.1-4.7-2.8
	c-8.4-3.4-12.8-1.7-18.6,5.3c-4.7,5.6-10.2,10.5-15.5,15.5l-8.1,8c-5,5-9.7,10.5-15.5,14.5c-5.6,3.9-12.1,2.4-17.6-1.2
	c-2.9-1.9-5.2-4.5-7.8-6.7c-1.5-1.4-2.9-2.9-4.6-4.1c-6.6-4.3-10.2-3.2-13.6,3.8c-5.6,11.2-11,22.6-16.7,33.8
	c-3.2,6.3-7.7,12.1-9.8,18.7c-3.6,11.1-8.7,21.5-13.9,31.9c-3.2,6.3-7.7,11.9-11.7,17.7c-0.6,0.8-1.8,1.3-3.2,2.3
	c-0.5-3.5,1.7-5.1,2.8-7.1c2.7-4.5,5.8-8.7,8.4-13.3c1.3-2.3,2.9-5.1,2.8-7.6c-0.3-7,3.3-12.6,6.3-18.2l-2.7-1
	c-10.7-3.3-16.9-5.6-27.4-9.3c-8.1-2.9-16.3-5.9-23.7-10.1c-7.4-4.2-13.7-10.2-20.7-15.1c-6.1-4.2-10.4-9.9-14-16.1
	c-2.8-4.8-6.6-7.4-11.9-8c-3.7-0.4-6.9-1.3-9.6-4.1c-1.6-1.7-3.9-2.9-6-3.9c-7.8-3.6-15.6-7-23.3-10.8c-1.8-0.9-3.4-2.7-4.6-4.4
	c-4.5-6.2-9.8-11.6-16.4-15.4c-3-1.7-6.6-2.4-10.1-3.6c-1.1,1.8-1.7,3-2.5,4.1c-2.7,3.6-5.3,7.4-8.4,10.7
	c-5.7,6.1-11.6,12-17.8,17.7c-2.9,2.6-6.6,4.3-10,6.4c-3.7,2.3-7.4,4.7-11.1,7c-1.6,1.1-3.3,2.1-4.1,2.7c-4.2-2.3-7.5-4.5-11.1-6.1
	c-6.8-3.1-13.3-0.3-16,6.7c-1.4,3.5-2.3,7.2-3.6,10.7c-5.7,16-13.7,30.7-24,44.3c-5.1,6.6-9.6,13.7-14.6,20.3c-2.2,2.9-5,5.4-8.5,9
	c0-2-0.2-2.6,0-2.9c9.8-10.3,17.9-21.8,25.5-33.6l-6-3.4c-4.5-2.9-8.7-6.2-13-9.4c-2.1-1.6-4.4-3.1-6.3-4.9c-2.8-2.6-6-5-7.9-8.2
	c-5.3-9-11.4-17.2-19.7-23.9c-6.4-5.2-11.5-11.8-17.1-17.8c-5.4-5.9-7.2-6.1-14.5-2.7c-6,2.8-10.2,7.4-13.9,12.6
	c-4.6,6.5-10.5,11.2-17.4,15.1c-8,4.6-15.5,10-23.4,14.9c-5.9,3.7-12.2,6.2-19.4,3.7c-1.2-0.4-2.4-0.7-3.4-1.3
	c-13.2-6.7-26.5-13.4-39.6-20.3c-4.1-2.1-7.9-2.9-12.6-2.1c-4.2,0.7-8.9,0.6-13.1-0.3c-4.6-1-7.2,0.7-10,4
	c-7,8.3-14.2,16.5-21.6,24.5c-4.5,4.8-11.9,5.8-18,10.6c-0.3,0.2,0.2,1.6,0.2,1.6c1.5,3.8,3.3,7.6,5.6,10.9
	c4.9,6.9,10,13.7,17.2,18.7c6.8,4.7,13.5,9.7,20.2,14.5c4.2,3,8.5,5.7,12.5,8.8c1.8,1.4,3.9,3.2,4.4,5.2L217.6,347z"/>
</svg>
