<?xml version="1.0" encoding="utf-8"?>
<!DOCTYPE svg PUBLIC "-//W3C//DTD SVG 1.1//EN" "http://www.w3.org/Graphics/SVG/1.1/DTD/svg11.dtd">
<svg version="1.1" id="KingCrown" xmlns="http://www.w3.org/2000/svg" width="1000" height="1000" viewBox="0 -100 1000 1000">
<style type="text/css">
<![CDATA[
	.st0{fill:#E6AC27;}
	.st1{enable-background:new    ;}
	.st2{fill:#BF4D28;}
]]>
</style>
<path d="M461.8,0c38.6,0,49.7,14.9,69,45.9c23.5,37.8,11.9,54.6-14.6,84.7c-48,54.8,17.3,144.8,48.8,197.5
	c46.9,78.3,100.9,42,153.4-14.1c11.5-12.2,63-61.2,55-79.4c-13.6-31-28.1-58.5,1.5-87.4c41.9-41,117-10.6,124.7,46.5
	c4.4,32.3-23.9,45.5-45.8,61.8C829,274,827.5,351.7,823,379.9c-11.5,72.6-23.8,143.6-32.2,216.7c-4.4,38.8-11.3,78.2-11.7,117.4
	c-0.5,47-8.1,51.4-54.8,36.9c-73-22.6-166.5-15.4-241.5-8.2c-79.8,7.5-161.4,18.8-237.3,45.9c-34.2,12.2-52.9,23.8-66.2-16.7
	c-11.4-34.9-22.5-69.9-33.2-105c-7.4-24.2-71.8-200-34.9-195.5c17.8,2.2,87.8,19.4,97.1-6.6c16.3-45,9-39.5,59.1-35.5
	c97.8,7.8,98.4-64,121-140.9c11.4-38.5,25.3-75.8,26.7-116.4c1.2-34-21.8-32.6-33-62.1c-9.3-24.5-1.5-59.7,13.1-80.8
	C400.2,22.3,445.4-0.5,461.8,0C470.2,0.2,461.8,0.1,461.8,0z"/>
<path class="st0" d="M124.2,493.1c24.8,4.9,48,8,73.1,9.9c26,2,22.8-46.3,30.6-61.4c7.8-15.4,104.6,36.4,126.2,11.7
	c29-33.1,61.6-303.7,96.3-298.7c33.8,4.9,46.8,78.2,61,106.9c13.7,27.8,58.5,151.6,93,155.7c33.8,3.9,104.9-75.7,126.4-99.8
	c11.5-12.9,37.4-60.3,52.7-64.6c5.9-1.7,48.7,7.4,49.5,14.4c2.2,18.2-11.1,42.2-15,60c-6.8,31.6-11.8,63.6-18.4,95.3
	c-13.2,63.5-17.9,130.5-24.6,195c-1.8,17.2-1.4,125.4-23.8,120.2c-63.8-14.9-126.3-14.1-191.4-14.8c-62.1-0.7-124.9,7.1-186.3,15.4
	c-31,4.2-61.6,10-92.2,16.1c-17.2,3.4-55.7,21.1-72.4,15.6c-27.8-9.4-47.3-114-55-139.4C147.7,609.9,102.9,491.9,124.2,493.1
	C138.7,496,113.2,492.4,124.2,493.1z"/>
<path class="st2" d="M451.8,140.6c-78.4-13.7-59.6-99,6.9-118.6c83.8-24.8,92.6,118.5-4.9,118.5
	C452.9,140.4,450.6,140.3,451.8,140.6z"/>
<path class="st2" d="M820.7,244.7c-79.4-25.6-49.7-87.8,3.5-97.9c71.4-13.6,93.5,105.2,0.1,98.2C823.4,244.9,821.6,245,820.7,244.7z
	"/>
<path d="M241.4,738.4c-28.2-0.5-25.5-43.9-5.8-43.2C267.2,696.3,277.1,734.4,241.4,738.4C229.9,738.1,257.4,736.5,241.4,738.4z"/>
<path d="M318,718.4c-28.2-0.2-22.9-42.2,3.4-41.4c32.3,0.8,27.8,41-3.3,40.8C306.8,717.6,332.9,718.5,318,718.4"/>
<path d="M534.3,665.3c2.2,9.6-7.5,23.8-25.4,30.3c-35.8,13-33.6-45.3,5.2-44.1C521,651,533,659.4,534.3,665.3z"/>
<path d="M396.5,702.1c-15.1-18.2-6.5-39.8,15.1-40.2c31.9-0.6,24.1,43.6-5.1,44C396.9,706,396.5,702.1,396.5,702.1z"/>
<path d="M586.6,678.6c-0.4-21.8,22.7-33.4,38.4-16.2C642.5,681.4,587.3,711.8,586.6,678.6C586.4,666,586.8,687.9,586.6,678.6z"/>
<path d="M713.7,671.5c-0.3,15.9-34.5,31-31.9,15.7C684.7,669.6,699.6,651.9,713.7,671.5C713.5,682.2,712.6,670,713.7,671.5z"/>
<path class="st1" d="M773,424.2c-4.6-24.5,5-85,22.9-103.8C798.8,330.4,779.8,423.8,773,424.2C772.4,420.9,774.1,424.1,773,424.2z"
	/>
<path class="st1" d="M519,318.6c-9.4-9-60.3-95.9-48.6-101.1C478.8,213.7,521.4,316.4,519,318.6C516.6,316.3,519.8,317.8,519,318.6z
	"/>
<path class="st1" d="M763.5,375.9c-7.1-9.7,0.4-27.2,10.1-32.4C775.4,355.5,771.2,366.3,763.5,375.9
	C762.2,373.9,765.3,373.7,763.5,375.9z"/>
<path class="st1" d="M469.4,244.6c4.6,10.4,9.1,20.8,13.8,31.2C475.2,273,457.3,250.3,469.4,244.6
	C473.7,254.4,468.3,245.1,469.4,244.6z"/>
<path class="st1" d="M423.1,87c3.4-15.7,25.5-55.8,46.7-43.7c8.9,5,6.9,20.3-3.3,21.4c-25.7,2.7-29.8,10.9-35.5,33.8
	c-2.6-3.2-8-9.7-8-9.7S423,87.4,423.1,87z"/>
<path class="st1" d="M825.2,163.8c14.1-0.2,17.4,23.7,4.6,20.2c-21.8-6.1-16.9,3.2-30.2,16.3C791.7,183.6,807,164.2,825.2,163.8
	C833.2,163.8,809.7,164.1,825.2,163.8z"/>
<path class="st2" d="M504.9,660c0,0,22.1-7.8,20.6,10.1c-1.4,17.9-22.8,25.4-29.4,12.4C488,666.4,504.9,660,504.9,660z"/>
<path class="st2" d="M606.7,662.8c0,0,16.2-5.7,15.2,7.4c-1,13.2-16.8,18.7-21.6,9.1C594.3,667.5,606.7,662.8,606.7,662.8z"/>
<path class="st2" d="M405.7,670.3c0,0,17.6-6.2,16.4,8.1c-1.2,14.2-18.2,20.2-23.4,9.8C392.2,675.3,405.7,670.3,405.7,670.3z"/>
</svg>
