<?xml version="1.0" encoding="utf-8"?>
<!DOCTYPE svg PUBLIC "-//W3C//DTD SVG 1.1//EN" "http://www.w3.org/Graphics/SVG/1.1/DTD/svg11.dtd">
<svg version="1.1" xmlns="http://www.w3.org/2000/svg" width="1000" height="1000" viewBox="0 0 1000 1000">
<style type="text/css">
<![CDATA[
	.st0{opacity:0.04;}
]]>
</style>
<g class="st0">
	<path d="M461.8,100c38.6,0,49.7,14.9,69,45.9c23.5,37.8,11.9,54.6-14.6,84.7c-48,54.8,17.3,144.8,48.8,197.5
		c46.9,78.3,100.9,42,153.4-14.1c11.5-12.2,63-61.2,55-79.4c-13.6-31-28.1-58.5,1.5-87.4c41.9-41,117-10.6,124.7,46.5
		c4.4,32.3-23.9,45.5-45.8,61.8C829,374,827.5,451.7,823,479.9c-11.5,72.6-23.8,143.6-32.2,216.7c-4.4,38.8-11.3,78.2-11.7,117.4
		c-0.5,47-8.1,51.4-54.8,36.9c-73-22.6-166.5-15.4-241.5-8.2c-79.8,7.5-161.4,18.8-237.3,45.9c-34.2,12.2-52.9,23.8-66.2-16.7
		c-11.4-34.9-22.5-69.9-33.2-105c-7.4-24.2-71.8-200-34.9-195.5c17.8,2.2,87.8,19.4,97.1-6.6c16.3-45,9-39.5,59.1-35.5
		c97.8,7.8,98.4-64,121-140.9c11.4-38.5,25.3-75.8,26.7-116.4c1.2-34-21.8-32.6-33-62.1c-9.3-24.5-1.5-59.7,13.1-80.8
		C400.2,122.3,445.4,99.5,461.8,100C470.2,100.2,461.8,100.1,461.8,100z"/>
</g>
</svg>
