<?xml version="1.0" encoding="utf-8"?>
<!DOCTYPE svg PUBLIC "-//W3C//DTD SVG 1.1//EN" "http://www.w3.org/Graphics/SVG/1.1/DTD/svg11.dtd">
<svg xmlns="http://www.w3.org/2000/svg" width="1000" height="50" viewBox="0 0 1000 50">
<path d="M1000,0v35.9c0,0-57.3,7-79.2,10.6c-8.2,1.4-18.4-1.4-25.2-5c-11.6-6-25.9,5.7-38.2,3c-9.6-2-21.1-2.9-30.2-5.8
	c-10.9-3.4-20.7-2.3-32.2-2.8c-12.7-0.5-25.4,4.7-37.9,4.4c-7.9-0.2-20.1,1.4-27.5,3.2c-9.8,2.3-21.8,3.2-32,4.4
	c-5.3,0.6-10.5,1.5-15.8,1.9c-6.4,0.6-12.5-1.2-18.6-0.9c-8.6,0.4-16.7-5.1-25-5.7c-7.2-0.5-16.6-3.7-23.6-5.5
	c-9.6-2.3-27.8-1.2-37,1.6c-5.1,1.5-11.1,2.1-16.4,3.1c-2.7,0.5-6.2,1.1-8.9,1.8c-3.9,0.9-8.8-1.4-12.5-0.3
	c-5.7-1.5-12.3-1.2-18.3-1.8c-5.3-0.6-11.7-1.9-17-2C493.2,40.2,478,39,467.1,37c-23.6-4.3-51.8-0.7-75.6,1.3
	c-11.7,1-23.8,0.6-35.4,1.9c-13.4,1.5-28.4,2.9-42,3.1c-8.9,0.1-21.5,0.9-29.9,2.9c-11.8,2.9-18.4-0.7-29.3-2.9
	c-10.3-2.1-20.7-5.1-31.1-6.9c-10.7-1.9-22.7-6-33.8-1.7c-3.4,1.3-12.2,3.4-15.9,3.4c-6.8,0.1-12.2-2.1-18.8-2.7
	c-11.4-0.9-19.6,1-31,2.3c-4.3,0.5-9,0.7-13.1,1.7c-6.3,1.6-9.4-1.3-14.9-2.5c-9.1-1.9-20.8-8-31-6.3c-11.6,1.8-24.1,0.1-35.5,2.5
	c-2.8,0.6-9.1,0.9-12.2,0.8C12.3,34.1,0,35.9,0,35.9V0H1000z"/>
<path fill="#0b476a" d="M1000,0v25.4c0,0-51.9,6.4-75.3,8.3c-10.3,0.8-19.8,2.7-28.5-2.3c-11.1-6.5-18.3-0.7-28.8,3.4
	c-8.7,3.3-21.2-1.6-29.9-3.1c-9.7-1.7-20.5-7-30.2-7.1c-12-0.1-26,3.1-37.8,4.7c-11.7,1.6-23.5,2.6-35.1,4.2
	c-12.6,1.8-26.1,1.7-38.4,4.4c-5.7,1.2-11.9,1.6-17.8,2c-6.9,0.5-12.4-0.8-19.1-0.9c-8.6-0.2-17-5.3-25.5-6c-10-0.9-19.4-6-29.4-7.2
	c-6.2-0.8-13.8,2.9-19.8,3.4c-3.7,0.3-9.1,1.1-12.3,2.3c-7.1,2.6-24.7,4.2-32.2,3.2c-20-2.8-41-2.8-61-5.6c-6-0.9-12.5-1-18.3-2.3
	c-3.8-0.8-10.1-2.5-13.9-1.8c-5.4,1-12.2-0.1-18,0.9c-6,1-15.1,2.3-21.2,2.1c-23.8-0.6-48.8,3.8-72.6,5.1c-23.7,1.3-52.8,7-75.7,2.1
	c-9.5-2-19.5-4-28.7-6.8c-7.3-2.2-26.1-9.5-33.8-5.3c-8.9,4.7-24.7,6.3-34.8,4.5c-3.3-0.6-8.9-1.1-11.7-2.3
	c-5.8-2.5-15.6,1.8-21.7,1.9c-7.2,0.1-15.4,2.1-22.5,2.9C98.9,31,86,24,81.4,20.9c-0.9-0.2,0.7,0.5,0,0c-4.3-1.1-13.1,0.4-17.4,1
	c-6.1,0.8-12.5,0.5-18.6,1C33.7,23.6,0,25.4,0,25.4V0H1000z"/>
</svg>
