<?xml version="1.0" encoding="utf-8"?>
<!DOCTYPE svg PUBLIC "-//W3C//DTD SVG 1.1//EN" "http://www.w3.org/Graphics/SVG/1.1/DTD/svg11.dtd">
<svg version="1.1" id="KingCrown" xmlns="http://www.w3.org/2000/svg" width="1000" height="1000" viewBox="0 0 1000 1000">
<style type="text/css">
<![CDATA[
	.black{fill-rule:evenodd;clip-rule:evenodd;}
	.shadow{fill-rule:evenodd;clip-rule:evenodd;opacity:0.5;}
	.gold{fill-rule:evenodd;clip-rule:evenodd;fill:#E6AC27;}
	.red{fill-rule:evenodd;clip-rule:evenodd;fill:#BF4D28;}
	.pink {fill:#BF4DFF; }
]]>
</style>
<path class="black" d="M452.2,0c48.3,0,62.1,18.6,86.2,57.4c29.4,47.2,14.9,68.2-18.2,105.9c-60,68.5,21.6,181,61,246.9
	c58.6,97.9,126.1,52.5,191.7-17.6c14.4-15.3,78.7-76.5,68.7-99.3c-17-38.7-35.1-73.1,1.9-109.2c52.4-51.2,146.2-13.2,155.9,58.1
	c5.5,40.4-29.9,56.9-57.3,77.3c-30.9,23-32.8,120.1-38.4,155.3c-14.4,90.7-29.8,179.5-40.2,270.9c-5.5,48.5-14.1,97.8-14.6,146.7
	c-0.6,58.7-10.1,64.3-68.5,46.1c-91.2-28.3-208.1-19.2-301.8-10.3c-99.8,9.4-201.8,23.5-296.6,57.4c-42.7,15.3-66.1,29.7-82.7-20.9
	c-14.3-43.6-28.1-87.4-41.5-131.2C48.6,803.2-32,583.5,14.2,589.1c22.3,2.7,109.7,24.2,121.4-8.3c20.4-56.3,11.3-49.4,73.9-44.4
	c122.3,9.8,123-80,151.3-176.1c14.2-48.1,31.6-94.8,33.4-145.5c1.5-42.5-27.2-40.8-41.2-77.6c-11.6-30.6-1.9-74.6,16.4-101
	C375.3,27.9,431.8-0.6,452.2,0C462.8,0.3,452.2,0.1,452.2,0z"/>
<path class="gold" d="M30.3,616.3c31,6.1,60,10,91.4,12.4c32.5,2.5,28.5-57.9,38.2-76.8c9.8-19.2,130.7,45.5,157.7,14.6
	c36.3-41.4,77-379.6,120.4-373.3c42.3,6.1,58.5,97.8,76.2,133.6c17.1,34.7,73.1,189.5,116.2,194.6c42.2,4.9,131.1-94.6,158-124.7
	c14.4-16.1,46.8-75.4,65.9-80.8c7.4-2.1,60.9,9.3,61.9,18c2.7,22.8-13.9,52.8-18.7,75c-8.5,39.5-14.8,79.5-23,119.1
	c-16.5,79.4-22.4,163.1-30.7,243.7c-2.2,21.5-1.8,156.7-29.8,150.2c-79.7-18.6-157.9-17.6-239.3-18.5
	c-77.6-0.9-156.1,8.9-232.9,19.2c-38.7,5.2-77,12.5-115.2,20.1c-21.5,4.3-69.6,26.4-90.5,19.5C101.4,950.5,77,819.7,67.4,787.9
	C59.7,762.3,3.7,614.8,30.3,616.3C48.4,619.9,16.5,615.5,30.3,616.3z"/>
<path class="red" d="M439.7,175.7c-98-17.1-74.5-123.7,8.6-148.2c104.8-31,115.7,148.1-6.1,148.1
	C441.1,175.5,438.2,175.4,439.7,175.7z"/>
<path class="red" d="M900.9,305.8c-99.2-32-62.1-109.7,4.4-122.4c89.2-17,116.9,131.5,0.1,122.8C904.2,306.1,902,306.2,900.9,305.8z
	"/>
<path class="black" d="M176.8,922.9c-35.2-0.6-31.9-54.9-7.3-54C209,870.3,221.4,917.9,176.8,922.9
	C162.4,922.6,196.8,920.6,176.8,922.9z"/>
<path class="black" d="M272.5,897.9c-35.3-0.3-28.6-52.7,4.2-51.8c40.4,1,34.8,51.3-4.1,51C258.5,897,291.1,898.1,272.5,897.9"/>
<path class="black" d="M542.9,831.6c2.7,12-9.4,29.8-31.8,37.9c-44.8,16.2-42-56.6,6.5-55.1C526.2,813.7,541.2,824.2,542.9,831.6z"/>
<path class="black" d="M370.6,877.6c-18.9-22.8-8.1-49.8,18.9-50.2c39.9-0.7,30.1,54.5-6.4,55C371.1,882.5,370.6,877.6,370.6,877.6z"
	/>
<path class="black" d="M608.3,848.2c-0.5-27.2,28.4-41.7,48-20.3C678.1,851.7,609.1,889.7,608.3,848.2
	C608,832.5,608.5,859.8,608.3,848.2z"/>
<path class="black" d="M767.1,839.3c-0.4,19.9-43.1,38.7-39.9,19.6C730.9,837,749.5,814.8,767.1,839.3
	C766.9,852.7,765.8,837.4,767.1,839.3z"/>
<path class="shadow" d="M841.3,530.2c-5.8-30.6,6.2-106.3,28.6-129.7C873.5,413,849.7,529.7,841.3,530.2
	C840.5,526.1,842.6,530.1,841.3,530.2z"/>
<path class="shadow" d="M523.7,398.2C512,387,448.3,278.3,463,271.8C473.5,267.1,526.8,395.5,523.7,398.2
	C520.7,395.3,524.8,397.2,523.7,398.2z"/>
<path class="shadow" d="M829.4,469.8c-8.9-12.1,0.5-34,12.6-40.5C844.2,444.4,839,457.9,829.4,469.8
	C827.7,467.4,831.6,467.1,829.4,469.8z"/>
<path class="shadow" d="M461.7,305.7c5.7,13,11.4,26,17.2,39C469,341.2,446.6,312.9,461.7,305.7C467.1,318,460.4,306.3,461.7,305.7z"/>
<path class="shadow" d="M403.9,108.7c4.3-19.6,31.9-69.7,58.4-54.6c11.1,6.3,8.6,25.4-4.1,26.7c-32.1,3.4-37.3,13.6-44.4,42.2
	c-3.3-4-10-12.1-10-12.1S403.8,109.2,403.9,108.7z"/>
<path class="shadow" d="M906.5,204.8c17.6-0.2,21.8,29.6,5.7,25.2c-27.3-7.6-21.1,4-37.8,20.4C864.6,229.5,883.8,205.2,906.5,204.8
	C916.5,204.7,887.1,205.1,906.5,204.8z"/>
<path class="red" d="M506.1,825c0,0,27.6-9.7,25.8,12.6c-1.8,22.4-28.5,31.7-36.7,15.5C485,833,506.1,825,506.1,825z"/>
<path class="red" d="M633.4,828.4c0,0,20.3-7.1,19,9.3c-1.3,16.5-21,23.4-27,11.4C617.9,834.3,633.4,828.4,633.4,828.4z"/>
<path class="red" d="M382.1,837.8c0,0,22-7.7,20.5,10.1c-1.5,17.8-22.7,25.3-29.2,12.3C365.3,844.1,382.1,837.8,382.1,837.8z"/>
</svg>
