<?xml version="1.0" encoding="utf-8"?>
<!DOCTYPE svg PUBLIC "-//W3C//DTD SVG 1.1//EN" "http://www.w3.org/Graphics/SVG/1.1/DTD/svg11.dtd">
<svg version="1.1" id="Divider" xmlns="http://www.w3.org/2000/svg" xmlns:xlink="http://www.w3.org/1999/xlink" x="0px" y="0px"
	 width="1000px" height="100px" viewBox="0 0 1000 100" style="enable-background:new 0 0 1000 100;" xml:space="preserve">
<style type="text/css">
<![CDATA[
	.st0{fill-rule:evenodd;clip-rule:evenodd;}
	.st1{fill-rule:evenodd;clip-rule:evenodd;fill:#FFFFFF;}
]]>
</style>
<path class="st0" d="M1000,85.9c0,0-57.3,7-79.2,10.6c-8.2,1.4-18.4-1.4-25.2-4.9c-11.6-5.9-25.9,5.6-38.2,3
	c-9.6-2-21.1-2.9-30.2-5.7c-10.9-3.4-20.7-2.3-32.2-2.8c-12.7-0.5-25.4,4.6-37.9,4.3c-7.9-0.2-20.1,1.4-27.5,3.2
	c-9.8,2.3-21.8,3.2-32,4.3c-5.3,0.6-10.5,1.5-15.8,1.9c-6.4,0.6-12.5-1.2-18.6-0.9c-8.6,0.4-16.7-5-25-5.6
	c-7.2-0.5-16.6-3.7-23.6-5.4c-9.6-2.3-27.8-1.2-37,1.6c-5.1,1.5-11.1,2.1-16.4,3.1c-2.7,0.5-6.2,1.1-8.9,1.8
	c-3.9,0.9-8.8-1.4-12.5-0.3c-5.7-1.5-12.3-1.2-18.3-1.8c-5.3-0.6-11.7-1.9-17-2c-11.3-0.1-26.5-1.2-37.4-3.2
	c-23.6-4.3-51.8-0.7-75.6,1.3c-11.7,1-23.8,0.6-35.4,1.9c-13.4,1.5-28.4,2.9-42,3.1c-8.9,0.1-21.5,0.9-29.9,2.9
	c-11.8,2.9-18.4-0.7-29.3-2.9c-10.3-2.1-20.7-5-31.1-6.8c-10.7-1.9-22.7-5.9-33.8-1.7c-3.4,1.3-12.2,3.4-15.9,3.4
	c-6.8,0.1-12.2-2.1-18.8-2.7c-11.4-0.9-19.6,1-31,2.3c-4.3,0.5-9,0.7-13.1,1.7c-6.3,1.6-9.4-1.3-14.9-2.5c-9.1-1.9-20.8-7.9-31-6.2
	c-11.6,1.8-24.1,0.1-35.5,2.5c-2.8,0.6-9.1,0.9-12.2,0.8C12.3,84.2,0,85.9,0,85.9V16.9c0,0,17.9,2.2,24.5,3.8
	c12.7,3.1,20.9-3,32.7-4.6c7.5-1,14.7-4,22-5.3c10-1.8,21.6-4.3,30.9-7.6c8.4-3,18.2-4.6,27-1.9c10.4,3.2,23,2.8,33.6,5.8
	c19.7,5.6,45.3,5.9,65.4,1.3c10.8-2.5,23.1-1.4,33.7-3.8c11-2.5,26.6-2.3,38.3-2.4c9.4-0.1,19.3-0.9,28.5-1.9
	c12.1-1.3,21.3,3.8,32.7,5.2c5.8,0.7,11.2,1.5,17,1.9c4.7,0.3,13.2,1.4,17.5,0.8c3.6,3.3,21.3,5.9,26.9,6c5.4,0.2,10.4,1.2,15.9,1
	c5.5-0.2,11.1-1.4,16.6-1.5c13.7-0.1,27.2-6.1,41-7c10.4-0.7,20.7-5.1,31.2-5.1c11.6-0.1,25.5,1.8,36.7,4.6
	c22.2,5.5,44.7,6.4,67.5,3.5c7.2-0.9,20,3.5,26.7,5.9c9.9,3.5,23.3,5.6,33.9,4.1c25.5-3.7,52.3-4,78.2-5.8
	c27.1-1.9,53.3-6.2,80.2-9.1c7.9-0.9,21.3,2.6,28.8,4.6c11.5,3,23.6,5.3,35.3,8.1c10.8,2.6,17.5,0.5,28.3-0.7
	c4.8-0.5,7.5-3.5,11.8-4.5c5.1,0.7,10.6,5.5,15.6,7.1c7,2.2,21.9-2.3,21.9-2.3"/>
<path class="st1" d="M1000,76c0,0-51.9,6.4-75.3,8.3c-10.3,0.8-19.8,2.7-28.5-2.3c-11.1-6.5-18.3-0.7-28.8,3.4
	c-8.7,3.3-21.2-1.6-29.9-3.1c-9.7-1.7-20.5-7-30.2-7.1c-12-0.1-26,3.1-37.8,4.7c-11.7,1.6-23.5,2.6-35.1,4.2
	c-12.6,1.8-26.1,1.7-38.4,4.4c-5.7,1.2-11.9,1.6-17.8,2c-6.9,0.5-12.4-0.8-19.1-0.9c-8.6-0.2-17-5.3-25.5-6c-10-0.9-19.4-6-29.4-7.2
	c-6.2-0.8-13.8,2.9-19.8,3.4c-3.7,0.3-9.1,1.1-12.3,2.3c-7.1,2.6-24.7,4.2-32.2,3.2c-20-2.8-41-2.8-61-5.6c-6-0.9-12.5-1-18.3-2.3
	c-3.8-0.8-10.1-2.5-13.9-1.8c-5.4,1-12.2-0.1-18,0.9c-6,1-15.1,2.3-21.2,2.1c-23.8-0.6-48.8,3.8-72.6,5.1c-23.7,1.3-52.8,7-75.7,2.1
	c-9.5-2-19.5-4-28.7-6.8c-7.3-2.2-26.1-9.5-33.8-5.3c-8.9,4.7-24.7,6.3-34.8,4.5c-3.3-0.6-8.9-1.1-11.7-2.3
	c-5.8-2.5-15.6,1.8-21.7,1.9c-7.2,0.1-15.4,2.1-22.5,2.9c-7.1,0.9-20-6.1-24.6-9.2c-0.9-0.2,0.7,0.5,0,0c-4.3-1.1-13.1,0.4-17.4,1
	c-6.1,0.8-12.5,0.5-18.6,1C33.7,74.2,0,76,0,76V27.4c0,0,27.2,6.6,38.6,3.3c8.7-2.5,17.9-3.9,26.5-6.3c8.1-2.3,17-5.8,25.6-6.9
	c10-1.3,20.5-4.8,30.4-6.7c11.8-2.2,29.2,0.3,40.4,3.4c8.3,2.2,23.6,5.3,32.3,5.3c5.6,0,11.9,2.2,17.5,2.7
	c5.2,0.5,11.9-1.6,16.7-2.7c11.7-2.7,26.4-1.4,37.5-4.9c11-3.4,26,0,37.6-2.7c5.5-1.2,12.1-0.8,17.8-1.2c5.8-0.4,12.6-1.8,18.5-1.4
	c11.1,0.7,20.8,2.2,31.4,5.3c3.1,0.9,8.8,4.6,12.6,3.4c5.3-1.7,13.3-1.6,19-0.6c9.3,1.7,19,6.7,28.8,6.7c5.2,0,10.1,1,15.4,1
	c4.4,0,10.8-2.2,15.1-3c11.2-2,22.8-3.4,34.1-5.1c12.8-2,24.6-5,37.8-5c12.4-0.1,24.1,1.2,36,3.3c9,1.6,24,1.3,31.8,5
	c11.1,5.3,19.5-2.2,30.9-0.6c19.4,2.7,41.2,4.9,58.6,12.2c3.1,1.3,10.7-0.8,13.5-1.6c5.8-1.6,12.9-1.4,18.6-3.2
	c5.2-1.7,12.1-0.4,17.5-1.3c7.8-1.2,16.3-0.9,24.2-1.6c11.8-1.1,23.7-1.9,35.6-3.1c11.7-1.1,24.5-1.2,35.9-3.6
	c22.2-4.8,42.8-1.8,64,3.7c4.4,3.8,18.3,5.9,24.8,7.6c9.5,2.6,17.6-1.3,27-3.5c11-2.6,13.3-0.7,22.9,3c4.8,1.8,25.3-1,25.3-1"/>
</svg>
