<?xml version="1.0" encoding="utf-8"?>
<!-- Generator: Adobe Illustrator 16.0.0, SVG Export Plug-In . SVG Version: 6.00 Build 0)  -->
<!DOCTYPE svg PUBLIC "-//W3C//DTD SVG 1.1//EN" "http://www.w3.org/Graphics/SVG/1.1/DTD/svg11.dtd">
<svg version="1.1" id="Layer_1" xmlns="http://www.w3.org/2000/svg" xmlns:xlink="http://www.w3.org/1999/xlink" x="0px" y="0px"
	 width="1000px" height="323px" viewBox="0 0 1000 323" style="enable-background:new 0 0 1000 323;" xml:space="preserve">
<style type="text/css">
<![CDATA[
	.st0{fill-rule:evenodd;clip-rule:evenodd;}
]]>
</style>
<path class="st0" d="M57.7,286.1c-0.7-3-1.3-5.6-2.7-7.8c-0.1-2.9-0.5-5.7,0.1-8.5c0.6-1.4,1.9-1.9,3.1-2.5c3.3-1.5,6.4-3.5,9.4-5.5
	c2.5-1.6,5.2-2.8,8.4-4.5c0.6-0.6,1.6-1.7,2.6-2.8c1.4-1.4,2.8-2.7,4.6-3.8c2-1.2,3.6-2.9,5.4-4.3c2.8-2.2,5.7-4.5,8.6-6.7
	c0.8-0.6,1.7-1.1,2.3-1.9c1.3-1.5,3-2.5,4.6-3.7c2.9-2,5.5-4.2,8.2-6.4c1.5-1.3,2.9-2.7,4.8-3.5c2.3-0.9,3.9-2.6,4.8-4.8
	c1-2.3,2.5-3.7,4.6-5c3.5-2.2,6.8-4.6,10.2-7c0.3-0.2,0.4-0.5,0.6-0.8c-0.7-4.7-2.2-9.2-4.6-13.3c-0.2-0.4-0.4-0.9-0.7-1.3
	c-0.7-0.9-1.6-1.7-2.2-2.7s-0.7-2.2-1.1-3.5c0.3-0.9,0.8-2,1-3.1c0.3-1.5-0.4-2.6-2-3c-1.8,0.1-3.6,0.4-5.1,1.4
	c-3.6,2.3-7.6,3.2-11.6,3.9c-1.7,0.3-3.2,0.8-3.9,1.5c-1.2,1.1-1.2,1.9-1.3,2.8c-0.2,1.9-1.3,3.3-2.9,3.7c-3.1,0.7-5.5,3.1-8.7,3.4
	c-0.5,0.1-0.9,0.4-1.3,0.6c-2.3,1.3-4.7,2.4-6.8,4.1c-2.3,1.9-5.2,2.7-7.5,4.6c-2.3,1.9-4.7,3.6-7.1,5.3c-0.7,0.5-1.4,0.9-2.1,1.3
	c-1.7,0.8-3.2,1.8-4.4,3.1c-0.3,0.4-0.7,0.8-1.1,1c-3.1,1.9-5.8,4.4-8,7.3c-0.6,0.8-1.5,1.3-2.3,1.9c-2.5,1.8-5.1,3.5-7.1,6
	c-1.4,1.8-3.4,3.1-5.1,4.7c-1.2,1.1-2,2.6-3.6,3.4c-0.4,0.2-0.8,0.6-1.1,1c-3.8,5.2-8.3,9.9-12.5,14.7c-0.4,0.5-0.8,1.1-1,1.7
	c-0.6,2.4-2.1,4.1-3.7,5.8c-1.1,1.2-2.2,2.4-2.6,4.1c-0.2,1.1-1,2.1-1.7,3c-2.2,2.5-3.9,5.3-5.4,8.2c-0.2,0.4-0.7,0.7-0.9,1
	c-1.3,0.7-2.4,0.2-3.6,0.4c-1.1,0.2-2.2,0.6-3.3,0.8c-1.3-0.3-1.9-1.2-1.9-2.5c0-1.2,0.1-2.3,0.7-3.4c3-5.1,5.5-10.6,9.2-15.3
	c1.9-2.4,3.7-5.1,5.1-7.9c1.4-2.6,3.5-4.8,4.2-7.8c0.1-0.5,0.4-0.9,0.8-1.2c2.8-2.5,4-6,5.9-9.2c-0.1-4,1.5-8,0.9-11.7
	c0.9-3.5,3.4-5.1,5.9-6.3c4.5-2.1,8.2-5.6,12.8-7.5c0.3-0.1,0.6-0.3,0.8-0.5c2-2.5,5.2-3.6,7.1-6.1c2.1-2.7,5-4.3,7.9-5.9
	c4.5-2.7,7.9-6.5,11.1-10.5c2.6-3.2,5-6.5,8.3-9.1c0.5-0.4,1.1-0.8,1.4-1.4c1.4-2.1,3.4-3.5,5.5-4.9c0.1-0.1,0.3-0.1,0.4-0.2
	c1.8-1,2.3-3.2,4.2-4.1c1.8-0.8,3.3-2.2,4.9-4c0.2-2.4,1.6-4.6,2.6-7.3c-1.3-2.8-2.7-5.7-4-8.5c-0.2-0.4-0.4-0.9-0.8-1.2
	c-2.2-1.8-3-4.3-3.8-6.8c-1.1-3.3-2.7-6.4-2.5-10c0.1-1.6-0.1-3.3,0.7-4.9c0.3-0.7,0.5-1.6,0.4-2.4c-0.2-2.5,0.3-4.9,1-7.3
	c1.3-4.2,2.1-8.6,3.4-12.9c0.4-1.3,0.5-2.6,0.5-3.9c0.1-2.3,0.2-4.6,0.1-7c-0.1-1.9,0.5-3.6,1.3-5.2c1.7-3.4,3-7,5-10.2
	c1-1.5,1.9-3.1,2.8-4.7c0.3-0.4,0.6-0.8,0.8-1.3c0.8-3.4,3.1-6.1,4.6-9.2c1.1-2.4,2.8-4.1,5.2-5.1c2.7-1.2,5.3-2.4,8.4-2.7
	c2.6-0.3,5.2-0.5,7.9-0.8c2.8-0.3,5.6-0.7,8.3-1.3c3-0.7,6.2-0.9,9.1-2.4c0.4-0.2,1-0.3,1.5-0.2c4.8,0.4,9.5-1.1,14.3-1.1
	c1.5,0,2.9-0.3,4.4-0.5c1.4-0.2,2.9,0.5,4.4,0.5c3.3,0,6.6,0.1,9.9-0.6c2.9-0.6,5.9-0.2,8.8-1.1c0.5-0.1,1-0.1,1.5,0
	c1.6,0.2,3.4,1,4.8,0.6c1.8-0.5,3.6-0.6,5.4-0.7c1.7-0.1,3.4,0.1,5-0.2c6.6-1.3,13.2-0.7,19.8-0.9c1.6-0.1,3.3-0.1,4.9-0.6
	c1.4-0.4,3-0.3,4.4-0.3c6-0.1,11.9,0,17.9-0.1c3.1,0,6.2,0.2,9.3-0.7c2.2-0.6,4.6-0.2,6.9-0.2c3,0,6,0.1,9,0
	c2.1-0.1,4.2-0.2,6.4-0.7c2.2-0.6,4.6-0.3,6.9-0.3c2.6,0,5.3,0.3,7.9-0.7c0.9-0.3,2-0.2,3-0.2c3.6,0,7.3,0.1,10.9-0.7
	c0.6-0.1,1.3,0.1,1.9,0.3c1.6,0.4,3.3,0.6,5.2,0.3c1.4-1.9,3.2-3.4,5.4-4.6c2.7-1.6,5.1-3.6,8.1-4.6c0.2-0.1,0.4-0.5,0.6-0.8
	c0-1-0.7-1.4-1.3-1.9c-1.9-1.7-3.2-3.8-3.4-6.4c-0.1-1.5-1.1-2.4-2.3-3.1c-2.1-0.4-4.2-0.4-6.4-0.4c-2.2,0-4.1,1.4-6.5,0.8
	c-2.2-1.1-3.7-3.5-6.5-4.1c-0.1-0.9-0.3-1.5-0.3-2.1c0-1.1,0.7-1.8,1.7-2.3c0.4-0.2,1-0.2,1.4-0.3c4.2-0.7,8.3-2.1,12.7-2
	c1.8-1,3.9-0.5,5.8-1c1.8-0.5,3.5-0.8,5.3-1c1.1-0.1,2.2-0.6,3.3-1c2.2-0.8,4.4-1.1,6.8-1.1c2.5,0.1,4.9,0.1,7.4-0.7
	c1.4-0.4,3-0.3,4.4-0.3c4,0,8,0,11.9,0c2.6,0,5.3,0.3,7.9-0.7c4.5,0.1,8.9-0.6,13.4,0.4c1.1,0.2,2.3,0.3,3.4,0.3
	c5.5,0,11,0.4,16.4-0.2c10.3-1.1,20.5-0.4,30.8-0.6c2.6-0.1,5.2,0.1,7.9,0.6c3.1,0.6,6.3,0.3,9.4,0.4c1.3,0,2.7-0.2,3.9,0.5
	c0.3,0.2,0.6,0.2,1,0.2c2.2,0.1,4.3,0,6.5,0.2c2,0.2,3.9,0.8,5.8,0.8c5.8,0.1,11.5,0.8,17.2,1.9c1,0.2,2,0.1,3,0.1
	c2.3,0.2,4.6-0.1,6.8,0.9c0.3,0.1,0.7,0.1,1,0.1c4.5-0.1,8.8,1.2,13.1,2.2c1.8,0.4,3.5,0.9,5.4,0.8c2.4-0.1,4.6,0.4,6.8,1.2
	c1.3,0.4,2.5,0.9,3.8,0.7c4-0.6,7.8,0.7,11.7,1.6c2.9,0.6,5.7,1.5,8.5,2.4c1.9,0.6,3.7,1.3,5.8,1.2c0.6,0,1.4,0.1,1.9,0.5
	c3,1.8,6.5,2.3,9.7,3.7c1.2,0.5,2.5,0.6,3.8,1.1c5.8,2,11.5,4,17.3,6c1.9,0.6,3.8,1.2,5.7,1.6c4.8,1,8.9,3.5,12.9,6
	c1.1,0.7,1.9,1.8,2.5,3c1.3,2.6,3.5,3.8,6.4,4c1.9,0.2,3.8,0.9,5.6,1.4c1.4,2.5,2.7,4.8,4,7.1c0.1,0.1,0.2,0.3,0.3,0.4
	c2.4,3.5,4.9,7,5.8,11.4c0.2,0.9,1.1,1.6,1.6,2.5c1.1,2,1.4,4,0.5,6.2c-0.4,0.9-0.6,1.9-0.9,2.9c-1.4,0.8-2.9,1.6-4.2,2.3
	c-0.7,1.9-0.2,3.7-0.3,5.5c1.7,2.3,3.2,4.7,3.3,7.5c0.7,0.7,1.3,1.3,1.8,1.9c1.1,1.1,2,2.2,2.1,3.8c0.1,0.8,0.5,1.6,0.8,2.3
	c0.4,0.9,0.6,2.1,1.3,2.7c3.4,2.7,4.6,7.2,8.3,9.7c0.4,0.3,0.7,0.7,1.2,1.3c0.3,3,2.1,5.6,4.7,7.7c0.6,2.7,1.9,5.1,3.8,7.2
	c1.6,1.8,2.5,4.2,3.6,6.4c0.4,0.7,0.6,1.6,1.2,2.1c3.5,3.7,7,7.5,11.8,9.7c2.8,2.4,6.5,3,9.5,5.1c1.8,1.2,4.1,1.6,6.6,0.7
	c2.9-1.1,6-1.6,9.2-1.4c2.6,0.2,5.3,0,8.1,0c3.1-1.7,6.6-3,8.5-6.5c0.7-1.2,1.9-1.9,3.1-2.3c1.8-0.7,2.9-2,3.8-3.7
	c3.2-6.3,6.8-12.4,9.7-18.9c0.3-0.6,0.5-1.3,0.9-1.8c1.8-2.4,2.7-5.2,3.3-8.2c0.4-2.1,1.2-4.1,2.2-6c1.1-2.4,1.7-5,3.5-7.1
	c0.4-0.5,0.8-1.1,0.9-1.8c0.8-3.6,2.8-6.7,4.5-9.9c0.9-1.6,1.5-3.3,1.9-5.1c0.7-3,2.1-5.9,2.1-9.1c0-1.1,0.6-2.2,1.2-3.2
	c2.3-3.6,2.7-7.7,4.3-11.6c0.1-0.3,0.2-0.6,0.2-1c-0.2-5.3,2.2-9.9,3.3-14.9c0.3-1.1,0.7-2.2,0.8-3.4c0.2-3,1.7-4.9,4.8-5.4
	c0.8-0.1,1.6-0.4,2.4-0.6c2.8,1.7,5.6,3.4,7.8,6c1.8,2.2,3,4.3,3,7.1c0,0.3,0.1,0.6,0.2,1.1c1.1,1.9,3.2,3.2,4.2,5.4
	c0.6,1.2,1.5,2.1,1.8,3.5c0.3,0.9,0.8,1.9,1.4,2.6c1,1.1,2.3,1.9,3.4,2.9c1.1,1.2,2,2.6,3.2,3.7c1.1,1,2.2,2.1,3.6,2.6
	c3.2,1.3,5.8,3.7,9.3,4.4c0.5,0.1,1,0.3,1.4,0.3c1.7-0.1,3.3,0.5,4.7,1.3c1.7,0.9,3.5,1,5.3,0.4c3-0.9,5.8-2.1,8.4-4.1
	c5.9-4.5,11.8-9,17.8-13.4c1.6-1.2,2.7-2.9,4.2-4.1c1.5-1.3,3-2.6,4.4-4.1c2.5-2.6,5.2-5,8.4-6.9c2.5-1.5,4.8-3.5,7.1-5.4
	c1-0.8,2-1.8,2.7-2.9c3.2-4.4,6.4-8.8,9.5-13.3c1-1.5,1.9-3.2,2.4-4.9c0.6-2.3,1.9-3.8,3.8-4.9c3.1-0.7,5.5,0.6,7.8,2
	c1.9,2.3,2.1,4.6,1,7.1c0.3,2,1,3.8,2.4,5.2c-0.2,4.7,0.6,9,1.9,13.3c0.7,2.2,1.3,4.4,1.2,6.8c0,0.9,0.5,1.9,0.7,2.9
	c1.2,5.5,2.8,10.9,2.5,16.6c0.8,3.7,0.5,7.6,1.5,11.2c0.1,0.5,0.3,1,0.2,1.5c-0.2,3.4,1.3,6.5,1.3,9.8c0.9,1.9,0.7,3.9,0.8,5.9
	c0.1,2,0,3.9,0.7,5.9c0.4,1.2,0.2,2.6,0.3,3.9c0.1,2,0,4,0.7,5.9c0.3,0.8,0.4,2.1,0,2.9c-0.9,2.1-0.8,4.2-0.8,6.4
	c0,3.5,0,6.9-0.6,10.4c-0.5,3-0.7,6.3,0.4,9.3c0.2,0.6,0.2,1.3,0.2,2c0,6.5,0.3,13-0.1,19.4c-0.3,4.4-0.3,9-1,13.3
	c-1,5.5-0.7,11.2-2.5,16.6c-0.1,0.3-0.1,0.7-0.1,1c0,5.6,0,11.3,0,17c0.7,1.7,2.5,2.5,3.7,4.4c0.4,3.3,0.8,7.1,4.3,9.4
	c3.6-0.6,5.8-2.9,7.5-5.5c0.8-1.3,1.7-2.4,2.7-3.5c0.5-0.6,1.2-1.2,1.5-1.9c1.2-3.1,4.2-5.2,5.2-8.4c0.1-0.4,0.6-0.8,0.9-1.1
	c3.4-2.7,6.7-5.5,10.9-6.9c2.5-0.8,5.2-1.2,7.8-1.4c8.1-0.4,16.3-0.3,24.4-0.1c1.9,0,3.5,0.9,5.3,1c1.2,0.1,2.1,0.9,2.3,2.2
	c0.2,1.5-0.3,2.7-1.5,3.4c-1.1,0.7-2.3,1.2-3.7,1.2c-2.7-0.1-5.3-0.1-8,0c-2.6,0.1-5.3-0.2-7.8,0.8c-0.6,0.2-1.3,0.2-2,0.1
	c-3.7-0.3-7.2,0.8-10.8,1.4c-3.4,0.5-6.4,2.5-9,4.9c0,1.8,0,3.5,0,4.9c-0.7,1.5-1.8,2.4-2.9,3c-3.5,2-5.7,5.1-7.1,8.6
	c-1.2,3-2.8,6-4.1,9c-0.3,0.7-0.9,1.4-1.3,2.1c-0.6,1.2-1.2,2.3-1.6,3.2c0,1.5,0.6,2.3,1.5,2.8c4.7,2.8,9.5,5.2,14.9,6.4
	c1.7,0.4,3.6,0.8,4.7,2.5c0.4,0.5,1,0.9,1.6,1.1c5.4,2.2,10.3,5.2,14.7,9c0.6,0.5,1.3,1,2.1,1.3c2.4,0.8,4.4,2.1,6.5,3.6
	c0.4,0.3,0.8,0.7,1.2,0.8c2.9,0.5,5,2.4,7.2,4.1c2,1.5,4.1,2.8,6.4,3.8c4.1,1.8,7.8,4.3,12.1,5.6c0.9,0.3,1.7,1.1,2.3,1.8
	c0.8,0.9,0.7,2.2,0.4,3.3c-1.2,2.5-4,2.8-5.5,4.6c-1.6-0.5-2.8-1-4.2-1.4c-0.4-0.4-0.9-0.9-1.2-1.4c-0.9-1.7-2.2-2.6-4.1-3.3
	c-3.4-1.3-6.5-3.3-10-4.3c-1.1-0.3-2-1.1-2.9-1.9c-1-1-2.1-1.6-3.4-2c-3.7-1.1-6.7-3.4-10-5.3c-2.6-1.5-5-3.2-7.7-4.5
	c-2.9-1.5-5.8-3-8.8-4.4c-4-1.9-7.8-4.3-12.1-5.7c-1.1-0.4-2-1.1-3-1.7c-2.7-1.7-5.4-3.2-8.5-4c-2.2-0.6-4.3-1.5-6.3-2.9
	c-1.9-1.2-4.2-1.8-6.3-2.6c-2.6-1-5.1-2.2-7.5-3.8c-1.6-1.1-3.4-2.1-5.4-2.2c-0.9,0-1.6-0.4-2.2-0.9c-1.5-1.1-3-2-4.9-2.1
	c-0.3,0-0.7,0-1-0.2c-2.8-2.5-6.6-2.9-9.6-5c-2-1.4-4.5-2-6.8-2.8c-3.4-1.2-6.7-2.6-9.8-4.6c-3.2-2-6.5-4-10.4-4.4
	c-3.7-2.3-8-2.8-11.8-5.1c-3.7-2.3-7.8-4.2-12.3-4.8c-2-0.3-3.8-1.1-5.5-2.1c-5.1-2.8-10.4-4.9-15.8-6.9c-0.9-0.3-1.9-0.6-2.7-1.1
	c-1.9-1.2-3.8-1.9-6.1-1.8c-0.8,0-1.6-0.4-2.4-0.6c-4.7-1.5-9.4-2.8-13.8-5.3c-2-1.1-4.3-1.7-6.6-2c-4.2-0.7-8.4-1.5-12.5-2.8
	c-2-0.6-4.1-1.4-6.3-1.2c-0.5,0-1,0-1.5-0.2c-4.8-1.8-10-2.1-14.8-3.9c-1.4-0.5-2.8-0.9-4.3-0.9c-1.2,0-2.2-0.4-3.4-0.7
	c-1.9-0.6-3.7-1.2-5.8-1.3c-1.6-0.1-3.2-0.9-4.7-1.4c-3.1-1-6.3-2-9.4-3c-2.1-0.6-4.2-0.6-6.3-1.2c-2.3-0.7-4.8-1.2-7.2-1.8
	c-0.6-0.2-1.3-0.4-1.9-0.4c-2,0-3.9-0.3-5.8-0.9c-2-0.7-4.3-0.1-6.3-1.1c-3.7,0.2-7.2-1.1-10.8-1.2c-1,0-1.9-0.3-2.9-0.5
	c-0.8-0.2-1.6-0.5-2.4-0.5c-5.1,0-10.2-0.7-15.2-1.8c-1.6-0.4-3.4,0-5-0.3c-4.6-1-9.2-0.5-13.8-0.8c-2.1-0.1-4.3,0.2-6.4-0.8
	c-0.3-0.1-0.7-0.1-1-0.1c-5,0.1-9.9-1.1-14.8-1c-3.4,0.1-6.6-0.6-9.8-1.4c-2-0.5-3.9-0.7-5.9-0.7c-5,0-10,0-14.9,0.2
	c-3.6,0.1-7.3-0.4-10.9,0.7c-0.6,0.2-1.4,0.1-2,0c-4.7-1.3-9.6-0.3-14.3-0.6c-1.9,0.9-3.7,0.4-5.7,0.1c-2.2-0.4-4.5-0.1-6.9,0.4
	c-3.2,0.7-6.4,1.5-9.8,1.5c-3.5,0.1-6.9,0.9-10.1,2.1c-1.5,0.5-2.8,0.8-4.3,0.8c-1,0-2,0-3,0c-2.2,0-4.2,0-6.3,0.8
	c-2,0.7-4.2,0.8-6.3,1.3c-1.1,0.3-2.2,0.6-3.2,1.2c-1.4,0.7-2.8,0.9-4.7,0.7c-1-0.6-2.3-1.3-3.6-2c-1.2-0.1-2.4,0-3.5-0.3
	c-1.7-0.3-2.3-2.3-1.2-3.5c1.3-1.3,2.6-2.6,4-3.7c1.2-0.9,2.6-1.5,4.1-1.5c4,0,7.8-1.5,11.8-1.1c1.4,0.1,2.9-0.5,4.3-0.9
	c4.3-1.4,8.7-1.7,13-2.7c1.9-0.5,3.8-1,5.8-1.6c3-2.4,5.2-5.9,8.8-7.4c1.3-4,2.5-7.6,3.7-11.2c1.1-3.5,1.7-7,1.8-10.7
	c0.1-4.2-0.7-8.2-1.2-12.3c-0.1-1-0.1-1.9,0.1-2.9c0.3-2,0.2-4-1.3-5.8c-0.5-0.2-1.1-0.8-1.7-0.7c-3.5,0.8-6.8-1-10.3-0.6
	c-3.3,0.3-6.6,0.2-9.9,0.2c-2.2,0-4.3-0.1-6.5-0.2c-1,0-2,0.2-2.8,1.3c-0.4,1.6-0.3,3.3,0.5,5.1c0.5,1.1,0.7,2.2-0.3,3.5
	c-1.7,0.8-3.9-0.3-5.3,1.3c-4.1-2.4-4.5-6.9-6.9-9.7c-2.5-0.9-4.9-0.6-7.1-0.1c-4.7,1-9.4,1.7-14,2.9c-3.6,1-7.5,1-11,2.6
	c-0.6,0.3-1.3,0.2-2,0.1c-5.4-0.3-10.4,1.3-15.6,2.5c-4,0.9-7.9,2.2-12,2.7c-1.7,0.2-3.2,0.9-4.2,2.3c-1,1.4-2.4,2.2-3.8,2.9
	c-0.4,1.1,0.2,1.9,0.9,2.1c3.4,0.9,5.8,3.7,8.8,4.6c2.4,2.6,4.5,4.9,6.6,7.2c0.3,0.4,0.7,0.7,1.2,0.9c2.8,1,4.4,3.3,6.4,5.3
	c1.4,1.4,2.6,3,4.7,3.5c0.7,0.2,1.4,0.9,2,1.4c0.7,0.7,1.3,1.6,2.1,2.1c2.9,2,4.4,4.9,5.6,8c0.4,1.1,0.9,2.1,1.7,3
	c1.4,1.5,2.4,3.2,2.5,5.4c-1.2,2.1-2.9,3.9-3.4,6.5c-0.2,1.1-1.3,1.9-2.3,2.5c-1.3,0.7-2.6,1.5-3.9,2.2c-0.9,1.7-2.4,3.1-3,5.2
	c0.4,0.8,0.6,1.8,1.6,2.3c1.1,0.7,2.2,1.4,3.3,2.2c2.9,2,5.3,4.5,5.8,8.5c2.4,2.5,5,5.1,7.6,7.8c0.1,0.6,0.2,1.2,0.2,1.9
	c0,0.7-0.1,1.3-0.1,2c-3.1,3.7-6.6,7-10.1,10.3c-0.5,0.5-1,0.9-1.6,1.1c-2.8,1.2-4.9,3.4-7,5.5c-2.1,2.1-4.5,3.9-7.2,5.2
	c-1.5,0.7-2.8,1.7-4,3c-0.8,0.9-1.6,1.7-2.4,2.5c-1.5,1.5-3.1,3-5.4,3.3c-1.3,2.9-4,4.4-6.3,6.3c-3.7,3.1-7.6,5.8-11.4,8.7
	c-0.4,0.3-0.9,0.5-1.2,0.9c-2.9,3.6-7.2,5.2-11,7.5c-5.4-1-9.5-4-13.1-8.2c-3-3.5-5.9-7.2-9.8-9.8c-0.9-0.5-1.5-1.3-2-2.1
	c-0.5-0.8-1.2-1.5-1.8-2.3c-1.5-0.2-2.6,1-4.7,0.2c0.1,0-0.5-0.3-1-0.7c-2.8-2.5-5.6-5.2-8.5-7.5c-2.2-1.7-4.7-3-7.1-4.5
	c-1.1-0.7-2.3-1.3-3.3-2.2c-1.3-1-2.5-2.1-3.4-3.6c-1-1.7-1.2-3.3-0.3-5.2c0.7-1.5,1.2-3.1,1.9-4.9c2.7-2.7,6.1-5.1,8.4-8.6
	c0-0.5,0-1,0-1.4c-0.3-0.3-0.5-0.6-0.7-0.7c-0.7-0.4-1.5-0.9-2.3-0.9c-3.2,0.2-6.2-1.1-9.3-1.4c-2.7-0.2-5.4-1.2-8.1-2.1
	c-1.5-0.5-2.9-0.6-4.4-0.7c-2.8-0.2-5.6,0.1-8.4-0.8c-1.1-0.3-2.4-0.3-3.5,0c-3.2,0.9-6.6,0.4-9.8,1.5c-2.3,0.7-5,0-7.3,1.2
	c-4.2,0.2-7.9,2.1-12.3,2.9c-2.3-0.9-4.9-2-7.2-2.9c-0.8-1.2-0.7-2.2-0.3-3.1c0.7-1.7,1.6-3.2,3-4.5c1.4-1.4,2.4-3.2,1.6-5.6
	c-1.9-1.1-4.1-0.2-6.2-0.4c-2.3,2.4-5.2,3.3-8.3,4.1c-4,1-7.9,1.9-11.8,3.5c-3.7,1.6-7.8,2.8-12,2.2c-0.6-0.1-1.3,0-2,0
	c-6.2,2.8-12.1,6.2-19,7.5c-0.4,0.3-0.9,0.8-1.4,1.1c-2.5,1.8-4.9,3.8-8.2,4.4c-2.1,0.4-3.8,2.1-6.1,1.9c-2.4-0.2-4.5,0.9-6.6,1.7
	c-0.6,0.2-1.1,0.7-1.5,0.9c-0.3,1.2,0.4,1.7,1.1,2c0.4,0.2,1,0.3,1.4,0.3c2.5-0.1,4.9,0.8,7.2,1.6c4,1.4,8,3,11.6,5.4
	c1.2,0.8,2.5,1.7,3.5,2.7c1.6,1.5,2.5,3.5,2.7,5.7c0.2,2,0.3,4-0.2,6c-0.3,0.4-0.6,0.8-0.8,1.2c-2.3,3.5-5.3,5.7-9.4,6.8
	c-1.9,0.5-3.6,1.6-5.6,2.6c-2.5-0.4-5,0.8-7.6,0.9c-2.5,0.1-4.9,0.2-7.4,0.8c-2.2,0.5-4.6,0.3-6.9,0.3c-1.5,0-2.9,0.2-4.4,0.5
	c-2.3,0.5-4.4,0.9-6,3c-0.6,0.9-1.9,1.4-3.1,1.3c-2.4-0.2-4.6,0.6-6.8,1.3c-2.3,0.7-4.5,1-6.8,0.9c-2.6-0.1-5.2,0.8-7.8,0.1
	c-2.7,1-5.6,0.6-8.3,1.3c-1.5,0.4-2.9,0.6-4.4,0.5c-3.2-0.2-6.3,0.5-9.3,1.3c-2.6,0.7-5.2,1-7.8,0.7c-2.9-0.3-5.5,0.3-8.1,1.7
	c-3.5,1.8-7.4,2.9-11.4,3.7c-1.6,1.7-3.9,2.7-5.9,4.1c-4.7,3.2-9.7,5.6-14.7,8.2c-2.9,1.6-5.1,4.1-7.3,6.6c-0.7,0.7-0.1,2-1.5,3.1
	c-2,0.9-4.8,1.5-6.8,3.3c-1.3,1.4-0.5,3.3-1.7,4.7c-1.1,1.3-1.8,2.8-2.7,4.1c-0.8,1.1-1.4,2.2-1.6,3.6c-0.5,2.6-1.3,5.1-2.7,7.4
	c-0.9,1.5-1.1,3.5-2.1,5c-2.2,3.3-2.8,7.4-5.6,10.4c-0.7,4.1-4.3,7.1-4.4,11.3c-2.4,2.1-4.7,1.7-7.1,0.7c-1.3-0.6-1.9-2-1.6-3.3
	c0.4-1.6,0.7-3.2,1.3-4.7c2.4-5.6,3.8-11.5,5.3-17.5c0.1-0.5,0-1,0.2-1.5c0.6-1.5,1.4-3,1.9-4.6C57.3,289.1,56.8,287.5,57.7,286.1z
	 M298.8,62.4c2.6-0.8,5.1-1.7,7.6-2.5c1.9-0.6,3.5-1.6,4.6-3.4c0.9-1.5,2.4-2.7,3.6-4.1c0.9-0.9,2.3-1.3,2.9-2.5
	c-0.1-0.4,0-0.8-0.2-0.9c-0.5-0.4-1.1-0.8-1.7-0.8c-2.9,0-5.9-0.7-8.8,0.6c-0.9,0.4-2,0.2-3,0.2c-1.5,0.1-2.9,0.2-4.4,0.6
	c-2.4,0.6-4.9,0.6-7.4,0c-1.5-0.4-2.9-0.6-4.3,0c-1.4,0.6-3,0.6-4.4,0.1c-1.5-0.5-2.9-0.5-4.4-0.5c-3.6,0-7.3-0.1-10.9-0.1
	c-2.2,0-4.4-0.2-6.4,0.3c-1.6,0.4-3.2,0.6-4.9,0.7c-1.8,0.1-3.6,0-5.4,0.7c-1.2,0.4-2.6,0.4-3.9,0c-1.4-0.4-2.9-0.7-4.3-1.2
	c-1.6-0.6-3.3-0.7-4.9-0.1c-1.8,0.7-3.5,0.7-5.3,0c-1.3-0.5-2.6-0.5-3.9,0.1c-1.8,0.9-3.5,0.1-5.2-0.3c-3,1.4-6.1,1.8-9.3,1.7
	c-2.3-0.1-4.6,0.1-7,0.1c-2.3,0-4.8-0.4-6.9,0.2c-2.4,0.6-4.5,0.2-6.8,0c-0.6-0.1-1.3,0.2-1.9,0.4c-4.2,1.1-8.4,1.8-12.7,1.4
	c-1-0.1-2,0.1-3,0.1c-3.2,0.1-6.2,0.6-9.1,2c-1.9,0.9-3.8,1.1-5.8,0.4c-1-0.3-2-0.6-2.9-0.3c-3.7,1.1-7.3,2-11.2,2
	c-0.3,0-0.6,0.3-0.9,0.3c-4.5,0.9-9,1.9-13.9,2.8c-2.2,1.4-4.5,3.3-7.6,3.9c-0.8,0.1-1.5,0.8-2.1,1.2c-1.3,1-2.6,2-4,3
	c-1.4,1-2.3,2.3-3.1,3.8c-0.6,1.3-1.3,2.7-2.2,3.9c-2.8,3.7-4.7,7.9-6,12.7c1.6,2.3,0.9,4.5-0.4,6.8c-0.9,1.6-1.4,3.3-2,5.1
	c-0.3,0.8-0.3,1.6-0.4,2.4c-0.1,1.2,0.3,2.3,0.5,3.4c0.2,1.1-0.3,2.3-0.1,3.4c0.6,3.2,1.5,6.4,2.2,9.6c0.5,2.6,2.1,4.8,3,7.3
	c2,5.6,5.1,10.7,6.4,16.3c0.5,0.3,0.8,0.5,1.1,0.7c3.5,3,7.4,4.5,12,5.1c3.7,0.4,7.4,1.5,11,2.6c2.7,0.8,5.5,1.2,8.3,1.3
	c1.3,0,2.7-0.1,3.9,0.3c1.6,0.6,3.2,0.7,4.9,0.7c4.5-0.1,8.8,1.2,13.3,1c0.8,0,1.6,0.4,2.4,0.6c3.5,1,6.8,2.5,10.5,2.4
	c1.2,0,1.7,0.9,1.9,3c-2,1.4-3.5,3.2-4,5.8c-0.2,1.4-1.2,2.3-2.8,2.8c-0.6-0.1-1.5-0.2-2.2-0.5c-1.5-0.5-3-0.6-4.4-0.1
	c-2.1,0.8-4.2,0.7-6.4,0.7c-1.3,0-2.6,0-3.9,0.4c-3.6,1.2-7.1,2.8-11,2.6c-4.6,1.3-9.1,2.8-13.6,4.3c-0.9,0.3-1.8,0.9-2.6,1.4
	c-0.6,0.4-0.8,1-0.5,1.7c1.1,0.6,2.3,1.2,3.4,1.9c2.4,1.5,4.7,3,7.1,4.5c2.6,1.7,5.4,2.4,8.5,2.2c3.5-0.2,6.9-0.1,10.3,0.8
	c2.4,0.6,4.9,0.7,7.2,1.5c5,1.7,10.1,2.8,15.1,4.6c3,1.1,6.1,1.1,9.2,0.7c1.2-2.3,2.7-3.9,5.4-4c0.8,0,1.5-0.5,2.3-0.9
	c1.9-1,3.8-1.9,6.1-1.9c0.6,0,1.3-0.3,1.8-0.6c2.5-1.7,5.4-2.5,8.3-3.1c2.1-0.5,3.7-1.3,5-3c1.9-2.6,4.6-4.3,7.3-5.9
	c2.6-1.7,5.5-3,8.2-4.7c2.7-1.6,5.9-2.1,8.4-4.2c3.3-0.4,6.1-2.4,9.3-3.2c2.4-0.6,4.7-1.5,7-2.5c1.7-0.7,3.4-1.3,5.2-1.6
	c1.2-0.2,2.2-0.6,3.3-1.1c2.1-1,4.1-2.1,6.5-2.3c0.7,0,1.4-0.7,2.1-1.1c-0.4-1-1.1-1.4-1.9-1.6c-3-0.9-6-1.9-8.9-3
	c-3.6-1.3-7.2-2.3-10.6-4c-4.3-2.1-8.7-3.9-12.9-6.3c-3-1.7-4.7-3.2-6.9-6.8c0.4-1.3,0.7-2.5,1.7-3.5c3.2-2.9,6.5-5.5,10.8-6.8
	c3.2-0.9,6.2-2.3,9-4c0.7-0.4,1.4-0.9,2.2-1.1c4.5-1,7.7-4.3,11.6-5.9c0.7-2.2,0.2-3.6-1.7-4.3c-1.2-0.5-2.5-1-3.6-1.5
	c-4.3-2.1-8.3-4.7-12.5-6.9c-6-3.2-11.2-7.6-16.9-11.2c-0.8-0.5-1.6-1.3-1.8-2.3c-0.2-1.5-1.3-2.7-0.9-4.4c0.4-0.9,1-1.8,1.9-2.2
	c3.1-1.2,6.3-2.3,9.6-1.1c3.1,1.1,6.2,1,9.3,0.1c1.3-0.4,2.7-0.6,3.9-0.2c3.2,1.2,6.6,0.5,9.8,0.8c1,0.1,2,0.2,3.1-0.7
	c1.1-2.4,3.1-4.1,5.5-5.7c4.1-2.7,8.1-5.6,12.8-7.4c0.7-0.3,1.4-0.8,2-1.3C297.2,64,298,63.2,298.8,62.4z M573,89.7
	c1.8-1.5,4.2-2.5,5.8-4.5c3.3-1.7,6.3-4.1,10.2-4.7c1.3-0.2,2.6-0.7,3.7-1.4c1.1-0.8,2.3-1.1,3.6-1.4c2.1-0.5,4-1.4,6-2.1
	c4.3-1.6,8.7-3.2,13.4-2.8c0.9-0.5,1.8-1,2.5-1.3c0.4-1.2,0.5-2.2-0.1-3.8c-0.8-0.6-2.1-1.7-3.1-2.4c-0.5-2-1.2-3.4-1.3-4.8
	c-0.1-2.5-1.4-3.9-3.2-5.2c-5.9-4.3-11-7.4-18.2-10.9c-0.6-0.3-1.3-0.5-1.7-1c-1.1-1.1-2.5-1.6-3.8-2.3c-4.1-2.2-8.2-4.3-11.4-7.8
	c-0.8-0.9-1.9-1.3-2.9-1.8c-3.9-1.7-7.9-3.4-11.9-5c-1.5-0.6-3.1-1.1-4.7-1.3c-2.5-0.3-4.8-1.1-7.2-1.8c-2.7-0.8-5.4-1.4-8.3-1.4
	c-1.3,0-2.7,0.1-3.9-0.2c-1.8-0.6-3.6-0.6-5.4-0.5c-3.5,0.1-6.8-0.9-10.1-2.1c-1.9-0.7-3.6-1.7-4.8-3.3c-0.5-0.6-1.3-1-1.8-1.4
	c-3.3-0.2-6.3-1.3-9.5-1.3c-1.7-1.1-3.5-0.7-5.3-0.8c-6.8,0-13.6-0.1-20.4-0.1c-2.3,0-4.6,0.1-6.9,0.7c-1.8,0.5-3.8,0.3-5.8-0.4
	c-2.8-0.9-5.7-1.5-8.8-1.3c-1.1,0.1-2.4,0.1-3.5-0.2c-2.6-0.9-5.2-0.6-7.9-0.6c-2.6,0-5.3-0.5-7.9,0.6c-0.6,0.2-1.4,0.3-2,0
	c-2.8-1.3-5.5-0.4-8.3,0.1c-1.1,0.2-2.2,0.4-3.4,0.8c-1.4,0.5-3,0.6-4.3-0.2c-2.4-1.3-5-1.7-7.2-2.4c-3.3,0.6-6.4,1.4-9.4,1.7
	c-3.3,0.3-6.6,0-9.9,0.1c-3.1,0.1-6.2,0-9.4,0.8c-2.5,0.6-5.3,0.5-7.9-0.1c-1-0.2-2-0.5-2.9-0.4c-3.8,0.2-7.6-0.9-11.3,0.7
	c-0.6,0.2-1.3,0-2,0c-1.7,0.1-3.3,0.2-5,0.2c-1.4,0-2.5,0.6-3.5,1.6c-1.2,2.6,0.4,4.8,1.1,7.1c0.5,1.7,1.7,2.8,3.3,3.6
	c0.6,0.3,1.2,0.7,1.5,1.3c1,2.1,3,3.5,4.3,5.4c0.6,0.9,0.7,1.9-0.2,3.1c-1.2,0.8-2.6,2.2-4.3,2.7c-4.8,1.4-9.3,3.4-14,4.9
	c-4.2,1.4-7.8,3.4-11.3,5.9c-1.6,1.2-3.3,2.2-5.3,2.4c-1.6,0.2-3.2,1-4.3,2.3c-2.1,2.7-5,4.4-7.7,6.3c-0.4,0.3-0.8,0.6-1.3,1
	c0.3,1.2-0.7,2.1-0.8,3.3c0.8,2,0.8,4.1,0.5,6.3c-0.1,1.9-2.3,2.8-2.6,4.6c0.3,0.4,0.4,0.8,0.7,0.9c0.9,0.4,2.1,0.5,2.9,0
	c2.4-1.2,4.8-0.9,7.3-0.9c2.6-0.1,5.3,0.2,7.9-0.7c1.4-0.5,2.9-0.1,4.4,0.3c3.2,0.7,6.4,1.7,9.8,1.3c0.9-0.6,1.8-1.3,2.9-1.8
	c1.9-1,3.6-2.2,5.1-3.8c3.5-3.7,7.2-7.3,11.6-10.1c1.3-0.2,2.6-0.4,3.6,0.8c0.7,0.9,0.7,1.8,0.1,3.1C364,65.8,361,69.4,357,72
	c-0.6,1.9-2.9,3.2-2.3,5.8c0.1,1.3,2.1,1.7,1.7,3.3c-0.8,0.9-1.9,1.4-3,1.6c-1.8,0.4-3.1,1.4-3.9,2.8c-1.8,3.3-4.3,6.2-6,9.7
	c-1.4,2.8-2.3,5.8-3.3,8.7c-0.8,0.8-1.7,1.3-2.3,2.1c-1.7,2.1-3,4.3-1.6,7.2c0.4,0.7,0.3,1.6,0.4,2.3c-0.6,1.2-1.2,2.2-1.6,3.3
	c-0.4,1.1-1.6,2.1-0.9,3.8c1.7-0.3,3.3-0.6,4.6-1.7c2-1.6,4.4-2.4,6.7-3c2.2-0.6,3.4-1.7,4.3-3.6c0.9-1.8,1.5-3.7,1.7-5.6
	c0.1-0.7,0.2-1.3,0.8-1.7c1.8-0.5,3.2-0.2,4.3,2c0,2.3,0,4.9,0,7.6c0,0.3,0.2,0.6,0.4,1.1c0.6,0.3,1.3,0.7,2.1,1.2
	c1.9-0.8,4.1-0.7,6-1.9c3-2.1,6-4,9.3-5.6c3.8-1.9,7.3-4.5,10.8-7c1.8-1.3,3.7-2.3,5.7-3c1.7-0.6,3.3-1.3,4.9-2.3
	c1.1-0.7,2.4-1.2,3.6-1.6c1.6-0.5,3.1-1.1,4.8-1.2c2-0.1,3.1-1.7,4.9-2.3c7.1-2.1,14-4.8,21.3-6.1c6.3-1.2,12.3-3.5,18.8-3.8
	c2.1-1.2,4.6-0.5,6.7-1.4c2.4-1,4.9-0.4,7.4-0.5c0.5,0,1-0.1,1.5-0.3c2.2-1,4.6-0.7,6.9-0.8c1.7-0.1,3.4,0.1,4.9-0.3
	c1.6-0.4,3.3-0.5,4.9-0.5c3,0,6,0,9,0c1.7,0,3.3,0.1,4.9-0.6c1.6-0.7,3.4-0.7,4.9-0.2c2,0.7,3.9,0.6,5.9,0.7c7.6,0,15.3,0.1,22.9,0
	c2.7,0,5.2,1,7.8,0.9c3.7-0.1,7.2,0.9,10.6,2c1.7,0.6,3.4,1.1,5.2,1.5c3.1,0.6,6.1,1.4,8.8,3c0.6,0.3,1.2,0.5,1.9,0.5
	c1.4,0,2.6,0.6,3.7,1.3C568.8,89.9,570.5,90.1,573,89.7z M737.9,157.7c1,1.5,1.9,2.4,3.3,2.7c1.9,0.4,3.9,0.9,5.8,1
	c3.4,0,6.1,1.4,8.5,3.5c1.2,1,2.5,1.5,3.9,2.1c2.5,1,5.2,1,7.7,1.8c2.5,0.8,4.9,2.1,7.4,2.7c2.9,0.7,5.7,1.6,8.3,3
	c1.6,0.9,3.3,1.5,5.1,1.8c4.6,0.8,9,1.9,12.9,4.7c0.4,0.3,0.9,0.4,1.4,0.6c3.9,1.4,7.5,3.3,11.4,4.6c6.2,2.2,12.2,4.9,18.1,7.9
	c2.1,1,4.2,2,6.4,2.6c2.2,0.6,4.4,1.2,6.4,2.5c1.5,1,3.3,1.6,5.1,2c4.6,0.9,8.8,2.8,13.2,4.1c1.1,0.3,2.1,0.8,3.2,1.4
	c4.8,2.6,9.4,5.6,14.5,7.6c3,1.2,5.8,3.1,9,3.9c1.4-0.7,2.5-1.6,2.9-3.2c1.1-4.6,2.8-9.1,2.9-14c0-1.7,0.3-3.3,0.9-4.7
	c-1.3-3.8-1.3-3.8,0.1-6.7c0.9-1.8,1.3-3.6,1.5-5.6c0.5-4.3,0.7-8.6,0.6-12.9c-0.1-5.3,1.2-10.5,1-15.8c0-0.6,0.3-1.3,0.4-1.9
	c0.7-3.3,1.1-6.5,0-9.8c-0.5-1.5-0.6-3-0.1-4.4c1.2-3.4,0.8-6.9,0.3-10.3c-0.3-2.3-0.5-4.6-0.5-6.9c0-2.7-0.2-5.3-0.2-8
	c0-3.6,0.1-7.3,0.2-10.9c1.4-2.6-0.3-5.5,0.6-8.2c-1.1-4.1-0.7-8.2-0.8-12.4c-0.1-2.1,0.2-4.3-0.7-6.4c0.3-3.2-1.1-6.2-1.1-9.3
	c0.1-3.4-0.7-6.5-1.6-9.7c-0.1-0.5-0.4-0.9-0.5-1.4c-0.7-5.4-1.6-10.8-2-16.2c-0.2-2.9-1.9-5.3-2.4-8c0-0.1-0.2-0.2-0.3-0.3
	c-0.9-0.3-1.7-0.3-2.5,0c-4.5,3.2-8,7.3-10,12.3c-1.8,1.1-3.2,2.2-5,2.8c-1.9,0.6-3.6,1.6-5.2,2.8c-4.1,3.1-8,6.5-11.9,9.7
	c-1.3,1-2.7,1.9-3.9,3c-3.7,3.4-7.6,6.4-11.6,9.3c-2.4,1.7-4.9,3.3-7.5,4.8c-4.2,2.7-8.5,5-13.7,5.1c-0.8,0-1.6,0.5-2.4,0.6
	c-1.6,0.2-3.3,0.4-4.8-0.6c-0.8-0.5-1.8-0.7-3-1.2c-1.7,0-3.7,0-5.4,0c-1.3-0.8-2.3-1.4-3.2-2c-2.4-1.7-4.9-3.3-7.3-5.1
	c-1.6-1.2-3-2.6-4.8-3.4c-0.9-0.4-1.8-1-2.3-1.8c-2.1-3.5-5-6.6-6.4-10.5c-0.5-1.3-1.4-2.2-2.9-2.8c-3.1,0.6-4.9,3.4-7.4,5.1
	c-1.8,3.7-4,7.2-4.7,11.4c-0.3,2.2-0.6,4.6-1.9,6.6c-1.5,2.4-2.9,4.8-3.5,7.6c-0.2,1.1-1.1,2-1.7,3c-0.6,1-1.4,2-1.5,3.1
	c-0.3,3.3-2.2,5.9-3.5,8.7c-0.9,1.8-2,3.5-2.5,5.4c-0.6,2.4-0.7,4.9-1,7.3c-0.1,0.8,0,1.7-0.2,2.5c-0.8,2.8-1.8,5.6-2.7,8.4
	c-1.1,3.3-2.6,6.4-2.4,10c0,0.5-0.3,1-0.3,1.4c-0.5,3-1.8,5.7-2.8,8.4c-0.4,1.1-0.7,2.2-0.8,3.3c-0.3,3.1-0.6,6.2-1,9.3
	C738.7,156.2,738.3,156.8,737.9,157.7z M654.2,143.3c0.6-3.8-0.4-7-2.5-9.7c-1.2-1.5-1.7-3.2-2.2-4.9c-0.8-2.5-1.5-5.1-2-7.6
	c-0.2-1-0.7-1.9-1.3-2.7c-2.8-3.7-5.7-7.3-8.5-11c-1.8-2.4-3.5-4.8-5.1-7.3c-0.6-1-1.3-1.9-2.1-2.8c-3-3.6-5-7.7-6.2-12.2
	c-0.7-2.7-2.5-4-5.2-3.2c-2.3,0.7-4.8,1-7,2.4c-1.1,0.7-2.4,1.1-3.7,1.4c-1.7,0.3-3.1,1.1-4.4,2c-1.1,0.8-2.2,1.5-3.4,1.9
	c-3,1-5.8,2.2-8.5,3.7c-2.9,1.6-6.2,2.2-9,4.1c-0.3,0.2-0.6,0.2-0.9,0.3c-4.2,0.9-8.2,2.6-12.6,2c-1.2-0.1-2.1,1.1-3.6,0.5
	c-1.2-1-2.6-2.2-3.9-3.4c-2.5-0.4-5,0-7.7,0.1c-1.4,0.8-3,1.7-4.6,2.6c-0.4,0.2-0.6,0.8-0.9,1.2c-0.1,1.5-0.2,2.9-0.3,4.4
	c-0.6,1.2-1.2,2.4-1.8,3.5c0,0.7-0.1,1.4-0.1,2c0,2.5,0.2,4.9-0.7,7.3c-0.2,0.6-0.2,1.3-0.2,2c0.3,3.3-0.8,6.2-2.2,9
	c-0.3,0.6-0.7,1.2-0.7,1.8c-0.1,1.6-0.7,2.8-1.5,4.1c-1,1.4-1.1,3.1,0.1,4.6c2.5,0.1,5,0.2,7.4-0.5c1-0.3,1.9-0.4,2.9,0
	c1.6,0.7,3.4,0.9,4.9,0.3c3.4-1.2,6.9-0.5,10.3-1.5c1.8-0.5,4-0.5,5.9,0.3c1,0.4,1.9,0.3,2.9,0c4.2-1.1,8.5-0.7,12.8,0
	c4.5,0.7,8.9,0.8,13.2-0.7c1.8-0.6,3.5-1,5.3-1c3,0,6,0.3,9,0c3.2-0.2,6.2,1.1,9.3,1.3c2.4,0.2,4.8,0.9,7.3,1.4
	c4.1,0.8,7.8,2.7,11.7,3.9c0.9,0.3,1.8,0.8,2.8,0.7c2-0.2,3.9,0.2,5.7,0.8C653.3,144,653.6,143.7,654.2,143.3z M303.7,173.4
	c0.8,0,1.7,0.2,2.5,0c2.4-0.9,4.9-0.7,7.3-1.2c4.9-1.1,9.9-0.9,14.8-0.6c3,0.2,5.9,0.6,8.8,0.8c2.2,0.1,4.3,0.3,6.2,1.4
	c0.5,0.3,1.2,0.5,1.9,0.5c2.3,0.1,4.6,0.2,6.8,1c2,0.7,4.2,0.9,6.3,1c4.2,0.1,8.1,1.1,12.1,2.2c1.9,0.5,3.8,1.2,5.5,2.2
	c1.6,1,3.2,1.7,4.8,2.4c1.2,0.5,2.5,1,3.5,1.8c2.4,1.7,5.2,1.8,7.9,2.6c1.3-1.5,2.4-2.9,3.2-3.8c0.5-1.6,0.4-2.6,0.1-3.6
	c-2-2.5-4.3-4.9-7-6.8c-1.7-1.2-2.9-2.7-3.7-4.5c-0.5-1-0.9-2.1-1.4-3c-5.7-1.2-10.3-3.8-14.3-7.2c-3.4,0-6.6,0-9.7,0
	c-2.7,0-5.2-0.6-7.4-2.3c-1.4-1.1-3.1-2.1-4.8-2.4c-2.2-0.4-4.1-1.4-5.7-2.7c-3.2-2.4-6.8-3.2-10.6-3.7c-2.9-0.4-5.9-0.7-8.8-1.2
	c-3.9-0.7-7.7-1.6-11.7-1.7c-1.2,0-2.3-0.4-3.3-0.9c-2.1-1.1-4.4-1.2-6.9-0.8c0.4,0.6,0.6,1.2,1,1.3c4,1.4,5,4.5,5,8.2
	c0,2-0.1,4-0.1,6c0,1.5-0.4,2.9-1,4.3c-1.1,2.6-2,5.2-2.9,7.4C302,171.4,302.7,172.1,303.7,173.4z M322.7,112
	c-0.4-0.4-0.8-1-1.4-1.2c-2.8-1-5.3-2.4-7.7-4.2c-2.3-1.8-4.9-2.6-8-1.7c-1.9,1.5-4,2.9-5.2,5.2c-0.9,1.6-2.1,2.9-3.4,4.2
	c-1.8,1.9-3.8,3.6-5.5,5.6c-1.8,2.1-3.3,4.5-4.9,6.8c-0.6,0.8-1.1,1.7-1.4,2.6c-0.5,1.4-0.1,2.6,1.5,3.2c0.4,0,0.9,0.1,1.4,0.1
	c4.3-0.6,8.6,0.3,12.7,1.3c3.3,0.8,6.6,1.9,10,2.2c3-1.8,5.8-3.9,6.5-5.8c0.9-2.6,2.5-5,2.7-7.9c0.1-1.8,0.6-3.6,1.8-5
	C323,115.7,323.2,114,322.7,112z M462,192.7c0-0.8,0.2-1.6,0-2.4c-0.7-2.5-2.6-3.4-4.9-2.4c-2.4,1-4.9,1.9-7.1,3.3
	c-4,2.6-7.7,5.6-11.6,8.4c-3.2,2.3-5.8,5.4-10.1,5.9c-0.6,0.1-1.1,0.7-1.7,1c-3.3,1.6-6,4.1-9.2,5.7c-3,1.5-5.4,3.7-7.4,5.9
	c-1.7,4.6-2.8,9-3.2,13.6c0.3,0.6,0.7,1.1,1.5,1.2c1.3-0.3,2.4-0.9,3.4-1.7c3.2-2.5,6.4-5.2,9.8-7.5c2.1-1.4,3.7-3.3,5.8-4.6
	c3.2-1.9,6.2-4.3,9.9-5.4c2-3,4.2-5.7,7.3-7.5c0.7-0.4,1.2-1.1,1.8-1.7c1.8-1.9,4-3.4,6.2-4.9c2.8-1.8,5.5-3.6,8.2-5.5
	C461.1,193.9,461.5,193.3,462,192.7z M411,114c-0.6-0.6-1.3-0.5-1.9-0.2c-4,1.9-8.1,3.8-12.1,5.7c-0.7,0.4-1.5,0.7-2.2,1.1
	c-1.7,1-3.4,2-5.1,3c-3.9,2.1-7.8,4.2-11.7,6.3c-0.1,0.1-0.2,0.2-0.3,0.4c-0.4,1-0.4,1.9-0.4,1.9c1.5,2.8,3.5,3.5,5,4.7
	c1.6,1.3,2,3.5,4,4.5c0.5,0.1,1.2,0.2,1.8,0.2c0.8,0,1.6-0.1,2.4-0.1c2.3-1.4,3.8-3.4,4.8-5.7c0.6-1.4,1.1-2.9,2.4-3.7
	c1.3-0.9,2.1-2.1,2.7-3.4c0.7-1.5,1.6-2.9,2.6-4.2C405.7,121,408.3,117.5,411,114z M385.5,162.8c1.5,0.6,2.5,1.2,3.6,1.4
	c2.9,0.6,5.1,2.1,7,4.3c1.2,1.4,2.5,2.6,3.8,3.9c1.4,1.4,2.9,2.6,3.8,4.5c0.5,1.2,1.6,2.1,3.1,2.3c1.1-0.7,1.9-1.7,2.4-3
	c1.8-4.2,1.1-8.4-0.1-12.5c-1.9-1.9-1.5-4.6-2-6.9c-2-1.2-3.8-2.3-5.6-3.4c-1.9-0.4-3.6,0-5.3,0.9c-3,1.6-6.2,3-9.3,4.4
	c-0.6,0.2-1,0.8-1.4,1.2C385.5,161,385.5,161.8,385.5,162.8z M407.2,190.1c-1.4-0.3-2.9-1.3-4.5-0.3c-0.7,0.5-1.1,1.2-1.4,2
	c-0.7,2.4-1.2,4.8-2.2,7c-0.9,2-1,3.8-0.5,5.7c2,2.3,2.9,3,5.3,3.4c2.1,0.4,4.3,0.6,6.3-0.5c1.7-1,3.5-1.8,5.3-2.8
	c1.2-2.3,2.5-4.7,3.4-6.4c0.9-3.2-0.2-5.6-0.7-8c-0.4-2.1-1.7-3.9-4-4.9C411.6,186.6,410.5,189.8,407.2,190.1z M369.9,135.5
	c-5,2.7-6.3,7.4-8.5,11.3c0.2,1.9,1.3,2.4,2.7,2.8c4.6,1.3,9,2.8,13.1,5.3c0.3,0.2,0.6,0.4,0.9,0.4c0.8,0.2,1.6,0.3,3.3-0.9
	c0,0-0.2-1.1,0.3-2c0.5-1,1.2-1.9,1.8-2.8C381.1,142.9,376.9,138,369.9,135.5z M333.4,90.6c-2.4-0.1-4.4-0.2-6.2,0.5
	c-1.3,0.5-2.6,0.5-3.9,0.5c-3,0-5.9,0-8.9,0c-0.4,0-0.9,0.3-1.2,0.5c-0.7,1.1-0.6,2,0,3c1.5,0.9,2.8,2.1,3.8,3.6
	c0.8,1.2,1.8,2.3,3.2,3c1.8,0.9,3.1,2.4,3.8,4.3c0.2,0.6,0.7,1,1.5,1.1c0.4-0.3,0.9-0.5,1.1-0.9c1.6-2.6,3.4-5.2,4.8-8
	c0.9-1.8,1.9-3.5,3-5.1c0.2-0.2,0.2-0.6,0.3-1.1C334.3,91.8,333.9,91.3,333.4,90.6z M385.8,218.7c1.5,2.1,3.9,3.6,4.7,6.3
	c0.1,0.4,0.6,0.8,1,1.1c1.2,0.7,1.9,1.8,2.6,2.9c0.5,0.8,1.3,1.5,2.1,2c0.5,0.4,1.3,0.3,2-0.5c0.8-4.7,3.1-9.4,2.1-14.9
	c-2.2-1.4-4.5-2.9-6.8-4.5c-0.9,0.1-1.7,0.2-2.6,0.2C389.2,213.9,386.9,215.8,385.8,218.7z M334.2,139.4c1.4,0.3,3.4,0.2,4.8,1.3
	c2.5,2.1,5.6,2.6,8.5,3.7c0.8,0.3,1.6,0.2,2.3-0.9c0-1.9,0-4.1,0-6.1c-1-2.1-1.9-3.9-2.7-5.7c-2-0.5-3.3,0.9-5,1
	c-3.2,0.3-5.7,2.4-8,4.4C333.4,137.7,333.4,138.4,334.2,139.4z M445.8,161.7c3.9-1.5,7.1-4.3,9.7-8.1c0.7-1.1,1.3-2.3,1.4-3.6
	c-1.2-2.4-1.2-2.4-3.2-2.3c-3.1,3.1-6.8,5.5-10.6,7.8c-0.9,0.5-1.7,1.1-1.7,2.3C442.3,159.7,444.8,159.8,445.8,161.7z M294.9,91.8
	c-1.5,0.9-2.7,1.7-2.9,3.5c0.5,0.6,0.9,1.3,1.4,1.9c0.5,0.7,0.8,1.4,2.1,1.7c0.2-0.1,1,0,1.5-0.3c1.8-1.4,3.7-2.7,4.7-4.7
	c-1.4-1.9-1.4-2-2.2-2C298,91.7,296.4,91.8,294.9,91.8z M294.2,166.2c1.1-0.8,0.9-2.1,1.3-3.1c1-2.2,0.1-4.3-2-5.4
	c-1.8-0.9-3.6-1.6-5.7-1.2c-0.3,0.1-0.5,0.4-0.8,0.6c0,0.3-0.1,0.7-0.1,1c0.1,0.3,0.2,0.6,0.4,0.9c4.6,2.8,4.6,2.8,6,7.2
	C293.6,166.2,293.9,166.2,294.2,166.2z M357.1,136.3c0.8-0.3,1.4-0.8,1.4-1.7c0-0.3-0.1-0.7-0.3-0.8c-0.4-0.4-0.9-0.3-1.2,0.1
	C356.4,134.7,356.1,135.6,357.1,136.3z M320,45.3c0.2,0.2,0.4,0.4,0.6,0.5c0.1,0.1,0.4,0,0.5-0.1c0.5-0.5,0.9-1,0.3-1.6
	C320.7,44.2,320.2,44.7,320,45.3z M338.7,24.1c-0.2,0.2-0.4,0.3-0.5,0.5c0.3,0.1,0.5,0.4,0.8,0.3c0.2,0,0.3-0.3,0.5-0.5
	C339.2,24.3,339,24.2,338.7,24.1z"/>
<path class="st0" d="M511.5,139.3c-1-1.4-1.7-2.5-2.5-3.6c-1.9-2.6-2.7-5.6-3-8.7c-0.2-1.6-0.2-3.3-0.7-4.9
	c-0.3-1.1-0.2-2.3-0.3-3.4c-0.1-1.4,0.7-2.5,1.3-3.7c0.6-1.1,1.7-1.5,3-1.9c0.3,0.1,0.8,0.2,1.2,0.4c0.6,0.3,1.1,0.6,1.8,1
	c1.2,3.6,2.6,7.1,2.6,10.9c0,2.9,1.3,5.4,2.3,8c0.4,1.1,1.1,2,1.6,3c-0.5,1-0.9,1.9-1.3,2.7C514.4,140.6,514.4,140.6,511.5,139.3z"
	/>
<path class="st0" d="M400.3,24.9c-1.7-1.1-2.6-2-2.9-3.4c-0.4-1.5,0.6-3.1,2-3.4c2.4-0.4,5,0,7.4-0.9c0.4-0.1,1,0.1,1.4,0.3
	c1.8,0.6,3.5,0.6,5.3-0.1c1.8-0.7,3.7-0.6,5.4-0.2c1.6,0.4,3.2,0.2,4.8,0.4c1.5,0.2,3,0.2,4.4,0.4c1.8,0.2,3.6,0.7,5.3,0.9
	c1.8,0.2,3.7-0.2,5.3,0.8c0.3,0.2,0.6,0.2,1,0.2c5.2-0.5,10.2,1,15.3,1.1c2,0,3.9-0.1,5.9,0.8c0.9,0.4,2,0.3,3,0.3
	c2.5,0.1,4.9,0,7.3,0.8c1.8,0.6,3.9,0.2,5.9,0.2c1.5,0,2.9,0,4.4,0.6c2,0.9,4.3,0.4,6.5,0.5c2.4,1.3,5.1,1.8,8,2.1
	c6.7,0.7,13.4,1.7,19.9,3.3c0.2,0,0.3,0.2,0.5,0.2c6.1,0.1,11.9,2.3,17.9,3.3c3.4,0.6,6.8,1.2,10.1,1c0.5,0.2,0.9,0.2,1.1,0.4
	c2.9,2.1,3,3.6,0.4,5.8c-1,0.9-2.3,1.4-3.1,2.4c-1.7,2.2-3.9,2.5-6.2,1.9c-1.7-0.4-3.8-0.3-4.9-2.5c0-1.1,0-2.4,0-3.9
	c-0.5-0.3-1-1-1.5-1c-3.5-0.1-6.7-1.9-10.2-1.4c-0.6,0.1-1.3-0.2-1.9-0.4c-6.5-1.8-13.1-3.2-19.9-3.7c-2.9-0.2-5.8-0.7-8.7-1.4
	c-3.2-0.8-6.4-1.3-9.6-2.1c-2.4-0.6-5-0.5-7.4,0.2c-1,0.3-1.9,0.2-2.9-0.1c-0.9-0.3-2-0.2-2.9-0.2c-3.3,0-6.6,0.3-9.8-1
	c-1-0.4-2.2-0.2-3.4,0.2c-3.7,1.1-7.4,1.2-11.1-0.2c-3.1-1.2-6.3-1.8-9.7-0.4c-0.8,0.3-2,0.1-2.9,0c-1.3-0.2-2.7-0.4-3.8-1
	c-1.6-0.8-3.2-0.7-4.8-0.6c-1.8,0.1-3.6-0.2-5.4,0.5c-1.7-0.8-3.3-1.6-4.9-2.4c-1.7,0.5-3,1.6-4.3,2.6
	C404.4,25.8,402.4,24.7,400.3,24.9z"/>
<path class="st0" d="M517.6,43.4c0.4,0.8,0.6,1.4,1,2c-0.8,2.8-3.3,4.4-5.1,6.5c-0.4,0.4-1.3,0.8-1.8,0.6c-2.6-0.8-5.3-0.2-7.9-0.7
	c-1-0.2-1.9-0.7-3-1.1c-0.8-0.9-1.7-2.1-2.7-3.2c-2.4-0.7-4.9-0.9-7.1-2.1c-1.1-0.6-2.3-0.4-3.4-0.5c-3-0.1-5.9,0.2-8.8-0.7
	c-1.1-0.4-2.3-0.2-3.5-0.3c-1-0.1-2,0.1-3-0.2c-4.9-1.4-9.9-0.6-14.8-0.7c-1.2,0-2.2,0.5-3.3,0.8c-1.9,0.6-3.8,1.1-5.8,1.1
	c-9.1,0-18.2,0-27.5,0c-2.2-1.5-1.5-3.7-1.3-5.7c1.5-1.3,3.1-2.1,5-2.2c2.5-0.1,5,0.1,7.3-0.9c0.6-0.2,1.3-0.1,2-0.1
	c9.6,0,19.2,0,28.9,0c0.5,0,1-0.1,1.5,0c3.2,1.2,6.5,0.6,9.8,0.9c2.1,0.2,4.2,0.8,6.3,1c4.1,0.4,8.3,0.4,12.3,1.2
	c3.4,0.6,6.9,0.8,10.2,1.5c3.5,0.8,7.2,1,10.8,1.3C515,42.1,516.2,42.5,517.6,43.4z"/>
<path class="st0" d="M503.9,60.8c-0.4,0.5-0.6,0.9-0.8,0.9c-1,0.1-2,0.2-3,0.1c-2.9-0.5-5.8-1.1-8.7-1.6c-0.6-0.1-1.3-0.2-2-0.2
	c-4.5-0.1-8.9-0.1-13.4-0.2c-2.7-0.1-5.3,0.3-7.3,1.9c-1.4,0.2-2.5,0.1-3.6-0.4c-1.6-0.6-3.2-0.6-4.8,0.1c-0.3,0.1-0.6,0.3-0.9,0.3
	c-2.5,0.1-5.1-0.3-7.4,0.4c-2.5,0.8-4.9,0.7-7.3,0.7c-2.8,0-5.6-0.6-8.3,0.8c-0.5,0.3-1.3,0.1-2,0.1c-3.3,0-6.6,0-9.9,0
	c-2-0.8-4-1.6-6-2.4c-1.3-2.5-1.3-2.5,1.1-5.2c5.4-0.2,10.9-1.9,16.5-1.3c1.9,0.2,4,0.3,5.9-0.7c0.4-0.2,1-0.1,1.5-0.1
	c5,0,9.9,0,14.9,0c5.5,1.5,11.2,0.5,16.8,0.7c3.1,0.1,6.2,0,9.3,0.9c2,0.6,4.3,0.4,6.4,0.2c3.8-0.3,7.1,1.3,10.6,2.3
	C502.5,58.5,503.4,59.4,503.9,60.8z"/>
<path class="st0" d="M781.2,162.5c-1.1,0.3-2,0.7-3,0.8c-1.1,0.1-2.3,0-3.6,0c-2.3-1.4-5.1-2.1-6.6-4.6c-0.4-1.4,0.2-2.5,1.3-3
	c1.8-0.8,3.6-1.6,5.7-1.5c2,0.1,4,0.1,6,0c3.2-0.1,6.2,0.9,9,2.2c2.1,1,4,2.4,6.3,2.9c2.3,0.4,4.5,0.7,6.8,1c2.3,0.3,4.5,0.7,6.8,1
	c1,0.1,2-0.1,2.8-0.1c1.2-1.3,0.9-2.6,0.5-3.8c-0.5-1.3-1.2-2.4-2.5-2.9c-1.1-0.4-2.2-0.8-3.3-1.1c-3-0.8-4.9-1.9-7.5-4.6
	c-0.5-2.4-0.1-4.7,1.6-6.8c5.9-2.6,12.1-1.4,17.8-1.8c5.4,2.9,5.4,2.9,7.7,6.4c0.1,1.6-0.8,2.8-1.9,3.8c-1.2,1-1.8,2.3-2.4,3.9
	c0.3,0.5,0.5,1.1,1,1.5c1.9,1.7,3.2,3.7,4.2,6.1c2.9,1.2,5.8,2.5,8.4,4.3c0.7,0.4,1.5,0.9,2.3,1c2.4,0.1,4.4,1.3,6.4,2.4
	c1.6,0.8,3.2,1.6,5,2.1c1.6,0.4,3.2,1.1,4.4,2.2c1.5,1.3,3.7,1.4,5.1,3c1.3,1.5,2.9,2.7,4.6,4.2c2.7,0.2,5.6,0.9,7.9,2.7
	c0.6,1.1,0.6,2.1,0.4,3c-0.3,1.6-0.7,3.2-1.2,4.8c-0.3,1-1,1.7-2.5,1.7c-1.8-1.1-4-2.2-5.8-4.1c-0.8-0.8-1.8-1.4-2.7-2.1
	c-4.6-3.5-9.7-6.3-14.7-9.1c-3.3-1.8-6.7-3.5-10.4-4.4c-2.1-0.5-4.1-1.2-6-2.2c-4.6-2.4-9.5-2.6-14.4-1.6c-2,0.4-3.9,0.3-5.9,0
	c-3.4-0.5-6.7-1.6-10-2.6c-3.5-1-6.9-2-10.4-2.9C786,163.8,783.8,163.2,781.2,162.5z"/>
<path class="st0" d="M868.3,110.7c0.1,3.4,0.4,6.7-0.8,9.9c-1.4,3.6-3.6,6.6-6.8,8.8c-0.8,0.5-1.8,0.9-2.7,1.2
	c-2.5,0.7-5.1,1.3-7.6,1.8c-1.1,0.2-2.3,0-3.4-0.5c-2.5-1.1-4.6-2.5-6-4.5c-1.9-4.4-1.4-8.6-0.1-13.4c2-2.5,4.5-5.2,8.2-6.7
	c2-0.8,3.8-1.8,5.7-2.9c1.7-0.9,3.4-0.9,5.3-0.4c4.8,1.3,4.8,1.3,7.5,5.5C867.8,109.8,868,110.1,868.3,110.7z"/>
<path class="st0" d="M801.5,107.6c0.6,3.8-0.5,6.5-3.1,8.8c-0.6,0.5-1.1,1.2-1.7,1.8c-5.9,6-14.2,6-20.1,0c-0.6-0.6-1-1.3-1.6-2
	c-0.4-2.4-0.2-4.9-0.2-7.3c0-1.4,0.4-2.7,1.2-3.7c4.8-6.1,11.3-9.5,19.4-5.5c2,1,3.6,2.3,4.1,4.6C799.9,105.5,801,106.3,801.5,107.6
	z"/>
<path class="st0" d="M857.8,143.8c0.8-0.1,1.3-0.3,1.8-0.3c0.6,0,1.3,0,1.9,0c1.6,1,2.8,2.3,3.8,4c-0.4,1.5-0.7,3.1-1.2,4.6
	c-0.3,1.1-1.7,1.7-2.8,1.3c-1.9-0.8-3.8-1.7-5.7-2.6C854.8,148,856.7,146.2,857.8,143.8z"/>
<path class="st0" d="M849.2,154.9c-3,2-5.7,1.9-8.5,0.2c-0.3-0.6-0.6-1.2-0.8-1.8c0.1-1.4,0.8-2.5,2-3.4c0.9-0.6,2.1-0.4,3.2-0.5
	c1.6,0,2.8,0.7,3.8,1.9C849.7,152.4,849.5,153.5,849.2,154.9z"/>
<path class="st0" d="M858.4,169c-2.9,0.9-3.7-0.8-4.7-2.2c-0.3-1.2-0.4-2.3-0.2-3.5c0.8-1.9,2.5-2,4.2-2c1.7,0,3.3,0.3,3.6,2.8
	C860.5,165.7,859.5,167.3,858.4,169z"/>
<path class="st0" d="M760.3,136.7c4-0.2,4-0.2,6.1,2c-0.1,2.8-2.7,3.3-4.2,4.6c-1.7,0.2-3.2,0.3-4-1.3c-0.9-1.7-0.1-3.2,1.1-4.4
	C759.5,137.3,759.9,137,760.3,136.7z"/>
<path class="st0" d="M773.5,135.1c-1.3-1.8-0.8-3.4-0.6-4.8c1.1-1.8,2.9-1.8,4.4-2.3c1.2,0.6,2.2,1.5,2.5,2.9
	c0.4,1.8-0.5,3.2-1.6,4.4C776.6,135.8,775.2,135.8,773.5,135.1z"/>
<path class="st0" d="M777.4,147.2c-1.3,0.3-2.3,0.6-3.3,0.8c-0.7-0.4-1.4-0.7-1.8-1c-0.7-1.2-0.7-2.2-0.5-3.2c0.4-2,2.1-3.4,4.2-3.3
	c1.7,0.1,2.8,1.2,2.7,2.8c0,0.5,0,1-0.2,1.5C778.2,145.6,777.8,146.3,777.4,147.2z"/>
<path class="st0" d="M588.9,107.6c2,2,3.8,3.8,5.7,5.7c1.5,1.5,3,3.1,4.9,4.2c1.6,0.9,2.7,2.3,3.8,3.7c0.3,1.2-0.5,2-1,3.1
	c-0.9,0.4-1.9,0.9-2.8,1.3c-3.8-0.8-7-2.5-10.4-4.3c-0.9-2.6-3.8-3.8-5.2-6.1C583.3,110.4,584,109.4,588.9,107.6z"/>
<path class="st0" d="M613.4,115.4c0,2.1,0,4.2,0,6.2c-1,1.3-2.2,1.3-3.2,0.8c-2-0.9-3.7-2-4.9-4c-1.2-2-2.6-3.8-4.1-5.6
	c-1.2-1.5-2-3.4-2.7-5.2c-0.8-2.3,0.7-5.1,2.6-5.8c0.4-0.2,1,0,1.3,0.1C606.9,105.9,609.7,111,613.4,115.4z"/>
<path class="st0" d="M584.3,126.1c-0.5,1.6-1,2.6-2.1,3.2c-0.9,0.5-1.9,0.4-2.9,0.3c-1.4-1-2.6-2.1-3.4-3.6
	c-0.9-1.8-2.4-3.1-3.8-4.5c-3.3-3.2-3.5-3.5-5.4-8.9c0.3-0.4,0.5-1,1-1.5c0.7-0.7,1.4-1.4,2.4-1.4c0.4,0.1,0.7,0.1,1,0.2
	c1.1,0.7,7.1,6.3,7.8,7.3c1.2,1.6,2.3,3.2,3.6,4.7C583.6,123.2,583.6,124.7,584.3,126.1z"/>
<path class="st0" d="M611.7,100.5c0.9-1.6,2.1-1.9,4-1.6c2.5,1.7,5.1,3.9,8.2,5.2c1.2,3.7,0.8,7.7,4.2,9.7c-0.4,1.5-0.6,2.6-1,3.7
	c-0.6,1.4-3,1.7-3.7,0.4c-1.3-2.4-3.1-4.6-4.1-7.3c-0.5-1.4-1.2-2.5-2.6-3.4c-1.3-0.9-2.3-2.3-3.5-3.5
	C612.4,102.9,611.9,101.8,611.7,100.5z"/>
</svg>
