<?xml version="1.0" encoding="utf-8"?>
<!-- Generator: Adobe Illustrator 16.0.0, SVG Export Plug-In . SVG Version: 6.00 Build 0)  -->
<!DOCTYPE svg PUBLIC "-//W3C//DTD SVG 1.1//EN" "http://www.w3.org/Graphics/SVG/1.1/DTD/svg11.dtd">
<svg version="1.1" id="Layer_1" xmlns="http://www.w3.org/2000/svg" xmlns:xlink="http://www.w3.org/1999/xlink" x="0px" y="0px"
	 width="1000px" height="625px" viewBox="0 0 1000 625" style="enable-background:new 0 0 1000 625;" xml:space="preserve">
<style type="text/css">
<![CDATA[
	.st0{fill-rule:evenodd;clip-rule:evenodd;}
]]>
</style>
<path class="st0" d="M856.4,84.9c6.4,3.1,15.3,9.6,22.1,11c8.9,1.8,7.3,14.5,11.3,20.2c9.6,13.4,26.2,10.4,39.9,16.4
	c13.8,6,25,16.2,18.6,32c-2.3,5.8-6.7,12.8-11.1,17c-8.7,8.2,1.4,8.3,8,8.2c6.8-0.1,14.2-2.1,20.7,0.6c6.4,2.6,12.5,5.8,18.9,8.4
	c7,2.8,9.8,4.4,14.8,10.4c2.1,7.7-8.1,12.2-13.7,13.9c-6.1,1.8-13,4.3-19.3,5.1c-7.3,1-13.6,6.2-20.9,7c-5.3,0.6-11.2,4.4-15.8,6.9
	c-7.5,4-15.5,5.5-23.4,9.4c-23.8,11.8-47,30.6-56.6,55.7c3.7,8.8-1.7,12.4-2.5,20.5c-0.4,3.7-2.8,6.7-2.8,10.6
	c0,5.9,2.3,2.6,5.2,5.8c0.9,1.2-2.5,7.2-2.5,9.1c0,3.4-0.7,8.4,0.7,11.7c3.5,7.6,3.7,16.2,8.2,23.5c0,13.7,3.5,27.6,13.7,37.3
	c2.7,2.5,5.6,10.9,3.3,13.9c-3.4,4.5-17.4,1.2-21.5-1c-14.3-7.4-19.5-13-24-29.2c-3.7-13.3-1.6-36.1-18.9-39.9
	c-7.7-1.7-13.1-6.8-21.6-6.8c-7-4.6-12.2-1.9-19.6-1.9c-4.5,0-9,0.8-13.3,2.3c-3.1,1.1-5.8-1-8.9,0.1c-7.8,2.6-15.6,2.5-23.4,4.8
	c-7.1,2.2-14.5,3.4-21.9,4.3c-6.3,0.7-13,3.9-19.5,3.5c-5.7-0.4-14.3,3.2-19.7,5c-9.4,3.2-17.2,5.3-26.9,3.8
	c-13.4-2-29.9,6.9-43.5,7.7c-14.4,0.9-28.1-4.8-41.3-9.7c-7.5-2.8-13.2-4-15.1-13.2c-1.4-6.9,0.9-12,0-18.6
	c-1.2-9.3-0.9-12.1-8.1-19.2c-3.3-3.3-16-12.4-20.7-10.2c-7.1-2.2-15.2-2.1-21.8-4.3c-6.5-2.2-11.8,0.5-17.6-3.1
	c-2.6-0.5-4,2.1-6.8,1.3c-3.4-1-6.5-2.7-10.1-2.4c-5.7,0.4-16.3-0.9-21.8-2.6c-12.6-4-28.4-1.9-40-8.5c-5,0.3-11.2,0.4-16.1-0.7
	c-3-0.7-6.9-2.2-9.9-2.1c-4.5,0.1-6.4-1-10.4-1.5c-5.7-0.7-14.1-7-9.9-13.3c1.9-2.8,5.1-3.8,8.3-3.6c4.1-2.7,4.3-4.9,7.5-8.2
	c7.8-8.2,33.9-20,19.6-31.9c-7.4-6.1-28.2-16-26.2-27.8c0.9-5.2,5.9-2.3,5.9,1.6c3.1,7.2,9,9.3,15.6,12.7
	c5.9,3.1,12.4,7.7,17.6,11.9c2.6,2,10.5,7.6,11.5,10.3c-2.9,6.5-7.4,9.3-13.7,11.9c-5.6,2.4-15,10.9-18.7,15.7
	c-3.4,4.4,0.3,3.6,1.7,7.2c0.4,2-1.9,2.7-1.6,4.7c1.9,5.2,14.1,7.3,18.6,7.7c16.4,1.5,31.8,5.2,47.8,8.9c12.9,3,26.2,4.9,39.2,5.2
	c15.7,0.4,28.9,2.6,43.7,7.4c8.7,2.8,32.8,1.8,35.6,12.2c-1.8,5.5,0.5,12.7,0.3,18.4c-0.1,2.8-0.2,5.6-0.3,8.4
	c-0.2,4,3.3,6.5,3.5,10.5c0.4,12.6,21.1,16.4,30.7,13.6c15.5-4.5,33.7-1.5,49.7-5.3c12.8-3,26.4-4.3,38.9-8.3
	c14.7-4.8,29.4-11.7,44.7-14.5c11.3-2.1,24.5-9.5,36.2-9.3c7,0.2,13.5-1.6,20.5-1.6c11,0,21.8,0.7,32.7,0.8
	c9.7,0.1,10.9,3.5,14.2-7.4c1.3-4.3,1.8-6.4,5.3-9.3c0.2-3.3-0.8-5.1,0.6-8.3c2.7-6.4,6.2-11.2,11.4-15.9
	c1.9-7.9,5.5-13.9,10.1-20.6c7.3-10.4,20.2-16.5,28.5-25.7c5.3-5.8,13.7-9.4,20.8-12.6c8.1-3.6,17.5-9.8,26.1-11.7
	c11.8-2.6,23.3-9.4,33.5-15.4c3.2-1.9,17.1-6.8,10.3-11.9c-7.5-5.8-13.2-3.7-21.8-3.7c-11.8,5.2-19.5,7.7-32.6,7
	c-6.4-0.3-10.9-5-11.1-11.5c2.3-3.2,5.2-5.7,8.5-7.8c5-3.2,7.4-7.9,11.7-11.8c5.4-4.9,10.2-8.5,13.2-15.4c4-9.2-3.7-13.5-11.1-17.3
	c-14.1-7.3-33-5.2-47.6-0.5c-12.5,4-25.7,10-37.6,15.6c-7.4,3.5-13.8,2.3-21.9,4c-8.3,1.8-16.6,6.5-25.4,3.7
	c-5.7-1.8-14.5,4.3-20.6,4.3c-6.2-0.1-12.5,1.2-18.6,1.8c-4.7,2.2-14.9,1.9-20.2,2.5c-8.9,1.1-16.6,1.7-25.5,1.8
	c-12.5,0.2-26,2-38.2,4.1c-13.6,2.3-28.2,2.2-42.1,3c-18.8,1.1-77.5-2.6-64.4-34.8c2.8-6.8,6.2-12.3,11.3-17.9
	c6.1-6.8,5.2-9.3,15-11c17-3,35.6-7.4,52-12.8c6.4-2.1,14.4-2.2,21.1-2.9c6.2-0.7,15.7-0.1,21.2-2.8c6.1,3.3,8.7,1.6,10.9-3.5
	c3.4-8,9.1-11.5,15.1-17.5c4.5-4.6,13.8-5.8,19.8-6.7c5.8-0.9,16.7-0.1,21.7-2.8c3.4-1.8,4.5-8.7,1.9-11.4c-2.3-0.5-5.4,1.4-7.1,2.8
	c-3.9,3-7.3,0.7-11.5,0.6c-4.3-0.1-5.1,2.3-8.5-1.9c-1.3-3.9,0.5-7.1,4.7-6.8c9.9,0.8,16.1-3.7,22.5-10.4c2.6-2.7,14.3-14.8,8.5-19
	c-5.9-4.3-8.9,9.5-14.9,1.3c0.1-8.2,6.8-6.5,13.1-9.3c6.6-3,10-3.7,13.7-10.3c3-5.5,4.6-9,8.7-4.3c4.6,2.7,2.5,2,0.6,6.8
	c-2.3,5.9-1.2,5.8-0.1,11.9c0.5,3.2,13.6,9.1,9.1,12.2c-3.6,0.4-17.1-7.3-17.2-3.8c-0.1,2.9,4.9,13.2,7.2,14.8
	c5.5,3.8,13.1,6.1,5.8,10.7c-2.3-0.5-15.4-9.4-15.6-4.3c-0.2,4.9,11.3,9.9,14.6,12.4c3.3,2.5,12.9,12.6,2.1,11.5
	c-6-0.6-13.6-7.8-18.2-11.4c-8-6.3-9.7,7.1-4.3,10.3c4.2,2.5,10.7,3.4,15.4,5.4c6.1,2.6,13.6,1.8,18.3,7.7c8.3,1,18.7-1.5,27.3-1.5
	C838.6,84.8,847.5,84.9,856.4,84.9C861.2,87.2,855.3,84.9,856.4,84.9z M808.6,103c-7.3,12.4-21.2,17.2-35.1,20.3
	c-11.7,2.6-25.7,6.3-37.6,6.1c-5.6-0.1-11.2,2.2-16.7,2.5c-3.2,0.2-4.5,3-7.7,1.5c-3.1-1.5-5.6-4.8-8.3-6.9
	c-4.6-3.5-4.8-9.9-7.8-14.4c-1.7-2.5-4.6-0.7-6.4,0.5c-3.5,2.2-9.2,0.8-12.9-0.3c-4.7-1.4-13,1.9-17.8,2.7c-8.3,1.5-16.7,2.5-25,4.2
	c-14.2,2.9-31.8,6.1-43.1,16.1c-6.6,5.8,0.9,4.8,5.9,5.5c0.3,0.4-9.1,13.5-10.1,15.5c0,20.7,20.9,15.3,35.5,18.8
	c10.6,2.5,23.8-1.2,34.6-2.1c6.2-0.5,11.8-0.9,18.3-2.2c8.7-1.8,15.3-1,24.1-1.1c3.7-0.1,7.3-1,11-1c2.1-0.6,4.1-3.7,6.5-2.6
	c5.8,2.7,11.6,0.9,17.2,0.1c7-1,13.7-1.6,20.8-2.9c6.7-1.2,16.2-0.1,22.4-2.7c4.9-2.1,13.1-2.2,18.3-3.3c8.1-1.7,16.3-2.7,24.5-4.2
	c13-2.3,31.6-8.3,42.3-16.2c6-4.5,11.1-8.5,10.1-16.4c-0.9-7.3-8.7-12-8.3-19.2c0.7-12-34.8-8.4-41.5-7.9c-3.1,0.2-6.1-0.2-9,1.2
	C810.5,97.9,813.4,100,808.6,103C807.1,105.4,810.5,101.8,808.6,103z M729.8,84.7c-10.3,0-14.3,2.6-22.5,8.9
	c-4.1,3.1-6.8,15.3-4.3,19.8c7,12.7,36.4,5.3,48.4,2c7.7-2.1,46.9-4.9,40.3-18.2c-10.9-6-19.8-10.2-32-12.4
	C751.9,83.3,736.5,80,729.8,84.7C727.4,84.7,730.5,84.2,729.8,84.7z"/>
<path class="st0" d="M242.6,135.7c-3.2-2.6-6.7,0.6-10.2,0.8c-6,0.4-13.1,2.6-19.2,3.5c-0.5,5.9-0.1,12,2.2,17.5
	c-2.2,6.8-7.8,2.4-8.3-2.8c-0.3-2.9-0.2-14.5-4-15.5c-4.9-1.2-9.3-5.6-10.8-10.4c-3.1-10.4,2.8-29.7,8.7-38.4
	c2.4-3.6,1.6-9.2,1.6-13.2c0-6.4,3.1-11.1,3.5-17c1.8-4.3,8.1-6.4,11.2-9.7c3.8-3.9,5.5-10.6,6.9-15.7c0.5-1.8,3.7-7.7,0.4-8.6
	c-5.8-1.6-8.9-6.8-6.9-12.6c2.4-7,9.3-4.6,14.4-2.1c1.9,4.4-2.7,9.5,0.6,13.4c3.7,4.4,7.2,21.2,13.8,13.8c1.9-2.1,16.2-20.5,15.3-22
	c-6.7-10.5,18-7.8,5.4,2.3c-2.9,2.3-2.5,21.8-2.5,26.8c0,4.4-1.2,11.5,0.7,15.6c0.2,2,0,4-0.4,5.9c0.2,2.9,2.5,5.2,2.9,8.1
	c1,7.2,1,8.2-2.4,14.7c-4.1,8-4,11.3,0.4,19.7c5.4,10.4-1.3,20-12.4,21c-5.6,0.5-3.4,9.5-3.4,13.3C246,153,242.9,137.7,242.6,135.7
	C240.9,134.3,242.9,138.1,242.6,135.7z M255.4,98.9c-3.8-1.5-14.5,5.2-19,5.8c-5.9,0.8-15.6,1.5-21.1-1.3c-5.3-2.6-8.4-7.8-12.2-1.8
	c-3.9,6.2-4.1,13.1-4.1,20.4c0,16.2,22,10.2,32.3,7.5c8.6-2.2,17.1-4.9,25.5-7.7C264.3,115.4,259.3,106.5,255.4,98.9
	C254.3,98.4,258.1,104.1,255.4,98.9z M263,76c-9-15.1-53.9-16.4-54.3,5.9C208.1,109.3,262.9,101.9,263,76
	C262.6,75.5,263,81.2,263,76z M255.6,62c1.8-3.7,3.5-20.8,0.8-23.3c-6.6,6.2-7.5,15.6-16.2,11c-6.3-3.4-9-16.8-12.4-3.3
	c-1.1,4.2-1.2,9.4-6.1,11c-4.6,1.5,0.5,3,2.4,3c5.5,0.2,10.9-0.5,16.4-0.8C245.7,59.1,250.7,62.9,255.6,62
	C256,61.2,253.7,62.3,255.6,62z"/>
<path class="st0" d="M577.9,50c-8.9-1.1-12.1-5.6-16.5,4.5c-2.5,5.9-5.4,11.7-7.8,17.5c-1.4,3.4-3.3,6.6-5.1,9.7
	c-1.8,3.2-1.6,5.6-3.2,8.9c-1.5,3.1-3.5-1.5-3.2-2.8c2.3-2.8,1.8-4.1,1.8-7.8c3.4-5.7,4.5-11.7,6.9-18c2.3-6.1,6.1-11.9,8-18
	c1.1-3.4-1.5-14.1,5.7-10.9c7.2,3.2,14.7,6.6,19.6,12.7c6.1,7.6,18.8-31.6,22.9-32.9c15.3,3.7,22.4,13.4,33.7,23.6
	c7.2,6.5,7.6,0.4,10.8-5.2c3.5-6,7.5-11.8,10.8-17.9c3-5.5,4.3-9.7,11.1-6.1c6.6,3.5,5.5,10.1,10.1,15.1c8.9,9.8,16.8,17.9,22,29.5
	c3.8,8.6-5.2,6.6-8.7,1.9c-2-2.7-5-3.9-7.5-6c-4.4-3.7-6.8-8.8-10-13.5c-1.3-1.9-9-15.4-11.7-9.7c-3.1,6.5-7.9,11.9-11.3,18.2
	c-2.9,5.4-6.9,10.8-10.8,15.6c-4.7,5.8-7,15-13.7,4.9c1-4.4,8.5-9.5,7.6-13.7c-0.9-4.1-9.4-7.7-10.3-11.1
	c-1.4-5.4-7.3-10.6-11.8-13.6c-6.8-4.5-12.1,9.3-15.1,13c-3.1,3.9-11,12.7-7.9,17.4c2.5,3.9,11.5,8.2,15.6,9.8
	c2,0.8,2.7,3.6,3.6,5.3c2.6,2.6,5.8,3.9,8.8,5.9c9.9,6.5-1.1,9.1-7.5,4.7C601.3,72.4,589.6,62,577.9,50
	C574.8,49.6,581.2,53.4,577.9,50z"/>
<path class="st0" d="M159.9,96.9c-5.5,9,1.1,15.1,7.8,19.8c2.3,1.6,10,4.8,10.9,7.1c1,6.1-7.5,1.9-9.6,1.3c-5.1-1.5-7.8-4.8-5.6,3.6
	c1.5,5.7,8.5,14.1,6.9,19.5c-1.5,5.2-4.7,2.8-6.6,7.4c-1.6,3.8,0.4,10.9,1.5,14.8c1,3.7,3,7.4-2.4,6.9c-4.3-2.8-4.2-9.7-4.8-14.3
	c-1-7,2.4-11.2-6.5-11.1c-6.5,0.1-4,9.6-4.1,12.8c-0.1,2.7,6.1,6.9,1.6,9c-3.6,1.7-9.3-4.2-7.6-7.8c1.1-2.4-0.1-8.1-0.1-10.8
	c-0.1-3.8-6.3-2.8-8.5-4.9c-6.8-6.5,4.7-23.3-2.3-29.6c-2.8,0.5-3.5,3-3.3,5.5c0.2,4.4-4.8,4.4-5.4,0.6c-0.6-3.8,2.3-6.8,4.5-9.5
	c4.5-5.7,6.6-8.3,7.6-15.8c0.5-3.7,2.4-9.8-1-12.4c-3.7-2.8-8.8-1.4-10.1-7.2c-1.6-6.7,2.4-25,8.9-28.2c3.8-1.9,2.9-6.7,8.8-5.7
	c3.6,0.6,10.7,4.3,13.3,6.7c7.4,1.5,13.1,17,15.2,23.2c0.6,1.6,3.9,7.2,3.7,8.5C172.2,90.1,162.8,94.5,159.9,96.9
	C158.4,99.3,161.1,95.9,159.9,96.9z M148.5,105.4c-2.4-3.2-0.5-7.3-1.3-10.8c-0.9-2.1-2.8-2.4-5.6-0.9c-3.3,2.8-1.6,6.4-1.3,10
	c0.9,12.3-6.6,27.9-1.8,40.4c1,2.7,12.9,1,15.4,0.9c2.2-1.2,7.8,1,7.3-2.9c-0.3-2.7-2.4-5.4-3.2-8c-2-6.1-1.8-12.6-3.8-18.6
	C152.4,109.4,152.9,108.8,148.5,105.4C147.6,104.2,149.5,106.1,148.5,105.4z M128.2,68.5c-1.6,6.2,0.7,15.3,8.2,15.3
	c7.8,2.9,12.1,11.2,9.8-3c-1-5.9-3.8-12-6.5-17.2C135.2,55.2,131.7,63.7,128.2,68.5C127.3,72.1,128.5,68.2,128.2,68.5z M162.8,86.5
	c1.2-5.8-3.9-13.6-6.3-18.6c-1.5-3.2-14.7-13.7-11.2-5.4c2.4,5.7,3.1,12.3,4.9,17.8c1.1,3.2,1.1,7.8,1.5,11.1
	C152.3,96.9,161.9,87.2,162.8,86.5C163.2,84.7,160.4,88.4,162.8,86.5z"/>
<path class="st0" d="M66.4,160.7c-2-3.9-7.9-2.3-11-0.5c-1.3,4.6,4,11.1,2.1,14.9c-1.8,3.7-5.9,1.3-6.8-1.6
	c-1.7-5.9-1.1-14.3-9.2-12.5c-1.7,0.4-10.2,0.2-9.3,3.4c1.2,4.5,6.4,14.6-2.8,13c-1.6-0.9-3.5-8.3-2.7-10c-1.4-5-7.8-8.5-7.6-13.5
	c0.1-2.2,2.2-10.7-0.3-11.5c-4.5-1.3-10,0.1-14.7-1.2c-4.8-1.3-5.6-3.2-0.9-5.6c4.1,1.9,12.9,1.8,17,0.6c5-1.5,17.7-58.4,28.6-47.7
	c0.2,9.8,8.4,23.2,19,15.2c5.9-4.4,13.6-13.6,14.7-21.2c0.4-2.9,3.5-2.3,5.3-1.9c3.8,2.4,2.2,11.7,0.8,15.1
	c-3,7.6-1.3,21.8-1.1,29.9c0.2,8.5,4.1,17.7,6.2,25.8c1.2,4.4,2.5,7.5,5.4,11.1c1.5,1.8-1.5,13.9-4.2,13.9c-3.4-0.1-5.3-8.7-6-11
	c-2-1.6-11.8-5.8-14-4.6c-4.2,2.2,5,12.5-2.7,13C67.8,174.1,66.5,163.5,66.4,160.7C65.8,159.5,66.5,163,66.4,160.7z M26.9,153
	c3.6,4.2,21.1,2.1,25.4,0.5c9.9-3.6,19.2,0.8,28.8,2c4.5,0.6,7.4,4.4,5.9-3.1c-1.2-6.1-2.2-12.3-3.5-18.4c-2-9.1-2.9-19.1-2.9-28.3
	c0-9.3-10.7,1.8-14.7,4.5c-3.2,2.1-6.7,2.8-10.1,1.1c-3.5-1.7-9.3-11-11.2-11.4c-5.6,1.5-8.8,14.3-10.7,19.1
	C29.7,129.4,26.9,141.8,26.9,153C27.7,154,26.9,151.5,26.9,153z"/>
<path class="st0" d="M262,319.9c-5.6,11-17.7-2.9-25.7-1.8c-4.5,0.6-40.2-9.1-33.1-13.9c5.7-0.2,36.5,6.5,30.3-6.3
	c-2.8-5.9-6.5-11.1-7.9-17.7c-2.4-10.5-1.7-10.2,7.7-10.9c4.5,2.3,3.6,5.8,3.4,9.9c0.3,1.1,8.4,19.7,10.3,11.9
	c1.4-6,5.6-11.9,7.4-18c1.3-4.6,2.8-14.5,6.8-17.5c2.4-1.8,8.2,1.7,7.3,5c-0.7,2.6,1.9,3.8,1.1,5.6c-1.4,3.3-4.5,8-4.7,11.6
	c-0.4,7-4.5,13.9-5.3,21C258.9,306.1,259.7,312.9,262,319.9C261.2,321.5,261.6,318.6,262,319.9z"/>
<path class="st0" d="M774.7,239.9c-14.2-2.8-21.2-3-31.7-13.2c-11.2-10.8-6.9-21.5,8.2-26.2c13.2-4.1,28.8-1.9,36.3,10.5
	C793.7,221.1,789.4,239.9,774.7,239.9C771.1,239.2,777.9,239.9,774.7,239.9z M749.3,219.6c7.7,10.3,30.6,19.7,34.7,1.2
	C778.7,208.7,752.4,203.3,749.3,219.6C751.4,222.4,749.7,217.5,749.3,219.6z"/>
<path class="st0" d="M25.9,501.1c2.8,5.8,0.5,10.9,1.3,17.1c0.8,6.3,11.6-3.3,13.1-4.3c6-4.2,12.1-8.2,17.8-12.8
	c8.9-7.3,5.5,5.4,1.1,9.1c-5,4.4-11.1,7.4-16.6,11.1c-6.1,4.2,4.8,12.4,8.3,15.6c4,3.8,9,6.4,12.8,10.3c-2.6,5.2-2.7,8.1-8.3,3.2
	c-5-4.4-10-8.9-14.6-13.9c-2.6-2.8-4.3-6.2-8.2-4.5c-2.3,1-4.8,2.5-4.6,5.5c0.4,5-0.3,11.6,1.5,16.4c1.1,2.9-4.2,8.9-6.3,6.3
	c-6-7.4,0.3-24.4-1.6-32.8C20.6,523.4,17.2,496.7,25.9,501.1C26.4,502.3,25.2,500.8,25.9,501.1z"/>
<path class="st0" d="M230.5,612.6c-5,10.7-12.8,8.2-22.2,11.2c-5.1,1.7-23.3,2.4-24.9-4.1c-1.9-7.6,1.5-15.5-0.4-23.2
	c-2.7-10.6,2.4-8.4,12.2-11.2c4.5-1.3,19.9-9.1,23.5-4.5c4.7,6.1-18.9,10.7-22.7,11.8c-3.1,0.9-8.9,3.9-4.4,7.8c5,0.3,10-0.7,15.1-1
	C215.9,599,230.5,600.8,230.5,612.6C229.9,613.7,230.5,611.2,230.5,612.6z M191.2,618.1c4.6,4.2,34.6,1.6,31.4-8
	c-4.8-6.3-14.2-4.8-20.9-3.1C193.8,608.9,191.2,609.1,191.2,618.1C192.9,619.6,191.2,616.7,191.2,618.1z"/>
<path class="st0" d="M227.9,511.4c3.3,1.1,8.2,4.4,4.3,8.4c-3.9,1.2-10-1.8-13.6,1.5c-5.6,5.1-23.2,3.7-16.6,16
	c3.5,1.1,6.4-1.6,9.9-1.5c5.5,0,11.5-0.7,16.9,0.2c7.4,1.3,14,11.6,7.5,17.5c-8.5,7.7-16.5,6.5-27.3,6.7
	c-10.4-4.4-15.3-1.4-15.1-15.7c0.1-5.1-4.3-23.4,4.8-23.5C207.7,520.8,219.7,514.8,227.9,511.4C229.9,512.1,226.5,512,227.9,511.4z
	 M217,540c-2.1,0.9-14.8,4.2-14.4,7.3c0.8,6.8,8.2,8.5,14.1,8.7c6.8,0.1,10.6-1.3,14.4-6.9C232.8,541.3,221.5,541.8,217,540
	C212.9,541.7,219.6,541.1,217,540z"/>
<path class="st0" d="M131.4,531c1.7-4.6,16.1-8.3,20.3-8.3c8.8,0,15.1,0.2,21.7,6.3c4.6,7.6,0.9,14.8-5.2,19.7
	c-6,4.8-15.9,1.5-20.7,5.6c-2.2,1.9-0.6,15.6,2.5,15.7c3.8,0.2,4.6,6.2,1,6c-4.7-0.2-5.9,1.5-11.2-0.2c-5.1-4.9,0.3-15.2-2.5-20.1
	C133.2,548.5,133.9,538.7,131.4,531C132.2,529,131.8,532.2,131.4,531z M168.1,533.7c-5.8-7.9-30.8-6.2-26.8,6.4
	c0.9,2.9-0.8,8,3.1,9.5c3.9,0.4,7.6-1,11.5-0.9c1.5,0.1,6.2-2.6,7.5-3.3C169.9,541.6,167.9,539.7,168.1,533.7
	C166.1,531.1,168,535.7,168.1,533.7z"/>
<path class="st0" d="M573.5,517.7c1.6,10.3-5.6,9-12.9,10.8c-4.3,1.1-8.6,1.8-12.9,3.1c-2.6,3.6,2.3,6.8,5.4,6.8
	c9.4,0,18.6,1.9,27.9,2.7c1.1,1.4,7.8,4,5,6.3c-2.2,1.9-7-0.1-9.4-0.2c-14.8-0.9-42.3,1.4-38.7-21c1.2-7.3,3.1-14.4,10.2-17.5
	C556.9,504.8,567.9,511.6,573.5,517.7C573.6,518.3,573,517.1,573.5,517.7z M554,514.8c-5.8,3.3-10.8,12.7-0.1,8.5
	c0.9-0.4,11.8-2.1,8.9-5C559.5,515.1,558.5,514.8,554,514.8C552.5,515.6,555.9,514.8,554,514.8z"/>
<path class="st0" d="M510.9,508.9c10.1-2.8,9.1,14.7,10.8,20.8c2.3,8.4,16.7,13.9,3.8,19.1c-7.4,2.9-10.8-20.4-13.1-23.9
	c-1.8-2.7-14.6,12.4-17.5,14.5c-9.7,6.9-11.1-0.5-14.6-8c-1.4-3.1-9.2-24.6-1.3-24.6c8.4,0,4,28.3,12.5,26.3
	C501,527,503.1,515.7,510.9,508.9C513.7,508.2,508.9,510.6,510.9,508.9z"/>
<path class="st0" d="M471.1,601.1c-3.6,0.3-16.2,1.3-18.2,4.7c-3,5.2,2.1,12.6-8.5,9.4c-8-2.4,3.7-28.2,7.7-32
	c5.7-5.5,6.2-11.6,14.3-3.9c4.9,4.7,8.5,11.3,11.8,17.3c2.2,4,10.3,12.4,6.5,16.1C478.8,618.6,474.9,604,471.1,601.1
	C467.5,601.4,472.6,602.2,471.1,601.1z M468.3,593.4c-6.2-8.3-9.4-12.8-12.3-0.1C455,597.9,467.2,596.6,468.3,593.4
	C467,591.6,467.6,595.5,468.3,593.4z"/>
<path class="st0" d="M82.5,556.6c-10.7,0-4.2-8.4-2.5-14.9c1.7-6.5,5-13.6,8.2-19.4c11.6-21.1,15,9,22.8,16.5
	c3.9,3.7,7.9,13,9.7,18.1c-4.3,8.8-9.4-2.9-11.1-6c-4.2-7.8-6.9-4-15.3-4.7c-2.1-0.2-6.1-1.7-8.2,0
	C83.1,548.8,86.1,554.3,82.5,556.6C81.2,556.6,83.3,556.1,82.5,556.6z M88.1,537.9c3.7,4.3,18.7,4.5,13-3.8
	C92.5,521.7,94.7,529.5,88.1,537.9C90,540.1,89.5,536.2,88.1,537.9z"/>
<path class="st0" d="M459.4,510.8c-7.1,3.8-21,9.4-12.3,16.8c4.9,4.2,10.6,6.9,15.5,10.8c3.3,2.7,5,8.1-1.5,6.8
	c-5.7-1.2-23.9-16.7-26.8-15.3c-3,5.6-6.1,6.1-2.2,12.1c2.1,3.3,0,8.3-4,5.6c-7-4.8-7-19.2-8.3-26.9c-0.5-2.9-2.6-9.8-0.6-12.2
	c4.2-4.9,5.5,11.1,5.5,12.2c0.8,14.5,10.6,1.9,16.7-3.8C444.9,513.7,460.9,498.5,459.4,510.8C457.4,511.9,459.5,509.9,459.4,510.8z"
	/>
<path class="st0" d="M324.3,532.3c5.6-0.3,10.8-0.9,16.3-1.8c5.4-0.9,4.1-10.5,4.1-14.3c0-2.7,1.8-8.8,5.2-4.2
	c0.3,4.3-0.7,8.3-0.8,12.6c-0.1,5.5-0.5,11.1,2,16.2c2.2,4.6,6.3,9.3,3,13.4c-5.3,6.6-9.2-7.6-10-12c-1.3-7.1-3.5-5.1-9.4-3.4
	c-3.4,1-7.8-0.3-10.7,1.4c-2.8,4.8,3.9,9.9-3,13c-9.5-3.4-5.3-23.9-5.4-32.4c0-3.1,1.9-4.2,4.7-4
	C324.1,520.9,317.7,529.1,324.3,532.3C326.9,532.1,323,531.7,324.3,532.3z"/>
<path class="st0" d="M292.9,530.7c4.9,12-6.2,17.8-16.1,20.4c-5.9,1.6-12.2,3.6-17.3-0.9c-4-3.5-2.7-5.4-4.6-9.3
	c-4.5-9.2,8.1-15.2,13.8-18.6C276.7,517.7,288.1,523.9,292.9,530.7C293.9,533,291,527.9,292.9,530.7z M263.5,545.1
	c9.2,4.9,29.6-4.6,19.7-15.3C273.5,519.5,257.4,534.4,263.5,545.1C266.9,546.9,262.7,543.7,263.5,545.1z"/>
<path class="st0" d="M349.7,616.1c-2.8-2.4-6.9-3-9.1-6.3c-2-5.5-2.1-9.1-2.2-14.7c-0.1-10.3,13-11.6,20.7-10.4
	c8.5,1.3,18.9,11.9,11.4,20.4C364.3,612.3,359.1,615.2,349.7,616.1C346.8,613.6,352.9,615.8,349.7,616.1z M362.8,592.1
	c-5.4-3-12.3-5.5-16.2,0.9c-1.6,4.4-1.9,10.2,1.3,13.9c4.4,5,9.8,1.4,14-1.9C368,600.2,366.5,597.7,362.8,592.1
	C358.7,589.8,364,593.9,362.8,592.1z"/>
<path class="st0" d="M250.3,591.1c10-3.2,17.4-1.1,26.1,4.8c3.3,7.6,2.1,18.4-7.8,20.6c-8.2,1.9-16.3,9.4-23.2-0.6
	C239.6,607.8,242.5,596.8,250.3,591.1C252,590.5,239.7,598.8,250.3,591.1z M254.7,595.7c-1.7,6.1-7.4,8-4.6,15
	c3.4,8.4,9.4,4.3,15.2,1.2C280.9,603.4,267.4,591.6,254.7,595.7C253.6,599.7,256.1,595.3,254.7,595.7z"/>
<path class="st0" d="M385.2,585.2c3.6-3.1,14.9-2.4,19.7-3c6.9-0.8,13.2-1,19.8-3.7c7,2.6,4.7,12.1-1.8,8.5
	c-5.5-3.1-14.9,0-15.9,5.9c-0.8,4.7,1.3,10.8,3,15c0.6,1.4,3.5,5.8,2.6,7.3c-1,1.5-3.9,5.2-6.1,2.9c-5.4-6-5.1-16.6-6.1-24.4
	c-0.6-4.7-1.3-5.3-5.8-4.2C392,590.2,383.7,589.9,385.2,585.2C387.2,583.5,384.9,586.1,385.2,585.2z"/>
<path class="st0" d="M406.8,541.1c10.1,4.8-12,5.2-14.3,5.2c-7.9,0-16.8,1.3-21.1-7c-6.9-13.5,11.2-25.5,23.2-22.8
	c7.8,1.8,5.9,9.2-1.6,5.4c-6.4-0.2-9.9,2.8-14.1,7.2c-2,8.4,2.4,10,9.7,10.8C393.4,540.4,402.4,543.9,406.8,541.1
	C408,541.6,405.4,542,406.8,541.1z"/>
<path class="st0" d="M305.8,595.9c-2.8,3.4-4.8,8.8-5.8,13.1c-0.8,3.5,0.5,6.7-0.2,10.1c-2.2,1-5.4,4-7.4,1.2
	c-3.9-5.4,3.4-16,5.6-21.5c1.7-4.2,4.4-15.6,10.2-12.5c4.7,2.5,7.6,9.3,10.2,13.7c2.8,4.8,11,9.7,11.5,15.4
	C323.1,627,311.7,599,305.8,595.9C305.2,596.6,306.8,596.4,305.8,595.9z"/>
<path class="st0" d="M225.1,251.6c-10.6-3.9,2.6-37.4,12.1-38.3c10.1-0.9,0.6,18.1-1.2,22.3C234,240.5,230.8,250.1,225.1,251.6
	C223.5,251,227.7,250.9,225.1,251.6z"/>
<path class="st0" d="M124.4,382.1c-5.3,7.8-12.7,13.4-18.4,20.8c-2.6,3.4-11.8,19.5-12.9,6.3c-0.8-9.7,11-16.7,15.7-23.8
	C110.8,382.1,125,371.3,124.4,382.1C121.9,385.7,124.4,381.4,124.4,382.1z"/>
<path class="st0" d="M282.1,160c13.8,5-12.4,24.1-18.2,27.8c-10,0.8-6.5-9.3-2.4-13.3C267.5,168.7,275.4,164.7,282.1,160
	C285.2,161.1,278.6,162.4,282.1,160z"/>
<path class="st0" d="M346.3,355.9c0.8,4.8-6.2,12.3-8.8,16.3c-1.9,3-5.1,6.8-5.3,10.5c-3.7,3.5-9.5,2-10.4-4
	c-0.9-5.7,7.5-12.3,9.6-17.3C335.4,352,337.6,350.5,346.3,355.9C346.5,357.4,344.5,354.8,346.3,355.9z"/>
<path class="st0" d="M124.3,404.8c3.6-6.9,7.8-13.9,12.1-20.3c2.5-3.6,5.3-16.1,10-6.6c8.4,5.1-4.7,15.2-7.3,21.1
	c-1.7,3.8-6,7.5-8,11.4C127.9,412.5,124.2,407.7,124.3,404.8C124.9,403.6,124.3,407.2,124.3,404.8z"/>
<path class="st0" d="M467.4,379.4c8.9,3,8.5,6.2,1,12.3c-5.5,4.5-8.6,20.1-15.4,21.6c-11.9-2.6-2.4-8.2-0.3-14.1
	C454.6,393.9,461.8,381.4,467.4,379.4C468.9,379.9,466.4,379.8,467.4,379.4z"/>
<path class="st0" d="M321.2,142.8c-3.2-9.2,35.2-11.6,40.9-9.6c7.8,7.4-14.2,8.7-17.1,9.1C337.4,143.5,328.1,146.8,321.2,142.8
	C320.8,141.6,321.9,143.3,321.2,142.8z"/>
<path class="st0" d="M550.5,235.3c5,5.3,18.8,9.3,25.8,10.6c6.7,1.2,1.5,10-6.3,6.2c-5.8-2.9-13.3-3.4-19.4-6
	C540.2,241.5,536.1,234.6,550.5,235.3C553.3,238.2,548.9,235.2,550.5,235.3z"/>
<path class="st0" d="M190.4,500.6c-7.1,2.8-3.5-12.3-2.2-14.2c3.5-5.3,3.5-17.6,9.6-20.4c12.3-5.6,5.5,10,3.3,14.2
	C197.7,486.8,195.1,494.7,190.4,500.6C189.6,500.9,190.9,500,190.4,500.6z"/>
<path class="st0" d="M363.9,370.3c4.3-4.7,5.4-11.8,9.9-16.9c2.6-3,4.3-4.2,8.5-2c5.9,3.1-1,7.8-3.2,11.1c-4.1,6-6.7,13.1-9.8,19.5
	c-0.8,1.7-4.6,6.3-6.1,1.8C361.5,378.9,365.1,375.2,363.9,370.3C364.8,369.3,364.8,373.9,363.9,370.3z"/>
<path class="st0" d="M505.9,218.1c-12-2.6-26.1-9.9-33.7-20.1c-1.9-2.5,3.2-3.7,4.1-3.9c4.4-1.1,9,3.5,12.1,6
	C491.3,202.5,511.7,213.9,505.9,218.1C504.5,217.8,506.6,217.6,505.9,218.1z"/>
<path class="st0" d="M258.1,415.6c6.1-4.8,16,0.8,7.8,7.5c-4.7,3.8-5.8,10.7-7.5,15.9c-1.8,5.6-9.9-2.1-10.3-5.2
	C247,426.6,256.1,422.4,258.1,415.6C259.2,414.7,257.2,418.9,258.1,415.6z"/>
<path class="st0" d="M490.7,422c-4.4-5.9-1.8-12.6,2.7-18.2c3.6-4.6,9.4-19.2,16.7-13.1c4.9,4.1-4.4,11.6-7.6,14.8
	C499.7,408.4,494.8,423.2,490.7,422C489.8,420.8,491.7,422.3,490.7,422z"/>
<path class="st0" d="M160.9,383.8c10.8-2.4,6.3,9,1.7,12.8c-3.9,3.3-6,17.8-11.1,18.6C139.6,416.8,156.4,386.8,160.9,383.8
	C162.6,383.5,160.1,384.4,160.9,383.8z"/>
<path class="st0" d="M163.9,483.3c3.3-5.9,7.6-11,12-15.9c2.6-2.9,1.7-5,6.1-5.2c4.4-0.2,7.2,2.8,4.3,6.8
	c-4.3,5.9-9.1,10.7-10.4,18.2C172.3,492.7,165.8,487.8,163.9,483.3C164.5,482.3,165.2,486.3,163.9,483.3z"/>
<path class="st0" d="M163,455.4c1.7,1.2,4,0.8,5.8,2.1c2.3,3.7-2.8,6.1-4.7,7.7c-3.1,2.6-5.6,6.2-7.9,9.5
	c-1.8,2.5-2.2,11.2-5.2,11.2c-7.1-3.9-9.1-7.7-3.8-14.4C151,466.5,157.1,458,163,455.4C164.2,456.3,161.4,456.1,163,455.4z"/>
<path class="st0" d="M373.5,438c6.9,0,8.1,4.3,3.5,9.1c-5.7,5.9-9.9,13-10.4,21c-0.3,5.2-5.3,3.3-7.9,1.3c-3.6-2.8-0.6-7,0.9-10.1
	C362,454.2,368.5,440.4,373.5,438C374.4,438,372.3,438.5,373.5,438z"/>
<path class="st0" d="M227.1,433c5.7-5.1,8.6-14.1,12.7-20.5c1.4-2.2,3.1-6,5.2-7.6c3.8-1.5,6.8,1.7,6.5,5.1
	c-5.5,6.1-9,13.1-12.8,20.3C236.2,437.8,233.7,442.4,227.1,433C229.9,430.5,228.4,434.8,227.1,433z"/>
<path class="st0" d="M689.7,253.9c-1.5-5.8,25.2-18.7,30.2-14.8C725.6,250.4,696.4,258,689.7,253.9
	C689.4,252.7,690.5,254.4,689.7,253.9z"/>
<path class="st0" d="M416.4,454c-4.1,6.5-9.8,11.7-13.6,18.5c-1.6,2.9-8.9,11.6-8.9,1.4C393.9,466.5,407.8,440.4,416.4,454
	C415.5,455.4,416.2,453.7,416.4,454z"/>
<path class="st0" d="M490.5,390.3c-0.7,4.8-13.7,32.5-19,20.7c-2.9-6.6,3-12,6.6-17.3C481.6,388.4,483.6,383.8,490.5,390.3
	C490.3,391.2,487.6,387.6,490.5,390.3z"/>
<path class="st0" d="M406,147.4c3.8-4.6,15.2,1.6,19.5,4.5c3.4,2.2,7.9,3.1,11.5,4.7c1.9,0.9-0.1,5,0.5,7.1
	C432.6,170.2,408.1,153.4,406,147.4C406.5,146.7,406.9,149.9,406,147.4z"/>
<path class="st0" d="M655.8,264.5c-4.5,2.4-40.1-2-34.5-8.8c2-2.5,17.4-0.7,21.2-0.3C649.5,256.1,660.3,255.5,655.8,264.5
	C655.2,264.7,656.4,263.2,655.8,264.5z"/>
<path class="st0" d="M285.8,419.3c-1.8,4.6-16.7,35.8-19.2,18.9C268.7,434.3,277.5,404.2,285.8,419.3
	C284.7,422,284.1,416.3,285.8,419.3z"/>
<path class="st0" d="M350.4,387c-12.8,5.6-3.2-23.9,1.3-27.5c2.4-1,7.6,0.5,8.6,3.1c-1.1,2.3-3.3,5.9-3.5,8.6
	C356.5,374.7,352.2,384,350.4,387C349.7,387.2,351.7,384.9,350.4,387z"/>
<path class="st0" d="M389.7,445.9c17.3-1.5,0,17.5-0.6,25.4c-3,7.6-12.5-2.3-7.3-8.6C386,457.9,387.2,451.5,389.7,445.9
	C394.5,445.5,389.3,446.8,389.7,445.9z"/>
<path class="st0" d="M223.8,83.7c-4.8,0.9-6.7-5.1-2.7-7.4C225,77.9,230.1,80.3,223.8,83.7C221.8,84.1,225.1,83,223.8,83.7z"/>
<path class="st0" d="M240.8,77c3.1-0.1,7.9,1,3.1,4.5C239,84.9,236.4,79.4,240.8,77C244.3,76.9,239.3,77.8,240.8,77z"/>
<path class="st0" d="M137.7,69.6C130,84.7,131.9,60.2,137.7,69.6C137,71,137.4,69.1,137.7,69.6z"/>
<path class="st0" d="M51.7,117.1c5.9,3.3,0.3,8.6-4.4,7.8C38.2,121.4,46.9,117.1,51.7,117.1C52.9,117.8,49.9,117.1,51.7,117.1z"/>
<path class="st0" d="M68.2,126.7c-8.6-5.2,3.1-7.5,7.7-4.9C83.2,126,70.4,126.6,68.2,126.7C66.8,125.9,69.8,126.6,68.2,126.7z"/>
</svg>
